<svg xmlns="http://www.w3.org/2000/svg" width="65.686" height="65.703" viewBox="0 0 65.686 65.703">
  <g transform="translate(0 0.009)">
    <circle cx="32.843" cy="32.843" r="32.843" transform="translate(0 0)" fill="#fff"/>
  </g>
  <g transform="translate(0 0.009)">
    <path d="M-3427.894,627.655a31.17,31.17,0,0,1,22.186,9.19,31.169,31.169,0,0,1,9.19,22.186,31.169,31.169,0,0,1-9.19,22.186,31.17,31.17,0,0,1-22.186,9.19,31.169,31.169,0,0,1-22.186-9.19,31.169,31.169,0,0,1-9.189-22.186,31.169,31.169,0,0,1,9.189-22.186,31.169,31.169,0,0,1,22.186-9.19m0-1.467a32.843,32.843,0,0,0-32.843,32.843,32.843,32.843,0,0,0,32.843,32.843,32.843,32.843,0,0,0,32.843-32.843,32.843,32.843,0,0,0-32.843-32.843Z" transform="translate(3460.737 -626.188)" fill="#bd3454"/>
  </g>
  <g transform="translate(25.473)">
    <path d="M-3357.116,627.556l-.023-.007h-.006l-.022-.007h0l-.021-.006-.005,0-.022-.006h0l-.019-.006h-.005l-.022-.007h0l-.019-.006h-.005l-.021-.006h-.005l-.019-.006h0l-.022-.006h0l-.02-.006h0l-.022-.006h-.006l-.02-.006h0l-.022-.006-.006,0-.022-.006h0l-.023-.006-.006,0-.022-.006h0l-.022-.006-.006,0-.022-.007h0l-.021-.006h-.005l-.023-.006h0l-.02-.006h-.005l-.022-.006h0l-.019-.006-.005,0-.022-.006h-.005l-.02-.006h0l-.022-.006h-.006l-.02-.006h0l-.022-.006-.006,0-.021-.006h0l-.023-.006h-.005l-.022-.006h0l-.02-.006h-.006l-.022-.006h0l-.019-.005-.006,0-.022-.006h0l-.019-.005h-.005l-.022-.006h-.005l-.019-.005h0l-.022-.006h-.005l-.019,0h0l-.022-.006h0l-.021-.006h0l-.021-.006-.006,0-.021-.005h0l-.023-.006-.006,0-.021-.006h0l-.021-.005-.007,0-.021-.006h0l-.019-.005-.006,0-.022-.006h0l-.019,0-.006,0-.022-.006h0l-.019,0h-.006l-.022-.006h-.006l-.017,0-.006,0-.021-.005h-.007l-.017,0h-.006l-.021-.005-.006,0-.019,0h0l-.021-.005-.007,0-.02,0,0,0-.02,0-.007,0-.02-.005h-.006l-.017,0-.008,0-.021-.005h-.006l-.016,0-.008,0-.021,0-.006,0-.016,0-.008,0-.021,0-.007,0-.016,0-.007,0-.021,0-.008,0-.016,0-.007,0-.02,0-.008,0-.017,0h-.005l-.021,0-.008,0-.017,0-.007,0-.019,0-.008,0-.019,0-.006,0-.018,0-.008,0-.021,0h-.005l-.017,0h-.008l-.021,0h-.005l-.018,0h-.007l-.021,0-.007,0-.016,0-.007,0-.02,0-.009,0-.014,0-.008,0-.02,0-.008,0-.015,0-.008,0-.02,0-.009,0-.015,0-.012,0-.015,0-.009,0-.015,0-.012,0-.014,0-.01,0-.014,0-.014,0-.012,0-.01,0-.017,0-.011,0-.013,0-.009,0-.019,0-.01,0-.013,0-.01,0-.019,0-.009,0-.013,0-.009,0-.019,0-.01,0-.013,0-.011,0-.017,0-.01,0-.013,0-.011,0-.016,0-.01,0-.013,0-.014,0-.013,0-.01,0-.013,0-.016,0-.01,0-.012,0-.013,0-.015,0-.011,0-.011,0-.018,0-.01,0-.011,0-.011,0-.018,0-.01,0-.011,0-.011,0-.018,0-.012,0-.01,0-.015,0-.013,0-.011,0-.01,0-.018,0-.011,0-.011,0-.01,0-.02,0-.01,0-.011,0-.011,0-.019,0-.009,0-.013,0h-.007l-.023,0h-.008l-.013,0h-.008l-.021,0-.009,0-.012,0-.01,0-.021,0h-.008l-.043-.008h-.007l-.023,0h-.007l-.013,0h-.007l-.023,0h-.006l-.013,0h-.008l-.024,0h-.005l-.014,0h-.005l-.026,0h0l-.015,0h0l-.027,0h-.005l-.045-.008h-.006l-.014,0h0l-.029-.005h-.005l-.045-.008h-.005l-.046-.008h0l-.047-.008h0l-.03-.005h0l-.016,0h0l-.028,0h0l-.015,0h0l-.031-.005h0l-.047-.008h0l-.047-.008h0l-.047-.008h0l-.047-.008h0l-.047-.008h0l-.032,0h0l-.016,0h0l-.049-.008h0l-.033-.005h0l-.1-.015h0l-.1-.015h0a32.614,32.614,0,0,0-11.637.357h0l-.045.01h0l-.045.01h0l-.045.01h0l-.03.006h0l-.015,0h0l-.046.01h0l-.029.006h0l-.015,0h0l-.026.006h-.006l-.013,0h0l-.026.006h-.006l-.013,0h0l-.026.006-.008,0-.011,0-.016,0-.012,0-.008,0-.016,0-.012,0-.011,0-.01,0-.015,0-.012,0-.011,0h0l1.586,6.862a25.783,25.783,0,0,1,13.207.441l2.027-6.745Z" transform="translate(3373.937 -626.158)" fill="#bd3454"/>
  </g>
  <g transform="translate(1.373 9.095)">
    <path d="M-3447.277,657.151a32.625,32.625,0,0,0-5.1,6.234h0l-.027.042h0l-.148.238h0c-.058.094-.115.187-.171.282h0l-.051.085h0c-.04.066-.079.132-.118.2h0l-.025.042h0l-.025.042h0l-.066.114h0l-.024.042v0l-.023.041,0,0-.023.042h0l-.024.043h0l-.024.042h0l-.024.042h0l-.016.027h0l-.008.014h0l-.016.028h0l-.023.042h0l-.023.042v0l-.023.042v0l-.023.042v0l-.023.041,0,0-.014.025v0l-.008.014h0l-.015.027v0l-.022.041,0,0-.022.041v0l-.023.041v0l-.022.041v0l-.022.041v0l-.038.071h0l-.023.042v0l-.022.041,0,0-.021.04v0l-.022.041,0,0-.021.041,0,0-.013.026v0l-.007.014h0l-.014.027v0l-.007.014h0l-.014.026,0,0-.021.041,0,0-.021.041,0,.005-.021.04,0,0-.021.041,0,0-.012.023v0l-.006.012,0,.007-.01.02,0,.006-.007.013,0,0-.012.023,0,.006-.007.012v0l-.013.026,0,0-.021.041,0,.005-.02.04,0,.005-.012.025v0l-.006.012,0,.007-.01.021,0,.005-.006.013,0,.005-.011.022,0,.005-.006.012,0,.006-.009.02,0,.008-.006.012,0,.007-.01.02,0,.007-.006.011,0,.01-.008.016,0,.008-.005.011-.007.015-.006.011,0,.008-.008.018,0,.009-.006.011,0,.009-.008.017,0,.009-.006.011,0,.009-.009.016,0,.009-.005.011,0,.009-.009.018,0,.008-.005.011,0,.009-.009.017,0,.009-.005.01-.005.012-.007.015,0,.009-.005.011-.007.015-.005.011,0,.009-.007.015-.005.011-.005.011,0,.009-.009.018,0,.008-.005.012,0,.008-.008.018,0,.009-.005.011,0,.009-.008.016,0,.01,0,.01-.006.011-.007.014,0,.01,0,.01-.006.011-.006.015,0,.009,0,.01-.008.017,0,.009-.005.011,0,.009-.007.017-.005.01,0,.011,0,.01-.007.015,0,.01-.005.011-.005.012-.006.013,0,.01,0,.011-.007.013,0,.012,0,.01-.006.013-.006.012,0,.012,0,.009-.008.018,0,.008-.005.013,0,.008-.008.018,0,.008,0,.012,0,.009-.008.018,0,.008-.006.014,0,.007-.008.018,0,.008-.006.013,0,.008-.007.017,0,.008-.006.014,0,.011-.006.014,0,.009-.006.014-.005.012-.005.012,0,.009-.007.016,0,.01-.005.013,0,.008-.008.018,0,.008-.005.013,0,.008-.008.018,0,.008-.006.014,0,.007-.008.018,0,.009-.006.014,0,.007-.008.019,0,.008-.006.015,0,.008-.007.016,0,.008-.007.016,0,.008-.007.015,0,.007-.008.019,0,.007-.006.014,0,.008-.008.019,0,.007-.005.014,0,.008-.008.019,0,.007-.006.014,0,.008-.008.018,0,.008-.006.014,0,.007-.008.019,0,.008-.006.015,0,.008-.007.017,0,.008-.007.016,0,.008-.006.015,0,.008-.007.017,0,.008-.006.015,0,.007-.008.019,0,.006-.006.014,0,.008-.007.018,0,.009-.006.013,0,.008-.008.018,0,.008-.006.016,0,0-.008.02,0,.007-.006.016,0,.005-.008.019,0,.008-.007.017,0,.006-.007.017,0,.008-.008.019,0,.005-.006.016,0,.007-.008.02,0,.006-.006.016,0,.007-.008.019,0,.006-.006.016,0,.007-.008.019,0,.007-.006.014,0,.007-.008.019,0,.007-.007.016,0,.005-.008.02,0,.007-.008.018,0,.005-.007.019,0,.006-.008.021v0l-.007.018,0,.006-.009.02v.005l-.007.017,0,.006-.008.02,0,.006-.006.017,0,.006-.008.02,0,.006-.007.017,0,0-.008.021,0,.007-.007.016,0,.006-.008.019,0,.008-.007.018v0l-.008.02,0,.006-.008.021v0l-.007.019,0,.006-.008.021v0l-.007.018,0,.006-.008.021v0l-.007.018v.006l-.008.02,0,.006-.006.017,0,0-.008.021,0,.006-.007.019v0l-.008.022,0,0-.008.02v0l-.008.021,0,.006-.008.021v0l-.007.019,0,.006-.008.021v0l-.007.019,0,.005-.007.021v0l-.006.018,0,.005-.008.021,0,.005-.006.018,0,0-.007.021,0,.006-.006.017,0,.005-.007.021,0,.006-.006.018v0l-.007.021,0,.007-.007.02v0l-.007.019,0,.007-.007.021v0l-.006.017,0,.007-.007.02,0,0-.006.018,0,.006-.007.021v0l-.006.018,0,.005-.007.021,0,.005-.006.019,0,0-.007.021,0,.005-.006.019v0l-.007.021,0,.006-.007.019v0l-.007.02v.005l-.008.022v0l-.006.02,0,.005-.007.022v0l-.006.019,0,.005-.007.021v.006l-.006.018,0,0-.007.022,0,.005-.006.019v0l-.007.022,0,0-.007.021v0l-.008.023v0l-.015.045v.005l-.007.023h0l-.007.022,0,.005-.007.022v0l-.007.021,0,.005-.007.022v0l-.007.019v0l-.007.022,0,0-.006.019v0l-.007.022v0l-.007.02v0l-.008.022v0l-.007.021h0l-.007.022v.005l-.008.022h0l-.007.022v.005l-.007.022v0l-.007.02v.005l-.007.022v0l-.006.021v0l-.007.023v0l-.006.02v0l-.007.022,0,.005-.006.02v0l-.007.022,0,.006-.006.021v0l-.007.022v.006l-.007.022h0l-.006.022,0,.006-.007.022v0l-.006.021v.005l-.007.022v0l-.006.019v.006l-.007.022v0l-.006.019v0l-.007.022v0l-.006.019v0l-.007.022v.005l-.006.021v0l-.007.022,0,.005-.006.023h0l0,.015-.012.038,6.749,2.016.013-.042a25.788,25.788,0,0,1,6.881-11.233l-4.86-5.1Z" transform="translate(3456.06 -657.151)" fill="#bd3454"/>
  </g>
  <g transform="translate(0.982 39.124)">
    <path d="M-3450.562,759.475l-6.83,1.72q.274,1.09.622,2.155h0l.015.046h0l.015.046h0l.015.046h0l.015.045v0l.015.044v0l.015.044v0l.014.043v0l.007.019v0l.007.021,0,0,.006.021h0l.007.021v0l.006.018v0l.007.021v.005l.006.017,0,0,.006.02,0,.006,0,.016,0,.005.006.02,0,.006.005.016v.005l.007.02,0,.006.005.016,0,.006.007.02,0,.005.005.015,0,.006.006.019,0,.007,0,.013,0,.008.006.018,0,.007,0,.013,0,.008.006.018,0,.007,0,.013,0,.009.006.018,0,.007,0,.013,0,.008.006.017,0,.007,0,.014,0,.009.005.014,0,.012,0,.011,0,.01,0,.013,0,.012,0,.012,0,.01,0,.011.006.015,0,.009,0,.012,0,.008.007.019,0,.008,0,.012,0,.007.007.02,0,.008,0,.011,0,.01.006.018,0,.008,0,.012,0,.008.006.016,0,.011,0,.011,0,.009.007.018,0,.008,0,.012,0,.008.008.023v0l0,.012,0,.008.009.024v0l0,.012,0,.008,0,.01,0,.014.005.013,0,.008.016.04,0,.005,0,.013h0l.01.026,0,.006.005.013h0l.011.027v0l0,.013v0l.01.025,0,0,0,.013v0l.01.026v0l.005.014v0l.01.025,0,0,0,.013v0l.011.027v0l.005.014,0,0,.01.027h0l.006.015h0l.018.045v0l.011.028v0l.005.014v0l.018.043v0l.018.044h0l.019.045h0l.036.091v0l.038.091h0q.432,1.061.937,2.088h0l.044.089h0l.044.089h0l.044.088h0l.045.089h0l.052.1h0l.023.044h0l.045.088h0l.022.043h0l.023.044h0l.045.087h0l.023.043h0l.022.043v0l.045.085,0,0,.022.042h0l.022.043h0l.047.087h0l.007.014h0l.022.042v0l.014.026h0l.007.013v0l.022.04,0,0,.014.026h0l.007.012,0,0,.021.038,0,.005.021.038,0,.006.021.038,0,0,.021.039,0,0,.021.038,0,.006.006.012,0,0,.013.023,0,.005.007.012,0,0,.013.022,0,.006.006.011,0,.007.01.018,0,.007.006.011,0,.006.011.019,0,.007.006.011,0,.007.011.019,0,.006.006.011,0,.006.011.02,0,.006.006.01,0,.008.01.017,0,.008.005.01,0,.009.009.015.005.01.006.01,0,.008.01.017,0,.007.006.011,0,.007.011.019,0,.006.006.011,0,.007.01.017,0,.008.006.01,0,.007.01.016.005.009.006.01,0,.008.006.01.008.015.005.009,0,.009.006.01.008.015.006.01,0,.008.006.01.009.015,0,.009.005.009.006.01.009.015.005.008.005.009.005.009.007.012.007.012.005.009.006.01.007.011.007.013.005.009.006.009.007.013.006.011.006.009.005.01.006.01.008.012.006.01.005.009.006.01.009.014.005.009.005.01,0,.008.01.015.005.009.005.009.006.01.008.013.006.011.005.009.006.01.005.009.009.014,0,.008.006.011.006.01.008.013.005.009.006.01,0,.008.01.015,0,.008.007.011,0,.007.01.016.005.009.006.01,0,.007.01.016,0,.008.007.011,0,.008.01.016.005.007.007.011,0,.007.01.016,0,.007.008.012,0,.007.01.016,0,.008.007.011,0,.007.011.016,0,.007.008.012,0,.007.011.016,0,.007.007.011,0,.007.011.017,0,.005.009.014,0,.006.01.016,0,.006.008.013,0,.007.009.014,0,.008.008.012,0,.007.008.014,0,.008.009.013,0,.007.009.014,0,.006.01.016,0,.006.009.014,0,0,.01.017,0,.005.01.016v0l.012.018,0,.005.01.014,0,0,.012.017,0,.005.009.015,0,0,.012.018,0,0,.009.014,0,.005.011.017,0,.006.009.013,0,.006.011.017,0,.005.008.013,0,.006.011.017,0,.005.008.013,0,.006.011.017,0,.005.009.013,0,.006.011.017,0,0,.01.015,0,.005.011.017,0,0,.009.014,0,.006.011.017,0,0,.01.015,0,.005.012.018v0l.011.016,0,.006.011.017,0,0,.01.015,0,.006.011.016,0,0,.01.014,0,.007.01.016,0,0,.011.016,0,.006.011.016h0l.012.018,0,.005.011.016v0l.012.018,0,0,.011.016v0l.012.018,0,.005.01.016,0,0,.012.018,0,0,.012.017h0l.012.018,0,0,.011.016,0,0,.012.018,0,0,.011.016v0l.013.018,0,0,.011.016v0l.013.018v0l.011.016,0,0,.012.018,0,0,.011.016,0,0,.013.018v0l.011.016,0,0,.012.018,0,0,.011.016,0,0,.013.019v0l.012.017,0,0,.013.019h0l.011.017,0,0,.013.018h0l.012.017,0,0,.012.018h0l.012.017,0,0,.025.037,0,0,.026.037v0l.027.037,0,0,.013.017v0l.013.018,0,0,.011.016,0,0,.013.018,0,0,.012.017,0,0,.013.018,0,0,.011.016v0l.013.018,0,0,.011.016,0,0,.013.018,0,0,.012.016,0,0,.014.019v0l.012.017,0,0,.013.018h0l.013.017v0l.014.019v0l.012.016,0,0,.013.018h0l.013.017,0,0,.014.018h0l.013.018,0,0,.013.018h0l.012.017,0,0,.013.018h0l.012.017,0,0,.026.035,0,0,.013.017h0l.013.018,0,0,.026.035,0,0,.013.017h0l.013.017,0,.005.012.016v0l.012.017,0,.005.011.015,0,0,.013.018,0,0,.012.016,0,0,.013.018,0,0,.012.015,0,0,.013.017,0,0,.012.015,0,0,.013.018,0,0,.012.015,0,0,.014.018,0,0,.012.015,0,0,.013.017,0,0,.012.015,0,0,.012.017,0,0,.01.014,0,0,.013.017,0,0,.011.015,0,0,.014.017v0l.011.015,0,0,.013.017,0,0,.011.014,0,.005.011.014,0,.005.01.013,0,.005.011.015,0,0,.011.014,0,.006.011.014,0,0,.012.015,0,.006.011.014,0,0,.013.016,0,.005.01.013,0,0,.012.016,0,.006.01.012,0,.005.013.016,0,.006.009.012,0,.005.012.016.006.006.008.011.005.006.012.015.005.007.007.01.006.007.012.015,0,.006.009.011.005.006.012.015.006.008.007.009.006.008.012.014.006.008.007.009.006.008.012.014.006.008.007.009.006.009.01.011.008.01.007.009.006.008.01.012.008.009.007.009.007.008.009.011.009.01.006.009.007.008.007.009.011.014.006.007.008.01,0,.005.013.016.006.007.008.009.006.008.012.014.006.008.007.009.007.007.011.014.006.008.007.009.007.008.01.012.007.009.008.009.006.007.012.014.006.009.008.009.006.008.01.013.008.009.007.009.006.008.01.012.008.01.008.009.006.007.013.015.005.007.008.01.005.006.009.01.01.012.007.009.006.007.026.032.005.006.008.01h0l.018.021,0,.005.009.01,0,0,.017.02,0,0,.03.034,0,0,.009.011h0l.019.022,0,0,.031.035v0l.032.037h0l.032.037h0l.011.013h0l.021.025h0l.043.05,0,0q.523.6,1.077,1.183l5.09-4.868a25.966,25.966,0,0,1-6.4-11.585Z" transform="translate(3457.392 -759.475)" fill="#bd3454"/>
  </g>
  <g transform="translate(24.06 57.712)">
    <path d="M-3363.656,822.974a25.754,25.754,0,0,1-13.21-.159l-1.886,6.786q1.609.447,3.224.726h0l.05.009h0l.048.008h0l.049.008h0l.048.008h0l.047.008h0l.03,0h0l.015,0h0l.027,0h0l.015,0h.005l.025,0h.006l.014,0h0l.026,0h.007l.013,0h.009l.021,0h.009l.013,0,.012,0,.016,0h.01l.013,0,.014,0,.015,0h.01l.012,0,.017,0,.012,0h.01l.011,0,.018,0,.011,0,.011,0,.014,0,.015,0h.01l.013,0,.013,0,.016,0h.009l.013,0,.014,0,.014,0h.01l.015,0,.012,0,.014,0h.01l.016,0h.011l.014,0h.009l.02,0h.008l.015,0h.008l.021,0h.007l.017,0h.006l.021,0h.006l.017,0h.006l.021,0h.007l.018,0h0l.021,0h.006l.02,0h0l.021,0h.007l.02,0h0l.022,0h.005l.046.006h0l.046.006h.005l.022,0h0l.021,0h0l.023,0h0l.021,0h0l.023,0h0l.021,0h0l.023,0h0l.022,0h0l.024,0h0l.023,0h0l.024,0h0l.022,0h0l.024,0h0l.048.006h0l.048.006h0l.048.006h0l.049.006h0l.05.006h0l.281.03h0a32.635,32.635,0,0,0,11.375-.833l-1.732-6.827Z" transform="translate(3378.752 -822.815)" fill="#bd3454"/>
  </g>
  <g transform="translate(51.06 39.706)">
    <path d="M-3273.3,763.333l-6.789-1.875q-.078.285-.164.57a25.823,25.823,0,0,1-6.49,10.851l4.967,4.994a32.672,32.672,0,0,0,2.973-3.4h0l.015-.02h0l.015-.02h0l.015-.019h0l.029-.038v0l.014-.019h0l.015-.019h0l.014-.019v0l.014-.019h0l.014-.018v0l.014-.018,0,0,.013-.018h0l.014-.019,0,0,.028-.037,0,0,.014-.019v0l.013-.018h0l.014-.019v0l.014-.019h0l.014-.019v0l.014-.018,0,0,.014-.018h0l.013-.019,0,0,.013-.018,0,0,.012-.016,0,0,.012-.017,0,0,.012-.016v0l.013-.018,0,0,.013-.018,0,0,.012-.016,0,0,.013-.018,0,0,.012-.017v0l.012-.017,0-.005.012-.017,0,0,.01-.014,0-.005.012-.017,0,0,.012-.016,0,0,.011-.016,0-.005.012-.017,0-.005.01-.014,0-.005.012-.016,0-.006.01-.015,0,0,.01-.014,0-.006.011-.016,0-.006.009-.013,0-.006.011-.016,0-.006.01-.014.005-.007.009-.013,0-.006.011-.016,0-.007.009-.011,0-.006.011-.016,0-.007.01-.015,0-.006.009-.013,0-.007.011-.016,0-.007.009-.012.005-.008.01-.014,0-.007.009-.013.006-.009.008-.012,0-.006.011-.016.005-.007.008-.011.006-.009.009-.013.006-.008.009-.013.006-.009.007-.01,0-.007.01-.015.006-.008.006-.009.009-.013.007-.01.006-.008.009-.012.007-.01.006-.01.006-.008.01-.015.006-.009.006-.009.009-.014.006-.009.006-.009.006-.009.01-.014.005-.007.009-.014.006-.01.007-.01.005-.008.01-.015.006-.008.006-.01.006-.009.01-.015.005-.008.006-.009.01-.014.006-.01.006-.008.011-.016,0-.007.007-.01.005-.007.01-.016.006-.008.009-.012.007-.011.007-.01,0-.007.01-.016,0-.008.007-.01.006-.01.009-.013,0-.008.01-.014.006-.009.007-.01,0-.007.01-.016.005-.007.007-.01.005-.008.01-.015.005-.008.009-.014.006-.01.006-.009.006-.009.009-.015.006-.009.006-.01.009-.014.007-.01,0-.008.009-.014.006-.009.007-.01.006-.008.01-.015,0-.008.007-.01.008-.013.007-.01,0-.007.011-.017,0-.007.007-.011,0,0,.013-.02,0-.006.013-.021,0,0,.006-.01,0-.007.01-.016,0-.007.007-.011,0-.005.011-.018,0-.006.012-.02,0,0,.007-.011,0-.005.012-.019,0-.006.007-.011,0-.007.011-.017,0-.007.01-.016,0-.008.007-.011.005-.007.01-.016,0-.007.007-.011,0-.005.012-.019,0-.006.013-.021,0,0,.007-.011,0-.005.012-.02,0-.005.007-.011,0,0,.012-.02,0-.006.013-.021,0,0,.007-.012,0-.005.012-.02,0,0,.022-.037,0-.005.012-.021,0,0,.007-.012,0,0,.013-.021,0,0,.022-.037,0,0,.014-.023,0,0,.007-.013,0,0,.013-.021,0,0,.022-.037,0-.005.013-.022v0l.008-.013,0,0,.013-.021,0-.005.022-.037,0-.005.013-.021,0,0,.007-.012,0,0,.012-.021,0,0,.022-.037,0,0,.013-.022,0,0,.007-.013h0l.014-.024,0,0,.022-.038,0,0,.013-.022,0,0,.007-.013h0l.014-.025,0,0,.022-.038,0,0,.014-.023v0l.022-.038,0,0,.022-.038,0,0,.014-.023v0l.022-.039v0l.023-.039v0l.013-.023,0,0,.021-.038,0,0,.013-.024h0l.007-.013,0,0,.013-.022,0,0,.021-.038,0-.005.013-.023v0l.008-.013v0l.013-.024,0,0,.021-.039v0l.022-.04h0l.013-.025,0,0,.021-.038,0,0,.014-.025h0l.007-.014h0l.014-.025,0,0,.021-.04v0l.013-.025v0l.007-.013h0l.014-.026,0,0,.022-.04v0l.013-.025h0l.022-.041h0l.022-.041h0l.015-.027h0l.021-.04,0,0,.014-.026h0l.007-.013v0l.013-.025v0l.021-.04,0,0,.013-.026h0l.007-.014v0l.013-.025v0l.021-.039,0,0,.012-.022,0,0,.006-.012,0,0,.011-.022,0,0,.02-.039,0-.005.011-.021,0,0,.007-.013,0,0,.011-.023,0,0,.02-.039,0,0,.011-.022,0,0,.006-.013,0,0,.012-.023,0,0,.02-.04,0,0,.012-.024v0l.007-.014h0l.013-.026,0,0,.02-.039,0-.006.01-.02,0-.007.006-.012,0-.006.01-.02,0-.006.019-.038,0-.006.01-.021,0-.006.006-.012,0,0,.012-.023,0,0,.012-.024v0l.006-.012,0-.006.01-.02,0-.007.006-.012v0l.012-.024,0-.006.01-.022,0,0,.006-.012,0-.006.009-.019,0-.007.006-.012,0-.006.01-.02,0-.007.01-.021,0-.005.005-.012,0-.006.009-.019,0-.008.006-.011,0-.006.01-.021,0-.007.01-.02,0-.006.006-.012,0-.006.01-.02,0-.007.018-.038,0-.006.01-.021,0-.005.006-.012,0-.006.009-.019,0-.008.005-.011,0-.005.01-.021,0-.007.009-.019,0-.008.005-.011,0-.008.008-.018,0-.008.007-.015.006-.011.005-.01,0-.009.008-.017,0-.009,0-.011.005-.011.007-.015,0-.01,0-.009.007-.016,0-.01,0-.01.008-.016,0-.008.005-.011,0-.01.007-.016,0-.009.006-.014.006-.012,0-.01,0-.011.006-.014.005-.011,0-.009.007-.016,0-.01.006-.011,0-.009.007-.016,0-.01.005-.011.006-.014,0-.011,0-.01.007-.016,0-.009.006-.011,0-.011.007-.015,0-.01.005-.012.006-.013,0-.011,0-.01.007-.016,0-.009,0-.011.005-.012.006-.013,0-.01.006-.012.006-.013,0-.011,0-.01.007-.016,0-.009,0-.011.005-.012.006-.014,0-.01.006-.012.006-.013,0-.011,0-.01.008-.017,0-.008.006-.013,0-.01.006-.015,0-.01.006-.014,0-.01.005-.013,0-.008.008-.018,0-.009,0-.012,0-.012.006-.014,0-.009.007-.016,0-.009.005-.012,0-.008.008-.018,0-.008.006-.014,0-.009.006-.015,0-.009.007-.017,0-.008.005-.012,0-.009.007-.017,0-.009.006-.013,0-.011.005-.014,0-.009.007-.017,0-.008.006-.013,0-.008.008-.018,0-.008.006-.014,0-.012.006-.013,0-.01.008-.017,0-.009,0-.012,0-.009.007-.017,0-.008.006-.014,0-.01.006-.014,0-.008.008-.018,0-.007.006-.014,0-.007.007-.018,0-.008.007-.017,0-.007.006-.016,0-.008.008-.018,0-.007.006-.015,0-.007.007-.019,0-.008.006-.016,0-.01.006-.013,0-.009.007-.018,0-.008,0-.013,0-.007.008-.018,0-.008.008-.019,0-.006.006-.015,0-.008.007-.019,0-.007.006-.016,0-.006.007-.019,0-.007.007-.018,0-.007.006-.015,0-.007.008-.019,0-.007.006-.016,0,0,.007-.02,0-.006.008-.02,0,0,.006-.016,0-.007.007-.019,0-.007.006-.016,0-.008.007-.018,0-.007.007-.019,0-.006.006-.015,0-.007.007-.019,0-.008.006-.016,0-.005.007-.019,0-.006.008-.02,0-.005.006-.016,0-.006.007-.019,0-.007.007-.018,0,0,.007-.02,0-.006.008-.02,0-.005.006-.018,0,0,.008-.021,0-.005.007-.021v0l.008-.02,0-.006.007-.021,0,0,.007-.019v0l.008-.021,0-.006.008-.021v0l.007-.019v-.006l.008-.021,0-.005.006-.018,0,0,.007-.02,0-.006.008-.02v0l.007-.018,0-.005.008-.021,0-.005.006-.018,0,0,.007-.021,0-.006.007-.021v0l.007-.018,0-.006.007-.02,0-.007.006-.017,0,0,.007-.021,0-.006.008-.021v0l.006-.019,0,0,.008-.021,0-.005.007-.019v0l.007-.021,0-.006.007-.021,0,0,.006-.019v0l.008-.021,0-.006.007-.019v0l.007-.021,0-.006.007-.021v0l.007-.019,0,0,.007-.021,0-.006.006-.018,0-.005.007-.019,0-.006.007-.021,0,0,.007-.02v0l.007-.022,0-.005.015-.044v0l.008-.022v0l.007-.021v0l.008-.023v0l.008-.023h0l.008-.023v0l.007-.022,0,0,.007-.02v0l.007-.021,0-.006.007-.022h0l.007-.021,0-.006.007-.021v0l.007-.021v0l.008-.023v0l.007-.023v0l.007-.022v0l.008-.022v0l.007-.022h0l.008-.022v-.005l.007-.022v0l.007-.021v0l.007-.022v0l.007-.022h0l.007-.023,0,0,.007-.022v0l.007-.021v0l.007-.022,0-.006.007-.021h0l.007-.022,0-.006.007-.021v0l.006-.02v0l.006-.022v0l.007-.022h0l.007-.023v-.005l.007-.022v0l.006-.02v0l.007-.022v0l.014-.045,0-.006.007-.022v0l.006-.021v0l.007-.022,0-.005.007-.023h0l.007-.024,0-.008,0-.017,0-.009,0-.014,0-.011,0-.013,0-.012,0-.012,0-.013,0-.011,0-.013,0-.009.024-.081v0l.006-.019v0l.006-.019v0l.006-.02v0q.045-.156.089-.313v0l0-.016,0-.009,0-.013,0-.013,0-.01,0-.016v-.006l0-.007Z" transform="translate(3286.746 -761.458)" fill="#bd3454"/>
  </g>
  <g transform="translate(51.088 9.627)">
    <path d="M-3281.667,658.963l-4.985,4.975a25.972,25.972,0,0,1,6.646,11.447l6.792-1.865,0-.012v0l-.006-.021v-.006l0-.017v0l-.006-.021,0-.006,0-.016v-.006l-.006-.019,0-.008,0-.014,0-.007-.005-.019,0-.008,0-.014,0-.008-.005-.019,0-.009,0-.012,0-.009-.005-.018,0-.01,0-.011,0-.01,0-.013,0-.015,0-.008,0-.011,0-.01,0-.017,0-.01,0-.011,0-.01,0-.018,0-.009,0-.011,0-.01-.005-.018,0-.009,0-.011,0-.009-.006-.019,0-.007,0-.012,0-.008-.006-.021,0-.008,0-.012,0-.006-.007-.024v-.005l0-.013v-.005l-.008-.026v0l0-.014v0l-.013-.045v0l-.014-.046h0l-.014-.047v0a33,33,0,0,0-8.211-13.725Z" transform="translate(3286.652 -658.963)" fill="#bd3454"/>
  </g>
  <g transform="translate(9.572 9.581)">
    <g transform="translate(0)">
      <path d="M-3409.46,656.547a20.942,20.942,0,0,1,20.918,20.918,20.942,20.942,0,0,1-20.918,20.918,20.942,20.942,0,0,1-20.918-20.918,20.942,20.942,0,0,1,20.918-20.918m0-2.353a23.27,23.27,0,0,0-23.27,23.27,23.27,23.27,0,0,0,23.27,23.27,23.27,23.27,0,0,0,23.271-23.27,23.27,23.27,0,0,0-23.271-23.27Z" transform="translate(3432.73 -654.194)" fill="#bd3454"/>
    </g>
  </g>
</svg>
