<svg xmlns="http://www.w3.org/2000/svg" width="137.485" height="58.264" viewBox="0 0 137.485 58.264">
  <g transform="translate(-480 -3842.736)">
    <g transform="translate(480 3842.736)">
      <path d="M-2816.931,781.655c-23.551,18.717-47.932,32.54-73.976,41.868,19.764-13.1,38.081-27.153,60.431-45.516C-2825.674,774.805-2819.655,776.791-2816.931,781.655Z" transform="translate(2908.47 -776.449)" fill="#fff"/>
      <path d="M-2764.832,833.267h-137.485c.831-.508,1.646-1.016,2.462-1.524,33.663-9.451,63.587-25.567,90.954-47.132,1.709-1.339,3.417-2.724,5.111-4.11a7.976,7.976,0,0,1,4.448-1.37,8.808,8.808,0,0,1,7.974,5.572C-2783.687,803.605-2779.223,818.428-2764.832,833.267Z" transform="translate(2902.317 -775.002)" fill="#bd3454"/>
    </g>
    <path d="M6048.186,1328.942a22.678,22.678,0,0,0-3.249-3.668c-2.493-2.439-5.306-4.6-7.437-7.4-2.13,2.8-4.945,4.966-7.437,7.4a22.608,22.608,0,0,0-3.249,3.668c-1.762,2.7-2.15,5.608-.356,8.518a6.626,6.626,0,0,0,8.243,2.737,11.055,11.055,0,0,0,1.867-1.321c.06-.057-2.554,6.025-2.554,6.025h6.972s-2.613-6.082-2.553-6.025a10.993,10.993,0,0,0,1.866,1.321,6.625,6.625,0,0,0,8.242-2.737C6050.335,1334.55,6049.947,1331.644,6048.186,1328.942Z" transform="translate(-5461.213 2548.486)" fill="#fff"/>
  </g>
</svg>
