<svg xmlns="http://www.w3.org/2000/svg" width="40" height="40" viewBox="0 0 40 40">
  <g transform="translate(-1631 -45)">
    <path d="M175.435,3027.8a29.186,29.186,0,0,0-.244-4.128,32.1,32.1,0,0,0-5.4-14.009,1.661,1.661,0,0,0-.753-.632,32.872,32.872,0,0,0-7.187-2.166.438.438,0,0,0-.562.266c-.233.485-.5.956-.713,1.45a.365.365,0,0,1-.466.245,28.394,28.394,0,0,0-8.21,0,.369.369,0,0,1-.467-.25c-.22-.491-.489-.96-.719-1.447-.123-.26-.28-.308-.562-.257a33.622,33.622,0,0,0-7.232,2.191,1.452,1.452,0,0,0-.68.565,38.394,38.394,0,0,0-2.864,5.162,31.366,31.366,0,0,0-2.661,15.866.786.786,0,0,0,.333.639,33.021,33.021,0,0,0,9.133,4.565.465.465,0,0,0,.631-.191,31.053,31.053,0,0,0,1.682-2.7c.154-.282.113-.408-.184-.517a16.508,16.508,0,0,1-2.291-1.056c-.185-.1-.5-.136-.5-.364,0-.264.331-.348.523-.5s.384.019.562.094a23.234,23.234,0,0,0,18.615.062c.124-.052.243-.117.37-.162.441-.157.693.2.86.452.151.227-.233.294-.4.384a14.94,14.94,0,0,1-2.29,1.055c-.364.125-.433.273-.232.615.5.857,1.017,1.706,1.576,2.529a.58.58,0,0,0,.79.255,33.722,33.722,0,0,0,8.97-4.448.926.926,0,0,0,.454-.781C175.358,3029.624,175.467,3028.667,175.435,3027.8Zm-25.049-1.229a5.37,5.37,0,0,1-.677.113,3.371,3.371,0,0,1-2.72-1.246,4.1,4.1,0,0,1,.022-5.215,3.288,3.288,0,0,1,5.214.116A3.977,3.977,0,0,1,150.386,3026.57Zm11.753.084a3.337,3.337,0,0,1-2.686-1.905,4.046,4.046,0,0,1,.845-4.9,3.088,3.088,0,0,1,3.3-.647,3.6,3.6,0,0,1,2.331,2.943,5.733,5.733,0,0,1,.059.634C165.935,3025.18,164.239,3026.852,162.138,3026.654Z" transform="translate(1494.983 -2956.848)" fill="#fefefe"/>
    <rect width="40" height="40" transform="translate(1631 45)" fill="none"/>
  </g>
</svg>
