<svg xmlns="http://www.w3.org/2000/svg" width="248.37" height="62.289" viewBox="0 0 248.37 62.289">
  <g id="TokPok_logo" data-name="TokPok logo" transform="translate(-9638.966 -2059.419)">
    <path id="路径_9614" data-name="路径 9614" d="M9968.44,2140.781a7.191,7.191,0,0,1,2.629,2.629,7.016,7.016,0,0,1,.968,3.6v10.1a7.016,7.016,0,0,1-.968,3.6,7.2,7.2,0,0,1-2.629,2.628,7.1,7.1,0,0,1-3.644.969h-10.7a6.978,6.978,0,0,1-3.62-.969,7.248,7.248,0,0,1-2.606-2.628,7.025,7.025,0,0,1-.968-3.6v-10.1a7.025,7.025,0,0,1,.968-3.6,7.243,7.243,0,0,1,2.606-2.629,6.98,6.98,0,0,1,3.62-.969h10.7A7.1,7.1,0,0,1,9968.44,2140.781Zm-3.828,7.7a3.7,3.7,0,0,0-3.736-3.736h-2.858a3.7,3.7,0,0,0-3.735,3.736v7.148a3.7,3.7,0,0,0,3.735,3.735h2.858a3.7,3.7,0,0,0,3.736-3.735Z" transform="translate(-206.865 -54.007)" fill="#fffdfe"/>
    <path id="路径_9615" data-name="路径 9615" d="M10034.436,2117.894h7.379v31.682h-7.379Zm16.28,19.461,10.146,12.221h-8.947l-10.1-12.221,8.024-12.267h8.9Z" transform="translate(-265.667 -39.282)" fill="#fffdfe"/>
    <path id="路径_9616" data-name="路径 9616" d="M10148.376,2119.137a10.3,10.3,0,0,1,3.759,3.736,10.007,10.007,0,0,1,1.384,5.165,10.128,10.128,0,0,1-1.384,5.188,10.249,10.249,0,0,1-3.759,3.759,10.122,10.122,0,0,1-5.187,1.383h-13.558v11.115h-7.38v-31.729h20.938A10.125,10.125,0,0,1,10148.376,2119.137Zm-3.85,12.728a5.211,5.211,0,0,0,1.567-3.828,5.353,5.353,0,0,0-5.35-5.35h-11.113v10.745h11.113A5.153,5.153,0,0,0,10144.526,2131.865Z" transform="translate(-324.659 -39.187)" fill="#fffdfe"/>
    <path id="路径_9617" data-name="路径 9617" d="M10315.162,2117.894h7.378v31.682h-7.378Zm16.279,19.461,10.146,12.221h-8.947l-10.1-12.221,8.024-12.267h8.9Z" transform="translate(-454.252 -39.282)" fill="#fffdfe"/>
    <path id="路径_9618" data-name="路径 9618" d="M10251.795,2143.41a7.184,7.184,0,0,0-2.629-2.629,7.1,7.1,0,0,0-3.644-.969h-10.7a6.975,6.975,0,0,0-3.62.969,7.241,7.241,0,0,0-2.605,2.629,7.017,7.017,0,0,0-.969,3.6v10.1a7.017,7.017,0,0,0,.969,3.6,7.245,7.245,0,0,0,2.605,2.628,6.973,6.973,0,0,0,3.62.969h10.7a7.1,7.1,0,0,0,3.644-.969,7.189,7.189,0,0,0,2.629-2.628,7.025,7.025,0,0,0,.968-3.6v-10.1A7.025,7.025,0,0,0,10251.795,2143.41Zm-4.605,12.382a4.248,4.248,0,0,1-5.286,1.756,7.047,7.047,0,0,1-1.2-.847c-.04-.037,1.638,3.865,1.638,3.865h-4.474s1.678-3.9,1.638-3.865a7.047,7.047,0,0,1-1.2.847,4.25,4.25,0,0,1-5.287-1.756,4.8,4.8,0,0,1,.228-5.464,14.571,14.571,0,0,1,2.085-2.353,4.771,4.771,0,0,1,9.541,0,14.531,14.531,0,0,1,2.086,2.353A4.793,4.793,0,0,1,10247.189,2155.792Z" transform="translate(-395.449 -54.007)" fill="#fffdfe"/>
    <g id="组_3697" data-name="组 3697" transform="translate(9638.966 2059.419)">
      <path id="路径_9619" data-name="路径 9619" d="M9743.813,2100.915a12.072,12.072,0,0,1-12.059,12.059h-7.96v-3.611h7.96a8.447,8.447,0,1,0,0-16.894v-3.61A12.071,12.071,0,0,1,9743.813,2100.915Z" transform="translate(-9695.951 -2079.196)" fill="#fff"/>
      <path id="路径_9620" data-name="路径 9620" d="M9754.205,2081.138a21.742,21.742,0,0,1-21.718,21.719h-8.692v-3.61h8.692a18.108,18.108,0,0,0,0-36.216v-3.611A21.744,21.744,0,0,1,9754.205,2081.138Z" transform="translate(-9695.951 -2059.419)" fill="#fff"/>
      <rect id="矩形_2098" data-name="矩形 2098" width="5.57" height="3.61" transform="translate(23.054 39.827)" fill="#c1b9be"/>
      <rect id="矩形_2099" data-name="矩形 2099" width="5.57" height="3.61" transform="translate(23.054 30.167)" fill="#c1b9be"/>
      <path id="路径_9621" data-name="路径 9621" d="M9669.183,2084.39h-10.766v43.925h-6.265V2084.39h-9.576v-6.15h26.606v-3.61h-30.217V2088h9.575v43.925h13.486V2088h7.155Z" transform="translate(-9638.966 -2069.637)" fill="#fff"/>
      <path id="路径_9622" data-name="路径 9622" d="M9731.031,2064.412l6.317-4.992v3.61l-6.317,4.992Z" transform="translate(-9700.813 -2059.42)" fill="#c1b9be"/>
      <path id="路径_9623" data-name="路径 9623" d="M9731.031,2093.948l5.586-5.091v3.61l-5.586,5.091Z" transform="translate(-9700.813 -2079.195)" fill="#c1b9be"/>
    </g>
    <path id="路径_9624" data-name="路径 9624" d="M9847,2117.613v5.564h11.53v26.211h7.424v-26.211h11.528v-5.564Z" transform="translate(-139.755 -39.093)" fill="#fffdfe"/>
  </g>
</svg>
