<svg xmlns="http://www.w3.org/2000/svg" width="658.95" height="494.001" viewBox="0 0 658.95 494.001">
  <g transform="translate(-5815.304 293.284)">
    <g>
      <g>
        <rect width="205" height="225" rx="10" transform="translate(6030.242 -293.283)" fill="#fff"/>
      </g>
      <g>
        <path d="M6225.242-68.284h-185a10.011,10.011,0,0,1-10-10v-205a10.012,10.012,0,0,1,10-10h185a10.012,10.012,0,0,1,10,10v205A10.011,10.011,0,0,1,6225.242-68.284Zm-185-222a7.009,7.009,0,0,0-7,7v205a7.008,7.008,0,0,0,7,7h185a7.008,7.008,0,0,0,7-7v-205a7.008,7.008,0,0,0-7-7Z" fill="#bd3454"/>
      </g>
    </g>
    <g>
      <g>
        <rect width="205" height="165" rx="10" transform="translate(6030.242 35.717)" fill="#fff"/>
      </g>
      <g>
        <path d="M6225.242,200.716h-185a10.011,10.011,0,0,1-10-10v-145a10.012,10.012,0,0,1,10-10h185a10.012,10.012,0,0,1,10,10v145A10.011,10.011,0,0,1,6225.242,200.716Zm-185-162a7.009,7.009,0,0,0-7,7v145a7.008,7.008,0,0,0,7,7h185a7.008,7.008,0,0,0,7-7v-145a7.008,7.008,0,0,0-7-7Z" fill="#bd3454"/>
      </g>
    </g>
    <g style="isolation: isolate">
      <g style="isolation: isolate">
        <path d="M6067.756,93.415a3.523,3.523,0,0,0-1.261,1.259,3.343,3.343,0,0,0-.466,1.728v4.44a3.413,3.413,0,0,0,.466,1.741,3.493,3.493,0,0,0,1.261,1.271,3.33,3.33,0,0,0,1.728.468h4.679V97.627H6078v9.263h-9.816a5.868,5.868,0,0,1-3.025-.816,6.043,6.043,0,0,1-3-5.232V96.4a5.882,5.882,0,0,1,.8-3.012,6.019,6.019,0,0,1,2.2-2.2,5.877,5.877,0,0,1,3.025-.815H6078v2.567h-8.52A3.331,3.331,0,0,0,6067.756,93.415Z"/>
        <path d="M6094.347,94.146V106.89h-3.84v-.672a9.694,9.694,0,0,1-3.552.672h-3.911a3.033,3.033,0,0,1-1.56-.42,3.119,3.119,0,0,1-1.141-1.139,3.058,3.058,0,0,1-.42-1.561v-6.5a3.05,3.05,0,0,1,.42-1.559,3.109,3.109,0,0,1,1.141-1.141,3.052,3.052,0,0,1,1.56-.42h3.887a9.925,9.925,0,0,1,3.576.672v-.672Zm-3.84,9.5V97.386a9.777,9.777,0,0,0-3.576-.672h-1.223a1.926,1.926,0,0,0-1.945,1.944v3.721a1.926,1.926,0,0,0,1.945,1.943h1.223A9.777,9.777,0,0,0,6090.507,103.65Z"/>
        <path d="M6114.939,94.65a3.741,3.741,0,0,1,1.369,1.368,3.652,3.652,0,0,1,.5,1.872v9h-3.865V98.658a1.882,1.882,0,0,0-.563-1.38,1.854,1.854,0,0,0-1.356-.564h-.577a1.854,1.854,0,0,0-1.356.564,1.883,1.883,0,0,0-.564,1.38v8.232h-3.864V98.658a1.875,1.875,0,0,0-.564-1.38,1.85,1.85,0,0,0-1.356-.564h-.551a1.927,1.927,0,0,0-1.945,1.944v8.232h-3.84v-9a3.652,3.652,0,0,1,.5-1.872,3.738,3.738,0,0,1,1.368-1.368,3.654,3.654,0,0,1,1.872-.5h3.6a4.843,4.843,0,0,1,2.857.937,4.734,4.734,0,0,1,2.832-.937h3.624A3.651,3.651,0,0,1,6114.939,94.65Z"/>
        <path d="M6129.435,94.146a2.5,2.5,0,0,1,2.519,2.521v2.807a2.45,2.45,0,0,1-.731,1.777,2.414,2.414,0,0,1-1.788.743h-6.721v.864a1.477,1.477,0,0,0,1.465,1.464h7.488v2.568h-8.761a3.94,3.94,0,0,1-2.028-.54,4.013,4.013,0,0,1-1.463-1.464,3.949,3.949,0,0,1-.541-2.028v-4.68a3.952,3.952,0,0,1,.541-2.028,4.028,4.028,0,0,1,1.463-1.464,3.95,3.95,0,0,1,2.028-.54Zm-1.645,4.981a.972.972,0,0,0,.3-.708v-.7a1.026,1.026,0,0,0-1.008-1.008h-2.9a1.477,1.477,0,0,0-1.465,1.464v1.248h4.369A.964.964,0,0,0,6127.79,99.127Z"/>
        <path d="M6152.427,106.89h-3.865V90.4h3.865Z"/>
        <path d="M6165.843,94.65a3.736,3.736,0,0,1,1.367,1.368,3.652,3.652,0,0,1,.5,1.872v5.256a3.652,3.652,0,0,1-.5,1.872,3.735,3.735,0,0,1-1.367,1.368,3.7,3.7,0,0,1-1.9.5h-5.569a3.633,3.633,0,0,1-1.884-.5,3.772,3.772,0,0,1-1.356-1.368,3.647,3.647,0,0,1-.5-1.872V97.89a3.647,3.647,0,0,1,.5-1.872,3.773,3.773,0,0,1,1.356-1.368,3.633,3.633,0,0,1,1.884-.5h5.569A3.7,3.7,0,0,1,6165.843,94.65Zm-1.992,4.008a1.927,1.927,0,0,0-1.945-1.944h-1.487a1.926,1.926,0,0,0-1.945,1.944v3.721a1.926,1.926,0,0,0,1.945,1.943h1.487a1.927,1.927,0,0,0,1.945-1.943Z"/>
        <path d="M6184.034,94.146v12.481a3.938,3.938,0,0,1-.54,2.027,4.111,4.111,0,0,1-1.464,1.476,3.883,3.883,0,0,1-2.028.552h-9.864V108.09h8.568a1.437,1.437,0,0,0,1.056-.432,1.408,1.408,0,0,0,.433-1.031v-1.993a13.19,13.19,0,0,1-4.538.912h-2.951a3.042,3.042,0,0,1-1.56-.419,3.167,3.167,0,0,1-1.56-2.725V97.266a3.041,3.041,0,0,1,.42-1.559,3.114,3.114,0,0,1,1.14-1.141,3.052,3.052,0,0,1,1.56-.42h2.928a13.907,13.907,0,0,1,4.561.888v-.888Zm-7.44,8.809a16.72,16.72,0,0,0,3.6-1.057v-4.1a18.054,18.054,0,0,0-3.6-1.081h-1.224a1.893,1.893,0,0,0-1.368.564,1.86,1.86,0,0,0-.576,1.38v2.352a1.858,1.858,0,0,0,.576,1.38,1.89,1.89,0,0,0,1.368.565Z"/>
        <path d="M6186.241,90.4h3.84v3.744h-3.84Zm0,4.7h3.84V106.89h-3.84Z"/>
        <path d="M6205.37,106.89h-9.312a3.75,3.75,0,0,1-3.768-3.767V97.915a3.7,3.7,0,0,1,.5-1.9,3.747,3.747,0,0,1,3.264-1.872h9.312v2.568h-7.3a1.89,1.89,0,0,0-1.367.564,1.858,1.858,0,0,0-.576,1.38v3.721a1.856,1.856,0,0,0,.576,1.379,1.886,1.886,0,0,0,1.367.564h7.3Z"/>
      </g>
    </g>
    <g>
      <g>
        <path d="M6339.863-293.283h127.771c3.656,0,6.62,4.477,6.62,10v205c0,5.522-2.964,10-6.62,10H6339.863c-3.657,0-6.621-4.478-6.621-10v-205C6333.242-288.806,6336.206-293.283,6339.863-293.283Z" fill="#fff"/>
      </g>
      <g>
        <path d="M6467.634-68.284H6339.863c-3.651,0-6.621-4.485-6.621-10v-205c0-5.514,2.97-10,6.621-10h127.771c3.65,0,6.62,4.486,6.62,10v205C6474.254-72.769,6471.284-68.284,6467.634-68.284Zm-127.771-222c-2.555,0-4.635,3.141-4.635,7v205c0,3.86,2.08,7,4.635,7h127.771c2.555,0,4.634-3.14,4.634-7v-205c0-3.859-2.079-7-4.634-7Z" fill="#bd3454"/>
      </g>
    </g>
    <g style="isolation: isolate">
      <g style="isolation: isolate">
        <path d="M6384.584-181.784a4.85,4.85,0,0,1,1.752,1.752,4.7,4.7,0,0,1,.649,2.424,4.7,4.7,0,0,1-.649,2.424,4.842,4.842,0,0,1-1.752,1.752,4.645,4.645,0,0,1-2.4.648h-10.367v-2.591h9.072a2.194,2.194,0,0,0,1.6-.649,2.137,2.137,0,0,0,.66-1.584,2.141,2.141,0,0,0-.66-1.584,2.2,2.2,0,0,0-1.6-.647h-5.017a4.589,4.589,0,0,1-2.376-.637,4.741,4.741,0,0,1-1.716-1.728,4.612,4.612,0,0,1-.635-2.364,4.6,4.6,0,0,1,.635-2.376,4.785,4.785,0,0,1,1.716-1.716,4.607,4.607,0,0,1,2.376-.635h10.152v2.567h-8.879a2.08,2.08,0,0,0-1.525.637,2.071,2.071,0,0,0-.635,1.523,2.031,2.031,0,0,0,.635,1.512,2.1,2.1,0,0,0,1.525.624h5.039A4.665,4.665,0,0,1,6384.584-181.784Z"/>
        <path d="M6393.488-176.816a1.407,1.407,0,0,0,.432,1.032,1.408,1.408,0,0,0,1.031.432h1.752v2.568h-3.047a3.89,3.89,0,0,1-1.932-.5,4.172,4.172,0,0,1-1.464-1.356,3.832,3.832,0,0,1-.636-1.884v-6.431h-1.608v-2.569h1.608v-3.744h3.864v3.744h3.215v2.569h-3.215Z"/>
        <path d="M6412.279-185.528v12.744h-3.839v-.671a9.718,9.718,0,0,1-3.552.671h-3.911a3.036,3.036,0,0,1-1.561-.42,3.124,3.124,0,0,1-1.14-1.139,3.048,3.048,0,0,1-.42-1.561v-6.5a3.041,3.041,0,0,1,.42-1.559,3.114,3.114,0,0,1,1.14-1.141,3.056,3.056,0,0,1,1.561-.42h3.886a9.931,9.931,0,0,1,3.577.672v-.672Zm-3.839,9.5v-6.264a9.782,9.782,0,0,0-3.577-.671h-1.222a1.882,1.882,0,0,0-1.381.563,1.879,1.879,0,0,0-.565,1.38v3.721a1.878,1.878,0,0,0,.565,1.38,1.878,1.878,0,0,0,1.381.563h1.222A9.783,9.783,0,0,0,6408.44-176.024Z"/>
        <path d="M6418.9-176.816a1.4,1.4,0,0,0,.433,1.032,1.4,1.4,0,0,0,1.031.432h1.752v2.568h-3.048a3.889,3.889,0,0,1-1.932-.5,4.157,4.157,0,0,1-1.463-1.356,3.833,3.833,0,0,1-.637-1.884v-6.431h-1.607v-2.569h1.607v-3.744h3.864v3.744h3.216v2.569H6418.9Z"/>
        <path d="M6433.831-185.528a2.43,2.43,0,0,1,1.788.733,2.43,2.43,0,0,1,.733,1.788v2.807a2.443,2.443,0,0,1-.733,1.777,2.412,2.412,0,0,1-1.788.743h-6.72v.864a1.407,1.407,0,0,0,.432,1.032,1.409,1.409,0,0,0,1.032.432h7.488v2.568h-8.76a3.932,3.932,0,0,1-2.027-.54,4,4,0,0,1-1.465-1.464,3.945,3.945,0,0,1-.539-2.028v-4.68a3.95,3.95,0,0,1,.539-2.028,4.018,4.018,0,0,1,1.465-1.464,3.942,3.942,0,0,1,2.027-.54Zm-1.643,4.981a.971.971,0,0,0,.3-.708v-.7a.972.972,0,0,0-.3-.708.973.973,0,0,0-.709-.3h-2.9a1.408,1.408,0,0,0-1.032.431,1.41,1.41,0,0,0-.432,1.032v1.249h4.368A.974.974,0,0,0,6432.188-180.547Z"/>
      </g>
    </g>
    <g>
      <g>
        <path d="M6339.863,35.717h127.771c3.656,0,6.62,4.477,6.62,10v145c0,5.522-2.964,10-6.62,10H6339.863c-3.657,0-6.621-4.478-6.621-10v-145C6333.242,40.194,6336.206,35.717,6339.863,35.717Z" fill="#fff"/>
      </g>
      <g>
        <path d="M6467.634,200.716H6339.863c-3.651,0-6.621-4.485-6.621-10v-145c0-5.514,2.97-10,6.621-10h127.771c3.65,0,6.62,4.486,6.62,10v145C6474.254,196.231,6471.284,200.716,6467.634,200.716Zm-127.771-162c-2.555,0-4.635,3.141-4.635,7v145c0,3.86,2.08,7,4.635,7h127.771c2.555,0,4.634-3.14,4.634-7v-145c0-3.859-2.079-7-4.634-7Z" fill="#bd3454"/>
      </g>
    </g>
    <g style="isolation: isolate">
      <g style="isolation: isolate">
        <path d="M6356.062,109.68h3.864v16.536h-3.864V115.464l-3.192,4.848h-3.816l-3.36-4.968v10.872h-3.865V109.68h3.865l5.256,7.752Z"/>
        <path d="M6372.526,113.472a2.5,2.5,0,0,1,2.52,2.521V118.8a2.445,2.445,0,0,1-.732,1.777,2.413,2.413,0,0,1-1.788.743h-6.72v.864a1.473,1.473,0,0,0,1.464,1.464h7.487v2.568H6366a3.93,3.93,0,0,1-2.027-.54,4,4,0,0,1-1.465-1.464,3.954,3.954,0,0,1-.539-2.028V117.5a3.96,3.96,0,0,1,.539-2.028,4.027,4.027,0,0,1,1.465-1.464,3.94,3.94,0,0,1,2.027-.54Zm-1.644,4.981a.972.972,0,0,0,.3-.708v-.7a1.022,1.022,0,0,0-1.008-1.007h-2.9a1.471,1.471,0,0,0-1.464,1.463v1.249h4.367A.972.972,0,0,0,6370.882,118.453Z"/>
        <path d="M6381.669,116.041a1.193,1.193,0,0,0-.889.372,1.25,1.25,0,0,0-.359.9,1.221,1.221,0,0,0,.359.876,1.189,1.189,0,0,0,.889.372h4.128a3.744,3.744,0,0,1,1.933.517,3.866,3.866,0,0,1,1.391,1.391,3.742,3.742,0,0,1,.516,1.932,3.7,3.7,0,0,1-.516,1.908,3.88,3.88,0,0,1-1.391,1.393,3.742,3.742,0,0,1-1.933.515h-8.735v-2.568h7.463a1.223,1.223,0,0,0,.9-.372,1.2,1.2,0,0,0,.372-.876,1.27,1.27,0,0,0-1.272-1.271H6380.4a3.75,3.75,0,0,1-1.92-.516,3.842,3.842,0,0,1-1.4-1.393,3.687,3.687,0,0,1-.515-1.908,3.736,3.736,0,0,1,.515-1.932,3.829,3.829,0,0,1,1.4-1.391,3.742,3.742,0,0,1,1.92-.517h8.639v2.569Z"/>
        <path d="M6395.9,116.041a1.186,1.186,0,0,0-.889.372,1.246,1.246,0,0,0-.36.9,1.216,1.216,0,0,0,.36.876,1.183,1.183,0,0,0,.889.372h4.126a3.739,3.739,0,0,1,1.933.517,3.869,3.869,0,0,1,1.392,1.391,3.75,3.75,0,0,1,.515,1.932,3.7,3.7,0,0,1-.515,1.908,3.882,3.882,0,0,1-1.392,1.393,3.737,3.737,0,0,1-1.933.515h-8.735v-2.568h7.464a1.223,1.223,0,0,0,.9-.372,1.2,1.2,0,0,0,.371-.876,1.268,1.268,0,0,0-1.271-1.271h-4.128a3.755,3.755,0,0,1-1.92-.516,3.85,3.85,0,0,1-1.4-1.393,3.678,3.678,0,0,1-.516-1.908,3.728,3.728,0,0,1,.516-1.932,3.837,3.837,0,0,1,1.4-1.391,3.747,3.747,0,0,1,1.92-.517h8.64v2.569Z"/>
        <path d="M6419.8,113.472v12.744h-3.84v-.671a9.714,9.714,0,0,1-3.552.671H6408.5a3.033,3.033,0,0,1-1.56-.42,3.119,3.119,0,0,1-1.141-1.139,3.058,3.058,0,0,1-.42-1.561v-6.5a3.051,3.051,0,0,1,.42-1.559,3.109,3.109,0,0,1,1.141-1.141,3.052,3.052,0,0,1,1.56-.42h3.887a9.925,9.925,0,0,1,3.576.672v-.672Zm-3.84,9.5v-6.264a9.776,9.776,0,0,0-3.576-.671h-1.223a1.924,1.924,0,0,0-1.945,1.943v3.721a1.924,1.924,0,0,0,1.945,1.943h1.223A9.777,9.777,0,0,0,6415.964,122.976Z"/>
        <path d="M6436.124,113.472v12.481a3.956,3.956,0,0,1-.539,2.027,4.131,4.131,0,0,1-1.465,1.477,3.889,3.889,0,0,1-2.027.551h-9.865v-2.591h8.568a1.44,1.44,0,0,0,1.057-.433,1.409,1.409,0,0,0,.431-1.031v-1.992a13.206,13.206,0,0,1-4.536.912H6424.8a3.043,3.043,0,0,1-1.56-.42,3.171,3.171,0,0,1-1.559-2.725v-5.136a3.027,3.027,0,0,1,.42-1.559,3.106,3.106,0,0,1,1.139-1.141,3.052,3.052,0,0,1,1.56-.42h2.928a13.892,13.892,0,0,1,4.56.888v-.888Zm-7.439,8.809a16.71,16.71,0,0,0,3.6-1.057v-4.1a18.017,18.017,0,0,0-3.6-1.08h-1.225a1.891,1.891,0,0,0-1.367.563,1.856,1.856,0,0,0-.576,1.38v2.353a1.853,1.853,0,0,0,.576,1.379,1.889,1.889,0,0,0,1.367.565Z"/>
        <path d="M6448.556,113.472a2.5,2.5,0,0,1,2.52,2.521V118.8a2.448,2.448,0,0,1-.731,1.777,2.415,2.415,0,0,1-1.789.743h-6.72v.864a1.477,1.477,0,0,0,1.464,1.464h7.488v2.568h-8.76a3.938,3.938,0,0,1-2.028-.54,4,4,0,0,1-1.464-1.464,3.95,3.95,0,0,1-.54-2.028V117.5a3.956,3.956,0,0,1,.54-2.028,4.027,4.027,0,0,1,1.464-1.464,3.947,3.947,0,0,1,2.028-.54Zm-1.644,4.981a.971.971,0,0,0,.3-.708v-.7a1.023,1.023,0,0,0-1.008-1.007h-2.9a1.475,1.475,0,0,0-1.464,1.463v1.249h4.368A.969.969,0,0,0,6446.912,118.453Z"/>
        <path d="M6457.7,116.041a1.187,1.187,0,0,0-.888.372,1.241,1.241,0,0,0-.36.9,1.212,1.212,0,0,0,.36.876,1.183,1.183,0,0,0,.888.372h4.127a3.739,3.739,0,0,1,1.933.517,3.861,3.861,0,0,1,1.392,1.391,3.746,3.746,0,0,1,.515,1.932,3.7,3.7,0,0,1-.515,1.908,3.875,3.875,0,0,1-1.392,1.393,3.738,3.738,0,0,1-1.933.515h-8.735v-2.568h7.464a1.223,1.223,0,0,0,.9-.372,1.2,1.2,0,0,0,.371-.876,1.269,1.269,0,0,0-1.271-1.271h-4.128a3.755,3.755,0,0,1-1.92-.516,3.847,3.847,0,0,1-1.4-1.393,3.678,3.678,0,0,1-.516-1.908,3.728,3.728,0,0,1,.516-1.932,3.834,3.834,0,0,1,1.4-1.391,3.746,3.746,0,0,1,1.92-.517h8.64v2.569Z"/>
      </g>
    </g>
    <g>
      <g>
        <path d="M5820.043-293.283h91.46c2.618,0,4.739,4.477,4.739,10v205c0,5.522-2.121,10-4.739,10h-91.46c-2.617,0-4.739-4.478-4.739-10v-205C5815.3-288.806,5817.426-293.283,5820.043-293.283Z" fill="#fff"/>
      </g>
      <g>
        <path d="M5911.5-68.284h-91.461c-2.613,0-4.739-4.485-4.739-10v-205c0-5.514,2.126-10,4.739-10H5911.5c2.612,0,4.738,4.486,4.738,10v205C5916.242-72.769,5914.116-68.284,5911.5-68.284Zm-91.461-222c-1.829,0-3.317,3.141-3.317,7v205c0,3.86,1.488,7,3.317,7H5911.5c1.828,0,3.317-3.14,3.317-7v-205c0-3.859-1.489-7-3.317-7Z" fill="#bd3454"/>
      </g>
    </g>
    <g style="isolation: isolate">
      <g style="isolation: isolate">
        <path d="M5836.327-186.32a3.077,3.077,0,0,0-1.128,1.116,2.97,2.97,0,0,0-.42,1.548v1.321h12v2.567h-12v1.32a2.963,2.963,0,0,0,.42,1.548,3.047,3.047,0,0,0,1.128,1.116,2.986,2.986,0,0,0,1.523.409h8.929v2.591h-10.2a5.448,5.448,0,0,1-2.832-.767,5.7,5.7,0,0,1-2.052-2.065,5.51,5.51,0,0,1-.757-2.832v-5.208a5.518,5.518,0,0,1,.757-2.832,5.593,5.593,0,0,1,2.052-2.051,5.515,5.515,0,0,1,2.832-.756h10.2v2.567h-8.929A3,3,0,0,0,5836.327-186.32Z"/>
        <path d="M5857.818-185.528h3.864l-5.017,12.744H5852.8l-4.92-12.744h3.864l3,7.777Z"/>
        <path d="M5873.3-185.528a2.431,2.431,0,0,1,1.788.733,2.431,2.431,0,0,1,.732,1.788v2.807a2.444,2.444,0,0,1-.732,1.777,2.413,2.413,0,0,1-1.788.743h-6.72v.864a1.408,1.408,0,0,0,.432,1.032,1.409,1.409,0,0,0,1.032.432h7.488v2.568h-8.76a3.936,3.936,0,0,1-2.028-.54,4,4,0,0,1-1.464-1.464,3.946,3.946,0,0,1-.54-2.028v-4.68a3.951,3.951,0,0,1,.54-2.028,4.024,4.024,0,0,1,1.464-1.464,3.946,3.946,0,0,1,2.028-.54Zm-1.644,4.981a.969.969,0,0,0,.3-.708v-.7a.971.971,0,0,0-.3-.708.967.967,0,0,0-.708-.3h-2.9a1.408,1.408,0,0,0-1.032.431,1.411,1.411,0,0,0-.432,1.032v1.249h4.368A.968.968,0,0,0,5871.654-180.547Z"/>
        <path d="M5886.906-172.784v-8.232a1.879,1.879,0,0,0-.565-1.38,1.88,1.88,0,0,0-1.38-.563h-1.487a1.882,1.882,0,0,0-1.381.563,1.878,1.878,0,0,0-.563,1.38v8.232h-3.84v-9a3.657,3.657,0,0,1,.5-1.872,3.738,3.738,0,0,1,1.368-1.368,3.647,3.647,0,0,1,1.872-.5H5887a3.7,3.7,0,0,1,1.9.5,3.746,3.746,0,0,1,1.368,1.368,3.657,3.657,0,0,1,.5,1.872v9Z"/>
        <path d="M5897.393-176.816a1.408,1.408,0,0,0,.433,1.032,1.405,1.405,0,0,0,1.031.432h1.752v2.568h-3.048a3.892,3.892,0,0,1-1.932-.5,4.175,4.175,0,0,1-1.464-1.356,3.836,3.836,0,0,1-.635-1.884v-6.431h-1.609v-2.569h1.609v-3.744h3.863v3.744h3.216v2.569h-3.216Z"/>
      </g>
    </g>
    <g>
      <g>
        <path d="M5820.043,35.717h91.46c2.618,0,4.739,4.477,4.739,10v145c0,5.522-2.121,10-4.739,10h-91.46c-2.617,0-4.739-4.478-4.739-10v-145C5815.3,40.194,5817.426,35.717,5820.043,35.717Z" fill="#fff"/>
      </g>
      <g>
        <path d="M5911.5,200.716h-91.461c-2.613,0-4.739-4.485-4.739-10v-145c0-5.514,2.126-10,4.739-10H5911.5c2.612,0,4.738,4.486,4.738,10v145C5916.242,196.231,5914.116,200.716,5911.5,200.716Zm-91.461-162c-1.829,0-3.317,3.141-3.317,7v145c0,3.86,1.488,7,3.317,7H5911.5c1.828,0,3.317-3.14,3.317-7v-145c0-3.859-1.489-7-3.317-7Z" fill="#bd3454"/>
      </g>
    </g>
    <g>
      <g>
        <path d="M6040.242-293.283h185a10,10,0,0,1,10,10v66h-205v-66A10,10,0,0,1,6040.242-293.283Z" fill="#bd3454"/>
      </g>
      <g>
        <path d="M6225.242-217.284h-185a10.011,10.011,0,0,1-10-10v-56a10.012,10.012,0,0,1,10-10h185a10.012,10.012,0,0,1,10,10v56A10.011,10.011,0,0,1,6225.242-217.284Zm-185-73a7.009,7.009,0,0,0-7,7v56a7.008,7.008,0,0,0,7,7h185a7.008,7.008,0,0,0,7-7v-56a7.008,7.008,0,0,0-7-7Z" fill="#bd3454"/>
      </g>
    </g>
    <g style="isolation: isolate">
      <g style="isolation: isolate">
        <path d="M6071.524-261.759a3.5,3.5,0,0,0-1.261,1.26,3.329,3.329,0,0,0-.467,1.727v4.441a3.4,3.4,0,0,0,.467,1.74,3.478,3.478,0,0,0,1.261,1.271,3.325,3.325,0,0,0,1.727.468h4.68v-6.695h3.841v9.263h-9.817a5.864,5.864,0,0,1-3.024-.816,5.969,5.969,0,0,1-2.2-2.208,5.935,5.935,0,0,1-.8-3.023v-4.441a5.872,5.872,0,0,1,.8-3.012,6.012,6.012,0,0,1,2.2-2.2,5.873,5.873,0,0,1,3.024-.815h9.817v2.567h-8.521A3.326,3.326,0,0,0,6071.524-261.759Z" fill="#fff"/>
        <path d="M6098.114-261.028v12.744h-3.839v-.671a9.718,9.718,0,0,1-3.552.671h-3.911a3.036,3.036,0,0,1-1.561-.42,3.124,3.124,0,0,1-1.14-1.139,3.048,3.048,0,0,1-.42-1.561v-6.5a3.041,3.041,0,0,1,.42-1.559,3.114,3.114,0,0,1,1.14-1.141,3.056,3.056,0,0,1,1.561-.42h3.886a9.93,9.93,0,0,1,3.577.672v-.672Zm-3.839,9.5v-6.264a9.781,9.781,0,0,0-3.577-.671h-1.222a1.88,1.88,0,0,0-1.381.563,1.88,1.88,0,0,0-.565,1.38v3.721a1.878,1.878,0,0,0,.565,1.38,1.877,1.877,0,0,0,1.381.563h1.222A9.782,9.782,0,0,0,6094.275-251.524Z" fill="#fff"/>
        <path d="M6118.706-260.524a3.744,3.744,0,0,1,1.369,1.368,3.657,3.657,0,0,1,.5,1.872v9h-3.864v-8.232a1.882,1.882,0,0,0-.563-1.38,1.855,1.855,0,0,0-1.357-.563h-.576a1.852,1.852,0,0,0-1.356.563,1.882,1.882,0,0,0-.564,1.38v8.232h-3.864v-8.232a1.876,1.876,0,0,0-.565-1.38,1.848,1.848,0,0,0-1.355-.563h-.552a1.878,1.878,0,0,0-1.38.563,1.875,1.875,0,0,0-.564,1.38v8.232h-3.84v-9a3.657,3.657,0,0,1,.5-1.872,3.741,3.741,0,0,1,1.368-1.368,3.652,3.652,0,0,1,1.872-.5h3.6a4.843,4.843,0,0,1,2.856.937,4.736,4.736,0,0,1,2.832-.937h3.624A3.646,3.646,0,0,1,6118.706-260.524Z" fill="#fff"/>
        <path d="M6133.2-261.028a2.432,2.432,0,0,1,1.788.733,2.433,2.433,0,0,1,.732,1.788v2.807a2.445,2.445,0,0,1-.732,1.777,2.414,2.414,0,0,1-1.788.743h-6.72v.864a1.407,1.407,0,0,0,.432,1.032,1.409,1.409,0,0,0,1.033.432h7.488v2.568h-8.761a3.94,3.94,0,0,1-2.028-.54,3.994,3.994,0,0,1-1.463-1.464,3.932,3.932,0,0,1-.541-2.028V-257a3.938,3.938,0,0,1,.541-2.028,4.017,4.017,0,0,1,1.463-1.464,3.95,3.95,0,0,1,2.028-.54Zm-1.644,4.981a.972.972,0,0,0,.3-.708v-.7a.973.973,0,0,0-.3-.708.966.966,0,0,0-.707-.3h-2.9a1.408,1.408,0,0,0-1.033.431,1.41,1.41,0,0,0-.432,1.032v1.249h4.369A.967.967,0,0,0,6131.558-256.047Z" fill="#fff"/>
        <path d="M6164.042-264.8h3.84v16.511h-3.84l-8.16-11.232v11.232h-3.84V-264.8h3.84l8.16,11.231Z" fill="#fff"/>
        <path d="M6175.238-261.82a3.092,3.092,0,0,0-1.128,1.116,2.974,2.974,0,0,0-.42,1.548v2.617h12v2.567h-12v5.688h-3.841v-10.872a5.518,5.518,0,0,1,.757-2.832,5.6,5.6,0,0,1,2.051-2.051,5.521,5.521,0,0,1,2.832-.756h10.2v2.567h-8.929A3.009,3.009,0,0,0,6175.238-261.82Z" fill="#fff"/>
        <path d="M6202.273-264.82v2.592h-6v13.944h-3.864v-13.944h-6v-2.592Z" fill="#fff"/>
      </g>
    </g>
    <g style="isolation: isolate">
      <g style="isolation: isolate">
        <path d="M6060.626-185.083a3.922,3.922,0,0,1-1.512,1.458l2.071,4.841H6058.3l-1.871-4.337h-4.555v4.337h-2.9v-12.383h8.173a3.938,3.938,0,0,1,2.024.54,4.005,4.005,0,0,1,1.467,1.458,3.893,3.893,0,0,1,.541,2.015A3.97,3.97,0,0,1,6060.626-185.083Zm-8.748.036h4.32a2.037,2.037,0,0,0,1.485-.613,2.018,2.018,0,0,0,.621-1.494,2,2,0,0,0-.621-1.475,2.037,2.037,0,0,0-1.485-.613h-4.32Z"/>
        <path d="M6073.136-188.341v9.557h-2.879v-.5a7.3,7.3,0,0,1-2.664.5h-2.935a2.276,2.276,0,0,1-1.17-.315,2.313,2.313,0,0,1-.854-.855,2.272,2.272,0,0,1-.315-1.169V-186a2.27,2.27,0,0,1,.315-1.17,2.323,2.323,0,0,1,.854-.856,2.285,2.285,0,0,1,1.17-.314h2.916a7.44,7.44,0,0,1,2.683.5v-.5Zm-2.879,7.128v-4.7a7.364,7.364,0,0,0-2.683-.5h-.918a1.408,1.408,0,0,0-1.035.422,1.409,1.409,0,0,0-.423,1.036v2.79a1.407,1.407,0,0,0,.423,1.035,1.412,1.412,0,0,0,1.035.423h.918A7.344,7.344,0,0,0,6070.257-181.213Z"/>
        <path d="M6081.452-178.784v-6.173a1.409,1.409,0,0,0-.423-1.036,1.407,1.407,0,0,0-1.036-.422h-1.115a1.406,1.406,0,0,0-1.035.422,1.415,1.415,0,0,0-.423,1.036v6.173h-2.88v-6.75a2.741,2.741,0,0,1,.378-1.4,2.8,2.8,0,0,1,1.027-1.025,2.734,2.734,0,0,1,1.4-.378h4.177a2.775,2.775,0,0,1,1.422.378,2.806,2.806,0,0,1,1.025,1.025,2.742,2.742,0,0,1,.379,1.4v6.75Z"/>
        <path d="M6096.572-191.167v12.383h-2.879v-.5a7.3,7.3,0,0,1-2.664.5h-2.954a2.221,2.221,0,0,1-1.16-.315,2.334,2.334,0,0,1-.845-.855,2.273,2.273,0,0,1-.316-1.169V-186a2.271,2.271,0,0,1,.316-1.17,2.344,2.344,0,0,1,.845-.856,2.229,2.229,0,0,1,1.16-.314h2.935a7.349,7.349,0,0,1,2.683.5v-3.33Zm-2.879,9.954v-4.7a7.369,7.369,0,0,0-2.683-.5h-.918a1.406,1.406,0,0,0-1.035.422,1.409,1.409,0,0,0-.423,1.036v2.79a1.407,1.407,0,0,0,.423,1.035,1.411,1.411,0,0,0,1.035.423h.918A7.349,7.349,0,0,0,6093.693-181.213Z"/>
        <path d="M6106.382-187.963a2.8,2.8,0,0,1,1.025,1.025,2.742,2.742,0,0,1,.379,1.4v3.943a2.736,2.736,0,0,1-.379,1.4,2.79,2.79,0,0,1-1.025,1.026,2.772,2.772,0,0,1-1.422.378h-4.177a2.726,2.726,0,0,1-1.413-.378,2.814,2.814,0,0,1-1.016-1.026,2.735,2.735,0,0,1-.378-1.4v-3.943a2.741,2.741,0,0,1,.378-1.4,2.826,2.826,0,0,1,1.016-1.025,2.726,2.726,0,0,1,1.413-.378h4.177A2.772,2.772,0,0,1,6106.382-187.963Zm-1.494,3.006a1.41,1.41,0,0,0-.424-1.036,1.4,1.4,0,0,0-1.035-.422h-1.115a1.4,1.4,0,0,0-1.035.422,1.411,1.411,0,0,0-.423,1.036v2.79a1.409,1.409,0,0,0,.423,1.035,1.409,1.409,0,0,0,1.035.423h1.115a1.409,1.409,0,0,0,1.035-.423,1.408,1.408,0,0,0,.424-1.035Z"/>
        <path d="M6123.23-187.963a2.805,2.805,0,0,1,1.025,1.025,2.742,2.742,0,0,1,.379,1.4v6.75h-2.9v-6.173a1.409,1.409,0,0,0-.423-1.036,1.388,1.388,0,0,0-1.017-.422h-.433a1.382,1.382,0,0,0-1.016.422,1.41,1.41,0,0,0-.424,1.036v6.173h-2.9v-6.173a1.415,1.415,0,0,0-.423-1.036,1.387,1.387,0,0,0-1.018-.422h-.414a1.406,1.406,0,0,0-1.035.422,1.412,1.412,0,0,0-.422,1.036v6.173h-2.881v-6.75a2.742,2.742,0,0,1,.379-1.4,2.8,2.8,0,0,1,1.026-1.025,2.737,2.737,0,0,1,1.4-.378h2.7a3.633,3.633,0,0,1,2.143.7,3.547,3.547,0,0,1,2.124-.7h2.717A2.742,2.742,0,0,1,6123.23-187.963Z"/>
        <path d="M6147.818-188.341v9.359a2.956,2.956,0,0,1-.407,1.522,3.062,3.062,0,0,1-1.1,1.106,2.91,2.91,0,0,1-1.521.414h-7.4v-1.943h6.426a1.079,1.079,0,0,0,.791-.324,1.058,1.058,0,0,0,.324-.775v-1.494a9.884,9.884,0,0,1-3.4.685h-2.212a2.279,2.279,0,0,1-1.17-.316,2.318,2.318,0,0,1-.856-.863,2.333,2.333,0,0,1-.314-1.18V-186a2.279,2.279,0,0,1,.314-1.17,2.328,2.328,0,0,1,.856-.856,2.277,2.277,0,0,1,1.17-.314h2.2a10.382,10.382,0,0,1,3.42.666v-.666Zm-5.58,6.605a12.436,12.436,0,0,0,2.7-.792v-3.078a13.548,13.548,0,0,0-2.7-.809h-.918a1.416,1.416,0,0,0-1.027.422,1.4,1.4,0,0,0-.432,1.036v1.763a1.393,1.393,0,0,0,.432,1.035,1.413,1.413,0,0,0,1.027.423Z"/>
        <path d="M6157.141-188.341a1.821,1.821,0,0,1,1.341.549,1.82,1.82,0,0,1,.548,1.34v2.107a1.827,1.827,0,0,1-.548,1.331,1.808,1.808,0,0,1-1.341.559h-5.04v.647a1.05,1.05,0,0,0,.324.774,1.058,1.058,0,0,0,.773.325h5.617v1.925h-6.57a2.95,2.95,0,0,1-1.521-.4,3,3,0,0,1-1.1-1.1,2.955,2.955,0,0,1-.4-1.521v-3.51a2.956,2.956,0,0,1,.4-1.52,3.015,3.015,0,0,1,1.1-1.1,2.968,2.968,0,0,1,1.521-.4Zm-1.234,3.734a.719.719,0,0,0,.225-.53v-.523a.724.724,0,0,0-.225-.531.729.729,0,0,0-.531-.224H6153.2a1.053,1.053,0,0,0-.773.324,1.051,1.051,0,0,0-.324.773v.937h3.275A.723.723,0,0,0,6155.907-184.607Z"/>
        <path d="M6167.347-178.784v-6.173a1.41,1.41,0,0,0-.424-1.036,1.4,1.4,0,0,0-1.035-.422h-1.115a1.4,1.4,0,0,0-1.035.422,1.411,1.411,0,0,0-.423,1.036v6.173h-2.88v-6.75a2.741,2.741,0,0,1,.378-1.4,2.793,2.793,0,0,1,1.026-1.025,2.735,2.735,0,0,1,1.4-.378h4.177a2.772,2.772,0,0,1,1.422.378,2.8,2.8,0,0,1,1.025,1.025,2.742,2.742,0,0,1,.379,1.4v6.75Z"/>
        <path d="M6179.568-188.341a1.823,1.823,0,0,1,1.341.549,1.823,1.823,0,0,1,.549,1.34v2.107a1.83,1.83,0,0,1-.549,1.331,1.809,1.809,0,0,1-1.341.559h-5.039v.647a1.053,1.053,0,0,0,.323.774,1.056,1.056,0,0,0,.774.325h5.615v1.925h-6.569a2.945,2.945,0,0,1-1.52-.4,3,3,0,0,1-1.1-1.1,2.946,2.946,0,0,1-.405-1.521v-3.51a2.947,2.947,0,0,1,.405-1.52,3.016,3.016,0,0,1,1.1-1.1,2.963,2.963,0,0,1,1.52-.4Zm-1.233,3.734a.719.719,0,0,0,.225-.53v-.523a.725.725,0,0,0-.225-.531.729.729,0,0,0-.531-.224h-2.178a1.051,1.051,0,0,0-.774.324,1.054,1.054,0,0,0-.323.773v.937h3.275A.723.723,0,0,0,6178.335-184.607Z"/>
        <path d="M6189.4-186.415h-2.2a1.384,1.384,0,0,0-1.017.422,1.409,1.409,0,0,0-.423,1.036v6.173h-2.9v-6.75a2.749,2.749,0,0,1,.376-1.4,2.8,2.8,0,0,1,1.027-1.025,2.735,2.735,0,0,1,1.4-.378h3.727Z"/>
        <path d="M6201.024-188.341v9.557h-2.88v-.5a7.291,7.291,0,0,1-2.664.5h-2.934a2.269,2.269,0,0,1-1.17-.315,2.323,2.323,0,0,1-.855-.855,2.281,2.281,0,0,1-.315-1.169V-186a2.28,2.28,0,0,1,.315-1.17,2.333,2.333,0,0,1,.855-.856,2.278,2.278,0,0,1,1.17-.314h2.916a7.44,7.44,0,0,1,2.682.5v-.5Zm-2.88,7.128v-4.7a7.358,7.358,0,0,0-2.682-.5h-.918a1.406,1.406,0,0,0-1.035.422,1.412,1.412,0,0,0-.424,1.036v2.79a1.409,1.409,0,0,0,.424,1.035,1.411,1.411,0,0,0,1.035.423h.918A7.338,7.338,0,0,0,6198.144-181.213Z"/>
        <path d="M6205.991-181.808a1.051,1.051,0,0,0,.325.774,1.053,1.053,0,0,0,.773.325h1.315v1.925h-2.287a2.919,2.919,0,0,1-1.449-.378,3.119,3.119,0,0,1-1.1-1.016,2.882,2.882,0,0,1-.478-1.413v-4.824h-1.2v-1.926h1.2v-2.809h2.9v2.809h2.413v1.926h-2.413Z"/>
        <path d="M6217.673-187.963a2.8,2.8,0,0,1,1.025,1.025,2.733,2.733,0,0,1,.379,1.4v3.943a2.727,2.727,0,0,1-.379,1.4,2.783,2.783,0,0,1-1.025,1.026,2.77,2.77,0,0,1-1.422.378h-4.176a2.726,2.726,0,0,1-1.413-.378,2.806,2.806,0,0,1-1.016-1.026,2.736,2.736,0,0,1-.379-1.4v-3.943a2.742,2.742,0,0,1,.379-1.4,2.819,2.819,0,0,1,1.016-1.025,2.726,2.726,0,0,1,1.413-.378h4.176A2.77,2.77,0,0,1,6217.673-187.963Zm-1.494,3.006a1.409,1.409,0,0,0-.423-1.036,1.406,1.406,0,0,0-1.035-.422H6213.6a1.407,1.407,0,0,0-1.035.422,1.41,1.41,0,0,0-.422,1.036v2.79a1.408,1.408,0,0,0,.422,1.035,1.412,1.412,0,0,0,1.035.423h1.116a1.411,1.411,0,0,0,1.035-.423,1.407,1.407,0,0,0,.423-1.035Z"/>
        <path d="M6227.015-186.415h-2.2a1.385,1.385,0,0,0-1.018.422,1.411,1.411,0,0,0-.423,1.036v6.173h-2.9v-6.75a2.74,2.74,0,0,1,.377-1.4,2.8,2.8,0,0,1,1.026-1.025,2.739,2.739,0,0,1,1.4-.378h3.727Z"/>
      </g>
      <g style="isolation: isolate">
        <path d="M6060.861-136.784h-8.208a3.552,3.552,0,0,1-1.845-.5,3.691,3.691,0,0,1-1.332-1.341,3.569,3.569,0,0,1-.5-1.835v-5.059a3.521,3.521,0,0,1,.5-1.826,3.713,3.713,0,0,1,1.332-1.332,3.552,3.552,0,0,1,1.845-.5h8.208v1.925h-7.237a1.675,1.675,0,0,0-1.223.5,1.655,1.655,0,0,0-.5,1.232v5.059a1.663,1.663,0,0,0,.5,1.223,1.663,1.663,0,0,0,1.223.5h7.237Z"/>
        <path d="M6065.45-136.784h-2.9V-149.15h2.9Z"/>
        <path d="M6075.512-145.963a2.8,2.8,0,0,1,1.026,1.025,2.741,2.741,0,0,1,.378,1.4v3.943a2.735,2.735,0,0,1-.378,1.4,2.784,2.784,0,0,1-1.026,1.026,2.775,2.775,0,0,1-1.422.378h-4.177a2.722,2.722,0,0,1-1.412-.378,2.812,2.812,0,0,1-1.017-1.026,2.734,2.734,0,0,1-.377-1.4v-3.943a2.74,2.74,0,0,1,.377-1.4,2.825,2.825,0,0,1,1.017-1.025,2.722,2.722,0,0,1,1.412-.378h4.177A2.775,2.775,0,0,1,6075.512-145.963Zm-1.494,3.006a1.415,1.415,0,0,0-.423-1.036,1.408,1.408,0,0,0-1.035-.422h-1.115a1.407,1.407,0,0,0-1.036.422,1.409,1.409,0,0,0-.423,1.036v2.79a1.407,1.407,0,0,0,.423,1.035,1.411,1.411,0,0,0,1.036.423h1.115a1.413,1.413,0,0,0,1.035-.423,1.412,1.412,0,0,0,.423-1.035Z"/>
        <path d="M6088.13-136.784h-6.984a2.767,2.767,0,0,1-1.422-.378,2.788,2.788,0,0,1-1.026-1.026,2.774,2.774,0,0,1-.378-1.422v-3.906a2.78,2.78,0,0,1,.378-1.422,2.8,2.8,0,0,1,1.026-1.025,2.767,2.767,0,0,1,1.422-.378h6.984v1.926h-5.473a1.414,1.414,0,0,0-1.025.422,1.4,1.4,0,0,0-.432,1.036v2.79a1.394,1.394,0,0,0,.432,1.035,1.419,1.419,0,0,0,1.025.423h5.473Z"/>
        <path d="M6089.534-149.15h2.879v12.366h-2.879Zm6.354,7.6,3.96,4.769h-3.492l-3.943-4.769,3.133-4.788h3.474Z"/>
        <path d="M6114.625-136.784h-2.88l5.6-12.383h2.9Z"/>
        <path d="M6144.037-149.186v1.944h-4.5v10.458h-2.9v-10.458h-4.5v-1.944Z"/>
        <path d="M6145.189-149.15h2.881v2.809h-2.881Zm0,3.529h2.881v8.837h-2.881Z"/>
        <path d="M6163.765-145.963a2.8,2.8,0,0,1,1.025,1.025,2.742,2.742,0,0,1,.379,1.4v6.75h-2.9v-6.173a1.411,1.411,0,0,0-.423-1.036,1.386,1.386,0,0,0-1.017-.422h-.432a1.385,1.385,0,0,0-1.017.422,1.412,1.412,0,0,0-.424,1.036v6.173h-2.9v-6.173a1.415,1.415,0,0,0-.423-1.036,1.387,1.387,0,0,0-1.018-.422h-.414a1.407,1.407,0,0,0-1.035.422,1.414,1.414,0,0,0-.422,1.036v6.173h-2.881v-6.75a2.742,2.742,0,0,1,.379-1.4,2.8,2.8,0,0,1,1.026-1.025,2.736,2.736,0,0,1,1.4-.378h2.7a3.632,3.632,0,0,1,2.143.7,3.547,3.547,0,0,1,2.124-.7h2.718A2.743,2.743,0,0,1,6163.765-145.963Z"/>
        <path d="M6174.636-146.341a1.824,1.824,0,0,1,1.342.549,1.827,1.827,0,0,1,.549,1.34v2.107a1.834,1.834,0,0,1-.549,1.331,1.81,1.81,0,0,1-1.342.559H6169.6v.647a1.053,1.053,0,0,0,.323.774,1.059,1.059,0,0,0,.775.325h5.615v1.925h-6.57a2.946,2.946,0,0,1-1.52-.4,3,3,0,0,1-1.1-1.1,2.955,2.955,0,0,1-.405-1.521v-3.51a2.957,2.957,0,0,1,.405-1.52,3.021,3.021,0,0,1,1.1-1.1,2.965,2.965,0,0,1,1.52-.4Zm-1.232,3.734a.72.72,0,0,0,.224-.53v-.523a.725.725,0,0,0-.224-.531.732.732,0,0,0-.532-.224h-2.177a1.054,1.054,0,0,0-.775.324,1.054,1.054,0,0,0-.323.773v.937h3.275A.726.726,0,0,0,6173.4-142.607Z"/>
        <path d="M6184.464-144.415h-2.195a1.385,1.385,0,0,0-1.018.422,1.411,1.411,0,0,0-.423,1.036v6.173h-2.9v-6.75a2.74,2.74,0,0,1,.377-1.4,2.8,2.8,0,0,1,1.026-1.025,2.741,2.741,0,0,1,1.4-.378h3.726Z"/>
        <path d="M6188.838-144.415a.886.886,0,0,0-.666.279.931.931,0,0,0-.27.675.909.909,0,0,0,.27.656.889.889,0,0,0,.666.279h3.1a2.8,2.8,0,0,1,1.449.387,2.9,2.9,0,0,1,1.044,1.045,2.8,2.8,0,0,1,.387,1.448,2.77,2.77,0,0,1-.387,1.432,2.9,2.9,0,0,1-1.044,1.044,2.811,2.811,0,0,1-1.449.386h-6.552v-1.925h5.6a.917.917,0,0,0,.675-.28.9.9,0,0,0,.279-.657.921.921,0,0,0-.279-.675.924.924,0,0,0-.675-.279h-3.1a2.8,2.8,0,0,1-1.439-.387,2.867,2.867,0,0,1-1.054-1.044,2.763,2.763,0,0,1-.387-1.43,2.8,2.8,0,0,1,.387-1.45,2.872,2.872,0,0,1,1.054-1.043,2.813,2.813,0,0,1,1.439-.387h6.48v1.926Z"/>
      </g>
      <g style="isolation: isolate">
        <path d="M6056.864-104.341a1.821,1.821,0,0,1,1.341.549,1.82,1.82,0,0,1,.55,1.34v2.107a1.827,1.827,0,0,1-.55,1.331,1.807,1.807,0,0,1-1.341.559h-5.04v.647a1.057,1.057,0,0,0,.324.774,1.058,1.058,0,0,0,.775.325h5.615v1.925h-6.57a2.952,2.952,0,0,1-1.521-.405,3.011,3.011,0,0,1-1.1-1.1,2.954,2.954,0,0,1-.4-1.521v-3.51a2.956,2.956,0,0,1,.4-1.52,3.029,3.029,0,0,1,1.1-1.1,2.971,2.971,0,0,1,1.521-.4Zm-1.232,3.734a.727.727,0,0,0,.225-.53v-.523a.732.732,0,0,0-.225-.531.73.73,0,0,0-.531-.224h-2.178a1.053,1.053,0,0,0-.775.324,1.058,1.058,0,0,0-.324.773v.937h3.277A.724.724,0,0,0,6055.632-100.607Z"/>
        <path d="M6063.722-97.808a1.054,1.054,0,0,0,.324.774,1.061,1.061,0,0,0,.774.325h1.314v1.925h-2.285a2.914,2.914,0,0,1-1.449-.378,3.109,3.109,0,0,1-1.1-1.016,2.887,2.887,0,0,1-.478-1.413v-4.824h-1.206v-1.926h1.206v-2.809h2.9v2.809h2.412v1.926h-2.412Z"/>
        <path d="M6076.808-94.784h-6.985a2.772,2.772,0,0,1-1.421-.378,2.792,2.792,0,0,1-1.026-1.026A2.769,2.769,0,0,1,6067-97.61v-3.906a2.775,2.775,0,0,1,.378-1.422,2.8,2.8,0,0,1,1.026-1.025,2.772,2.772,0,0,1,1.421-.378h6.985v1.926h-5.472a1.417,1.417,0,0,0-1.026.422,1.4,1.4,0,0,0-.432,1.036v2.79a1.4,1.4,0,0,0,.432,1.035,1.422,1.422,0,0,0,1.026.423h5.472Z"/>
      </g>
    </g>
    <g style="isolation: isolate">
      <path d="M6104.534,148.837h-3.839a3.8,3.8,0,0,1-3.289-1.872,3.706,3.706,0,0,1-.5-1.9v-9.792a3.723,3.723,0,0,1,1.883-3.263,3.76,3.76,0,0,1,1.909-.5h3.839v2.544h-1.8a1.852,1.852,0,0,0-1.38.576,1.914,1.914,0,0,0-.565,1.392v8.3a1.835,1.835,0,0,0,.565,1.368,1.892,1.892,0,0,0,1.38.552h1.8Z"/>
      <path d="M6112.586,134.484a3.087,3.087,0,0,0-1.128,1.117,2.978,2.978,0,0,0-.42,1.548v2.616h12v2.567h-12v5.689h-3.84V137.149a5.521,5.521,0,0,1,.756-2.832,5.6,5.6,0,0,1,2.052-2.052,5.522,5.522,0,0,1,2.832-.756h10.2v2.567h-8.927A3.013,3.013,0,0,0,6112.586,134.484Z"/>
      <path d="M6137.749,139.021a4.82,4.82,0,0,1,1.752,1.752,4.85,4.85,0,0,1,0,4.847,4.812,4.812,0,0,1-1.752,1.752,4.643,4.643,0,0,1-2.4.649h-10.368v-2.592h9.072a2.191,2.191,0,0,0,1.6-.649,2.23,2.23,0,0,0,0-3.168,2.2,2.2,0,0,0-1.6-.647h-5.016a4.593,4.593,0,0,1-2.377-.637,4.74,4.74,0,0,1-1.714-1.727,4.731,4.731,0,0,1,0-4.741,4.769,4.769,0,0,1,1.714-1.715,4.6,4.6,0,0,1,2.377-.636h10.152v2.567h-8.88a2.174,2.174,0,0,0-2.16,2.16,2.036,2.036,0,0,0,.636,1.512,2.094,2.094,0,0,0,1.524.624h5.04A4.653,4.653,0,0,1,6137.749,139.021Z"/>
      <path d="M6156.3,131.484h3.863v16.537H6156.3V137.269l-3.192,4.847h-3.816l-3.361-4.967v10.872h-3.863V131.484h3.863l5.257,7.752Z"/>
      <path d="M6164.749,146.244a1.9,1.9,0,0,0,1.381-.552,1.841,1.841,0,0,0,.564-1.368v-8.3a1.921,1.921,0,0,0-.564-1.392,1.855,1.855,0,0,0-1.381-.576h-1.8v-2.544h3.84a3.764,3.764,0,0,1,1.908.5,3.729,3.729,0,0,1,1.883,3.263v9.792a3.726,3.726,0,0,1-1.883,3.264,3.755,3.755,0,0,1-1.908.505h-3.84v-2.593Z"/>
    </g>
    <g style="isolation: isolate">
      <g style="isolation: isolate">
        <path d="M5846.61,117.716a4.835,4.835,0,0,1,1.752,1.752,4.858,4.858,0,0,1,0,4.848,4.827,4.827,0,0,1-1.752,1.752,4.647,4.647,0,0,1-2.4.648h-10.368v-2.591h9.072a2.191,2.191,0,0,0,1.6-.649,2.23,2.23,0,0,0,0-3.168,2.2,2.2,0,0,0-1.6-.647H5837.9a4.589,4.589,0,0,1-2.376-.637,4.729,4.729,0,0,1-1.715-1.728,4.726,4.726,0,0,1,0-4.74,4.774,4.774,0,0,1,1.715-1.716,4.607,4.607,0,0,1,2.376-.635h10.152v2.567h-8.88a2.174,2.174,0,0,0-2.16,2.16,2.037,2.037,0,0,0,.636,1.512,2.1,2.1,0,0,0,1.524.624h5.04A4.666,4.666,0,0,1,5846.61,117.716Z"/>
        <path d="M5855.514,122.684a1.474,1.474,0,0,0,1.463,1.464h1.752v2.568h-3.047a3.892,3.892,0,0,1-1.932-.5,4.167,4.167,0,0,1-1.464-1.356,3.837,3.837,0,0,1-.636-1.884v-6.431h-1.608v-2.569h1.608v-3.744h3.864v3.744h3.215v2.569h-3.215Z"/>
        <path d="M5874.306,113.972v12.744h-3.84v-.671a9.718,9.718,0,0,1-3.552.671H5863a3.03,3.03,0,0,1-1.56-.42,3.124,3.124,0,0,1-1.14-1.139,3.039,3.039,0,0,1-.42-1.561v-6.5a3.032,3.032,0,0,1,.42-1.559,3.114,3.114,0,0,1,1.14-1.141,3.05,3.05,0,0,1,1.56-.42h3.888a9.933,9.933,0,0,1,3.576.672v-.672Zm-3.84,9.5v-6.264a9.78,9.78,0,0,0-3.576-.671h-1.224a1.924,1.924,0,0,0-1.944,1.943v3.721a1.924,1.924,0,0,0,1.944,1.943h1.224A9.781,9.781,0,0,0,5870.466,123.476Z"/>
        <path d="M5880.93,122.684a1.473,1.473,0,0,0,1.463,1.464h1.752v2.568H5881.1a3.9,3.9,0,0,1-1.933-.5,4.167,4.167,0,0,1-1.464-1.356,3.832,3.832,0,0,1-.636-1.884v-6.431h-1.608v-2.569h1.608v-3.744h3.865v3.744h3.215v2.569h-3.215Z"/>
        <path d="M5895.857,113.972a2.5,2.5,0,0,1,2.52,2.521V119.3a2.445,2.445,0,0,1-.732,1.777,2.413,2.413,0,0,1-1.788.743h-6.72v.864a1.474,1.474,0,0,0,1.464,1.464h7.488v2.568h-8.76a3.938,3.938,0,0,1-2.028-.54,4.008,4.008,0,0,1-1.464-1.464,3.946,3.946,0,0,1-.54-2.028V118a3.951,3.951,0,0,1,.54-2.028,4.031,4.031,0,0,1,1.464-1.464,3.948,3.948,0,0,1,2.028-.54Zm-1.644,4.981a.969.969,0,0,0,.3-.708v-.7a1.023,1.023,0,0,0-1.008-1.007h-2.9a1.473,1.473,0,0,0-1.464,1.463v1.249h4.368A.968.968,0,0,0,5894.213,118.953Z"/>
      </g>
    </g>
    <g>
      <rect width="3" height="102" transform="translate(6127.742 -68.284)"/>
    </g>
    <g>
      <path d="M6129.2,36.092l-9.371-10.462,1.49-1.334,7.887,8.8,7.955-8.808,1.484,1.341Z"/>
    </g>
    <g>
      <rect width="112" height="3" transform="translate(5918.242 117.216)"/>
    </g>
    <g>
      <rect width="3" height="300" transform="translate(5957.742 -181.284)"/>
    </g>
    <g>
      <path d="M5918.249-178.784l0-3,42.481-.09,0,3Z"/>
    </g>
    <g>
      <rect width="96" height="3" transform="translate(6235.242 117.216)"/>
    </g>
    <g>
      <rect width="3" height="300" transform="translate(6306.742 -181.284)"/>
    </g>
    <g>
      <path d="M6306.756-179.194l0-3,24.34-.09,0,3Z"/>
    </g>
    <g>
      <path d="M5926.389-170.924l-10.458-9.445,10.461-9.371,1.334,1.489-8.8,7.887,8.808,7.955Z"/>
    </g>
    <g>
      <path d="M6323.095-171.379l-1.34-1.484,8.808-7.955-8.8-7.887,1.334-1.489,10.461,9.371Z"/>
    </g>
    <g>
      <path d="M6323.095,128.121l-1.34-1.484,8.808-7.955-8.8-7.887,1.334-1.489,10.461,9.371Z"/>
    </g>
    <g>
      <path d="M5926.389,128.122l-10.458-9.445,10.461-9.371,1.334,1.489-8.8,7.887,8.808,7.955Z"/>
    </g>
    <g style="isolation: isolate">
      <g style="isolation: isolate">
        <path d="M5977.968,99.716h-2.879v-12.4h2.879Z"/>
        <path d="M5986.428,99.716V93.543a1.443,1.443,0,0,0-1.458-1.458h-1.115a1.444,1.444,0,0,0-1.459,1.458v6.173h-2.879v-6.75a2.74,2.74,0,0,1,.377-1.4,2.8,2.8,0,0,1,1.026-1.025,2.74,2.74,0,0,1,1.4-.378h4.177a2.815,2.815,0,0,1,2.448,1.4,2.741,2.741,0,0,1,.378,1.4v6.75Z"/>
        <path d="M6000.378,90.492a2.345,2.345,0,0,1,.856.854,2.293,2.293,0,0,1,.314,1.17v4.861a2.29,2.29,0,0,1-.314,1.169,2.333,2.333,0,0,1-.856.855,2.269,2.269,0,0,1-1.17.315h-2.9a6.063,6.063,0,0,1-2.682-.648v3.475h-2.9V90.176h2.9v.63a6.348,6.348,0,0,1,2.664-.63h2.916A2.28,2.28,0,0,1,6000.378,90.492Zm-1.71,3.051a1.418,1.418,0,0,0-.423-1.027,1.372,1.372,0,0,0-1.017-.431h-.918a6.4,6.4,0,0,0-2.682.629v4.447a6.064,6.064,0,0,0,2.682.63h.918a1.391,1.391,0,0,0,1.017-.423,1.409,1.409,0,0,0,.423-1.035Z"/>
        <path d="M6005.831,90.159v6.174a1.446,1.446,0,0,0,1.459,1.458h1.133a1.392,1.392,0,0,0,1.018-.423,1.41,1.41,0,0,0,.422-1.035V90.159h2.9v6.75a2.731,2.731,0,0,1-.378,1.4,2.812,2.812,0,0,1-2.448,1.4h-4.177a2.735,2.735,0,0,1-1.4-.378,2.783,2.783,0,0,1-1.027-1.026,2.734,2.734,0,0,1-.377-1.4v-6.75Z"/>
        <path d="M6017.73,96.692a1.108,1.108,0,0,0,1.1,1.1h1.315v1.925h-2.286a2.923,2.923,0,0,1-1.45-.378,3.117,3.117,0,0,1-1.1-1.016,2.887,2.887,0,0,1-.478-1.413V92.085h-1.205V90.159h1.205V87.35h2.9v2.809h2.412v1.926h-2.412Z"/>
      </g>
    </g>
    <g style="isolation: isolate">
      <g style="isolation: isolate">
        <path d="M6248.359,88.736c.252-.432-5.407-.774-4.975-1.025a2.742,2.742,0,0,1,1.4-.378h6.246a2.77,2.77,0,0,1,1.422.378,2.8,2.8,0,0,1,1.027,1.025,2.741,2.741,0,0,1,.378,1.4v6.75a2.813,2.813,0,0,1-2.827,2.826h-6.246a2.7,2.7,0,0,1-1.4-.386c-.432-.258,5.227-.6,4.975-1.035a2.743,2.743,0,0,1-.379-1.4V90.14A2.742,2.742,0,0,1,6248.359,88.736Zm2.18,8.613a1.382,1.382,0,0,0,.423-1.016V90.716a1.4,1.4,0,0,0-.423-1.035,1.39,1.39,0,0,0-1.016-.423h-3.2a1.443,1.443,0,0,0-1.458,1.458v5.617a1.383,1.383,0,0,0,.422,1.016,1.409,1.409,0,0,0,1.036.423h3.2A1.387,1.387,0,0,0,6250.539,97.349Z"/>
        <path d="M6258.181,90.159v6.174a1.443,1.443,0,0,0,1.457,1.458h1.135a1.39,1.39,0,0,0,1.016-.423,1.4,1.4,0,0,0,.423-1.035V90.159h2.9v6.75a2.727,2.727,0,0,1-.379,1.4,2.812,2.812,0,0,1-2.448,1.4h-4.175a2.742,2.742,0,0,1-1.4-.378,2.793,2.793,0,0,1-1.025-1.026,2.732,2.732,0,0,1-.379-1.4v-6.75Z"/>
        <path d="M6270.077,96.692a1.109,1.109,0,0,0,1.1,1.1h1.314v1.925H6270.2a2.917,2.917,0,0,1-1.449-.378,3.12,3.12,0,0,1-1.1-1.016,2.871,2.871,0,0,1-.477-1.413V92.085h-1.206V90.159h1.206V87.35h2.9v2.809h2.412v1.926h-2.412Z"/>
        <path d="M6283,90.492a2.331,2.331,0,0,1,.856.854,2.284,2.284,0,0,1,.314,1.17v4.861a2.28,2.28,0,0,1-.314,1.169,2.318,2.318,0,0,1-.856.855,2.269,2.269,0,0,1-1.17.315h-2.9a6.071,6.071,0,0,1-2.683-.648v3.475h-2.9V90.176h2.9v.63a6.35,6.35,0,0,1,2.664-.63h2.916A2.28,2.28,0,0,1,6283,90.492Zm-1.709,3.051a1.415,1.415,0,0,0-.424-1.027,1.37,1.37,0,0,0-1.016-.431h-.918a6.4,6.4,0,0,0-2.683.629v4.447a6.067,6.067,0,0,0,2.683.63h.918a1.389,1.389,0,0,0,1.016-.423,1.406,1.406,0,0,0,.424-1.035Z"/>
        <path d="M6288.455,90.159v6.174a1.444,1.444,0,0,0,1.458,1.458h1.134a1.39,1.39,0,0,0,1.017-.423,1.408,1.408,0,0,0,.424-1.035V90.159h2.9v6.75a2.736,2.736,0,0,1-.379,1.4,2.809,2.809,0,0,1-2.447,1.4h-4.177a2.732,2.732,0,0,1-1.4-.378,2.783,2.783,0,0,1-1.027-1.026,2.735,2.735,0,0,1-.378-1.4v-6.75Z"/>
        <path d="M6300.353,96.692a1.108,1.108,0,0,0,1.1,1.1h1.315v1.925h-2.285a2.92,2.92,0,0,1-1.45-.378,3.109,3.109,0,0,1-1.1-1.016,2.877,2.877,0,0,1-.478-1.413V92.085h-1.206V90.159h1.206V87.35h2.9v2.809h2.412v1.926h-2.412Z"/>
      </g>
    </g>
    <g style="isolation: isolate">
      <g style="isolation: isolate">
        <path d="M6160.177-34.127a4.005,4.005,0,0,1,1.467,1.458,3.893,3.893,0,0,1,.541,2.015,3.946,3.946,0,0,1-.541,2.026,4,4,0,0,1-1.467,1.466,3.938,3.938,0,0,1-2.024.541h-5.292v4.337h-2.881V-34.667h8.173A3.938,3.938,0,0,1,6160.177-34.127Zm-1.5,4.967a2.035,2.035,0,0,0,.611-1.494,2.012,2.012,0,0,0-.611-1.475,2.008,2.008,0,0,0-1.477-.613h-4.337v4.195h4.337A2.008,2.008,0,0,0,6158.675-29.16Z"/>
        <path d="M6170.015-29.915h-2.2a1.385,1.385,0,0,0-1.017.422,1.408,1.408,0,0,0-.424,1.036v6.173h-2.9v-6.75a2.741,2.741,0,0,1,.378-1.4,2.8,2.8,0,0,1,1.025-1.025,2.742,2.742,0,0,1,1.4-.378h3.727Z"/>
        <path d="M6179.23-31.463a2.8,2.8,0,0,1,1.026,1.025,2.732,2.732,0,0,1,.378,1.4v3.943a2.726,2.726,0,0,1-.378,1.4,2.788,2.788,0,0,1-1.026,1.026,2.774,2.774,0,0,1-1.422.378h-4.176a2.719,2.719,0,0,1-1.412-.378,2.8,2.8,0,0,1-1.018-1.026,2.735,2.735,0,0,1-.378-1.4v-3.943a2.741,2.741,0,0,1,.378-1.4,2.816,2.816,0,0,1,1.018-1.025,2.719,2.719,0,0,1,1.412-.378h4.176A2.774,2.774,0,0,1,6179.23-31.463Zm-1.494,3.006a1.412,1.412,0,0,0-.422-1.036,1.41,1.41,0,0,0-1.035-.422h-1.117a1.407,1.407,0,0,0-1.035.422,1.411,1.411,0,0,0-.423,1.036v2.79a1.409,1.409,0,0,0,.423,1.035,1.412,1.412,0,0,0,1.035.423h1.117a1.415,1.415,0,0,0,1.035-.423,1.41,1.41,0,0,0,.422-1.035Z"/>
        <path d="M6188.878-31.841h2.9l-3.762,9.557h-2.9l-3.69-9.557h2.9l2.25,5.832Z"/>
        <path d="M6192.82-34.65h2.88v2.809h-2.88Zm0,3.529h2.88v8.837h-2.88Z"/>
        <path d="M6208.173-34.667v12.383h-2.879v-.5a7.3,7.3,0,0,1-2.664.5h-2.953a2.218,2.218,0,0,1-1.16-.315,2.329,2.329,0,0,1-.846-.855,2.272,2.272,0,0,1-.315-1.169V-29.5a2.27,2.27,0,0,1,.315-1.17,2.339,2.339,0,0,1,.846-.856,2.226,2.226,0,0,1,1.16-.314h2.935a7.343,7.343,0,0,1,2.682.5v-3.33Zm-2.879,9.954v-4.7a7.363,7.363,0,0,0-2.682-.5h-.918a1.408,1.408,0,0,0-1.036.422,1.409,1.409,0,0,0-.422,1.036v2.79a1.406,1.406,0,0,0,.422,1.035,1.413,1.413,0,0,0,1.036.423h.918A7.343,7.343,0,0,0,6205.294-24.713Z"/>
        <path d="M6217.5-31.841a1.82,1.82,0,0,1,1.341.549,1.822,1.822,0,0,1,.55,1.34v2.107a1.83,1.83,0,0,1-.55,1.331,1.806,1.806,0,0,1-1.341.559h-5.04v.647a1.06,1.06,0,0,0,.323.774,1.063,1.063,0,0,0,.776.325h5.615v1.925h-6.57a2.95,2.95,0,0,1-1.521-.4,3,3,0,0,1-1.1-1.1,2.955,2.955,0,0,1-.4-1.521v-3.51a2.956,2.956,0,0,1,.4-1.52,3.022,3.022,0,0,1,1.1-1.1,2.968,2.968,0,0,1,1.521-.4Zm-1.232,3.734a.725.725,0,0,0,.224-.53v-.523a.731.731,0,0,0-.224-.531.733.733,0,0,0-.531-.224h-2.178a1.058,1.058,0,0,0-.776.324,1.061,1.061,0,0,0-.323.773v.937h3.277A.728.728,0,0,0,6216.265-28.107Z"/>
        <path d="M6231.609-34.667v12.383h-2.879v-.5a7.3,7.3,0,0,1-2.664.5h-2.953a2.224,2.224,0,0,1-1.161-.315,2.334,2.334,0,0,1-.845-.855,2.273,2.273,0,0,1-.316-1.169V-29.5a2.271,2.271,0,0,1,.316-1.17,2.344,2.344,0,0,1,.845-.856,2.232,2.232,0,0,1,1.161-.314h2.934a7.35,7.35,0,0,1,2.683.5v-3.33Zm-2.879,9.954v-4.7a7.37,7.37,0,0,0-2.683-.5h-.918a1.406,1.406,0,0,0-1.035.422,1.409,1.409,0,0,0-.423,1.036v2.79a1.407,1.407,0,0,0,.423,1.035,1.411,1.411,0,0,0,1.035.423h.918A7.35,7.35,0,0,0,6228.73-24.713Z"/>
      </g>
      <g style="isolation: isolate">
        <path d="M6159.593-10.527a2.327,2.327,0,0,1,.854.856,2.276,2.276,0,0,1,.316,1.17v4.878a2.278,2.278,0,0,1-.316,1.169,2.317,2.317,0,0,1-.854.855,2.272,2.272,0,0,1-1.17.315h-2.935a7.292,7.292,0,0,1-2.664-.5v.5h-2.879V-13.65h2.879v3.313a7.531,7.531,0,0,1,2.683-.5h2.916A2.281,2.281,0,0,1,6159.593-10.527Zm-1.711,3.07a1.409,1.409,0,0,0-.423-1.036,1.407,1.407,0,0,0-1.034-.422h-.918a7.36,7.36,0,0,0-2.683.5v4.7a7.34,7.34,0,0,0,2.683.5h.918a1.411,1.411,0,0,0,1.034-.423,1.407,1.407,0,0,0,.423-1.035Z"/>
        <path d="M6172.228-10.841v9.359a2.968,2.968,0,0,1-.4,1.522,3.077,3.077,0,0,1-1.1,1.106,2.917,2.917,0,0,1-1.522.414h-6.463V-.366h5.509a1.046,1.046,0,0,0,.775-.333,1.093,1.093,0,0,0,.323-.783V-2.688a7.188,7.188,0,0,1-2.359.4h-2.231a2.284,2.284,0,0,1-1.17-.316,2.313,2.313,0,0,1-.854-.863,2.325,2.325,0,0,1-.316-1.18v-6.191h2.88v5.147a1.4,1.4,0,0,0,.432,1.035,1.416,1.416,0,0,0,1.026.423h.2a7.343,7.343,0,0,0,2.394-.395v-6.21Z"/>
        <path d="M6187.833-1.284h-2.9V-13.65h2.9Z"/>
        <path d="M6189.741-13.65h2.881v2.809h-2.881Zm0,3.529h2.881v8.837h-2.881Z"/>
        <path d="M6203.925-10.527a2.322,2.322,0,0,1,.855.856,2.275,2.275,0,0,1,.315,1.17v4.878a2.277,2.277,0,0,1-.315,1.169,2.312,2.312,0,0,1-.855.855,2.269,2.269,0,0,1-1.17.315h-2.933a7.29,7.29,0,0,1-2.665-.5v.5h-2.879V-13.65h2.879v3.313a7.525,7.525,0,0,1,2.682-.5h2.916A2.278,2.278,0,0,1,6203.925-10.527Zm-1.709,3.07a1.41,1.41,0,0,0-.424-1.036,1.4,1.4,0,0,0-1.035-.422h-.918a7.355,7.355,0,0,0-2.682.5v4.7a7.335,7.335,0,0,0,2.682.5h.918a1.41,1.41,0,0,0,1.035-.423,1.408,1.408,0,0,0,.424-1.035Z"/>
        <path d="M6213.032-8.915h-2.2a1.386,1.386,0,0,0-1.017.422,1.41,1.41,0,0,0-.422,1.036v6.173h-2.9v-6.75a2.741,2.741,0,0,1,.378-1.4,2.8,2.8,0,0,1,1.027-1.025,2.734,2.734,0,0,1,1.4-.378h3.725Z"/>
        <path d="M6224.661-10.841v9.557h-2.881v-.5a7.281,7.281,0,0,1-2.664.5h-2.933a2.269,2.269,0,0,1-1.17-.315,2.336,2.336,0,0,1-.856-.855,2.29,2.29,0,0,1-.314-1.169V-8.5a2.289,2.289,0,0,1,.314-1.17,2.347,2.347,0,0,1,.856-.856,2.278,2.278,0,0,1,1.17-.314h2.916a7.42,7.42,0,0,1,2.681.5v-.5Zm-2.881,7.128v-4.7a7.346,7.346,0,0,0-2.681-.5h-.918a1.4,1.4,0,0,0-1.035.422,1.409,1.409,0,0,0-.423,1.036v2.79a1.407,1.407,0,0,0,.423,1.035,1.41,1.41,0,0,0,1.035.423h.918A7.326,7.326,0,0,0,6221.78-3.713Z"/>
        <path d="M6232.6-8.915h-2.2a1.383,1.383,0,0,0-1.018.422,1.409,1.409,0,0,0-.423,1.036v6.173h-2.9v-6.75a2.74,2.74,0,0,1,.377-1.4,2.794,2.794,0,0,1,1.026-1.025,2.736,2.736,0,0,1,1.4-.378h3.727Z"/>
        <path d="M6243.471-10.841v9.359a2.973,2.973,0,0,1-.405,1.522,3.076,3.076,0,0,1-1.1,1.106,2.913,2.913,0,0,1-1.521.414h-6.462V-.366h5.508a1.045,1.045,0,0,0,.774-.333,1.085,1.085,0,0,0,.324-.783V-2.688a7.188,7.188,0,0,1-2.358.4H6236a2.282,2.282,0,0,1-1.17-.316,2.322,2.322,0,0,1-.855-.863,2.334,2.334,0,0,1-.315-1.18v-6.191h2.879v5.147a1.394,1.394,0,0,0,.433,1.035,1.412,1.412,0,0,0,1.026.423h.2a7.343,7.343,0,0,0,2.394-.395v-6.21Z"/>
      </g>
    </g>
  </g>
</svg>
