<svg xmlns="http://www.w3.org/2000/svg" width="639.06" height="957.587" viewBox="0 0 639.06 957.587">
  <g id="s_xt5" transform="translate(-6700.962 -512.43)">
    <g id="矩形_3085" data-name="矩形 3085" transform="translate(6951.09 756.063)">
      <g id="组_3577" data-name="组 3577" transform="translate(0)">
        <rect id="矩形_2013" data-name="矩形 2013" width="151.732" height="195.872" rx="10" fill="#fff"/>
      </g>
      <g id="组_3578" data-name="组 3578" transform="translate(0 0)">
        <path id="路径_9107" data-name="路径 9107" d="M7115.5,973.239h-133.34a9.207,9.207,0,0,1-9.2-9.2V786.563a9.207,9.207,0,0,1,9.2-9.2H7115.5a9.207,9.207,0,0,1,9.2,9.2V964.044A9.206,9.206,0,0,1,7115.5,973.239Zm-133.34-193.114a6.446,6.446,0,0,0-6.437,6.437V964.044a6.445,6.445,0,0,0,6.438,6.437H7115.5a6.445,6.445,0,0,0,6.438-6.437V786.563a6.446,6.446,0,0,0-6.437-6.437Z" transform="translate(-6972.962 -777.367)" fill="#bd3454"/>
      </g>
    </g>
    <g id="Messages" transform="translate(6969.988 845.878)" style="isolation: isolate">
      <g id="组_3579" data-name="组 3579" style="isolation: isolate">
        <path id="路径_9108" data-name="路径 9108" d="M7006.6,875.035h3.553v15.206H7006.6v-9.887l-2.934,4.458h-3.511l-3.089-4.568v10h-3.553V875.035h3.553l4.834,7.129Z" transform="translate(-6993.512 -875.035)"/>
        <path id="路径_9109" data-name="路径 9109" d="M7023.359,878.827a2.3,2.3,0,0,1,2.318,2.318v2.581a2.251,2.251,0,0,1-.674,1.634,2.219,2.219,0,0,1-1.645.683h-6.18v.795a1.357,1.357,0,0,0,1.347,1.346h6.885v2.362h-8.055a3.619,3.619,0,0,1-1.865-.5,3.682,3.682,0,0,1-1.346-1.346,3.63,3.63,0,0,1-.5-1.865v-4.3a3.632,3.632,0,0,1,.5-1.865,3.7,3.7,0,0,1,1.346-1.346,3.629,3.629,0,0,1,1.865-.5Zm-1.512,4.58a.892.892,0,0,0,.275-.651v-.641a.939.939,0,0,0-.927-.926h-2.669a1.355,1.355,0,0,0-1.347,1.345v1.148h4.016A.892.892,0,0,0,7021.847,883.407Z" transform="translate(-6995.131 -875.34)"/>
        <path id="路径_9110" data-name="路径 9110" d="M7032.941,881.189a1.093,1.093,0,0,0-.817.342,1.148,1.148,0,0,0-.33.827,1.122,1.122,0,0,0,.33.806,1.09,1.09,0,0,0,.817.342h3.8a3.44,3.44,0,0,1,1.777.475,3.557,3.557,0,0,1,1.28,1.279,3.446,3.446,0,0,1,.473,1.777,3.4,3.4,0,0,1-.473,1.755,3.577,3.577,0,0,1-1.28,1.281,3.447,3.447,0,0,1-1.777.474H7028.7v-2.362h6.863a1.124,1.124,0,0,0,.828-.342,1.1,1.1,0,0,0,.342-.805,1.168,1.168,0,0,0-1.17-1.17h-3.795a3.452,3.452,0,0,1-1.766-.474,3.536,3.536,0,0,1-1.292-1.281,3.39,3.39,0,0,1-.474-1.755,3.433,3.433,0,0,1,.474-1.777,3.523,3.523,0,0,1,1.292-1.279,3.445,3.445,0,0,1,1.766-.475h7.945v2.362Z" transform="translate(-6996.305 -875.34)"/>
        <path id="路径_9111" data-name="路径 9111" d="M7047.173,881.189a1.094,1.094,0,0,0-.817.342,1.144,1.144,0,0,0-.33.827,1.118,1.118,0,0,0,.33.806,1.091,1.091,0,0,0,.817.342h3.8a3.439,3.439,0,0,1,1.777.475,3.547,3.547,0,0,1,1.279,1.279,3.438,3.438,0,0,1,.474,1.777,3.4,3.4,0,0,1-.474,1.755,3.567,3.567,0,0,1-1.279,1.281,3.446,3.446,0,0,1-1.777.474h-8.033v-2.362h6.863a1.126,1.126,0,0,0,.829-.342,1.1,1.1,0,0,0,.341-.805,1.167,1.167,0,0,0-1.17-1.17H7046a3.448,3.448,0,0,1-1.766-.474,3.545,3.545,0,0,1-1.292-1.281,3.394,3.394,0,0,1-.474-1.755,3.437,3.437,0,0,1,.474-1.777,3.532,3.532,0,0,1,1.292-1.279,3.441,3.441,0,0,1,1.766-.475h7.944v2.362Z" transform="translate(-6997.449 -875.34)"/>
        <path id="路径_9112" data-name="路径 9112" d="M7070.326,878.827v11.719h-3.531v-.618a8.911,8.911,0,0,1-3.266.618h-3.6a2.79,2.79,0,0,1-1.435-.386,2.884,2.884,0,0,1-1.05-1.047,2.811,2.811,0,0,1-.385-1.435V881.7a2.8,2.8,0,0,1,.385-1.434,2.875,2.875,0,0,1,1.05-1.049,2.808,2.808,0,0,1,1.435-.386h3.574a9.125,9.125,0,0,1,3.289.618v-.618Zm-3.531,8.74v-5.76a8.99,8.99,0,0,0-3.289-.617h-1.124a1.771,1.771,0,0,0-1.79,1.787V886.4a1.772,1.772,0,0,0,1.79,1.787h1.124A8.992,8.992,0,0,0,7066.795,887.567Z" transform="translate(-6998.622 -875.34)"/>
        <path id="路径_9113" data-name="路径 9113" d="M7086.645,878.827V890.3a3.637,3.637,0,0,1-.5,1.864,3.815,3.815,0,0,1-1.347,1.358,3.576,3.576,0,0,1-1.865.507h-9.071V891.65h7.88a1.322,1.322,0,0,0,.971-.4,1.3,1.3,0,0,0,.4-.948v-1.833a12.128,12.128,0,0,1-4.171.84h-2.715a2.792,2.792,0,0,1-1.435-.386,2.912,2.912,0,0,1-1.435-2.506V881.7a2.787,2.787,0,0,1,.386-1.434,2.86,2.86,0,0,1,1.048-1.049,2.8,2.8,0,0,1,1.435-.386h2.691a12.776,12.776,0,0,1,4.194.817v-.817Zm-6.841,8.1a15.365,15.365,0,0,0,3.31-.972v-3.773a16.555,16.555,0,0,0-3.31-.993h-1.126a1.738,1.738,0,0,0-1.258.518,1.71,1.71,0,0,0-.53,1.269v2.163a1.708,1.708,0,0,0,.53,1.269,1.736,1.736,0,0,0,1.258.52Z" transform="translate(-6999.933 -875.34)"/>
        <path id="路径_9114" data-name="路径 9114" d="M7099.389,878.827a2.3,2.3,0,0,1,2.318,2.318v2.581a2.248,2.248,0,0,1-.673,1.634,2.22,2.22,0,0,1-1.646.683h-6.178v.795a1.357,1.357,0,0,0,1.345,1.346h6.887v2.362h-8.056a3.62,3.62,0,0,1-1.865-.5,3.671,3.671,0,0,1-1.346-1.346,3.63,3.63,0,0,1-.5-1.865v-4.3a3.632,3.632,0,0,1,.5-1.865,3.692,3.692,0,0,1,1.346-1.346,3.629,3.629,0,0,1,1.865-.5Zm-1.51,4.58a.894.894,0,0,0,.275-.651v-.641a.94.94,0,0,0-.927-.926h-2.671a1.355,1.355,0,0,0-1.345,1.345v1.148h4.017A.892.892,0,0,0,7097.878,883.407Z" transform="translate(-7001.245 -875.34)"/>
        <path id="路径_9115" data-name="路径 9115" d="M7108.972,881.189a1.09,1.09,0,0,0-.817.342,1.142,1.142,0,0,0-.331.827,1.117,1.117,0,0,0,.331.806,1.086,1.086,0,0,0,.817.342h3.8a3.435,3.435,0,0,1,1.776.475,3.546,3.546,0,0,1,1.28,1.279,3.433,3.433,0,0,1,.475,1.777,3.391,3.391,0,0,1-.475,1.755,3.566,3.566,0,0,1-1.28,1.281,3.442,3.442,0,0,1-1.776.474h-8.034v-2.362h6.864a1.127,1.127,0,0,0,.829-.342,1.1,1.1,0,0,0,.341-.805,1.166,1.166,0,0,0-1.17-1.17h-3.8a3.454,3.454,0,0,1-1.766-.474,3.553,3.553,0,0,1-1.291-1.281,3.385,3.385,0,0,1-.474-1.755,3.428,3.428,0,0,1,.474-1.777,3.54,3.54,0,0,1,1.291-1.279,3.447,3.447,0,0,1,1.766-.475h7.945v2.362Z" transform="translate(-7002.418 -875.34)"/>
      </g>
    </g>
    <g id="矩形_3087" data-name="矩形 3087" transform="translate(6951.09 1129.416)">
      <g id="组_3580" data-name="组 3580">
        <path id="路径_9116" data-name="路径 9116" d="M7124.694,1259.233h0a75.866,75.866,0,0,1-75.866,75.866h0a75.867,75.867,0,0,1-75.866-75.866h0a75.866,75.866,0,0,1,75.866-75.866h0A75.865,75.865,0,0,1,7124.694,1259.233Z" transform="translate(-6972.962 -1183.367)" fill="#fff"/>
      </g>
      <g id="组_3581" data-name="组 3581">
        <path id="路径_9117" data-name="路径 9117" d="M7048.828,1335.1a75.866,75.866,0,1,1,75.866-75.866A75.953,75.953,0,0,1,7048.828,1335.1Zm0-148.973a73.107,73.107,0,1,0,73.107,73.107A73.189,73.189,0,0,0,7048.828,1186.126Z" transform="translate(-6972.962 -1183.367)" fill="#bd3454"/>
      </g>
    </g>
    <g id="Signals" transform="translate(6985.106 1197.184)" style="isolation: isolate">
      <g id="组_3582" data-name="组 3582" transform="translate(0 0)" style="isolation: isolate">
        <path id="路径_9118" data-name="路径 9118" d="M7022.312,1263.967a4.468,4.468,0,0,1,1.611,1.611,4.475,4.475,0,0,1,0,4.458,4.461,4.461,0,0,1-1.611,1.611,4.288,4.288,0,0,1-2.208.6h-9.535v-2.384h8.342a2.015,2.015,0,0,0,1.468-.6,2.05,2.05,0,0,0,0-2.913,2.017,2.017,0,0,0-1.468-.595H7014.3a4.213,4.213,0,0,1-2.184-.586,4.349,4.349,0,0,1-1.579-1.589,4.356,4.356,0,0,1,0-4.359,4.383,4.383,0,0,1,1.579-1.578,4.221,4.221,0,0,1,2.184-.584h9.335v2.36h-8.166a2,2,0,0,0-1.987,1.986,1.871,1.871,0,0,0,.585,1.39,1.924,1.924,0,0,0,1.4.574h4.635A4.3,4.3,0,0,1,7022.312,1263.967Z" transform="translate(-7009.952 -1257.06)"/>
        <path id="路径_9119" data-name="路径 9119" d="M7027.88,1257.083h3.531v3.443h-3.531Zm0,4.326h3.531v10.836h-3.531Z" transform="translate(-7011.394 -1257.062)"/>
        <path id="路径_9120" data-name="路径 9120" d="M7047.213,1260.827V1272.3a3.637,3.637,0,0,1-.5,1.864,3.792,3.792,0,0,1-1.348,1.358,3.568,3.568,0,0,1-1.863.507h-9.072v-2.384h7.88a1.325,1.325,0,0,0,.972-.4,1.293,1.293,0,0,0,.4-.948v-1.833a12.122,12.122,0,0,1-4.171.84H7036.8a2.8,2.8,0,0,1-1.435-.386,2.915,2.915,0,0,1-1.435-2.506V1263.7a2.782,2.782,0,0,1,.387-1.434,2.848,2.848,0,0,1,1.048-1.049,2.8,2.8,0,0,1,1.435-.386h2.692a12.782,12.782,0,0,1,4.193.817v-.817Zm-6.841,8.1a15.36,15.36,0,0,0,3.311-.972v-3.773a16.555,16.555,0,0,0-3.311-.993h-1.125a1.739,1.739,0,0,0-1.258.518,1.7,1.7,0,0,0-.53,1.269v2.163a1.7,1.7,0,0,0,.53,1.269,1.737,1.737,0,0,0,1.258.519Z" transform="translate(-7011.879 -1257.363)"/>
        <path id="路径_9121" data-name="路径 9121" d="M7058.723,1272.546v-7.57a1.769,1.769,0,0,0-1.788-1.787h-1.368a1.769,1.769,0,0,0-1.788,1.787v7.57h-3.531v-8.276a3.357,3.357,0,0,1,.463-1.722,3.434,3.434,0,0,1,1.258-1.258,3.354,3.354,0,0,1,1.722-.464h5.121a3.4,3.4,0,0,1,1.743.464,3.443,3.443,0,0,1,1.258,1.258,3.362,3.362,0,0,1,.463,1.722v8.276Z" transform="translate(-7013.192 -1257.363)"/>
        <path id="路径_9122" data-name="路径 9122" d="M7078.463,1260.827v11.719h-3.531v-.618a8.928,8.928,0,0,1-3.268.618h-3.6a2.782,2.782,0,0,1-1.434-.386,2.857,2.857,0,0,1-1.049-1.047,2.8,2.8,0,0,1-.386-1.435V1263.7a2.8,2.8,0,0,1,.386-1.434,2.848,2.848,0,0,1,1.049-1.049,2.8,2.8,0,0,1,1.434-.386h3.575a9.137,9.137,0,0,1,3.289.618v-.618Zm-3.531,8.74v-5.76a9,9,0,0,0-3.289-.617h-1.125a1.771,1.771,0,0,0-1.788,1.787v3.422a1.773,1.773,0,0,0,1.788,1.787h1.125A9,9,0,0,0,7074.932,1269.567Z" transform="translate(-7014.395 -1257.363)"/>
        <path id="路径_9123" data-name="路径 9123" d="M7085.384,1272.245h-3.553v-15.162h3.553Z" transform="translate(-7015.732 -1257.062)"/>
        <path id="路径_9124" data-name="路径 9124" d="M7092.244,1263.189a1.09,1.09,0,0,0-.815.342,1.141,1.141,0,0,0-.332.827,1.115,1.115,0,0,0,.332.806,1.086,1.086,0,0,0,.815.342h3.8a3.438,3.438,0,0,1,1.776.475,3.541,3.541,0,0,1,1.28,1.279,3.438,3.438,0,0,1,.475,1.777,3.4,3.4,0,0,1-.475,1.755,3.561,3.561,0,0,1-1.28,1.281,3.444,3.444,0,0,1-1.776.474h-8.034v-2.361h6.865a1.125,1.125,0,0,0,.827-.342,1.1,1.1,0,0,0,.342-.806,1.167,1.167,0,0,0-1.168-1.17h-3.8a3.453,3.453,0,0,1-1.766-.474,3.537,3.537,0,0,1-1.291-1.281,3.4,3.4,0,0,1-.475-1.755,3.438,3.438,0,0,1,.475-1.777,3.526,3.526,0,0,1,1.291-1.279,3.446,3.446,0,0,1,1.766-.475h7.945v2.362Z" transform="translate(-7016.191 -1257.363)"/>
      </g>
    </g>
    <g id="矩形_3088" data-name="矩形 3088" transform="translate(6700.962 608.929)">
      <g id="组_3583" data-name="组 3583" transform="translate(0)">
        <rect id="矩形_2014" data-name="矩形 2014" width="142.536" height="115.868" rx="10" fill="#fff"/>
      </g>
      <g id="组_3584" data-name="组 3584" transform="translate(0 0)">
        <path id="路径_9125" data-name="路径 9125" d="M6834.3,733.235H6710.158a9.206,9.206,0,0,1-9.2-9.2V626.563a9.207,9.207,0,0,1,9.2-9.2H6834.3a9.207,9.207,0,0,1,9.2,9.2v97.476A9.206,9.206,0,0,1,6834.3,733.235ZM6710.158,620.126a6.445,6.445,0,0,0-6.437,6.437v97.476a6.445,6.445,0,0,0,6.437,6.437H6834.3a6.445,6.445,0,0,0,6.437-6.437V626.563a6.446,6.446,0,0,0-6.437-6.437Z" transform="translate(-6700.962 -617.367)" fill="#bd3454"/>
      </g>
    </g>
    <g id="Private" transform="translate(6732.361 657.385)" style="isolation: isolate">
      <g id="组_3585" data-name="组 3585" style="isolation: isolate">
        <path id="路径_9126" data-name="路径 9126" d="M6747.609,670.721a4.933,4.933,0,0,1,1.8,1.789,4.782,4.782,0,0,1,.661,2.471,4.842,4.842,0,0,1-.661,2.483,4.9,4.9,0,0,1-1.8,1.8,4.843,4.843,0,0,1-2.482.662h-6.489v5.319h-3.531V670.06h10.02A4.842,4.842,0,0,1,6747.609,670.721Zm-1.843,6.091a2.583,2.583,0,0,0,0-3.642,2.465,2.465,0,0,0-1.809-.75h-5.319v5.143h5.319A2.466,2.466,0,0,0,6745.766,676.813Z" transform="translate(-6735.107 -670.06)"/>
        <path id="路径_9127" data-name="路径 9127" d="M6761.118,676.189h-2.692a1.7,1.7,0,0,0-1.248.518,1.728,1.728,0,0,0-.519,1.269v7.57h-3.553V677.27a3.361,3.361,0,0,1,.463-1.721,3.439,3.439,0,0,1,1.258-1.258,3.357,3.357,0,0,1,1.722-.463h4.568Z" transform="translate(-6736.554 -670.363)"/>
        <path id="路径_9128" data-name="路径 9128" d="M6763.235,670.083h3.53v3.443h-3.53Zm0,4.326h3.53v10.836h-3.53Z" transform="translate(-6737.369 -670.062)"/>
        <path id="路径_9129" data-name="路径 9129" d="M6777.6,673.827h3.553l-4.613,11.719h-3.553l-4.525-11.719h3.554l2.759,7.152Z" transform="translate(-6737.79 -670.363)"/>
        <path id="路径_9130" data-name="路径 9130" d="M6796.585,673.827v11.719h-3.531v-.618a8.912,8.912,0,0,1-3.265.618h-3.6a2.791,2.791,0,0,1-1.436-.386,2.875,2.875,0,0,1-1.049-1.047,2.807,2.807,0,0,1-.386-1.435V676.7a2.8,2.8,0,0,1,.386-1.434,2.865,2.865,0,0,1,1.049-1.049,2.808,2.808,0,0,1,1.436-.386h3.574a9.124,9.124,0,0,1,3.288.618v-.618Zm-3.531,8.74v-5.76a8.987,8.987,0,0,0-3.288-.617h-1.124a1.771,1.771,0,0,0-1.79,1.787V681.4a1.772,1.772,0,0,0,1.79,1.787h1.124A8.988,8.988,0,0,0,6793.054,682.567Z" transform="translate(-6738.984 -670.363)"/>
        <path id="路径_9131" data-name="路径 9131" d="M6803.93,681.537a1.356,1.356,0,0,0,1.345,1.346h1.611v2.361h-2.8a3.579,3.579,0,0,1-1.777-.463,3.841,3.841,0,0,1-1.346-1.247,3.529,3.529,0,0,1-.585-1.733v-5.914H6798.9v-2.362h1.479v-3.443h3.553v3.443h2.957v2.362h-2.957Z" transform="translate(-6740.236 -670.062)"/>
        <path id="路径_9132" data-name="路径 9132" d="M6818.449,673.827a2.3,2.3,0,0,1,2.317,2.318v2.581a2.249,2.249,0,0,1-.674,1.634,2.218,2.218,0,0,1-1.644.683h-6.18v.795a1.356,1.356,0,0,0,1.347,1.346h6.885v2.362h-8.056a3.62,3.62,0,0,1-1.865-.5,3.687,3.687,0,0,1-1.346-1.346,3.625,3.625,0,0,1-.5-1.865v-4.3a3.627,3.627,0,0,1,.5-1.865,3.709,3.709,0,0,1,1.346-1.346,3.629,3.629,0,0,1,1.865-.5Zm-1.512,4.58a.9.9,0,0,0,.275-.651v-.641a.939.939,0,0,0-.926-.926h-2.67a1.354,1.354,0,0,0-1.347,1.345v1.148h4.017A.891.891,0,0,0,6816.937,678.407Z" transform="translate(-6741.028 -670.363)"/>
      </g>
    </g>
    <g id="矩形_3089" data-name="矩形 3089" transform="translate(6700.962 992.397)">
      <g id="组_3586" data-name="组 3586" transform="translate(0)">
        <rect id="矩形_2015" data-name="矩形 2015" width="142.536" height="123.225" rx="10" fill="#fff"/>
      </g>
      <g id="组_3587" data-name="组 3587">
        <path id="路径_9133" data-name="路径 9133" d="M6834.3,1157.592H6710.158a9.206,9.206,0,0,1-9.2-9.2V1043.563a9.207,9.207,0,0,1,9.2-9.2H6834.3a9.207,9.207,0,0,1,9.2,9.2V1148.4A9.206,9.206,0,0,1,6834.3,1157.592Zm-124.145-120.466a6.445,6.445,0,0,0-6.437,6.437V1148.4a6.444,6.444,0,0,0,6.437,6.437H6834.3a6.445,6.445,0,0,0,6.437-6.437V1043.563a6.445,6.445,0,0,0-6.437-6.437Z" transform="translate(-6700.962 -1034.367)" fill="#bd3454"/>
      </g>
    </g>
    <g id="组_3588" data-name="组 3588" transform="translate(6737.691 1026.079)" style="isolation: isolate">
      <path id="路径_9134" data-name="路径 9134" d="M6753.4,1071.656a4.935,4.935,0,0,1,1.8,1.788,4.786,4.786,0,0,1,.661,2.472,4.844,4.844,0,0,1-.661,2.483,4.915,4.915,0,0,1-1.8,1.8,4.852,4.852,0,0,1-2.482.662h-6.489v5.319H6740.9v-15.184h10.02A4.834,4.834,0,0,1,6753.4,1071.656Zm-1.843,6.091a2.492,2.492,0,0,0,.751-1.832,2.564,2.564,0,0,0-2.561-2.56h-5.319v5.142h5.319A2.464,2.464,0,0,0,6751.562,1077.747Z" transform="translate(-6740.903 -1070.994)"/>
      <path id="路径_9135" data-name="路径 9135" d="M6762.434,1074.762v7.57a1.773,1.773,0,0,0,1.788,1.788h1.39a1.7,1.7,0,0,0,1.248-.519,1.729,1.729,0,0,0,.518-1.269v-7.57h3.554v8.276a3.356,3.356,0,0,1-.463,1.722,3.439,3.439,0,0,1-1.258,1.258,3.4,3.4,0,0,1-1.744.464h-5.12a3.354,3.354,0,0,1-1.721-.464,3.442,3.442,0,0,1-1.259-1.258,3.365,3.365,0,0,1-.462-1.722v-8.276Z" transform="translate(-6742.35 -1071.297)"/>
      <path id="路径_9136" data-name="路径 9136" d="M6785.683,1074.847a2.873,2.873,0,0,1,1.049,1.048,2.8,2.8,0,0,1,.386,1.434v5.981a2.8,2.8,0,0,1-.386,1.435,2.873,2.873,0,0,1-1.049,1.048,2.8,2.8,0,0,1-1.434.386h-3.6a8.942,8.942,0,0,1-3.267-.618v.618h-3.531v-15.162h3.531v4.061a9.235,9.235,0,0,1,3.289-.618h3.576A2.794,2.794,0,0,1,6785.683,1074.847Zm-2.1,3.762a1.771,1.771,0,0,0-1.788-1.787h-1.126a9,9,0,0,0-3.289.618v5.76a9,9,0,0,0,3.289.618h1.126a1.771,1.771,0,0,0,1.788-1.788Z" transform="translate(-6743.552 -1070.996)"/>
      <path id="路径_9137" data-name="路径 9137" d="M6794.039,1086.18h-3.552v-15.162h3.552Z" transform="translate(-6744.89 -1070.996)"/>
      <path id="路径_9138" data-name="路径 9138" d="M6796.894,1071.018h3.531v3.443h-3.531Zm0,4.326h3.531v10.836h-3.531Z" transform="translate(-6745.405 -1070.996)"/>
      <path id="路径_9139" data-name="路径 9139" d="M6814.97,1086.481h-8.564a3.448,3.448,0,0,1-3.464-3.465v-4.789a3.448,3.448,0,0,1,3.464-3.465h8.564v2.361h-6.709a1.738,1.738,0,0,0-1.258.519,1.706,1.706,0,0,0-.531,1.268v3.422a1.707,1.707,0,0,0,.531,1.269,1.734,1.734,0,0,0,1.258.519h6.709Z" transform="translate(-6745.892 -1071.297)"/>
    </g>
    <g id="组_3589" data-name="组 3589" transform="translate(6722.396 1057.466)" style="isolation: isolate">
      <path id="路径_9140" data-name="路径 9140" d="M6731.29,1121.06h-3.531a3.489,3.489,0,0,1-3.025-1.721,3.4,3.4,0,0,1-.463-1.744v-9a3.427,3.427,0,0,1,1.732-3,3.456,3.456,0,0,1,1.756-.464h3.531v2.339h-1.656a1.7,1.7,0,0,0-1.269.53,1.763,1.763,0,0,0-.519,1.28v7.635a1.693,1.693,0,0,0,.519,1.259,1.744,1.744,0,0,0,1.269.507h1.656Z" transform="translate(-6724.271 -1105.125)"/>
      <path id="路径_9141" data-name="路径 9141" d="M6746.758,1112.033a4.439,4.439,0,0,1,1.611,1.611,4.466,4.466,0,0,1,0,4.457,4.433,4.433,0,0,1-1.611,1.611,4.274,4.274,0,0,1-2.207.6h-9.534v-2.383h8.343a2.018,2.018,0,0,0,1.468-.6,2.051,2.051,0,0,0,0-2.912,2.021,2.021,0,0,0-1.468-.6h-4.613a4.219,4.219,0,0,1-2.185-.586,4.34,4.34,0,0,1-1.578-1.588,4.352,4.352,0,0,1,0-4.359,4.376,4.376,0,0,1,1.578-1.578,4.227,4.227,0,0,1,2.185-.585h9.336v2.361h-8.166a2,2,0,0,0-1.986,1.987,1.872,1.872,0,0,0,.584,1.389,1.929,1.929,0,0,0,1.4.574h4.635A4.282,4.282,0,0,1,6746.758,1112.033Z" transform="translate(-6725.085 -1105.125)"/>
      <path id="路径_9142" data-name="路径 9142" d="M6762.585,1108.976a2.877,2.877,0,0,1,1.049,1.048,2.8,2.8,0,0,1,.386,1.435v8.85h-3.532v-7.571a1.77,1.77,0,0,0-1.789-1.787h-.53a7.248,7.248,0,0,0-2.625.552v8.806h-3.553v-15.184h3.553v4.017a7.246,7.246,0,0,1,2.625-.552h2.979A2.8,2.8,0,0,1,6762.585,1108.976Z" transform="translate(-6726.5 -1105.125)"/>
      <path id="路径_9143" data-name="路径 9143" d="M6780.207,1108.893v11.719h-3.531v-.618a8.941,8.941,0,0,1-3.267.618h-3.6a2.8,2.8,0,0,1-1.435-.386,2.861,2.861,0,0,1-1.048-1.048,2.79,2.79,0,0,1-.386-1.435v-5.981a2.79,2.79,0,0,1,.386-1.435,2.861,2.861,0,0,1,1.048-1.048,2.8,2.8,0,0,1,1.435-.386h3.575a9.133,9.133,0,0,1,3.289.617v-.617Zm-3.531,8.739v-5.759a9,9,0,0,0-3.289-.618h-1.125a1.771,1.771,0,0,0-1.788,1.787v3.422a1.771,1.771,0,0,0,1.788,1.787h1.125A8.979,8.979,0,0,0,6776.676,1117.632Z" transform="translate(-6727.702 -1105.428)"/>
      <path id="路径_9144" data-name="路径 9144" d="M6791.25,1111.255h-2.692a1.706,1.706,0,0,0-1.249.518,1.731,1.731,0,0,0-.518,1.269v7.571h-3.554v-8.276a3.351,3.351,0,0,1,.463-1.721,3.43,3.43,0,0,1,1.259-1.259,3.36,3.36,0,0,1,1.721-.463h4.569Z" transform="translate(-6729.012 -1105.428)"/>
      <path id="路径_9145" data-name="路径 9145" d="M6802.741,1108.893a2.3,2.3,0,0,1,2.318,2.317v2.582a2.247,2.247,0,0,1-.674,1.633,2.216,2.216,0,0,1-1.644.683h-6.18v.795a1.354,1.354,0,0,0,1.346,1.346h6.886v2.362h-8.055a3.625,3.625,0,0,1-1.865-.5,3.693,3.693,0,0,1-1.347-1.346,3.631,3.631,0,0,1-.5-1.866v-4.3a3.635,3.635,0,0,1,.5-1.866,3.691,3.691,0,0,1,1.347-1.345,3.617,3.617,0,0,1,1.865-.5Zm-1.511,4.58a.891.891,0,0,0,.274-.651v-.64a.94.94,0,0,0-.926-.927h-2.67a1.356,1.356,0,0,0-1.346,1.346v1.148h4.017A.894.894,0,0,0,6801.229,1113.473Z" transform="translate(-6729.8 -1105.428)"/>
      <path id="路径_9146" data-name="路径 9146" d="M6821.245,1105.125v15.184h-3.53v-.618a8.945,8.945,0,0,1-3.267.618h-3.62a2.735,2.735,0,0,1-1.423-.386,2.888,2.888,0,0,1-1.038-1.048,2.794,2.794,0,0,1-.386-1.435v-5.981a2.794,2.794,0,0,1,.386-1.435,2.888,2.888,0,0,1,1.038-1.048,2.735,2.735,0,0,1,1.423-.386h3.6a9.018,9.018,0,0,1,3.29.617v-4.082Zm-3.53,12.2v-5.759a9,9,0,0,0-3.29-.618H6813.3a1.77,1.77,0,0,0-1.788,1.787v3.422a1.77,1.77,0,0,0,1.788,1.787h1.125A8.981,8.981,0,0,0,6817.715,1117.329Z" transform="translate(-6731.002 -1105.125)"/>
      <path id="路径_9147" data-name="路径 9147" d="M6826.677,1118.675a1.742,1.742,0,0,0,1.268-.507,1.691,1.691,0,0,0,.52-1.259v-7.635a1.76,1.76,0,0,0-.52-1.28,1.7,1.7,0,0,0-1.268-.53h-1.656v-2.339h3.531a3.46,3.46,0,0,1,1.755.464,3.426,3.426,0,0,1,1.733,3v9a3.423,3.423,0,0,1-1.733,3,3.454,3.454,0,0,1-1.755.464h-3.531v-2.385Z" transform="translate(-6732.373 -1105.125)"/>
    </g>
    <g id="矩形_3090" data-name="矩形 3090" transform="translate(7210.414 613.087)">
      <g id="组_3590" data-name="组 3590">
        <path id="路径_9148" data-name="路径 9148" d="M7372.706,631.085V738.677c0,5.079-5.434,9.2-12.139,9.2H7267.1c-6.7,0-12.139-4.117-12.139-9.2V631.085c0-5.079,5.435-9.2,12.139-9.2h93.467C7367.272,621.889,7372.706,626.006,7372.706,631.085Z" transform="translate(-7254.962 -621.889)" fill="#fff"/>
      </g>
      <g id="组_3591" data-name="组 3591" transform="translate(0.441 0.001)">
        <path id="路径_9149" data-name="路径 9149" d="M7360.607,747.874h-93.468c-6.45,0-11.7-4.126-11.7-9.2V631.086c0-5.071,5.247-9.2,11.7-9.2h93.468c6.449,0,11.7,4.125,11.7,9.2V738.678C7372.3,743.747,7367.056,747.874,7360.607,747.874Zm-93.468-123.225c-4.928,0-8.938,2.888-8.938,6.437V738.678c0,3.549,4.011,6.437,8.938,6.437h93.468c4.928,0,8.937-2.888,8.937-6.437V631.086c0-3.55-4.009-6.437-8.937-6.437Z" transform="translate(-7255.442 -621.89)" fill="#bd3454"/>
      </g>
    </g>
    <g id="Game_NFT" data-name="Game NFT" transform="translate(7230.599 654.738)" style="isolation: isolate">
      <g id="组_3592" data-name="组 3592" style="isolation: isolate">
        <path id="路径_9150" data-name="路径 9150" d="M7282.054,669.974a3.224,3.224,0,0,0-1.159,1.159,3.069,3.069,0,0,0-.431,1.588V676.8a3.134,3.134,0,0,0,.431,1.6,3.2,3.2,0,0,0,1.159,1.169,3.055,3.055,0,0,0,1.588.43h4.3v-6.157h3.532v8.518h-9.027a5.4,5.4,0,0,1-2.782-.75,5.553,5.553,0,0,1-2.759-4.81v-4.084a5.417,5.417,0,0,1,.739-2.77,5.532,5.532,0,0,1,2.02-2.019,5.4,5.4,0,0,1,2.782-.75h9.027v2.361h-7.836A3.056,3.056,0,0,0,7282.054,669.974Z" transform="translate(-7276.911 -667.182)"/>
        <path id="路径_9151" data-name="路径 9151" d="M7307.935,670.949v11.719H7304.4v-.618a8.919,8.919,0,0,1-3.266.618h-3.6a2.792,2.792,0,0,1-1.436-.386,2.874,2.874,0,0,1-1.047-1.047,2.8,2.8,0,0,1-.386-1.435v-5.981a2.8,2.8,0,0,1,.386-1.434,2.864,2.864,0,0,1,1.047-1.049,2.81,2.81,0,0,1,1.436-.386h3.576a9.134,9.134,0,0,1,3.288.618v-.618Zm-3.531,8.74v-5.76a8.995,8.995,0,0,0-3.288-.617h-1.126a1.769,1.769,0,0,0-1.788,1.787v3.422a1.769,1.769,0,0,0,1.788,1.787h1.126A9,9,0,0,0,7304.4,679.689Z" transform="translate(-7278.339 -667.485)"/>
        <path id="路径_9152" data-name="路径 9152" d="M7328.2,671.412a3.44,3.44,0,0,1,1.258,1.258,3.356,3.356,0,0,1,.463,1.721v8.276h-3.554V675.1a1.731,1.731,0,0,0-.519-1.269,1.7,1.7,0,0,0-1.247-.518h-.529a1.7,1.7,0,0,0-1.247.518,1.728,1.728,0,0,0-.519,1.269v7.57h-3.554V675.1a1.727,1.727,0,0,0-.518-1.269,1.7,1.7,0,0,0-1.248-.518h-.507a1.771,1.771,0,0,0-1.789,1.787v7.57h-3.531v-8.276a3.356,3.356,0,0,1,.463-1.721,3.44,3.44,0,0,1,1.258-1.258,3.356,3.356,0,0,1,1.721-.463h3.312a4.453,4.453,0,0,1,2.626.862,4.352,4.352,0,0,1,2.6-.862h3.332A3.361,3.361,0,0,1,7328.2,671.412Z" transform="translate(-7279.665 -667.485)"/>
        <path id="路径_9153" data-name="路径 9153" d="M7343.334,670.949a2.3,2.3,0,0,1,2.317,2.318v2.581a2.25,2.25,0,0,1-.673,1.634,2.221,2.221,0,0,1-1.645.683h-6.18v.795a1.357,1.357,0,0,0,1.346,1.346h6.885v2.362h-8.056a3.615,3.615,0,0,1-1.864-.5,3.68,3.68,0,0,1-1.347-1.346,3.638,3.638,0,0,1-.5-1.865v-4.3a3.641,3.641,0,0,1,.5-1.865,3.7,3.7,0,0,1,1.347-1.346,3.624,3.624,0,0,1,1.864-.5Zm-1.512,4.58a.9.9,0,0,0,.275-.651v-.641a.939.939,0,0,0-.927-.926H7338.5a1.355,1.355,0,0,0-1.346,1.345V675.8h4.016A.892.892,0,0,0,7341.822,675.529Z" transform="translate(-7281.471 -667.485)"/>
        <path id="路径_9154" data-name="路径 9154" d="M7305.262,695.981h3.53v15.184h-3.53l-7.5-10.329v10.329h-3.53V695.981h3.53l7.5,10.329Z" transform="translate(-7278.304 -669.498)"/>
        <path id="路径_9155" data-name="路径 9155" d="M7316.988,698.718a2.835,2.835,0,0,0-1.036,1.026,2.738,2.738,0,0,0-.386,1.424v2.406H7326.6v2.362h-11.035v5.231h-3.532v-10a5.067,5.067,0,0,1,.7-2.6,5.155,5.155,0,0,1,1.886-1.887,5.076,5.076,0,0,1,2.6-.7h9.381v2.362h-8.212A2.774,2.774,0,0,0,7316.988,698.718Z" transform="translate(-7279.735 -669.498)"/>
        <path id="路径_9156" data-name="路径 9156" d="M7343.183,695.957v2.384h-5.518v12.823h-3.553V698.341h-5.518v-2.384Z" transform="translate(-7281.067 -669.496)"/>
      </g>
    </g>
    <g id="矩形_3091" data-name="矩形 3091" transform="translate(7210.414 990.965)">
      <g id="组_3593" data-name="组 3593">
        <path id="路径_9157" data-name="路径 9157" d="M7372.706,1042v104.833c0,5.079-5.434,9.2-12.139,9.2H7267.1c-6.7,0-12.139-4.117-12.139-9.2V1042c0-5.079,5.435-9.2,12.139-9.2h93.467C7367.272,1032.809,7372.706,1036.926,7372.706,1042Z" transform="translate(-7254.962 -1032.809)" fill="#fff"/>
      </g>
      <g id="组_3594" data-name="组 3594" transform="translate(0.441)">
        <path id="路径_9158" data-name="路径 9158" d="M7360.607,1156.034h-93.468c-6.45,0-11.7-4.126-11.7-9.2V1042c0-5.071,5.247-9.2,11.7-9.2h93.468c6.449,0,11.7,4.125,11.7,9.2v104.833C7372.3,1151.908,7367.056,1156.034,7360.607,1156.034Zm-93.468-120.466c-4.928,0-8.938,2.887-8.938,6.437v104.833c0,3.549,4.011,6.437,8.938,6.437h93.468c4.928,0,8.937-2.888,8.937-6.437V1042c0-3.55-4.009-6.437-8.937-6.437Z" transform="translate(-7255.442 -1032.809)" fill="#bd3454"/>
      </g>
    </g>
    <g id="Game_account" data-name="Game account" transform="translate(7224.288 1030.549)" style="isolation: isolate">
      <g id="组_3595" data-name="组 3595" style="isolation: isolate">
        <path id="路径_9159" data-name="路径 9159" d="M7289.47,1078.648a3.244,3.244,0,0,0-1.158,1.158,3.066,3.066,0,0,0-.431,1.589v4.083a3.13,3.13,0,0,0,.431,1.6,3.217,3.217,0,0,0,1.158,1.169,3.059,3.059,0,0,0,1.589.43h4.3v-6.157h3.531v8.518h-9.026a5.393,5.393,0,0,1-2.781-.75,5.556,5.556,0,0,1-2.759-4.811v-4.083a5.4,5.4,0,0,1,.74-2.77,5.531,5.531,0,0,1,2.019-2.019,5.4,5.4,0,0,1,2.781-.75h9.026v2.361h-7.834A3.061,3.061,0,0,0,7289.47,1078.648Z" transform="translate(-7271.197 -1075.855)"/>
        <path id="路径_9160" data-name="路径 9160" d="M7315.353,1079.623v11.719h-3.532v-.618a8.913,8.913,0,0,1-3.267.618h-3.6a2.787,2.787,0,0,1-1.435-.386,2.868,2.868,0,0,1-1.049-1.047,2.807,2.807,0,0,1-.386-1.436v-5.981a2.8,2.8,0,0,1,.386-1.434,2.858,2.858,0,0,1,1.049-1.049,2.806,2.806,0,0,1,1.435-.386h3.575a9.128,9.128,0,0,1,3.288.618v-.618Zm-3.532,8.74v-5.76a8.992,8.992,0,0,0-3.288-.618h-1.125a1.771,1.771,0,0,0-1.788,1.788v3.421a1.771,1.771,0,0,0,1.788,1.788h1.125A8.992,8.992,0,0,0,7311.82,1088.363Z" transform="translate(-7272.625 -1076.158)"/>
        <path id="路径_9161" data-name="路径 9161" d="M7335.614,1080.086a3.435,3.435,0,0,1,1.258,1.258,3.356,3.356,0,0,1,.463,1.721v8.276h-3.554v-7.57a1.727,1.727,0,0,0-.518-1.269,1.7,1.7,0,0,0-1.248-.519h-.529a1.7,1.7,0,0,0-1.247.519,1.728,1.728,0,0,0-.52,1.269v7.57h-3.552v-7.57a1.727,1.727,0,0,0-.519-1.269,1.7,1.7,0,0,0-1.247-.519h-.509a1.771,1.771,0,0,0-1.787,1.788v7.57h-3.531v-8.276a3.356,3.356,0,0,1,.463-1.721,3.439,3.439,0,0,1,1.257-1.258,3.361,3.361,0,0,1,1.722-.463h3.311a4.447,4.447,0,0,1,2.625.862,4.361,4.361,0,0,1,2.6-.862h3.333A3.362,3.362,0,0,1,7335.614,1080.086Z" transform="translate(-7273.951 -1076.158)"/>
        <path id="路径_9162" data-name="路径 9162" d="M7350.751,1079.623a2.3,2.3,0,0,1,2.316,2.318v2.581a2.25,2.25,0,0,1-.673,1.634,2.218,2.218,0,0,1-1.643.683h-6.181v.795a1.357,1.357,0,0,0,1.348,1.346h6.885v2.361h-8.057a3.617,3.617,0,0,1-1.864-.5,3.689,3.689,0,0,1-1.346-1.346,3.63,3.63,0,0,1-.5-1.865v-4.3a3.632,3.632,0,0,1,.5-1.865,3.7,3.7,0,0,1,1.346-1.346,3.625,3.625,0,0,1,1.864-.5Zm-1.513,4.58a.9.9,0,0,0,.276-.651v-.641a.942.942,0,0,0-.927-.927h-2.669a1.357,1.357,0,0,0-1.348,1.346v1.148h4.017A.888.888,0,0,0,7349.238,1084.2Z" transform="translate(-7275.757 -1076.158)"/>
        <path id="路径_9163" data-name="路径 9163" d="M7283.313,1108.423v11.719h-3.531v-.618a8.945,8.945,0,0,1-3.267.618h-3.6a2.8,2.8,0,0,1-1.435-.386,2.857,2.857,0,0,1-1.048-1.048,2.791,2.791,0,0,1-.386-1.435v-5.981a2.79,2.79,0,0,1,.386-1.435,2.859,2.859,0,0,1,1.048-1.048,2.8,2.8,0,0,1,1.435-.386h3.575a9.117,9.117,0,0,1,3.289.618v-.618Zm-3.531,8.74v-5.76a9,9,0,0,0-3.289-.618h-1.125a1.771,1.771,0,0,0-1.788,1.788v3.421a1.771,1.771,0,0,0,1.788,1.788h1.125A9,9,0,0,0,7279.782,1117.163Z" transform="translate(-7270.049 -1078.474)"/>
        <path id="路径_9164" data-name="路径 9164" d="M7298.373,1120.142h-8.563a3.4,3.4,0,0,1-1.743-.464,3.438,3.438,0,0,1-1.258-1.258,3.4,3.4,0,0,1-.463-1.744v-4.789a3.4,3.4,0,0,1,.463-1.744,3.437,3.437,0,0,1,1.258-1.258,3.4,3.4,0,0,1,1.743-.464h8.563v2.361h-6.709a1.738,1.738,0,0,0-1.257.519,1.708,1.708,0,0,0-.53,1.269v3.421a1.707,1.707,0,0,0,.53,1.269,1.735,1.735,0,0,0,1.257.519h6.709Z" transform="translate(-7271.359 -1078.474)"/>
        <path id="路径_9165" data-name="路径 9165" d="M7313.324,1120.142h-8.563a3.4,3.4,0,0,1-1.744-.464,3.438,3.438,0,0,1-1.258-1.258,3.4,3.4,0,0,1-.463-1.744v-4.789a3.4,3.4,0,0,1,.463-1.744,3.437,3.437,0,0,1,1.258-1.258,3.4,3.4,0,0,1,1.744-.464h8.563v2.361h-6.709a1.741,1.741,0,0,0-1.258.519,1.711,1.711,0,0,0-.529,1.269v3.421a1.71,1.71,0,0,0,.529,1.269,1.738,1.738,0,0,0,1.258.519h6.709Z" transform="translate(-7272.562 -1078.474)"/>
        <path id="路径_9166" data-name="路径 9166" d="M7326.555,1108.886a3.43,3.43,0,0,1,1.258,1.258,3.351,3.351,0,0,1,.464,1.721v4.833a3.352,3.352,0,0,1-.464,1.722,3.431,3.431,0,0,1-1.258,1.258,3.394,3.394,0,0,1-1.742.464h-5.121a3.348,3.348,0,0,1-1.734-.464,3.482,3.482,0,0,1-1.246-1.258,3.361,3.361,0,0,1-.463-1.722v-4.833a3.36,3.36,0,0,1,.463-1.721,3.481,3.481,0,0,1,1.246-1.258,3.348,3.348,0,0,1,1.734-.464h5.121A3.394,3.394,0,0,1,7326.555,1108.886Zm-1.832,3.686a1.771,1.771,0,0,0-1.787-1.788h-1.368a1.771,1.771,0,0,0-1.788,1.788v3.421a1.771,1.771,0,0,0,1.788,1.788h1.368a1.771,1.771,0,0,0,1.787-1.788Z" transform="translate(-7273.764 -1078.474)"/>
        <path id="路径_9167" data-name="路径 9167" d="M7334.73,1108.423v7.57a1.773,1.773,0,0,0,1.788,1.788h1.391a1.7,1.7,0,0,0,1.248-.519,1.729,1.729,0,0,0,.518-1.269v-7.57h3.553v8.276a3.356,3.356,0,0,1-.463,1.722,3.434,3.434,0,0,1-1.258,1.258,3.4,3.4,0,0,1-1.742.464h-5.122a3.354,3.354,0,0,1-1.722-.464,3.442,3.442,0,0,1-1.258-1.258,3.361,3.361,0,0,1-.463-1.722v-8.276Z" transform="translate(-7274.966 -1078.474)"/>
        <path id="路径_9168" data-name="路径 9168" d="M7354.626,1120.142v-7.57a1.771,1.771,0,0,0-1.787-1.788h-1.368a1.772,1.772,0,0,0-1.789,1.788v7.57h-3.531v-8.276a3.356,3.356,0,0,1,.463-1.721,3.442,3.442,0,0,1,1.258-1.258,3.36,3.36,0,0,1,1.722-.464h5.119a3.4,3.4,0,0,1,1.744.464,3.441,3.441,0,0,1,1.259,1.258,3.364,3.364,0,0,1,.462,1.721v8.276Z" transform="translate(-7276.168 -1078.474)"/>
        <path id="路径_9169" data-name="路径 9169" d="M7365.414,1116.133a1.359,1.359,0,0,0,1.346,1.346h1.611v2.361h-2.8a3.578,3.578,0,0,1-1.777-.464,3.829,3.829,0,0,1-1.345-1.247,3.532,3.532,0,0,1-.586-1.733v-5.915h-1.478v-2.361h1.478v-3.443h3.553v3.443h2.958v2.361h-2.958Z" transform="translate(-7277.313 -1078.173)"/>
      </g>
    </g>
    <g id="Event" transform="translate(6995.004 512.43)" style="isolation: isolate">
      <g id="组_3596" data-name="组 3596" style="isolation: isolate">
        <path id="路径_9170" data-name="路径 9170" d="M7025.671,515.166a2.835,2.835,0,0,0-1.037,1.026,2.725,2.725,0,0,0-.386,1.424v1.215h11.035v2.361h-11.035V522.4a2.718,2.718,0,0,0,.386,1.424,2.808,2.808,0,0,0,1.037,1.026,2.751,2.751,0,0,0,1.4.376h8.211v2.383H7025.9a5.02,5.02,0,0,1-2.6-.705,5.249,5.249,0,0,1-1.885-1.9,5.067,5.067,0,0,1-.7-2.6v-4.789a5.074,5.074,0,0,1,.7-2.6,5.152,5.152,0,0,1,1.885-1.886,5.082,5.082,0,0,1,2.6-.7h9.382v2.361h-8.211A2.768,2.768,0,0,0,7025.671,515.166Z" transform="translate(-7020.716 -512.43)"/>
        <path id="路径_9171" data-name="路径 9171" d="M7046.8,516.2h3.552l-4.613,11.719h-3.552L7037.66,516.2h3.552l2.759,7.152Z" transform="translate(-7022.078 -512.733)"/>
        <path id="路径_9172" data-name="路径 9172" d="M7062.227,516.2a2.3,2.3,0,0,1,2.317,2.318V521.1a2.245,2.245,0,0,1-.674,1.634,2.217,2.217,0,0,1-1.643.683h-6.181v.794a1.357,1.357,0,0,0,1.347,1.346h6.886v2.361h-8.057a3.616,3.616,0,0,1-1.864-.5,3.682,3.682,0,0,1-1.346-1.345,3.623,3.623,0,0,1-.5-1.866v-4.3a3.622,3.622,0,0,1,.5-1.865,3.7,3.7,0,0,1,1.346-1.346,3.626,3.626,0,0,1,1.864-.5Zm-1.512,4.58a.9.9,0,0,0,.275-.651v-.641a.939.939,0,0,0-.926-.926h-2.671a1.355,1.355,0,0,0-1.347,1.345v1.149h4.018A.892.892,0,0,0,7060.715,520.777Z" transform="translate(-7023.273 -512.733)"/>
        <path id="路径_9173" data-name="路径 9173" d="M7075.943,527.916v-7.57a1.771,1.771,0,0,0-1.789-1.787h-1.368a1.769,1.769,0,0,0-1.788,1.787v7.57h-3.532V519.64a3.357,3.357,0,0,1,.464-1.721,3.44,3.44,0,0,1,1.259-1.258,3.352,3.352,0,0,1,1.721-.463h5.12a3.4,3.4,0,0,1,1.744.463,3.436,3.436,0,0,1,1.257,1.258,3.361,3.361,0,0,1,.463,1.721v8.276Z" transform="translate(-7024.475 -512.733)"/>
        <path id="路径_9174" data-name="路径 9174" d="M7086.73,523.907a1.359,1.359,0,0,0,1.347,1.346h1.611v2.362h-2.8a3.592,3.592,0,0,1-1.778-.463,3.838,3.838,0,0,1-1.345-1.248,3.514,3.514,0,0,1-.585-1.732v-5.914H7081.7V515.9h1.479v-3.443h3.553V515.9h2.958v2.362h-2.958Z" transform="translate(-7025.62 -512.432)"/>
      </g>
    </g>
    <g id="Input" transform="translate(7033.919 640.165)" style="isolation: isolate">
      <g id="组_3597" data-name="组 3597" style="isolation: isolate">
        <path id="路径_9175" data-name="路径 9175" d="M7066.565,666.54h-3.531V651.334h3.531Z" transform="translate(-7063.034 -651.334)"/>
        <path id="路径_9176" data-name="路径 9176" d="M7077.413,666.845v-7.57a1.771,1.771,0,0,0-1.788-1.788h-1.367a1.773,1.773,0,0,0-1.79,1.788v7.57h-3.53v-8.276a3.355,3.355,0,0,1,.462-1.721,3.436,3.436,0,0,1,1.26-1.258,3.353,3.353,0,0,1,1.721-.464h5.12a3.45,3.45,0,0,1,3,1.721,3.361,3.361,0,0,1,.463,1.721v8.276Z" transform="translate(-7063.509 -651.639)"/>
        <path id="路径_9177" data-name="路径 9177" d="M7095.72,655.536a2.883,2.883,0,0,1,1.049,1.048,2.8,2.8,0,0,1,.386,1.435v5.958a2.807,2.807,0,0,1-.386,1.435,2.881,2.881,0,0,1-1.049,1.047,2.8,2.8,0,0,1-1.435.386h-3.554a7.452,7.452,0,0,1-3.288-.795v4.26h-3.553V655.15h3.553v.772a7.8,7.8,0,0,1,3.268-.772h3.574A2.8,2.8,0,0,1,7095.72,655.536Zm-2.1,3.741a1.738,1.738,0,0,0-.52-1.257,1.68,1.68,0,0,0-1.246-.531h-1.127a7.84,7.84,0,0,0-3.288.773v5.451a7.437,7.437,0,0,0,3.288.772h1.127a1.7,1.7,0,0,0,1.246-.519,1.731,1.731,0,0,0,.52-1.269Z" transform="translate(-7064.711 -651.641)"/>
        <path id="路径_9178" data-name="路径 9178" d="M7103.716,655.126v7.57a1.773,1.773,0,0,0,1.789,1.788h1.39a1.7,1.7,0,0,0,1.248-.519,1.729,1.729,0,0,0,.518-1.269v-7.57h3.555V663.4a3.361,3.361,0,0,1-.463,1.721,3.443,3.443,0,0,1-1.258,1.258,3.4,3.4,0,0,1-1.744.463h-5.12a3.353,3.353,0,0,1-1.721-.463,3.435,3.435,0,0,1-1.259-1.258,3.365,3.365,0,0,1-.462-1.721v-8.276Z" transform="translate(-7066.021 -651.639)"/>
        <path id="路径_9179" data-name="路径 9179" d="M7119.449,662.836a1.356,1.356,0,0,0,1.347,1.346h1.61v2.362h-2.8a3.578,3.578,0,0,1-1.776-.463,3.836,3.836,0,0,1-1.346-1.247,3.54,3.54,0,0,1-.585-1.732v-5.915h-1.479v-2.361h1.479v-3.443h3.554v3.443h2.958v2.361h-2.958Z" transform="translate(-7067.166 -651.338)"/>
      </g>
    </g>
    <g id="Maintain" transform="translate(6794.31 843.894)" style="isolation: isolate">
      <g id="组_3598" data-name="组 3598" style="isolation: isolate">
        <path id="路径_9180" data-name="路径 9180" d="M6815.559,872.878h3.554v15.206h-3.554V878.2l-2.934,4.458h-3.511l-3.088-4.568v10h-3.553V872.878h3.553l4.833,7.129Z" transform="translate(-6802.472 -872.878)"/>
        <path id="路径_9181" data-name="路径 9181" d="M6835.871,876.67v11.719h-3.531v-.618a8.936,8.936,0,0,1-3.266.618h-3.6a2.793,2.793,0,0,1-1.435-.386,2.871,2.871,0,0,1-1.049-1.048,2.8,2.8,0,0,1-.386-1.435v-5.981a2.8,2.8,0,0,1,.386-1.435,2.871,2.871,0,0,1,1.049-1.048,2.8,2.8,0,0,1,1.435-.386h3.575a9.132,9.132,0,0,1,3.288.618v-.618Zm-3.531,8.74v-5.76a8.99,8.99,0,0,0-3.288-.618h-1.125a1.773,1.773,0,0,0-1.789,1.788v3.421a1.773,1.773,0,0,0,1.789,1.788h1.125A8.99,8.99,0,0,0,6832.34,885.41Z" transform="translate(-6804.091 -873.183)"/>
        <path id="路径_9182" data-name="路径 9182" d="M6839.239,872.926h3.532v3.443h-3.532Zm0,4.326h3.532v10.836h-3.532Z" transform="translate(-6805.429 -872.882)"/>
        <path id="路径_9183" data-name="路径 9183" d="M6853.762,888.389v-7.57a1.771,1.771,0,0,0-1.788-1.788h-1.368a1.771,1.771,0,0,0-1.788,1.788v7.57h-3.531v-8.276a3.356,3.356,0,0,1,.463-1.721,3.439,3.439,0,0,1,1.258-1.258,3.352,3.352,0,0,1,1.721-.464h5.121a3.4,3.4,0,0,1,1.743.464,3.442,3.442,0,0,1,1.258,1.258,3.352,3.352,0,0,1,.464,1.721v8.276Z" transform="translate(-6805.915 -873.183)"/>
        <path id="路径_9184" data-name="路径 9184" d="M6864.55,884.38a1.359,1.359,0,0,0,1.348,1.346h1.611v2.362h-2.8a3.577,3.577,0,0,1-1.776-.464,3.839,3.839,0,0,1-1.346-1.247,3.53,3.53,0,0,1-.585-1.733V878.73h-1.479v-2.361H6861v-3.443h3.552v3.443h2.959v2.361h-2.959Z" transform="translate(-6807.059 -872.882)"/>
        <path id="路径_9185" data-name="路径 9185" d="M6882.623,876.67v11.719h-3.532v-.618a8.935,8.935,0,0,1-3.265.618h-3.6a2.8,2.8,0,0,1-1.436-.386,2.876,2.876,0,0,1-1.048-1.048,2.8,2.8,0,0,1-.386-1.435v-5.981a2.8,2.8,0,0,1,.386-1.435,2.875,2.875,0,0,1,1.048-1.048,2.807,2.807,0,0,1,1.436-.386h3.575a9.132,9.132,0,0,1,3.288.618v-.618Zm-3.532,8.74v-5.76a8.99,8.99,0,0,0-3.288-.618h-1.125a1.771,1.771,0,0,0-1.788,1.788v3.421a1.771,1.771,0,0,0,1.788,1.788h1.125A8.99,8.99,0,0,0,6879.091,885.41Z" transform="translate(-6807.851 -873.183)"/>
        <path id="路径_9186" data-name="路径 9186" d="M6885.99,872.926h3.531v3.443h-3.531Zm0,4.326h3.531v10.836h-3.531Z" transform="translate(-6809.188 -872.882)"/>
        <path id="路径_9187" data-name="路径 9187" d="M6900.513,888.389v-7.57a1.773,1.773,0,0,0-1.787-1.788h-1.369a1.769,1.769,0,0,0-1.788,1.788v7.57h-3.531v-8.276a3.356,3.356,0,0,1,.463-1.721,3.439,3.439,0,0,1,1.258-1.258,3.352,3.352,0,0,1,1.721-.464h5.121a3.4,3.4,0,0,1,1.743.464,3.445,3.445,0,0,1,1.258,1.258,3.352,3.352,0,0,1,.464,1.721v8.276Z" transform="translate(-6809.674 -873.183)"/>
      </g>
    </g>
    <g id="Output" transform="translate(7040.35 1029.096)" style="isolation: isolate">
      <g id="组_3599" data-name="组 3599" style="isolation: isolate">
        <path id="路径_9188" data-name="路径 9188" d="M7070.49,1076a3.452,3.452,0,0,1,1.259-1.258,3.36,3.36,0,0,1,1.721-.463h7.659a3.4,3.4,0,0,1,1.744.463,3.439,3.439,0,0,1,1.257,1.258,3.354,3.354,0,0,1,.465,1.722v8.276a3.449,3.449,0,0,1-3.465,3.464h-7.659a3.308,3.308,0,0,1-1.721-.474,3.549,3.549,0,0,1-1.259-1.27,3.356,3.356,0,0,1-.463-1.721v-8.276A3.357,3.357,0,0,1,7070.49,1076Zm10.031,10.561a1.7,1.7,0,0,0,.52-1.247v-6.886a1.723,1.723,0,0,0-.52-1.269,1.7,1.7,0,0,0-1.246-.519h-3.927a1.771,1.771,0,0,0-1.789,1.788v6.886a1.7,1.7,0,0,0,.519,1.247,1.726,1.726,0,0,0,1.27.519h3.927A1.7,1.7,0,0,0,7080.521,1086.556Z" transform="translate(-7070.027 -1074.274)"/>
        <path id="路径_9189" data-name="路径 9189" d="M7091.318,1078.042v7.57a1.771,1.771,0,0,0,1.789,1.788h1.391a1.7,1.7,0,0,0,1.246-.519,1.727,1.727,0,0,0,.52-1.269v-7.57h3.553v8.276a3.356,3.356,0,0,1-.464,1.721,3.439,3.439,0,0,1-1.257,1.258,3.4,3.4,0,0,1-1.744.464h-5.122a3.35,3.35,0,0,1-1.72-.464,3.436,3.436,0,0,1-1.259-1.258,3.356,3.356,0,0,1-.463-1.721v-8.276Z" transform="translate(-7071.455 -1074.577)"/>
        <path id="路径_9190" data-name="路径 9190" d="M7107.051,1085.752a1.358,1.358,0,0,0,1.346,1.346h1.611v2.361h-2.8a3.579,3.579,0,0,1-1.777-.464,3.829,3.829,0,0,1-1.345-1.247,3.532,3.532,0,0,1-.586-1.733V1080.1h-1.478v-2.361h1.478V1074.3h3.554v3.443h2.957v2.361h-2.957Z" transform="translate(-7072.6 -1074.276)"/>
        <path id="路径_9191" data-name="路径 9191" d="M7123.688,1078.452a2.875,2.875,0,0,1,1.048,1.048,2.8,2.8,0,0,1,.387,1.436v5.958a2.8,2.8,0,0,1-.387,1.436,2.871,2.871,0,0,1-1.048,1.047,2.8,2.8,0,0,1-1.435.386H7118.7a7.448,7.448,0,0,1-3.288-.795v4.26h-3.553v-15.162h3.553v.772a7.792,7.792,0,0,1,3.266-.772h3.576A2.8,2.8,0,0,1,7123.688,1078.452Zm-2.1,3.741a1.736,1.736,0,0,0-.519-1.257,1.68,1.68,0,0,0-1.247-.531H7118.7a7.836,7.836,0,0,0-3.288.772v5.451a7.433,7.433,0,0,0,3.288.772h1.126a1.7,1.7,0,0,0,1.247-.519,1.729,1.729,0,0,0,.519-1.269Z" transform="translate(-7073.391 -1074.579)"/>
        <path id="路径_9192" data-name="路径 9192" d="M7131.686,1078.042v7.57a1.773,1.773,0,0,0,1.788,1.788h1.391a1.7,1.7,0,0,0,1.247-.519,1.726,1.726,0,0,0,.519-1.269v-7.57h3.552v8.276a3.356,3.356,0,0,1-.463,1.721,3.446,3.446,0,0,1-3,1.722H7131.6a3.356,3.356,0,0,1-1.72-.464,3.44,3.44,0,0,1-1.259-1.258,3.351,3.351,0,0,1-.464-1.721v-8.276Z" transform="translate(-7074.701 -1074.577)"/>
        <path id="路径_9193" data-name="路径 9193" d="M7147.418,1085.752a1.359,1.359,0,0,0,1.346,1.346h1.611v2.361h-2.8a3.574,3.574,0,0,1-1.776-.464,3.826,3.826,0,0,1-1.346-1.247,3.532,3.532,0,0,1-.586-1.733V1080.1h-1.478v-2.361h1.478V1074.3h3.553v3.443h2.958v2.361h-2.958Z" transform="translate(-7075.845 -1074.276)"/>
      </g>
    </g>
    <g id="直线_490" data-name="直线 490" transform="translate(7025.271 545.937)">
      <rect id="矩形_2016" data-name="矩形 2016" width="2.759" height="208.916" transform="translate(0 0)"/>
    </g>
    <g id="路径_3439" data-name="路径 3439" transform="translate(7018.002 745.96)">
      <path id="路径_9194" data-name="路径 9194" d="M7054.409,777.229l-8.685-9.617,1.365-1.232,7.314,8.1,7.253-8.1,1.37,1.227Z" transform="translate(-7045.725 -766.38)"/>
    </g>
    <g id="直线_491" data-name="直线 491" transform="translate(7025.271 952.562)">
      <rect id="矩形_2017" data-name="矩形 2017" width="2.759" height="174.553" transform="translate(0 0.005) rotate(-0.101)"/>
    </g>
    <g id="路径_3440" data-name="路径 3440" transform="translate(7018.309 1119.023)">
      <path id="路径_9195" data-name="路径 9195" d="M7054.743,1182.914l-8.685-9.617,1.365-1.232,7.314,8.1,7.253-8.1,1.37,1.227Z" transform="translate(-7046.059 -1172.064)"/>
    </g>
    <g id="Initialize" transform="translate(7171.689 844.155)" style="isolation: isolate">
      <g id="组_3600" data-name="组 3600" style="isolation: isolate">
        <path id="路径_9196" data-name="路径 9196" d="M7216.381,888.368h-3.53V873.162h3.53Z" transform="translate(-7212.851 -873.162)"/>
        <path id="路径_9197" data-name="路径 9197" d="M7227.23,888.673V881.1a1.773,1.773,0,0,0-1.789-1.788h-1.367a1.772,1.772,0,0,0-1.789,1.788v7.57h-3.531V880.4a3.356,3.356,0,0,1,.463-1.722,3.441,3.441,0,0,1,1.259-1.258,3.355,3.355,0,0,1,1.721-.464h5.12a3.4,3.4,0,0,1,1.745.464,3.437,3.437,0,0,1,1.257,1.258,3.361,3.361,0,0,1,.463,1.722v8.276Z" transform="translate(-7213.326 -873.467)"/>
        <path id="路径_9198" data-name="路径 9198" d="M7234.043,873.21h3.531v3.443h-3.531Zm0,4.326h3.531v10.836h-3.531Z" transform="translate(-7214.555 -873.166)"/>
        <path id="路径_9199" data-name="路径 9199" d="M7244.4,884.664a1.357,1.357,0,0,0,1.347,1.346h1.611v2.362h-2.8a3.576,3.576,0,0,1-1.776-.464,3.855,3.855,0,0,1-1.347-1.247,3.512,3.512,0,0,1-.583-1.733v-5.915h-1.479v-2.362h1.479V873.21h3.552v3.443h2.958v2.362H7244.4Z" transform="translate(-7214.983 -873.166)"/>
        <path id="路径_9200" data-name="路径 9200" d="M7249.546,873.21h3.532v3.443h-3.532Zm0,4.326h3.532v10.836h-3.532Z" transform="translate(-7215.802 -873.166)"/>
        <path id="路径_9201" data-name="路径 9201" d="M7268.858,876.954v11.719h-3.531v-.618a8.928,8.928,0,0,1-3.268.618h-3.6a2.787,2.787,0,0,1-1.435-.386,2.86,2.86,0,0,1-1.048-1.047,2.789,2.789,0,0,1-.386-1.436v-5.981a2.782,2.782,0,0,1,.386-1.434,2.851,2.851,0,0,1,1.048-1.049,2.8,2.8,0,0,1,1.435-.386h3.576a9.14,9.14,0,0,1,3.289.618v-.618Zm-3.531,8.74v-5.76a9,9,0,0,0-3.289-.618h-1.126a1.771,1.771,0,0,0-1.787,1.788v3.422a1.771,1.771,0,0,0,1.787,1.787h1.126A9,9,0,0,0,7265.327,885.694Z" transform="translate(-7216.288 -873.467)"/>
        <path id="路径_9202" data-name="路径 9202" d="M7275.779,888.372h-3.554V873.21h3.554Z" transform="translate(-7217.625 -873.166)"/>
        <path id="路径_9203" data-name="路径 9203" d="M7278.633,873.21h3.531v3.443h-3.531Zm0,4.326h3.531v10.836h-3.531Z" transform="translate(-7218.141 -873.166)"/>
        <path id="路径_9204" data-name="路径 9204" d="M7296.374,876.954v2.361l-5.827,7h5.827v2.361h-12.028v-2.361h1.962l5.826-7h-7.789v-2.361Z" transform="translate(-7218.6 -873.467)"/>
        <path id="路径_9205" data-name="路径 9205" d="M7308.672,876.954a2.3,2.3,0,0,1,2.317,2.318v2.581a2.25,2.25,0,0,1-.673,1.634,2.221,2.221,0,0,1-1.645.683h-6.18v.795a1.355,1.355,0,0,0,1.347,1.346h6.885v2.361h-8.056a3.616,3.616,0,0,1-1.864-.5,3.684,3.684,0,0,1-1.347-1.346,3.643,3.643,0,0,1-.5-1.865v-4.3a3.645,3.645,0,0,1,.5-1.865,3.7,3.7,0,0,1,1.347-1.346,3.626,3.626,0,0,1,1.864-.5Zm-1.512,4.58a.9.9,0,0,0,.275-.651v-.641a.941.941,0,0,0-.927-.927h-2.669a1.355,1.355,0,0,0-1.347,1.346v1.148h4.016A.893.893,0,0,0,7307.16,881.534Z" transform="translate(-7219.775 -873.467)"/>
      </g>
    </g>
    <g id="路径_3442" data-name="路径 3442" transform="translate(7155.24 664.148)">
      <rect id="矩形_2018" data-name="矩形 2018" width="2.759" height="387.091"/>
    </g>
    <g id="路径_3441" data-name="路径 3441" transform="translate(7102.367 845.345)">
      <path id="路径_9206" data-name="路径 9206" d="M7147.083,891.763l-9.616-8.689,9.62-8.618,1.227,1.37-8.1,7.253,8.1,7.319Z" transform="translate(-7137.467 -874.456)"/>
    </g>
    <g id="直线_493" data-name="直线 493" transform="translate(7155.696 664.104)">
      <rect id="矩形_2019" data-name="矩形 2019" width="2.759" height="54.716" transform="matrix(0.002, -1, 1, 0.002, 0, 2.759)"/>
    </g>
    <g id="直线_494" data-name="直线 494" transform="translate(7155.699 1048.493)">
      <rect id="矩形_2020" data-name="矩形 2020" width="54.716" height="2.759"/>
    </g>
    <g id="直线_495" data-name="直线 495" transform="translate(7104.662 852.62)">
      <rect id="矩形_2021" data-name="矩形 2021" width="51.037" height="2.759"/>
    </g>
    <g id="路径_3443" data-name="路径 3443" transform="translate(6900.527 664.243)">
      <rect id="矩形_2022" data-name="矩形 2022" width="2.759" height="388.334"/>
    </g>
    <g id="路径_3444" data-name="路径 3444" transform="translate(6843.962 1042.583)">
      <path id="路径_9207" data-name="路径 9207" d="M6866.084,1106.248l-9.617-8.689,9.62-8.618,1.227,1.37-8.1,7.254,8.1,7.318Z" transform="translate(-6856.467 -1088.941)"/>
    </g>
    <g id="直线_496" data-name="直线 496" transform="translate(6900.97 852.62)">
      <rect id="矩形_2023" data-name="矩形 2023" width="2.759" height="50.118" transform="translate(0 2.759) rotate(-89.903)"/>
    </g>
    <g id="直线_497" data-name="直线 497" transform="translate(6847.184 1049.859)">
      <rect id="矩形_2024" data-name="矩形 2024" width="54.716" height="2.759"/>
    </g>
    <g id="直线_498" data-name="直线 498" transform="translate(6845.359 664.126)">
      <rect id="矩形_2025" data-name="矩形 2025" width="56.555" height="2.759"/>
    </g>
    <g id="路径_3445" data-name="路径 3445" transform="translate(6843.984 656.829)">
      <path id="路径_9208" data-name="路径 9208" d="M6866.106,686.762l-9.616-8.689,9.62-8.618,1.227,1.37-8.1,7.253,8.1,7.319Z" transform="translate(-6856.49 -669.455)"/>
    </g>
    <g id="路径_3453" data-name="路径 3453" transform="translate(6785.737 1341.89)">
      <rect id="矩形_2026" data-name="矩形 2026" width="475.579" height="2.759"/>
    </g>
    <g id="直线_500" data-name="直线 500" transform="translate(7025.577 1282.068)">
      <rect id="矩形_2027" data-name="矩形 2027" width="2.759" height="61.153"/>
    </g>
    <g id="直线_501" data-name="直线 501" transform="translate(7259.938 1343.217)">
      <rect id="矩形_2028" data-name="矩形 2028" width="57.934" height="2.759" transform="matrix(0.003, -1, 1, 0.003, 0, 57.934)"/>
    </g>
    <g id="路径_3446" data-name="路径 3446" transform="translate(7252.668 1392.988)">
      <path id="路径_9209" data-name="路径 9209" d="M7309.6,1480.836l-8.686-9.617,1.365-1.232,7.315,8.1,7.252-8.1,1.37,1.227Z" transform="translate(-7300.911 -1469.986)"/>
    </g>
    <g id="组_3617" data-name="组 3617" transform="translate(6713.892 1413.462)">
      <g id="组_3604" data-name="组 3604" transform="translate(478.995 0.46)">
        <g id="矩形_3093" data-name="矩形 3093">
          <g id="组_3601" data-name="组 3601" transform="translate(0)">
            <rect id="矩形_2029" data-name="矩形 2029" width="147.134" height="56.095" rx="10" fill="#fff"/>
          </g>
          <g id="组_3602" data-name="组 3602">
            <path id="路径_9210" data-name="路径 9210" d="M7373.84,1548.845H7245.1a9.207,9.207,0,0,1-9.2-9.2v-37.7a9.207,9.207,0,0,1,9.2-9.2H7373.84a9.206,9.206,0,0,1,9.2,9.2v37.7A9.206,9.206,0,0,1,7373.84,1548.845ZM7245.1,1495.509a6.446,6.446,0,0,0-6.437,6.437v37.7a6.446,6.446,0,0,0,6.437,6.437H7373.84a6.445,6.445,0,0,0,6.437-6.437v-37.7a6.445,6.445,0,0,0-6.437-6.437Z" transform="translate(-7235.902 -1492.75)" fill="#bd3454"/>
          </g>
        </g>
        <g id="Event-2" transform="translate(49.346 20.796)" style="isolation: isolate">
          <g id="组_3603" data-name="组 3603" style="isolation: isolate">
            <path id="路径_9211" data-name="路径 9211" d="M7293.279,1517.418a2.125,2.125,0,0,0-.777.77,2.053,2.053,0,0,0-.291,1.068v.91h8.276v1.771h-8.276v.91a2.051,2.051,0,0,0,.291,1.068,2.119,2.119,0,0,0,.777.77,2.077,2.077,0,0,0,1.052.281h6.157v1.788h-7.035a3.75,3.75,0,0,1-1.952-.53,3.929,3.929,0,0,1-1.416-1.423,3.8,3.8,0,0,1-.522-1.953v-3.592a3.8,3.8,0,0,1,.522-1.953,3.865,3.865,0,0,1,1.416-1.415,3.8,3.8,0,0,1,1.952-.521h7.035v1.771h-6.157A2.085,2.085,0,0,0,7293.279,1517.418Z" transform="translate(-7289.563 -1515.365)"/>
            <path id="路径_9212" data-name="路径 9212" d="M7309.125,1518.191h2.664l-3.46,8.789h-2.665l-3.393-8.789h2.666l2.069,5.363Z" transform="translate(-7290.585 -1515.592)"/>
            <path id="路径_9213" data-name="路径 9213" d="M7320.7,1518.191a1.726,1.726,0,0,1,1.738,1.738v1.938a1.682,1.682,0,0,1-.506,1.224,1.658,1.658,0,0,1-1.232.513h-4.636v.6a1.018,1.018,0,0,0,1.011,1.01h5.164v1.771h-6.042a2.724,2.724,0,0,1-1.4-.372,2.767,2.767,0,0,1-1.01-1.01,2.728,2.728,0,0,1-.372-1.4v-3.228a2.729,2.729,0,0,1,.372-1.4,2.769,2.769,0,0,1,1.01-1.01,2.725,2.725,0,0,1,1.4-.372Zm-1.134,3.435a.67.67,0,0,0,.206-.487v-.481a.705.705,0,0,0-.7-.7h-2a1.018,1.018,0,0,0-1.011,1.01v.861h3.012A.672.672,0,0,0,7319.563,1521.626Z" transform="translate(-7291.481 -1515.592)"/>
            <path id="路径_9214" data-name="路径 9214" d="M7330.983,1526.98V1521.3a1.328,1.328,0,0,0-1.341-1.341h-1.026a1.328,1.328,0,0,0-1.34,1.341v5.678h-2.649v-6.207a2.521,2.521,0,0,1,.348-1.291,2.586,2.586,0,0,1,.942-.943,2.524,2.524,0,0,1,1.292-.348h3.839a2.548,2.548,0,0,1,1.308.348,2.578,2.578,0,0,1,.943.943,2.508,2.508,0,0,1,.349,1.291v6.207Z" transform="translate(-7292.382 -1515.592)"/>
            <path id="路径_9215" data-name="路径 9215" d="M7339.074,1523.974a1.019,1.019,0,0,0,1.01,1.01h1.208v1.771h-2.1a2.679,2.679,0,0,1-1.332-.348,2.877,2.877,0,0,1-1.01-.935,2.64,2.64,0,0,1-.439-1.3v-4.436H7335.3v-1.771h1.109v-2.582h2.664v2.582h2.218v1.771h-2.218Z" transform="translate(-7293.241 -1515.366)"/>
          </g>
        </g>
      </g>
      <g id="组_3608" data-name="组 3608" transform="translate(319.637)">
        <g id="矩形_3094" data-name="矩形 3094">
          <g id="组_3605" data-name="组 3605">
            <rect id="矩形_2030" data-name="矩形 2030" width="146.215" height="56.095" rx="10" fill="#fff"/>
          </g>
          <g id="组_3606" data-name="组 3606">
            <path id="路径_9216" data-name="路径 9216" d="M7199.628,1548.345H7071.8a9.207,9.207,0,0,1-9.2-9.2v-37.7a9.207,9.207,0,0,1,9.2-9.2h127.823a9.206,9.206,0,0,1,9.2,9.2v37.7A9.206,9.206,0,0,1,7199.628,1548.345ZM7071.8,1495.009a6.446,6.446,0,0,0-6.437,6.437v37.7a6.446,6.446,0,0,0,6.437,6.437h127.823a6.445,6.445,0,0,0,6.437-6.437v-37.7a6.445,6.445,0,0,0-6.437-6.437Z" transform="translate(-7062.609 -1492.25)" fill="#bd3454"/>
          </g>
        </g>
        <g id="State" transform="translate(50.579 21.716)" style="isolation: isolate">
          <g id="组_3607" data-name="组 3607" style="isolation: isolate">
            <path id="路径_9217" data-name="路径 9217" d="M7126.88,1521.046a3.341,3.341,0,0,1,1.21,1.208,3.348,3.348,0,0,1,0,3.344,3.34,3.34,0,0,1-1.21,1.208,3.2,3.2,0,0,1-1.653.447h-7.152v-1.788h6.258a1.514,1.514,0,0,0,1.1-.447,1.541,1.541,0,0,0,0-2.185,1.513,1.513,0,0,0-1.1-.447h-3.459a3.173,3.173,0,0,1-1.64-.439,3.269,3.269,0,0,1-1.184-1.192,3.259,3.259,0,0,1,0-3.269,3.289,3.289,0,0,1,1.184-1.184,3.174,3.174,0,0,1,1.64-.439h7v1.771h-6.124a1.5,1.5,0,0,0-1.488,1.49,1.4,1.4,0,0,0,.438,1.043,1.444,1.444,0,0,0,1.05.43h3.478A3.2,3.2,0,0,1,7126.88,1521.046Z" transform="translate(-7117.61 -1515.865)"/>
            <path id="路径_9218" data-name="路径 9218" d="M7134.04,1524.474a1.016,1.016,0,0,0,1.009,1.01h1.208v1.771h-2.1a2.68,2.68,0,0,1-1.333-.348,2.873,2.873,0,0,1-1.009-.935,2.635,2.635,0,0,1-.438-1.3v-4.436h-1.109v-1.771h1.109v-2.582h2.664v2.582h2.217v1.771h-2.217Z" transform="translate(-7118.628 -1515.866)"/>
            <path id="路径_9219" data-name="路径 9219" d="M7147.593,1518.691v8.789h-2.647v-.464a6.71,6.71,0,0,1-2.45.464h-2.7a2.09,2.09,0,0,1-1.076-.29,2.138,2.138,0,0,1-.785-.786,2.091,2.091,0,0,1-.29-1.076v-4.486a2.091,2.091,0,0,1,.29-1.076,2.144,2.144,0,0,1,.785-.786,2.1,2.1,0,0,1,1.076-.29h2.681a6.846,6.846,0,0,1,2.468.463v-.463Zm-2.647,6.555v-4.32a6.76,6.76,0,0,0-2.468-.464h-.844a1.329,1.329,0,0,0-1.341,1.341v2.566a1.329,1.329,0,0,0,1.341,1.341h.844A6.757,6.757,0,0,0,7144.946,1525.246Z" transform="translate(-7119.222 -1516.092)"/>
            <path id="路径_9220" data-name="路径 9220" d="M7153.1,1524.474a1.016,1.016,0,0,0,1.009,1.01h1.209v1.771h-2.1a2.694,2.694,0,0,1-1.334-.348,2.892,2.892,0,0,1-1.009-.935,2.644,2.644,0,0,1-.438-1.3v-4.436h-1.109v-1.771h1.109v-2.582h2.666v2.582h2.218v1.771H7153.1Z" transform="translate(-7120.161 -1515.866)"/>
            <path id="路径_9221" data-name="路径 9221" d="M7163.99,1518.691a1.726,1.726,0,0,1,1.739,1.738v1.938a1.687,1.687,0,0,1-.506,1.224,1.662,1.662,0,0,1-1.233.513h-4.635v.6a1.016,1.016,0,0,0,1.011,1.01h5.163v1.771h-6.042a2.723,2.723,0,0,1-1.4-.372,2.781,2.781,0,0,1-1.011-1.01,2.733,2.733,0,0,1-.371-1.4v-3.228a2.733,2.733,0,0,1,.371-1.4,2.783,2.783,0,0,1,1.011-1.01,2.724,2.724,0,0,1,1.4-.372Zm-1.133,3.435a.668.668,0,0,0,.207-.487v-.481a.706.706,0,0,0-.7-.7h-2a1.016,1.016,0,0,0-1.011,1.01v.861h3.012A.672.672,0,0,0,7162.857,1522.126Z" transform="translate(-7120.754 -1516.092)"/>
          </g>
        </g>
      </g>
      <g id="组_3612" data-name="组 3612" transform="translate(159.818)">
        <g id="矩形_3095" data-name="矩形 3095">
          <g id="组_3609" data-name="组 3609" transform="translate(0.001)">
            <rect id="矩形_2031" data-name="矩形 2031" width="146.215" height="56.095" rx="10" fill="#fff"/>
          </g>
          <g id="组_3610" data-name="组 3610">
            <path id="路径_9222" data-name="路径 9222" d="M7025.833,1548.345H6898.011a9.207,9.207,0,0,1-9.2-9.2v-37.7a9.207,9.207,0,0,1,9.2-9.2h127.823a9.206,9.206,0,0,1,9.2,9.2v37.7A9.206,9.206,0,0,1,7025.833,1548.345Zm-127.823-53.336a6.445,6.445,0,0,0-6.437,6.437v37.7a6.445,6.445,0,0,0,6.437,6.437h127.823a6.445,6.445,0,0,0,6.437-6.437v-37.7a6.445,6.445,0,0,0-6.437-6.437Z" transform="translate(-6888.815 -1492.25)" fill="#bd3454"/>
          </g>
        </g>
        <g id="Transactions" transform="translate(17.236 21.7)" style="isolation: isolate">
          <g id="组_3611" data-name="组 3611" style="isolation: isolate">
            <path id="路径_9223" data-name="路径 9223" d="M6918.5,1515.847v1.788h-4.138v9.617H6911.7v-9.617h-4.138v-1.788Z" transform="translate(-6907.558 -1515.847)"/>
            <path id="路径_9224" data-name="路径 9224" d="M6926.364,1520.462h-2.02a1.276,1.276,0,0,0-.935.389,1.3,1.3,0,0,0-.388.952v5.678h-2.666v-6.207a2.516,2.516,0,0,1,.348-1.291,2.577,2.577,0,0,1,.944-.943,2.515,2.515,0,0,1,1.291-.348h3.427Z" transform="translate(-6908.587 -1516.076)"/>
            <path id="路径_9225" data-name="路径 9225" d="M6937.648,1518.691v8.789H6935v-.464a6.7,6.7,0,0,1-2.45.464h-2.7a2.087,2.087,0,0,1-1.076-.29,2.157,2.157,0,0,1-.787-.786,2.11,2.11,0,0,1-.29-1.076v-4.486a2.11,2.11,0,0,1,.29-1.076,2.163,2.163,0,0,1,.787-.786,2.1,2.1,0,0,1,1.076-.29h2.682a6.834,6.834,0,0,1,2.466.463v-.463Zm-2.649,6.555v-4.32a6.752,6.752,0,0,0-2.466-.464h-.844a1.328,1.328,0,0,0-1.341,1.341v2.566a1.328,1.328,0,0,0,1.341,1.341h.844A6.75,6.75,0,0,0,6935,1525.246Z" transform="translate(-6909.178 -1516.076)"/>
            <path id="路径_9226" data-name="路径 9226" d="M6946.276,1527.48V1521.8a1.326,1.326,0,0,0-1.34-1.341h-1.026a1.33,1.33,0,0,0-1.341,1.341v5.678h-2.648v-6.207a2.521,2.521,0,0,1,.347-1.291,2.586,2.586,0,0,1,.943-.943,2.524,2.524,0,0,1,1.292-.348h3.839a2.547,2.547,0,0,1,1.308.348,2.575,2.575,0,0,1,.944.943,2.516,2.516,0,0,1,.347,1.291v6.207Z" transform="translate(-6910.161 -1516.076)"/>
            <path id="路径_9227" data-name="路径 9227" d="M6954.391,1520.462a.817.817,0,0,0-.612.257.86.86,0,0,0-.249.621.838.838,0,0,0,.249.6.817.817,0,0,0,.612.256h2.847a2.579,2.579,0,0,1,1.333.356,2.671,2.671,0,0,1,.959.96,2.581,2.581,0,0,1,.356,1.332,2.552,2.552,0,0,1-.356,1.316,2.672,2.672,0,0,1-.959.96,2.58,2.58,0,0,1-1.333.356h-6.026v-1.771h5.148a.847.847,0,0,0,.621-.257.829.829,0,0,0,.256-.6.876.876,0,0,0-.877-.877h-2.848a2.578,2.578,0,0,1-1.323-.356,2.636,2.636,0,0,1-.968-.96,2.546,2.546,0,0,1-.356-1.316,2.579,2.579,0,0,1,.356-1.333,2.643,2.643,0,0,1,.968-.96,2.586,2.586,0,0,1,1.323-.356h5.96v1.771Z" transform="translate(-6911.041 -1516.076)"/>
            <path id="路径_9228" data-name="路径 9228" d="M6971.757,1518.691v8.789h-2.649v-.464a6.7,6.7,0,0,1-2.45.464h-2.7a2.086,2.086,0,0,1-1.075-.29,2.158,2.158,0,0,1-.787-.786,2.109,2.109,0,0,1-.289-1.076v-4.486a2.109,2.109,0,0,1,.289-1.076,2.164,2.164,0,0,1,.787-.786,2.1,2.1,0,0,1,1.075-.29h2.682a6.832,6.832,0,0,1,2.466.463v-.463Zm-2.649,6.555v-4.32a6.75,6.75,0,0,0-2.466-.464h-.844a1.328,1.328,0,0,0-1.341,1.341v2.566a1.328,1.328,0,0,0,1.341,1.341h.844A6.748,6.748,0,0,0,6969.108,1525.246Z" transform="translate(-6911.92 -1516.076)"/>
            <path id="路径_9229" data-name="路径 9229" d="M6983.051,1527.48h-6.423a2.547,2.547,0,0,1-1.307-.348,2.579,2.579,0,0,1-.943-.943,2.547,2.547,0,0,1-.348-1.308v-3.592a2.548,2.548,0,0,1,.348-1.308,2.58,2.58,0,0,1,.943-.943,2.548,2.548,0,0,1,1.307-.348h6.423v1.771h-5.032a1.306,1.306,0,0,0-.944.389,1.285,1.285,0,0,0-.4.952v2.566a1.285,1.285,0,0,0,.4.952,1.305,1.305,0,0,0,.944.389h5.032Z" transform="translate(-6912.903 -1516.076)"/>
            <path id="路径_9230" data-name="路径 9230" d="M6988.479,1524.474a1.015,1.015,0,0,0,1.008,1.01h1.209v1.771h-2.1a2.691,2.691,0,0,1-1.333-.348,2.888,2.888,0,0,1-1.009-.935,2.635,2.635,0,0,1-.438-1.3v-4.436H6984.7v-1.771h1.109v-2.582h2.666v2.582h2.218v1.771h-2.218Z" transform="translate(-6913.762 -1515.85)"/>
            <path id="路径_9231" data-name="路径 9231" d="M6992.336,1515.883h2.648v2.582h-2.648Zm0,3.244h2.648v8.127h-2.648Z" transform="translate(-6914.375 -1515.85)"/>
            <path id="路径_9232" data-name="路径 9232" d="M7004.6,1519.039a2.588,2.588,0,0,1,.944.943,2.512,2.512,0,0,1,.348,1.291v3.625a2.512,2.512,0,0,1-.348,1.291,2.587,2.587,0,0,1-.944.943,2.544,2.544,0,0,1-1.308.348h-3.839a2.5,2.5,0,0,1-1.3-.348,2.586,2.586,0,0,1-.935-.943,2.517,2.517,0,0,1-.349-1.291v-3.625a2.517,2.517,0,0,1,.349-1.291,2.587,2.587,0,0,1,.935-.943,2.5,2.5,0,0,1,1.3-.348h3.839A2.545,2.545,0,0,1,7004.6,1519.039Zm-1.374,2.764a1.33,1.33,0,0,0-1.341-1.341h-1.026a1.326,1.326,0,0,0-1.34,1.341v2.566a1.326,1.326,0,0,0,1.34,1.341h1.026a1.329,1.329,0,0,0,1.341-1.341Z" transform="translate(-6914.74 -1516.076)"/>
            <path id="路径_9233" data-name="路径 9233" d="M7014.441,1527.48V1521.8a1.328,1.328,0,0,0-1.341-1.341h-1.025a1.33,1.33,0,0,0-1.342,1.341v5.678h-2.647v-6.207a2.516,2.516,0,0,1,.347-1.291,2.58,2.58,0,0,1,.943-.943,2.523,2.523,0,0,1,1.292-.348h3.84a2.551,2.551,0,0,1,1.308.348,2.579,2.579,0,0,1,.944.943,2.521,2.521,0,0,1,.348,1.291v6.207Z" transform="translate(-6915.642 -1516.076)"/>
            <path id="路径_9234" data-name="路径 9234" d="M7022.555,1520.462a.822.822,0,0,0-.613.257.866.866,0,0,0-.247.621.845.845,0,0,0,.247.6.822.822,0,0,0,.613.256h2.847a2.575,2.575,0,0,1,1.333.356,2.676,2.676,0,0,1,.96.96,2.577,2.577,0,0,1,.356,1.332,2.547,2.547,0,0,1-.356,1.316,2.677,2.677,0,0,1-.96.96,2.576,2.576,0,0,1-1.333.356h-6.025v-1.771h5.148a.845.845,0,0,0,.62-.257.827.827,0,0,0,.256-.6.876.876,0,0,0-.876-.877h-2.848a2.581,2.581,0,0,1-1.324-.356,2.648,2.648,0,0,1-.969-.96,2.55,2.55,0,0,1-.356-1.316,2.584,2.584,0,0,1,.356-1.333,2.655,2.655,0,0,1,.969-.96,2.59,2.59,0,0,1,1.324-.356h5.958v1.771Z" transform="translate(-6916.521 -1516.076)"/>
          </g>
        </g>
      </g>
      <g id="组_3616" data-name="组 3616">
        <g id="矩形_3092" data-name="矩形 3092">
          <g id="组_3613" data-name="组 3613" transform="translate(0)">
            <rect id="矩形_2032" data-name="矩形 2032" width="146.215" height="56.095" rx="10" fill="#fff"/>
          </g>
          <g id="组_3614" data-name="组 3614">
            <path id="路径_9235" data-name="路径 9235" d="M6852.041,1548.345H6724.218a9.207,9.207,0,0,1-9.2-9.2v-37.7a9.207,9.207,0,0,1,9.2-9.2h127.823a9.206,9.206,0,0,1,9.2,9.2v37.7A9.206,9.206,0,0,1,6852.041,1548.345Zm-127.823-53.336a6.446,6.446,0,0,0-6.437,6.437v37.7a6.446,6.446,0,0,0,6.438,6.437h127.823a6.445,6.445,0,0,0,6.437-6.437v-37.7a6.445,6.445,0,0,0-6.437-6.437Z" transform="translate(-6715.021 -1492.25)" fill="#bd3454"/>
          </g>
        </g>
        <g id="Messages-2" transform="translate(30.584 21.7)" style="isolation: isolate">
          <g id="组_3615" data-name="组 3615" style="isolation: isolate">
            <path id="路径_9236" data-name="路径 9236" d="M6758.1,1515.847h2.666v11.4H6758.1v-7.416l-2.2,3.344h-2.632l-2.316-3.427v7.5h-2.667v-11.4h2.667l3.624,5.346Z" transform="translate(-6748.281 -1515.847)"/>
            <path id="路径_9237" data-name="路径 9237" d="M6770.667,1518.691a1.722,1.722,0,0,1,1.738,1.738v1.938a1.689,1.689,0,0,1-.5,1.224,1.665,1.665,0,0,1-1.234.513h-4.634v.6a1.016,1.016,0,0,0,1.008,1.01h5.165v1.771h-6.042a2.718,2.718,0,0,1-1.4-.372,2.773,2.773,0,0,1-1.011-1.01,2.725,2.725,0,0,1-.373-1.4v-3.228a2.725,2.725,0,0,1,.373-1.4,2.775,2.775,0,0,1,1.011-1.01,2.719,2.719,0,0,1,1.4-.372Zm-1.134,3.435a.661.661,0,0,0,.207-.487v-.481a.707.707,0,0,0-.7-.7h-2a1.016,1.016,0,0,0-1.008,1.01v.861h3.011A.667.667,0,0,0,6769.532,1522.126Z" transform="translate(-6749.495 -1516.076)"/>
            <path id="路径_9238" data-name="路径 9238" d="M6777.852,1520.462a.818.818,0,0,0-.613.257.86.86,0,0,0-.247.621.839.839,0,0,0,.247.6.819.819,0,0,0,.613.256h2.847a2.571,2.571,0,0,1,1.333.356,2.668,2.668,0,0,1,.961.96,2.576,2.576,0,0,1,.356,1.332,2.547,2.547,0,0,1-.356,1.316,2.668,2.668,0,0,1-.961.96,2.572,2.572,0,0,1-1.333.356h-6.024v-1.771h5.148a.85.85,0,0,0,.621-.257.826.826,0,0,0,.255-.6.874.874,0,0,0-.876-.877h-2.847a2.579,2.579,0,0,1-1.324-.356,2.654,2.654,0,0,1-.97-.96,2.55,2.55,0,0,1-.355-1.316,2.583,2.583,0,0,1,.355-1.333,2.662,2.662,0,0,1,.97-.96,2.587,2.587,0,0,1,1.324-.356h5.958v1.771Z" transform="translate(-6750.375 -1516.076)"/>
            <path id="路径_9239" data-name="路径 9239" d="M6788.526,1520.462a.817.817,0,0,0-.612.257.86.86,0,0,0-.249.621.838.838,0,0,0,.249.6.818.818,0,0,0,.612.256h2.847a2.572,2.572,0,0,1,1.332.356,2.675,2.675,0,0,1,.961.96,2.572,2.572,0,0,1,.356,1.332,2.543,2.543,0,0,1-.356,1.316,2.676,2.676,0,0,1-.961.96,2.573,2.573,0,0,1-1.332.356h-6.024v-1.771h5.148a.844.844,0,0,0,.62-.257.824.824,0,0,0,.257-.6.876.876,0,0,0-.876-.877h-2.847a2.585,2.585,0,0,1-1.325-.356,2.658,2.658,0,0,1-.968-.96,2.546,2.546,0,0,1-.356-1.316,2.579,2.579,0,0,1,.356-1.333,2.665,2.665,0,0,1,.968-.96,2.593,2.593,0,0,1,1.325-.356h5.958v1.771Z" transform="translate(-6751.233 -1516.076)"/>
            <path id="路径_9240" data-name="路径 9240" d="M6805.892,1518.691v8.789h-2.647v-.464a6.71,6.71,0,0,1-2.45.464h-2.7a2.092,2.092,0,0,1-1.077-.29,2.138,2.138,0,0,1-.785-.786,2.092,2.092,0,0,1-.291-1.076v-4.486a2.092,2.092,0,0,1,.291-1.076,2.144,2.144,0,0,1,.785-.786,2.1,2.1,0,0,1,1.077-.29h2.681a6.849,6.849,0,0,1,2.467.463v-.463Zm-2.647,6.555v-4.32a6.759,6.759,0,0,0-2.467-.464h-.844a1.328,1.328,0,0,0-1.341,1.341v2.566a1.328,1.328,0,0,0,1.341,1.341h.844A6.757,6.757,0,0,0,6803.245,1525.246Z" transform="translate(-6752.113 -1516.076)"/>
            <path id="路径_9241" data-name="路径 9241" d="M6818.131,1518.691v8.607a2.72,2.72,0,0,1-.373,1.4,2.84,2.84,0,0,1-1.01,1.018,2.677,2.677,0,0,1-1.4.381h-6.8v-1.788h5.909a.99.99,0,0,0,.728-.3.97.97,0,0,0,.3-.712v-1.374a9.084,9.084,0,0,1-3.128.629h-2.036a2.1,2.1,0,0,1-1.076-.29,2.175,2.175,0,0,1-1.076-1.879v-3.542a2.105,2.105,0,0,1,.289-1.076,2.164,2.164,0,0,1,.787-.786,2.094,2.094,0,0,1,1.076-.29h2.019a9.57,9.57,0,0,1,3.146.612v-.612Zm-5.131,6.075a11.493,11.493,0,0,0,2.483-.728v-2.83a12.487,12.487,0,0,0-2.483-.745h-.844a1.3,1.3,0,0,0-.942.389,1.273,1.273,0,0,0-.4.952v1.622a1.274,1.274,0,0,0,.4.952,1.3,1.3,0,0,0,.942.389Z" transform="translate(-6753.096 -1516.076)"/>
            <path id="路径_9242" data-name="路径 9242" d="M6827.689,1518.691a1.726,1.726,0,0,1,1.739,1.738v1.938a1.685,1.685,0,0,1-.506,1.224,1.66,1.66,0,0,1-1.233.513h-4.635v.6a1.016,1.016,0,0,0,1.01,1.01h5.164v1.771h-6.042a2.721,2.721,0,0,1-1.4-.372,2.763,2.763,0,0,1-1.01-1.01,2.72,2.72,0,0,1-.373-1.4v-3.228a2.72,2.72,0,0,1,.373-1.4,2.765,2.765,0,0,1,1.01-1.01,2.722,2.722,0,0,1,1.4-.372Zm-1.133,3.435a.667.667,0,0,0,.206-.487v-.481a.7.7,0,0,0-.694-.7h-2a1.016,1.016,0,0,0-1.01,1.01v.861h3.014A.671.671,0,0,0,6826.556,1522.126Z" transform="translate(-6754.081 -1516.076)"/>
            <path id="路径_9243" data-name="路径 9243" d="M6834.876,1520.462a.815.815,0,0,0-.612.257.86.86,0,0,0-.249.621.838.838,0,0,0,.249.6.815.815,0,0,0,.612.256h2.846a2.577,2.577,0,0,1,1.333.356,2.675,2.675,0,0,1,.959.96,2.582,2.582,0,0,1,.357,1.332,2.552,2.552,0,0,1-.357,1.316,2.676,2.676,0,0,1-.959.96,2.578,2.578,0,0,1-1.333.356H6831.7v-1.771h5.148a.843.843,0,0,0,.62-.257.823.823,0,0,0,.256-.6.876.876,0,0,0-.876-.877H6834a2.581,2.581,0,0,1-1.324-.356,2.658,2.658,0,0,1-.968-.96,2.554,2.554,0,0,1-.355-1.316,2.588,2.588,0,0,1,.355-1.333,2.665,2.665,0,0,1,.968-.96,2.59,2.59,0,0,1,1.324-.356h5.959v1.771Z" transform="translate(-6754.96 -1516.076)"/>
          </g>
        </g>
      </g>
    </g>
    <g id="路径_3448" data-name="路径 3448" transform="translate(6785.529 1341.979)">
      <rect id="矩形_2033" data-name="矩形 2033" width="60.551" height="2.759" transform="matrix(0.003, -1, 1, 0.003, 0, 60.551)"/>
    </g>
    <g id="路径_3447" data-name="路径 3447" transform="translate(6778.409 1393.06)">
      <path id="路径_9244" data-name="路径 9244" d="M6793.865,1480.914l-8.685-9.617,1.365-1.232,7.314,8.1,7.253-8.1,1.371,1.227Z" transform="translate(-6785.18 -1470.064)"/>
    </g>
    <g id="路径_3449" data-name="路径 3449" transform="translate(6949.561 1341.979)">
      <rect id="矩形_2034" data-name="矩形 2034" width="60.551" height="2.759" transform="matrix(0.003, -1, 1, 0.003, 0, 60.551)"/>
    </g>
    <g id="路径_3450" data-name="路径 3450" transform="translate(6942.44 1393.06)">
      <path id="路径_9245" data-name="路径 9245" d="M6972.241,1480.914l-8.686-9.617,1.365-1.232,7.315,8.1,7.252-8.1,1.371,1.227Z" transform="translate(-6963.556 -1470.064)"/>
    </g>
    <g id="路径_3451" data-name="路径 3451" transform="translate(7099.913 1341.908)">
      <rect id="矩形_2035" data-name="矩形 2035" width="60.55" height="2.759" transform="matrix(0.003, -1, 1, 0.003, 0, 60.55)"/>
    </g>
    <g id="路径_3452" data-name="路径 3452" transform="translate(7092.793 1392.988)">
      <path id="路径_9246" data-name="路径 9246" d="M7135.741,1480.836l-8.686-9.617,1.365-1.232,7.315,8.1,7.253-8.1,1.37,1.227Z" transform="translate(-7127.056 -1469.986)"/>
    </g>
  </g>
</svg>
