<svg xmlns="http://www.w3.org/2000/svg" width="592.026" height="962.04" viewBox="0 0 592.026 962.04">
  <g transform="translate(-1447.886 460.196)">
    <g>
      <g>
        <g>
          <rect width="173.323" height="173.323" rx="86.661" transform="translate(1447.886 328.521)" fill="#2a2c36"/>
        </g>
        <g>
          <path d="M1534.548,500.995a85.813,85.813,0,1,1,85.811-85.813A85.91,85.91,0,0,1,1534.548,500.995Zm0-168.625a82.813,82.813,0,1,0,82.811,82.814v0A82.906,82.906,0,0,0,1534.548,332.37Z" fill="#bd3454"/>
        </g>
      </g>
      <g>
        <path d="M1464.432,415.246l-8.19,1.753-5.652,6.034,2.537-7.787-2.537-7.785,5.652,6.034Z" fill="#bd3454"/>
      </g>
      <g>
        <path d="M1605.629,416.156l8.066-1.752,5.56-6.038-2.506,7.79,2.506,7.79-5.56-6.037Z" fill="#bd3454"/>
      </g>
      <g>
        <path d="M1466.2,399.7l-8.373.01-6.783,4.726,4.1-7.088-.862-8.141,4.272,7.077Z" fill="#bd3454"/>
      </g>
      <g>
        <path d="M1604.334,429.063l8.374-.011,6.783-4.725-4.1,7.087.862,8.142-4.273-7.077Z" fill="#bd3454"/>
      </g>
      <g>
        <path d="M1465.976,429.925l-7.645,3.417-4.272,7.077.861-8.143-4.1-7.086,6.782,4.726Z" fill="#bd3454"/>
      </g>
      <g>
        <path d="M1604.106,400.568l7.644-3.418,4.273-7.077-.862,8.143,4.1,7.086-6.783-4.725Z" fill="#bd3454"/>
      </g>
      <g>
        <path d="M1486.423,466.826l-4.3,7.182.556,8.247-3.962-7.165-7.421-3.455,8.266-.016Z" fill="#bd3454"/>
      </g>
      <g>
        <path d="M1476.266,454.929l-5.7,6.136-1.166,8.186-2.391-7.834-6.547-4.919,8.093,1.7Z" fill="#bd3454"/>
      </g>
      <g>
        <path d="M1498.214,475.709l-2.715,7.923,2.261,7.952-5.368-6.185-7.98-1.835,8.084-1.737Z" fill="#bd3454"/>
      </g>
      <g>
        <path d="M1486.427,364.531l-6.867-4.794-8.268-.018,7.425-3.455,3.964-7.165-.559,8.249Z" fill="#bd3454"/>
      </g>
      <g>
        <path d="M1476.26,376.427l-7.713-3.265-8.093,1.7,6.548-4.921,2.391-7.833,1.165,8.187Z" fill="#bd3454"/>
      </g>
      <g>
        <path d="M1498.214,355.65l-5.72-6.117-8.083-1.737,7.981-1.836,5.367-6.184-2.262,7.952Z" fill="#bd3454"/>
      </g>
      <g>
        <path d="M1583,364.532l4.3-7.185-.559-8.249,3.965,7.166,7.424,3.454-8.268.019Z" fill="#bd3454"/>
      </g>
      <g>
        <path d="M1593.162,376.43l5.7-6.136,1.165-8.187,2.392,7.834,6.546,4.92-8.093-1.7Z" fill="#bd3454"/>
      </g>
      <g>
        <path d="M1571.216,355.649l2.715-7.922-2.261-7.953,5.368,6.185,7.98,1.835-8.084,1.737Z" fill="#bd3454"/>
      </g>
      <g>
        <path d="M1583.005,466.826l6.866,4.794,8.268.018-7.425,3.455-3.963,7.165.558-8.249Z" fill="#bd3454"/>
      </g>
      <g>
        <path d="M1593.17,454.931l7.713,3.265,8.092-1.7-6.547,4.921-2.391,7.832-1.165-8.186Z" fill="#bd3454"/>
      </g>
      <g>
        <path d="M1571.215,475.709l5.72,6.117,8.082,1.737-7.979,1.835-5.367,6.185,2.261-7.953Z" fill="#bd3454"/>
      </g>
      <g>
        <path d="M1533.995,485.92l1.753,8.189,6.034,5.652-7.787-2.537-7.785,2.537,6.034-5.652Z" fill="#bd3454"/>
      </g>
      <g>
        <path d="M1520.178,484.605l.011,8.373,4.726,6.783-7.088-4.1-8.141.862,7.077-4.273Z" fill="#bd3454"/>
      </g>
      <g>
        <path d="M1548.675,484.378l3.418,7.644,7.077,4.273-8.143-.862-7.086,4.1,4.725-6.783Z" fill="#bd3454"/>
      </g>
      <g>
        <path d="M1536.878,345.116l-1.752-8.19-6.034-5.652,7.786,2.539,7.786-2.539-6.035,5.652Z" fill="#bd3454"/>
      </g>
      <g>
        <path d="M1523.063,346.433l-3.418-7.645-7.075-4.273,8.142.864,7.086-4.1-4.726,6.783Z" fill="#bd3454"/>
      </g>
      <g>
        <path d="M1551.56,346.657l-.011-8.374-4.726-6.783,7.088,4.1,8.142-.864-7.077,4.273Z" fill="#bd3454"/>
      </g>
      <g>
        <g>
          <path d="M1611.472,416.156h0a75.95,75.95,0,0,1-75.95,75.95h0a75.95,75.95,0,0,1-75.95-75.95h0a75.95,75.95,0,0,1,75.95-75.95h0A75.95,75.95,0,0,1,1611.472,416.156Z" fill="none"/>
        </g>
        <g>
          <path d="M1535.522,491.823a75.667,75.667,0,1,1,75.667-75.667A75.753,75.753,0,0,1,1535.522,491.823Zm0-150.334a74.667,74.667,0,1,0,74.667,74.667A74.752,74.752,0,0,0,1535.522,341.489Z" fill="#bd3454"/>
        </g>
      </g>
    </g>
    <g>
      <g>
        <rect width="592.024" height="317.434" rx="158.716" transform="translate(1447.887 -460.196)" fill="#2a2c36"/>
      </g>
      <g>
        <path d="M1881.195-143.611H1606.6c-87.048,0-157.868-70.819-157.868-157.868s70.82-157.868,157.868-157.868h274.591c87.048,0,157.868,70.819,157.868,157.867S1968.243-143.611,1881.195-143.611ZM1606.6-456.347c-85.394,0-154.868,69.473-154.868,154.867S1521.21-146.611,1606.6-146.611h274.591c85.394,0,154.868-69.473,154.868-154.868h0c0-85.394-69.474-154.867-154.868-154.867Z" fill="#bd3454"/>
      </g>
    </g>
    <g>
      <g>
        <rect width="173.323" height="241.484" rx="15.661" transform="translate(1511.277 -29.817)" fill="#2a2c36"/>
      </g>
      <g>
        <path d="M1668.939,210.818h-142a14.829,14.829,0,0,1-14.812-14.812V-14.156a14.829,14.829,0,0,1,14.812-14.812h142a14.829,14.829,0,0,1,14.812,14.812V196.006A14.829,14.829,0,0,1,1668.939,210.818Zm-142-236.786a11.826,11.826,0,0,0-11.812,11.812V196.006a11.826,11.826,0,0,0,11.812,11.812h142a11.826,11.826,0,0,0,11.812-11.812V-14.156a11.826,11.826,0,0,0-11.812-11.812Z" fill="#bd3454"/>
      </g>
    </g>
    <g>
      <g>
        <rect width="173.323" height="241.484" rx="15.661" transform="translate(1809.73 193.636)" fill="#2a2c36"/>
      </g>
      <g>
        <path d="M1967.393,434.271h-142a14.829,14.829,0,0,1-14.813-14.812V209.3a14.829,14.829,0,0,1,14.813-14.812h142A14.828,14.828,0,0,1,1982.2,209.3V419.459A14.828,14.828,0,0,1,1967.393,434.271Zm-142-236.786a11.826,11.826,0,0,0-11.813,11.812V419.459a11.826,11.826,0,0,0,11.813,11.812h142a11.825,11.825,0,0,0,11.811-11.812V209.3a11.825,11.825,0,0,0-11.811-11.812Z" fill="#bd3454"/>
      </g>
    </g>
    <g>
      <g>
        <path d="M2038.937-5.043h0a85.687,85.687,0,0,1-85.688,85.687H1951.3a85.687,85.687,0,0,1-85.688-85.687h0A85.688,85.688,0,0,1,1951.3-90.731h1.947A85.688,85.688,0,0,1,2038.937-5.043Z" fill="#2a2c36"/>
      </g>
      <g>
        <path d="M1953.249,79.795H1951.3a84.934,84.934,0,0,1-84.839-84.838A84.934,84.934,0,0,1,1951.3-89.882h1.947a84.935,84.935,0,0,1,84.839,84.839A84.935,84.935,0,0,1,1953.249,79.795ZM1951.3-86.882a81.932,81.932,0,0,0-81.839,81.839A81.931,81.931,0,0,0,1951.3,76.795h1.947a81.931,81.931,0,0,0,81.839-81.838,81.932,81.932,0,0,0-81.839-81.839Z" fill="#bd3454"/>
      </g>
    </g>
    <g>
      <rect width="2" height="338.292" transform="translate(1840.53 -142.286)" fill="#bd3454"/>
    </g>
    <g>
      <rect width="2" height="116.843" transform="translate(1950.073 79.163)" fill="#bd3454"/>
    </g>
    <g>
      <rect width="134.865" height="2" transform="translate(1678.545 202.163)" fill="#bd3454"/>
    </g>
    <g>
      <rect width="138.274" height="2" transform="translate(1595.874 349.938) rotate(-89.832)" fill="#bd3454"/>
    </g>
    <g>
      <rect width="173.408" height="2" transform="translate(1621.209 414.262)" fill="#bd3454"/>
    </g>
    <g>
      <rect width="2" height="113.249" transform="translate(1647.474 -142.758) rotate(-0.25)" fill="#bd3454"/>
    </g>
    <g>
      <rect width="2" height="563.801" transform="translate(1472.383 -219.015)" fill="#bd3454"/>
    </g>
    <g>
      <g>
        <path d="M1800.539,420.108h0l-4.282-2.894c-.047-.031-.095-.062-.144-.091l-3.237-1.941,3.238-1.94c.048-.03.1-.06.143-.092l4.283-2.894,4.282,2.894c.048.032.1.063.144.092l3.238,1.94-3.238,1.941c-.049.029-.1.06-.144.091Z" fill="#2a2c36"/>
      </g>
      <g>
        <path d="M1800.539,412.146l-3.406,2.3c-.07.047-.142.093-.215.137l-1,.6,1,.6c.073.044.146.09.216.138l3.406,2.3,3.405-2.3c.07-.048.143-.094.216-.138l1-.6-1-.6c-.072-.043-.145-.089-.215-.137l-3.406-2.3m0-3.456a1.566,1.566,0,0,1,.877.269l4.282,2.894c.024.015.048.031.072.045l3.238,1.941a1.566,1.566,0,0,1,0,2.687l-3.238,1.94-.072.046-4.282,2.894a1.567,1.567,0,0,1-1.754,0l-4.283-2.894c-.023-.016-.047-.031-.072-.046l-3.238-1.94a1.567,1.567,0,0,1,0-2.687l3.238-1.941c.025-.014.049-.03.072-.045l4.283-2.894A1.566,1.566,0,0,1,1800.539,408.69Z" fill="#bd3454"/>
      </g>
    </g>
    <g>
      <g>
        <path d="M1628.788,420.188h0l-4.282-2.894c-.047-.032-.095-.062-.144-.091l-3.237-1.941,3.237-1.94c.05-.03.1-.06.144-.092l4.283-2.894,4.282,2.894c.047.032.1.062.144.091l3.238,1.941-3.238,1.941c-.048.029-.1.059-.144.091Z" fill="#2a2c36"/>
      </g>
      <g>
        <path d="M1628.788,412.226l-3.4,2.3c-.07.047-.143.094-.216.138l-1,.6,1,.6c.073.044.146.09.216.137l3.406,2.3,3.405-2.3c.071-.048.144-.094.216-.138l1-.6-1-.6c-.072-.043-.144-.089-.214-.136l-3.406-2.3m0-3.456a1.566,1.566,0,0,1,.877.269l4.282,2.893c.024.016.048.032.072.046l3.238,1.941a1.565,1.565,0,0,1,0,2.686l-3.238,1.941-.072.046-4.282,2.894a1.567,1.567,0,0,1-1.754,0l-4.283-2.894c-.023-.016-.047-.031-.072-.046l-3.238-1.941a1.566,1.566,0,0,1,0-2.686l3.238-1.941c.025-.014.049-.03.072-.046l4.283-2.893A1.566,1.566,0,0,1,1628.788,408.77Z" fill="#bd3454"/>
      </g>
    </g>
    <g>
      <g>
        <path d="M1802.7,208.089h0l-4.283-2.894c-.046-.031-.095-.062-.143-.091l-3.238-1.94,3.238-1.941c.048-.029.1-.06.143-.092l4.283-2.894,4.283,2.894c.047.032.094.062.143.091l3.238,1.941-3.238,1.941c-.048.029-.1.059-.143.091Z" fill="#2a2c36"/>
      </g>
      <g>
        <path d="M1802.7,200.127l-3.406,2.3c-.07.048-.143.094-.215.137l-1,.6,1,.6q.111.066.216.138l3.406,2.3,3.406-2.3c.071-.047.143-.093.215-.137l1-.6-1-.6c-.072-.044-.144-.09-.214-.137l-3.406-2.3m0-3.456a1.566,1.566,0,0,1,.877.269l4.283,2.894c.023.016.047.031.071.045l3.238,1.941a1.566,1.566,0,0,1,0,2.687l-3.238,1.94c-.024.015-.048.03-.071.046l-4.283,2.894a1.567,1.567,0,0,1-1.754,0l-4.283-2.894c-.023-.016-.047-.031-.071-.046l-3.238-1.94a1.566,1.566,0,0,1,0-2.687l3.238-1.941c.024-.014.048-.029.071-.045l4.283-2.894A1.566,1.566,0,0,1,1802.7,196.671Z" fill="#bd3454"/>
      </g>
    </g>
    <g>
      <g>
        <path d="M1644.736-36.612h0l2.451-3.846c.03-.047.058-.094.085-.142l1.45-2.565h0l1.449,2.565c.028.049.056.1.085.142l2.451,3.846-2.45,3.846c-.03.047-.058.094-.085.142l-1.45,2.566h0l-1.45-2.565c-.027-.048-.055-.1-.085-.142Z" fill="#2a2c36"/>
      </g>
      <g>
        <path d="M1650.85-36.612l-1.914-3c-.044-.069-.087-.14-.128-.213l-.086-.153-.086.152c-.04.072-.083.143-.128.214l-1.915,3,1.915,3.006c.044.069.087.141.128.212l.086.153.087-.154c.04-.072.083-.143.127-.212l1.914-3.005m3.423,0a1.569,1.569,0,0,1-.245.842l-2.45,3.846c-.015.023-.03.047-.043.071l-1.45,2.566a1.567,1.567,0,0,1-2.727,0l-1.449-2.566c-.014-.024-.028-.048-.043-.071l-2.45-3.846a1.562,1.562,0,0,1,0-1.683l2.45-3.846.043-.071,1.449-2.566a1.566,1.566,0,0,1,2.727,0l1.45,2.566c.013.024.028.047.043.071l2.45,3.846A1.568,1.568,0,0,1,1654.273-36.612Z" fill="#bd3454"/>
      </g>
    </g>
    <g>
      <g>
        <path d="M1591.941,343.125h0l2.894-4.282c.031-.048.062-.1.091-.144l1.94-3.238,1.941,3.238c.029.048.06.1.091.143l2.894,4.283-2.893,4.283c-.032.047-.063.1-.092.143l-1.94,3.238-1.941-3.237c-.029-.049-.06-.1-.091-.144Z" fill="#2a2c36"/>
      </g>
      <g>
        <path d="M1599.9,343.125l-2.3-3.406c-.048-.07-.094-.143-.137-.215l-.6-1-.6,1c-.044.072-.09.145-.138.215l-2.3,3.406,2.3,3.406c.048.071.094.143.137.215l.6,1,.6-1c.044-.073.09-.145.137-.215l2.3-3.406m3.457,0a1.565,1.565,0,0,1-.269.877l-2.894,4.283c-.016.023-.031.047-.046.072l-1.94,3.238a1.567,1.567,0,0,1-2.687,0l-1.94-3.238c-.015-.025-.03-.049-.046-.072L1590.643,344a1.567,1.567,0,0,1,0-1.754l2.894-4.282.046-.072,1.94-3.238a1.566,1.566,0,0,1,2.687,0l1.94,3.238.046.072,2.894,4.282A1.565,1.565,0,0,1,1603.359,343.125Z" fill="#bd3454"/>
      </g>
    </g>
    <g>
      <g>
        <path d="M1592.15,220.094h0l2.893-4.282c.032-.047.063-.1.092-.144l1.94-3.237,1.941,3.237c.029.049.06.1.091.144l2.894,4.282-2.894,4.283c-.031.047-.062.1-.091.143l-1.94,3.238-1.941-3.237c-.029-.049-.06-.1-.091-.144Z" fill="#2a2c36"/>
      </g>
      <g>
        <path d="M1600.112,220.094l-2.3-3.406c-.048-.07-.094-.142-.137-.215l-.6-1-.6,1c-.043.072-.089.145-.137.216l-2.3,3.4,2.3,3.407c.048.07.094.142.137.215l.6,1,.6-1c.044-.073.089-.145.137-.215l2.3-3.406m3.456,0a1.565,1.565,0,0,1-.268.877l-2.894,4.283c-.016.024-.031.047-.046.072l-1.94,3.238a1.566,1.566,0,0,1-2.687,0l-1.94-3.238c-.015-.025-.03-.048-.046-.072l-2.894-4.283a1.565,1.565,0,0,1,0-1.753l2.894-4.283c.016-.024.031-.048.046-.072l1.94-3.238a1.566,1.566,0,0,1,2.687,0l1.94,3.238c.015.024.03.048.046.072l2.894,4.283A1.559,1.559,0,0,1,1603.568,220.094Z" fill="#bd3454"/>
      </g>
    </g>
    <g>
      <g>
        <path d="M1468.459,341.179h0l2.894-4.282c.032-.047.062-.1.091-.144l1.94-3.237,1.941,3.237c.029.049.06.1.092.144l2.894,4.283-2.894,4.282c-.032.047-.062.1-.091.143l-1.941,3.239-1.941-3.238c-.029-.049-.059-.1-.091-.144Z" fill="#2a2c36"/>
      </g>
      <g>
        <path d="M1476.42,341.179l-2.3-3.407c-.048-.07-.094-.142-.137-.215l-.6-1-.6,1q-.066.109-.138.216l-2.3,3.406,2.3,3.406c.047.07.093.143.137.215l.6,1,.6-1c.044-.072.09-.144.137-.215l2.3-3.405m3.457,0a1.56,1.56,0,0,1-.269.876l-2.894,4.283q-.024.036-.045.072l-1.941,3.238a1.566,1.566,0,0,1-2.687,0l-1.94-3.238c-.015-.024-.03-.048-.046-.072l-2.894-4.283a1.565,1.565,0,0,1,0-1.753l2.894-4.283c.016-.023.031-.047.046-.072l1.94-3.238a1.566,1.566,0,0,1,2.687,0l1.941,3.238q.021.037.045.072l2.894,4.283A1.566,1.566,0,0,1,1479.877,341.179Z" fill="#bd3454"/>
      </g>
    </g>
    <g style="isolation: isolate">
      <g style="isolation: isolate">
        <path d="M1872.463,318.524h-7.142a3.094,3.094,0,0,1-1.605-.431,3.208,3.208,0,0,1-1.158-1.167,3.1,3.1,0,0,1-.431-1.6v-4.4a3.056,3.056,0,0,1,.431-1.589,3.225,3.225,0,0,1,1.158-1.159,3.094,3.094,0,0,1,1.605-.431h7.142v1.676h-6.3a1.46,1.46,0,0,0-1.064.43,1.443,1.443,0,0,0-.439,1.073v4.4a1.5,1.5,0,0,0,1.5,1.5h6.3Z" fill="#fff"/>
        <path d="M1881.029,310.537a2.448,2.448,0,0,1,.893.892,2.386,2.386,0,0,1,.329,1.222v3.43a2.382,2.382,0,0,1-.329,1.221,2.443,2.443,0,0,1-.893.893,2.417,2.417,0,0,1-1.237.329h-3.634a2.372,2.372,0,0,1-1.229-.329,2.469,2.469,0,0,1-.885-.893,2.382,2.382,0,0,1-.329-1.221v-3.43a2.386,2.386,0,0,1,.329-1.222,2.474,2.474,0,0,1,.885-.892,2.362,2.362,0,0,1,1.229-.329h3.634A2.407,2.407,0,0,1,1881.029,310.537Zm-1.3,2.615a1.255,1.255,0,0,0-1.268-1.268h-.972a1.255,1.255,0,0,0-1.268,1.268v2.428a1.257,1.257,0,0,0,1.268,1.268h.972a1.257,1.257,0,0,0,1.268-1.268Z" fill="#fff"/>
        <path d="M1889.486,318.524v-5.372a1.255,1.255,0,0,0-1.268-1.268h-.972a1.255,1.255,0,0,0-1.268,1.268v5.372h-2.506v-5.873a2.386,2.386,0,0,1,.329-1.222,2.446,2.446,0,0,1,.892-.892,2.379,2.379,0,0,1,1.222-.329h3.634a2.406,2.406,0,0,1,1.237.329,2.448,2.448,0,0,1,.893.892,2.4,2.4,0,0,1,.329,1.222v5.873Z" fill="#fff"/>
        <path d="M1896.33,315.893a.961.961,0,0,0,.955.955h1.144v1.676h-1.99a2.538,2.538,0,0,1-1.26-.329,2.713,2.713,0,0,1-.955-.885,2.493,2.493,0,0,1-.415-1.229v-4.2h-1.05v-1.676h1.05v-2.443h2.521v2.443h2.1v1.676h-2.1Z" fill="#fff"/>
        <path d="M1904.865,311.884h-1.911a1.208,1.208,0,0,0-.885.367,1.228,1.228,0,0,0-.368.9v5.372h-2.521v-5.873a2.386,2.386,0,0,1,.329-1.222,2.446,2.446,0,0,1,.892-.892,2.379,2.379,0,0,1,1.222-.329h3.242Z" fill="#fff"/>
        <path d="M1914.982,310.208v8.316h-2.505v-.439a6.335,6.335,0,0,1-2.319.439H1907.6a1.979,1.979,0,0,1-1.017-.274,2.027,2.027,0,0,1-.744-.744,1.982,1.982,0,0,1-.275-1.018v-4.244a1.982,1.982,0,0,1,.275-1.018,2.027,2.027,0,0,1,.744-.744,1.98,1.98,0,0,1,1.017-.274h2.538a6.477,6.477,0,0,1,2.334.438v-.438Zm-2.505,6.2v-4.088a6.4,6.4,0,0,0-2.334-.438h-.8a1.255,1.255,0,0,0-1.269,1.268v2.428a1.257,1.257,0,0,0,1.269,1.268h.8A6.4,6.4,0,0,0,1912.477,316.41Z" fill="#fff"/>
        <path d="M1924.739,318.524h-6.077a2.413,2.413,0,0,1-1.237-.329,2.443,2.443,0,0,1-.893-.893,2.413,2.413,0,0,1-.329-1.237v-3.4a2.417,2.417,0,0,1,.329-1.238,2.448,2.448,0,0,1,.893-.892,2.4,2.4,0,0,1,1.237-.329h6.077v1.676h-4.761a1.236,1.236,0,0,0-.893.367,1.216,1.216,0,0,0-.376.9v2.428a1.213,1.213,0,0,0,.376.9,1.232,1.232,0,0,0,.893.368h4.761Z" fill="#fff"/>
        <path d="M1929.061,315.893a.961.961,0,0,0,.955.955h1.143v1.676h-1.989a2.544,2.544,0,0,1-1.261-.329,2.72,2.72,0,0,1-.955-.885,2.493,2.493,0,0,1-.415-1.229v-4.2h-1.05v-1.676h1.05v-2.443h2.522v2.443h2.1v1.676h-2.1Z" fill="#fff"/>
      </g>
    </g>
    <g style="isolation: isolate">
      <g style="isolation: isolate">
        <path d="M1500.447,409.09v1.691h-3.915v9.1h-2.521v-9.1h-3.916V409.09Z" fill="#fff"/>
        <path d="M1506.915,413.24H1505a1.208,1.208,0,0,0-.885.368,1.228,1.228,0,0,0-.368.9v5.372h-2.522v-5.873a2.387,2.387,0,0,1,.33-1.222,2.43,2.43,0,0,1,.892-.892,2.386,2.386,0,0,1,1.222-.33h3.242Z" fill="#fff"/>
        <path d="M1517.032,411.564v8.317h-2.506v-.439a6.35,6.35,0,0,1-2.318.439h-2.553a1.971,1.971,0,0,1-1.017-.275,2.016,2.016,0,0,1-.744-.743,1.982,1.982,0,0,1-.275-1.018V413.6a1.982,1.982,0,0,1,.275-1.018,2.019,2.019,0,0,1,.744-.744,1.981,1.981,0,0,1,1.017-.275h2.537a6.474,6.474,0,0,1,2.334.439v-.439Zm-2.506,6.2v-4.088a6.4,6.4,0,0,0-2.334-.439h-.8a1.257,1.257,0,0,0-1.269,1.269v2.428a1.257,1.257,0,0,0,1.269,1.268h.8A6.394,6.394,0,0,0,1514.526,417.767Z" fill="#fff"/>
        <path d="M1524.268,419.881v-5.372A1.258,1.258,0,0,0,1523,413.24h-.972a1.257,1.257,0,0,0-1.268,1.269v5.372h-2.506v-5.873a2.386,2.386,0,0,1,.329-1.222,2.441,2.441,0,0,1,.893-.892,2.386,2.386,0,0,1,1.221-.33h3.634a2.453,2.453,0,0,1,2.13,1.222,2.386,2.386,0,0,1,.329,1.222v5.873Z" fill="#fff"/>
        <path d="M1531.111,413.24a.775.775,0,0,0-.58.243.818.818,0,0,0-.234.587.8.8,0,0,0,.234.573.774.774,0,0,0,.58.242h2.694a2.429,2.429,0,0,1,1.26.337,2.527,2.527,0,0,1,.909.908,2.448,2.448,0,0,1,.337,1.261,2.414,2.414,0,0,1-.337,1.245,2.535,2.535,0,0,1-.909.908,2.428,2.428,0,0,1-1.26.337h-5.7V418.2h4.871a.8.8,0,0,0,.588-.243.782.782,0,0,0,.242-.571.828.828,0,0,0-.83-.83h-2.694a2.456,2.456,0,0,1-1.253-.337,2.5,2.5,0,0,1-.916-.909,2.407,2.407,0,0,1-.337-1.245,2.44,2.44,0,0,1,.337-1.26,2.511,2.511,0,0,1,.916-.909,2.456,2.456,0,0,1,1.253-.337h5.638v1.676Z" fill="#fff"/>
        <path d="M1546.71,411.564v8.317H1544.2v-.439a6.349,6.349,0,0,1-2.318.439h-2.553a1.977,1.977,0,0,1-1.018-.275,2.031,2.031,0,0,1-.744-.743,1.99,1.99,0,0,1-.274-1.018V413.6a1.99,1.99,0,0,1,.274-1.018,2.034,2.034,0,0,1,.744-.744,1.987,1.987,0,0,1,1.018-.275h2.537a6.478,6.478,0,0,1,2.334.439v-.439Zm-2.506,6.2v-4.088a6.4,6.4,0,0,0-2.334-.439h-.8a1.257,1.257,0,0,0-1.268,1.269v2.428a1.257,1.257,0,0,0,1.268,1.268h.8A6.394,6.394,0,0,0,1544.2,417.767Z" fill="#fff"/>
        <path d="M1556.467,419.881h-6.077a2.448,2.448,0,0,1-2.459-2.459v-3.4a2.449,2.449,0,0,1,2.459-2.459h6.077v1.676H1551.7a1.232,1.232,0,0,0-.892.368,1.216,1.216,0,0,0-.376.9v2.428a1.212,1.212,0,0,0,.376.9,1.228,1.228,0,0,0,.892.368h4.762Z" fill="#fff"/>
        <path d="M1560.788,417.25a.961.961,0,0,0,.955.955h1.144v1.676h-1.99a2.538,2.538,0,0,1-1.26-.329,2.713,2.713,0,0,1-.955-.885,2.493,2.493,0,0,1-.415-1.229v-4.2h-1.05v-1.676h1.05v-2.442h2.521v2.442h2.1v1.676h-2.1Z" fill="#fff"/>
        <path d="M1570.952,411.894a2.441,2.441,0,0,1,.893.892,2.4,2.4,0,0,1,.329,1.222v3.43a2.394,2.394,0,0,1-.329,1.221,2.443,2.443,0,0,1-.893.893,2.416,2.416,0,0,1-1.237.329h-3.634a2.371,2.371,0,0,1-1.229-.329,2.459,2.459,0,0,1-.885-.893,2.385,2.385,0,0,1-.329-1.221v-3.43a2.386,2.386,0,0,1,.329-1.222,2.457,2.457,0,0,1,.885-.892,2.372,2.372,0,0,1,1.229-.33h3.634A2.417,2.417,0,0,1,1570.952,411.894Zm-1.3,2.615a1.257,1.257,0,0,0-1.268-1.269h-.972a1.257,1.257,0,0,0-1.268,1.269v2.428a1.256,1.256,0,0,0,1.268,1.268h.972a1.256,1.256,0,0,0,1.268-1.268Z" fill="#fff"/>
        <path d="M1579.08,413.24h-1.911a1.208,1.208,0,0,0-.885.368,1.228,1.228,0,0,0-.368.9v5.372H1573.4v-5.873a2.386,2.386,0,0,1,.329-1.222,2.431,2.431,0,0,1,.892-.892,2.387,2.387,0,0,1,1.222-.33h3.242Z" fill="#fff"/>
      </g>
    </g>
    <g style="isolation: isolate">
      <g style="isolation: isolate">
        <path d="M1586.2,93.515h-7.141a3.088,3.088,0,0,1-1.606-.431,3.208,3.208,0,0,1-1.158-1.167,3.1,3.1,0,0,1-.431-1.6v-4.4a3.056,3.056,0,0,1,.431-1.589,3.232,3.232,0,0,1,1.158-1.159,3.1,3.1,0,0,1,1.606-.431h7.141v1.676h-6.3a1.461,1.461,0,0,0-1.064.431,1.44,1.44,0,0,0-.439,1.072v4.4a1.5,1.5,0,0,0,1.5,1.5h6.3Z" fill="#fff"/>
        <path d="M1590.194,93.515h-2.521V82.756h2.521Z" fill="#fff"/>
        <path d="M1591.854,82.756h2.506V85.2h-2.506Zm0,3.07h2.506v7.689h-2.506Z" fill="#fff"/>
        <path d="M1602.692,85.2a1.634,1.634,0,0,1,1.645,1.644v1.833a1.6,1.6,0,0,1-.479,1.159,1.571,1.571,0,0,1-1.166.485h-4.385v.564a.961.961,0,0,0,.956.955h4.885v1.676h-5.715a2.585,2.585,0,0,1-1.324-.352,2.638,2.638,0,0,1-.956-.955,2.587,2.587,0,0,1-.352-1.324V87.83a2.583,2.583,0,0,1,.352-1.323,2.633,2.633,0,0,1,.956-.956,2.575,2.575,0,0,1,1.324-.352Zm-1.073,3.25a.63.63,0,0,0,.2-.462v-.454a.669.669,0,0,0-.658-.658h-1.894a.963.963,0,0,0-.956.955v.815h2.85A.63.63,0,0,0,1601.619,88.449Z" fill="#fff"/>
        <path d="M1611.572,93.515V88.144a1.257,1.257,0,0,0-1.268-1.269h-.972a1.258,1.258,0,0,0-1.269,1.269v5.371h-2.505V87.642a2.388,2.388,0,0,1,.329-1.222,2.438,2.438,0,0,1,.892-.892A2.388,2.388,0,0,1,1608,85.2h3.634a2.416,2.416,0,0,1,1.237.329,2.448,2.448,0,0,1,.893.892,2.4,2.4,0,0,1,.329,1.222v5.873Z" fill="#fff"/>
        <path d="M1618.415,90.884a.959.959,0,0,0,.955.955h1.144v1.676h-1.99a2.537,2.537,0,0,1-1.26-.329,2.712,2.712,0,0,1-.955-.885,2.493,2.493,0,0,1-.415-1.229v-4.2h-1.05V85.2h1.05V82.756h2.521V85.2h2.1v1.676h-2.1Z" fill="#fff"/>
      </g>
    </g>
    <g style="isolation: isolate">
      <g style="isolation: isolate">
        <path d="M1659.012-307.891a2.31,2.31,0,0,0-.823.823,2.18,2.18,0,0,0-.3,1.128v2.9a2.221,2.221,0,0,0,.3,1.135,2.283,2.283,0,0,0,.823.83,2.172,2.172,0,0,0,1.128.306h3.053v-4.37h2.506v6.045h-6.405a3.837,3.837,0,0,1-1.974-.532,3.906,3.906,0,0,1-1.432-1.441,3.863,3.863,0,0,1-.525-1.973v-2.9a3.825,3.825,0,0,1,.525-1.966,3.929,3.929,0,0,1,1.432-1.433,3.838,3.838,0,0,1,1.974-.533h6.405v1.676h-5.559A2.18,2.18,0,0,0,1659.012-307.891Z" fill="#fff"/>
        <path d="M1676.364-307.413v8.316h-2.506v-.438a6.35,6.35,0,0,1-2.318.438h-2.553a1.979,1.979,0,0,1-1.017-.274,2.012,2.012,0,0,1-.744-.744,1.982,1.982,0,0,1-.275-1.018v-4.244a1.984,1.984,0,0,1,.275-1.018,2.027,2.027,0,0,1,.744-.744,1.989,1.989,0,0,1,1.017-.274h2.537a6.453,6.453,0,0,1,2.334.439v-.439Zm-2.506,6.2V-305.3a6.374,6.374,0,0,0-2.334-.439h-.8a1.227,1.227,0,0,0-.9.368,1.227,1.227,0,0,0-.368.9v2.427a1.224,1.224,0,0,0,.368.9,1.224,1.224,0,0,0,.9.369h.8A6.374,6.374,0,0,0,1673.858-301.211Z" fill="#fff"/>
        <path d="M1689.8-307.084a2.426,2.426,0,0,1,.892.893,2.375,2.375,0,0,1,.329,1.221v5.873H1688.5v-5.371a1.227,1.227,0,0,0-.368-.9,1.207,1.207,0,0,0-.885-.368h-.376a1.208,1.208,0,0,0-.885.368,1.226,1.226,0,0,0-.368.9v5.371H1683.1v-5.371a1.223,1.223,0,0,0-.368-.9,1.209,1.209,0,0,0-.884-.368h-.361a1.224,1.224,0,0,0-.9.368,1.223,1.223,0,0,0-.368.9v5.371h-2.506v-5.873a2.374,2.374,0,0,1,.329-1.221,2.436,2.436,0,0,1,.893-.893,2.382,2.382,0,0,1,1.221-.329h2.349a3.157,3.157,0,0,1,1.863.611,3.1,3.1,0,0,1,1.849-.611h2.364A2.386,2.386,0,0,1,1689.8-307.084Z" fill="#fff"/>
        <path d="M1699.261-307.413a1.589,1.589,0,0,1,1.166.478,1.588,1.588,0,0,1,.478,1.166v1.833a1.6,1.6,0,0,1-.478,1.159,1.572,1.572,0,0,1-1.166.485h-4.386v.564a.924.924,0,0,0,.282.674.919.919,0,0,0,.674.282h4.886v1.675H1695a2.571,2.571,0,0,1-1.323-.352,2.614,2.614,0,0,1-.956-.955,2.579,2.579,0,0,1-.353-1.324v-3.054a2.575,2.575,0,0,1,.353-1.323,2.617,2.617,0,0,1,.956-.956,2.581,2.581,0,0,1,1.323-.352Zm-1.073,3.25a.632.632,0,0,0,.2-.462v-.454a.632.632,0,0,0-.2-.462.632.632,0,0,0-.462-.2h-1.895a.919.919,0,0,0-.674.282.924.924,0,0,0-.282.673v.815h2.851A.632.632,0,0,0,1698.188-304.163Z" fill="#fff"/>
        <path d="M1721.437-309.887v1.691h-3.916v9.1H1715v-9.1h-3.916v-1.691Z" fill="#fff"/>
        <path d="M1731.632-307.413v8.316h-2.506v-.438a6.349,6.349,0,0,1-2.318.438h-2.553a1.985,1.985,0,0,1-1.018-.274,2.026,2.026,0,0,1-.744-.744,1.99,1.99,0,0,1-.274-1.018v-4.244a1.993,1.993,0,0,1,.274-1.018,2.041,2.041,0,0,1,.744-.744,2,2,0,0,1,1.018-.274h2.537a6.456,6.456,0,0,1,2.334.439v-.439Zm-2.506,6.2V-305.3a6.374,6.374,0,0,0-2.334-.439h-.8a1.226,1.226,0,0,0-.9.368,1.227,1.227,0,0,0-.368.9v2.427a1.224,1.224,0,0,0,.368.9,1.223,1.223,0,0,0,.9.369h.8A6.374,6.374,0,0,0,1729.126-301.211Z" fill="#fff"/>
        <path d="M1741.247-307.139a2.026,2.026,0,0,1,.744.744,1.984,1.984,0,0,1,.275,1.018v4.244a1.982,1.982,0,0,1-.275,1.018,2.011,2.011,0,0,1-.744.744,1.977,1.977,0,0,1-1.018.274h-2.552a6.354,6.354,0,0,1-2.319-.438v.438h-2.505v-10.759h2.505v2.882a6.541,6.541,0,0,1,2.334-.439h2.537A1.987,1.987,0,0,1,1741.247-307.139Zm-1.487,2.671a1.227,1.227,0,0,0-.368-.9,1.228,1.228,0,0,0-.9-.368h-.8a6.374,6.374,0,0,0-2.334.439v4.087a6.374,6.374,0,0,0,2.334.439h.8a1.225,1.225,0,0,0,.9-.369,1.224,1.224,0,0,0,.368-.9Z" fill="#fff"/>
        <path d="M1746.228-299.1h-2.522v-10.759h2.522Z" fill="#fff"/>
        <path d="M1754.56-307.413a1.589,1.589,0,0,1,1.166.478,1.588,1.588,0,0,1,.478,1.166v1.833a1.6,1.6,0,0,1-.478,1.159,1.572,1.572,0,0,1-1.166.485h-4.386v.564a.924.924,0,0,0,.282.674.919.919,0,0,0,.674.282h4.886v1.675H1750.3a2.568,2.568,0,0,1-1.323-.352,2.613,2.613,0,0,1-.956-.955,2.579,2.579,0,0,1-.353-1.324v-3.054a2.575,2.575,0,0,1,.353-1.323,2.616,2.616,0,0,1,.956-.956,2.578,2.578,0,0,1,1.323-.352Zm-1.074,3.25a.63.63,0,0,0,.2-.462v-.454a.63.63,0,0,0-.2-.462.63.63,0,0,0-.462-.2h-1.894a.919.919,0,0,0-.674.282.924.924,0,0,0-.282.673v.815h2.85A.63.63,0,0,0,1753.486-304.163Z" fill="#fff"/>
        <path d="M1775.733-299.1l-3.446-8.175-2.756,6.5h3.085l.783,1.675h-7.079l4.574-10.775h2.772l4.572,10.775Z" fill="#fff"/>
        <path d="M1787.494-299.1h-6.077a2.413,2.413,0,0,1-1.237-.329,2.44,2.44,0,0,1-.893-.892,2.414,2.414,0,0,1-.329-1.238v-3.4a2.413,2.413,0,0,1,.329-1.237,2.443,2.443,0,0,1,.893-.893,2.413,2.413,0,0,1,1.237-.329h6.077v1.676h-4.762a1.236,1.236,0,0,0-.892.368,1.215,1.215,0,0,0-.376.9v2.427a1.212,1.212,0,0,0,.376.9,1.233,1.233,0,0,0,.892.369h4.762Z" fill="#fff"/>
        <path d="M1797.251-299.1h-6.077a2.413,2.413,0,0,1-1.237-.329,2.442,2.442,0,0,1-.893-.892,2.414,2.414,0,0,1-.329-1.238v-3.4a2.413,2.413,0,0,1,.329-1.237,2.445,2.445,0,0,1,.893-.893,2.413,2.413,0,0,1,1.237-.329h6.077v1.676h-4.762a1.235,1.235,0,0,0-.892.368,1.215,1.215,0,0,0-.376.9v2.427a1.213,1.213,0,0,0,.376.9,1.232,1.232,0,0,0,.892.369h4.762Z" fill="#fff"/>
        <path d="M1805.786-307.084a2.444,2.444,0,0,1,.893.893,2.4,2.4,0,0,1,.329,1.221v3.43a2.4,2.4,0,0,1-.329,1.222,2.441,2.441,0,0,1-.893.892,2.416,2.416,0,0,1-1.237.329h-3.634a2.371,2.371,0,0,1-1.229-.329,2.457,2.457,0,0,1-.885-.892,2.386,2.386,0,0,1-.329-1.222v-3.43a2.385,2.385,0,0,1,.329-1.221,2.46,2.46,0,0,1,.885-.893,2.371,2.371,0,0,1,1.229-.329h3.634A2.416,2.416,0,0,1,1805.786-307.084Zm-1.3,2.616a1.227,1.227,0,0,0-.368-.9,1.228,1.228,0,0,0-.9-.368h-.972a1.226,1.226,0,0,0-.9.368,1.227,1.227,0,0,0-.368.9v2.427a1.224,1.224,0,0,0,.368.9,1.223,1.223,0,0,0,.9.369h.972a1.225,1.225,0,0,0,.9-.369,1.224,1.224,0,0,0,.368-.9Z" fill="#fff"/>
        <path d="M1810.734-307.413v5.372a1.222,1.222,0,0,0,.369.9,1.221,1.221,0,0,0,.9.369h.987a1.206,1.206,0,0,0,.885-.369,1.224,1.224,0,0,0,.368-.9v-5.372h2.522v5.873a2.4,2.4,0,0,1-.329,1.222,2.442,2.442,0,0,1-.893.892,2.416,2.416,0,0,1-1.237.329h-3.634a2.386,2.386,0,0,1-1.222-.329,2.431,2.431,0,0,1-.892-.892,2.386,2.386,0,0,1-.329-1.222v-5.873Z" fill="#fff"/>
        <path d="M1824-299.1v-5.371a1.227,1.227,0,0,0-.368-.9,1.228,1.228,0,0,0-.9-.368h-.971a1.228,1.228,0,0,0-.9.368,1.227,1.227,0,0,0-.368.9v5.371h-2.506v-5.873a2.394,2.394,0,0,1,.329-1.221,2.443,2.443,0,0,1,.893-.893,2.385,2.385,0,0,1,1.222-.329h3.634a2.416,2.416,0,0,1,1.237.329,2.433,2.433,0,0,1,.892.893,2.386,2.386,0,0,1,.33,1.221v5.873Z" fill="#fff"/>
        <path d="M1830.843-301.728a.923.923,0,0,0,.281.674.922.922,0,0,0,.674.282h1.143v1.675h-1.989a2.544,2.544,0,0,1-1.261-.329,2.712,2.712,0,0,1-.955-.885,2.5,2.5,0,0,1-.415-1.229v-4.2h-1.05v-1.676h1.05v-2.443h2.522v2.443h2.1v1.676h-2.1Z" fill="#fff"/>
      </g>
    </g>
    <g style="isolation: isolate">
      <path d="M1904.723-16.811a2.3,2.3,0,0,0-.823.823,2.18,2.18,0,0,0-.305,1.128v2.9a2.221,2.221,0,0,0,.305,1.135,2.275,2.275,0,0,0,.823.83,2.171,2.171,0,0,0,1.128.306h3.053v-4.37h2.506v6.045h-6.405a3.836,3.836,0,0,1-1.974-.532A3.9,3.9,0,0,1,1901.6-9.99a3.863,3.863,0,0,1-.525-1.973v-2.9a3.825,3.825,0,0,1,.525-1.966,3.928,3.928,0,0,1,1.432-1.433,3.837,3.837,0,0,1,1.974-.533h6.405v1.676h-5.559A2.18,2.18,0,0,0,1904.723-16.811Z" fill="#fff"/>
      <path d="M1922.075-16.333v8.316h-2.506v-.438a6.349,6.349,0,0,1-2.318.438H1914.7a1.979,1.979,0,0,1-1.017-.274,2.011,2.011,0,0,1-.744-.744,1.982,1.982,0,0,1-.275-1.018V-14.3a1.981,1.981,0,0,1,.275-1.017,2.021,2.021,0,0,1,.744-.745,1.989,1.989,0,0,1,1.017-.274h2.537a6.452,6.452,0,0,1,2.334.439v-.439Zm-2.506,6.2v-4.087a6.374,6.374,0,0,0-2.334-.439h-.8a1.227,1.227,0,0,0-.9.368,1.228,1.228,0,0,0-.368.9v2.427a1.224,1.224,0,0,0,.368.9,1.224,1.224,0,0,0,.9.369h.8A6.374,6.374,0,0,0,1919.569-10.131Z" fill="#fff"/>
      <path d="M1935.512-16a2.426,2.426,0,0,1,.892.893,2.375,2.375,0,0,1,.329,1.221v5.873h-2.521v-5.371a1.228,1.228,0,0,0-.368-.9,1.207,1.207,0,0,0-.885-.368h-.376a1.208,1.208,0,0,0-.885.368,1.228,1.228,0,0,0-.368.9v5.371h-2.521v-5.371a1.224,1.224,0,0,0-.368-.9,1.21,1.21,0,0,0-.884-.368h-.361a1.224,1.224,0,0,0-.9.368,1.225,1.225,0,0,0-.368.9v5.371h-2.506V-13.89a2.375,2.375,0,0,1,.329-1.221,2.435,2.435,0,0,1,.893-.893,2.382,2.382,0,0,1,1.221-.329h2.349a3.158,3.158,0,0,1,1.863.611,3.1,3.1,0,0,1,1.849-.611h2.364A2.385,2.385,0,0,1,1935.512-16Z" fill="#fff"/>
      <path d="M1944.972-16.333a1.589,1.589,0,0,1,1.166.478,1.589,1.589,0,0,1,.478,1.167v1.832a1.6,1.6,0,0,1-.478,1.159,1.573,1.573,0,0,1-1.166.486h-4.386v.564a.924.924,0,0,0,.282.673.919.919,0,0,0,.674.282h4.886v1.675h-5.716a2.569,2.569,0,0,1-1.323-.352,2.613,2.613,0,0,1-.956-.955,2.575,2.575,0,0,1-.353-1.323V-13.7a2.575,2.575,0,0,1,.353-1.323,2.606,2.606,0,0,1,.956-.955,2.569,2.569,0,0,1,1.323-.353Zm-1.074,3.25a.629.629,0,0,0,.2-.462V-14a.629.629,0,0,0-.2-.462.628.628,0,0,0-.461-.2h-1.9a.919.919,0,0,0-.674.282.924.924,0,0,0-.282.673v.815h2.851A.628.628,0,0,0,1943.9-13.083Z" fill="#fff"/>
      <path d="M1965.926-13.89a3.166,3.166,0,0,1,1.143,1.144,3.065,3.065,0,0,1,.423,1.581,3.066,3.066,0,0,1-.423,1.582,3.166,3.166,0,0,1-1.143,1.144,3.05,3.05,0,0,1-1.567.422h-6.765V-9.708h5.92a1.433,1.433,0,0,0,1.042-.423,1.393,1.393,0,0,0,.43-1.034,1.392,1.392,0,0,0-.43-1.033,1.433,1.433,0,0,0-1.042-.423h-3.273a3,3,0,0,1-1.551-.415,3.1,3.1,0,0,1-1.12-1.128,3.018,3.018,0,0,1-.415-1.542,3.008,3.008,0,0,1,.415-1.551,3.113,3.113,0,0,1,1.12-1.119,3,3,0,0,1,1.551-.416h6.624v1.676h-5.794a1.361,1.361,0,0,0-.995.415,1.361,1.361,0,0,0-.415.995,1.332,1.332,0,0,0,.415.986,1.37,1.37,0,0,0,.995.407h3.288A3.051,3.051,0,0,1,1965.926-13.89Z" fill="#fff"/>
      <path d="M1971.736-10.647a.92.92,0,0,0,.282.673.92.92,0,0,0,.673.282h1.144v1.675h-1.989a2.531,2.531,0,0,1-1.261-.329,2.71,2.71,0,0,1-.955-.884,2.5,2.5,0,0,1-.415-1.23v-4.2h-1.05v-1.676h1.05v-2.443h2.521v2.443h2.1v1.676h-2.1Z" fill="#fff"/>
      <path d="M1984-16.333v8.316h-2.506v-.438a6.35,6.35,0,0,1-2.318.438h-2.553a1.986,1.986,0,0,1-1.018-.274,2.027,2.027,0,0,1-.744-.744,1.99,1.99,0,0,1-.274-1.018V-14.3a1.989,1.989,0,0,1,.274-1.017,2.037,2.037,0,0,1,.744-.745,2,2,0,0,1,1.018-.274h2.537a6.457,6.457,0,0,1,2.334.439v-.439Zm-2.506,6.2v-4.087a6.374,6.374,0,0,0-2.334-.439h-.8a1.226,1.226,0,0,0-.9.368,1.228,1.228,0,0,0-.368.9v2.427a1.224,1.224,0,0,0,.368.9,1.223,1.223,0,0,0,.9.369h.8A6.374,6.374,0,0,0,1981.493-10.131Z" fill="#fff"/>
      <path d="M1993.755-8.017h-6.077a2.408,2.408,0,0,1-1.238-.329,2.438,2.438,0,0,1-.892-.892,2.414,2.414,0,0,1-.329-1.238v-3.4a2.413,2.413,0,0,1,.329-1.237,2.441,2.441,0,0,1,.892-.893,2.417,2.417,0,0,1,1.238-.329h6.077v1.676h-4.762a1.234,1.234,0,0,0-.892.368,1.216,1.216,0,0,0-.376.9v2.427a1.212,1.212,0,0,0,.376.9,1.231,1.231,0,0,0,.892.369h4.762Z" fill="#fff"/>
      <path d="M1994.976-18.776h2.505V-8.017h-2.505Zm5.529,6.609,3.445,4.15h-3.039l-3.43-4.15,2.726-4.166h3.022Z" fill="#fff"/>
    </g>
    <g style="isolation: isolate">
      <path d="M1928.364,12.344l-3.446-8.176-2.756,6.5h3.085l.783,1.676h-7.079l4.573-10.775h2.773l4.572,10.775Z" fill="#fff"/>
      <path d="M1940.126,12.344h-6.077a2.413,2.413,0,0,1-1.237-.329,2.452,2.452,0,0,1-.893-.893,2.413,2.413,0,0,1-.329-1.237v-3.4a2.416,2.416,0,0,1,.329-1.237,2.46,2.46,0,0,1,.893-.893,2.412,2.412,0,0,1,1.237-.328h6.077V5.7h-4.762a1.234,1.234,0,0,0-.892.367,1.216,1.216,0,0,0-.376.9V9.4a1.215,1.215,0,0,0,.376.9,1.235,1.235,0,0,0,.892.368h4.762Z" fill="#fff"/>
      <path d="M1949.882,12.344h-6.077a2.414,2.414,0,0,1-1.238-.329,2.448,2.448,0,0,1-.892-.893,2.414,2.414,0,0,1-.329-1.237v-3.4a2.416,2.416,0,0,1,.329-1.237,2.456,2.456,0,0,1,.892-.893,2.413,2.413,0,0,1,1.238-.328h6.077V5.7h-4.762a1.233,1.233,0,0,0-.892.367,1.216,1.216,0,0,0-.376.9V9.4a1.215,1.215,0,0,0,.376.9,1.234,1.234,0,0,0,.892.368h4.762Z" fill="#fff"/>
      <path d="M1958.417,4.356a2.46,2.46,0,0,1,.893.893,2.4,2.4,0,0,1,.329,1.222V9.9a2.4,2.4,0,0,1-.329,1.222,2.452,2.452,0,0,1-.893.893,2.416,2.416,0,0,1-1.237.329h-3.634a2.378,2.378,0,0,1-1.23-.329,2.465,2.465,0,0,1-.884-.893A2.386,2.386,0,0,1,1951.1,9.9V6.471a2.386,2.386,0,0,1,.329-1.222,2.473,2.473,0,0,1,.884-.893,2.377,2.377,0,0,1,1.23-.328h3.634A2.415,2.415,0,0,1,1958.417,4.356Zm-1.3,2.616a1.255,1.255,0,0,0-1.268-1.268h-.972a1.257,1.257,0,0,0-1.269,1.268V9.4a1.258,1.258,0,0,0,1.269,1.269h.972a1.256,1.256,0,0,0,1.268-1.269Z" fill="#fff"/>
      <path d="M1963.365,4.028V9.4a1.257,1.257,0,0,0,1.269,1.269h.987a1.208,1.208,0,0,0,.885-.368,1.227,1.227,0,0,0,.368-.9V4.028h2.522V9.9a2.387,2.387,0,0,1-.33,1.222,2.44,2.44,0,0,1-.892.893,2.416,2.416,0,0,1-1.237.329H1963.3a2.385,2.385,0,0,1-1.222-.329,2.45,2.45,0,0,1-.893-.893,2.4,2.4,0,0,1-.329-1.222V4.028Z" fill="#fff"/>
      <path d="M1976.631,12.344V6.972a1.255,1.255,0,0,0-1.269-1.268h-.971a1.255,1.255,0,0,0-1.269,1.268v5.372h-2.506V6.471a2.4,2.4,0,0,1,.329-1.222,2.46,2.46,0,0,1,.893-.893,2.385,2.385,0,0,1,1.222-.328h3.633a2.416,2.416,0,0,1,1.238.328,2.448,2.448,0,0,1,.892.893,2.386,2.386,0,0,1,.329,1.222v5.873Z" fill="#fff"/>
      <path d="M1983.475,9.713a.961.961,0,0,0,.955.955h1.143v1.676h-1.989a2.544,2.544,0,0,1-1.261-.329,2.73,2.73,0,0,1-.955-.885,2.492,2.492,0,0,1-.415-1.23V5.7h-1.05V4.028h1.05V1.584h2.522V4.028h2.1V5.7h-2.1Z" fill="#fff"/>
    </g>
    <g style="isolation: isolate">
      <g style="isolation: isolate">
        <path d="M1663.089-83.572a2.3,2.3,0,0,0-.822.822,2.177,2.177,0,0,0-.306,1.128v2.9a2.213,2.213,0,0,0,.306,1.136,2.272,2.272,0,0,0,.822.83,2.176,2.176,0,0,0,1.128.305h3.054v-4.369h2.505v6.045h-6.405a3.828,3.828,0,0,1-1.974-.533,3.9,3.9,0,0,1-1.432-1.44,3.864,3.864,0,0,1-.525-1.974v-2.9a3.822,3.822,0,0,1,.525-1.965,3.921,3.921,0,0,1,1.432-1.433,3.838,3.838,0,0,1,1.974-.533h6.405v1.676h-5.559A2.185,2.185,0,0,0,1663.089-83.572Z" fill="#fff"/>
        <path d="M1680.441-83.094v8.316h-2.505v-.438a6.355,6.355,0,0,1-2.319.438h-2.553a1.979,1.979,0,0,1-1.017-.274,2.012,2.012,0,0,1-.744-.744,1.982,1.982,0,0,1-.275-1.018v-4.244a1.984,1.984,0,0,1,.275-1.018,2.027,2.027,0,0,1,.744-.744,1.989,1.989,0,0,1,1.017-.274h2.538a6.457,6.457,0,0,1,2.334.439v-.439Zm-2.505,6.2v-4.087a6.378,6.378,0,0,0-2.334-.439h-.8a1.227,1.227,0,0,0-.9.368,1.227,1.227,0,0,0-.368.9v2.427a1.224,1.224,0,0,0,.368.9,1.223,1.223,0,0,0,.9.368h.8A6.4,6.4,0,0,0,1677.936-76.892Z" fill="#fff"/>
        <path d="M1693.878-82.765a2.441,2.441,0,0,1,.893.892,2.388,2.388,0,0,1,.329,1.222v5.873h-2.522v-5.371a1.227,1.227,0,0,0-.368-.9,1.207,1.207,0,0,0-.885-.368h-.376a1.21,1.21,0,0,0-.885.368,1.227,1.227,0,0,0-.368.9v5.371h-2.521v-5.371a1.226,1.226,0,0,0-.367-.9,1.21,1.21,0,0,0-.885-.368h-.36a1.225,1.225,0,0,0-.9.368,1.223,1.223,0,0,0-.368.9v5.371h-2.506v-5.873a2.379,2.379,0,0,1,.329-1.222,2.442,2.442,0,0,1,.893-.892,2.382,2.382,0,0,1,1.221-.329h2.349a3.157,3.157,0,0,1,1.863.611,3.1,3.1,0,0,1,1.849-.611h2.364A2.386,2.386,0,0,1,1693.878-82.765Z" fill="#fff"/>
        <path d="M1703.338-83.094a1.584,1.584,0,0,1,1.166.478,1.588,1.588,0,0,1,.478,1.166v1.833a1.6,1.6,0,0,1-.478,1.159,1.571,1.571,0,0,1-1.166.485h-4.386v.564a.924.924,0,0,0,.282.674.918.918,0,0,0,.674.281h4.886v1.676h-5.716a2.581,2.581,0,0,1-1.323-.352,2.63,2.63,0,0,1-.956-.955,2.578,2.578,0,0,1-.353-1.324v-3.054a2.575,2.575,0,0,1,.353-1.323,2.625,2.625,0,0,1,.956-.956,2.571,2.571,0,0,1,1.323-.352Zm-1.073,3.25a.63.63,0,0,0,.2-.462v-.454a.629.629,0,0,0-.2-.462.632.632,0,0,0-.462-.2h-1.9a.919.919,0,0,0-.674.282.922.922,0,0,0-.282.673v.815h2.851A.632.632,0,0,0,1702.265-79.844Z" fill="#fff"/>
        <path d="M1724.292-80.651a3.169,3.169,0,0,1,1.144,1.144,3.073,3.073,0,0,1,.422,1.581,3.077,3.077,0,0,1-.422,1.582,3.167,3.167,0,0,1-1.144,1.143,3.037,3.037,0,0,1-1.566.423h-6.766v-1.691h5.92a1.433,1.433,0,0,0,1.042-.423,1.4,1.4,0,0,0,.431-1.034,1.393,1.393,0,0,0-.431-1.033,1.433,1.433,0,0,0-1.042-.423h-3.273a3,3,0,0,1-1.55-.415,3.091,3.091,0,0,1-1.12-1.128,3.009,3.009,0,0,1-.416-1.542,3,3,0,0,1,.416-1.551,3.108,3.108,0,0,1,1.12-1.12,3,3,0,0,1,1.55-.415h6.624v1.676h-5.793a1.362,1.362,0,0,0-1,.415,1.36,1.36,0,0,0-.415.995,1.332,1.332,0,0,0,.415.986,1.37,1.37,0,0,0,1,.407h3.288A3.037,3.037,0,0,1,1724.292-80.651Z" fill="#fff"/>
        <path d="M1730.1-77.409a.919.919,0,0,0,.281.674.919.919,0,0,0,.674.281h1.143v1.676h-1.989a2.544,2.544,0,0,1-1.261-.329,2.721,2.721,0,0,1-.955-.885,2.493,2.493,0,0,1-.415-1.229v-4.2h-1.05v-1.676h1.05v-2.443h2.522v2.443h2.1v1.676h-2.1Z" fill="#fff"/>
        <path d="M1742.365-83.094v8.316h-2.506v-.438a6.349,6.349,0,0,1-2.318.438h-2.553a1.98,1.98,0,0,1-1.017-.274,2.012,2.012,0,0,1-.744-.744,1.981,1.981,0,0,1-.275-1.018v-4.244a1.983,1.983,0,0,1,.275-1.018,2.027,2.027,0,0,1,.744-.744,1.99,1.99,0,0,1,1.017-.274h2.537a6.453,6.453,0,0,1,2.334.439v-.439Zm-2.506,6.2v-4.087a6.374,6.374,0,0,0-2.334-.439h-.8a1.226,1.226,0,0,0-.9.368,1.227,1.227,0,0,0-.368.9v2.427a1.224,1.224,0,0,0,.368.9,1.223,1.223,0,0,0,.9.368h.8A6.394,6.394,0,0,0,1739.859-76.892Z" fill="#fff"/>
        <path d="M1746.687-77.409a.919.919,0,0,0,.281.674.919.919,0,0,0,.674.281h1.143v1.676H1746.8a2.544,2.544,0,0,1-1.261-.329,2.721,2.721,0,0,1-.955-.885,2.493,2.493,0,0,1-.415-1.229v-4.2h-1.05v-1.676h1.05v-2.443h2.522v2.443h2.1v1.676h-2.1Z" fill="#fff"/>
        <path d="M1756.428-83.094a1.585,1.585,0,0,1,1.166.478,1.588,1.588,0,0,1,.478,1.166v1.833a1.6,1.6,0,0,1-.478,1.159,1.572,1.572,0,0,1-1.166.485h-4.386v.564a.924.924,0,0,0,.282.674.918.918,0,0,0,.674.281h4.886v1.676h-5.716a2.581,2.581,0,0,1-1.323-.352,2.621,2.621,0,0,1-.956-.955,2.579,2.579,0,0,1-.353-1.324v-3.054a2.575,2.575,0,0,1,.353-1.323,2.617,2.617,0,0,1,.956-.956,2.571,2.571,0,0,1,1.323-.352Zm-1.074,3.25a.631.631,0,0,0,.2-.462v-.454a.63.63,0,0,0-.2-.462.628.628,0,0,0-.461-.2H1753a.919.919,0,0,0-.674.282.922.922,0,0,0-.282.673v.815h2.851A.628.628,0,0,0,1755.354-79.844Z" fill="#fff"/>
      </g>
    </g>
    <g style="isolation: isolate">
      <g style="isolation: isolate">
        <path d="M1859.134,111.9h2.521v10.791h-2.521v-7.016l-2.083,3.163h-2.49l-2.193-3.242v7.1h-2.521V111.9h2.521l3.43,5.059Z" fill="#fff"/>
        <path d="M1872.4,114.378v8.316h-2.505v-.439a6.334,6.334,0,0,1-2.319.439h-2.553a1.979,1.979,0,0,1-1.017-.274,2.026,2.026,0,0,1-.744-.744,1.984,1.984,0,0,1-.275-1.018v-4.244a1.982,1.982,0,0,1,.275-1.018,2.019,2.019,0,0,1,.744-.744,1.979,1.979,0,0,1,1.017-.274h2.538a6.476,6.476,0,0,1,2.334.438v-.438Zm-2.505,6.2v-4.088a6.4,6.4,0,0,0-2.334-.438h-.8a1.255,1.255,0,0,0-1.269,1.268v2.428a1.257,1.257,0,0,0,1.269,1.268h.8A6.4,6.4,0,0,0,1869.893,120.58Z" fill="#fff"/>
        <path d="M1879.634,122.694v-5.372a1.255,1.255,0,0,0-1.269-1.268h-.971a1.255,1.255,0,0,0-1.269,1.268v5.372h-2.506v-5.873a2.386,2.386,0,0,1,.329-1.222,2.448,2.448,0,0,1,.893-.892,2.376,2.376,0,0,1,1.222-.329h3.633a2.407,2.407,0,0,1,1.238.329,2.446,2.446,0,0,1,.892.892,2.386,2.386,0,0,1,.329,1.222v5.873Z" fill="#fff"/>
        <path d="M1892.789,114.378v8.316h-2.506v-.439a6.329,6.329,0,0,1-2.318.439h-2.553a1.979,1.979,0,0,1-1.017-.274,2.037,2.037,0,0,1-.745-.744,1.993,1.993,0,0,1-.274-1.018v-4.244a1.99,1.99,0,0,1,.274-1.018,2.029,2.029,0,0,1,.745-.744,1.979,1.979,0,0,1,1.017-.274h2.537a6.472,6.472,0,0,1,2.334.438v-.438Zm-2.506,6.2v-4.088a6.393,6.393,0,0,0-2.334-.438h-.8a1.255,1.255,0,0,0-1.268,1.268v2.428a1.257,1.257,0,0,0,1.268,1.268h.8A6.393,6.393,0,0,0,1890.283,120.58Z" fill="#fff"/>
        <path d="M1903.438,114.378v8.143a2.588,2.588,0,0,1-.352,1.324,2.688,2.688,0,0,1-.955.963,2.536,2.536,0,0,1-1.323.36h-6.438v-1.691h5.592a.936.936,0,0,0,.688-.282.918.918,0,0,0,.283-.674v-1.3a8.617,8.617,0,0,1-2.96.6h-1.927a1.986,1.986,0,0,1-1.018-.274,2.065,2.065,0,0,1-1.018-1.778v-3.351a1.99,1.99,0,0,1,.274-1.018,2.034,2.034,0,0,1,.744-.744,1.986,1.986,0,0,1,1.018-.274h1.911a9.064,9.064,0,0,1,2.976.579v-.579Zm-4.855,5.747a10.89,10.89,0,0,0,2.35-.688v-2.679a11.846,11.846,0,0,0-2.35-.7h-.8a1.233,1.233,0,0,0-.892.367,1.216,1.216,0,0,0-.376.9v1.535a1.212,1.212,0,0,0,.376.9,1.23,1.23,0,0,0,.892.368Z" fill="#fff"/>
        <path d="M1911.551,114.378a1.63,1.63,0,0,1,1.644,1.644v1.832a1.6,1.6,0,0,1-.478,1.16,1.576,1.576,0,0,1-1.166.485h-4.386v.564a.963.963,0,0,0,.956.955h4.886v1.676h-5.716a2.572,2.572,0,0,1-1.323-.353,2.613,2.613,0,0,1-.956-.955,2.575,2.575,0,0,1-.353-1.323v-3.054a2.572,2.572,0,0,1,.353-1.323,2.616,2.616,0,0,1,.956-.956,2.571,2.571,0,0,1,1.323-.352Zm-1.073,3.249a.632.632,0,0,0,.2-.461v-.455a.669.669,0,0,0-.658-.657h-1.9a.961.961,0,0,0-.956.955v.814h2.851A.632.632,0,0,0,1910.478,117.627Z" fill="#fff"/>
      </g>
    </g>
    <g style="isolation: isolate">
      <g style="isolation: isolate">
        <path d="M1969.9,140.891h2.522v10.79H1969.9v-7.016l-2.083,3.164h-2.49l-2.192-3.243v7.1h-2.522v-10.79h2.522l3.429,5.058Z" fill="#fff"/>
        <path d="M1983.165,143.365v8.316h-2.506v-.438a6.35,6.35,0,0,1-2.318.438h-2.553a1.979,1.979,0,0,1-1.017-.274,2.022,2.022,0,0,1-.745-.744,1.99,1.99,0,0,1-.274-1.018V145.4a1.993,1.993,0,0,1,.274-1.018,2.037,2.037,0,0,1,.745-.744,1.989,1.989,0,0,1,1.017-.274h2.537a6.457,6.457,0,0,1,2.334.439v-.439Zm-2.506,6.2v-4.088a6.394,6.394,0,0,0-2.334-.438h-.8a1.256,1.256,0,0,0-1.268,1.269v2.427a1.256,1.256,0,0,0,1.268,1.268h.8A6.4,6.4,0,0,0,1980.659,149.567Z" fill="#fff"/>
        <path d="M1990.4,151.681V146.31a1.257,1.257,0,0,0-1.268-1.269h-.972a1.257,1.257,0,0,0-1.268,1.269v5.371h-2.506v-5.873a2.388,2.388,0,0,1,.329-1.222,2.446,2.446,0,0,1,.892-.892,2.388,2.388,0,0,1,1.222-.329h3.634a2.416,2.416,0,0,1,1.237.329,2.448,2.448,0,0,1,.893.892,2.388,2.388,0,0,1,.329,1.222v5.873Z" fill="#fff"/>
        <path d="M2003.556,143.365v8.316h-2.506v-.438a6.355,6.355,0,0,1-2.319.438h-2.552a1.983,1.983,0,0,1-1.018-.274,2.027,2.027,0,0,1-.744-.744,1.981,1.981,0,0,1-.274-1.018V145.4a1.983,1.983,0,0,1,.274-1.018,2.042,2.042,0,0,1,.744-.744,1.993,1.993,0,0,1,1.018-.274h2.537a6.457,6.457,0,0,1,2.334.439v-.439Zm-2.506,6.2v-4.088a6.394,6.394,0,0,0-2.334-.438h-.8a1.258,1.258,0,0,0-1.269,1.269v2.427a1.258,1.258,0,0,0,1.269,1.268h.8A6.4,6.4,0,0,0,2001.05,149.567Z" fill="#fff"/>
        <path d="M2014.2,143.365v8.144a2.584,2.584,0,0,1-.352,1.323,2.691,2.691,0,0,1-.956.963,2.525,2.525,0,0,1-1.323.361h-6.437v-1.692h5.592a.937.937,0,0,0,.688-.282.918.918,0,0,0,.282-.673v-1.3a8.609,8.609,0,0,1-2.96.6h-1.926a2.024,2.024,0,0,1-1.762-1.026,2.024,2.024,0,0,1-.275-1.026V145.4a1.984,1.984,0,0,1,.275-1.018,2.026,2.026,0,0,1,.744-.744,1.99,1.99,0,0,1,1.018-.274h1.911a9.085,9.085,0,0,1,2.975.579v-.579Zm-4.855,5.748a10.9,10.9,0,0,0,2.349-.689v-2.678a11.806,11.806,0,0,0-2.349-.705h-.8a1.236,1.236,0,0,0-.893.368,1.215,1.215,0,0,0-.376.9v1.534a1.215,1.215,0,0,0,.376.9,1.236,1.236,0,0,0,.893.368Z" fill="#fff"/>
        <path d="M2022.317,143.365a1.634,1.634,0,0,1,1.645,1.644v1.833a1.6,1.6,0,0,1-.479,1.159,1.571,1.571,0,0,1-1.166.485h-4.385v.564a.961.961,0,0,0,.956.955h4.885v1.676h-5.715a2.585,2.585,0,0,1-1.324-.352,2.638,2.638,0,0,1-.956-.955,2.587,2.587,0,0,1-.352-1.324V146a2.583,2.583,0,0,1,.352-1.323,2.633,2.633,0,0,1,.956-.956,2.575,2.575,0,0,1,1.324-.352Zm-1.073,3.25a.63.63,0,0,0,.2-.462V145.7a.669.669,0,0,0-.658-.658h-1.894a.963.963,0,0,0-.956.955v.815h2.85A.63.63,0,0,0,2021.244,146.615Z" fill="#fff"/>
      </g>
    </g>
    <g style="isolation: isolate">
      <g style="isolation: isolate">
        <path d="M1614.721,276.709a2.318,2.318,0,0,0-.823.823,2.18,2.18,0,0,0-.3,1.128v2.9a2.221,2.221,0,0,0,.3,1.135,2.283,2.283,0,0,0,.823.83,2.172,2.172,0,0,0,1.128.306h3.053v-4.37h2.506V285.5H1615a3.836,3.836,0,0,1-1.974-.532,3.9,3.9,0,0,1-1.432-1.441,3.862,3.862,0,0,1-.525-1.973v-2.9a3.824,3.824,0,0,1,.525-1.966,3.927,3.927,0,0,1,1.432-1.433,3.836,3.836,0,0,1,1.974-.532h6.4V276.4h-5.559A2.18,2.18,0,0,0,1614.721,276.709Z" fill="#fff"/>
        <path d="M1632.073,277.188V285.5h-2.506v-.438a6.35,6.35,0,0,1-2.318.438H1624.7a1.98,1.98,0,0,1-1.017-.274,2.011,2.011,0,0,1-.744-.744,1.98,1.98,0,0,1-.275-1.018v-4.244a1.98,1.98,0,0,1,.275-1.017,2.021,2.021,0,0,1,.744-.745,1.989,1.989,0,0,1,1.017-.273h2.537a6.451,6.451,0,0,1,2.334.438v-.438Zm-2.506,6.2V279.3a6.374,6.374,0,0,0-2.334-.439h-.8a1.257,1.257,0,0,0-1.269,1.269v2.427a1.258,1.258,0,0,0,1.269,1.269h.8A6.374,6.374,0,0,0,1629.567,283.389Z" fill="#fff"/>
        <path d="M1645.51,277.516a2.426,2.426,0,0,1,.892.893,2.375,2.375,0,0,1,.329,1.221V285.5h-2.521v-5.371a1.228,1.228,0,0,0-.368-.9,1.207,1.207,0,0,0-.885-.368h-.376a1.208,1.208,0,0,0-.885.368,1.228,1.228,0,0,0-.368.9V285.5h-2.521v-5.371a1.224,1.224,0,0,0-.368-.9,1.209,1.209,0,0,0-.884-.368h-.361a1.256,1.256,0,0,0-1.268,1.269V285.5h-2.506V279.63a2.375,2.375,0,0,1,.329-1.221,2.436,2.436,0,0,1,.893-.893,2.381,2.381,0,0,1,1.221-.328h2.349a3.156,3.156,0,0,1,1.863.61,3.1,3.1,0,0,1,1.849-.61h2.364A2.385,2.385,0,0,1,1645.51,277.516Z" fill="#fff"/>
        <path d="M1654.97,277.188a1.631,1.631,0,0,1,1.644,1.644v1.832a1.6,1.6,0,0,1-.478,1.159,1.573,1.573,0,0,1-1.166.486h-4.386v.564a.963.963,0,0,0,.956.955h4.886V285.5h-5.716a2.569,2.569,0,0,1-1.323-.352,2.614,2.614,0,0,1-.956-.955,2.575,2.575,0,0,1-.353-1.323v-3.055a2.575,2.575,0,0,1,.353-1.323,2.606,2.606,0,0,1,.956-.955,2.569,2.569,0,0,1,1.323-.352Zm-1.074,3.249a.63.63,0,0,0,.2-.462v-.454a.671.671,0,0,0-.658-.658h-1.9a.963.963,0,0,0-.956.955v.815h2.851A.628.628,0,0,0,1653.9,280.437Z" fill="#fff"/>
        <path d="M1670.779,276.67a2.017,2.017,0,0,0-.736.729,1.939,1.939,0,0,0-.274,1.01v.862h7.831v1.675h-7.831v.862a1.936,1.936,0,0,0,.274,1.009,2.017,2.017,0,0,0,.736.729,1.954,1.954,0,0,0,.994.266h5.827V285.5h-6.657a3.556,3.556,0,0,1-1.847-.5,3.711,3.711,0,0,1-1.339-1.347,3.6,3.6,0,0,1-.493-1.847v-3.4a3.6,3.6,0,0,1,.493-1.848,3.652,3.652,0,0,1,1.339-1.339,3.6,3.6,0,0,1,1.847-.493h6.657V276.4h-5.827A1.964,1.964,0,0,0,1670.779,276.67Z" fill="#fff"/>
        <path d="M1684.8,277.188h2.52l-3.272,8.315h-2.522l-3.211-8.315h2.522l1.958,5.074Z" fill="#fff"/>
        <path d="M1694.905,277.188a1.632,1.632,0,0,1,1.645,1.644v1.832a1.593,1.593,0,0,1-.479,1.159,1.572,1.572,0,0,1-1.166.486h-4.385v.564a.963.963,0,0,0,.956.955h4.885V285.5h-5.715a2.575,2.575,0,0,1-1.324-.352,2.63,2.63,0,0,1-.956-.955,2.584,2.584,0,0,1-.352-1.323v-3.055a2.584,2.584,0,0,1,.352-1.323,2.622,2.622,0,0,1,.956-.955,2.575,2.575,0,0,1,1.324-.352Zm-1.073,3.249a.629.629,0,0,0,.2-.462v-.454a.669.669,0,0,0-.658-.658h-1.894a.963.963,0,0,0-.956.955v.815h2.85A.63.63,0,0,0,1693.832,280.437Z" fill="#fff"/>
        <path d="M1703.784,285.5v-5.371a1.257,1.257,0,0,0-1.268-1.269h-.972a1.258,1.258,0,0,0-1.269,1.269V285.5h-2.505V279.63a2.385,2.385,0,0,1,.329-1.221,2.433,2.433,0,0,1,.892-.893,2.385,2.385,0,0,1,1.222-.328h3.634a2.415,2.415,0,0,1,1.237.328,2.445,2.445,0,0,1,.893.893,2.4,2.4,0,0,1,.329,1.221V285.5Z" fill="#fff"/>
        <path d="M1710.628,282.873a.961.961,0,0,0,.955.955h1.144V285.5h-1.99a2.527,2.527,0,0,1-1.26-.329,2.721,2.721,0,0,1-.956-.884,2.51,2.51,0,0,1-.415-1.23v-4.2h-1.049v-1.675h1.049v-2.444h2.522v2.444h2.1v1.675h-2.1Z" fill="#fff"/>
        <path d="M1716.579,278.863a.775.775,0,0,0-.58.243.814.814,0,0,0-.234.587.8.8,0,0,0,.234.572.774.774,0,0,0,.58.242h2.693a2.445,2.445,0,0,1,1.261.337,2.533,2.533,0,0,1,.908.908,2.438,2.438,0,0,1,.337,1.261,2.4,2.4,0,0,1-.337,1.245,2.52,2.52,0,0,1-.908.909,2.444,2.444,0,0,1-1.261.336h-5.7v-1.675h4.87a.8.8,0,0,0,.588-.243.786.786,0,0,0,.242-.572.828.828,0,0,0-.83-.83h-2.693a2.455,2.455,0,0,1-1.253-.336,2.5,2.5,0,0,1-.916-.909,2.4,2.4,0,0,1-.337-1.245,2.429,2.429,0,0,1,.337-1.26,2.5,2.5,0,0,1,.916-.909,2.455,2.455,0,0,1,1.253-.336h5.638v1.675Z" fill="#fff"/>
      </g>
    </g>
    <g style="isolation: isolate">
      <g style="isolation: isolate">
        <path d="M1701.127,184.477a3.1,3.1,0,0,1-.117,2.9,3.2,3.2,0,0,1-1.136,1.135,3,3,0,0,1-1.559.423h-7.5V178.165h7.22a3,3,0,0,1,1.558.423,3.217,3.217,0,0,1,1.136,1.135,3.081,3.081,0,0,1,.195,2.717,3.279,3.279,0,0,1-.634.987A3,3,0,0,1,1701.127,184.477Zm-7.808-1.754h3.885a1.36,1.36,0,0,0,1.01-.423,1.456,1.456,0,0,0,0-2.036,1.36,1.36,0,0,0-1.01-.423h-3.885Zm5.177,2.09a1.379,1.379,0,0,0-1.011-.415h-4.166v2.851h4.166a1.429,1.429,0,0,0,1.011-2.436Z" fill="#fff"/>
        <path d="M1705.19,180.624V186a1.258,1.258,0,0,0,1.269,1.268h.987a1.2,1.2,0,0,0,.885-.368,1.224,1.224,0,0,0,.368-.9v-5.372h2.522V186.5a2.392,2.392,0,0,1-.329,1.221,2.443,2.443,0,0,1-.893.893,2.416,2.416,0,0,1-1.237.329h-3.634a2.385,2.385,0,0,1-1.222-.329,2.433,2.433,0,0,1-.892-.893,2.382,2.382,0,0,1-.329-1.221v-5.873Z" fill="#fff"/>
        <path d="M1721.2,180.624v8.144a2.574,2.574,0,0,1-.352,1.323,2.687,2.687,0,0,1-.955.963,2.538,2.538,0,0,1-1.324.361h-5.622v-1.676h4.792a.91.91,0,0,0,.674-.29.946.946,0,0,0,.281-.681v-1.05a6.255,6.255,0,0,1-2.051.345H1714.7a1.981,1.981,0,0,1-1.018-.274,2.071,2.071,0,0,1-1.018-1.778v-5.387h2.506V185.1a1.209,1.209,0,0,0,.376.9,1.23,1.23,0,0,0,.893.369h.171a6.351,6.351,0,0,0,2.083-.345v-5.4Z" fill="#fff"/>
        <path d="M1722.856,178.181h2.506v2.443h-2.506Zm0,3.069h2.506v7.69h-2.506Z" fill="#fff"/>
        <path d="M1732.816,188.94v-5.372a1.255,1.255,0,0,0-1.268-1.268h-.972a1.255,1.255,0,0,0-1.268,1.268v5.372H1726.8v-5.873a2.386,2.386,0,0,1,.329-1.222,2.446,2.446,0,0,1,.892-.892,2.379,2.379,0,0,1,1.222-.329h3.634a2.406,2.406,0,0,1,1.237.329,2.449,2.449,0,0,1,.893.892,2.386,2.386,0,0,1,.329,1.222v5.873Z" fill="#fff"/>
        <path d="M1748.587,188.94h-2.506V178.149h2.506Z" fill="#fff"/>
        <path d="M1755.948,188.94v-5.372a1.255,1.255,0,0,0-1.268-1.268h-.972a1.257,1.257,0,0,0-1.269,1.268v5.372h-2.505v-5.873a2.386,2.386,0,0,1,.329-1.222,2.439,2.439,0,0,1,.892-.892,2.376,2.376,0,0,1,1.222-.329h3.634a2.407,2.407,0,0,1,1.237.329,2.448,2.448,0,0,1,.893.892,2.4,2.4,0,0,1,.329,1.222v5.873Z" fill="#fff"/>
        <path d="M1762.791,182.3a.774.774,0,0,0-.58.242.818.818,0,0,0-.234.588.794.794,0,0,0,.234.571.775.775,0,0,0,.58.243h2.693a2.435,2.435,0,0,1,1.261.337,2.517,2.517,0,0,1,.908.908,2.434,2.434,0,0,1,.337,1.261,2.4,2.4,0,0,1-.337,1.245,2.517,2.517,0,0,1-.908.908,2.435,2.435,0,0,1-1.261.337h-5.7v-1.676h4.87a.8.8,0,0,0,.588-.243.782.782,0,0,0,.242-.571.826.826,0,0,0-.83-.83h-2.693a2.446,2.446,0,0,1-1.253-.337,2.494,2.494,0,0,1-.916-.908,2.4,2.4,0,0,1-.337-1.245,2.433,2.433,0,0,1,.337-1.261,2.5,2.5,0,0,1,.916-.909,2.454,2.454,0,0,1,1.253-.336h5.638V182.3Z" fill="#fff"/>
        <path d="M1772.078,186.309a.961.961,0,0,0,.955.955h1.144v1.676h-1.989a2.539,2.539,0,0,1-1.261-.329,2.713,2.713,0,0,1-.955-.885,2.492,2.492,0,0,1-.415-1.229v-4.2h-1.05v-1.676h1.05v-2.443h2.521v2.443h2.1V182.3h-2.1Z" fill="#fff"/>
        <path d="M1780.613,182.3H1778.7a1.209,1.209,0,0,0-.885.367,1.228,1.228,0,0,0-.368.9v5.372h-2.521v-5.873a2.386,2.386,0,0,1,.329-1.222,2.446,2.446,0,0,1,.892-.892,2.378,2.378,0,0,1,1.222-.329h3.242Z" fill="#fff"/>
        <path d="M1783.823,180.624V186a1.257,1.257,0,0,0,1.269,1.268h.987a1.2,1.2,0,0,0,.885-.368,1.224,1.224,0,0,0,.368-.9v-5.372h2.522V186.5a2.383,2.383,0,0,1-.33,1.221,2.445,2.445,0,0,1-2.129,1.222h-3.634a2.386,2.386,0,0,1-1.222-.329,2.443,2.443,0,0,1-.893-.893,2.392,2.392,0,0,1-.329-1.221v-5.873Z" fill="#fff"/>
        <path d="M1799.61,188.94h-6.077a2.413,2.413,0,0,1-1.237-.329,2.448,2.448,0,0,1-1.222-2.13v-3.4a2.444,2.444,0,0,1,1.222-2.13,2.4,2.4,0,0,1,1.237-.329h6.077V182.3h-4.761a1.235,1.235,0,0,0-.893.367,1.216,1.216,0,0,0-.376.9V186a1.213,1.213,0,0,0,.376.9,1.232,1.232,0,0,0,.893.368h4.761Z" fill="#fff"/>
        <path d="M1803.933,186.309a.961.961,0,0,0,.955.955h1.143v1.676h-1.989a2.544,2.544,0,0,1-1.261-.329,2.721,2.721,0,0,1-.955-.885,2.492,2.492,0,0,1-.415-1.229v-4.2h-1.05v-1.676h1.05v-2.443h2.522v2.443h2.1V182.3h-2.1Z" fill="#fff"/>
        <path d="M1807,178.181h2.506v2.443H1807Zm0,3.069h2.506v7.69H1807Z" fill="#fff"/>
        <path d="M1818.262,180.953a2.438,2.438,0,0,1,.892.892,2.386,2.386,0,0,1,.329,1.222v3.43a2.382,2.382,0,0,1-.329,1.221,2.445,2.445,0,0,1-2.13,1.222h-3.633a2.373,2.373,0,0,1-1.23-.329,2.468,2.468,0,0,1-.885-.893,2.392,2.392,0,0,1-.329-1.221v-3.43a2.4,2.4,0,0,1,.329-1.222,2.473,2.473,0,0,1,.885-.892,2.363,2.363,0,0,1,1.23-.329h3.633A2.407,2.407,0,0,1,1818.262,180.953Zm-1.3,2.615a1.255,1.255,0,0,0-1.269-1.268h-.971a1.255,1.255,0,0,0-1.269,1.268V186a1.257,1.257,0,0,0,1.269,1.268h.971a1.257,1.257,0,0,0,1.269-1.268Z" fill="#fff"/>
        <path d="M1826.719,188.94v-5.372a1.255,1.255,0,0,0-1.269-1.268h-.971a1.255,1.255,0,0,0-1.269,1.268v5.372H1820.7v-5.873a2.386,2.386,0,0,1,.329-1.222,2.449,2.449,0,0,1,.893-.892,2.375,2.375,0,0,1,1.221-.329h3.634a2.41,2.41,0,0,1,1.238.329,2.446,2.446,0,0,1,.892.892,2.386,2.386,0,0,1,.329,1.222v5.873Z" fill="#fff"/>
      </g>
    </g>
    <g style="isolation: isolate">
      <g style="isolation: isolate">
        <path d="M1662.958,399.441a3.177,3.177,0,0,1,1.144,1.144,3.174,3.174,0,0,1,0,3.163,3.177,3.177,0,0,1-1.144,1.144,3.036,3.036,0,0,1-1.566.422h-6.766v-1.691h5.92a1.433,1.433,0,0,0,1.042-.423,1.455,1.455,0,0,0,0-2.067,1.433,1.433,0,0,0-1.042-.423h-3.273a2.992,2.992,0,0,1-1.55-.415,3.076,3.076,0,0,1-1.12-1.128,3.089,3.089,0,0,1,0-3.093,3.1,3.1,0,0,1,1.12-1.119,2.992,2.992,0,0,1,1.55-.415h6.624v1.675H1658.1a1.417,1.417,0,0,0-1.411,1.41,1.332,1.332,0,0,0,.415.986,1.371,1.371,0,0,0,1,.408h3.288A3.036,3.036,0,0,1,1662.958,399.441Z" fill="#fff"/>
        <path d="M1672.559,397a1.632,1.632,0,0,1,1.644,1.645v1.833a1.6,1.6,0,0,1-.478,1.158,1.572,1.572,0,0,1-1.166.485h-4.386v.565a.965.965,0,0,0,.956.955h4.886v1.675H1668.3a2.569,2.569,0,0,1-1.323-.352,2.606,2.606,0,0,1-.956-.955,2.577,2.577,0,0,1-.353-1.323V399.63a2.576,2.576,0,0,1,.353-1.324,2.614,2.614,0,0,1,.956-.955A2.57,2.57,0,0,1,1668.3,397Zm-1.074,3.25a.631.631,0,0,0,.2-.462v-.454a.671.671,0,0,0-.659-.658h-1.894a.963.963,0,0,0-.956.956v.813h2.85A.629.629,0,0,0,1671.485,400.248Z" fill="#fff"/>
        <path d="M1678.525,402.684a.965.965,0,0,0,.955.955h1.144v1.675h-1.989a2.534,2.534,0,0,1-1.261-.329,2.7,2.7,0,0,1-.955-.884,2.5,2.5,0,0,1-.415-1.23v-4.2h-1.05V397H1676v-2.442h2.521V397h2.1v1.676h-2.1Z" fill="#fff"/>
        <path d="M1684.477,402.684a.963.963,0,0,0,.955.955h1.143v1.675h-1.989a2.534,2.534,0,0,1-1.261-.329,2.709,2.709,0,0,1-.955-.884,2.5,2.5,0,0,1-.415-1.23v-4.2h-1.05V397h1.05v-2.442h2.522V397h2.1v1.676h-2.1Z" fill="#fff"/>
        <path d="M1690.067,405.314h-2.521V394.556h2.521Z" fill="#fff"/>
        <path d="M1698.4,397a1.634,1.634,0,0,1,1.645,1.645v1.833a1.592,1.592,0,0,1-.479,1.158,1.571,1.571,0,0,1-1.166.485h-4.385v.565a.965.965,0,0,0,.956.955h4.885v1.675h-5.715a2.575,2.575,0,0,1-1.324-.352,2.621,2.621,0,0,1-.956-.955,2.586,2.586,0,0,1-.352-1.323V399.63a2.585,2.585,0,0,1,.352-1.324,2.629,2.629,0,0,1,.956-.955,2.576,2.576,0,0,1,1.324-.353Zm-1.073,3.25a.63.63,0,0,0,.2-.462v-.454a.67.67,0,0,0-.658-.658h-1.894a.963.963,0,0,0-.956.956v.813h2.85A.629.629,0,0,0,1697.325,400.248Z" fill="#fff"/>
        <path d="M1713.292,405.314h-2.506V394.523h2.506Z" fill="#fff"/>
        <path d="M1720.653,405.314v-5.372a1.256,1.256,0,0,0-1.268-1.268h-.972a1.256,1.256,0,0,0-1.268,1.268v5.372h-2.506v-5.873a2.385,2.385,0,0,1,.329-1.221,2.448,2.448,0,0,1,.892-.893,2.389,2.389,0,0,1,1.222-.329h3.634a2.416,2.416,0,0,1,1.237.329,2.451,2.451,0,0,1,.893.893,2.394,2.394,0,0,1,.329,1.221v5.873Z" fill="#fff"/>
        <path d="M1727.5,398.674a.775.775,0,0,0-.58.243.814.814,0,0,0-.234.587.8.8,0,0,0,.234.572.774.774,0,0,0,.58.242h2.693a2.445,2.445,0,0,1,1.261.337,2.532,2.532,0,0,1,.908.908,2.438,2.438,0,0,1,.337,1.261,2.4,2.4,0,0,1-.337,1.245,2.527,2.527,0,0,1-.908.909,2.444,2.444,0,0,1-1.261.336h-5.7v-1.675h4.87a.8.8,0,0,0,.588-.243.784.784,0,0,0,.242-.572.828.828,0,0,0-.83-.83h-2.693a2.446,2.446,0,0,1-1.253-.337,2.479,2.479,0,0,1-.916-.908,2.4,2.4,0,0,1-.337-1.245,2.438,2.438,0,0,1,.337-1.261,2.5,2.5,0,0,1,.916-.908,2.446,2.446,0,0,1,1.253-.337h5.638v1.676Z" fill="#fff"/>
        <path d="M1736.783,402.684a.963.963,0,0,0,.955.955h1.144v1.675h-1.989a2.528,2.528,0,0,1-1.261-.329,2.7,2.7,0,0,1-.955-.884,2.5,2.5,0,0,1-.415-1.23v-4.2h-1.05V397h1.05v-2.442h2.521V397h2.1v1.676h-2.1Z" fill="#fff"/>
        <path d="M1745.318,398.674h-1.911a1.21,1.21,0,0,0-.885.368,1.228,1.228,0,0,0-.368.9v5.372h-2.521v-5.873a2.385,2.385,0,0,1,.329-1.221,2.456,2.456,0,0,1,.892-.893,2.388,2.388,0,0,1,1.222-.329h3.242Z" fill="#fff"/>
        <path d="M1748.528,397v5.372a1.257,1.257,0,0,0,1.269,1.269h.987a1.2,1.2,0,0,0,.885-.368,1.227,1.227,0,0,0,.368-.9V397h2.522v5.873a2.387,2.387,0,0,1-.33,1.222,2.446,2.446,0,0,1-2.129,1.221h-3.634a2.376,2.376,0,0,1-1.222-.329,2.423,2.423,0,0,1-.892-.892,2.387,2.387,0,0,1-.33-1.222V397Z" fill="#fff"/>
        <path d="M1764.315,405.314h-6.077a2.4,2.4,0,0,1-1.237-.329,2.445,2.445,0,0,1-1.222-2.13v-3.4a2.426,2.426,0,0,1,.329-1.237,2.451,2.451,0,0,1,.893-.893,2.413,2.413,0,0,1,1.237-.329h6.077v1.676h-4.761a1.236,1.236,0,0,0-.893.368,1.216,1.216,0,0,0-.376.9v2.428a1.215,1.215,0,0,0,.376.9,1.232,1.232,0,0,0,.893.368h4.761Z" fill="#fff"/>
        <path d="M1768.638,402.684a.963.963,0,0,0,.955.955h1.143v1.675h-1.989a2.534,2.534,0,0,1-1.261-.329,2.709,2.709,0,0,1-.955-.884,2.5,2.5,0,0,1-.415-1.23v-4.2h-1.05V397h1.05v-2.442h2.522V397h2.1v1.676h-2.1Z" fill="#fff"/>
        <path d="M1771.707,394.556h2.506V397h-2.506Zm0,3.069h2.506v7.689h-2.506Z" fill="#fff"/>
        <path d="M1782.967,397.327a2.441,2.441,0,0,1,.892.893,2.385,2.385,0,0,1,.329,1.221v3.43a2.386,2.386,0,0,1-.329,1.222,2.446,2.446,0,0,1-2.13,1.221H1778.1a2.363,2.363,0,0,1-1.23-.329,2.458,2.458,0,0,1-.885-.892,2.4,2.4,0,0,1-.329-1.222v-3.43a2.394,2.394,0,0,1,.329-1.221,2.477,2.477,0,0,1,.885-.893,2.373,2.373,0,0,1,1.23-.329h3.633A2.418,2.418,0,0,1,1782.967,397.327Zm-1.3,2.615a1.257,1.257,0,0,0-1.269-1.268h-.971a1.257,1.257,0,0,0-1.269,1.268v2.428a1.257,1.257,0,0,0,1.269,1.269h.971a1.257,1.257,0,0,0,1.269-1.269Z" fill="#fff"/>
        <path d="M1791.424,405.314v-5.372a1.256,1.256,0,0,0-1.269-1.268h-.971a1.256,1.256,0,0,0-1.269,1.268v5.372h-2.506v-5.873a2.394,2.394,0,0,1,.329-1.221,2.451,2.451,0,0,1,.893-.893,2.386,2.386,0,0,1,1.222-.329h3.633a2.417,2.417,0,0,1,1.238.329,2.448,2.448,0,0,1,.892.893,2.385,2.385,0,0,1,.329,1.221v5.873Z" fill="#fff"/>
      </g>
    </g>
    <g style="isolation: isolate">
      <g style="isolation: isolate">
        <path d="M1487.684-84.637a2.3,2.3,0,0,0-.823.822,2.185,2.185,0,0,0-.3,1.128v2.9a2.227,2.227,0,0,0,.3,1.136,2.29,2.29,0,0,0,.823.83,2.18,2.18,0,0,0,1.128.305h3.053v-4.37h2.506v6.046h-6.405a3.838,3.838,0,0,1-1.974-.533,3.9,3.9,0,0,1-1.432-1.44,3.868,3.868,0,0,1-.525-1.974v-2.9a3.827,3.827,0,0,1,.525-1.966,3.925,3.925,0,0,1,1.432-1.432,3.838,3.838,0,0,1,1.974-.533h6.405v1.676h-5.559A2.171,2.171,0,0,0,1487.684-84.637Z" fill="#fff"/>
        <path d="M1505.036-84.159v8.316h-2.506v-.439a6.33,6.33,0,0,1-2.318.439h-2.553a1.989,1.989,0,0,1-1.017-.274,2.037,2.037,0,0,1-.745-.744,1.993,1.993,0,0,1-.274-1.018v-4.245a1.989,1.989,0,0,1,.274-1.017,2.022,2.022,0,0,1,.745-.744,1.98,1.98,0,0,1,1.017-.274h2.537a6.473,6.473,0,0,1,2.334.438v-.438Zm-2.506,6.2v-4.087a6.394,6.394,0,0,0-2.334-.438h-.8a1.225,1.225,0,0,0-.9.367,1.228,1.228,0,0,0-.368.9v2.427a1.227,1.227,0,0,0,.368.9,1.226,1.226,0,0,0,.9.368h.8A6.374,6.374,0,0,0,1502.53-77.958Z" fill="#fff"/>
        <path d="M1518.473-83.831a2.448,2.448,0,0,1,.892.893,2.376,2.376,0,0,1,.329,1.222v5.873h-2.521v-5.372a1.228,1.228,0,0,0-.368-.9,1.206,1.206,0,0,0-.885-.367h-.376a1.207,1.207,0,0,0-.885.367,1.228,1.228,0,0,0-.368.9v5.372h-2.521v-5.372a1.228,1.228,0,0,0-.368-.9,1.208,1.208,0,0,0-.884-.367h-.361a1.224,1.224,0,0,0-.9.367,1.224,1.224,0,0,0-.368.9v5.372h-2.506v-5.873a2.375,2.375,0,0,1,.329-1.222,2.456,2.456,0,0,1,.892-.893,2.385,2.385,0,0,1,1.222-.328h2.349a3.15,3.15,0,0,1,1.863.611,3.09,3.09,0,0,1,1.849-.611h2.364A2.387,2.387,0,0,1,1518.473-83.831Z" fill="#fff"/>
        <path d="M1527.933-84.159a1.588,1.588,0,0,1,1.166.477,1.591,1.591,0,0,1,.478,1.167v1.832a1.6,1.6,0,0,1-.478,1.16,1.576,1.576,0,0,1-1.166.485h-4.386v.564a.922.922,0,0,0,.282.673.919.919,0,0,0,.674.282h4.886v1.676h-5.716a2.57,2.57,0,0,1-1.323-.353,2.614,2.614,0,0,1-.956-.955,2.575,2.575,0,0,1-.353-1.323v-3.054a2.579,2.579,0,0,1,.353-1.324,2.621,2.621,0,0,1,.956-.955,2.569,2.569,0,0,1,1.323-.352Zm-1.074,3.249a.63.63,0,0,0,.2-.462v-.454a.633.633,0,0,0-.2-.462.632.632,0,0,0-.462-.195H1524.5a.918.918,0,0,0-.674.281.924.924,0,0,0-.282.674v.814h2.85A.629.629,0,0,0,1526.859-80.91Z" fill="#fff"/>
        <path d="M1548.887-81.716a3.163,3.163,0,0,1,1.143,1.143,3.068,3.068,0,0,1,.423,1.582,3.071,3.071,0,0,1-.423,1.582,3.163,3.163,0,0,1-1.143,1.143,3.04,3.04,0,0,1-1.567.423h-6.765v-1.692h5.92a1.435,1.435,0,0,0,1.042-.423,1.391,1.391,0,0,0,.43-1.033,1.394,1.394,0,0,0-.43-1.034,1.435,1.435,0,0,0-1.042-.423H1543.2a3,3,0,0,1-1.551-.415,3.1,3.1,0,0,1-1.12-1.127,3.019,3.019,0,0,1-.415-1.543,3,3,0,0,1,.415-1.55,3.123,3.123,0,0,1,1.12-1.12,3.008,3.008,0,0,1,1.551-.415h6.624v1.676h-5.794a1.356,1.356,0,0,0-.995.415,1.359,1.359,0,0,0-.415.994,1.333,1.333,0,0,0,.415.987,1.368,1.368,0,0,0,.995.407h3.288A3.04,3.04,0,0,1,1548.887-81.716Z" fill="#fff"/>
        <path d="M1554.7-78.474a.918.918,0,0,0,.282.673.92.92,0,0,0,.673.282h1.144v1.676h-1.989a2.541,2.541,0,0,1-1.261-.329,2.723,2.723,0,0,1-.955-.885,2.493,2.493,0,0,1-.415-1.23v-4.2h-1.05v-1.676h1.05V-86.6h2.521v2.444h2.1v1.676h-2.1Z" fill="#fff"/>
        <path d="M1566.96-84.159v8.316h-2.506v-.439a6.329,6.329,0,0,1-2.318.439h-2.553a2,2,0,0,1-1.018-.274,2.041,2.041,0,0,1-.744-.744,1.993,1.993,0,0,1-.274-1.018v-4.245a1.989,1.989,0,0,1,.274-1.017,2.026,2.026,0,0,1,.744-.744,1.986,1.986,0,0,1,1.018-.274h2.537a6.477,6.477,0,0,1,2.334.438v-.438Zm-2.506,6.2v-4.087a6.394,6.394,0,0,0-2.334-.438h-.8a1.225,1.225,0,0,0-.9.367,1.228,1.228,0,0,0-.368.9v2.427a1.227,1.227,0,0,0,.368.9,1.226,1.226,0,0,0,.9.368h.8A6.374,6.374,0,0,0,1564.454-77.958Z" fill="#fff"/>
        <path d="M1571.281-78.474a.918.918,0,0,0,.282.673.92.92,0,0,0,.673.282h1.144v1.676h-1.989a2.539,2.539,0,0,1-1.261-.329,2.722,2.722,0,0,1-.955-.885,2.492,2.492,0,0,1-.415-1.23v-4.2h-1.05v-1.676h1.05V-86.6h2.521v2.444h2.1v1.676h-2.1Z" fill="#fff"/>
        <path d="M1581.022-84.159a1.587,1.587,0,0,1,1.166.477,1.588,1.588,0,0,1,.479,1.167v1.832a1.6,1.6,0,0,1-.479,1.16,1.575,1.575,0,0,1-1.166.485h-4.385v.564a.918.918,0,0,0,.282.673.917.917,0,0,0,.674.282h4.886v1.676h-5.716a2.576,2.576,0,0,1-1.324-.353,2.629,2.629,0,0,1-.956-.955,2.584,2.584,0,0,1-.352-1.323v-3.054a2.587,2.587,0,0,1,.352-1.324,2.636,2.636,0,0,1,.956-.955,2.575,2.575,0,0,1,1.324-.352Zm-1.073,3.249a.63.63,0,0,0,.2-.462v-.454a.633.633,0,0,0-.2-.462.633.633,0,0,0-.462-.195h-1.894a.916.916,0,0,0-.674.281.92.92,0,0,0-.282.674v.814h2.85A.63.63,0,0,0,1579.949-80.91Z" fill="#fff"/>
      </g>
    </g>
    <g>
      <path d="M1881.51-5.127l-8.189,1.752-5.653,6.035,2.538-7.787-2.538-7.785,5.653,6.034Z" fill="#bd3454"/>
    </g>
    <g>
      <path d="M2023.357-5.044l8.066-1.753,5.56-6.037-2.506,7.79,2.506,7.79-5.56-6.038Z" fill="#bd3454"/>
    </g>
    <g>
      <path d="M1883.278-20.675l-8.374.011-6.783,4.726,4.1-7.088-.862-8.141,4.273,7.077Z" fill="#bd3454"/>
    </g>
    <g>
      <path d="M2021.412,8.69l8.374-.011,6.783-4.726-4.1,7.088.862,8.142-4.273-7.078Z" fill="#bd3454"/>
    </g>
    <g>
      <path d="M1883.052,9.551l-7.644,3.418-4.273,7.077L1872,11.9l-4.1-7.086,6.783,4.725Z" fill="#bd3454"/>
    </g>
    <g>
      <path d="M2021.184-19.806l7.644-3.417L2033.1-30.3l-.862,8.143,4.1,7.086-6.783-4.726Z" fill="#bd3454"/>
    </g>
    <g>
      <path d="M1903.5,46.453l-4.3,7.182.557,8.247-3.962-7.165-7.421-3.455,8.265-.017Z" fill="#bd3454"/>
    </g>
    <g>
      <path d="M1893.344,34.555l-5.7,6.136-1.166,8.187-2.391-7.834-6.547-4.92,8.093,1.7Z" fill="#bd3454"/>
    </g>
    <g>
      <path d="M1915.291,55.336l-2.716,7.922,2.262,7.953-5.368-6.185-7.98-1.835,8.083-1.737Z" fill="#bd3454"/>
    </g>
    <g>
      <path d="M1903.5-55.841l-6.866-4.794-8.268-.018,7.425-3.455,3.963-7.165-.558,8.249Z" fill="#bd3454"/>
    </g>
    <g>
      <path d="M1893.336-43.946l-7.712-3.265-8.093,1.7,6.547-4.921,2.391-7.832,1.166,8.186Z" fill="#bd3454"/>
    </g>
    <g>
      <path d="M1915.292-64.724l-5.719-6.117-8.084-1.737,7.981-1.835,5.367-6.185-2.261,7.953Z" fill="#bd3454"/>
    </g>
    <g>
      <path d="M2000.081-55.84l4.3-7.184-.558-8.249,3.964,7.166,7.424,3.454-8.268.018Z" fill="#bd3454"/>
    </g>
    <g>
      <path d="M2010.241-43.944l5.7-6.136,1.165-8.186,2.392,7.834,6.546,4.919-8.092-1.7Z" fill="#bd3454"/>
    </g>
    <g>
      <path d="M1988.292-64.723l2.716-7.922-2.262-7.953,5.368,6.185,7.98,1.835-8.083,1.737Z" fill="#bd3454"/>
    </g>
    <g>
      <path d="M2000.081,46.452l6.867,4.794,8.268.019-7.425,3.455-3.964,7.165.559-8.249Z" fill="#bd3454"/>
    </g>
    <g>
      <path d="M2010.248,34.558l7.713,3.265,8.093-1.7-6.548,4.921-2.391,7.833-1.165-8.187Z" fill="#bd3454"/>
    </g>
    <g>
      <path d="M1988.294,55.337l5.72,6.117,8.082,1.738-7.98,1.835-5.367,6.184,2.262-7.953Z" fill="#bd3454"/>
    </g>
    <g>
      <path d="M1951.072,65.547l1.752,8.189,6.035,5.652-7.787-2.537-7.785,2.537,6.034-5.652Z" fill="#bd3454"/>
    </g>
    <g>
      <path d="M1937.257,64.231l.01,8.374,4.726,6.783-7.088-4.1-8.141.862,7.077-4.273Z" fill="#bd3454"/>
    </g>
    <g>
      <path d="M1965.752,64l3.417,7.645,7.077,4.272-8.143-.861-7.086,4.1,4.726-6.782Z" fill="#bd3454"/>
    </g>
    <g>
      <path d="M1953.955-75.258l-1.752-8.189-6.035-5.652,7.787,2.539,7.785-2.539-6.034,5.652Z" fill="#bd3454"/>
    </g>
    <g>
      <path d="M1940.141-73.941l-3.417-7.644-7.076-4.273,8.142.863,7.086-4.1-4.726,6.783Z" fill="#bd3454"/>
    </g>
    <g>
      <path d="M1968.638-73.717l-.011-8.373-4.725-6.783,7.087,4.1,8.142-.863-7.077,4.272Z" fill="#bd3454"/>
    </g>
    <g>
      <g>
        <rect width="149.954" height="151.901" rx="74.976" transform="translate(1877.298 -80.994)" fill="none"/>
      </g>
      <g>
        <path d="M1952.276,70.623A74.778,74.778,0,0,1,1877.581-4.07V-6.018a74.777,74.777,0,0,1,74.693-74.693,74.779,74.779,0,0,1,74.7,74.693V-4.07A74.778,74.778,0,0,1,1952.276,70.623Zm0-150.334a73.777,73.777,0,0,0-73.695,73.693V-4.07a73.777,73.777,0,0,0,73.693,73.693,73.778,73.778,0,0,0,73.7-73.693V-6.018A73.777,73.777,0,0,0,1952.276-79.711Z" fill="#bd3454"/>
      </g>
    </g>
    <g>
      <g>
        <rect width="146.059" height="216.166" rx="15.661" transform="translate(1822.389 206.295)" fill="none"/>
      </g>
      <g>
        <path d="M1952.787,422.178H1838.05a15.4,15.4,0,0,1-15.378-15.378V221.956a15.4,15.4,0,0,1,15.378-15.378h114.737a15.4,15.4,0,0,1,15.378,15.378V406.8A15.4,15.4,0,0,1,1952.787,422.178Zm-114.737-214.6a14.394,14.394,0,0,0-14.378,14.378V406.8a14.394,14.394,0,0,0,14.378,14.378h114.737a14.394,14.394,0,0,0,14.378-14.378V221.956a14.394,14.394,0,0,0-14.378-14.378Z" fill="#bd3454"/>
      </g>
    </g>
    <g>
      <g>
        <rect width="146.059" height="216.166" rx="15.661" transform="translate(1525.786 -17.16)" fill="none"/>
      </g>
      <g>
        <path d="M1656.184,198.723H1541.447a15.4,15.4,0,0,1-15.379-15.378V-1.5a15.4,15.4,0,0,1,15.379-15.377h114.737A15.4,15.4,0,0,1,1671.562-1.5V183.345A15.4,15.4,0,0,1,1656.184,198.723Zm-114.737-214.6A14.394,14.394,0,0,0,1527.068-1.5V183.345a14.4,14.4,0,0,0,14.379,14.378h114.737a14.4,14.4,0,0,0,14.378-14.378V-1.5a14.394,14.394,0,0,0-14.378-14.377Z" fill="#bd3454"/>
      </g>
    </g>
    <g>
      <g>
        <path d="M2015.214-302.452h0a134.375,134.375,0,0,1-134.375,134.374H1609.526a134.374,134.374,0,0,1-134.374-134.374h0a134.374,134.374,0,0,1,134.374-134.375h271.313A134.375,134.375,0,0,1,2015.214-302.452Z" fill="none"/>
      </g>
      <g>
        <path d="M1880.84-168.645H1609.525c-73.782,0-133.807-60.025-133.807-133.808s60.025-133.807,133.807-133.807H1880.84c73.782,0,133.807,60.026,133.807,133.807S1954.622-168.645,1880.84-168.645ZM1609.525-434.26c-72.678,0-131.807,59.128-131.807,131.807s59.129,131.808,131.807,131.808H1880.84c72.679,0,131.807-59.128,131.807-131.808S1953.519-434.26,1880.84-434.26Z" fill="#bd3454"/>
      </g>
    </g>
    <g>
      <path d="M1948.857,214.635a18.582,18.582,0,0,1-3.074,4.178,60.137,60.137,0,0,1-5.53,4.9s-3.058,2.221-3.005,4.8.562,4.926,3.915,5.926a6.535,6.535,0,0,0,5.857-1.173,5.4,5.4,0,0,1-.83,2.274,11.8,11.8,0,0,1-2.119,2.232h9.6a13.887,13.887,0,0,1-2.047-2.232,7.5,7.5,0,0,1-1.036-2.274s3.888,2.342,6.8.762,3.328-2.937,3.328-5.515-3.33-4.8-3.33-4.8a67.4,67.4,0,0,1-5.359-4.9A22.837,22.837,0,0,1,1948.857,214.635Z" fill="#bd3454"/>
    </g>
    <g>
      <path d="M1847.58,412.61a18.593,18.593,0,0,0-3.074-4.18,60.678,60.678,0,0,0-5.53-4.9s-3.059-2.22-3.006-4.8.563-4.925,3.916-5.929a6.539,6.539,0,0,1,5.851,1.175,5.429,5.429,0,0,0-.83-2.274,11.856,11.856,0,0,0-2.113-2.232h9.6a14.028,14.028,0,0,0-2.047,2.233,7.488,7.488,0,0,0-1.035,2.274s3.887-2.349,6.8-.761,3.328,2.935,3.328,5.514-3.328,4.8-3.328,4.8a67.978,67.978,0,0,0-5.361,4.9A22.882,22.882,0,0,0,1847.58,412.61Z" fill="#bd3454"/>
    </g>
    <g>
      <path d="M1649.955,3.1s.782-5.951,6.236-6.009,5.795,6.007,5.795,6.007,1.106,4.188-3.416,9.732a27.072,27.072,0,0,1-8.613,7.4s-3.87-1.654-8.492-7.4-3.444-9.73-3.444-9.73.639-5.969,5.948-6.009S1649.955,3.1,1649.955,3.1Z" fill="#bd3454"/>
    </g>
    <g>
      <path d="M1551.487,181.2s.783,5.951,6.236,6.009,5.795-6.009,5.795-6.009,1.106-4.19-3.416-9.734a27.083,27.083,0,0,0-8.615-7.4s-3.87,1.656-8.491,7.4-3.443,9.732-3.443,9.732.639,5.968,5.952,6.009S1551.487,181.2,1551.487,181.2Z" fill="#bd3454"/>
    </g>
    <g>
      <g>
        <path d="M1851.935-126.969h0a4.87,4.87,0,0,1-4.87,4.87h0a4.87,4.87,0,0,1-4.871-4.87h0a4.871,4.871,0,0,1,4.871-4.871h0A4.87,4.87,0,0,1,1851.935-126.969Z" fill="#2a2c36"/>
      </g>
      <g>
        <path d="M1847.064-122.665a4.308,4.308,0,0,1-4.3-4.3,4.309,4.309,0,0,1,4.3-4.305,4.31,4.31,0,0,1,4.305,4.305A4.309,4.309,0,0,1,1847.064-122.665Zm0-6.609a2.307,2.307,0,0,0-2.3,2.305,2.307,2.307,0,0,0,2.3,2.3,2.307,2.307,0,0,0,2.305-2.3A2.308,2.308,0,0,0,1847.064-129.274Z" fill="#bd3454"/>
      </g>
    </g>
    <g>
      <g>
        <path d="M1840.867-126.969h0a4.869,4.869,0,0,1-4.87,4.87h0a4.87,4.87,0,0,1-4.871-4.87h0A4.871,4.871,0,0,1,1836-131.84h0A4.87,4.87,0,0,1,1840.867-126.969Z" fill="#2a2c36"/>
      </g>
      <g>
        <path d="M1836-122.665a4.309,4.309,0,0,1-4.3-4.3,4.31,4.31,0,0,1,4.3-4.305,4.31,4.31,0,0,1,4.305,4.305A4.309,4.309,0,0,1,1836-122.665Zm0-6.609a2.308,2.308,0,0,0-2.3,2.305,2.308,2.308,0,0,0,2.3,2.3,2.307,2.307,0,0,0,2.305-2.3A2.308,2.308,0,0,0,1836-129.274Z" fill="#bd3454"/>
      </g>
    </g>
    <g>
      <g>
        <path d="M1962.013,95.631h0a4.868,4.868,0,0,1-4.869,4.868h0a4.868,4.868,0,0,1-4.868-4.868h0a4.868,4.868,0,0,1,4.868-4.868h0A4.868,4.868,0,0,1,1962.013,95.631Z" fill="#2a2c36"/>
      </g>
      <g>
        <path d="M1957.145,99.933a4.3,4.3,0,1,1,4.3-4.3A4.306,4.306,0,0,1,1957.145,99.933Zm0-6.6a2.3,2.3,0,1,0,2.3,2.3A2.3,2.3,0,0,0,1957.145,93.329Z" fill="#bd3454"/>
      </g>
    </g>
    <g>
      <g>
        <path d="M1950.33,95.633h0a4.871,4.871,0,0,1-4.871,4.871h0a4.871,4.871,0,0,1-4.871-4.871h0a4.871,4.871,0,0,1,4.871-4.87h0A4.871,4.871,0,0,1,1950.33,95.633Z" fill="#2a2c36"/>
      </g>
      <g>
        <path d="M1945.459,99.938a4.3,4.3,0,1,1,4.305-4.305A4.31,4.31,0,0,1,1945.459,99.938Zm0-6.609a2.3,2.3,0,1,0,2.305,2.3A2.307,2.307,0,0,0,1945.459,93.329Z" fill="#bd3454"/>
      </g>
    </g>
    <g>
      <g>
        <path d="M1957.889,87.46h0a6.816,6.816,0,0,1-6.816,6.816h0a6.816,6.816,0,0,1-6.815-6.816h0a6.816,6.816,0,0,1,6.815-6.816h0A6.816,6.816,0,0,1,1957.889,87.46Z" fill="#2a2c36"/>
      </g>
      <g>
        <path d="M1951.073,93.709a6.25,6.25,0,1,1,6.25-6.249A6.256,6.256,0,0,1,1951.073,93.709Zm0-10.5a4.25,4.25,0,1,0,4.25,4.25A4.255,4.255,0,0,0,1951.073,83.21Z" fill="#bd3454"/>
      </g>
    </g>
    <g>
      <g>
        <path d="M1847.685-135.946h0a6.816,6.816,0,0,1-6.816,6.815h0a6.816,6.816,0,0,1-6.816-6.815h0a6.816,6.816,0,0,1,6.816-6.816h0A6.816,6.816,0,0,1,1847.685-135.946Z" fill="#2a2c36"/>
      </g>
      <g>
        <path d="M1840.869-129.7a6.257,6.257,0,0,1-6.25-6.249,6.257,6.257,0,0,1,6.25-6.25,6.257,6.257,0,0,1,6.25,6.25A6.257,6.257,0,0,1,1840.869-129.7Zm0-10.5a4.254,4.254,0,0,0-4.25,4.25,4.254,4.254,0,0,0,4.25,4.249,4.254,4.254,0,0,0,4.25-4.249A4.254,4.254,0,0,0,1840.869-140.2Z" fill="#bd3454"/>
      </g>
    </g>
    <g>
      <g>
        <g>
          <rect width="21.194" height="27.716" rx="3.132" transform="translate(1672.224 -288.45)" fill="#2a2c36"/>
        </g>
        <g>
          <path d="M1690.285-261.017h-14.93a2.852,2.852,0,0,1-2.848-2.85v-21.45a2.853,2.853,0,0,1,2.848-2.85h14.93a2.854,2.854,0,0,1,2.85,2.85v21.45A2.853,2.853,0,0,1,1690.285-261.017Zm-14.93-26.15a1.851,1.851,0,0,0-1.848,1.85v21.45a1.851,1.851,0,0,0,1.848,1.85h14.93a1.852,1.852,0,0,0,1.85-1.85v-21.45a1.852,1.852,0,0,0-1.85-1.85Z" fill="#bd3454"/>
        </g>
      </g>
      <g>
        <g>
          <rect width="21.194" height="27.716" rx="3.132" transform="translate(1703.546 -288.45)" fill="#2a2c36"/>
        </g>
        <g>
          <path d="M1721.607-261.017h-14.929a2.852,2.852,0,0,1-2.849-2.85v-21.45a2.853,2.853,0,0,1,2.849-2.85h14.929a2.853,2.853,0,0,1,2.85,2.85v21.45A2.853,2.853,0,0,1,1721.607-261.017Zm-14.929-26.15a1.851,1.851,0,0,0-1.849,1.85v21.45a1.851,1.851,0,0,0,1.849,1.85h14.929a1.852,1.852,0,0,0,1.85-1.85v-21.45a1.852,1.852,0,0,0-1.85-1.85Z" fill="#bd3454"/>
        </g>
      </g>
      <g>
        <g>
          <rect width="21.194" height="27.716" rx="3.132" transform="translate(1733.302 -288.45)" fill="#2a2c36"/>
        </g>
        <g>
          <path d="M1751.364-261.017h-14.929a2.853,2.853,0,0,1-2.85-2.85v-21.45a2.853,2.853,0,0,1,2.85-2.85h14.929a2.853,2.853,0,0,1,2.849,2.85v21.45A2.852,2.852,0,0,1,1751.364-261.017Zm-14.929-26.15a1.852,1.852,0,0,0-1.85,1.85v21.45a1.852,1.852,0,0,0,1.85,1.85h14.929a1.851,1.851,0,0,0,1.849-1.85v-21.45a1.851,1.851,0,0,0-1.849-1.85Z" fill="#bd3454"/>
        </g>
      </g>
      <g>
        <g>
          <rect width="21.194" height="27.716" rx="3.132" transform="translate(1764.624 -288.45)" fill="#2a2c36"/>
        </g>
        <g>
          <path d="M1782.687-261.017h-14.93a2.853,2.853,0,0,1-2.85-2.85v-21.45a2.854,2.854,0,0,1,2.85-2.85h14.93a2.853,2.853,0,0,1,2.848,2.85v21.45A2.852,2.852,0,0,1,1782.687-261.017Zm-14.93-26.15a1.852,1.852,0,0,0-1.85,1.85v21.45a1.852,1.852,0,0,0,1.85,1.85h14.93a1.851,1.851,0,0,0,1.848-1.85v-21.45a1.851,1.851,0,0,0-1.848-1.85Z" fill="#bd3454"/>
        </g>
      </g>
      <g>
        <g>
          <rect width="21.194" height="27.716" rx="3.132" transform="translate(1794.38 -288.45)" fill="#2a2c36"/>
        </g>
        <g>
          <path d="M1812.442-261.017h-14.929a2.853,2.853,0,0,1-2.85-2.85v-21.45a2.853,2.853,0,0,1,2.85-2.85h14.929a2.853,2.853,0,0,1,2.85,2.85v21.45A2.853,2.853,0,0,1,1812.442-261.017Zm-14.929-26.15a1.852,1.852,0,0,0-1.85,1.85v21.45a1.852,1.852,0,0,0,1.85,1.85h14.929a1.852,1.852,0,0,0,1.85-1.85v-21.45a1.852,1.852,0,0,0-1.85-1.85Z" fill="#bd3454"/>
        </g>
      </g>
    </g>
    <g>
      <g>
        <g>
          <rect width="21.554" height="27.555" rx="5.018" transform="translate(1653.513 -414.564) rotate(30)" fill="#2a2c36"/>
        </g>
        <g>
          <path d="M1656.75-380.669a5.355,5.355,0,0,1-2.682-.723l-10.893-6.289a5.39,5.39,0,0,1-1.97-7.354l9.289-16.089a5.349,5.349,0,0,1,3.269-2.508,5.35,5.35,0,0,1,4.085.538l10.892,6.288a5.391,5.391,0,0,1,1.97,7.354l-9.289,16.089a5.348,5.348,0,0,1-3.269,2.508A5.417,5.417,0,0,1,1656.75-380.669Zm-1.588-31.359a3.6,3.6,0,0,0-.936.124,3.572,3.572,0,0,0-2.182,1.675l-9.289,16.089a3.6,3.6,0,0,0,1.315,4.909l10.892,6.289a3.569,3.569,0,0,0,2.727.359,3.567,3.567,0,0,0,2.183-1.675l9.288-16.088a3.6,3.6,0,0,0-1.315-4.91l-10.892-6.288A3.57,3.57,0,0,0,1655.162-412.028Z" fill="#bd3454"/>
        </g>
      </g>
      <g>
        <g>
          <rect width="21.26" height="27.555" rx="5.018" transform="translate(1634.698 -417.633)" fill="#2a2c36"/>
        </g>
        <g>
          <path d="M1651.469-389.183h-12.282a5.39,5.39,0,0,1-5.384-5.383v-18.578a5.39,5.39,0,0,1,5.384-5.383h12.282a5.389,5.389,0,0,1,5.383,5.383v18.578A5.389,5.389,0,0,1,1651.469-389.183Zm-12.282-27.555a3.6,3.6,0,0,0-3.595,3.594v18.578a3.6,3.6,0,0,0,3.595,3.594h12.282a3.6,3.6,0,0,0,3.594-3.594v-18.578a3.6,3.6,0,0,0-3.594-3.594Z" fill="#bd3454"/>
        </g>
      </g>
      <g>
        <g>
          <path d="M1645.272-409.99a9.094,9.094,0,0,1-1.359,2.037,27.855,27.855,0,0,1-2.447,2.391,3.565,3.565,0,0,0-1.329,2.338c.024,1.256.25,2.4,1.735,2.889a2.689,2.689,0,0,0,2.588-.572,2.81,2.81,0,0,1-.368,1.108,5.507,5.507,0,0,1-.937,1.088h4.247a6.7,6.7,0,0,1-.905-1.088,3.836,3.836,0,0,1-.459-1.108s1.721,1.141,3.009.371a2.547,2.547,0,0,0,1.471-2.688c0-1.256-1.471-2.338-1.471-2.338a30.919,30.919,0,0,1-2.37-2.391A11.054,11.054,0,0,1,1645.272-409.99Z" fill="#bd3454"/>
        </g>
      </g>
      <g>
        <g>
          <path d="M1664.885-398.806h0l-2.514.892-.041.015-2.167.9.212-2.339,0-.043.1-2.667,2.515-.892.041-.016,2.167-.9-.212,2.339,0,.043Z" fill="#bd3454"/>
        </g>
      </g>
    </g>
    <g>
      <g>
        <g>
          <rect width="21.554" height="27.555" rx="5.018" transform="translate(1842.426 -414.564) rotate(30)" fill="#2a2c36"/>
        </g>
        <g>
          <path d="M1845.664-380.669a5.359,5.359,0,0,1-2.683-.723l-10.892-6.289a5.39,5.39,0,0,1-1.971-7.354l9.289-16.089a5.348,5.348,0,0,1,3.269-2.508,5.35,5.35,0,0,1,4.085.538l10.892,6.288a5.389,5.389,0,0,1,1.97,7.354l-9.288,16.089a5.349,5.349,0,0,1-3.269,2.508A5.429,5.429,0,0,1,1845.664-380.669Zm-1.589-31.359a3.614,3.614,0,0,0-.936.124,3.575,3.575,0,0,0-2.182,1.675l-9.289,16.089a3.6,3.6,0,0,0,1.315,4.909l10.892,6.289a3.571,3.571,0,0,0,2.728.359,3.567,3.567,0,0,0,2.182-1.675l9.289-16.088a3.6,3.6,0,0,0-1.316-4.91l-10.892-6.288A3.57,3.57,0,0,0,1844.075-412.028Z" fill="#bd3454"/>
        </g>
      </g>
      <g>
        <g>
          <rect width="21.26" height="27.555" rx="5.018" transform="translate(1823.611 -417.633)" fill="#2a2c36"/>
        </g>
        <g>
          <path d="M1840.382-389.183H1828.1a5.39,5.39,0,0,1-5.384-5.383v-18.578a5.39,5.39,0,0,1,5.384-5.383h12.282a5.389,5.389,0,0,1,5.383,5.383v18.578A5.389,5.389,0,0,1,1840.382-389.183ZM1828.1-416.738a3.6,3.6,0,0,0-3.595,3.594v18.578a3.6,3.6,0,0,0,3.595,3.594h12.282a3.6,3.6,0,0,0,3.594-3.594v-18.578a3.6,3.6,0,0,0-3.594-3.594Z" fill="#bd3454"/>
        </g>
      </g>
      <g>
        <g>
          <path d="M1834.185-409.99a9.061,9.061,0,0,1-1.359,2.037,27.855,27.855,0,0,1-2.447,2.391,3.56,3.56,0,0,0-1.328,2.338c.024,1.256.249,2.4,1.734,2.889a2.689,2.689,0,0,0,2.588-.572,2.809,2.809,0,0,1-.367,1.108,5.568,5.568,0,0,1-.937,1.088h4.246a6.7,6.7,0,0,1-.9-1.088,3.832,3.832,0,0,1-.459-1.108s1.722,1.141,3.009.371a2.547,2.547,0,0,0,1.472-2.688c0-1.256-1.472-2.338-1.472-2.338a30.919,30.919,0,0,1-2.37-2.391A11.1,11.1,0,0,1,1834.185-409.99Z" fill="#bd3454"/>
        </g>
      </g>
      <g>
        <g>
          <path d="M1853.8-398.806h0l-2.515.892-.041.015-2.167.9.213-2.339,0-.043.1-2.667,2.514-.892.041-.016,2.167-.9-.212,2.339,0,.043Z" fill="#bd3454"/>
        </g>
      </g>
    </g>
    <g>
      <g>
        <g>
          <rect width="21.554" height="27.555" rx="5.018" transform="translate(1653.513 -226.168) rotate(30)" fill="#2a2c36"/>
        </g>
        <g>
          <path d="M1656.75-192.274a5.345,5.345,0,0,1-2.682-.723l-10.893-6.288a5.391,5.391,0,0,1-1.97-7.354l9.289-16.089a5.345,5.345,0,0,1,3.269-2.508,5.345,5.345,0,0,1,4.085.537l10.892,6.289a5.39,5.39,0,0,1,1.97,7.354l-9.289,16.088a5.346,5.346,0,0,1-3.269,2.509A5.417,5.417,0,0,1,1656.75-192.274Zm-1.588-31.359a3.606,3.606,0,0,0-.936.125,3.567,3.567,0,0,0-2.182,1.674l-9.289,16.089a3.6,3.6,0,0,0,1.315,4.91l10.892,6.288a3.569,3.569,0,0,0,2.727.36,3.574,3.574,0,0,0,2.183-1.675l9.288-16.089a3.6,3.6,0,0,0-1.315-4.91l-10.892-6.288A3.57,3.57,0,0,0,1655.162-223.633Z" fill="#bd3454"/>
        </g>
      </g>
      <g>
        <g>
          <rect width="21.26" height="27.555" rx="5.018" transform="translate(1634.698 -229.237)" fill="#2a2c36"/>
        </g>
        <g>
          <path d="M1651.469-200.788h-12.282a5.39,5.39,0,0,1-5.384-5.383v-18.577a5.39,5.39,0,0,1,5.384-5.384h12.282a5.39,5.39,0,0,1,5.383,5.384v18.577A5.389,5.389,0,0,1,1651.469-200.788Zm-12.282-27.555a3.6,3.6,0,0,0-3.595,3.6v18.577a3.6,3.6,0,0,0,3.595,3.594h12.282a3.6,3.6,0,0,0,3.594-3.594v-18.577a3.6,3.6,0,0,0-3.594-3.6Z" fill="#bd3454"/>
        </g>
      </g>
      <g>
        <g>
          <path d="M1645.272-221.6a9.072,9.072,0,0,1-1.359,2.037,27.715,27.715,0,0,1-2.447,2.391,3.565,3.565,0,0,0-1.329,2.338c.024,1.257.25,2.4,1.735,2.889a2.684,2.684,0,0,0,2.588-.572,2.81,2.81,0,0,1-.368,1.108,5.541,5.541,0,0,1-.937,1.089h4.247a6.664,6.664,0,0,1-.905-1.089,3.825,3.825,0,0,1-.459-1.108s1.721,1.141,3.009.371a2.546,2.546,0,0,0,1.471-2.687c0-1.256-1.471-2.338-1.471-2.338a31.278,31.278,0,0,1-2.37-2.391A11.027,11.027,0,0,1,1645.272-221.6Z" fill="#bd3454"/>
        </g>
      </g>
      <g>
        <g>
          <path d="M1664.885-210.411h0l-2.514.892-.041.016-2.167.9.212-2.338,0-.044.1-2.666,2.515-.892.041-.016,2.167-.905-.212,2.339,0,.044Z" fill="#bd3454"/>
        </g>
      </g>
    </g>
    <g>
      <g>
        <g>
          <rect width="21.554" height="27.555" rx="5.018" transform="translate(1524.577 -303.708) rotate(120)" fill="#2a2c36"/>
        </g>
        <g>
          <path d="M1490.682-300.471a5.353,5.353,0,0,1,.724-2.683l6.288-10.892a5.389,5.389,0,0,1,7.354-1.97l16.089,9.288a5.352,5.352,0,0,1,2.508,3.269,5.35,5.35,0,0,1-.538,4.085l-6.288,10.892a5.39,5.39,0,0,1-7.354,1.971l-16.089-9.289a5.348,5.348,0,0,1-2.508-3.269A5.423,5.423,0,0,1,1490.682-300.471Zm31.359-1.589a3.615,3.615,0,0,0-.124-.936,3.57,3.57,0,0,0-1.674-2.182l-16.09-9.289a3.6,3.6,0,0,0-4.909,1.315l-6.289,10.893a3.569,3.569,0,0,0-.359,2.727,3.568,3.568,0,0,0,1.675,2.182l16.089,9.289a3.6,3.6,0,0,0,4.909-1.315l6.289-10.892A3.584,3.584,0,0,0,1522.041-302.06Z" fill="#bd3454"/>
        </g>
      </g>
      <g>
        <g>
          <rect width="21.26" height="27.555" rx="5.018" transform="translate(1527.646 -322.524) rotate(90)" fill="#2a2c36"/>
        </g>
        <g>
          <path d="M1499.2-305.752v-12.283a5.389,5.389,0,0,1,5.383-5.383h18.578a5.39,5.39,0,0,1,5.384,5.383v12.283a5.39,5.39,0,0,1-5.384,5.383h-18.578A5.389,5.389,0,0,1,1499.2-305.752Zm27.556-12.283a3.6,3.6,0,0,0-3.595-3.594h-18.578a3.6,3.6,0,0,0-3.594,3.594v12.283a3.6,3.6,0,0,0,3.594,3.594h18.578a3.6,3.6,0,0,0,3.595-3.594Z" fill="#bd3454"/>
        </g>
      </g>
      <g>
        <g>
          <path d="M1520-311.95a9.051,9.051,0,0,1-2.037-1.359,27.869,27.869,0,0,1-2.391-2.446,3.557,3.557,0,0,0-2.338-1.329c-1.256.024-2.4.249-2.889,1.735a2.684,2.684,0,0,0,.573,2.587,2.8,2.8,0,0,1-1.108-.367,5.549,5.549,0,0,1-1.089-.937v4.247a6.67,6.67,0,0,1,1.089-.906,3.849,3.849,0,0,1,1.108-.459s-1.141,1.722-.371,3.009a2.547,2.547,0,0,0,2.687,1.472c1.256,0,2.338-1.472,2.338-1.472a31.106,31.106,0,0,1,2.391-2.37A11.1,11.1,0,0,1,1520-311.95Z" fill="#bd3454"/>
        </g>
      </g>
      <g>
        <g>
          <path d="M1508.82-292.337h0l-.892-2.514-.016-.041-.905-2.167,2.339.212.044,0,2.666.1.892,2.514.016.041.9,2.167-2.338-.212-.044,0Z" fill="#bd3454"/>
        </g>
      </g>
    </g>
    <g>
      <g>
        <g>
          <rect width="21.554" height="27.555" rx="5.018" transform="translate(1987.719 -317.486) rotate(60)" fill="#2a2c36"/>
        </g>
        <g>
          <path d="M1997.75-300.471a5.351,5.351,0,0,0-.723-2.683l-6.288-10.892a5.389,5.389,0,0,0-7.354-1.97l-16.089,9.288a5.348,5.348,0,0,0-2.508,3.269,5.35,5.35,0,0,0,.537,4.085l6.289,10.892a5.39,5.39,0,0,0,7.354,1.971l16.088-9.289a5.346,5.346,0,0,0,2.509-3.269A5.421,5.421,0,0,0,1997.75-300.471Zm-31.358-1.589a3.615,3.615,0,0,1,.124-.936,3.57,3.57,0,0,1,1.674-2.182l16.089-9.289a3.6,3.6,0,0,1,4.91,1.315l6.288,10.893a3.569,3.569,0,0,1,.36,2.727,3.575,3.575,0,0,1-1.675,2.182l-16.089,9.289a3.6,3.6,0,0,1-4.909-1.315l-6.289-10.892A3.574,3.574,0,0,1,1966.392-302.06Z" fill="#bd3454"/>
        </g>
      </g>
      <g>
        <g>
          <rect width="21.26" height="27.555" rx="5.018" transform="translate(1988.342 -322.524) rotate(90)" fill="#2a2c36"/>
        </g>
        <g>
          <path d="M1989.237-305.752v-12.283a5.389,5.389,0,0,0-5.383-5.383h-18.578a5.39,5.39,0,0,0-5.384,5.383v12.283a5.39,5.39,0,0,0,5.384,5.383h18.578A5.389,5.389,0,0,0,1989.237-305.752Zm-27.556-12.283a3.6,3.6,0,0,1,3.595-3.594h18.578a3.6,3.6,0,0,1,3.593,3.594v12.283a3.6,3.6,0,0,1-3.593,3.594h-18.578a3.6,3.6,0,0,1-3.595-3.594Z" fill="#bd3454"/>
        </g>
      </g>
      <g>
        <g>
          <path d="M1968.429-311.95a9.033,9.033,0,0,0,2.038-1.359,27.719,27.719,0,0,0,2.39-2.446,3.56,3.56,0,0,1,2.338-1.329c1.257.024,2.4.249,2.889,1.735a2.682,2.682,0,0,1-.572,2.587,2.809,2.809,0,0,0,1.108-.367,5.577,5.577,0,0,0,1.089-.937v4.247a6.664,6.664,0,0,0-1.089-.906,3.849,3.849,0,0,0-1.108-.459s1.141,1.722.371,3.009a2.547,2.547,0,0,1-2.687,1.472c-1.256,0-2.338-1.472-2.338-1.472a31.462,31.462,0,0,0-2.391-2.37A11.076,11.076,0,0,0,1968.429-311.95Z" fill="#bd3454"/>
        </g>
      </g>
      <g>
        <g>
          <path d="M1979.613-292.337h0l.892-2.514.016-.041.905-2.167-2.339.212-.044,0-2.666.1-.892,2.514-.016.041-.905,2.167,2.339-.212.044,0Z" fill="#bd3454"/>
        </g>
      </g>
    </g>
    <g>
      <g>
        <g>
          <rect width="21.554" height="27.555" rx="5.018" transform="translate(1842.426 -226.168) rotate(30)" fill="#2a2c36"/>
        </g>
        <g>
          <path d="M1845.664-192.274a5.349,5.349,0,0,1-2.683-.723l-10.892-6.288a5.39,5.39,0,0,1-1.971-7.354l9.289-16.089a5.345,5.345,0,0,1,3.269-2.508,5.345,5.345,0,0,1,4.085.537l10.892,6.289a5.388,5.388,0,0,1,1.97,7.354l-9.288,16.088a5.347,5.347,0,0,1-3.269,2.509A5.429,5.429,0,0,1,1845.664-192.274Zm-1.589-31.359a3.615,3.615,0,0,0-.936.125,3.57,3.57,0,0,0-2.182,1.674l-9.289,16.089a3.6,3.6,0,0,0,1.315,4.91l10.892,6.288a3.571,3.571,0,0,0,2.728.36,3.575,3.575,0,0,0,2.182-1.675l9.289-16.089a3.6,3.6,0,0,0-1.316-4.91l-10.892-6.288A3.57,3.57,0,0,0,1844.075-223.633Z" fill="#bd3454"/>
        </g>
      </g>
      <g>
        <g>
          <rect width="21.26" height="27.555" rx="5.018" transform="translate(1823.611 -229.237)" fill="#2a2c36"/>
        </g>
        <g>
          <path d="M1840.382-200.788H1828.1a5.39,5.39,0,0,1-5.384-5.383v-18.577a5.39,5.39,0,0,1,5.384-5.384h12.282a5.39,5.39,0,0,1,5.383,5.384v18.577A5.389,5.389,0,0,1,1840.382-200.788ZM1828.1-228.343a3.6,3.6,0,0,0-3.595,3.6v18.577a3.6,3.6,0,0,0,3.595,3.594h12.282a3.6,3.6,0,0,0,3.594-3.594v-18.577a3.6,3.6,0,0,0-3.594-3.6Z" fill="#bd3454"/>
        </g>
      </g>
      <g>
        <g>
          <path d="M1834.185-221.6a9.039,9.039,0,0,1-1.359,2.037,27.715,27.715,0,0,1-2.447,2.391,3.56,3.56,0,0,0-1.328,2.338c.024,1.257.249,2.4,1.734,2.889a2.684,2.684,0,0,0,2.588-.572,2.809,2.809,0,0,1-.367,1.108,5.6,5.6,0,0,1-.937,1.089h4.246a6.664,6.664,0,0,1-.9-1.089,3.821,3.821,0,0,1-.459-1.108s1.722,1.141,3.009.371a2.547,2.547,0,0,0,1.472-2.687c0-1.256-1.472-2.338-1.472-2.338a31.278,31.278,0,0,1-2.37-2.391A11.074,11.074,0,0,1,1834.185-221.6Z" fill="#bd3454"/>
        </g>
      </g>
      <g>
        <g>
          <path d="M1853.8-210.411h0l-2.515.892-.041.016-2.167.9.213-2.338,0-.044.1-2.666,2.514-.892.041-.016,2.167-.905-.212,2.339,0,.044Z" fill="#bd3454"/>
        </g>
      </g>
    </g>
  </g>
</svg>
