<svg xmlns="http://www.w3.org/2000/svg" width="639.101" height="831.684" viewBox="0 0 639.101 831.684">
  <g id="s_xt6" transform="translate(-6028.752 -2994.497)">
    <g id="组_3621" data-name="组 3621" transform="translate(6480.384 3732.978)">
      <rect id="矩形_2039" data-name="矩形 2039" width="184.693" height="90.428" rx="10.2" transform="translate(1.388 1.387)" fill="snow"/>
      <path id="路径_9247" data-name="路径 9247" d="M6693.635,3886.033H6527.811a10.836,10.836,0,0,1-10.823-10.823v-71.558a10.835,10.835,0,0,1,10.823-10.822h165.824a10.834,10.834,0,0,1,10.822,10.822v71.558A10.835,10.835,0,0,1,6693.635,3886.033Zm-165.824-90.428a8.057,8.057,0,0,0-8.048,8.047v71.558a8.058,8.058,0,0,0,8.048,8.048h165.824a8.057,8.057,0,0,0,8.047-8.048v-71.558a8.056,8.056,0,0,0-8.047-8.047Z" transform="translate(-6516.988 -3792.83)" fill="#bd3454"/>
    </g>
    <g id="组_3622" data-name="组 3622" transform="translate(6262.634 3732.978)">
      <rect id="矩形_2040" data-name="矩形 2040" width="184.693" height="90.428" rx="10.2" transform="translate(1.388 1.387)" fill="snow"/>
      <path id="路径_9248" data-name="路径 9248" d="M6458.236,3886.033H6292.413a10.836,10.836,0,0,1-10.823-10.823v-71.558a10.835,10.835,0,0,1,10.823-10.822h165.824a10.834,10.834,0,0,1,10.822,10.822v71.558A10.835,10.835,0,0,1,6458.236,3886.033Zm-165.824-90.428a8.057,8.057,0,0,0-8.048,8.047v71.558a8.057,8.057,0,0,0,8.048,8.048h165.824a8.056,8.056,0,0,0,8.046-8.048v-71.558a8.055,8.055,0,0,0-8.046-8.047Z" transform="translate(-6281.59 -3792.83)" fill="#bd3454"/>
    </g>
    <g id="矩形_3057" data-name="矩形 3057" transform="translate(6135.502 3400.122)">
      <g id="组_3623" data-name="组 3623" transform="translate(0.217)">
        <path id="路径_9249" data-name="路径 9249" d="M6152.194,3433h150.648c4.311,0,7.805,4.142,7.805,9.25V3492.2c0,5.109-3.494,9.25-7.805,9.25H6152.194c-4.311,0-7.806-4.141-7.806-9.25v-49.951C6144.388,3437.139,6147.883,3433,6152.194,3433Z" transform="translate(-6144.388 -3432.997)" fill="#fff"/>
      </g>
      <g id="组_3624" data-name="组 3624">
        <path id="路径_9250" data-name="路径 9250" d="M6302.824,3501.449H6152.176c-4.423,0-8.022-4.15-8.022-9.25v-49.951c0-5.1,3.6-9.25,8.022-9.25h150.648c4.423,0,8.022,4.15,8.022,9.25V3492.2C6310.846,3497.3,6307.248,3501.449,6302.824,3501.449Zm-150.648-65.677c-2.894,0-5.247,2.906-5.247,6.475V3492.2c0,3.57,2.354,6.475,5.247,6.475h150.648c2.894,0,5.247-2.906,5.247-6.475v-49.951c0-3.57-2.353-6.475-5.247-6.475Z" transform="translate(-6144.154 -3432.997)" fill="#bd3454"/>
      </g>
    </g>
    <g id="矩形_3061" data-name="矩形 3061" transform="translate(6028.751 2994.497)">
      <g id="组_3625" data-name="组 3625">
        <rect id="矩形_2041" data-name="矩形 2041" width="197" height="68" rx="10" transform="translate(0.103 0.297)" fill="#fff"/>
      </g>
      <g id="组_3626" data-name="组 3626" transform="translate(0 0)">
        <path id="路径_9251" data-name="路径 9251" d="M6216.533,3062.949H6038a9.261,9.261,0,0,1-9.25-9.25v-49.951a9.26,9.26,0,0,1,9.25-9.25h178.53a9.261,9.261,0,0,1,9.25,9.25V3053.7A9.261,9.261,0,0,1,6216.533,3062.949ZM6038,2997.272a6.483,6.483,0,0,0-6.475,6.475V3053.7a6.484,6.484,0,0,0,6.475,6.475h178.53a6.484,6.484,0,0,0,6.475-6.475v-49.951a6.483,6.483,0,0,0-6.475-6.475Z" transform="translate(-6028.752 -2994.497)" fill="#bd3454"/>
      </g>
    </g>
    <g id="路径_3462" data-name="路径 3462" transform="translate(6094.417 3226.217)">
      <rect id="矩形_2042" data-name="矩形 2042" width="2.775" height="208.937"/>
    </g>
    <g id="路径_3462-2" data-name="路径 3462" transform="translate(6094.417 3067.557)">
      <rect id="矩形_2043" data-name="矩形 2043" width="2.775" height="104.609"/>
    </g>
    <g id="路径_3467" data-name="路径 3467" transform="translate(6233.934 3026.873)">
      <rect id="矩形_2044" data-name="矩形 2044" width="2.775" height="332.168" transform="translate(0 2.775) rotate(-89.91)"/>
    </g>
    <g id="BlockChain" transform="translate(6059.378 3021.773)" style="isolation: isolate">
      <g id="组_3627" data-name="组 3627" style="isolation: isolate">
        <path id="路径_9252" data-name="路径 9252" d="M6076.481,3032.931a4.4,4.4,0,0,1-.167,4.118,4.523,4.523,0,0,1-1.609,1.61,4.251,4.251,0,0,1-2.21.6h-10.634v-15.274H6072.1a4.247,4.247,0,0,1,2.209.6,4.543,4.543,0,0,1,1.61,1.609,4.365,4.365,0,0,1,.277,3.852,4.666,4.666,0,0,1-.9,1.4A4.264,4.264,0,0,1,6076.481,3032.931Zm-11.067-2.487h5.505a1.933,1.933,0,0,0,1.432-.6,2.064,2.064,0,0,0,0-2.886,1.936,1.936,0,0,0-1.432-.6h-5.505Zm7.337,2.964a1.95,1.95,0,0,0-1.432-.589h-5.905v4.041h5.905a2.025,2.025,0,0,0,1.432-3.452Z" transform="translate(-6061.861 -3023.984)"/>
        <path id="路径_9253" data-name="路径 9253" d="M6083.964,3039.26h-3.574v-15.252h3.574Z" transform="translate(-6063.25 -3023.986)"/>
        <path id="路径_9254" data-name="路径 9254" d="M6096.83,3028.218a3.465,3.465,0,0,1,1.266,1.266,3.374,3.374,0,0,1,.466,1.731v4.862a3.376,3.376,0,0,1-.466,1.732,3.46,3.46,0,0,1-1.266,1.265,3.417,3.417,0,0,1-1.754.466h-5.15a3.357,3.357,0,0,1-1.743-.466,3.482,3.482,0,0,1-1.254-1.265,3.376,3.376,0,0,1-.466-1.732v-4.862a3.374,3.374,0,0,1,.466-1.731,3.487,3.487,0,0,1,1.254-1.266,3.357,3.357,0,0,1,1.743-.466h5.15A3.417,3.417,0,0,1,6096.83,3028.218Zm-1.842,3.708a1.784,1.784,0,0,0-1.8-1.8h-1.376a1.781,1.781,0,0,0-1.8,1.8v3.441a1.78,1.78,0,0,0,1.8,1.8h1.376a1.783,1.783,0,0,0,1.8-1.8Z" transform="translate(-6063.705 -3024.266)"/>
        <path id="路径_9255" data-name="路径 9255" d="M6113.514,3039.541H6104.9a3.42,3.42,0,0,1-1.755-.466,3.457,3.457,0,0,1-1.265-1.265,3.42,3.42,0,0,1-.466-1.753v-4.818a3.421,3.421,0,0,1,.466-1.754,3.462,3.462,0,0,1,1.265-1.266,3.42,3.42,0,0,1,1.755-.466h8.614v2.375h-6.75a1.748,1.748,0,0,0-1.265.522,1.716,1.716,0,0,0-.533,1.276v3.441a1.716,1.716,0,0,0,.533,1.277,1.746,1.746,0,0,0,1.265.521h6.75Z" transform="translate(-6064.826 -3024.266)"/>
        <path id="路径_9256" data-name="路径 9256" d="M6116.365,3024.008h3.552v15.252h-3.552Zm7.837,9.369,4.883,5.883h-4.307l-4.862-5.883,3.863-5.905h4.286Z" transform="translate(-6065.947 -3023.986)"/>
        <path id="路径_9257" data-name="路径 9257" d="M6146.018,3039.258h-10.124a4.39,4.39,0,0,1-2.276-.611,4.568,4.568,0,0,1-1.643-1.654,4.4,4.4,0,0,1-.61-2.264v-6.239a4.342,4.342,0,0,1,.61-2.253,4.592,4.592,0,0,1,1.643-1.642,4.382,4.382,0,0,1,2.276-.612h10.124v2.375h-8.925a2.074,2.074,0,0,0-1.51.61,2.045,2.045,0,0,0-.622,1.521v6.239a2.123,2.123,0,0,0,2.131,2.131h8.925Z" transform="translate(-6067.072 -3023.984)"/>
        <path id="路径_9258" data-name="路径 9258" d="M6159.781,3027.858a2.888,2.888,0,0,1,1.055,1.055,2.823,2.823,0,0,1,.389,1.442v8.9h-3.554v-7.615a1.78,1.78,0,0,0-1.8-1.8h-.533a7.318,7.318,0,0,0-2.642.555v8.858h-3.573v-15.274h3.573v4.042a7.28,7.28,0,0,1,2.642-.556h3A2.824,2.824,0,0,1,6159.781,3027.858Z" transform="translate(-6068.403 -3023.984)"/>
        <path id="路径_9259" data-name="路径 9259" d="M6177.419,3027.752v11.789h-3.552v-.622a8.99,8.99,0,0,1-3.287.622h-3.618a2.8,2.8,0,0,1-1.441-.389,2.867,2.867,0,0,1-1.056-1.053,2.816,2.816,0,0,1-.389-1.444v-6.016a2.81,2.81,0,0,1,.389-1.442,2.857,2.857,0,0,1,1.056-1.055,2.814,2.814,0,0,1,1.441-.389h3.6a9.185,9.185,0,0,1,3.308.622v-.622Zm-3.552,8.792v-5.794a9.049,9.049,0,0,0-3.308-.622h-1.132a1.782,1.782,0,0,0-1.8,1.8v3.441a1.781,1.781,0,0,0,1.8,1.8h1.132A9.049,9.049,0,0,0,6173.867,3036.543Z" transform="translate(-6069.524 -3024.266)"/>
        <path id="路径_9260" data-name="路径 9260" d="M6180.707,3024.008h3.552v3.463h-3.552Zm0,4.351h3.552v10.9h-3.552Z" transform="translate(-6070.771 -3023.986)"/>
        <path id="路径_9261" data-name="路径 9261" d="M6195.28,3039.541v-7.615a1.782,1.782,0,0,0-1.8-1.8h-1.376a1.781,1.781,0,0,0-1.8,1.8v7.615h-3.552v-8.325a3.374,3.374,0,0,1,.466-1.731,3.459,3.459,0,0,1,1.265-1.266,3.375,3.375,0,0,1,1.732-.466h5.149a3.414,3.414,0,0,1,1.754.466,3.468,3.468,0,0,1,1.267,1.266,3.379,3.379,0,0,1,.466,1.731v8.325Z" transform="translate(-6071.225 -3024.266)"/>
      </g>
    </g>
    <g id="Settle_game_result" data-name="Settle game result" transform="translate(6031.646 3178.013)" style="isolation: isolate">
      <g id="组_3628" data-name="组 3628" style="isolation: isolate">
        <path id="路径_9262" data-name="路径 9262" d="M6043.275,3199.256a4.108,4.108,0,0,1,1.487,1.487,4.121,4.121,0,0,1,0,4.11,4.106,4.106,0,0,1-1.487,1.487,3.955,3.955,0,0,1-2.034.549h-8.792v-2.2h7.693a1.864,1.864,0,0,0,1.353-.549,1.893,1.893,0,0,0,0-2.687,1.864,1.864,0,0,0-1.353-.548h-4.254a3.906,3.906,0,0,1-2.015-.539,4.034,4.034,0,0,1-1.455-1.465,4.017,4.017,0,0,1,0-4.02,4.053,4.053,0,0,1,1.455-1.454,3.9,3.9,0,0,1,2.015-.539h8.609v2.177h-7.53a1.84,1.84,0,0,0-1.832,1.832,1.728,1.728,0,0,0,.539,1.281,1.78,1.78,0,0,0,1.293.53h4.274A3.946,3.946,0,0,1,6043.275,3199.256Z" transform="translate(-6031.88 -3192.887)"/>
        <path id="路径_9263" data-name="路径 9263" d="M6056.96,3196.341a2.121,2.121,0,0,1,2.137,2.136v2.382a2.078,2.078,0,0,1-.622,1.506,2.042,2.042,0,0,1-1.515.63h-5.7v.733a1.254,1.254,0,0,0,1.242,1.242h6.349v2.177h-7.428a3.346,3.346,0,0,1-1.72-.458,3.4,3.4,0,0,1-1.241-1.241,3.35,3.35,0,0,1-.458-1.72v-3.969a3.343,3.343,0,0,1,.458-1.718,3.394,3.394,0,0,1,1.241-1.242,3.346,3.346,0,0,1,1.72-.458Zm-1.394,4.222a.82.82,0,0,0,.254-.6v-.591a.871.871,0,0,0-.856-.854H6052.5a1.254,1.254,0,0,0-1.242,1.241v1.059h3.7A.82.82,0,0,0,6055.566,3200.563Z" transform="translate(-6033.089 -3193.146)"/>
        <path id="路径_9264" data-name="路径 9264" d="M6065.691,3203.47a1.252,1.252,0,0,0,1.242,1.242h1.486v2.177h-2.584a3.3,3.3,0,0,1-1.638-.427,3.538,3.538,0,0,1-1.243-1.151,3.256,3.256,0,0,1-.539-1.6v-5.455h-1.363v-2.177h1.363v-3.176h3.276v3.176h2.728v2.177h-2.728Z" transform="translate(-6034.067 -3192.888)"/>
        <path id="路径_9265" data-name="路径 9265" d="M6074.052,3203.47a1.25,1.25,0,0,0,1.241,1.242h1.484v2.177h-2.583a3.306,3.306,0,0,1-1.638-.427,3.525,3.525,0,0,1-1.241-1.151,3.248,3.248,0,0,1-.541-1.6v-5.455h-1.362v-2.177h1.362v-3.176h3.278v3.176h2.726v2.177h-2.726Z" transform="translate(-6034.694 -3192.888)"/>
        <path id="路径_9266" data-name="路径 9266" d="M6082.015,3206.889h-3.276v-13.981h3.276Z" transform="translate(-6035.393 -3192.888)"/>
        <path id="路径_9267" data-name="路径 9267" d="M6093.258,3196.341a2.12,2.12,0,0,1,2.138,2.136v2.382a2.077,2.077,0,0,1-.621,1.506,2.044,2.044,0,0,1-1.517.63h-5.7v.733a1.254,1.254,0,0,0,1.242,1.242h6.349v2.177h-7.428a3.347,3.347,0,0,1-1.72-.458,3.407,3.407,0,0,1-1.242-1.241,3.355,3.355,0,0,1-.458-1.72v-3.969a3.348,3.348,0,0,1,.458-1.718A3.4,3.4,0,0,1,6086,3196.8a3.347,3.347,0,0,1,1.72-.458Zm-1.393,4.222a.82.82,0,0,0,.254-.6v-.591a.87.87,0,0,0-.855-.854H6088.8a1.254,1.254,0,0,0-1.242,1.241v1.059h3.7A.82.82,0,0,0,6091.866,3200.563Z" transform="translate(-6035.81 -3193.146)"/>
        <path id="路径_9268" data-name="路径 9268" d="M6123.462,3196.341v10.581a3.354,3.354,0,0,1-.459,1.721,3.478,3.478,0,0,1-1.241,1.25,3.279,3.279,0,0,1-1.72.468h-8.363v-2.2h7.264a1.226,1.226,0,0,0,.9-.366,1.2,1.2,0,0,0,.366-.876v-1.689a11.193,11.193,0,0,1-3.847.773h-2.5a2.57,2.57,0,0,1-1.321-.356,2.608,2.608,0,0,1-.967-.976,2.635,2.635,0,0,1-.356-1.334v-4.355a2.575,2.575,0,0,1,.356-1.322,2.624,2.624,0,0,1,.967-.967,2.569,2.569,0,0,1,1.321-.356h2.483a11.772,11.772,0,0,1,3.868.752v-.752Zm-6.309,7.468a14.132,14.132,0,0,0,3.053-.9v-3.479a15.266,15.266,0,0,0-3.053-.917h-1.038a1.6,1.6,0,0,0-1.161.479,1.576,1.576,0,0,0-.488,1.17v1.994a1.573,1.573,0,0,0,.488,1.169,1.6,1.6,0,0,0,1.161.479Z" transform="translate(-6037.828 -3193.146)"/>
        <path id="路径_9269" data-name="路径 9269" d="M6138.4,3196.341v10.805h-3.256v-.57a8.253,8.253,0,0,1-3.012.57h-3.318a2.574,2.574,0,0,1-1.321-.355,2.645,2.645,0,0,1-.967-.967,2.58,2.58,0,0,1-.357-1.323v-5.515a2.576,2.576,0,0,1,.357-1.322,2.624,2.624,0,0,1,.967-.967,2.575,2.575,0,0,1,1.321-.356h3.3a8.418,8.418,0,0,1,3.032.569v-.569Zm-3.256,8.059v-5.312a8.292,8.292,0,0,0-3.032-.571h-1.038a1.635,1.635,0,0,0-1.649,1.649v3.154a1.636,1.636,0,0,0,1.649,1.648h1.038A8.321,8.321,0,0,0,6135.146,3204.4Z" transform="translate(-6038.949 -3193.146)"/>
        <path id="路径_9270" data-name="路径 9270" d="M6156.995,3196.769a3.148,3.148,0,0,1,1.159,1.16,3.085,3.085,0,0,1,.428,1.586v7.632H6155.3v-6.979a1.59,1.59,0,0,0-.478-1.17,1.568,1.568,0,0,0-1.149-.479h-.489a1.567,1.567,0,0,0-1.149.479,1.59,1.59,0,0,0-.478,1.17v6.979h-3.277v-6.979a1.591,1.591,0,0,0-.479-1.17,1.568,1.568,0,0,0-1.15-.479h-.468a1.631,1.631,0,0,0-1.647,1.649v6.979h-3.257v-7.632a3.088,3.088,0,0,1,.427-1.586,3.168,3.168,0,0,1,1.16-1.16,3.081,3.081,0,0,1,1.587-.427h3.053a4.1,4.1,0,0,1,2.421.792,4.013,4.013,0,0,1,2.4-.792h3.073A3.084,3.084,0,0,1,6156.995,3196.769Z" transform="translate(-6040.082 -3193.146)"/>
        <path id="路径_9271" data-name="路径 9271" d="M6170.831,3196.341a2.12,2.12,0,0,1,2.136,2.136v2.382a2.072,2.072,0,0,1-.621,1.506,2.04,2.04,0,0,1-1.515.63h-5.7v.733a1.25,1.25,0,0,0,1.241,1.242h6.35v2.177h-7.428a3.342,3.342,0,0,1-1.72-.458,3.4,3.4,0,0,1-1.241-1.241,3.351,3.351,0,0,1-.459-1.72v-3.969a3.344,3.344,0,0,1,.459-1.718,3.394,3.394,0,0,1,1.241-1.242,3.342,3.342,0,0,1,1.72-.458Zm-1.395,4.222a.819.819,0,0,0,.255-.6v-.591a.872.872,0,0,0-.856-.854h-2.461a1.25,1.25,0,0,0-1.241,1.241v1.059h3.7A.821.821,0,0,0,6169.436,3200.563Z" transform="translate(-6041.626 -3193.146)"/>
        <path id="路径_9272" data-name="路径 9272" d="M6079.339,3224.918h-2.483a1.564,1.564,0,0,0-1.148.478,1.587,1.587,0,0,0-.479,1.17v6.98h-3.276v-7.631a3.09,3.09,0,0,1,.427-1.587,3.189,3.189,0,0,1,1.16-1.16,3.1,3.1,0,0,1,1.588-.427h4.212Z" transform="translate(-6034.884 -3195.125)"/>
        <path id="路径_9273" data-name="路径 9273" d="M6089.881,3222.741a2.121,2.121,0,0,1,2.138,2.137v2.381a2.072,2.072,0,0,1-.622,1.506,2.043,2.043,0,0,1-1.516.631h-5.7v.733a1.253,1.253,0,0,0,1.242,1.241h6.35v2.177h-7.428a3.342,3.342,0,0,1-1.719-.458,3.408,3.408,0,0,1-1.242-1.241,3.349,3.349,0,0,1-.458-1.719v-3.968a3.35,3.35,0,0,1,.458-1.72,3.4,3.4,0,0,1,1.242-1.241,3.342,3.342,0,0,1,1.719-.458Zm-1.393,4.223a.821.821,0,0,0,.254-.6v-.59a.869.869,0,0,0-.855-.855h-2.462a1.253,1.253,0,0,0-1.242,1.241v1.058h3.7A.823.823,0,0,0,6088.488,3226.964Z" transform="translate(-6035.557 -3195.125)"/>
        <path id="路径_9274" data-name="路径 9274" d="M6098.639,3224.918a1.007,1.007,0,0,0-.753.315,1.056,1.056,0,0,0-.305.763,1.028,1.028,0,0,0,.305.742,1,1,0,0,0,.753.316h3.5a3.174,3.174,0,0,1,1.639.438,3.263,3.263,0,0,1,1.179,1.18,3.15,3.15,0,0,1,.438,1.638,3.113,3.113,0,0,1-.438,1.618,3.271,3.271,0,0,1-1.179,1.18,3.165,3.165,0,0,1-1.639.438h-7.407v-2.177h6.328a1.047,1.047,0,0,0,.765-.315,1.021,1.021,0,0,0,.313-.743,1.074,1.074,0,0,0-1.079-1.078h-3.5a3.176,3.176,0,0,1-1.628-.438,3.241,3.241,0,0,1-1.19-1.18,3.122,3.122,0,0,1-.437-1.618,3.157,3.157,0,0,1,.438-1.638,3.249,3.249,0,0,1,1.19-1.18,3.176,3.176,0,0,1,1.628-.437h7.326v2.177Z" transform="translate(-6036.56 -3195.125)"/>
        <path id="路径_9275" data-name="路径 9275" d="M6110.936,3222.741v6.98a1.634,1.634,0,0,0,1.648,1.648h1.283a1.567,1.567,0,0,0,1.149-.478,1.591,1.591,0,0,0,.478-1.17v-6.98h3.277v7.631a3.092,3.092,0,0,1-.428,1.587,3.181,3.181,0,0,1-1.16,1.16,3.129,3.129,0,0,1-1.608.427h-4.721a3.09,3.09,0,0,1-1.586-.427,3.171,3.171,0,0,1-1.161-1.16,3.105,3.105,0,0,1-.427-1.587v-7.631Z" transform="translate(-6037.563 -3195.125)"/>
        <path id="路径_9276" data-name="路径 9276" d="M6124.969,3233.29h-3.276v-13.981h3.276Z" transform="translate(-6038.613 -3194.868)"/>
        <path id="路径_9277" data-name="路径 9277" d="M6131.239,3229.871a1.251,1.251,0,0,0,1.241,1.241h1.486v2.177h-2.583a3.3,3.3,0,0,1-1.639-.427,3.53,3.53,0,0,1-1.242-1.15,3.271,3.271,0,0,1-.541-1.6v-5.454H6126.6v-2.177h1.361v-3.175h3.278v3.175h2.727v2.177h-2.727Z" transform="translate(-6038.981 -3194.868)"/>
      </g>
    </g>
    <g id="路径_3416" data-name="路径 3416" transform="translate(6231.979 3019.555)">
      <path id="路径_9278" data-name="路径 9278" d="M6258.125,3038.992l-9.674-8.737,9.677-8.668,1.234,1.378-8.145,7.3,8.147,7.359Z" transform="translate(-6248.45 -3021.586)"/>
    </g>
    <g id="矩形_3097" data-name="矩形 3097" transform="translate(6315.098 3159.152)">
      <g id="组_3629" data-name="组 3629" transform="translate(0.185)">
        <path id="路径_9279" data-name="路径 9279" d="M6346.518,3172.5H6501.16c4.425,0,8.013,4.141,8.013,9.25V3231.7c0,5.109-3.587,9.25-8.013,9.25H6346.518c-4.424,0-8.013-4.142-8.013-9.25v-49.951C6338.5,3176.638,6342.093,3172.5,6346.518,3172.5Z" transform="translate(-6338.505 -3172.497)" fill="#fff"/>
      </g>
      <g id="组_3630" data-name="组 3630">
        <path id="路径_9280" data-name="路径 9280" d="M6501.145,3240.949H6346.5c-4.521,0-8.2-4.15-8.2-9.25v-49.951c0-5.1,3.677-9.25,8.2-9.25h154.643c4.52,0,8.2,4.149,8.2,9.25V3231.7C6509.343,3236.8,6505.665,3240.949,6501.145,3240.949ZM6346.5,3175.272c-2.99,0-5.422,2.906-5.422,6.475V3231.7c0,3.57,2.433,6.475,5.422,6.475h154.643c2.99,0,5.423-2.906,5.423-6.475v-49.951c0-3.57-2.433-6.475-5.423-6.475Z" transform="translate(-6338.305 -3172.497)" fill="#bd3454"/>
      </g>
    </g>
    <g id="Transactor" transform="translate(6158.966 3426.836)" style="isolation: isolate">
      <g id="组_3631" data-name="组 3631" style="isolation: isolate">
        <path id="路径_9281" data-name="路径 9281" d="M6184.194,3461.876v2.4h-5.55v12.9h-3.573v-12.9h-5.55v-2.4Z" transform="translate(-6169.52 -3461.876)"/>
        <path id="路径_9282" data-name="路径 9282" d="M6194.642,3468.043h-2.708a1.712,1.712,0,0,0-1.254.522,1.735,1.735,0,0,0-.522,1.276v7.615h-3.574v-8.325a3.379,3.379,0,0,1,.466-1.732,3.463,3.463,0,0,1,1.266-1.265,3.372,3.372,0,0,1,1.732-.466h4.6Z" transform="translate(-6170.799 -3462.16)"/>
        <path id="路径_9283" data-name="路径 9283" d="M6209.717,3465.668v11.789h-3.552v-.622a9,9,0,0,1-3.287.622h-3.618a2.81,2.81,0,0,1-1.442-.389,2.882,2.882,0,0,1-1.054-1.053,2.81,2.81,0,0,1-.389-1.444v-6.016a2.8,2.8,0,0,1,.389-1.442,2.874,2.874,0,0,1,1.054-1.055,2.819,2.819,0,0,1,1.442-.388h3.6a9.194,9.194,0,0,1,3.308.622v-.622Zm-3.552,8.792v-5.794a9.051,9.051,0,0,0-3.308-.622h-1.133a1.78,1.78,0,0,0-1.8,1.8v3.441a1.78,1.78,0,0,0,1.8,1.8h1.133A9.051,9.051,0,0,0,6206.166,3474.459Z" transform="translate(-6171.533 -3462.16)"/>
        <path id="路径_9284" data-name="路径 9284" d="M6221.2,3477.457v-7.615a1.784,1.784,0,0,0-1.8-1.8h-1.375a1.783,1.783,0,0,0-1.8,1.8v7.615h-3.552v-8.325a3.375,3.375,0,0,1,.466-1.732,3.46,3.46,0,0,1,1.266-1.265,3.371,3.371,0,0,1,1.731-.466h5.15a3.467,3.467,0,0,1,3.02,1.732,3.379,3.379,0,0,1,.466,1.732v8.325Z" transform="translate(-6172.755 -3462.16)"/>
        <path id="路径_9285" data-name="路径 9285" d="M6231.991,3468.043a1.1,1.1,0,0,0-.822.344,1.155,1.155,0,0,0-.333.833,1.127,1.127,0,0,0,.333.81,1.1,1.1,0,0,0,.822.344h3.818a3.463,3.463,0,0,1,1.787.477,3.582,3.582,0,0,1,1.288,1.288,3.458,3.458,0,0,1,.477,1.787,3.413,3.413,0,0,1-.477,1.765,3.583,3.583,0,0,1-1.288,1.288,3.456,3.456,0,0,1-1.787.477h-8.081v-2.375h6.9a1.13,1.13,0,0,0,.833-.344,1.107,1.107,0,0,0,.344-.81,1.175,1.175,0,0,0-1.177-1.177h-3.818a3.481,3.481,0,0,1-1.776-.476,3.575,3.575,0,0,1-1.3-1.289,3.427,3.427,0,0,1-.476-1.765,3.469,3.469,0,0,1,.476-1.787,3.554,3.554,0,0,1,1.3-1.287,3.464,3.464,0,0,1,1.776-.478h7.992v2.375Z" transform="translate(-6173.85 -3462.16)"/>
        <path id="路径_9286" data-name="路径 9286" d="M6255.2,3465.668v11.789h-3.551v-.622a9,9,0,0,1-3.287.622h-3.618a2.811,2.811,0,0,1-1.443-.389,2.889,2.889,0,0,1-1.056-1.053,2.819,2.819,0,0,1-.388-1.444v-6.016a2.813,2.813,0,0,1,.388-1.442,2.882,2.882,0,0,1,1.056-1.055,2.82,2.82,0,0,1,1.443-.388h3.6a9.2,9.2,0,0,1,3.309.622v-.622Zm-3.551,8.792v-5.794a9.05,9.05,0,0,0-3.309-.622H6247.2a1.783,1.783,0,0,0-1.8,1.8v3.441a1.783,1.783,0,0,0,1.8,1.8h1.131A9.05,9.05,0,0,0,6251.645,3474.459Z" transform="translate(-6174.943 -3462.16)"/>
        <path id="路径_9287" data-name="路径 9287" d="M6270.249,3477.457h-8.613a3.421,3.421,0,0,1-1.754-.466,3.455,3.455,0,0,1-1.266-1.265,3.415,3.415,0,0,1-.466-1.753v-4.818a3.417,3.417,0,0,1,.466-1.755,3.455,3.455,0,0,1,1.266-1.265,3.418,3.418,0,0,1,1.754-.466h8.613v2.375H6263.5a1.752,1.752,0,0,0-1.267.522,1.723,1.723,0,0,0-.533,1.276v3.441a1.722,1.722,0,0,0,.533,1.277,1.748,1.748,0,0,0,1.267.522h6.748Z" transform="translate(-6176.165 -3462.16)"/>
        <path id="路径_9288" data-name="路径 9288" d="M6277.444,3473.446a1.363,1.363,0,0,0,1.352,1.354h1.621v2.375H6277.6a3.6,3.6,0,0,1-1.787-.466,3.864,3.864,0,0,1-1.354-1.254,3.559,3.559,0,0,1-.588-1.743v-5.95h-1.487v-2.375h1.487v-3.463h3.576v3.463h2.973v2.375h-2.973Z" transform="translate(-6177.231 -3461.88)"/>
        <path id="路径_9289" data-name="路径 9289" d="M6292.589,3466.134a3.458,3.458,0,0,1,1.265,1.265,3.375,3.375,0,0,1,.466,1.732v4.862a3.375,3.375,0,0,1-.466,1.732,3.458,3.458,0,0,1-1.265,1.265,3.418,3.418,0,0,1-1.754.466h-5.151a3.358,3.358,0,0,1-1.743-.466,3.49,3.49,0,0,1-1.253-1.265,3.375,3.375,0,0,1-.466-1.732v-4.862a3.375,3.375,0,0,1,.466-1.732,3.49,3.49,0,0,1,1.253-1.265,3.355,3.355,0,0,1,1.743-.466h5.151A3.415,3.415,0,0,1,6292.589,3466.134Zm-1.843,3.707a1.781,1.781,0,0,0-1.8-1.8h-1.376a1.782,1.782,0,0,0-1.8,1.8v3.441a1.782,1.782,0,0,0,1.8,1.8h1.376a1.781,1.781,0,0,0,1.8-1.8Z" transform="translate(-6177.969 -3462.16)"/>
        <path id="路径_9290" data-name="路径 9290" d="M6305.232,3468.043h-2.708a1.715,1.715,0,0,0-1.255.522,1.74,1.74,0,0,0-.522,1.276v7.615h-3.575v-8.325a3.379,3.379,0,0,1,.466-1.732,3.465,3.465,0,0,1,1.267-1.265,3.371,3.371,0,0,1,1.731-.466h4.6Z" transform="translate(-6179.09 -3462.16)"/>
      </g>
    </g>
    <g id="Discovery_server" data-name="Discovery server" transform="translate(6511.604 3758.112)" style="isolation: isolate">
      <g id="组_3632" data-name="组 3632" style="isolation: isolate">
        <path id="路径_9291" data-name="路径 9291" d="M6560.084,3820a5.207,5.207,0,0,1,2.665.71,5.282,5.282,0,0,1,2.642,4.595v4.662a5.209,5.209,0,0,1-.709,2.664,5.269,5.269,0,0,1-1.932,1.932,5.207,5.207,0,0,1-2.665.71h-9.347V3820Zm.279,12.488a2.839,2.839,0,0,0,1.064-1.065,2.876,2.876,0,0,0,.389-1.455v-4.662a2.911,2.911,0,0,0-.389-1.476,2.839,2.839,0,0,0-1.064-1.066,2.89,2.89,0,0,0-1.456-.389h-4.617v10.5h4.617A2.882,2.882,0,0,0,6560.363,3832.489Z" transform="translate(-6550.738 -3820.001)"/>
        <path id="路径_9292" data-name="路径 9292" d="M6568.834,3820.024h3.552v3.464h-3.552Zm0,4.352h3.552v10.9h-3.552Z" transform="translate(-6552.095 -3820.003)"/>
        <path id="路径_9293" data-name="路径 9293" d="M6579.25,3826.144a1.1,1.1,0,0,0-.821.344,1.156,1.156,0,0,0-.333.832,1.128,1.128,0,0,0,.333.81,1.094,1.094,0,0,0,.821.344h3.82a3.453,3.453,0,0,1,1.786.478,3.59,3.59,0,0,1,1.289,1.287,3.455,3.455,0,0,1,.477,1.786,3.409,3.409,0,0,1-.477,1.765,3.6,3.6,0,0,1-1.289,1.289,3.455,3.455,0,0,1-1.786.477h-8.083v-2.376h6.9a1.131,1.131,0,0,0,.833-.344,1.108,1.108,0,0,0,.345-.81,1.177,1.177,0,0,0-1.178-1.176h-3.818a3.476,3.476,0,0,1-1.776-.478,3.566,3.566,0,0,1-1.3-1.287,3.411,3.411,0,0,1-.478-1.766,3.449,3.449,0,0,1,.478-1.786,3.56,3.56,0,0,1,1.3-1.288,3.469,3.469,0,0,1,1.776-.477h7.993v2.375Z" transform="translate(-6552.521 -3820.283)"/>
        <path id="路径_9294" data-name="路径 9294" d="M6601.212,3835.557H6592.6a3.417,3.417,0,0,1-1.754-.466,3.458,3.458,0,0,1-1.265-1.265,3.42,3.42,0,0,1-.467-1.754v-4.817a3.416,3.416,0,0,1,.467-1.754,3.461,3.461,0,0,1,3.019-1.732h8.614v2.375h-6.749a1.751,1.751,0,0,0-1.266.521,1.72,1.72,0,0,0-.532,1.277v3.442a1.719,1.719,0,0,0,.532,1.277,1.747,1.747,0,0,0,1.266.521h6.749Z" transform="translate(-6553.615 -3820.283)"/>
        <path id="路径_9295" data-name="路径 9295" d="M6614.433,3824.234a3.449,3.449,0,0,1,1.266,1.267,3.379,3.379,0,0,1,.466,1.731v4.862a3.385,3.385,0,0,1-.466,1.732,3.469,3.469,0,0,1-3.02,1.731h-5.15a3.359,3.359,0,0,1-1.743-.466,3.491,3.491,0,0,1-1.255-1.265,3.385,3.385,0,0,1-.466-1.732v-4.862a3.379,3.379,0,0,1,.466-1.731,3.485,3.485,0,0,1,1.255-1.267,3.367,3.367,0,0,1,1.743-.465h5.15A3.431,3.431,0,0,1,6614.433,3824.234Zm-1.843,3.708a1.78,1.78,0,0,0-1.8-1.8h-1.375a1.782,1.782,0,0,0-1.8,1.8v3.442a1.782,1.782,0,0,0,1.8,1.8h1.375a1.78,1.78,0,0,0,1.8-1.8Z" transform="translate(-6554.736 -3820.283)"/>
        <path id="路径_9296" data-name="路径 9296" d="M6627.392,3823.769h3.573l-4.64,11.788h-3.573l-4.551-11.788h3.573l2.775,7.193Z" transform="translate(-6555.795 -3820.283)"/>
        <path id="路径_9297" data-name="路径 9297" d="M6642.825,3823.769a2.315,2.315,0,0,1,2.332,2.331v2.6a2.258,2.258,0,0,1-.679,1.643,2.23,2.23,0,0,1-1.653.687h-6.216v.8a1.363,1.363,0,0,0,1.354,1.354h6.927v2.376h-8.1a3.643,3.643,0,0,1-1.875-.5,3.707,3.707,0,0,1-1.355-1.354,3.652,3.652,0,0,1-.5-1.877V3827.5a3.656,3.656,0,0,1,.5-1.877,3.7,3.7,0,0,1,1.355-1.353,3.636,3.636,0,0,1,1.875-.5Zm-1.52,4.606a.9.9,0,0,0,.275-.655v-.644a.944.944,0,0,0-.931-.933h-2.687a1.364,1.364,0,0,0-1.354,1.354v1.154h4.041A.9.9,0,0,0,6641.3,3828.375Z" transform="translate(-6556.909 -3820.283)"/>
        <path id="路径_9298" data-name="路径 9298" d="M6656.067,3826.144h-2.709a1.712,1.712,0,0,0-1.254.521,1.738,1.738,0,0,0-.523,1.277v7.616h-3.574v-8.325a3.375,3.375,0,0,1,.467-1.731,3.452,3.452,0,0,1,1.265-1.267,3.386,3.386,0,0,1,1.732-.465h4.6Z" transform="translate(-6558.03 -3820.283)"/>
        <path id="路径_9299" data-name="路径 9299" d="M6670.235,3823.769v11.544a3.655,3.655,0,0,1-.5,1.875,3.794,3.794,0,0,1-1.354,1.366,3.6,3.6,0,0,1-1.876.511h-7.97v-2.376h6.793a1.281,1.281,0,0,0,.954-.41,1.339,1.339,0,0,0,.4-.966v-1.487a8.891,8.891,0,0,1-2.909.488h-2.753a2.816,2.816,0,0,1-1.444-.388,2.93,2.93,0,0,1-1.442-2.521v-7.636h3.552v6.349a1.718,1.718,0,0,0,.532,1.276,1.748,1.748,0,0,0,1.266.522h.245a9.055,9.055,0,0,0,2.953-.488v-7.659Z" transform="translate(-6558.79 -3820.283)"/>
        <path id="路径_9300" data-name="路径 9300" d="M6584.746,3854.944a1.1,1.1,0,0,0-.821.344,1.156,1.156,0,0,0-.333.832,1.128,1.128,0,0,0,.333.81,1.094,1.094,0,0,0,.821.344h3.819a3.457,3.457,0,0,1,1.787.478,3.588,3.588,0,0,1,1.289,1.287,3.461,3.461,0,0,1,.477,1.787,3.415,3.415,0,0,1-.477,1.765,3.6,3.6,0,0,1-1.289,1.289,3.458,3.458,0,0,1-1.787.477h-8.082v-2.376h6.9a1.129,1.129,0,0,0,.833-.344,1.108,1.108,0,0,0,.345-.81,1.176,1.176,0,0,0-1.178-1.176h-3.818a3.471,3.471,0,0,1-1.775-.478,3.563,3.563,0,0,1-1.3-1.289,3.407,3.407,0,0,1-.477-1.765,3.448,3.448,0,0,1,.477-1.786,3.555,3.555,0,0,1,1.3-1.288,3.462,3.462,0,0,1,1.775-.478h7.994v2.376Z" transform="translate(-6552.933 -3822.443)"/>
        <path id="路径_9301" data-name="路径 9301" d="M6604.377,3852.568a2.314,2.314,0,0,1,2.331,2.332v2.6a2.261,2.261,0,0,1-.677,1.644,2.23,2.23,0,0,1-1.654.687h-6.216v.8a1.362,1.362,0,0,0,1.354,1.354h6.925v2.376h-8.1a3.64,3.64,0,0,1-1.876-.5,3.709,3.709,0,0,1-1.355-1.353,3.665,3.665,0,0,1-.5-1.877V3856.3a3.663,3.663,0,0,1,.5-1.877,3.725,3.725,0,0,1,1.355-1.354,3.651,3.651,0,0,1,1.876-.5Zm-1.521,4.607a.894.894,0,0,0,.277-.655v-.644a.947.947,0,0,0-.933-.933h-2.685a1.362,1.362,0,0,0-1.354,1.354v1.154h4.039A.9.9,0,0,0,6602.856,3857.176Z" transform="translate(-6554.027 -3822.443)"/>
        <path id="路径_9302" data-name="路径 9302" d="M6617.62,3854.944h-2.708a1.715,1.715,0,0,0-1.256.521,1.742,1.742,0,0,0-.521,1.277v7.616h-3.573v-8.325a3.4,3.4,0,0,1,.465-1.733,3.453,3.453,0,0,1,1.268-1.265,3.368,3.368,0,0,1,1.73-.466h4.6Z" transform="translate(-6555.148 -3822.443)"/>
        <path id="路径_9303" data-name="路径 9303" d="M6627.729,3852.568h3.573l-4.64,11.789h-3.573l-4.551-11.789h3.573l2.775,7.194Z" transform="translate(-6555.821 -3822.443)"/>
        <path id="路径_9304" data-name="路径 9304" d="M6643.161,3852.568a2.315,2.315,0,0,1,2.332,2.332v2.6a2.26,2.26,0,0,1-.678,1.644,2.233,2.233,0,0,1-1.654.687h-6.216v.8a1.363,1.363,0,0,0,1.354,1.354h6.927v2.376h-8.1a3.643,3.643,0,0,1-1.876-.5,3.7,3.7,0,0,1-1.354-1.353,3.651,3.651,0,0,1-.5-1.877V3856.3a3.649,3.649,0,0,1,.5-1.877,3.715,3.715,0,0,1,1.354-1.354,3.654,3.654,0,0,1,1.876-.5Zm-1.52,4.607a.9.9,0,0,0,.276-.655v-.644a.945.945,0,0,0-.932-.933H6638.3a1.364,1.364,0,0,0-1.354,1.354v1.154h4.041A.9.9,0,0,0,6641.641,3857.176Z" transform="translate(-6556.935 -3822.443)"/>
        <path id="路径_9305" data-name="路径 9305" d="M6656.4,3854.944H6653.7a1.717,1.717,0,0,0-1.256.521,1.741,1.741,0,0,0-.521,1.277v7.616h-3.574v-8.325a3.386,3.386,0,0,1,.466-1.733,3.468,3.468,0,0,1,1.266-1.265,3.373,3.373,0,0,1,1.731-.466h4.6Z" transform="translate(-6558.056 -3822.443)"/>
      </g>
    </g>
    <g id="Fetch_game_accounts" data-name="Fetch game accounts" transform="translate(6500.85 3599.648)" style="isolation: isolate">
      <g id="组_3633" data-name="组 3633" style="isolation: isolate">
        <path id="路径_9306" data-name="路径 9306" d="M6543.683,3651.218a2.6,2.6,0,0,0-.956.946,2.519,2.519,0,0,0-.357,1.313v2.218h10.175v2.178H6542.37v4.823h-3.257v-9.219a4.681,4.681,0,0,1,.643-2.4,4.767,4.767,0,0,1,1.74-1.741,4.681,4.681,0,0,1,2.4-.641h8.649v2.177h-7.571A2.543,2.543,0,0,0,6543.683,3651.218Z" transform="translate(-6539.113 -3648.694)"/>
        <path id="路径_9307" data-name="路径 9307" d="M6563.864,3652.148a2.12,2.12,0,0,1,2.137,2.137v2.381a2.073,2.073,0,0,1-.621,1.506,2.048,2.048,0,0,1-1.516.631h-5.7v.732a1.253,1.253,0,0,0,1.24,1.242h6.351v2.177h-7.429a3.35,3.35,0,0,1-1.72-.458,3.407,3.407,0,0,1-1.242-1.241,3.349,3.349,0,0,1-.457-1.72v-3.968a3.352,3.352,0,0,1,.457-1.719,3.4,3.4,0,0,1,1.242-1.241,3.344,3.344,0,0,1,1.72-.459Zm-1.4,4.223a.818.818,0,0,0,.254-.6v-.59a.869.869,0,0,0-.854-.855h-2.464a1.251,1.251,0,0,0-1.24,1.241v1.058h3.7A.818.818,0,0,0,6562.469,3656.371Z" transform="translate(-6540.297 -3648.953)"/>
        <path id="路径_9308" data-name="路径 9308" d="M6572.6,3659.278a1.252,1.252,0,0,0,1.241,1.243h1.486v2.176h-2.585a3.3,3.3,0,0,1-1.638-.427,3.536,3.536,0,0,1-1.241-1.15,3.253,3.253,0,0,1-.539-1.6v-5.454h-1.364v-2.178h1.364v-3.174h3.276v3.174h2.728v2.178H6572.6Z" transform="translate(-6541.275 -3648.696)"/>
        <path id="路径_9309" data-name="路径 9309" d="M6588.066,3662.954h-7.9a3.182,3.182,0,0,1-3.2-3.2v-4.415a3.125,3.125,0,0,1,.428-1.609,3.176,3.176,0,0,1,2.768-1.587h7.9v2.177h-6.187a1.6,1.6,0,0,0-1.16.479,1.574,1.574,0,0,0-.488,1.169v3.154a1.579,1.579,0,0,0,.488,1.17,1.6,1.6,0,0,0,1.16.479h6.187Z" transform="translate(-6541.951 -3648.953)"/>
        <path id="路径_9310" data-name="路径 9310" d="M6600.449,3652.245a2.636,2.636,0,0,1,.967.967,2.585,2.585,0,0,1,.357,1.323v8.161h-3.257v-6.98a1.634,1.634,0,0,0-1.647-1.648h-.489a6.7,6.7,0,0,0-2.421.509v8.12h-3.277v-14h3.277v3.7a6.7,6.7,0,0,1,2.421-.509h2.748A2.569,2.569,0,0,1,6600.449,3652.245Z" transform="translate(-6542.979 -3648.694)"/>
        <path id="路径_9311" data-name="路径 9311" d="M6629.837,3652.148v10.582a3.349,3.349,0,0,1-.458,1.72,3.479,3.479,0,0,1-1.241,1.251,3.285,3.285,0,0,1-1.72.468h-8.364v-2.2h7.264a1.219,1.219,0,0,0,.9-.366,1.193,1.193,0,0,0,.367-.875v-1.689a11.214,11.214,0,0,1-3.847.773h-2.5a2.575,2.575,0,0,1-1.322-.356,2.684,2.684,0,0,1-1.323-2.31v-4.355a2.59,2.59,0,0,1,.356-1.323,2.647,2.647,0,0,1,.967-.967,2.573,2.573,0,0,1,1.322-.356h2.483a11.78,11.78,0,0,1,3.868.753v-.753Zm-6.309,7.469a14.157,14.157,0,0,0,3.054-.9v-3.48a15.33,15.33,0,0,0-3.054-.916h-1.037a1.6,1.6,0,0,0-1.161.479,1.573,1.573,0,0,0-.489,1.169v1.994a1.578,1.578,0,0,0,.489,1.17,1.6,1.6,0,0,0,1.161.478Z" transform="translate(-6544.996 -3648.953)"/>
        <path id="路径_9312" data-name="路径 9312" d="M6644.777,3652.148v10.806h-3.256v-.57a8.249,8.249,0,0,1-3.012.57h-3.318a2.572,2.572,0,0,1-1.321-.356,2.633,2.633,0,0,1-.967-.967,2.569,2.569,0,0,1-.357-1.323v-5.515a2.572,2.572,0,0,1,.357-1.323,2.632,2.632,0,0,1,.967-.967,2.567,2.567,0,0,1,1.321-.356h3.3a8.412,8.412,0,0,1,3.031.57v-.57Zm-3.256,8.059V3654.9a8.311,8.311,0,0,0-3.031-.57h-1.039a1.635,1.635,0,0,0-1.648,1.648v3.154a1.635,1.635,0,0,0,1.648,1.649h1.039A8.292,8.292,0,0,0,6641.521,3660.207Z" transform="translate(-6546.118 -3648.953)"/>
        <path id="路径_9313" data-name="路径 9313" d="M6663.372,3652.575a3.176,3.176,0,0,1,1.159,1.16,3.1,3.1,0,0,1,.426,1.587v7.631h-3.276v-6.98a1.585,1.585,0,0,0-.478-1.169,1.567,1.567,0,0,0-1.148-.479h-.491a1.565,1.565,0,0,0-1.148.479,1.586,1.586,0,0,0-.479,1.169v6.98h-3.275v-6.98a1.591,1.591,0,0,0-.479-1.169,1.567,1.567,0,0,0-1.15-.479h-.468a1.634,1.634,0,0,0-1.648,1.648v6.98h-3.256v-7.631a3.094,3.094,0,0,1,.427-1.587,3.17,3.17,0,0,1,1.16-1.16,3.1,3.1,0,0,1,1.587-.427h3.054a4.1,4.1,0,0,1,2.42.794,4.015,4.015,0,0,1,2.4-.794h3.074A3.1,3.1,0,0,1,6663.372,3652.575Z" transform="translate(-6547.251 -3648.953)"/>
        <path id="路径_9314" data-name="路径 9314" d="M6677.207,3652.148a2.122,2.122,0,0,1,2.137,2.137v2.381a2.067,2.067,0,0,1-.622,1.506,2.042,2.042,0,0,1-1.515.631h-5.7v.732a1.254,1.254,0,0,0,1.241,1.242h6.351v2.177h-7.429a3.346,3.346,0,0,1-1.72-.458,3.4,3.4,0,0,1-1.241-1.241,3.345,3.345,0,0,1-.457-1.72v-3.968a3.348,3.348,0,0,1,.457-1.719,3.4,3.4,0,0,1,1.241-1.241,3.34,3.34,0,0,1,1.72-.459Zm-1.4,4.223a.822.822,0,0,0,.255-.6v-.59a.87.87,0,0,0-.855-.855h-2.462a1.252,1.252,0,0,0-1.241,1.241v1.058h3.7A.819.819,0,0,0,6675.811,3656.371Z" transform="translate(-6548.794 -3648.953)"/>
        <path id="路径_9315" data-name="路径 9315" d="M6570.308,3678.549v10.805h-3.256v-.57a8.237,8.237,0,0,1-3.012.57h-3.316a2.571,2.571,0,0,1-1.323-.355,2.645,2.645,0,0,1-.967-.967,2.575,2.575,0,0,1-.356-1.323v-5.515a2.572,2.572,0,0,1,.356-1.322,2.627,2.627,0,0,1,.967-.967,2.572,2.572,0,0,1,1.323-.356h3.3a8.4,8.4,0,0,1,3.031.569v-.569Zm-3.256,8.059V3681.3a8.286,8.286,0,0,0-3.031-.571h-1.039a1.632,1.632,0,0,0-1.647,1.649v3.154a1.633,1.633,0,0,0,1.647,1.648h1.039A8.305,8.305,0,0,0,6567.052,3686.608Z" transform="translate(-6540.535 -3650.932)"/>
        <path id="路径_9316" data-name="路径 9316" d="M6584.106,3689.354h-7.9a3.146,3.146,0,0,1-1.609-.426,3.186,3.186,0,0,1-1.159-1.16,3.136,3.136,0,0,1-.427-1.609v-4.415a3.129,3.129,0,0,1,.427-1.608,3.166,3.166,0,0,1,1.159-1.16,3.125,3.125,0,0,1,1.609-.427h7.9v2.177h-6.187a1.6,1.6,0,0,0-1.159.479,1.576,1.576,0,0,0-.488,1.17v3.154a1.574,1.574,0,0,0,.488,1.169,1.6,1.6,0,0,0,1.159.479h6.188Z" transform="translate(-6541.654 -3650.932)"/>
        <path id="路径_9317" data-name="路径 9317" d="M6597.813,3689.354h-7.9a3.178,3.178,0,0,1-3.194-3.2v-4.415a3.181,3.181,0,0,1,3.194-3.2h7.9v2.177h-6.187a1.6,1.6,0,0,0-1.16.479,1.575,1.575,0,0,0-.489,1.17v3.154a1.573,1.573,0,0,0,.489,1.169,1.6,1.6,0,0,0,1.16.479h6.187Z" transform="translate(-6542.683 -3650.932)"/>
        <path id="路径_9318" data-name="路径 9318" d="M6609.93,3678.977a3.159,3.159,0,0,1,1.161,1.16,3.1,3.1,0,0,1,.426,1.587v4.458a3.106,3.106,0,0,1-.426,1.587,3.179,3.179,0,0,1-1.161,1.16,3.143,3.143,0,0,1-1.607.426H6603.6a3.091,3.091,0,0,1-1.6-.426,3.187,3.187,0,0,1-1.148-1.16,3.094,3.094,0,0,1-.429-1.587v-4.458a3.086,3.086,0,0,1,.429-1.587,3.167,3.167,0,0,1,1.148-1.16,3.071,3.071,0,0,1,1.6-.427h4.722A3.123,3.123,0,0,1,6609.93,3678.977Zm-1.688,3.4a1.636,1.636,0,0,0-1.649-1.649h-1.261a1.634,1.634,0,0,0-1.649,1.649v3.154a1.634,1.634,0,0,0,1.649,1.648h1.261a1.636,1.636,0,0,0,1.649-1.648Z" transform="translate(-6543.709 -3650.932)"/>
        <path id="路径_9319" data-name="路径 9319" d="M6617.388,3678.549v6.98a1.635,1.635,0,0,0,1.649,1.648h1.282a1.565,1.565,0,0,0,1.15-.479,1.591,1.591,0,0,0,.479-1.169v-6.98h3.276v7.632a3.1,3.1,0,0,1-.427,1.587,3.179,3.179,0,0,1-1.161,1.16,3.14,3.14,0,0,1-1.607.426h-4.721a3.1,3.1,0,0,1-1.587-.426,3.173,3.173,0,0,1-1.16-1.16,3.1,3.1,0,0,1-.428-1.587v-7.632Z" transform="translate(-6544.737 -3650.932)"/>
        <path id="路径_9320" data-name="路径 9320" d="M6635.652,3689.354v-6.979a1.632,1.632,0,0,0-1.647-1.649h-1.262a1.636,1.636,0,0,0-1.649,1.649v6.979h-3.255v-7.631a3.1,3.1,0,0,1,.427-1.587,3.15,3.15,0,0,1,1.161-1.16,3.08,3.08,0,0,1,1.587-.427h4.721a3.181,3.181,0,0,1,2.768,1.587,3.085,3.085,0,0,1,.428,1.587v7.631Z" transform="translate(-6545.765 -3650.932)"/>
        <path id="路径_9321" data-name="路径 9321" d="M6645.523,3685.678a1.252,1.252,0,0,0,1.243,1.243h1.485v2.176h-2.584a3.3,3.3,0,0,1-1.638-.426,3.538,3.538,0,0,1-1.242-1.151,3.252,3.252,0,0,1-.54-1.6v-5.455h-1.363v-2.177h1.363v-3.175h3.276v3.175h2.728v2.177h-2.728Z" transform="translate(-6546.743 -3650.675)"/>
        <path id="路径_9322" data-name="路径 9322" d="M6653.908,3680.726a1.011,1.011,0,0,0-.753.315,1.06,1.06,0,0,0-.305.763,1.029,1.029,0,0,0,.305.743,1,1,0,0,0,.753.316h3.5a3.166,3.166,0,0,1,1.638.438,3.277,3.277,0,0,1,1.18,1.18,3.173,3.173,0,0,1,.438,1.637,3.134,3.134,0,0,1-.437,1.618,3.286,3.286,0,0,1-1.18,1.181,3.172,3.172,0,0,1-1.638.437H6650v-2.177h6.329a1.038,1.038,0,0,0,.763-.316,1.011,1.011,0,0,0,.315-.743,1.077,1.077,0,0,0-1.079-1.079h-3.5a3.186,3.186,0,0,1-1.628-.437,3.243,3.243,0,0,1-1.19-1.181,3.123,3.123,0,0,1-.439-1.618,3.159,3.159,0,0,1,.439-1.637,3.257,3.257,0,0,1,1.19-1.181,3.186,3.186,0,0,1,1.628-.437h7.327v2.177Z" transform="translate(-6547.394 -3650.932)"/>
      </g>
    </g>
    <g id="Validate" transform="translate(6360.981 3579.37)" style="isolation: isolate">
      <g id="组_3634" data-name="组 3634" style="isolation: isolate">
        <path id="路径_9323" data-name="路径 9323" d="M6398.1,3626.773h3.257l-5.088,14.022H6393l-5.088-14.022h3.277l3.459,9.5Z" transform="translate(-6387.908 -3626.773)"/>
        <path id="路径_9324" data-name="路径 9324" d="M6415.694,3630.25v10.806h-3.257v-.571a8.212,8.212,0,0,1-3.012.571h-3.318a2.572,2.572,0,0,1-1.321-.356,2.647,2.647,0,0,1-.967-.967,2.578,2.578,0,0,1-.356-1.324v-5.515a2.577,2.577,0,0,1,.356-1.322,2.634,2.634,0,0,1,.967-.967,2.57,2.57,0,0,1,1.321-.356h3.3a8.412,8.412,0,0,1,3.031.569v-.569Zm-3.257,8.059V3633a8.307,8.307,0,0,0-3.031-.57h-1.038a1.635,1.635,0,0,0-1.649,1.648v3.154a1.634,1.634,0,0,0,1.649,1.648h1.038A8.3,8.3,0,0,0,6412.437,3638.309Z" transform="translate(-6389.074 -3627.034)"/>
        <path id="路径_9325" data-name="路径 9325" d="M6421.985,3640.8h-3.276v-13.982h3.276Z" transform="translate(-6390.217 -3626.776)"/>
        <path id="路径_9326" data-name="路径 9326" d="M6424.582,3626.817h3.256v3.176h-3.256Zm0,3.99h3.256v9.992h-3.256Z" transform="translate(-6390.658 -3626.776)"/>
        <path id="路径_9327" data-name="路径 9327" d="M6442.357,3626.8v14H6439.1v-.571a8.218,8.218,0,0,1-3.012.571h-3.337a2.525,2.525,0,0,1-1.312-.356,2.666,2.666,0,0,1-.956-.967,2.569,2.569,0,0,1-.357-1.324v-5.515a2.569,2.569,0,0,1,.357-1.322,2.652,2.652,0,0,1,.956-.967,2.523,2.523,0,0,1,1.313-.356h3.318a8.311,8.311,0,0,1,3.032.569V3626.8Zm-3.256,11.254v-5.312a8.312,8.312,0,0,0-3.032-.57h-1.039a1.634,1.634,0,0,0-1.648,1.648v3.154a1.633,1.633,0,0,0,1.648,1.648h1.039A8.307,8.307,0,0,0,6439.1,3638.05Z" transform="translate(-6391.073 -3626.775)"/>
        <path id="路径_9328" data-name="路径 9328" d="M6457.294,3630.25v10.806h-3.255v-.571a8.22,8.22,0,0,1-3.012.571h-3.317a2.578,2.578,0,0,1-1.323-.356,2.646,2.646,0,0,1-.966-.967,2.565,2.565,0,0,1-.357-1.324v-5.515a2.564,2.564,0,0,1,.357-1.322,2.633,2.633,0,0,1,.966-.967,2.576,2.576,0,0,1,1.323-.356h3.3a8.422,8.422,0,0,1,3.033.569v-.569Zm-3.255,8.059V3633a8.317,8.317,0,0,0-3.033-.57h-1.038a1.634,1.634,0,0,0-1.648,1.648v3.154a1.633,1.633,0,0,0,1.648,1.648h1.038A8.312,8.312,0,0,0,6454.039,3638.309Z" transform="translate(-6392.193 -3627.034)"/>
        <path id="路径_9329" data-name="路径 9329" d="M6463.981,3637.379a1.253,1.253,0,0,0,1.241,1.242h1.486v2.177h-2.584a3.316,3.316,0,0,1-1.64-.427,3.55,3.55,0,0,1-1.241-1.15,3.264,3.264,0,0,1-.54-1.6v-5.454h-1.362v-2.177h1.362v-3.176h3.277v3.176h2.728v2.177h-2.728Z" transform="translate(-6393.264 -3626.776)"/>
        <path id="路径_9330" data-name="路径 9330" d="M6477.315,3630.25a2.121,2.121,0,0,1,2.138,2.137v2.381a2.075,2.075,0,0,1-.622,1.506,2.045,2.045,0,0,1-1.517.63h-5.7v.733a1.252,1.252,0,0,0,1.243,1.242h6.349v2.177h-7.428a3.346,3.346,0,0,1-1.72-.458,3.422,3.422,0,0,1-1.242-1.241,3.346,3.346,0,0,1-.458-1.72v-3.968a3.341,3.341,0,0,1,.458-1.719,3.4,3.4,0,0,1,1.242-1.241,3.349,3.349,0,0,1,1.72-.458Zm-1.394,4.222a.817.817,0,0,0,.255-.6v-.591a.87.87,0,0,0-.855-.854h-2.461a1.252,1.252,0,0,0-1.243,1.241v1.059h3.7A.818.818,0,0,0,6475.921,3634.472Z" transform="translate(-6393.94 -3627.034)"/>
      </g>
    </g>
    <g id="Commit_action_Publish_state" data-name="Commit action Publish state" transform="translate(6323.738 3441.395)" style="isolation: isolate">
      <g id="组_3635" data-name="组 3635" style="isolation: isolate">
        <path id="路径_9331" data-name="路径 9331" d="M6358.636,3489.07h-7.593a3.287,3.287,0,0,1-1.707-.457,3.422,3.422,0,0,1-1.232-1.241,3.3,3.3,0,0,1-.458-1.7v-4.679a3.262,3.262,0,0,1,.458-1.69,3.452,3.452,0,0,1,1.232-1.232,3.291,3.291,0,0,1,1.707-.457h7.593v1.782h-6.693a1.558,1.558,0,0,0-1.133.457,1.536,1.536,0,0,0-.465,1.141v4.679a1.589,1.589,0,0,0,1.6,1.6h6.693Z" transform="translate(-6347.646 -3477.615)"/>
        <path id="路径_9332" data-name="路径 9332" d="M6368.742,3480.79a2.588,2.588,0,0,1,.949.949,2.533,2.533,0,0,1,.35,1.3v3.647a2.527,2.527,0,0,1-.35,1.3,2.6,2.6,0,0,1-2.264,1.3h-3.864a2.518,2.518,0,0,1-1.306-.349,2.618,2.618,0,0,1-.94-.95,2.527,2.527,0,0,1-.349-1.3v-3.647a2.532,2.532,0,0,1,.349-1.3,2.625,2.625,0,0,1,.94-.949,2.518,2.518,0,0,1,1.306-.349h3.864A2.567,2.567,0,0,1,6368.742,3480.79Zm-1.382,2.781a1.334,1.334,0,0,0-1.349-1.348h-1.031a1.336,1.336,0,0,0-1.35,1.348v2.582a1.336,1.336,0,0,0,1.35,1.348h1.031a1.335,1.335,0,0,0,1.349-1.348Z" transform="translate(-6348.645 -3477.827)"/>
        <path id="路径_9333" data-name="路径 9333" d="M6385.179,3480.79a2.6,2.6,0,0,1,.949.949,2.532,2.532,0,0,1,.349,1.3v6.244h-2.68v-5.711a1.308,1.308,0,0,0-.391-.957,1.286,1.286,0,0,0-.942-.39h-.4a1.287,1.287,0,0,0-.942.39,1.307,1.307,0,0,0-.39.957v5.711h-2.681v-5.711a1.3,1.3,0,0,0-.392-.957,1.284,1.284,0,0,0-.94-.39h-.383a1.336,1.336,0,0,0-1.35,1.348v5.711h-2.663v-6.244a2.532,2.532,0,0,1,.349-1.3,2.587,2.587,0,0,1,.95-.949,2.529,2.529,0,0,1,1.3-.349h2.5a3.354,3.354,0,0,1,1.981.65,3.277,3.277,0,0,1,1.965-.65h2.513A2.54,2.54,0,0,1,6385.179,3480.79Z" transform="translate(-6349.496 -3477.827)"/>
        <path id="路径_9334" data-name="路径 9334" d="M6402.17,3480.79a2.591,2.591,0,0,1,.949.949,2.528,2.528,0,0,1,.349,1.3v6.244h-2.68v-5.711a1.306,1.306,0,0,0-.391-.957,1.285,1.285,0,0,0-.941-.39h-.4a1.286,1.286,0,0,0-.942.39,1.305,1.305,0,0,0-.391.957v5.711h-2.681v-5.711a1.3,1.3,0,0,0-.391-.957,1.285,1.285,0,0,0-.941-.39h-.383a1.337,1.337,0,0,0-1.35,1.348v5.711h-2.663v-6.244a2.532,2.532,0,0,1,.349-1.3,2.588,2.588,0,0,1,.95-.949,2.527,2.527,0,0,1,1.3-.349h2.5a3.351,3.351,0,0,1,1.981.65,3.277,3.277,0,0,1,1.965-.65h2.514A2.535,2.535,0,0,1,6402.17,3480.79Z" transform="translate(-6350.77 -3477.827)"/>
        <path id="路径_9335" data-name="路径 9335" d="M6406.416,3477.633h2.663v2.6h-2.663Zm0,3.262h2.663v8.176h-2.663Z" transform="translate(-6352.052 -3477.616)"/>
        <path id="路径_9336" data-name="路径 9336" d="M6414.208,3486.275a1.022,1.022,0,0,0,1.015,1.015h1.217v1.781h-2.116a2.706,2.706,0,0,1-1.341-.349,2.912,2.912,0,0,1-1.015-.941,2.659,2.659,0,0,1-.441-1.307v-4.462h-1.116v-1.782h1.116v-2.6h2.682v2.6h2.231v1.782h-2.231Z" transform="translate(-6352.352 -3477.616)"/>
        <path id="路径_9337" data-name="路径 9337" d="M6438.6,3480.441v8.841h-2.664v-.466a6.744,6.744,0,0,1-2.464.466h-2.714a2.1,2.1,0,0,1-1.083-.29,2.141,2.141,0,0,1-.791-.792,2.1,2.1,0,0,1-.292-1.082v-4.511a2.1,2.1,0,0,1,.292-1.082,2.138,2.138,0,0,1,.791-.791,2.1,2.1,0,0,1,1.083-.292h2.7a6.881,6.881,0,0,1,2.48.466v-.466Zm-2.664,6.593v-4.345a6.783,6.783,0,0,0-2.48-.466h-.849a1.334,1.334,0,0,0-1.349,1.348v2.582a1.335,1.335,0,0,0,1.349,1.348h.849A6.793,6.793,0,0,0,6435.934,3487.034Z" transform="translate(-6353.714 -3477.827)"/>
        <path id="路径_9338" data-name="路径 9338" d="M6449.888,3489.281h-6.46a2.6,2.6,0,0,1-2.614-2.614v-3.613a2.563,2.563,0,0,1,.349-1.316,2.59,2.59,0,0,1,.95-.949,2.56,2.56,0,0,1,1.316-.349h6.46v1.782h-5.062a1.309,1.309,0,0,0-.948.39,1.287,1.287,0,0,0-.4.957v2.582a1.286,1.286,0,0,0,.4.957,1.305,1.305,0,0,0,.948.391h5.063Z" transform="translate(-6354.631 -3477.827)"/>
        <path id="路径_9339" data-name="路径 9339" d="M6455.282,3486.275a1.024,1.024,0,0,0,1.016,1.015h1.215v1.781H6455.4a2.691,2.691,0,0,1-1.34-.349,2.892,2.892,0,0,1-1.016-.941,2.67,2.67,0,0,1-.442-1.307v-4.462h-1.116v-1.782h1.116v-2.6h2.681v2.6h2.231v1.782h-2.231Z" transform="translate(-6355.431 -3477.616)"/>
        <path id="路径_9340" data-name="路径 9340" d="M6459.118,3477.633h2.664v2.6h-2.664Zm0,3.262h2.664v8.176h-2.664Z" transform="translate(-6356.003 -3477.616)"/>
        <path id="路径_9341" data-name="路径 9341" d="M6471.43,3480.79a2.6,2.6,0,0,1,.949.949,2.533,2.533,0,0,1,.35,1.3v3.647a2.527,2.527,0,0,1-.35,1.3,2.6,2.6,0,0,1-2.264,1.3h-3.864a2.517,2.517,0,0,1-1.306-.349,2.617,2.617,0,0,1-.941-.95,2.526,2.526,0,0,1-.349-1.3v-3.647a2.532,2.532,0,0,1,.349-1.3,2.624,2.624,0,0,1,.941-.949,2.517,2.517,0,0,1,1.306-.349h3.864A2.569,2.569,0,0,1,6471.43,3480.79Zm-1.383,2.781a1.333,1.333,0,0,0-1.349-1.348h-1.031a1.336,1.336,0,0,0-1.35,1.348v2.582a1.336,1.336,0,0,0,1.35,1.348h1.031a1.333,1.333,0,0,0,1.349-1.348Z" transform="translate(-6356.344 -3477.827)"/>
        <path id="路径_9342" data-name="路径 9342" d="M6481.261,3489.281v-5.711a1.335,1.335,0,0,0-1.349-1.348h-1.032a1.334,1.334,0,0,0-1.348,1.348v5.711h-2.665v-6.244a2.534,2.534,0,0,1,.351-1.3,2.6,2.6,0,0,1,.948-.949,2.536,2.536,0,0,1,1.3-.349h3.863a2.559,2.559,0,0,1,1.314.349,2.6,2.6,0,0,1,.949.949,2.529,2.529,0,0,1,.351,1.3v6.244Z" transform="translate(-6357.184 -3477.827)"/>
      </g>
      <g id="组_3636" data-name="组 3636" transform="translate(6.935 19.426)" style="isolation: isolate">
        <path id="路径_9343" data-name="路径 9343" d="M6364.576,3499.114a3.717,3.717,0,0,1,1.357,1.35,3.6,3.6,0,0,1,.5,1.865,3.654,3.654,0,0,1-.5,1.873,3.72,3.72,0,0,1-1.357,1.357,3.661,3.661,0,0,1-1.873.5h-4.9v4.013h-2.664v-11.455h7.56A3.659,3.659,0,0,1,6364.576,3499.114Zm-1.39,4.6a1.951,1.951,0,0,0,0-2.748,1.858,1.858,0,0,0-1.366-.565h-4.013v3.878h4.013A1.859,1.859,0,0,0,6363.186,3503.71Z" transform="translate(-6355.143 -3498.615)"/>
        <path id="路径_9344" data-name="路径 9344" d="M6371.307,3501.441v5.711a1.335,1.335,0,0,0,1.349,1.348h1.049a1.283,1.283,0,0,0,.941-.39,1.306,1.306,0,0,0,.391-.958v-5.711h2.681v6.244a2.517,2.517,0,0,1-.35,1.3,2.6,2.6,0,0,1-2.265,1.3h-3.863a2.533,2.533,0,0,1-1.3-.349,2.588,2.588,0,0,1-.949-.95,2.536,2.536,0,0,1-.349-1.3v-6.244Z" transform="translate(-6356.155 -3498.827)"/>
        <path id="路径_9345" data-name="路径 9345" d="M6388.781,3501.522a2.136,2.136,0,0,1,.79.791,2.1,2.1,0,0,1,.292,1.082v4.511a2.1,2.1,0,0,1-.292,1.083,2.138,2.138,0,0,1-.79.792,2.1,2.1,0,0,1-1.082.291h-2.715a6.744,6.744,0,0,1-2.464-.467v.467h-2.663v-11.438h2.663v3.063a6.968,6.968,0,0,1,2.482-.466h2.7A2.1,2.1,0,0,1,6388.781,3501.522Zm-1.582,2.838a1.336,1.336,0,0,0-1.349-1.348H6385a6.789,6.789,0,0,0-2.482.466v4.345a6.789,6.789,0,0,0,2.482.466h.849a1.336,1.336,0,0,0,1.349-1.348Z" transform="translate(-6356.996 -3498.617)"/>
        <path id="路径_9346" data-name="路径 9346" d="M6395.012,3510.071h-2.681v-11.438h2.681Z" transform="translate(-6357.932 -3498.617)"/>
        <path id="路径_9347" data-name="路径 9347" d="M6397.138,3498.633h2.663v2.6h-2.663Zm0,3.262h2.663v8.176h-2.663Z" transform="translate(-6358.292 -3498.617)"/>
        <path id="路径_9348" data-name="路径 9348" d="M6404.948,3503.223a.823.823,0,0,0-.616.258.869.869,0,0,0-.249.624.85.85,0,0,0,.249.608.823.823,0,0,0,.616.258h2.864a2.584,2.584,0,0,1,1.34.358,2.7,2.7,0,0,1,.967.967,2.661,2.661,0,0,1,0,2.664,2.676,2.676,0,0,1-.967.965,2.586,2.586,0,0,1-1.34.358h-6.06V3508.5h5.178a.848.848,0,0,0,.625-.258.828.828,0,0,0,.257-.607.88.88,0,0,0-.882-.884h-2.864a2.589,2.589,0,0,1-1.332-.358,2.673,2.673,0,0,1-.975-.965,2.564,2.564,0,0,1-.358-1.325,2.6,2.6,0,0,1,.358-1.34,2.672,2.672,0,0,1,.975-.965,2.608,2.608,0,0,1,1.332-.358h5.994v1.782Z" transform="translate(-6358.611 -3498.827)"/>
        <path id="路径_9349" data-name="路径 9349" d="M6420.338,3501.521a2.144,2.144,0,0,1,.792.791,2.119,2.119,0,0,1,.291,1.082v6.676h-2.664v-5.711a1.333,1.333,0,0,0-1.349-1.348h-.4a5.521,5.521,0,0,0-1.982.415v6.644h-2.68v-11.455h2.68v3.031a5.462,5.462,0,0,1,1.982-.417h2.247A2.1,2.1,0,0,1,6420.338,3501.521Z" transform="translate(-6359.432 -3498.615)"/>
        <path id="路径_9350" data-name="路径 9350" d="M6437.636,3503.223a.822.822,0,0,0-.616.258.866.866,0,0,0-.25.624.847.847,0,0,0,.25.608.822.822,0,0,0,.616.258h2.864a2.592,2.592,0,0,1,1.34.358,2.714,2.714,0,0,1,.966.967,2.658,2.658,0,0,1,0,2.664,2.7,2.7,0,0,1-.966.965,2.594,2.594,0,0,1-1.34.358h-6.061V3508.5h5.178a.845.845,0,0,0,.624-.258.829.829,0,0,0,.259-.607.883.883,0,0,0-.883-.884h-2.863a2.593,2.593,0,0,1-1.333-.358,2.668,2.668,0,0,1-.973-.965,2.569,2.569,0,0,1-.358-1.325,2.6,2.6,0,0,1,.358-1.34,2.667,2.667,0,0,1,.973-.965,2.612,2.612,0,0,1,1.333-.358h5.993v1.782Z" transform="translate(-6361.062 -3498.827)"/>
        <path id="路径_9351" data-name="路径 9351" d="M6448.291,3507.275a1.023,1.023,0,0,0,1.015,1.015h1.216v1.782h-2.114a2.7,2.7,0,0,1-1.341-.349,2.908,2.908,0,0,1-1.015-.94,2.666,2.666,0,0,1-.442-1.307v-4.462h-1.115v-1.782h1.115v-2.6h2.682v2.6h2.231v1.782h-2.231Z" transform="translate(-6361.842 -3498.617)"/>
        <path id="路径_9352" data-name="路径 9352" d="M6461.88,3501.441v8.841h-2.663v-.467a6.746,6.746,0,0,1-2.465.467h-2.714a2.1,2.1,0,0,1-1.082-.291,2.159,2.159,0,0,1-.791-.792,2.117,2.117,0,0,1-.292-1.082v-4.511a2.12,2.12,0,0,1,.292-1.082,2.154,2.154,0,0,1,.791-.791,2.1,2.1,0,0,1,1.082-.292h2.7a6.874,6.874,0,0,1,2.482.467v-.467Zm-2.663,6.593v-4.345a6.791,6.791,0,0,0-2.482-.466h-.849a1.333,1.333,0,0,0-1.348,1.348v2.582a1.333,1.333,0,0,0,1.348,1.348h.849A6.8,6.8,0,0,0,6459.217,3508.034Z" transform="translate(-6362.395 -3498.827)"/>
        <path id="路径_9353" data-name="路径 9353" d="M6467.352,3507.275a1.021,1.021,0,0,0,1.015,1.015h1.215v1.782h-2.114a2.7,2.7,0,0,1-1.34-.349,2.92,2.92,0,0,1-1.016-.94,2.659,2.659,0,0,1-.44-1.307v-4.462h-1.116v-1.782h1.116v-2.6h2.68v2.6h2.23v1.782h-2.23Z" transform="translate(-6363.271 -3498.617)"/>
        <path id="路径_9354" data-name="路径 9354" d="M6478.261,3501.441a1.736,1.736,0,0,1,1.749,1.748v1.95a1.688,1.688,0,0,1-.509,1.23,1.667,1.667,0,0,1-1.24.516H6473.6v.6a1.026,1.026,0,0,0,1.017,1.015h5.194v1.782h-6.077a2.743,2.743,0,0,1-1.407-.374,2.79,2.79,0,0,1-1.016-1.016,2.743,2.743,0,0,1-.374-1.407v-3.247a2.743,2.743,0,0,1,.374-1.408,2.779,2.779,0,0,1,1.016-1.015,2.734,2.734,0,0,1,1.407-.375Zm-1.14,3.455a.675.675,0,0,0,.208-.491v-.483a.711.711,0,0,0-.7-.7h-2.014a1.026,1.026,0,0,0-1.017,1.016v.865h3.031A.672.672,0,0,0,6477.121,3504.9Z" transform="translate(-6363.824 -3498.827)"/>
      </g>
    </g>
    <g id="IPFS_AR" data-name="IPFS AR" transform="translate(6291.931 3770.76)" style="isolation: isolate">
      <g id="组_3637" data-name="组 3637" style="isolation: isolate">
        <path id="路径_9355" data-name="路径 9355" d="M6316.813,3848.971h-3.552v-15.3h3.552Z" transform="translate(-6313.261 -3833.675)"/>
        <path id="路径_9356" data-name="路径 9356" d="M6331.79,3834.365a4.965,4.965,0,0,1,1.809,1.8,4.821,4.821,0,0,1,.665,2.487,4.879,4.879,0,0,1-.665,2.5,4.937,4.937,0,0,1-1.809,1.809,4.881,4.881,0,0,1-2.5.666h-6.525v5.35h-3.553V3833.7h10.078A4.874,4.874,0,0,1,6331.79,3834.365Zm-1.854,6.127a2.51,2.51,0,0,0,.755-1.843,2.577,2.577,0,0,0-2.576-2.575h-5.349v5.173h5.349A2.485,2.485,0,0,0,6329.936,3840.492Z" transform="translate(-6313.708 -3833.677)"/>
        <path id="路径_9357" data-name="路径 9357" d="M6342.244,3836.452a2.851,2.851,0,0,0-1.042,1.032,2.747,2.747,0,0,0-.388,1.432v2.42h11.1v2.375h-11.1v5.262h-3.553v-10.057a5.1,5.1,0,0,1,.7-2.62,5.185,5.185,0,0,1,1.9-1.9,5.111,5.111,0,0,1,2.62-.7h9.438v2.376h-8.26A2.783,2.783,0,0,0,6342.244,3836.452Z" transform="translate(-6315.061 -3833.677)"/>
        <path id="路径_9358" data-name="路径 9358" d="M6366.805,3840.648a4.478,4.478,0,0,1,1.62,1.621,4.486,4.486,0,0,1,0,4.485,4.47,4.47,0,0,1-1.62,1.621,4.311,4.311,0,0,1-2.221.6h-9.59v-2.4h8.392a2.033,2.033,0,0,0,1.476-.6,2.064,2.064,0,0,0,0-2.93,2.033,2.033,0,0,0-1.476-.6h-4.64a4.247,4.247,0,0,1-2.2-.588,4.379,4.379,0,0,1-1.588-1.6,4.382,4.382,0,0,1,0-4.385,4.412,4.412,0,0,1,1.588-1.587,4.247,4.247,0,0,1,2.2-.588h9.39v2.376h-8.213a2.009,2.009,0,0,0-2,2,1.879,1.879,0,0,0,.588,1.4,1.936,1.936,0,0,0,1.41.578h4.662A4.311,4.311,0,0,1,6366.805,3840.648Z" transform="translate(-6316.343 -3833.677)"/>
        <path id="路径_9359" data-name="路径 9359" d="M6397.292,3841.814c.571.015,1.025.022,1.366.022s.776-.008,1.312-.022a8.735,8.735,0,0,1-1.226,4.542q.684.766,1.328,1.421t1.166,1.235q-1.149-.021-1.789-.021h-1.713l-1.235-1.291q-.412.315-.71.51a6.463,6.463,0,0,1-.727.4,6.113,6.113,0,0,1-.905.347,7.174,7.174,0,0,1-1.008.216,8.058,8.058,0,0,1-1.149.076,7.536,7.536,0,0,1-2.878-.525,4.057,4.057,0,0,1-1.951-1.572,4.237,4.237,0,0,1-.342-3.908,4.443,4.443,0,0,1,1.1-1.49,11.66,11.66,0,0,1,2.385-1.588,7.847,7.847,0,0,1-.8-1.518,3.61,3.61,0,0,1-.239-1.246,3.131,3.131,0,0,1,.331-1.393,3.34,3.34,0,0,1,.969-1.177,3.857,3.857,0,0,1,1.426-.7,6.787,6.787,0,0,1,1.675-.2,12.866,12.866,0,0,1,3.143.444l.055,2.417a6.67,6.67,0,0,0-1.241-.482,4.116,4.116,0,0,0-.992-.125,2.935,2.935,0,0,0-1.154.222,1.721,1.721,0,0,0-.8.65,1.638,1.638,0,0,0-.277.906,2.285,2.285,0,0,0,.07.548,3.414,3.414,0,0,0,.266.677,9.165,9.165,0,0,0,.792,1.258,20.7,20.7,0,0,0,1.312,1.615q.162.194,1.17,1.225.455.466.868.921a4.944,4.944,0,0,0,.216-.624,5.748,5.748,0,0,0,.119-.72Q6397.27,3842.4,6397.292,3841.814Zm-2.266,4.119-1.42-1.528q-.607-.651-1.019-1.122t-.965-1.144a13.03,13.03,0,0,0-1.111.755,3.08,3.08,0,0,0-.606.63,2.2,2.2,0,0,0-.337.663,2.339,2.339,0,0,0-.092.647,2.012,2.012,0,0,0,.363,1.166,2.277,2.277,0,0,0,1.02.8,3.763,3.763,0,0,0,1.48.276,4.086,4.086,0,0,0,.877-.092,3.426,3.426,0,0,0,.753-.253,2.747,2.747,0,0,0,.553-.339A6.32,6.32,0,0,0,6395.026,3845.934Z" transform="translate(-6318.752 -3833.695)"/>
        <path id="路径_9360" data-name="路径 9360" d="M6430.788,3848.973l-4.884-11.589L6422,3846.6h4.375l1.109,2.375h-10.035l6.482-15.274h3.93l6.482,15.274Z" transform="translate(-6321.073 -3833.677)"/>
        <path id="路径_9361" data-name="路径 9361" d="M6451.225,3841.2a4.837,4.837,0,0,1-1.865,1.8l2.553,5.972h-3.552l-2.309-5.35h-5.617v5.35h-3.575V3833.7h10.079a4.87,4.87,0,0,1,2.5.666,4.957,4.957,0,0,1,1.809,1.8,4.812,4.812,0,0,1,.666,2.487A4.895,4.895,0,0,1,6451.225,3841.2Zm-10.79.044h5.327a2.519,2.519,0,0,0,1.833-.755,2.484,2.484,0,0,0,.766-1.843,2.459,2.459,0,0,0-.766-1.821,2.518,2.518,0,0,0-1.833-.755h-5.327Z" transform="translate(-6322.528 -3833.677)"/>
      </g>
    </g>
    <g id="Update_game_records" data-name="Update game records" transform="translate(6143.706 3579.393)" style="isolation: isolate">
      <g id="组_3638" data-name="组 3638" style="isolation: isolate">
        <path id="路径_9362" data-name="路径 9362" d="M6156.3,3626.8v10.175a1.567,1.567,0,0,0,.479,1.149,1.591,1.591,0,0,0,1.17.478h3.6a1.59,1.59,0,0,0,1.17-.478,1.566,1.566,0,0,0,.477-1.149V3626.8h3.277V3637.6a3.047,3.047,0,0,1-.436,1.587,3.358,3.358,0,0,1-1.171,1.171,3.043,3.043,0,0,1-1.587.438h-7.061a3.2,3.2,0,0,1-3.2-3.2V3626.8Z" transform="translate(-6153.023 -3626.797)"/>
        <path id="路径_9363" data-name="路径 9363" d="M6180.233,3630.628a2.642,2.642,0,0,1,.966.967,2.573,2.573,0,0,1,.357,1.324v5.494a2.57,2.57,0,0,1-.357,1.324,2.642,2.642,0,0,1-.966.967,2.575,2.575,0,0,1-1.322.356h-3.276a6.881,6.881,0,0,1-3.033-.733v3.927h-3.275v-13.982h3.275v.713a7.174,7.174,0,0,1,3.012-.713h3.3A2.582,2.582,0,0,1,6180.233,3630.628Zm-1.934,3.45a1.6,1.6,0,0,0-.477-1.16,1.55,1.55,0,0,0-1.15-.49h-1.038a7.21,7.21,0,0,0-3.033.713v5.027a6.868,6.868,0,0,0,3.033.712h1.038a1.571,1.571,0,0,0,1.15-.478,1.6,1.6,0,0,0,.477-1.17Z" transform="translate(-6154.245 -3627.058)"/>
        <path id="路径_9364" data-name="路径 9364" d="M6196.495,3626.8v14h-3.256v-.571a8.212,8.212,0,0,1-3.012.571h-3.337a2.523,2.523,0,0,1-1.312-.356,2.677,2.677,0,0,1-.958-.967,2.6,2.6,0,0,1-.355-1.324v-5.515a2.594,2.594,0,0,1,.355-1.322,2.658,2.658,0,0,1,.958-.967,2.518,2.518,0,0,1,1.313-.356h3.317a8.308,8.308,0,0,1,3.032.569V3626.8Zm-3.256,11.253v-5.312a8.32,8.32,0,0,0-3.032-.571h-1.038a1.636,1.636,0,0,0-1.649,1.649v3.155a1.634,1.634,0,0,0,1.649,1.648h1.038A8.309,8.309,0,0,0,6193.239,3638.051Z" transform="translate(-6155.366 -3626.797)"/>
        <path id="路径_9365" data-name="路径 9365" d="M6211.433,3630.251v10.806h-3.257v-.571a8.2,8.2,0,0,1-3.012.571h-3.317a2.579,2.579,0,0,1-1.323-.356,2.655,2.655,0,0,1-.967-.967,2.588,2.588,0,0,1-.356-1.324V3632.9a2.586,2.586,0,0,1,.356-1.322,2.639,2.639,0,0,1,.967-.967,2.576,2.576,0,0,1,1.323-.356h3.3a8.413,8.413,0,0,1,3.032.569v-.569Zm-3.257,8.059V3633a8.307,8.307,0,0,0-3.032-.571h-1.037a1.634,1.634,0,0,0-1.649,1.649v3.155a1.632,1.632,0,0,0,1.649,1.648h1.037A8.3,8.3,0,0,0,6208.175,3638.31Z" transform="translate(-6156.485 -3627.056)"/>
        <path id="路径_9366" data-name="路径 9366" d="M6218.119,3637.38a1.25,1.25,0,0,0,1.242,1.242h1.485v2.178h-2.584a3.3,3.3,0,0,1-1.637-.428,3.54,3.54,0,0,1-1.242-1.15,3.254,3.254,0,0,1-.54-1.6v-5.455h-1.363v-2.177h1.363v-3.176h3.277v3.176h2.727v2.177h-2.727Z" transform="translate(-6157.556 -3626.799)"/>
        <path id="路径_9367" data-name="路径 9367" d="M6231.454,3630.251a2.12,2.12,0,0,1,2.135,2.137v2.381a2.067,2.067,0,0,1-.621,1.506,2.04,2.04,0,0,1-1.515.63h-5.7v.733a1.25,1.25,0,0,0,1.241,1.242h6.35v2.178h-7.428a3.344,3.344,0,0,1-1.719-.458,3.415,3.415,0,0,1-1.241-1.241,3.352,3.352,0,0,1-.459-1.72v-3.969a3.346,3.346,0,0,1,.459-1.719,3.391,3.391,0,0,1,1.241-1.241,3.342,3.342,0,0,1,1.719-.458Zm-1.395,4.222a.818.818,0,0,0,.254-.6v-.591a.871.871,0,0,0-.855-.855H6227a1.251,1.251,0,0,0-1.241,1.241v1.059h3.7A.822.822,0,0,0,6230.059,3634.473Z" transform="translate(-6158.231 -3627.056)"/>
        <path id="路径_9368" data-name="路径 9368" d="M6261.655,3630.251v10.581a3.349,3.349,0,0,1-.458,1.721,3.482,3.482,0,0,1-1.24,1.251,3.292,3.292,0,0,1-1.72.468h-8.364v-2.2h7.265a1.218,1.218,0,0,0,.9-.365,1.2,1.2,0,0,0,.367-.876v-1.689a11.188,11.188,0,0,1-3.846.773h-2.5a2.576,2.576,0,0,1-1.323-.356,2.613,2.613,0,0,1-.966-.976,2.641,2.641,0,0,1-.356-1.334V3632.9a2.586,2.586,0,0,1,.356-1.322,2.645,2.645,0,0,1,.966-.967,2.578,2.578,0,0,1,1.323-.356h2.483a11.787,11.787,0,0,1,3.867.752v-.752Zm-6.309,7.468a14.11,14.11,0,0,0,3.054-.9v-3.479a15.387,15.387,0,0,0-3.054-.917h-1.037a1.606,1.606,0,0,0-1.161.479,1.578,1.578,0,0,0-.489,1.17v1.994a1.58,1.58,0,0,0,.489,1.17,1.607,1.607,0,0,0,1.161.477Z" transform="translate(-6160.249 -3627.056)"/>
        <path id="路径_9369" data-name="路径 9369" d="M6276.595,3630.251v10.806h-3.256v-.571a8.211,8.211,0,0,1-3.011.571h-3.317a2.575,2.575,0,0,1-1.323-.356,2.639,2.639,0,0,1-.966-.967,2.57,2.57,0,0,1-.357-1.324V3632.9a2.568,2.568,0,0,1,.357-1.322,2.623,2.623,0,0,1,.966-.967,2.573,2.573,0,0,1,1.323-.356h3.3a8.416,8.416,0,0,1,3.031.569v-.569Zm-3.256,8.059V3633a8.308,8.308,0,0,0-3.031-.571h-1.039a1.634,1.634,0,0,0-1.648,1.649v3.155a1.632,1.632,0,0,0,1.648,1.648h1.039A8.3,8.3,0,0,0,6273.338,3638.31Z" transform="translate(-6161.37 -3627.056)"/>
        <path id="路径_9370" data-name="路径 9370" d="M6295.188,3630.678a3.159,3.159,0,0,1,1.16,1.16,3.1,3.1,0,0,1,.428,1.587v7.632H6293.5v-6.98a1.6,1.6,0,0,0-.479-1.17,1.572,1.572,0,0,0-1.15-.479h-.488a1.565,1.565,0,0,0-1.15.479,1.59,1.59,0,0,0-.479,1.17v6.98h-3.276v-6.98a1.593,1.593,0,0,0-.478-1.17,1.568,1.568,0,0,0-1.15-.479h-.469a1.634,1.634,0,0,0-1.647,1.649v6.98h-3.255v-7.632a3.1,3.1,0,0,1,.425-1.587,3.181,3.181,0,0,1,1.16-1.16,3.1,3.1,0,0,1,1.588-.427h3.053a4.105,4.105,0,0,1,2.422.793,4.005,4.005,0,0,1,2.4-.793h3.073A3.088,3.088,0,0,1,6295.188,3630.678Z" transform="translate(-6162.503 -3627.056)"/>
        <path id="路径_9371" data-name="路径 9371" d="M6309.024,3630.251a2.119,2.119,0,0,1,2.137,2.137v2.381a2.072,2.072,0,0,1-.62,1.506,2.047,2.047,0,0,1-1.517.63h-5.7v.733a1.249,1.249,0,0,0,1.242,1.242h6.348v2.178h-7.427a3.352,3.352,0,0,1-1.721-.458,3.427,3.427,0,0,1-1.241-1.241,3.346,3.346,0,0,1-.458-1.72v-3.969a3.34,3.34,0,0,1,.458-1.719,3.4,3.4,0,0,1,1.241-1.241,3.35,3.35,0,0,1,1.721-.458Zm-1.395,4.222a.816.816,0,0,0,.255-.6v-.591a.872.872,0,0,0-.854-.855h-2.462a1.25,1.25,0,0,0-1.242,1.241v1.059h3.7A.818.818,0,0,0,6307.629,3634.473Z" transform="translate(-6164.047 -3627.056)"/>
        <path id="路径_9372" data-name="路径 9372" d="M6197.239,3658.828h-2.483a1.573,1.573,0,0,0-1.15.478,1.593,1.593,0,0,0-.477,1.17v6.98h-3.276v-7.632a3.1,3.1,0,0,1,.426-1.587,3.165,3.165,0,0,1,1.161-1.16,3.1,3.1,0,0,1,1.587-.427h4.213Z" transform="translate(-6155.785 -3629.035)"/>
        <path id="路径_9373" data-name="路径 9373" d="M6207.782,3656.651a2.12,2.12,0,0,1,2.136,2.137v2.381a2.068,2.068,0,0,1-.621,1.506,2.045,2.045,0,0,1-1.516.631h-5.7v.733a1.249,1.249,0,0,0,1.24,1.241h6.35v2.178h-7.428a3.351,3.351,0,0,1-1.72-.458,3.407,3.407,0,0,1-1.241-1.241,3.347,3.347,0,0,1-.458-1.72v-3.969a3.35,3.35,0,0,1,.458-1.719,3.415,3.415,0,0,1,1.241-1.241,3.349,3.349,0,0,1,1.72-.458Zm-1.395,4.223a.82.82,0,0,0,.254-.6v-.59a.869.869,0,0,0-.854-.855h-2.463a1.249,1.249,0,0,0-1.24,1.241v1.058h3.7A.823.823,0,0,0,6206.388,3660.874Z" transform="translate(-6156.457 -3629.035)"/>
        <path id="路径_9374" data-name="路径 9374" d="M6223.624,3667.457h-7.9a3.129,3.129,0,0,1-1.607-.427,3.173,3.173,0,0,1-1.161-1.16,3.14,3.14,0,0,1-.427-1.608v-4.416a3.181,3.181,0,0,1,3.195-3.2h7.9v2.177h-6.186a1.607,1.607,0,0,0-1.161.478,1.575,1.575,0,0,0-.488,1.17v3.154a1.575,1.575,0,0,0,.488,1.17,1.6,1.6,0,0,0,1.161.478h6.186Z" transform="translate(-6157.484 -3629.035)"/>
        <path id="路径_9375" data-name="路径 9375" d="M6235.743,3657.078a3.18,3.18,0,0,1,1.161,1.16,3.112,3.112,0,0,1,.427,1.587v4.457a3.112,3.112,0,0,1-.427,1.587,3.18,3.18,0,0,1-1.161,1.16,3.14,3.14,0,0,1-1.608.427h-4.721a3.086,3.086,0,0,1-1.6-.427,3.192,3.192,0,0,1-1.148-1.16,3.1,3.1,0,0,1-.429-1.587v-4.457a3.1,3.1,0,0,1,.429-1.587,3.192,3.192,0,0,1,1.148-1.16,3.086,3.086,0,0,1,1.6-.427h4.721A3.14,3.14,0,0,1,6235.743,3657.078Zm-1.688,3.4a1.634,1.634,0,0,0-1.65-1.649h-1.26a1.632,1.632,0,0,0-1.649,1.649v3.154a1.632,1.632,0,0,0,1.649,1.648h1.26a1.634,1.634,0,0,0,1.65-1.648Z" transform="translate(-6158.512 -3629.035)"/>
        <path id="路径_9376" data-name="路径 9376" d="M6247.333,3658.828h-2.484a1.568,1.568,0,0,0-1.149.478,1.589,1.589,0,0,0-.479,1.17v6.98h-3.277v-7.632a3.113,3.113,0,0,1,.427-1.587,3.187,3.187,0,0,1,1.161-1.16,3.1,3.1,0,0,1,1.588-.427h4.213Z" transform="translate(-6159.54 -3629.035)"/>
        <path id="路径_9377" data-name="路径 9377" d="M6261.152,3653.2v14H6257.9v-.57a8.241,8.241,0,0,1-3.012.57h-3.339a2.517,2.517,0,0,1-1.312-.356,2.658,2.658,0,0,1-.956-.967,2.574,2.574,0,0,1-.357-1.323v-5.515a2.574,2.574,0,0,1,.357-1.323,2.661,2.661,0,0,1,.956-.967,2.522,2.522,0,0,1,1.312-.356h3.319a8.288,8.288,0,0,1,3.032.57V3653.2Zm-3.256,11.254v-5.312a8.309,8.309,0,0,0-3.032-.57h-1.038a1.633,1.633,0,0,0-1.649,1.649v3.154a1.632,1.632,0,0,0,1.649,1.648h1.038A8.318,8.318,0,0,0,6257.9,3664.451Z" transform="translate(-6160.212 -3628.777)"/>
        <path id="路径_9378" data-name="路径 9378" d="M6267.863,3658.828a1.007,1.007,0,0,0-.753.315,1.059,1.059,0,0,0-.306.763,1.033,1.033,0,0,0,.306.743,1.007,1.007,0,0,0,.753.315h3.5a3.179,3.179,0,0,1,1.639.438,3.288,3.288,0,0,1,1.179,1.18,3.17,3.17,0,0,1,.438,1.638,3.131,3.131,0,0,1-.437,1.618,3.292,3.292,0,0,1-1.179,1.18,3.172,3.172,0,0,1-1.639.438h-7.408v-2.178h6.329a1.042,1.042,0,0,0,.763-.315,1.015,1.015,0,0,0,.315-.743,1.077,1.077,0,0,0-1.079-1.079h-3.5a3.178,3.178,0,0,1-1.628-.437,3.24,3.24,0,0,1-1.19-1.18,3.132,3.132,0,0,1-.439-1.618,3.171,3.171,0,0,1,.439-1.638,3.247,3.247,0,0,1,1.19-1.18,3.185,3.185,0,0,1,1.628-.438h7.326v2.177Z" transform="translate(-6161.308 -3629.035)"/>
      </g>
    </g>
    <g id="Report" transform="translate(6228.065 3254.657)" style="isolation: isolate">
      <g id="组_3639" data-name="组 3639" style="isolation: isolate">
        <path id="路径_9379" data-name="路径 9379" d="M6257.386,3282.622a4.439,4.439,0,0,1-1.709,1.648l2.34,5.474h-3.256l-2.117-4.9H6247.5v4.9h-3.277v-14h9.239a4.471,4.471,0,0,1,2.291.61,4.558,4.558,0,0,1,1.659,1.648,4.416,4.416,0,0,1,.609,2.278A4.48,4.48,0,0,1,6257.386,3282.622Zm-9.889.041h4.883a2.38,2.38,0,0,0,2.381-2.382,2.26,2.26,0,0,0-.7-1.668,2.309,2.309,0,0,0-1.679-.692H6247.5Z" transform="translate(-6244.219 -3275.743)"/>
        <path id="路径_9380" data-name="路径 9380" d="M6269.476,3279.2a2.122,2.122,0,0,1,2.138,2.137v2.381a2.073,2.073,0,0,1-.622,1.506,2.043,2.043,0,0,1-1.516.631h-5.7v.733a1.252,1.252,0,0,0,1.241,1.241h6.35V3290h-7.428a3.353,3.353,0,0,1-1.72-.458,3.415,3.415,0,0,1-1.24-1.241,3.348,3.348,0,0,1-.458-1.719v-3.969a3.35,3.35,0,0,1,.458-1.72,3.405,3.405,0,0,1,1.24-1.241,3.353,3.353,0,0,1,1.72-.458Zm-1.4,4.223a.819.819,0,0,0,.256-.6v-.59a.872.872,0,0,0-.855-.855h-2.463a1.252,1.252,0,0,0-1.241,1.241v1.058h3.7A.816.816,0,0,0,6268.08,3283.42Z" transform="translate(-6245.441 -3276.002)"/>
        <path id="路径_9381" data-name="路径 9381" d="M6285.136,3279.575a2.647,2.647,0,0,1,.965.966,2.592,2.592,0,0,1,.356,1.324v5.495a2.587,2.587,0,0,1-.356,1.323,2.648,2.648,0,0,1-.965.967,2.58,2.58,0,0,1-1.323.356h-3.277a6.864,6.864,0,0,1-3.031-.733v3.928h-3.277v-13.981h3.277v.712a7.174,7.174,0,0,1,3.011-.712h3.3A2.59,2.59,0,0,1,6285.136,3279.575Zm-1.933,3.449a1.606,1.606,0,0,0-.479-1.16,1.552,1.552,0,0,0-1.15-.489h-1.038a7.216,7.216,0,0,0-3.031.712v5.026a6.843,6.843,0,0,0,3.031.712h1.038a1.567,1.567,0,0,0,1.15-.478,1.6,1.6,0,0,0,.479-1.17Z" transform="translate(-6246.469 -3276.003)"/>
        <path id="路径_9382" data-name="路径 9382" d="M6298.668,3279.624a3.171,3.171,0,0,1,1.161,1.16,3.1,3.1,0,0,1,.426,1.587v4.457a3.1,3.1,0,0,1-.426,1.587,3.178,3.178,0,0,1-1.161,1.16,3.13,3.13,0,0,1-1.607.427h-4.721a3.083,3.083,0,0,1-1.6-.427,3.207,3.207,0,0,1-1.149-1.16,3.085,3.085,0,0,1-.428-1.587v-4.457a3.081,3.081,0,0,1,.428-1.587,3.2,3.2,0,0,1,1.149-1.16,3.087,3.087,0,0,1,1.6-.427h4.721A3.135,3.135,0,0,1,6298.668,3279.624Zm-1.688,3.4a1.633,1.633,0,0,0-1.649-1.648h-1.261a1.632,1.632,0,0,0-1.648,1.648v3.154a1.632,1.632,0,0,0,1.648,1.648h1.261a1.632,1.632,0,0,0,1.649-1.648Z" transform="translate(-6247.589 -3276.002)"/>
        <path id="路径_9383" data-name="路径 9383" d="M6310.257,3281.375h-2.483a1.566,1.566,0,0,0-1.148.478,1.586,1.586,0,0,0-.479,1.17V3290h-3.276v-7.632a3.09,3.09,0,0,1,.427-1.587,3.184,3.184,0,0,1,1.16-1.16,3.1,3.1,0,0,1,1.588-.427h4.211Z" transform="translate(-6248.617 -3276.002)"/>
        <path id="路径_9384" data-name="路径 9384" d="M6315.827,3286.327a1.25,1.25,0,0,0,1.242,1.241h1.485v2.178h-2.584a3.292,3.292,0,0,1-1.637-.427,3.542,3.542,0,0,1-1.242-1.15,3.255,3.255,0,0,1-.54-1.6v-5.454h-1.362v-2.177h1.362v-3.175h3.277v3.175h2.727v2.177h-2.727Z" transform="translate(-6249.24 -3275.745)"/>
      </g>
    </g>
    <g id="Community" transform="translate(6337.19 3183.344)" style="isolation: isolate">
      <g id="组_3640" data-name="组 3640" style="isolation: isolate">
        <path id="路径_9385" data-name="路径 9385" d="M6376.841,3213.924h-10.125a4.382,4.382,0,0,1-2.274-.611,4.553,4.553,0,0,1-1.643-1.654,4.4,4.4,0,0,1-.611-2.265v-6.238a4.345,4.345,0,0,1,.611-2.253,4.588,4.588,0,0,1,1.643-1.642,4.373,4.373,0,0,1,2.274-.612h10.125v2.375h-8.925a2.075,2.075,0,0,0-1.51.61,2.047,2.047,0,0,0-.622,1.521v6.238a2.122,2.122,0,0,0,2.132,2.131h8.925Z" transform="translate(-6362.188 -3198.65)"/>
        <path id="路径_9386" data-name="路径 9386" d="M6390.315,3202.885a3.453,3.453,0,0,1,1.266,1.265,3.379,3.379,0,0,1,.466,1.732v4.862a3.38,3.38,0,0,1-.466,1.732,3.455,3.455,0,0,1-1.266,1.265,3.42,3.42,0,0,1-1.754.466h-5.15a3.354,3.354,0,0,1-1.742-.466,3.483,3.483,0,0,1-1.255-1.265,3.379,3.379,0,0,1-.466-1.732v-4.862a3.379,3.379,0,0,1,.466-1.732,3.482,3.482,0,0,1,1.255-1.265,3.351,3.351,0,0,1,1.742-.466h5.15A3.418,3.418,0,0,1,6390.315,3202.885Zm-1.842,3.707a1.782,1.782,0,0,0-1.8-1.8H6385.3a1.782,1.782,0,0,0-1.8,1.8v3.441a1.782,1.782,0,0,0,1.8,1.8h1.377a1.782,1.782,0,0,0,1.8-1.8Z" transform="translate(-6363.52 -3198.933)"/>
        <path id="路径_9387" data-name="路径 9387" d="M6412.23,3202.885a3.462,3.462,0,0,1,1.266,1.265,3.375,3.375,0,0,1,.466,1.732v8.325h-3.574v-7.615a1.74,1.74,0,0,0-.522-1.276,1.714,1.714,0,0,0-1.254-.522h-.533a1.718,1.718,0,0,0-1.255.522,1.741,1.741,0,0,0-.521,1.276v7.615h-3.574v-7.615a1.735,1.735,0,0,0-.522-1.276,1.711,1.711,0,0,0-1.253-.522h-.511a1.781,1.781,0,0,0-1.8,1.8v7.615h-3.552v-8.325a3.375,3.375,0,0,1,.466-1.732,3.463,3.463,0,0,1,1.265-1.265,3.377,3.377,0,0,1,1.732-.466h3.33a4.477,4.477,0,0,1,2.642.866,4.381,4.381,0,0,1,2.62-.866h3.352A3.371,3.371,0,0,1,6412.23,3202.885Z" transform="translate(-6364.655 -3198.933)"/>
        <path id="路径_9388" data-name="路径 9388" d="M6434.886,3202.885a3.449,3.449,0,0,1,1.267,1.265,3.383,3.383,0,0,1,.465,1.732v8.325h-3.574v-7.615a1.737,1.737,0,0,0-.521-1.276,1.715,1.715,0,0,0-1.256-.522h-.533a1.713,1.713,0,0,0-1.253.522,1.738,1.738,0,0,0-.522,1.276v7.615h-3.574v-7.615a1.738,1.738,0,0,0-.522-1.276,1.713,1.713,0,0,0-1.253-.522h-.512a1.782,1.782,0,0,0-1.8,1.8v7.615h-3.552v-8.325a3.375,3.375,0,0,1,.466-1.732,3.451,3.451,0,0,1,1.265-1.265,3.375,3.375,0,0,1,1.732-.466h3.33a4.476,4.476,0,0,1,2.641.866,4.384,4.384,0,0,1,2.62-.866h3.354A3.37,3.37,0,0,1,6434.886,3202.885Z" transform="translate(-6366.354 -3198.933)"/>
        <path id="路径_9389" data-name="路径 9389" d="M6443.763,3202.418v7.615a1.783,1.783,0,0,0,1.8,1.8h1.4a1.71,1.71,0,0,0,1.253-.522,1.738,1.738,0,0,0,.523-1.277v-7.615h3.573v8.325a3.38,3.38,0,0,1-.466,1.732,3.456,3.456,0,0,1-1.265,1.265,3.421,3.421,0,0,1-1.755.466h-5.15a3.374,3.374,0,0,1-1.731-.466,3.46,3.46,0,0,1-1.266-1.265,3.375,3.375,0,0,1-.466-1.732v-8.325Z" transform="translate(-6368.038 -3198.933)"/>
        <path id="路径_9390" data-name="路径 9390" d="M6463.688,3214.207v-7.615a1.783,1.783,0,0,0-1.8-1.8h-1.377a1.78,1.78,0,0,0-1.8,1.8v7.615h-3.552v-8.325a3.375,3.375,0,0,1,.466-1.732,3.453,3.453,0,0,1,1.266-1.265,3.37,3.37,0,0,1,1.731-.466h5.15a3.418,3.418,0,0,1,1.754.466,3.463,3.463,0,0,1,1.265,1.265,3.37,3.37,0,0,1,.467,1.732v8.325Z" transform="translate(-6369.159 -3198.933)"/>
        <path id="路径_9391" data-name="路径 9391" d="M6470.451,3198.674H6474v3.463h-3.552Zm0,4.351H6474v10.9h-3.552Z" transform="translate(-6370.305 -3198.652)"/>
        <path id="路径_9392" data-name="路径 9392" d="M6480.84,3210.2a1.366,1.366,0,0,0,1.355,1.354h1.621v2.375H6481a3.6,3.6,0,0,1-1.787-.466,3.877,3.877,0,0,1-1.354-1.254,3.553,3.553,0,0,1-.587-1.743v-5.95h-1.489v-2.375h1.489v-3.463h3.573v3.463h2.976v2.375h-2.976Z" transform="translate(-6370.704 -3198.652)"/>
        <path id="路径_9393" data-name="路径 9393" d="M6498.054,3202.418v11.544a3.651,3.651,0,0,1-.5,1.876,3.8,3.8,0,0,1-1.354,1.365,3.592,3.592,0,0,1-1.876.511h-7.969v-2.376h6.792a1.284,1.284,0,0,0,.955-.411,1.337,1.337,0,0,0,.4-.966v-1.487a8.865,8.865,0,0,1-2.908.489h-2.753a2.806,2.806,0,0,1-1.443-.389,2.927,2.927,0,0,1-1.443-2.52v-7.637h3.552v6.349a1.718,1.718,0,0,0,.533,1.277,1.748,1.748,0,0,0,1.265.522h.245a9.021,9.021,0,0,0,2.953-.489v-7.659Z" transform="translate(-6371.467 -3198.933)"/>
      </g>
    </g>
    <g id="Buyin_claim_update_profile" data-name="Buyin claim update profile" transform="translate(6370.071 3038.872)" style="isolation: isolate">
      <g id="组_3641" data-name="组 3641" style="isolation: isolate">
        <path id="路径_9394" data-name="路径 9394" d="M6411.18,3050.671a3.956,3.956,0,0,1,.4,1.75,3.9,3.9,0,0,1-.548,2.025,4.16,4.16,0,0,1-1.476,1.476,3.916,3.916,0,0,1-2.026.549h-9.748v-14h9.382a3.888,3.888,0,0,1,2.025.55,4.148,4.148,0,0,1,1.477,1.475,4,4,0,0,1,.253,3.531,4.251,4.251,0,0,1-.824,1.282A3.911,3.911,0,0,1,6411.18,3050.671Zm-10.145-2.28h5.046a1.767,1.767,0,0,0,1.313-.549,1.9,1.9,0,0,0,0-2.647,1.775,1.775,0,0,0-1.313-.549h-5.046Zm6.725,2.718a1.784,1.784,0,0,0-1.312-.54h-5.412v3.7h5.412a1.855,1.855,0,0,0,1.313-3.164Z" transform="translate(-6397.737 -3042.469)"/>
        <path id="路径_9395" data-name="路径 9395" d="M6417.711,3045.924v6.979a1.634,1.634,0,0,0,1.647,1.649h1.283a1.568,1.568,0,0,0,1.148-.479,1.6,1.6,0,0,0,.479-1.17v-6.979h3.276v7.632a3.1,3.1,0,0,1-.427,1.586,3.18,3.18,0,0,1-1.159,1.16,3.138,3.138,0,0,1-1.608.427h-4.72a3.1,3.1,0,0,1-1.589-.427,3.185,3.185,0,0,1-1.16-1.16,3.091,3.091,0,0,1-.427-1.586v-7.632Z" transform="translate(-6398.987 -3042.728)"/>
        <path id="路径_9396" data-name="路径 9396" d="M6439.559,3045.924v10.582a3.357,3.357,0,0,1-.458,1.72,3.468,3.468,0,0,1-1.241,1.25,3.28,3.28,0,0,1-1.72.468h-7.306v-2.177h6.228a1.18,1.18,0,0,0,.875-.376,1.227,1.227,0,0,0,.366-.885v-1.364a8.159,8.159,0,0,1-2.665.448h-2.524a2.626,2.626,0,0,1-2.289-1.333,2.633,2.633,0,0,1-.356-1.334v-7h3.255v5.819a1.578,1.578,0,0,0,.488,1.17,1.6,1.6,0,0,0,1.16.477h.224a8.282,8.282,0,0,0,2.707-.446v-7.021Z" transform="translate(-6400.038 -3042.728)"/>
        <path id="路径_9397" data-name="路径 9397" d="M6442.789,3042.49h3.257v3.177h-3.257Zm0,3.99h3.257v9.992h-3.257Z" transform="translate(-6401.112 -3042.47)"/>
        <path id="路径_9398" data-name="路径 9398" d="M6456.147,3056.729v-6.98a1.632,1.632,0,0,0-1.647-1.648h-1.261a1.635,1.635,0,0,0-1.649,1.648v6.98h-3.256V3049.1a3.1,3.1,0,0,1,.426-1.587,3.176,3.176,0,0,1,1.161-1.16,3.086,3.086,0,0,1,1.588-.427h4.72a3.119,3.119,0,0,1,1.607.427,3.153,3.153,0,0,1,1.16,1.16,3.085,3.085,0,0,1,.429,1.587v7.631Z" transform="translate(-6401.527 -3042.728)"/>
        <path id="路径_9399" data-name="路径 9399" d="M6485.257,3049.908q.784.02,1.251.021t1.2-.021a8.01,8.01,0,0,1-1.123,4.163q.625.7,1.217,1.3c.393.4.75.779,1.068,1.133-.7-.015-1.249-.02-1.64-.02h-1.569l-1.133-1.183c-.251.193-.468.349-.65.468a5.8,5.8,0,0,1-.666.367,5.47,5.47,0,0,1-.83.317,6.252,6.252,0,0,1-.924.2,7.343,7.343,0,0,1-1.054.07,6.927,6.927,0,0,1-2.639-.482,3.743,3.743,0,0,1-1.789-1.44,3.889,3.889,0,0,1-.312-3.583,4.051,4.051,0,0,1,1-1.365,10.649,10.649,0,0,1,2.187-1.457,7.186,7.186,0,0,1-.735-1.391,3.319,3.319,0,0,1-.22-1.143,2.859,2.859,0,0,1,.3-1.276,3.043,3.043,0,0,1,.889-1.079,3.525,3.525,0,0,1,1.308-.641,6.16,6.16,0,0,1,1.535-.184,11.73,11.73,0,0,1,2.881.408l.05,2.215a5.991,5.991,0,0,0-1.139-.441,3.7,3.7,0,0,0-.909-.116,2.7,2.7,0,0,0-1.06.2,1.58,1.58,0,0,0-.735.6,1.516,1.516,0,0,0-.253.83,2.068,2.068,0,0,0,.065.5,3.058,3.058,0,0,0,.243.622,8.56,8.56,0,0,0,.726,1.153c.384.522.786,1.017,1.2,1.479q.149.179,1.073,1.124.417.426.794.844a4.213,4.213,0,0,0,.2-.571,5.16,5.16,0,0,0,.109-.662C6485.22,3050.588,6485.243,3050.267,6485.257,3049.908Zm-2.077,3.776-1.3-1.4c-.371-.4-.681-.739-.933-1.029s-.546-.637-.885-1.048a11.892,11.892,0,0,0-1.019.692,2.885,2.885,0,0,0-.557.578,2.02,2.02,0,0,0-.307.608,2.115,2.115,0,0,0-.084.592,1.841,1.841,0,0,0,.332,1.07,2.065,2.065,0,0,0,.934.736,3.436,3.436,0,0,0,1.356.256,3.778,3.778,0,0,0,.806-.085,3.168,3.168,0,0,0,.691-.231,2.62,2.62,0,0,0,.506-.311A6.148,6.148,0,0,0,6483.18,3053.684Z" transform="translate(-6403.554 -3042.485)"/>
        <path id="路径_9400" data-name="路径 9400" d="M6515.525,3056.729h-7.9a3.179,3.179,0,0,1-3.2-3.2v-4.415a3.128,3.128,0,0,1,.427-1.608,3.16,3.16,0,0,1,1.16-1.16,3.122,3.122,0,0,1,1.608-.427h7.9v2.177h-6.187a1.6,1.6,0,0,0-1.161.479,1.576,1.576,0,0,0-.488,1.169v3.154a1.579,1.579,0,0,0,.488,1.17,1.608,1.608,0,0,0,1.161.479h6.187Z" transform="translate(-6405.733 -3042.728)"/>
        <path id="路径_9401" data-name="路径 9401" d="M6521.725,3056.472h-3.278V3042.49h3.278Z" transform="translate(-6406.784 -3042.47)"/>
        <path id="路径_9402" data-name="路径 9402" d="M6536.245,3045.924v10.805h-3.256v-.571a8.222,8.222,0,0,1-3.012.571h-3.318a2.588,2.588,0,0,1-1.323-.355,2.668,2.668,0,0,1-.966-.967,2.6,2.6,0,0,1-.355-1.325v-5.514a2.589,2.589,0,0,1,.355-1.322,2.625,2.625,0,0,1,.966-.967,2.572,2.572,0,0,1,1.323-.356h3.3a8.41,8.41,0,0,1,3.032.569v-.569Zm-3.256,8.058v-5.311a8.289,8.289,0,0,0-3.032-.57h-1.038a1.636,1.636,0,0,0-1.649,1.648v3.154a1.636,1.636,0,0,0,1.649,1.649h1.038A8.315,8.315,0,0,0,6532.988,3053.982Z" transform="translate(-6407.201 -3042.728)"/>
        <path id="路径_9403" data-name="路径 9403" d="M6539.26,3042.49h3.255v3.177h-3.255Zm0,3.99h3.255v9.992h-3.255Z" transform="translate(-6408.344 -3042.47)"/>
        <path id="路径_9404" data-name="路径 9404" d="M6560.689,3046.351a3.177,3.177,0,0,1,1.16,1.16,3.089,3.089,0,0,1,.428,1.587v7.631H6559v-6.98a1.586,1.586,0,0,0-.479-1.169,1.562,1.562,0,0,0-1.149-.479h-.488a1.567,1.567,0,0,0-1.151.479,1.594,1.594,0,0,0-.478,1.169v6.98h-3.276v-6.98a1.588,1.588,0,0,0-.479-1.169,1.557,1.557,0,0,0-1.148-.479h-.468a1.635,1.635,0,0,0-1.648,1.648v6.98h-3.256V3049.1a3.089,3.089,0,0,1,.427-1.587,3.17,3.17,0,0,1,1.16-1.16,3.086,3.086,0,0,1,1.587-.427h3.053a4.1,4.1,0,0,1,2.421.793,4.017,4.017,0,0,1,2.4-.793h3.072A3.083,3.083,0,0,1,6560.689,3046.351Z" transform="translate(-6408.773 -3042.728)"/>
        <path id="路径_9405" data-name="路径 9405" d="M6588.789,3049.908q.782.02,1.251.021t1.2-.021a7.983,7.983,0,0,1-1.123,4.163q.626.7,1.217,1.3t1.069,1.133c-.7-.015-1.249-.02-1.64-.02h-1.571l-1.132-1.183c-.252.193-.469.349-.651.468a5.83,5.83,0,0,1-.667.367,5.273,5.273,0,0,1-.83.317,6.259,6.259,0,0,1-.923.2,7.342,7.342,0,0,1-1.052.07,6.923,6.923,0,0,1-2.639-.482,3.717,3.717,0,0,1-1.788-1.44,3.871,3.871,0,0,1-.313-3.583,4.02,4.02,0,0,1,1-1.365,10.577,10.577,0,0,1,2.186-1.457,7.132,7.132,0,0,1-.735-1.391,3.315,3.315,0,0,1-.218-1.143,2.87,2.87,0,0,1,.3-1.276,3.033,3.033,0,0,1,.891-1.079,3.507,3.507,0,0,1,1.306-.641,6.165,6.165,0,0,1,1.536-.184,11.746,11.746,0,0,1,2.882.408l.049,2.215a5.954,5.954,0,0,0-1.139-.441,3.7,3.7,0,0,0-.909-.116,2.692,2.692,0,0,0-1.058.2,1.579,1.579,0,0,0-.735.6,1.509,1.509,0,0,0-.253.83,2.139,2.139,0,0,0,.064.5,3.139,3.139,0,0,0,.245.622,8.483,8.483,0,0,0,.724,1.153c.385.522.786,1.017,1.2,1.479q.149.179,1.073,1.124c.278.284.542.565.8.844a4.477,4.477,0,0,0,.2-.571,5.249,5.249,0,0,0,.109-.662C6588.752,3050.588,6588.774,3050.267,6588.789,3049.908Zm-2.077,3.776-1.3-1.4c-.373-.4-.684-.739-.934-1.029s-.548-.637-.885-1.048a11.658,11.658,0,0,0-1.019.692,2.842,2.842,0,0,0-.556.578,1.969,1.969,0,0,0-.308.608,2.135,2.135,0,0,0-.085.592,1.842,1.842,0,0,0,.333,1.07,2.057,2.057,0,0,0,.934.736,3.433,3.433,0,0,0,1.356.256,3.776,3.776,0,0,0,.805-.085,3.155,3.155,0,0,0,.69-.231,2.6,2.6,0,0,0,.506-.311A5.791,5.791,0,0,0,6586.711,3053.684Z" transform="translate(-6411.316 -3042.485)"/>
        <path id="路径_9406" data-name="路径 9406" d="M6400.99,3072.324v6.979a1.633,1.633,0,0,0,1.649,1.65h1.281a1.575,1.575,0,0,0,1.151-.478,1.6,1.6,0,0,0,.479-1.171v-6.979h3.276v7.632a3.1,3.1,0,0,1-.427,1.586,3.168,3.168,0,0,1-1.162,1.16,3.122,3.122,0,0,1-1.606.428h-4.722a3.085,3.085,0,0,1-1.586-.428,3.17,3.17,0,0,1-1.161-1.16,3.1,3.1,0,0,1-.427-1.586v-7.632Z" transform="translate(-6397.734 -3044.707)"/>
        <path id="路径_9407" data-name="路径 9407" d="M6422.348,3072.7a2.65,2.65,0,0,1,.967.967,2.584,2.584,0,0,1,.356,1.323v5.494a2.592,2.592,0,0,1-.356,1.324,2.657,2.657,0,0,1-.967.967,2.585,2.585,0,0,1-1.322.356h-3.278a6.857,6.857,0,0,1-3.032-.734v3.928h-3.277v-13.98h3.277v.711a7.181,7.181,0,0,1,3.012-.711h3.3A2.593,2.593,0,0,1,6422.348,3072.7Zm-1.932,3.449a1.6,1.6,0,0,0-.479-1.16,1.554,1.554,0,0,0-1.15-.488h-1.038a7.22,7.22,0,0,0-3.032.711v5.027a6.853,6.853,0,0,0,3.032.713h1.038a1.571,1.571,0,0,0,1.15-.478,1.6,1.6,0,0,0,.479-1.171Z" transform="translate(-6398.761 -3044.709)"/>
        <path id="路径_9408" data-name="路径 9408" d="M6438.609,3068.869v14h-3.256v-.571a8.218,8.218,0,0,1-3.012.571H6429a2.532,2.532,0,0,1-1.312-.356,2.663,2.663,0,0,1-.955-.967,2.57,2.57,0,0,1-.357-1.324v-5.514a2.56,2.56,0,0,1,.357-1.323,2.643,2.643,0,0,1,.955-.967,2.514,2.514,0,0,1,1.313-.356h3.318a8.308,8.308,0,0,1,3.031.569v-3.765Zm-3.256,11.254v-5.311a8.3,8.3,0,0,0-3.031-.569h-1.039a1.634,1.634,0,0,0-1.649,1.647v3.154a1.634,1.634,0,0,0,1.649,1.65h1.039A8.305,8.305,0,0,0,6435.353,3080.123Z" transform="translate(-6399.881 -3044.448)"/>
        <path id="路径_9409" data-name="路径 9409" d="M6453.546,3072.324v10.806h-3.255v-.571a8.22,8.22,0,0,1-3.012.571h-3.318a2.583,2.583,0,0,1-1.322-.356,2.645,2.645,0,0,1-.967-.967,2.575,2.575,0,0,1-.357-1.324v-5.514a2.565,2.565,0,0,1,.357-1.323,2.627,2.627,0,0,1,.967-.967,2.564,2.564,0,0,1,1.322-.356h3.3a8.423,8.423,0,0,1,3.032.569v-.569Zm-3.255,8.058v-5.311a8.31,8.31,0,0,0-3.032-.569h-1.039a1.633,1.633,0,0,0-1.647,1.647v3.154a1.633,1.633,0,0,0,1.647,1.65h1.039A8.312,8.312,0,0,0,6450.291,3080.382Z" transform="translate(-6401.001 -3044.707)"/>
        <path id="路径_9410" data-name="路径 9410" d="M6460.233,3079.453a1.251,1.251,0,0,0,1.242,1.242h1.485v2.177h-2.583a3.292,3.292,0,0,1-1.639-.428,3.536,3.536,0,0,1-1.242-1.149,3.267,3.267,0,0,1-.54-1.6v-5.454h-1.361v-2.177h1.361v-3.176h3.277v3.176h2.727v2.177h-2.727Z" transform="translate(-6402.072 -3044.45)"/>
        <path id="路径_9411" data-name="路径 9411" d="M6473.567,3072.324a2.12,2.12,0,0,1,2.138,2.136v2.381a2.077,2.077,0,0,1-.622,1.507,2.046,2.046,0,0,1-1.516.631h-5.7v.732a1.251,1.251,0,0,0,1.242,1.242h6.349v2.177h-7.428a3.352,3.352,0,0,1-1.721-.459,3.422,3.422,0,0,1-1.242-1.241,3.344,3.344,0,0,1-.457-1.719v-3.968a3.354,3.354,0,0,1,.457-1.721,3.421,3.421,0,0,1,1.242-1.241,3.35,3.35,0,0,1,1.721-.457Zm-1.4,4.223a.821.821,0,0,0,.255-.6v-.59a.871.871,0,0,0-.854-.855h-2.462a1.251,1.251,0,0,0-1.242,1.241v1.058h3.7A.816.816,0,0,0,6472.172,3076.547Z" transform="translate(-6402.748 -3044.707)"/>
        <path id="路径_9412" data-name="路径 9412" d="M6502.427,3072.7a2.644,2.644,0,0,1,.966.967,2.575,2.575,0,0,1,.356,1.323v5.494a2.583,2.583,0,0,1-.356,1.324,2.65,2.65,0,0,1-.966.967,2.583,2.583,0,0,1-1.323.356h-3.276a6.856,6.856,0,0,1-3.032-.734v3.928h-3.276v-13.98h3.276v.711a7.18,7.18,0,0,1,3.011-.711h3.3A2.592,2.592,0,0,1,6502.427,3072.7Zm-1.933,3.449a1.6,1.6,0,0,0-.479-1.16,1.551,1.551,0,0,0-1.149-.488h-1.038a7.221,7.221,0,0,0-3.032.711v5.027a6.85,6.85,0,0,0,3.032.713h1.038a1.568,1.568,0,0,0,1.149-.478,1.6,1.6,0,0,0,.479-1.171Z" transform="translate(-6404.765 -3044.709)"/>
        <path id="路径_9413" data-name="路径 9413" d="M6513.843,3074.5h-2.482a1.561,1.561,0,0,0-1.149.479,1.584,1.584,0,0,0-.479,1.169v6.981h-3.276V3075.5a3.091,3.091,0,0,1,.427-1.588,3.2,3.2,0,0,1,1.16-1.16,3.1,3.1,0,0,1,1.588-.427h4.211Z" transform="translate(-6405.885 -3044.707)"/>
        <path id="路径_9414" data-name="路径 9414" d="M6524.935,3072.75a3.177,3.177,0,0,1,1.161,1.16,3.091,3.091,0,0,1,.427,1.588v4.457a3.09,3.09,0,0,1-.427,1.586,3.165,3.165,0,0,1-1.161,1.16,3.12,3.12,0,0,1-1.607.428h-4.722a3.063,3.063,0,0,1-1.6-.428,3.182,3.182,0,0,1-1.15-1.16,3.1,3.1,0,0,1-.427-1.586V3075.5a3.1,3.1,0,0,1,.427-1.588,3.194,3.194,0,0,1,1.15-1.16,3.071,3.071,0,0,1,1.6-.427h4.722A3.128,3.128,0,0,1,6524.935,3072.75Zm-1.688,3.4a1.633,1.633,0,0,0-1.648-1.647h-1.262a1.636,1.636,0,0,0-1.649,1.647v3.154a1.635,1.635,0,0,0,1.649,1.65h1.262a1.633,1.633,0,0,0,1.648-1.65Z" transform="translate(-6406.558 -3044.707)"/>
        <path id="路径_9415" data-name="路径 9415" d="M6534.408,3071.321a.846.846,0,0,0-.254.621v.123h2.1v2.177h-2.1v8.629H6530.9v-8.629h-1.627v-2.177h1.627v-.123a3,3,0,0,1,.408-1.535,3.066,3.066,0,0,1,1.109-1.12,2.958,2.958,0,0,1,1.537-.417h2.3v2.2h-1.221A.85.85,0,0,0,6534.408,3071.321Z" transform="translate(-6407.595 -3044.448)"/>
        <path id="路径_9416" data-name="路径 9416" d="M6538.994,3068.891h3.256v3.176h-3.256Zm0,3.989h3.256v9.993h-3.256Z" transform="translate(-6408.324 -3044.45)"/>
        <path id="路径_9417" data-name="路径 9417" d="M6548.122,3082.873h-3.275v-13.982h3.275Z" transform="translate(-6408.763 -3044.45)"/>
        <path id="路径_9418" data-name="路径 9418" d="M6559.366,3072.324a2.117,2.117,0,0,1,2.136,2.136v2.381a2.073,2.073,0,0,1-.62,1.507,2.046,2.046,0,0,1-1.516.631h-5.7v.732a1.249,1.249,0,0,0,1.24,1.242h6.35v2.177h-7.428a3.35,3.35,0,0,1-1.72-.459,3.41,3.41,0,0,1-1.241-1.241,3.34,3.34,0,0,1-.458-1.719v-3.968a3.35,3.35,0,0,1,.458-1.721,3.409,3.409,0,0,1,1.241-1.241,3.348,3.348,0,0,1,1.72-.457Zm-1.395,4.223a.821.821,0,0,0,.254-.6v-.59a.868.868,0,0,0-.854-.855h-2.464a1.249,1.249,0,0,0-1.24,1.241v1.058h3.7A.823.823,0,0,0,6557.972,3076.547Z" transform="translate(-6409.18 -3044.707)"/>
      </g>
    </g>
    <g id="直线_502" data-name="直线 502" transform="translate(6301.978 3432.96)">
      <rect id="矩形_2045" data-name="矩形 2045" width="212.757" height="2.775"/>
    </g>
    <g id="直线_503" data-name="直线 503" transform="translate(6564.715 3028.723)">
      <rect id="矩形_2046" data-name="矩形 2046" width="2.775" height="307.109"/>
    </g>
    <g id="直线_504" data-name="直线 504" transform="translate(6094.338 3432.96)">
      <rect id="矩形_2047" data-name="矩形 2047" width="40.701" height="2.775"/>
    </g>
    <g id="直线_505" data-name="直线 505" transform="translate(6564.715 3532.864)">
      <rect id="矩形_2048" data-name="矩形 2048" width="2.775" height="58.642"/>
    </g>
    <g id="直线_505-2" data-name="直线 505" transform="translate(6564.715 3642.361)">
      <rect id="矩形_2049" data-name="矩形 2049" width="2.775" height="89.527"/>
    </g>
    <g id="路径_3465" data-name="路径 3465" transform="translate(6212.549 3192.013)">
      <path id="路径_9419" data-name="路径 9419" d="M6230.221,3411.528h-2.775v-3.7h2.775Zm0-7.4h-2.775v-3.7h2.775Zm0-7.4-2.775,0,0-3.7,2.775,0Zm0-7.4-2.775,0,0-3.7,2.775,0Zm0-7.4-2.775,0,0-3.7,2.775,0Zm0-7.4-2.775,0,0-3.7,2.775,0Zm0-7.4h-2.775v-3.7h2.775Zm0-7.4h-2.775v-3.7h2.775Zm0-7.4-2.775,0,0-3.7,2.775,0Zm0-7.4-2.775,0,0-3.7,2.775,0Zm0-7.4-2.775,0v-3.7l2.775,0Zm0-7.4h-2.775v-3.7h2.775Zm0-7.4h-2.775v-3.7h2.775Zm0-7.4h-2.775v-3.7h2.775Zm0-7.4-2.775,0,0-3.7,2.775,0Zm0-7.4-2.775,0,0-3.7,2.775,0Zm0-7.4-2.775,0v-3.7l2.775,0Zm0-7.4H6227.5v-3.7h2.775Zm0-7.4H6227.5v-3.7h2.775Zm0-7.4-2.775,0,0-3.7,2.775,0Zm0-7.4-2.775,0,0-3.7,2.775,0Zm0-7.4-2.775,0,0-3.7,2.775,0Zm0-7.4h-2.775v-3.7h2.775Zm0-7.4h-2.775v-3.7h2.775Zm0-7.4h-2.775v-3.7h2.775Zm0-7.4-2.775,0,0-3.7,2.775,0Zm0-7.4-2.775,0,0-3.7,2.775,0Zm0-7.4-2.775,0v-3.7l2.775,0Z" transform="translate(-6227.446 -3208.021)"/>
    </g>
    <g id="路径_3466" data-name="路径 3466" transform="translate(6213.936 3191.99)">
      <path id="路径_9420" data-name="路径 9420" d="M6325.9,3210.772h-.749V3208h.749Zm-4.449,0h-3.7V3208h3.7Zm-7.4,0h-3.7V3208h3.7Zm-7.4,0h-3.7V3208h3.7Zm-7.4,0h-3.7V3208h3.7Zm-7.4,0h-3.7V3208h3.7Zm-7.4,0h-3.7V3208h3.7Zm-7.4,0h-3.7V3208h3.7Zm-7.4,0h-3.7V3208h3.7Zm-7.4,0h-3.7V3208h3.7Zm-7.4,0h-3.7V3208h3.7Zm-7.4,0h-3.7V3208h3.7Zm-7.4,0h-3.7V3208h3.7Zm-7.4,0h-3.7V3208h3.7Z" transform="translate(-6228.945 -3207.997)"/>
    </g>
    <g id="直线_508" data-name="直线 508" transform="translate(6217.076 3469.037)">
      <rect id="矩形_2050" data-name="矩形 2050" width="2.775" height="101.052"/>
    </g>
    <g id="直线_508-2" data-name="直线 508" transform="translate(6217.076 3628.389)">
      <rect id="矩形_2051" data-name="矩形 2051" width="2.775" height="150.814"/>
    </g>
    <g id="直线_509" data-name="直线 509" transform="translate(6217.656 3778.193)">
      <rect id="矩形_2052" data-name="矩形 2052" width="41.913" height="2.775"/>
    </g>
    <g id="Report-2" transform="translate(6416.055 3301.325)" style="isolation: isolate">
      <g id="组_3642" data-name="组 3642" style="isolation: isolate">
        <path id="路径_9421" data-name="路径 9421" d="M6460.613,3333.072a4.441,4.441,0,0,1-1.711,1.648l2.34,5.474h-3.256l-2.116-4.9h-5.15v4.9h-3.276v-14h9.24a4.464,4.464,0,0,1,2.289.611,4.538,4.538,0,0,1,1.658,1.647,4.414,4.414,0,0,1,.61,2.28A4.5,4.5,0,0,1,6460.613,3333.072Zm-9.893.041h4.886a2.3,2.3,0,0,0,1.678-.692,2.358,2.358,0,0,0,0-3.358,2.309,2.309,0,0,0-1.678-.692h-4.886Z" transform="translate(-6447.445 -3326.193)"/>
        <path id="路径_9422" data-name="路径 9422" d="M6472.7,3329.647a2.119,2.119,0,0,1,2.136,2.137v2.381a2.066,2.066,0,0,1-.621,1.506,2.042,2.042,0,0,1-1.515.631H6467v.733a1.25,1.25,0,0,0,1.241,1.242h6.35v2.177h-7.428a3.344,3.344,0,0,1-1.72-.458,3.406,3.406,0,0,1-1.241-1.241,3.345,3.345,0,0,1-.459-1.719v-3.968a3.353,3.353,0,0,1,.459-1.72,3.4,3.4,0,0,1,1.241-1.24,3.347,3.347,0,0,1,1.72-.459Zm-1.394,4.223a.816.816,0,0,0,.254-.6v-.59a.869.869,0,0,0-.854-.855h-2.462a1.249,1.249,0,0,0-1.241,1.241v1.058h3.7A.819.819,0,0,0,6471.307,3333.87Z" transform="translate(-6448.667 -3326.452)"/>
        <path id="路径_9423" data-name="路径 9423" d="M6488.36,3330.025a2.631,2.631,0,0,1,.967.967,2.573,2.573,0,0,1,.357,1.323v5.494a2.573,2.573,0,0,1-.357,1.323,2.624,2.624,0,0,1-.967.967,2.571,2.571,0,0,1-1.323.356h-3.275a6.88,6.88,0,0,1-3.033-.733v3.928h-3.275v-13.981h3.275v.712a7.185,7.185,0,0,1,3.012-.712h3.3A2.581,2.581,0,0,1,6488.36,3330.025Zm-1.934,3.449a1.6,1.6,0,0,0-.477-1.16,1.552,1.552,0,0,0-1.15-.489h-1.038a7.226,7.226,0,0,0-3.033.712v5.027a6.853,6.853,0,0,0,3.033.713h1.038a1.569,1.569,0,0,0,1.15-.479,1.594,1.594,0,0,0,.477-1.17Z" transform="translate(-6449.695 -3326.454)"/>
        <path id="路径_9424" data-name="路径 9424" d="M6501.894,3330.074a3.169,3.169,0,0,1,1.16,1.16,3.084,3.084,0,0,1,.428,1.587v4.457a3.085,3.085,0,0,1-.428,1.587,3.179,3.179,0,0,1-2.768,1.587h-4.722a3.071,3.071,0,0,1-1.6-.427,3.182,3.182,0,0,1-1.151-1.16,3.107,3.107,0,0,1-.426-1.587v-4.457a3.106,3.106,0,0,1,.426-1.587,3.19,3.19,0,0,1,1.151-1.16,3.071,3.071,0,0,1,1.6-.427h4.722A3.13,3.13,0,0,1,6501.894,3330.074Zm-1.689,3.4a1.634,1.634,0,0,0-1.647-1.648h-1.263a1.636,1.636,0,0,0-1.648,1.648v3.155a1.636,1.636,0,0,0,1.648,1.649h1.263a1.634,1.634,0,0,0,1.647-1.649Z" transform="translate(-6450.814 -3326.452)"/>
        <path id="路径_9425" data-name="路径 9425" d="M6513.483,3331.825H6511a1.571,1.571,0,0,0-1.151.479,1.592,1.592,0,0,0-.477,1.169v6.98H6506.1v-7.631a3.093,3.093,0,0,1,.427-1.587,3.157,3.157,0,0,1,1.161-1.16,3.089,3.089,0,0,1,1.585-.427h4.214Z" transform="translate(-6451.842 -3326.452)"/>
        <path id="路径_9426" data-name="路径 9426" d="M6519.052,3336.777a1.252,1.252,0,0,0,1.241,1.242h1.485v2.177h-2.584a3.3,3.3,0,0,1-1.638-.427,3.525,3.525,0,0,1-1.241-1.15,3.247,3.247,0,0,1-.539-1.6v-5.454h-1.364v-2.177h1.364v-3.175h3.276v3.175h2.727v2.177h-2.727Z" transform="translate(-6452.465 -3326.195)"/>
      </g>
    </g>
    <g id="路径_3464" data-name="路径 3464" transform="translate(6399.963 3239.628)">
      <path id="路径_9427" data-name="路径 9427" d="M6433.014,3396.4h-2.775l0-3.7,2.775,0Zm-2.784-7.4-.006-3.7,2.775,0,.006,3.7Zm-.01-7.4,0-3.7,2.775,0,0,3.7Zm-.01-7.4-.006-3.7,2.775,0,.006,3.7Zm-.011-7.4-.005-3.7,2.775,0,.005,3.7Zm-.011-7.4,0-3.7,2.775,0,.005,3.7Zm-.01-7.4,0-3.7,2.775,0,0,3.7Zm-.01-7.4,0-3.7,2.775,0,0,3.7Zm-.01-7.4-.005-3.7,2.775,0,.005,3.7Zm-.01-7.4-.005-3.7,2.775,0,.005,3.7Zm-.01-7.4-.005-3.7,2.775,0,.005,3.7Zm-.011-7.4-.005-3.7,2.775,0,.005,3.7Zm-.011-7.4-.005-3.7,2.775,0,.006,3.7Zm-.01-7.4-.005-3.7,2.775,0,.005,3.7Zm-.01-7.4,0-3.7,2.775,0,0,3.7Zm-.011-7.4-.005-3.7,2.775,0,.005,3.7Zm-.011-7.4,0-3.7,2.775,0,0,3.7Zm-.01-7.4,0-3.7,2.775,0,0,3.7Zm-.01-7.4,0-3.7,2.775,0,0,3.7Z" transform="translate(-6430.049 -3259.495)"/>
    </g>
    <g id="直线_511" data-name="直线 511" transform="translate(6401.808 3373.759)">
      <path id="路径_9428" data-name="路径 9428" d="M6554.147,3407.272h-3.7V3404.5h3.7Zm-7.4,0h-3.7V3404.5h3.7Zm-7.4,0h-3.7V3404.5h3.7Zm-7.4,0h-3.7V3404.5h3.7Zm-7.4,0h-3.7V3404.5h3.7Zm-7.4,0h-3.7V3404.5h3.7Zm-7.4,0h-3.7V3404.5h3.7Zm-7.4,0h-3.7V3404.5h3.7Zm-7.4,0h-3.7V3404.5h3.7Zm-7.4,0h-3.7V3404.5h3.7Zm-7.4,0h-3.7V3404.5h3.7Zm-7.4,0h-3.7V3404.5h3.7Zm-7.4,0h-3.7V3404.5h3.7Zm-7.4,0h-3.7V3404.5h3.7Zm-7.4,0h-3.7V3404.5h3.7Zm-7.4,0h-3.7V3404.5h3.7Zm-7.4,0h-3.7V3404.5h3.7Z" transform="translate(-6432.043 -3404.497)"/>
    </g>
    <g id="直线_512" data-name="直线 512" transform="translate(6347.427 3492.162)">
      <rect id="矩形_2053" data-name="矩形 2053" width="168.355" height="2.775"/>
    </g>
    <g id="路径_3463" data-name="路径 3463" transform="translate(6346.974 3492.184)">
      <rect id="矩形_2054" data-name="矩形 2054" width="2.775" height="240.948"/>
    </g>
    <g id="路径_3454" data-name="路径 3454" transform="translate(6301.484 3425.643)">
      <path id="路径_9429" data-name="路径 9429" d="M6333.263,3477.992l-9.674-8.737,9.677-8.669,1.234,1.379-8.145,7.3,8.147,7.359Z" transform="translate(-6323.589 -3460.586)"/>
    </g>
    <g id="路径_3455" data-name="路径 3455" transform="translate(6505.204 3425.643)">
      <path id="路径_9430" data-name="路径 9430" d="M6545.059,3477.992l-1.239-1.373,8.147-7.359-8.145-7.3,1.234-1.379,9.677,8.669Z" transform="translate(-6543.819 -3460.586)"/>
    </g>
    <g id="路径_3456" data-name="路径 3456" transform="translate(6557.402 3723.601)">
      <path id="路径_9431" data-name="路径 9431" d="M6608.986,3793.608l-8.738-9.675,1.373-1.24,7.359,8.148,7.3-8.146,1.378,1.234Z" transform="translate(-6600.249 -3782.693)"/>
    </g>
    <g id="路径_3457" data-name="路径 3457" transform="translate(6339.652 3724.526)">
      <path id="路径_9432" data-name="路径 9432" d="M6373.587,3794.608l-8.737-9.675,1.373-1.24,7.359,8.148,7.3-8.146,1.378,1.234Z" transform="translate(-6364.85 -3783.693)"/>
    </g>
    <g id="路径_3458" data-name="路径 3458" transform="translate(6087.116 3064.218)">
      <path id="路径_9433" data-name="路径 9433" d="M6093.22,3080.782l-1.374-1.239,8.741-9.675,8.668,9.678-1.378,1.234-7.3-8.146Z" transform="translate(-6091.847 -3069.868)"/>
    </g>
    <g id="路径_3459" data-name="路径 3459" transform="translate(6250.501 3770.875)">
      <path id="路径_9434" data-name="路径 9434" d="M6269.713,3851.2l-1.239-1.373,8.147-7.359-8.145-7.3,1.234-1.378,9.676,8.668Z" transform="translate(-6268.474 -3833.799)"/>
    </g>
    <g id="路径_3460" data-name="路径 3460" transform="translate(6392.817 3234.084)">
      <path id="路径_9435" data-name="路径 9435" d="M6423.7,3264.416l-1.373-1.241,8.741-9.673,8.669,9.677-1.379,1.234-7.3-8.145Z" transform="translate(-6422.324 -3253.502)"/>
    </g>
    <g id="路径_3461" data-name="路径 3461" transform="translate(6301.358 3184.673)">
      <path id="路径_9436" data-name="路径 9436" d="M6324.692,3217.492l-1.24-1.373,8.147-7.359-8.145-7.3,1.234-1.378,9.677,8.668Z" transform="translate(-6323.452 -3200.086)"/>
    </g>
    <g id="组_3643" data-name="组 3643" transform="translate(6517.439 3333.982)">
      <rect id="矩形_2055" data-name="矩形 2055" width="107.365" height="199.568" rx="10.2" transform="translate(1.388 1.387)" fill="snow"/>
      <path id="路径_9437" data-name="路径 9437" d="M6656.364,3563.84h-88.5a10.835,10.835,0,0,1-10.823-10.822v-180.7a10.835,10.835,0,0,1,10.823-10.822h88.5a10.835,10.835,0,0,1,10.822,10.822v180.7A10.835,10.835,0,0,1,6656.364,3563.84Zm-88.5-199.567a8.056,8.056,0,0,0-8.048,8.047v180.7a8.057,8.057,0,0,0,8.048,8.047h88.5a8.056,8.056,0,0,0,8.047-8.047v-180.7a8.056,8.056,0,0,0-8.047-8.047Z" transform="translate(-6557.046 -3361.497)" fill="#bd3454"/>
    </g>
    <g id="DAPP" transform="translate(6539.887 3427.007)" style="isolation: isolate">
      <g id="组_3644" data-name="组 3644" style="isolation: isolate">
        <path id="路径_9438" data-name="路径 9438" d="M6590.659,3462.061a5.2,5.2,0,0,1,2.664.709,5.274,5.274,0,0,1,1.933,1.932,5.217,5.217,0,0,1,.709,2.664v4.662a5.208,5.208,0,0,1-.709,2.664,5.27,5.27,0,0,1-1.933,1.932,5.21,5.21,0,0,1-2.664.709h-9.346v-15.273Zm.278,12.488a2.846,2.846,0,0,0,1.065-1.067,2.876,2.876,0,0,0,.388-1.454v-4.662a2.92,2.92,0,0,0-.388-1.476,2.834,2.834,0,0,0-1.065-1.065,2.884,2.884,0,0,0-1.454-.389h-4.619v10.5h4.619A2.873,2.873,0,0,0,6590.937,3474.549Z" transform="translate(-6581.313 -3462.061)"/>
        <path id="路径_9439" data-name="路径 9439" d="M6611.646,3477.334l-4.885-11.589-3.906,9.213h4.373l1.11,2.375H6598.3l6.482-15.273h3.93l6.482,15.273Z" transform="translate(-6582.587 -3462.061)"/>
        <path id="路径_9440" data-name="路径 9440" d="M6630.3,3462.726a4.947,4.947,0,0,1,1.809,1.8,4.805,4.805,0,0,1,.667,2.486,4.958,4.958,0,0,1-4.974,4.973h-6.525v5.35h-3.553v-15.273H6627.8A4.872,4.872,0,0,1,6630.3,3462.726Zm-1.853,6.127a2.6,2.6,0,0,0,0-3.663,2.486,2.486,0,0,0-1.821-.755h-5.35v5.174h5.35A2.487,2.487,0,0,0,6628.444,3468.854Z" transform="translate(-6584.042 -3462.061)"/>
        <path id="路径_9441" data-name="路径 9441" d="M6648.343,3462.726a4.952,4.952,0,0,1,1.811,1.8,4.813,4.813,0,0,1,.665,2.486,4.958,4.958,0,0,1-4.972,4.973h-6.528v5.35h-3.551v-15.273h10.079A4.866,4.866,0,0,1,6648.343,3462.726Zm-1.854,6.127a2.6,2.6,0,0,0,0-3.663,2.478,2.478,0,0,0-1.819-.755h-5.352v5.174h5.352A2.479,2.479,0,0,0,6646.49,3468.854Z" transform="translate(-6585.396 -3462.061)"/>
      </g>
    </g>
  </g>
</svg>
