<svg xmlns="http://www.w3.org/2000/svg" width="40" height="40" viewBox="0 0 40 40">
  <g transform="translate(-1772 -45)">
    <path d="M325.505,3182.089c-.365,1.876-.706,3.757-1.1,5.627-.767,3.641-2.465,4.383-5.556,2.355-3.428-2.249-6.8-4.575-10.192-6.885a13.968,13.968,0,0,1-1.24-1.068c-.664-1.1-.162-1.953.617-2.7,2.142-2.059,4.314-4.085,6.457-6.142q2.073-1.989,4.091-4.035c.306-.309.833-.672.439-1.182-.437-.566-.936-.125-1.337.14-4.465,2.954-8.977,5.843-13.356,8.921a7.694,7.694,0,0,1-7.386,1.231c-1.366-.468-2.763-.842-4.136-1.289a5.972,5.972,0,0,1-1.384-.619c-1-.644-1.028-1.091-.2-1.906a5.618,5.618,0,0,1,2.083-1.208c2.714-.97,5.278-2.277,7.928-3.389,7.661-3.216,15.239-6.637,23.054-9.472,3.338-1.211,4.347-.345,3.95,3.152-.56,4.93-1.364,9.826-2.165,14.722-.05.3-.062.617-.091.926l-.171.972-.065.436-.173.972Z" transform="translate(1482.519 -3109.949)" fill="#fff"/>
    <rect width="40" height="40" transform="translate(1772 45)" fill="none"/>
  </g>
</svg>
