<svg xmlns="http://www.w3.org/2000/svg" width="40" height="40" viewBox="0 0 40 40">
  <g transform="translate(-1497 -45)">
    <path d="M94.938,3429.755H91.261c-1.009-.192-2.024-.362-3.027-.581a18.1,18.1,0,0,1-6.923-2.925,16.889,16.889,0,0,0,11.044-3.374c-4.209-.991-6.7-3.011-6.974-5.545l2.575-.161c-3.475-1.64-5.493-4.118-5.719-7.975l3.439.907c-3.578-3.882-4.288-7.619-2.2-10.666a22.986,22.986,0,0,0,16.4,8.221c-.324-3.789.587-6.4,3.014-8.111a10.477,10.477,0,0,1,3.649-1.76,5.637,5.637,0,0,1,2.546,0c1.578.39,2.864,1.542,4.325,2.253a1.728,1.728,0,0,0,1.163.063c1.325-.418,2.624-.915,3.933-1.382l.26.2-2.842,3.854,3.522-.919a11.839,11.839,0,0,1-2.5,2.963,2.75,2.75,0,0,0-1.1,2.38,22.8,22.8,0,0,1-17.338,21.866C97.328,3429.343,96.128,3429.527,94.938,3429.755Z" transform="translate(1417.142 -3348.698)" fill="#fff"/>
    <rect width="40" height="40" transform="translate(1497 45)" fill="none"/>
  </g>
</svg>
