<svg xmlns="http://www.w3.org/2000/svg" width="1162.093" height="684" viewBox="0 0 1162.093 684">
  <g transform="translate(862 1761.609)">
    <g>
      <g>
        <g>
          <path d="M150-1277.609h0a100,100,0,0,1,100,100h0a100,100,0,0,1-100,100h0a100,100,0,0,1-100-100h0A100,100,0,0,1,150-1277.609Z" fill="#2a2c36"/>
        </g>
        <g>
          <path d="M150-1077.609a100.113,100.113,0,0,1-100-100,100.113,100.113,0,0,1,100-100,100.113,100.113,0,0,1,100,100A100.113,100.113,0,0,1,150-1077.609Zm0-197a97.11,97.11,0,0,0-97,97,97.11,97.11,0,0,0,97,97,97.11,97.11,0,0,0,97-97A97.11,97.11,0,0,0,150-1274.609Z" fill="#bd3454"/>
        </g>
      </g>
      <g>
        <path d="M150-1096.363l2.025,9.467,6.975,6.533-9-2.933-9,2.933,6.975-6.533Z" fill="#bd3454"/>
      </g>
      <g>
        <path d="M150-1259.609l-2.025-9.467L141-1275.609l9,2.933,9-2.933-6.975,6.533Z" fill="#bd3454"/>
      </g>
      <g>
        <path d="M132.029-1098.408l.011,9.68,5.463,7.84-8.192-4.74-9.412,1,8.18-4.938Z" fill="#bd3454"/>
      </g>
      <g>
        <path d="M165.971-1258.088l-.011-9.68-5.463-7.84,8.192,4.741,9.412-1-8.18,4.939Z" fill="#bd3454"/>
      </g>
      <g>
        <path d="M166.969-1098.148l3.95,8.838,8.18,4.938-9.412-1-8.192,4.74,5.463-7.84Z" fill="#bd3454"/>
      </g>
      <g>
        <path d="M133.031-1257.824l-3.95-8.837-8.18-4.939,9.412,1,8.192-4.741-5.463,7.84Z" fill="#bd3454"/>
      </g>
      <g>
        <path d="M209.626-1121.784l8.3,4.976,9.533-.643-8.282,4.579-3.994,8.579-.019-9.554Z" fill="#bd3454"/>
      </g>
      <g>
        <path d="M195.873-1110.043l7.092,6.591,9.463,1.347-9.055,2.764-5.687,7.568,1.963-9.354Z" fill="#bd3454"/>
      </g>
      <g>
        <path d="M219.9-1135.414l9.158,3.14,9.192-2.614-7.149,6.2-2.121,9.225-2.008-9.343Z" fill="#bd3454"/>
      </g>
      <g>
        <path d="M91.375-1121.788l-5.543,7.938-.021,9.556-3.993-8.582-8.283-4.582,9.535.646Z" fill="#bd3454"/>
      </g>
      <g>
        <path d="M105.126-1110.035l-3.776,8.915,1.963,9.355-5.687-7.569-9.055-2.763,9.462-1.347Z" fill="#bd3454"/>
      </g>
      <g>
        <path d="M81.107-1135.415l-7.071,6.611-2.008,9.344-2.121-9.225-7.15-6.2,9.193,2.614Z" fill="#bd3454"/>
      </g>
      <g>
        <path d="M91.376-1233.429l-8.305-4.976-9.535.646,8.283-4.582,3.993-8.583.021,9.557Z" fill="#bd3454"/>
      </g>
      <g>
        <path d="M105.129-1245.174l-7.093-6.591-9.462-1.347,9.055-2.764,5.687-7.568-1.963,9.355Z" fill="#bd3454"/>
      </g>
      <g>
        <path d="M81.107-1219.8l-9.158-3.14-9.192,2.614,7.149-6.2,2.121-9.226,2.008,9.344Z" fill="#bd3454"/>
      </g>
      <g>
        <path d="M209.626-1233.431l5.543-7.938.021-9.556,3.993,8.582,8.283,4.582-9.535-.646Z" fill="#bd3454"/>
      </g>
      <g>
        <path d="M195.876-1245.183l3.776-8.916-1.963-9.354,5.687,7.568,9.055,2.764-9.463,1.347Z" fill="#bd3454"/>
      </g>
      <g>
        <path d="M219.9-1219.8l7.072-6.612,2.007-9.343,2.121,9.225,7.15,6.2-9.193-2.614Z" fill="#bd3454"/>
      </g>
      <g>
        <path d="M231.7-1176.778l9.467-2.025,6.533-6.975-2.933,9,2.933,9-6.533-6.975Z" fill="#bd3454"/>
      </g>
      <g>
        <path d="M230.179-1160.806l9.68-.011,7.84-5.463-4.74,8.192,1,9.412-4.938-8.18Z" fill="#bd3454"/>
      </g>
      <g>
        <path d="M229.916-1193.747l8.837-3.949,4.939-8.181-1,9.412,4.741,8.192-7.84-5.462Z" fill="#bd3454"/>
      </g>
      <g>
        <path d="M68.93-1180.109l-9.466,2.025-6.534,6.975,2.934-9-2.934-9,6.534,6.975Z" fill="#bd3454"/>
      </g>
      <g>
        <path d="M70.452-1164.14l-8.837,3.95-4.939,8.18,1-9.412-4.741-8.192,7.841,5.463Z" fill="#bd3454"/>
      </g>
      <g>
        <path d="M70.711-1197.081l-9.68.012-7.84,5.462,4.741-8.191-1-9.413,4.938,8.181Z" fill="#bd3454"/>
      </g>
      <g>
        <g>
          <path d="M150.5-1265.609h0a87.5,87.5,0,0,1,87.5,87.5h0a87.5,87.5,0,0,1-87.5,87.5h0a87.5,87.5,0,0,1-87.5-87.5h0A87.5,87.5,0,0,1,150.5-1265.609Z" fill="none"/>
        </g>
        <g>
          <path d="M150.5-1090.609a87.6,87.6,0,0,1-87.5-87.5,87.6,87.6,0,0,1,87.5-87.5,87.6,87.6,0,0,1,87.5,87.5A87.6,87.6,0,0,1,150.5-1090.609Zm0-174a86.6,86.6,0,0,0-86.5,86.5,86.6,86.6,0,0,0,86.5,86.5,86.6,86.6,0,0,0,86.5-86.5A86.6,86.6,0,0,0,150.5-1264.609Z" fill="#bd3454"/>
        </g>
      </g>
    </g>
    <g>
      <path d="M-679-1761.609h0a183,183,0,0,1,183,183v318a183,183,0,0,1-183,183h0a183,183,0,0,1-183-183v-318A183,183,0,0,1-679-1761.609Z" fill="#2a2c36"/>
    </g>
    <g>
      <path d="M-679-1077.609c-100.907,0-183-82.093-183-183v-318c0-100.907,82.093-183,183-183s183,82.093,183,183v318C-496-1159.7-578.093-1077.609-679-1077.609Zm0-681c-99.252,0-180,80.748-180,180v318c0,99.253,80.748,180,180,180s180-80.747,180-180v-318C-499-1677.861-579.748-1758.609-679-1758.609Z" fill="#bd3454"/>
    </g>
    <g>
      <g>
        <rect width="200" height="279" rx="10" transform="translate(-323 -1449.609)" fill="#2a2c36"/>
      </g>
      <g>
        <path d="M-133-1170.609H-313a10.011,10.011,0,0,1-10-10v-259a10.011,10.011,0,0,1,10-10h180a10.011,10.011,0,0,1,10,10v259A10.011,10.011,0,0,1-133-1170.609Zm-180-276a7.008,7.008,0,0,0-7,7v259a7.008,7.008,0,0,0,7,7h180a7.008,7.008,0,0,0,7-7v-259a7.008,7.008,0,0,0-7-7Z" fill="#bd3454"/>
      </g>
    </g>
    <g>
      <g>
        <rect width="200" height="279" rx="10" transform="translate(50 -1643.609)" fill="#2a2c36"/>
      </g>
      <g>
        <path d="M240-1364.609H60a10.011,10.011,0,0,1-10-10v-259a10.011,10.011,0,0,1,10-10H240a10.011,10.011,0,0,1,10,10v259A10.011,10.011,0,0,1,240-1364.609Zm-180-276a7.008,7.008,0,0,0-7,7v259a7.008,7.008,0,0,0,7,7H240a7.008,7.008,0,0,0,7-7v-259a7.008,7.008,0,0,0-7-7Z" fill="#bd3454"/>
      </g>
    </g>
    <g>
      <g>
        <path d="M-225-1740.609h0a100,100,0,0,1,100,100h0a100,100,0,0,1-100,100h0a100,100,0,0,1-100-100h0A100,100,0,0,1-225-1740.609Z" fill="#2a2c36"/>
      </g>
      <g>
        <path d="M-225-1540.609a100.113,100.113,0,0,1-100-100,100.113,100.113,0,0,1,100-100,100.113,100.113,0,0,1,100,100A100.113,100.113,0,0,1-225-1540.609Zm0-197a97.11,97.11,0,0,0-97,97,97.11,97.11,0,0,0,97,97,97.11,97.11,0,0,0,97-97A97.11,97.11,0,0,0-225-1737.609Z" fill="#bd3454"/>
      </g>
    </g>
    <g>
      <rect width="542.5" height="2" transform="translate(-491.5 -1505.609)" fill="#bd3454"/>
    </g>
    <g>
      <rect width="180" height="2" transform="translate(-124 -1641.609)" fill="#bd3454"/>
    </g>
    <g>
      <rect width="172" height="2" transform="translate(-122 -1376.609)" fill="#bd3454"/>
    </g>
    <g>
      <rect width="172" height="2" transform="translate(-125 -1178.609)" fill="#bd3454"/>
    </g>
    <g>
      <rect width="2" height="86" transform="translate(149 -1363.609)" fill="#bd3454"/>
    </g>
    <g>
      <rect width="172" height="2" transform="translate(-494 -1310.609)" fill="#bd3454"/>
    </g>
    <g>
      <rect width="650" height="2" transform="translate(-579 -1108.609)" fill="#bd3454"/>
    </g>
    <g>
      <g>
        <path d="M155.824-1352.609h0l-3.265,5.272c-.019.029-.036.059-.053.09L150-1342.686h0l-2.506-4.561c-.017-.031-.034-.061-.052-.09l-3.266-5.272,3.265-5.271c.019-.03.036-.06.053-.09l2.506-4.562,2.506,4.562c.017.03.034.06.052.09Z" fill="#2a2c36"/>
      </g>
      <g>
        <path d="M145.353-1352.609l2.939,4.745q.04.066.078.135l1.63,2.966,1.629-2.965c.025-.046.052-.091.08-.136l2.938-4.745-2.939-4.745c-.027-.044-.054-.09-.078-.135l-1.63-2.966-1.629,2.966c-.025.045-.052.091-.079.136l-2.939,4.744m-2.177,0a1,1,0,0,1,.15-.526l3.265-5.271.027-.046,2.506-4.561a1,1,0,0,1,1.752,0l2.506,4.561.027.046,3.265,5.271a1,1,0,0,1,0,1.053l-3.265,5.271-.027.045-2.506,4.562a1,1,0,0,1-1.752,0l-2.506-4.562-.027-.045-3.265-5.271A1,1,0,0,1,143.176-1352.609Z" fill="#bd3454"/>
      </g>
    </g>
    <g>
      <g>
        <path d="M155.824-1289.609h0l-3.265,5.272c-.019.029-.036.059-.053.09L150-1279.686h0l-2.506-4.561c-.017-.031-.034-.061-.052-.09l-3.266-5.272,3.265-5.271c.019-.03.036-.06.053-.09l2.506-4.562,2.506,4.562c.017.03.034.06.052.09Z" fill="#2a2c36"/>
      </g>
      <g>
        <path d="M145.353-1289.609l2.939,4.745q.04.066.078.135l1.63,2.966,1.629-2.965c.025-.046.052-.091.08-.136l2.938-4.745-2.939-4.745c-.027-.044-.054-.09-.078-.135l-1.63-2.966-1.629,2.966c-.025.045-.052.091-.079.136l-2.939,4.744m-2.177,0a1,1,0,0,1,.15-.526l3.265-5.271.027-.046,2.506-4.561a1,1,0,0,1,1.752,0l2.506,4.561.027.046,3.265,5.271a1,1,0,0,1,0,1.053l-3.265,5.271-.027.045-2.506,4.562a1,1,0,0,1-1.752,0l-2.506-4.562-.027-.045-3.265-5.271A1,1,0,0,1,143.176-1289.609Z" fill="#bd3454"/>
      </g>
    </g>
    <g>
      <g>
        <path d="M39-1369.785h0l-5.271-3.265c-.03-.019-.06-.036-.091-.053l-4.561-2.506h0l4.562-2.506c.03-.016.06-.034.089-.052L39-1381.432l5.271,3.265c.03.018.06.036.091.052l4.561,2.506-4.562,2.506c-.03.017-.06.034-.089.053Z" fill="#2a2c36"/>
      </g>
      <g>
        <path d="M39-1380.256l-4.745,2.939c-.044.027-.089.054-.135.079l-2.966,1.629,2.966,1.63c.045.025.091.051.135.079L39-1370.961l4.745-2.94c.044-.027.09-.053.135-.078l2.966-1.63-2.966-1.629c-.045-.025-.091-.051-.135-.079L39-1380.256m0-2.176a1.009,1.009,0,0,1,.527.149l5.271,3.266.045.026,4.562,2.506a1,1,0,0,1,0,1.753l-4.562,2.506-.045.026-5.271,3.265a1,1,0,0,1-1.054,0L33.2-1372.2l-.045-.026-4.562-2.506a1,1,0,0,1,0-1.753l4.562-2.506.045-.026,5.271-3.266A1.009,1.009,0,0,1,39-1382.432Z" fill="#bd3454"/>
      </g>
    </g>
    <g>
      <g>
        <path d="M-333-1303.785h0l-5.271-3.265c-.03-.019-.06-.036-.091-.053l-4.561-2.506h0l4.562-2.506c.03-.016.06-.034.089-.052l5.272-3.265,5.271,3.265c.03.018.06.036.091.052l4.561,2.506-4.562,2.506c-.03.017-.06.034-.089.053Z" fill="#2a2c36"/>
      </g>
      <g>
        <path d="M-333-1314.256l-4.745,2.939c-.044.027-.089.054-.135.079l-2.966,1.629,2.966,1.63c.045.025.091.051.135.079l4.745,2.939,4.745-2.94c.044-.027.09-.053.135-.078l2.966-1.63-2.966-1.629c-.045-.025-.091-.051-.135-.079l-4.745-2.939m0-2.176a1.009,1.009,0,0,1,.527.149l5.271,3.266.045.026,4.562,2.506a1,1,0,0,1,0,1.753l-4.562,2.506-.045.026-5.271,3.265a1,1,0,0,1-1.054,0l-5.271-3.265-.045-.026-4.562-2.506a1,1,0,0,1,0-1.753l4.562-2.506.045-.026,5.271-3.266A1.009,1.009,0,0,1-333-1316.432Z" fill="#bd3454"/>
      </g>
    </g>
    <g>
      <g>
        <path d="M39-1171.785h0l-5.271-3.265c-.03-.019-.06-.036-.091-.053l-4.561-2.506h0l4.562-2.506c.03-.016.06-.034.089-.052L39-1183.432l5.271,3.265c.03.018.06.036.091.052l4.561,2.506-4.562,2.506c-.03.017-.06.034-.089.053Z" fill="#2a2c36"/>
      </g>
      <g>
        <path d="M39-1182.256l-4.745,2.939c-.044.027-.089.054-.135.079l-2.966,1.629,2.966,1.63c.045.025.091.051.135.079L39-1172.961l4.745-2.94c.044-.027.09-.053.135-.078l2.966-1.63-2.966-1.629c-.045-.025-.091-.051-.135-.079L39-1182.256m0-2.176a1.009,1.009,0,0,1,.527.149l5.271,3.266.045.026,4.562,2.506a1,1,0,0,1,0,1.753l-4.562,2.506-.045.026-5.271,3.265a1,1,0,0,1-1.054,0L33.2-1174.2l-.045-.026-4.562-2.506a1,1,0,0,1,0-1.753l4.562-2.506.045-.026,5.271-3.266A1.009,1.009,0,0,1,39-1184.432Z" fill="#bd3454"/>
      </g>
    </g>
    <g>
      <g>
        <path d="M-113-1171.785h0l-5.271-3.265c-.03-.019-.06-.036-.091-.053l-4.561-2.506h0l4.562-2.506c.03-.016.06-.034.089-.052l5.272-3.265,5.271,3.265c.03.018.06.036.091.052l4.561,2.506-4.562,2.506c-.03.017-.06.034-.089.053Z" fill="#2a2c36"/>
      </g>
      <g>
        <path d="M-113-1182.256l-4.745,2.939c-.044.027-.089.054-.135.079l-2.966,1.629,2.966,1.63c.045.025.091.051.135.079l4.745,2.939,4.745-2.94c.044-.027.09-.053.135-.078l2.966-1.63-2.966-1.629c-.045-.025-.091-.051-.135-.079l-4.745-2.939m0-2.176a1.009,1.009,0,0,1,.527.149l5.271,3.266.045.026,4.562,2.506a1,1,0,0,1,0,1.753l-4.562,2.506-.045.026-5.271,3.265a1,1,0,0,1-1.054,0l-5.271-3.265-.045-.026-4.562-2.506a1,1,0,0,1,0-1.753l4.562-2.506.045-.026,5.271-3.266A1.009,1.009,0,0,1-113-1184.432Z" fill="#bd3454"/>
      </g>
    </g>
    <g>
      <g>
        <path d="M64-1101.785h0l-5.271-3.265c-.03-.019-.06-.036-.091-.053l-4.561-2.506h0l4.562-2.506c.03-.016.06-.034.089-.052L64-1113.432l5.271,3.265c.03.018.06.036.091.052l4.561,2.506-4.562,2.506c-.03.017-.06.034-.089.053Z" fill="#2a2c36"/>
      </g>
      <g>
        <path d="M64-1112.256l-4.745,2.939c-.044.027-.089.054-.135.079l-2.966,1.629,2.966,1.63c.045.025.091.051.135.079L64-1102.961l4.745-2.94c.044-.027.09-.053.135-.078l2.966-1.63-2.966-1.629c-.045-.025-.091-.051-.135-.079L64-1112.256m0-2.176a1.009,1.009,0,0,1,.527.149l5.271,3.266.045.026,4.562,2.506a1,1,0,0,1,0,1.753l-4.562,2.506-.045.026-5.271,3.265a1,1,0,0,1-1.054,0L58.2-1104.2l-.045-.026-4.562-2.506a1,1,0,0,1,0-1.753l4.562-2.506.045-.026,5.271-3.266A1.009,1.009,0,0,1,64-1114.432Z" fill="#bd3454"/>
      </g>
    </g>
    <g style="isolation: isolate">
      <g style="isolation: isolate">
        <path d="M128.483-1498.608h-7.3a3.156,3.156,0,0,1-1.64-.441,3.29,3.29,0,0,1-1.184-1.191,3.179,3.179,0,0,1-.44-1.632v-4.5a3.135,3.135,0,0,1,.44-1.624,3.319,3.319,0,0,1,1.184-1.185,3.163,3.163,0,0,1,1.64-.439h7.3v1.712h-6.432a1.5,1.5,0,0,0-1.088.439,1.478,1.478,0,0,0-.448,1.1v4.5a1.484,1.484,0,0,0,.448,1.088,1.481,1.481,0,0,0,1.088.448h6.432Z" fill="#fff"/>
        <path d="M137.235-1506.769a2.5,2.5,0,0,1,.912.913,2.428,2.428,0,0,1,.336,1.248v3.5a2.434,2.434,0,0,1-.336,1.248,2.5,2.5,0,0,1-.912.912,2.472,2.472,0,0,1-1.264.336h-3.712a2.43,2.43,0,0,1-1.256-.336,2.526,2.526,0,0,1-.9-.912,2.434,2.434,0,0,1-.336-1.248v-3.5a2.428,2.428,0,0,1,.336-1.248,2.529,2.529,0,0,1,.9-.913,2.431,2.431,0,0,1,1.256-.335h3.712A2.473,2.473,0,0,1,137.235-1506.769Zm-1.328,2.672a1.252,1.252,0,0,0-.376-.92,1.254,1.254,0,0,0-.92-.376h-.992a1.254,1.254,0,0,0-.92.376,1.251,1.251,0,0,0-.376.92v2.481a1.251,1.251,0,0,0,.376.92,1.25,1.25,0,0,0,.92.376h.992a1.25,1.25,0,0,0,.92-.376,1.252,1.252,0,0,0,.376-.92Z" fill="#fff"/>
        <path d="M145.875-1498.608v-5.489a1.251,1.251,0,0,0-.376-.92,1.255,1.255,0,0,0-.92-.376h-.992a1.252,1.252,0,0,0-.92.376,1.251,1.251,0,0,0-.376.92v5.489h-2.56v-6a2.428,2.428,0,0,1,.336-1.248,2.5,2.5,0,0,1,.912-.913,2.444,2.444,0,0,1,1.248-.335h3.712a2.475,2.475,0,0,1,1.264.335,2.5,2.5,0,0,1,.912.913,2.428,2.428,0,0,1,.336,1.248v6Z" fill="#fff"/>
        <path d="M152.867-1501.3a.941.941,0,0,0,.288.689.938.938,0,0,0,.688.288h1.168v1.712h-2.032a2.6,2.6,0,0,1-1.288-.336,2.779,2.779,0,0,1-.976-.905,2.553,2.553,0,0,1-.424-1.255v-4.289h-1.072v-1.711h1.072v-2.5h2.576v2.5h2.144v1.711h-2.144Z" fill="#fff"/>
        <path d="M161.586-1505.393h-1.952a1.236,1.236,0,0,0-.9.376,1.252,1.252,0,0,0-.376.92v5.489h-2.576v-6a2.428,2.428,0,0,1,.336-1.248,2.5,2.5,0,0,1,.912-.913,2.444,2.444,0,0,1,1.248-.335h3.312Z" fill="#fff"/>
        <path d="M171.922-1507.1v8.5h-2.56v-.449a6.474,6.474,0,0,1-2.368.449h-2.608a2.017,2.017,0,0,1-1.04-.281,2.064,2.064,0,0,1-.76-.759,2.026,2.026,0,0,1-.28-1.04v-4.336a2.026,2.026,0,0,1,.28-1.04,2.06,2.06,0,0,1,.76-.76,2.026,2.026,0,0,1,1.04-.28h2.592a6.6,6.6,0,0,1,2.384.448v-.448Zm-2.56,6.335v-4.175a6.516,6.516,0,0,0-2.384-.449h-.816a1.254,1.254,0,0,0-.92.376,1.251,1.251,0,0,0-.376.92v2.481a1.251,1.251,0,0,0,.376.92,1.25,1.25,0,0,0,.92.376h.816A6.516,6.516,0,0,0,169.362-1500.769Z" fill="#fff"/>
        <path d="M181.89-1498.608h-6.208a2.472,2.472,0,0,1-1.264-.336,2.5,2.5,0,0,1-.912-.912,2.466,2.466,0,0,1-.336-1.264v-3.473a2.459,2.459,0,0,1,.336-1.263,2.5,2.5,0,0,1,.912-.913,2.473,2.473,0,0,1,1.264-.335h6.208v1.711h-4.864a1.262,1.262,0,0,0-.912.376,1.24,1.24,0,0,0-.384.92v2.481a1.24,1.24,0,0,0,.384.92,1.257,1.257,0,0,0,.912.376h4.864Z" fill="#fff"/>
        <path d="M186.306-1501.3a.941.941,0,0,0,.288.689.938.938,0,0,0,.688.288h1.167v1.712h-2.032a2.6,2.6,0,0,1-1.287-.336,2.77,2.77,0,0,1-.976-.905,2.564,2.564,0,0,1-.425-1.255v-4.289h-1.071v-1.711h1.071v-2.5h2.577v2.5h2.143v1.711h-2.143Z" fill="#fff"/>
      </g>
    </g>
    <g style="isolation: isolate">
      <g style="isolation: isolate">
        <path d="M115.161-1185.633v1.728h-4v9.3h-2.576v-9.3h-4v-1.728Z" fill="#fff"/>
        <path d="M121.769-1181.393h-1.953a1.233,1.233,0,0,0-.9.376,1.251,1.251,0,0,0-.376.92v5.488h-2.576v-6a2.425,2.425,0,0,1,.336-1.248,2.494,2.494,0,0,1,.912-.912,2.434,2.434,0,0,1,1.248-.336h3.312Z" fill="#fff"/>
        <path d="M132.1-1183.1v8.5h-2.56v-.448a6.477,6.477,0,0,1-2.368.448h-2.608a2.023,2.023,0,0,1-1.04-.28,2.075,2.075,0,0,1-.76-.76,2.023,2.023,0,0,1-.28-1.04v-4.336a2.026,2.026,0,0,1,.28-1.04,2.075,2.075,0,0,1,.76-.76,2.033,2.033,0,0,1,1.04-.28h2.592a6.593,6.593,0,0,1,2.384.448v-.448Zm-2.56,6.336v-4.176a6.515,6.515,0,0,0-2.384-.448h-.816a1.254,1.254,0,0,0-.92.376,1.251,1.251,0,0,0-.376.92v2.48a1.25,1.25,0,0,0,.376.92,1.25,1.25,0,0,0,.92.376h.816A6.515,6.515,0,0,0,129.545-1176.769Z" fill="#fff"/>
        <path d="M139.5-1174.609v-5.488a1.251,1.251,0,0,0-.376-.92,1.255,1.255,0,0,0-.92-.376h-.992a1.255,1.255,0,0,0-.92.376,1.252,1.252,0,0,0-.376.92v5.488h-2.559v-6a2.433,2.433,0,0,1,.335-1.248,2.5,2.5,0,0,1,.913-.912,2.429,2.429,0,0,1,1.248-.336h3.712a2.462,2.462,0,0,1,1.263.336,2.494,2.494,0,0,1,.912.912,2.434,2.434,0,0,1,.336,1.248v6Z" fill="#fff"/>
        <path d="M146.488-1181.393a.792.792,0,0,0-.592.248.833.833,0,0,0-.24.6.815.815,0,0,0,.24.584.792.792,0,0,0,.592.248h2.752a2.493,2.493,0,0,1,1.288.343,2.579,2.579,0,0,1,.928.928,2.485,2.485,0,0,1,.344,1.288,2.454,2.454,0,0,1-.344,1.272,2.579,2.579,0,0,1-.928.928,2.485,2.485,0,0,1-1.288.344h-5.824v-1.712h4.976a.819.819,0,0,0,.6-.248.8.8,0,0,0,.248-.584.817.817,0,0,0-.248-.6.815.815,0,0,0-.6-.248H145.64a2.511,2.511,0,0,1-1.28-.345,2.549,2.549,0,0,1-.936-.928,2.456,2.456,0,0,1-.344-1.271,2.486,2.486,0,0,1,.344-1.289,2.555,2.555,0,0,1,.936-.928,2.51,2.51,0,0,1,1.28-.344h5.76v1.712Z" fill="#fff"/>
        <path d="M162.425-1183.1v8.5h-2.561v-.448a6.469,6.469,0,0,1-2.368.448h-2.607a2.021,2.021,0,0,1-1.04-.28,2.07,2.07,0,0,1-.761-.76,2.022,2.022,0,0,1-.279-1.04v-4.336a2.025,2.025,0,0,1,.279-1.04,2.07,2.07,0,0,1,.761-.76,2.03,2.03,0,0,1,1.04-.28h2.591a6.593,6.593,0,0,1,2.384.448v-.448Zm-2.561,6.336v-4.176a6.507,6.507,0,0,0-2.384-.448h-.816a1.255,1.255,0,0,0-.92.376,1.251,1.251,0,0,0-.376.92v2.48a1.25,1.25,0,0,0,.376.92,1.252,1.252,0,0,0,.92.376h.816A6.507,6.507,0,0,0,159.864-1176.769Z" fill="#fff"/>
        <path d="M172.392-1174.609h-6.208a2.463,2.463,0,0,1-1.264-.336,2.471,2.471,0,0,1-.912-.912,2.455,2.455,0,0,1-.336-1.264v-3.472a2.456,2.456,0,0,1,.336-1.264,2.487,2.487,0,0,1,.912-.912,2.463,2.463,0,0,1,1.264-.336h6.208v1.712h-4.865a1.265,1.265,0,0,0-.912.376,1.24,1.24,0,0,0-.384.92v2.48a1.238,1.238,0,0,0,.384.92,1.261,1.261,0,0,0,.912.376h4.865Z" fill="#fff"/>
        <path d="M176.808-1177.3a.935.935,0,0,0,.288.688.936.936,0,0,0,.687.288h1.168v1.712h-2.032a2.589,2.589,0,0,1-1.287-.336,2.77,2.77,0,0,1-.977-.9,2.564,2.564,0,0,1-.424-1.256v-4.288h-1.072v-1.712h1.072v-2.5h2.577v2.5h2.143v1.712h-2.143Z" fill="#fff"/>
        <path d="M187.191-1182.769a2.5,2.5,0,0,1,.913.912,2.443,2.443,0,0,1,.335,1.248v3.5a2.442,2.442,0,0,1-.335,1.248,2.488,2.488,0,0,1-.913.912,2.459,2.459,0,0,1-1.263.336h-3.712a2.425,2.425,0,0,1-1.257-.336,2.5,2.5,0,0,1-.9-.912,2.424,2.424,0,0,1-.336-1.248v-3.5a2.425,2.425,0,0,1,.336-1.248,2.516,2.516,0,0,1,.9-.912,2.425,2.425,0,0,1,1.257-.336h3.712A2.459,2.459,0,0,1,187.191-1182.769Zm-1.328,2.672a1.251,1.251,0,0,0-.376-.92,1.254,1.254,0,0,0-.92-.376h-.992a1.255,1.255,0,0,0-.92.376,1.252,1.252,0,0,0-.376.92v2.48a1.25,1.25,0,0,0,.376.92,1.252,1.252,0,0,0,.92.376h.992a1.25,1.25,0,0,0,.92-.376,1.25,1.25,0,0,0,.376-.92Z" fill="#fff"/>
        <path d="M195.495-1181.393h-1.952a1.232,1.232,0,0,0-.9.376,1.252,1.252,0,0,0-.376.92v5.488h-2.577v-6a2.434,2.434,0,0,1,.336-1.248,2.5,2.5,0,0,1,.913-.912,2.429,2.429,0,0,1,1.248-.336h3.311Z" fill="#fff"/>
      </g>
    </g>
    <g style="isolation: isolate">
      <g style="isolation: isolate">
        <path d="M-234.992-1306.609h-7.3a3.155,3.155,0,0,1-1.64-.44,3.29,3.29,0,0,1-1.183-1.192,3.171,3.171,0,0,1-.441-1.632v-4.5a3.127,3.127,0,0,1,.441-1.624,3.314,3.314,0,0,1,1.183-1.184,3.164,3.164,0,0,1,1.64-.44h7.3v1.712h-6.432a1.5,1.5,0,0,0-1.088.44,1.474,1.474,0,0,0-.448,1.1v4.5a1.478,1.478,0,0,0,.448,1.088,1.481,1.481,0,0,0,1.088.449h6.432Z" fill="#fff"/>
        <path d="M-230.912-1306.609h-2.575V-1317.6h2.575Z" fill="#fff"/>
        <path d="M-229.216-1317.6h2.56v2.5h-2.56Zm0,3.136h2.56v7.856h-2.56Z" fill="#fff"/>
        <path d="M-218.145-1315.1a1.625,1.625,0,0,1,1.193.488,1.623,1.623,0,0,1,.488,1.192v1.872a1.631,1.631,0,0,1-.488,1.184,1.613,1.613,0,0,1-1.193.5h-4.479v.576a.939.939,0,0,0,.288.688.937.937,0,0,0,.688.288h4.992v1.712h-5.84a2.635,2.635,0,0,1-1.353-.36,2.67,2.67,0,0,1-.975-.976,2.63,2.63,0,0,1-.361-1.352v-3.12a2.633,2.633,0,0,1,.361-1.352,2.684,2.684,0,0,1,.975-.976,2.635,2.635,0,0,1,1.353-.36Zm-1.1,3.32a.647.647,0,0,0,.2-.472v-.464a.649.649,0,0,0-.2-.472.648.648,0,0,0-.472-.2h-1.936a.937.937,0,0,0-.688.288.94.94,0,0,0-.288.688v.833h2.912A.649.649,0,0,0-219.24-1311.785Z" fill="#fff"/>
        <path d="M-209.072-1306.609v-5.488a1.255,1.255,0,0,0-.376-.92,1.255,1.255,0,0,0-.92-.376h-.992a1.251,1.251,0,0,0-.92.376,1.251,1.251,0,0,0-.376.92v5.488h-2.561v-6a2.444,2.444,0,0,1,.336-1.248,2.509,2.509,0,0,1,.912-.912,2.434,2.434,0,0,1,1.248-.336h3.712a2.469,2.469,0,0,1,1.265.336,2.5,2.5,0,0,1,.911.912,2.426,2.426,0,0,1,.337,1.248v6Z" fill="#fff"/>
        <path d="M-202.081-1309.3a.942.942,0,0,0,.288.688.941.941,0,0,0,.689.288h1.167v1.712h-2.032a2.6,2.6,0,0,1-1.288-.336,2.764,2.764,0,0,1-.975-.9,2.555,2.555,0,0,1-.425-1.256v-4.288h-1.072v-1.712h1.072v-2.5h2.576v2.5h2.144v1.712h-2.144Z" fill="#fff"/>
      </g>
    </g>
    <g style="isolation: isolate">
      <g style="isolation: isolate">
        <path d="M-765.727-1423.593a2.356,2.356,0,0,0-.839.841,2.22,2.22,0,0,0-.312,1.151v2.96a2.272,2.272,0,0,0,.312,1.161,2.333,2.333,0,0,0,.839.847,2.228,2.228,0,0,0,1.153.313h3.119v-4.464h2.56v6.176h-6.543a3.926,3.926,0,0,1-2.017-.544,4,4,0,0,1-1.463-1.472,3.959,3.959,0,0,1-.537-2.017v-2.96a3.912,3.912,0,0,1,.537-2.007,4.005,4.005,0,0,1,1.463-1.464,3.916,3.916,0,0,1,2.017-.544h6.543v1.712h-5.679A2.226,2.226,0,0,0-765.727-1423.593Z" fill="#fff"/>
        <path d="M-748-1423.1v8.5h-2.56v-.449a6.478,6.478,0,0,1-2.368.449h-2.608a2.015,2.015,0,0,1-1.04-.281,2.064,2.064,0,0,1-.76-.759,2.026,2.026,0,0,1-.28-1.04v-4.336a2.026,2.026,0,0,1,.28-1.04,2.06,2.06,0,0,1,.76-.76,2.023,2.023,0,0,1,1.04-.28h2.592a6.6,6.6,0,0,1,2.384.448v-.448Zm-2.56,6.335v-4.175a6.516,6.516,0,0,0-2.384-.449h-.816a1.252,1.252,0,0,0-.92.376,1.251,1.251,0,0,0-.376.92v2.481a1.251,1.251,0,0,0,.376.92,1.248,1.248,0,0,0,.92.376h.816A6.516,6.516,0,0,0-750.558-1416.769Z" fill="#fff"/>
        <path d="M-734.271-1422.769a2.5,2.5,0,0,1,.912.913,2.428,2.428,0,0,1,.336,1.248v6H-735.6v-5.489a1.255,1.255,0,0,0-.376-.92,1.236,1.236,0,0,0-.9-.376h-.384a1.234,1.234,0,0,0-.9.376,1.251,1.251,0,0,0-.376.92v5.489h-2.576v-5.489a1.255,1.255,0,0,0-.376-.92,1.236,1.236,0,0,0-.9-.376h-.368a1.252,1.252,0,0,0-.92.376,1.252,1.252,0,0,0-.376.92v5.489h-2.56v-6a2.428,2.428,0,0,1,.336-1.248,2.5,2.5,0,0,1,.912-.913,2.444,2.444,0,0,1,1.248-.335h2.4a3.226,3.226,0,0,1,1.9.624,3.155,3.155,0,0,1,1.888-.624h2.416A2.444,2.444,0,0,1-734.271-1422.769Z" fill="#fff"/>
        <path d="M-724.607-1423.1a1.624,1.624,0,0,1,1.192.488,1.621,1.621,0,0,1,.488,1.191v1.872a1.633,1.633,0,0,1-.488,1.185,1.612,1.612,0,0,1-1.192.5h-4.48v.575a.941.941,0,0,0,.288.689.939.939,0,0,0,.688.288h4.992v1.712h-5.84a2.632,2.632,0,0,1-1.352-.361,2.661,2.661,0,0,1-.976-.975,2.633,2.633,0,0,1-.36-1.353v-3.119a2.638,2.638,0,0,1,.36-1.353,2.669,2.669,0,0,1,.976-.975,2.631,2.631,0,0,1,1.352-.36Zm-1.1,3.32a.649.649,0,0,0,.2-.473v-.464a.646.646,0,0,0-.2-.471.648.648,0,0,0-.472-.2h-1.936a.936.936,0,0,0-.688.289.938.938,0,0,0-.288.688v.832h2.912A.647.647,0,0,0-725.7-1419.784Z" fill="#fff"/>
        <path d="M-701.951-1425.633v1.729h-4v9.3h-2.576v-9.3h-4v-1.729Z" fill="#fff"/>
        <path d="M-691.535-1423.1v8.5h-2.56v-.449a6.478,6.478,0,0,1-2.368.449h-2.608a2.012,2.012,0,0,1-1.04-.281,2.074,2.074,0,0,1-.761-.759,2.035,2.035,0,0,1-.279-1.04v-4.336a2.035,2.035,0,0,1,.279-1.04,2.07,2.07,0,0,1,.761-.76,2.021,2.021,0,0,1,1.04-.28h2.592a6.6,6.6,0,0,1,2.384.448v-.448Zm-2.56,6.335v-4.175a6.516,6.516,0,0,0-2.384-.449h-.816a1.252,1.252,0,0,0-.92.376,1.252,1.252,0,0,0-.376.92v2.481a1.252,1.252,0,0,0,.376.92,1.248,1.248,0,0,0,.92.376h.816A6.516,6.516,0,0,0-694.095-1416.769Z" fill="#fff"/>
        <path d="M-681.711-1422.824a2.065,2.065,0,0,1,.759.76,2.027,2.027,0,0,1,.281,1.04v4.336a2.027,2.027,0,0,1-.281,1.04,2.069,2.069,0,0,1-.759.759,2.02,2.02,0,0,1-1.04.281h-2.609a6.482,6.482,0,0,1-2.368-.449v.449h-2.56V-1425.6h2.56v2.945a6.689,6.689,0,0,1,2.384-.448h2.593A2.028,2.028,0,0,1-681.711-1422.824Zm-1.52,2.727a1.255,1.255,0,0,0-.376-.92,1.256,1.256,0,0,0-.921-.376h-.816a6.52,6.52,0,0,0-2.384.449v4.175a6.52,6.52,0,0,0,2.384.449h.816a1.252,1.252,0,0,0,.921-.376,1.255,1.255,0,0,0,.376-.92Z" fill="#fff"/>
        <path d="M-676.624-1414.608H-679.2V-1425.6h2.576Z" fill="#fff"/>
        <path d="M-668.112-1423.1a1.624,1.624,0,0,1,1.192.488,1.62,1.62,0,0,1,.488,1.191v1.872a1.633,1.633,0,0,1-.488,1.185,1.612,1.612,0,0,1-1.192.5h-4.48v.575a.941.941,0,0,0,.288.689.939.939,0,0,0,.688.288h4.992v1.712h-5.84a2.632,2.632,0,0,1-1.352-.361,2.661,2.661,0,0,1-.976-.975,2.633,2.633,0,0,1-.36-1.353v-3.119a2.638,2.638,0,0,1,.36-1.353,2.669,2.669,0,0,1,.976-.975,2.631,2.631,0,0,1,1.352-.36Zm-1.1,3.32a.649.649,0,0,0,.2-.473v-.464a.646.646,0,0,0-.2-.471.648.648,0,0,0-.472-.2h-1.936a.936.936,0,0,0-.688.289.939.939,0,0,0-.288.688v.832h2.912A.647.647,0,0,0-669.208-1419.784Z" fill="#fff"/>
        <path d="M-646.48-1414.608l-3.52-8.352-2.816,6.64h3.152l.8,1.712H-656.1l4.672-11.008h2.832l4.672,11.008Z" fill="#fff"/>
        <path d="M-634.464-1414.608h-6.208a2.476,2.476,0,0,1-1.265-.336,2.5,2.5,0,0,1-.912-.912,2.466,2.466,0,0,1-.336-1.264v-3.473a2.459,2.459,0,0,1,.336-1.263,2.5,2.5,0,0,1,.912-.913,2.476,2.476,0,0,1,1.265-.335h6.208v1.711h-4.865a1.263,1.263,0,0,0-.912.376,1.24,1.24,0,0,0-.384.92v2.481a1.24,1.24,0,0,0,.384.92,1.259,1.259,0,0,0,.912.376h4.865Z" fill="#fff"/>
        <path d="M-624.5-1414.608h-6.208a2.472,2.472,0,0,1-1.264-.336,2.5,2.5,0,0,1-.912-.912,2.466,2.466,0,0,1-.336-1.264v-3.473a2.459,2.459,0,0,1,.336-1.263,2.5,2.5,0,0,1,.912-.913,2.472,2.472,0,0,1,1.264-.335h6.208v1.711h-4.864a1.262,1.262,0,0,0-.912.376,1.24,1.24,0,0,0-.384.92v2.481a1.24,1.24,0,0,0,.384.92,1.257,1.257,0,0,0,.912.376h4.864Z" fill="#fff"/>
        <path d="M-615.777-1422.769a2.5,2.5,0,0,1,.912.913,2.428,2.428,0,0,1,.336,1.248v3.5a2.434,2.434,0,0,1-.336,1.248,2.5,2.5,0,0,1-.912.912,2.475,2.475,0,0,1-1.264.336h-3.712a2.43,2.43,0,0,1-1.256-.336,2.518,2.518,0,0,1-.9-.912,2.434,2.434,0,0,1-.336-1.248v-3.5a2.428,2.428,0,0,1,.336-1.248,2.521,2.521,0,0,1,.9-.913,2.431,2.431,0,0,1,1.256-.335h3.712A2.475,2.475,0,0,1-615.777-1422.769Zm-1.328,2.672a1.251,1.251,0,0,0-.376-.92,1.255,1.255,0,0,0-.92-.376h-.992a1.252,1.252,0,0,0-.92.376,1.251,1.251,0,0,0-.376.92v2.481a1.251,1.251,0,0,0,.376.92,1.248,1.248,0,0,0,.92.376h.992a1.251,1.251,0,0,0,.92-.376,1.251,1.251,0,0,0,.376-.92Z" fill="#fff"/>
        <path d="M-610.721-1423.1v5.488a1.251,1.251,0,0,0,.376.92,1.248,1.248,0,0,0,.92.376h1.008a1.231,1.231,0,0,0,.9-.376,1.255,1.255,0,0,0,.376-.92v-5.488h2.576v6a2.434,2.434,0,0,1-.336,1.248,2.5,2.5,0,0,1-.912.912,2.475,2.475,0,0,1-1.264.336h-3.712a2.444,2.444,0,0,1-1.248-.336,2.5,2.5,0,0,1-.912-.912,2.434,2.434,0,0,1-.336-1.248v-6Z" fill="#fff"/>
        <path d="M-597.169-1414.608v-5.489a1.255,1.255,0,0,0-.376-.92,1.256,1.256,0,0,0-.92-.376h-.993a1.252,1.252,0,0,0-.919.376,1.252,1.252,0,0,0-.376.92v5.489h-2.56v-6a2.427,2.427,0,0,1,.335-1.248,2.507,2.507,0,0,1,.913-.913,2.439,2.439,0,0,1,1.248-.335h3.712a2.478,2.478,0,0,1,1.264.335,2.5,2.5,0,0,1,.911.913,2.429,2.429,0,0,1,.337,1.248v6Z" fill="#fff"/>
        <path d="M-590.178-1417.3a.941.941,0,0,0,.288.689.94.94,0,0,0,.688.288h1.168v1.712h-2.032a2.606,2.606,0,0,1-1.288-.336,2.787,2.787,0,0,1-.976-.905,2.554,2.554,0,0,1-.424-1.255v-4.289h-1.072v-1.711h1.072v-2.5h2.576v2.5h2.144v1.711h-2.144Z" fill="#fff"/>
      </g>
    </g>
    <g style="isolation: isolate">
      <path d="M-273.583-1656.593a2.351,2.351,0,0,0-.84.841,2.22,2.22,0,0,0-.312,1.151v2.96a2.272,2.272,0,0,0,.312,1.161,2.328,2.328,0,0,0,.84.847,2.225,2.225,0,0,0,1.152.313h3.119v-4.464h2.561v6.176H-273.3a3.929,3.929,0,0,1-2.017-.544,4,4,0,0,1-1.463-1.472,3.958,3.958,0,0,1-.537-2.017v-2.96a3.912,3.912,0,0,1,.537-2.007,4,4,0,0,1,1.463-1.464,3.918,3.918,0,0,1,2.017-.544h6.544v1.712h-5.68A2.223,2.223,0,0,0-273.583-1656.593Z" fill="#fff"/>
      <path d="M-255.854-1656.1v8.5h-2.561v-.449a6.478,6.478,0,0,1-2.368.449h-2.608a2.015,2.015,0,0,1-1.04-.281,2.064,2.064,0,0,1-.76-.759,2.026,2.026,0,0,1-.28-1.04v-4.336a2.026,2.026,0,0,1,.28-1.04,2.06,2.06,0,0,1,.76-.76,2.023,2.023,0,0,1,1.04-.28h2.592a6.6,6.6,0,0,1,2.384.448v-.448Zm-2.561,6.335v-4.175a6.516,6.516,0,0,0-2.384-.449h-.816a1.254,1.254,0,0,0-.92.376,1.251,1.251,0,0,0-.376.92v2.481a1.251,1.251,0,0,0,.376.92,1.25,1.25,0,0,0,.92.376h.816A6.516,6.516,0,0,0-258.415-1649.769Z" fill="#fff"/>
      <path d="M-242.128-1655.769a2.5,2.5,0,0,1,.912.913,2.419,2.419,0,0,1,.336,1.248v6h-2.576v-5.489a1.251,1.251,0,0,0-.376-.92,1.233,1.233,0,0,0-.9-.376h-.385a1.232,1.232,0,0,0-.9.376,1.251,1.251,0,0,0-.376.92v5.489h-2.577v-5.489a1.255,1.255,0,0,0-.376-.92,1.234,1.234,0,0,0-.9-.376h-.368a1.256,1.256,0,0,0-.92.376,1.252,1.252,0,0,0-.376.92v5.489h-2.559v-6a2.428,2.428,0,0,1,.335-1.248,2.507,2.507,0,0,1,.913-.913,2.438,2.438,0,0,1,1.248-.335h2.4a3.226,3.226,0,0,1,1.9.624,3.155,3.155,0,0,1,1.888-.624h2.416A2.444,2.444,0,0,1-242.128-1655.769Z" fill="#fff"/>
      <path d="M-232.464-1656.1a1.627,1.627,0,0,1,1.193.488,1.62,1.62,0,0,1,.488,1.191v1.872a1.633,1.633,0,0,1-.488,1.185,1.615,1.615,0,0,1-1.193.5h-4.479v.575a.937.937,0,0,0,.288.689.936.936,0,0,0,.687.288h4.992v1.712h-5.839a2.633,2.633,0,0,1-1.353-.361,2.676,2.676,0,0,1-.976-.975,2.633,2.633,0,0,1-.36-1.353v-3.119a2.638,2.638,0,0,1,.36-1.353,2.684,2.684,0,0,1,.976-.975,2.632,2.632,0,0,1,1.353-.36Zm-1.1,3.32a.65.65,0,0,0,.2-.473v-.464a.647.647,0,0,0-.2-.471.647.647,0,0,0-.471-.2h-1.937a.933.933,0,0,0-.687.289.935.935,0,0,0-.288.688v.832h2.912A.646.646,0,0,0-233.56-1652.784Z" fill="#fff"/>
      <path d="M-211.056-1653.608a3.222,3.222,0,0,1,1.168,1.168,3.134,3.134,0,0,1,.432,1.616,3.135,3.135,0,0,1-.432,1.616,3.229,3.229,0,0,1-1.168,1.168,3.105,3.105,0,0,1-1.6.432h-6.911v-1.728h6.047a1.459,1.459,0,0,0,1.064-.433,1.418,1.418,0,0,0,.44-1.055,1.423,1.423,0,0,0-.44-1.057,1.467,1.467,0,0,0-1.064-.432h-3.344a3.073,3.073,0,0,1-1.584-.423,3.155,3.155,0,0,1-1.144-1.153,3.069,3.069,0,0,1-.424-1.576,3.066,3.066,0,0,1,.424-1.584,3.181,3.181,0,0,1,1.144-1.143,3.064,3.064,0,0,1,1.584-.424h6.768v1.712h-5.92a1.387,1.387,0,0,0-1.016.424,1.388,1.388,0,0,0-.424,1.015,1.362,1.362,0,0,0,.424,1.009,1.4,1.4,0,0,0,1.016.416h3.36A3.106,3.106,0,0,1-211.056-1653.608Z" fill="#fff"/>
      <path d="M-205.12-1650.3a.941.941,0,0,0,.288.689.936.936,0,0,0,.687.288h1.168v1.712h-2.032a2.6,2.6,0,0,1-1.287-.336,2.787,2.787,0,0,1-.976-.905,2.553,2.553,0,0,1-.424-1.255v-4.289h-1.073v-1.711h1.073v-2.5h2.576v2.5h2.143v1.711h-2.143Z" fill="#fff"/>
      <path d="M-192.592-1656.1v8.5h-2.56v-.449a6.479,6.479,0,0,1-2.369.449h-2.607a2.012,2.012,0,0,1-1.04-.281,2.074,2.074,0,0,1-.761-.759,2.035,2.035,0,0,1-.279-1.04v-4.336a2.035,2.035,0,0,1,.279-1.04,2.07,2.07,0,0,1,.761-.76,2.021,2.021,0,0,1,1.04-.28h2.592a6.6,6.6,0,0,1,2.384.448v-.448Zm-2.56,6.335v-4.175a6.516,6.516,0,0,0-2.384-.449h-.817a1.253,1.253,0,0,0-.919.376,1.252,1.252,0,0,0-.376.92v2.481a1.252,1.252,0,0,0,.376.92,1.249,1.249,0,0,0,.919.376h.817A6.516,6.516,0,0,0-195.152-1649.769Z" fill="#fff"/>
      <path d="M-182.624-1647.608h-6.208a2.476,2.476,0,0,1-1.265-.336,2.516,2.516,0,0,1-.912-.912,2.475,2.475,0,0,1-.336-1.264v-3.473a2.469,2.469,0,0,1,.336-1.263,2.519,2.519,0,0,1,.912-.913,2.476,2.476,0,0,1,1.265-.335h6.208v1.711h-4.864a1.258,1.258,0,0,0-.912.376,1.24,1.24,0,0,0-.384.92v2.481a1.24,1.24,0,0,0,.384.92,1.254,1.254,0,0,0,.912.376h4.864Z" fill="#fff"/>
      <path d="M-181.377-1658.6h2.561v10.993h-2.561Zm5.648,6.752,3.52,4.241h-3.1l-3.5-4.241,2.783-4.255h3.089Z" fill="#fff"/>
      <path d="M-249.432-1628.408l-3.519-8.352-2.817,6.64h3.153l.8,1.712h-7.233l4.673-11.008h2.832l4.672,11.008Z" fill="#fff"/>
      <path d="M-237.415-1628.408h-6.208a2.476,2.476,0,0,1-1.265-.336,2.508,2.508,0,0,1-.912-.912,2.475,2.475,0,0,1-.336-1.264v-3.473a2.472,2.472,0,0,1,.336-1.263,2.508,2.508,0,0,1,.912-.912,2.466,2.466,0,0,1,1.265-.336h6.208v1.712h-4.864a1.258,1.258,0,0,0-.912.376,1.238,1.238,0,0,0-.384.92v2.48a1.24,1.24,0,0,0,.384.92,1.255,1.255,0,0,0,.912.376h4.864Z" fill="#fff"/>
      <path d="M-227.447-1628.408h-6.208a2.476,2.476,0,0,1-1.265-.336,2.5,2.5,0,0,1-.912-.912,2.466,2.466,0,0,1-.336-1.264v-3.473a2.462,2.462,0,0,1,.336-1.263,2.5,2.5,0,0,1,.912-.912,2.466,2.466,0,0,1,1.265-.336h6.208v1.712h-4.865a1.262,1.262,0,0,0-.912.376,1.241,1.241,0,0,0-.383.92v2.48a1.242,1.242,0,0,0,.383.92,1.258,1.258,0,0,0,.912.376h4.865Z" fill="#fff"/>
      <path d="M-218.728-1636.568a2.493,2.493,0,0,1,.912.912,2.435,2.435,0,0,1,.337,1.248v3.5a2.435,2.435,0,0,1-.337,1.248,2.493,2.493,0,0,1-.912.912,2.472,2.472,0,0,1-1.264.336H-223.7a2.43,2.43,0,0,1-1.256-.336,2.509,2.509,0,0,1-.9-.912,2.434,2.434,0,0,1-.336-1.248v-3.5a2.434,2.434,0,0,1,.336-1.248,2.509,2.509,0,0,1,.9-.912,2.421,2.421,0,0,1,1.256-.336h3.712A2.463,2.463,0,0,1-218.728-1636.568Zm-1.328,2.672a1.254,1.254,0,0,0-.376-.92,1.254,1.254,0,0,0-.92-.376h-.992a1.252,1.252,0,0,0-.92.376,1.25,1.25,0,0,0-.376.92v2.48a1.252,1.252,0,0,0,.376.92,1.249,1.249,0,0,0,.92.376h.992a1.25,1.25,0,0,0,.92-.376,1.255,1.255,0,0,0,.376-.92Z" fill="#fff"/>
      <path d="M-213.672-1636.9v5.488a1.252,1.252,0,0,0,.376.92,1.248,1.248,0,0,0,.92.376h1.008a1.233,1.233,0,0,0,.9-.376,1.255,1.255,0,0,0,.376-.92v-5.488h2.576v6a2.425,2.425,0,0,1-.337,1.248,2.483,2.483,0,0,1-.911.912,2.475,2.475,0,0,1-1.264.336h-3.712a2.438,2.438,0,0,1-1.248-.336,2.493,2.493,0,0,1-.912-.912,2.434,2.434,0,0,1-.336-1.248v-6Z" fill="#fff"/>
      <path d="M-200.12-1628.408v-5.488a1.254,1.254,0,0,0-.376-.92,1.255,1.255,0,0,0-.92-.376h-.992a1.252,1.252,0,0,0-.92.376,1.25,1.25,0,0,0-.376.92v5.488h-2.561v-6a2.444,2.444,0,0,1,.336-1.248,2.508,2.508,0,0,1,.912-.912,2.434,2.434,0,0,1,1.248-.336h3.712a2.469,2.469,0,0,1,1.265.336,2.483,2.483,0,0,1,.911.912,2.426,2.426,0,0,1,.337,1.248v6Z" fill="#fff"/>
      <path d="M-193.129-1631.1a.945.945,0,0,0,.288.689.942.942,0,0,0,.689.288h1.168v1.712h-2.033a2.606,2.606,0,0,1-1.288-.336,2.783,2.783,0,0,1-.975-.9,2.555,2.555,0,0,1-.425-1.256v-4.288h-1.071v-1.712h1.071v-2.5h2.576v2.5h2.145v1.712h-2.145Z" fill="#fff"/>
    </g>
    <g style="isolation: isolate">
      <g style="isolation: isolate">
        <path d="M-453.926-1324.593a2.343,2.343,0,0,0-.84.841,2.217,2.217,0,0,0-.312,1.151v2.96a2.266,2.266,0,0,0,.312,1.16,2.33,2.33,0,0,0,.84.848,2.224,2.224,0,0,0,1.152.312h3.12v-4.464h2.56v6.176h-6.544a3.92,3.92,0,0,1-2.016-.544,3.984,3.984,0,0,1-1.464-1.472,3.957,3.957,0,0,1-.536-2.016v-2.96a3.912,3.912,0,0,1,.536-2.008,4.015,4.015,0,0,1,1.464-1.464,3.919,3.919,0,0,1,2.016-.544h6.544v1.712h-5.68A2.224,2.224,0,0,0-453.926-1324.593Z" fill="#fff"/>
        <path d="M-436.2-1324.1v8.5h-2.56v-.448a6.473,6.473,0,0,1-2.368.448h-2.608a2.026,2.026,0,0,1-1.04-.28,2.075,2.075,0,0,1-.76-.76,2.023,2.023,0,0,1-.28-1.04v-4.336a2.026,2.026,0,0,1,.28-1.04,2.075,2.075,0,0,1,.76-.76,2.035,2.035,0,0,1,1.04-.28h2.592a6.6,6.6,0,0,1,2.384.448v-.448Zm-2.56,6.336v-4.176a6.515,6.515,0,0,0-2.384-.448h-.816a1.254,1.254,0,0,0-.92.376,1.251,1.251,0,0,0-.376.92v2.48a1.25,1.25,0,0,0,.376.92,1.25,1.25,0,0,0,.92.376h.816A6.515,6.515,0,0,0-438.758-1317.769Z" fill="#fff"/>
        <path d="M-422.471-1323.769a2.5,2.5,0,0,1,.912.912,2.425,2.425,0,0,1,.336,1.248v6H-423.8v-5.488a1.252,1.252,0,0,0-.376-.92,1.234,1.234,0,0,0-.9-.376h-.384a1.236,1.236,0,0,0-.9.376,1.251,1.251,0,0,0-.376.92v5.488h-2.576v-5.488a1.251,1.251,0,0,0-.376-.92,1.234,1.234,0,0,0-.9-.376h-.368a1.254,1.254,0,0,0-.92.376,1.251,1.251,0,0,0-.376.92v5.488h-2.56v-6a2.434,2.434,0,0,1,.336-1.248,2.51,2.51,0,0,1,.912-.912,2.434,2.434,0,0,1,1.248-.336h2.4a3.224,3.224,0,0,1,1.9.624,3.158,3.158,0,0,1,1.888-.624h2.416A2.431,2.431,0,0,1-422.471-1323.769Z" fill="#fff"/>
        <path d="M-412.807-1324.1a1.621,1.621,0,0,1,1.192.488,1.624,1.624,0,0,1,.489,1.192v1.872a1.632,1.632,0,0,1-.489,1.184,1.609,1.609,0,0,1-1.192.5h-4.48v.576a.938.938,0,0,0,.288.688.938.938,0,0,0,.688.288h4.992v1.712h-5.84a2.634,2.634,0,0,1-1.352-.36,2.672,2.672,0,0,1-.976-.976,2.629,2.629,0,0,1-.36-1.352v-3.12a2.632,2.632,0,0,1,.36-1.352,2.687,2.687,0,0,1,.976-.976,2.634,2.634,0,0,1,1.352-.36Zm-1.1,3.32a.647.647,0,0,0,.2-.472v-.464a.648.648,0,0,0-.2-.472.645.645,0,0,0-.472-.2h-1.936a.938.938,0,0,0-.688.288.94.94,0,0,0-.288.688v.833h2.912A.646.646,0,0,0-413.9-1320.785Z" fill="#fff"/>
        <path d="M-391.4-1321.609a3.229,3.229,0,0,1,1.168,1.168,3.135,3.135,0,0,1,.432,1.616,3.141,3.141,0,0,1-.432,1.617,3.227,3.227,0,0,1-1.168,1.167,3.1,3.1,0,0,1-1.6.432h-6.912v-1.727h6.048a1.463,1.463,0,0,0,1.064-.433,1.421,1.421,0,0,0,.44-1.056,1.421,1.421,0,0,0-.44-1.056,1.467,1.467,0,0,0-1.064-.432h-3.344a3.07,3.07,0,0,1-1.584-.424,3.159,3.159,0,0,1-1.144-1.152,3.074,3.074,0,0,1-.424-1.576,3.061,3.061,0,0,1,.424-1.584,3.183,3.183,0,0,1,1.144-1.144,3.071,3.071,0,0,1,1.584-.424h6.768v1.712h-5.92a1.39,1.39,0,0,0-1.016.424,1.385,1.385,0,0,0-.424,1.016,1.357,1.357,0,0,0,.424,1.008,1.4,1.4,0,0,0,1.016.416H-393A3.107,3.107,0,0,1-391.4-1321.609Z" fill="#fff"/>
        <path d="M-385.463-1318.3a.938.938,0,0,0,.288.688.938.938,0,0,0,.688.288h1.168v1.712h-2.033a2.592,2.592,0,0,1-1.287-.336,2.759,2.759,0,0,1-.976-.9,2.565,2.565,0,0,1-.425-1.256v-4.288h-1.071v-1.712h1.071v-2.5h2.577v2.5h2.144v1.712h-2.144Z" fill="#fff"/>
        <path d="M-372.935-1324.1v8.5h-2.56v-.448a6.477,6.477,0,0,1-2.368.448h-2.608a2.023,2.023,0,0,1-1.04-.28,2.075,2.075,0,0,1-.76-.76,2.023,2.023,0,0,1-.28-1.04v-4.336a2.026,2.026,0,0,1,.28-1.04,2.075,2.075,0,0,1,.76-.76,2.033,2.033,0,0,1,1.04-.28h2.592a6.6,6.6,0,0,1,2.384.448v-.448Zm-2.56,6.336v-4.176a6.515,6.515,0,0,0-2.384-.448h-.816a1.252,1.252,0,0,0-.92.376,1.251,1.251,0,0,0-.376.92v2.48a1.25,1.25,0,0,0,.376.92,1.248,1.248,0,0,0,.92.376h.816A6.515,6.515,0,0,0-375.495-1317.769Z" fill="#fff"/>
        <path d="M-368.52-1318.3a.939.939,0,0,0,.289.688.937.937,0,0,0,.688.288h1.168v1.712h-2.033a2.592,2.592,0,0,1-1.287-.336,2.759,2.759,0,0,1-.976-.9,2.565,2.565,0,0,1-.425-1.256v-4.288h-1.071v-1.712h1.071v-2.5h2.576v2.5h2.145v1.712h-2.145Z" fill="#fff"/>
        <path d="M-358.568-1324.1a1.624,1.624,0,0,1,1.192.488,1.623,1.623,0,0,1,.488,1.192v1.872a1.63,1.63,0,0,1-.488,1.184,1.612,1.612,0,0,1-1.192.5h-4.48v.576a.939.939,0,0,0,.288.688.938.938,0,0,0,.688.288h4.992v1.712h-5.84a2.631,2.631,0,0,1-1.352-.36,2.664,2.664,0,0,1-.976-.976,2.629,2.629,0,0,1-.36-1.352v-3.12a2.631,2.631,0,0,1,.36-1.352,2.679,2.679,0,0,1,.976-.976,2.631,2.631,0,0,1,1.352-.36Zm-1.1,3.32a.647.647,0,0,0,.2-.472v-.464a.649.649,0,0,0-.2-.472.647.647,0,0,0-.472-.2h-1.936a.938.938,0,0,0-.688.288.94.94,0,0,0-.288.688v.833h2.912A.648.648,0,0,0-359.664-1320.785Z" fill="#fff"/>
      </g>
    </g>
    <g style="isolation: isolate">
      <g style="isolation: isolate">
        <path d="M-243.573-1521.633H-241v11.025h-2.576v-7.168l-2.128,3.232h-2.544l-2.24-3.312v7.248h-2.576v-11.025h2.576l3.5,5.168Z" fill="#fff"/>
        <path d="M-230.021-1519.1v8.5h-2.56v-.449a6.474,6.474,0,0,1-2.368.449h-2.608a2.017,2.017,0,0,1-1.04-.281,2.072,2.072,0,0,1-.76-.759,2.036,2.036,0,0,1-.28-1.04v-4.336a2.035,2.035,0,0,1,.28-1.04,2.067,2.067,0,0,1,.76-.76,2.026,2.026,0,0,1,1.04-.28h2.592a6.6,6.6,0,0,1,2.384.448v-.448Zm-2.56,6.335v-4.175a6.516,6.516,0,0,0-2.384-.449h-.816a1.254,1.254,0,0,0-.92.376,1.252,1.252,0,0,0-.376.92v2.481a1.252,1.252,0,0,0,.376.92,1.25,1.25,0,0,0,.92.376h.816A6.516,6.516,0,0,0-232.581-1512.769Z" fill="#fff"/>
        <path d="M-222.629-1510.608v-5.489a1.255,1.255,0,0,0-.376-.92,1.255,1.255,0,0,0-.92-.376h-.992a1.252,1.252,0,0,0-.92.376,1.252,1.252,0,0,0-.376.92v5.489h-2.56v-6a2.427,2.427,0,0,1,.335-1.248,2.507,2.507,0,0,1,.913-.913,2.438,2.438,0,0,1,1.248-.335h3.712a2.478,2.478,0,0,1,1.264.335,2.494,2.494,0,0,1,.911.913,2.429,2.429,0,0,1,.337,1.248v6Z" fill="#fff"/>
        <path d="M-209.189-1519.1v8.5h-2.561v-.449a6.474,6.474,0,0,1-2.368.449h-2.608a2.017,2.017,0,0,1-1.04-.281,2.079,2.079,0,0,1-.76-.759,2.036,2.036,0,0,1-.28-1.04v-4.336a2.035,2.035,0,0,1,.28-1.04,2.075,2.075,0,0,1,.76-.76,2.026,2.026,0,0,1,1.04-.28h2.592a6.6,6.6,0,0,1,2.384.448v-.448Zm-2.561,6.335v-4.175a6.516,6.516,0,0,0-2.384-.449h-.816a1.254,1.254,0,0,0-.92.376,1.251,1.251,0,0,0-.376.92v2.481a1.251,1.251,0,0,0,.376.92,1.25,1.25,0,0,0,.92.376h.816A6.516,6.516,0,0,0-211.75-1512.769Z" fill="#fff"/>
        <path d="M-198.31-1519.1v8.32a2.627,2.627,0,0,1-.359,1.351,2.745,2.745,0,0,1-.977.985,2.588,2.588,0,0,1-1.352.368h-6.575v-1.729h5.712a.956.956,0,0,0,.7-.288.935.935,0,0,0,.287-.687v-1.328a8.8,8.8,0,0,1-3.024.607h-1.967a2.029,2.029,0,0,1-1.04-.279,2.064,2.064,0,0,1-.761-.769,2.075,2.075,0,0,1-.279-1.048v-3.423a2.035,2.035,0,0,1,.279-1.04,2.07,2.07,0,0,1,.761-.76,2.021,2.021,0,0,1,1.04-.28h1.951a9.253,9.253,0,0,1,3.04.591v-.591Zm-4.96,5.872a11.083,11.083,0,0,0,2.4-.7v-2.736a12.109,12.109,0,0,0-2.4-.72h-.815a1.264,1.264,0,0,0-.913.376,1.242,1.242,0,0,0-.383.92v1.569a1.242,1.242,0,0,0,.383.92,1.26,1.26,0,0,0,.913.376Z" fill="#fff"/>
        <path d="M-190.021-1519.1a1.62,1.62,0,0,1,1.191.488,1.617,1.617,0,0,1,.489,1.191v1.872a1.63,1.63,0,0,1-.489,1.185,1.608,1.608,0,0,1-1.191.5h-4.48v.575a.937.937,0,0,0,.288.689.938.938,0,0,0,.688.288h4.991v1.712h-5.84a2.635,2.635,0,0,1-1.352-.361,2.676,2.676,0,0,1-.976-.975,2.642,2.642,0,0,1-.36-1.353v-3.119a2.647,2.647,0,0,1,.36-1.353,2.684,2.684,0,0,1,.976-.975,2.634,2.634,0,0,1,1.352-.36Zm-1.1,3.32a.646.646,0,0,0,.2-.473v-.464a.644.644,0,0,0-.2-.471.646.646,0,0,0-.471-.2h-1.936a.936.936,0,0,0-.688.289.935.935,0,0,0-.288.688v.832h2.912A.645.645,0,0,0-191.118-1515.784Z" fill="#fff"/>
      </g>
    </g>
    <g style="isolation: isolate">
      <g style="isolation: isolate">
        <path d="M-48.573-1658.633H-46v11.025h-2.576v-7.168l-2.128,3.232h-2.544l-2.24-3.312v7.248h-2.576v-11.025h2.576l3.5,5.168Z" fill="#fff"/>
        <path d="M-35.021-1656.1v8.5h-2.56v-.449a6.474,6.474,0,0,1-2.368.449h-2.608a2.017,2.017,0,0,1-1.04-.281,2.072,2.072,0,0,1-.76-.759,2.036,2.036,0,0,1-.28-1.04v-4.336a2.035,2.035,0,0,1,.28-1.04,2.067,2.067,0,0,1,.76-.76,2.026,2.026,0,0,1,1.04-.28h2.592a6.6,6.6,0,0,1,2.384.448v-.448Zm-2.56,6.335v-4.175a6.516,6.516,0,0,0-2.384-.449h-.816a1.254,1.254,0,0,0-.92.376,1.251,1.251,0,0,0-.376.92v2.481a1.251,1.251,0,0,0,.376.92,1.25,1.25,0,0,0,.92.376h.816A6.516,6.516,0,0,0-37.581-1649.769Z" fill="#fff"/>
        <path d="M-27.629-1647.608v-5.489a1.255,1.255,0,0,0-.376-.92,1.255,1.255,0,0,0-.92-.376h-.992a1.252,1.252,0,0,0-.92.376,1.251,1.251,0,0,0-.376.92v5.489h-2.56v-6a2.427,2.427,0,0,1,.335-1.248,2.507,2.507,0,0,1,.913-.913,2.439,2.439,0,0,1,1.248-.335h3.712a2.478,2.478,0,0,1,1.264.335,2.494,2.494,0,0,1,.911.913,2.429,2.429,0,0,1,.337,1.248v6Z" fill="#fff"/>
        <path d="M-14.189-1656.1v8.5H-16.75v-.449a6.474,6.474,0,0,1-2.368.449h-2.608a2.017,2.017,0,0,1-1.04-.281,2.079,2.079,0,0,1-.76-.759,2.036,2.036,0,0,1-.28-1.04v-4.336a2.035,2.035,0,0,1,.28-1.04,2.075,2.075,0,0,1,.76-.76,2.026,2.026,0,0,1,1.04-.28h2.592a6.6,6.6,0,0,1,2.384.448v-.448Zm-2.561,6.335v-4.175a6.516,6.516,0,0,0-2.384-.449h-.816a1.254,1.254,0,0,0-.92.376,1.251,1.251,0,0,0-.376.92v2.481a1.251,1.251,0,0,0,.376.92,1.25,1.25,0,0,0,.92.376h.816A6.516,6.516,0,0,0-16.75-1649.769Z" fill="#fff"/>
        <path d="M-3.31-1656.1v8.32a2.627,2.627,0,0,1-.359,1.351,2.745,2.745,0,0,1-.977.985A2.588,2.588,0,0,1-6-1645.08h-6.575v-1.729h5.712a.956.956,0,0,0,.7-.288.935.935,0,0,0,.287-.687v-1.328a8.8,8.8,0,0,1-3.024.607h-1.967a2.029,2.029,0,0,1-1.04-.279,2.064,2.064,0,0,1-.761-.769,2.075,2.075,0,0,1-.279-1.048v-3.423a2.035,2.035,0,0,1,.279-1.04,2.07,2.07,0,0,1,.761-.76,2.021,2.021,0,0,1,1.04-.28H-8.91a9.253,9.253,0,0,1,3.04.591v-.591Zm-4.96,5.872a11.084,11.084,0,0,0,2.4-.7v-2.736a12.109,12.109,0,0,0-2.4-.72h-.815a1.264,1.264,0,0,0-.913.376,1.242,1.242,0,0,0-.383.92v1.569a1.242,1.242,0,0,0,.383.92,1.26,1.26,0,0,0,.913.376Z" fill="#fff"/>
        <path d="M4.979-1656.1a1.62,1.62,0,0,1,1.191.488,1.617,1.617,0,0,1,.489,1.191v1.872a1.63,1.63,0,0,1-.489,1.185,1.608,1.608,0,0,1-1.191.5H.5v.575a.937.937,0,0,0,.288.689.938.938,0,0,0,.688.288H6.466v1.712H.626a2.635,2.635,0,0,1-1.352-.361,2.676,2.676,0,0,1-.976-.975,2.642,2.642,0,0,1-.36-1.353v-3.119a2.647,2.647,0,0,1,.36-1.353,2.685,2.685,0,0,1,.976-.975,2.634,2.634,0,0,1,1.352-.36Zm-1.1,3.32a.646.646,0,0,0,.2-.473v-.464a.644.644,0,0,0-.2-.471.646.646,0,0,0-.471-.2H1.475a.936.936,0,0,0-.688.289.935.935,0,0,0-.288.688v.832H3.411A.644.644,0,0,0,3.882-1652.784Z" fill="#fff"/>
      </g>
    </g>
    <g style="isolation: isolate">
      <g style="isolation: isolate">
        <path d="M-81.143-1192.593a2.343,2.343,0,0,0-.84.841,2.218,2.218,0,0,0-.312,1.151v2.96a2.266,2.266,0,0,0,.312,1.16,2.331,2.331,0,0,0,.84.848,2.224,2.224,0,0,0,1.152.312h3.12v-4.464h2.56v6.176h-6.544a3.923,3.923,0,0,1-2.016-.544,3.984,3.984,0,0,1-1.464-1.472,3.966,3.966,0,0,1-.536-2.016v-2.96a3.922,3.922,0,0,1,.536-2.008,4.015,4.015,0,0,1,1.464-1.464,3.921,3.921,0,0,1,2.016-.544h6.544v1.712h-5.68A2.224,2.224,0,0,0-81.143-1192.593Z" fill="#fff"/>
        <path d="M-63.415-1192.1v8.5h-2.56v-.448a6.473,6.473,0,0,1-2.368.448h-2.608a2.026,2.026,0,0,1-1.04-.28,2.082,2.082,0,0,1-.76-.76,2.023,2.023,0,0,1-.28-1.04v-4.336a2.026,2.026,0,0,1,.28-1.04,2.082,2.082,0,0,1,.76-.76,2.035,2.035,0,0,1,1.04-.28h2.592a6.593,6.593,0,0,1,2.384.448v-.448Zm-2.56,6.336v-4.176a6.515,6.515,0,0,0-2.384-.448h-.816a1.254,1.254,0,0,0-.92.376,1.251,1.251,0,0,0-.376.92v2.48a1.25,1.25,0,0,0,.376.92,1.25,1.25,0,0,0,.92.376h.816A6.515,6.515,0,0,0-65.975-1185.769Z" fill="#fff"/>
        <path d="M-49.688-1191.769a2.512,2.512,0,0,1,.913.912,2.434,2.434,0,0,1,.336,1.248v6h-2.577v-5.488a1.251,1.251,0,0,0-.376-.92,1.232,1.232,0,0,0-.9-.376h-.385a1.232,1.232,0,0,0-.9.376,1.251,1.251,0,0,0-.376.92v5.488h-2.577v-5.488a1.251,1.251,0,0,0-.376-.92,1.232,1.232,0,0,0-.9-.376h-.369a1.255,1.255,0,0,0-.92.376,1.254,1.254,0,0,0-.375.92v5.488H-62.04v-6a2.434,2.434,0,0,1,.336-1.248,2.517,2.517,0,0,1,.912-.912,2.435,2.435,0,0,1,1.249-.336h2.4a3.224,3.224,0,0,1,1.9.624,3.157,3.157,0,0,1,1.888-.624h2.416A2.429,2.429,0,0,1-49.688-1191.769Z" fill="#fff"/>
        <path d="M-40.023-1192.1a1.62,1.62,0,0,1,1.191.488,1.62,1.62,0,0,1,.489,1.192v1.872a1.628,1.628,0,0,1-.489,1.184,1.608,1.608,0,0,1-1.191.5H-44.5v.576a.935.935,0,0,0,.288.688.938.938,0,0,0,.688.288h4.991v1.712h-5.839a2.635,2.635,0,0,1-1.353-.36,2.68,2.68,0,0,1-.976-.976,2.638,2.638,0,0,1-.359-1.352v-3.12a2.64,2.64,0,0,1,.359-1.352,2.7,2.7,0,0,1,.976-.976,2.635,2.635,0,0,1,1.353-.36Zm-1.1,3.32a.644.644,0,0,0,.2-.472v-.464a.646.646,0,0,0-.2-.472.644.644,0,0,0-.471-.2h-1.936a.938.938,0,0,0-.688.288.936.936,0,0,0-.288.688v.833h2.912A.645.645,0,0,0-41.12-1188.785Z" fill="#fff"/>
        <path d="M-23.872-1192.633a2.049,2.049,0,0,0-.752.744,1.985,1.985,0,0,0-.28,1.032v.88h8v1.712h-8v.88a1.979,1.979,0,0,0,.28,1.032,2.063,2.063,0,0,0,.752.744,2,2,0,0,0,1.017.273H-16.9v1.727h-6.8a3.642,3.642,0,0,1-1.888-.512,3.79,3.79,0,0,1-1.367-1.376,3.681,3.681,0,0,1-.505-1.888v-3.472a3.683,3.683,0,0,1,.505-1.888,3.737,3.737,0,0,1,1.367-1.368,3.683,3.683,0,0,1,1.888-.5h6.8v1.712h-5.951A2.009,2.009,0,0,0-23.872-1192.633Z" fill="#fff"/>
        <path d="M-9.544-1192.1h2.576l-3.344,8.5h-2.576l-3.28-8.5h2.576l2,5.185Z" fill="#fff"/>
        <path d="M.776-1192.1a1.624,1.624,0,0,1,1.192.488,1.623,1.623,0,0,1,.488,1.192v1.872a1.631,1.631,0,0,1-.488,1.184,1.612,1.612,0,0,1-1.192.5H-3.7v.576a.939.939,0,0,0,.288.688.938.938,0,0,0,.688.288H2.264v1.712h-5.84a2.629,2.629,0,0,1-1.352-.36,2.665,2.665,0,0,1-.976-.976,2.629,2.629,0,0,1-.36-1.352v-3.12a2.632,2.632,0,0,1,.36-1.352,2.679,2.679,0,0,1,.976-.976,2.629,2.629,0,0,1,1.352-.36Zm-1.1,3.32a.647.647,0,0,0,.2-.472v-.464a.649.649,0,0,0-.2-.472.648.648,0,0,0-.472-.2H-2.728a.938.938,0,0,0-.688.288.94.94,0,0,0-.288.688v.833H-.792A.649.649,0,0,0-.32-1188.785Z" fill="#fff"/>
        <path d="M9.848-1183.609v-5.488a1.255,1.255,0,0,0-.376-.92,1.255,1.255,0,0,0-.92-.376H7.56a1.252,1.252,0,0,0-.92.376,1.251,1.251,0,0,0-.376.92v5.488H3.7v-6a2.425,2.425,0,0,1,.336-1.248,2.494,2.494,0,0,1,.912-.912A2.429,2.429,0,0,1,6.2-1192.1H9.912a2.465,2.465,0,0,1,1.264.336,2.492,2.492,0,0,1,.911.912,2.426,2.426,0,0,1,.337,1.248v6Z" fill="#fff"/>
        <path d="M16.839-1186.3a.942.942,0,0,0,.288.688.94.94,0,0,0,.688.288h1.168v1.712H16.951a2.589,2.589,0,0,1-1.287-.336,2.759,2.759,0,0,1-.976-.9,2.555,2.555,0,0,1-.425-1.256v-4.288H13.191v-1.712h1.072v-2.5h2.576v2.5h2.144v1.712H16.839Z" fill="#fff"/>
        <path d="M22.919-1190.393a.79.79,0,0,0-.591.248.829.829,0,0,0-.241.6.812.812,0,0,0,.241.584.79.79,0,0,0,.591.248h2.752a2.491,2.491,0,0,1,1.288.343,2.572,2.572,0,0,1,.928.928,2.485,2.485,0,0,1,.344,1.288,2.454,2.454,0,0,1-.344,1.272,2.572,2.572,0,0,1-.928.928,2.482,2.482,0,0,1-1.288.344H19.848v-1.712h4.975a.818.818,0,0,0,.6-.248.8.8,0,0,0,.248-.584.813.813,0,0,0-.248-.6.814.814,0,0,0-.6-.248H22.071a2.5,2.5,0,0,1-1.279-.345,2.544,2.544,0,0,1-.937-.928,2.465,2.465,0,0,1-.344-1.271,2.5,2.5,0,0,1,.344-1.289,2.55,2.55,0,0,1,.937-.928,2.5,2.5,0,0,1,1.279-.344h5.761v1.712Z" fill="#fff"/>
      </g>
    </g>
    <g style="isolation: isolate">
      <g style="isolation: isolate">
        <path d="M-98.7-1386.168a3.1,3.1,0,0,1,.312,1.376,3.068,3.068,0,0,1-.432,1.592,3.272,3.272,0,0,1-1.16,1.16,3.064,3.064,0,0,1-1.592.432h-7.664v-11.008h7.376a3.061,3.061,0,0,1,1.592.431,3.276,3.276,0,0,1,1.16,1.161,3.059,3.059,0,0,1,.432,1.591,3.063,3.063,0,0,1-.232,1.185,3.381,3.381,0,0,1-.648,1.008A3.057,3.057,0,0,1-98.7-1386.168Zm-7.976-1.792h3.968a1.39,1.39,0,0,0,1.032-.433,1.429,1.429,0,0,0,.424-1.04,1.43,1.43,0,0,0-.424-1.04,1.392,1.392,0,0,0-1.032-.431h-3.968Zm5.288,2.136a1.408,1.408,0,0,0-1.032-.424h-4.256v2.912h4.256a1.405,1.405,0,0,0,1.032-.425,1.4,1.4,0,0,0,.424-1.031A1.4,1.4,0,0,0-101.391-1385.824Z" fill="#fff"/>
        <path d="M-94.551-1390.1v5.488a1.251,1.251,0,0,0,.376.92,1.25,1.25,0,0,0,.92.376h1.008a1.232,1.232,0,0,0,.9-.376,1.251,1.251,0,0,0,.376-.92v-5.488h2.576v6a2.434,2.434,0,0,1-.336,1.248,2.5,2.5,0,0,1-.912.912,2.472,2.472,0,0,1-1.264.336h-3.712a2.444,2.444,0,0,1-1.248-.336,2.5,2.5,0,0,1-.912-.912,2.434,2.434,0,0,1-.336-1.248v-6Z" fill="#fff"/>
        <path d="M-78.2-1390.1v8.32a2.628,2.628,0,0,1-.36,1.351,2.742,2.742,0,0,1-.976.985,2.591,2.591,0,0,1-1.352.368h-5.744v-1.712h4.9a.93.93,0,0,0,.688-.3.964.964,0,0,0,.288-.7v-1.072a6.426,6.426,0,0,1-2.1.351h-1.984a2.035,2.035,0,0,1-1.04-.279,2.054,2.054,0,0,1-.76-.769,2.066,2.066,0,0,1-.28-1.048v-5.5h2.56v4.576a1.24,1.24,0,0,0,.384.92,1.258,1.258,0,0,0,.912.376h.176a6.519,6.519,0,0,0,2.128-.352v-5.52Z" fill="#fff"/>
        <path d="M-76.5-1392.6h2.56v2.5H-76.5Zm0,3.136h2.56v7.857H-76.5Z" fill="#fff"/>
        <path d="M-66.328-1381.608v-5.489a1.251,1.251,0,0,0-.376-.92,1.254,1.254,0,0,0-.92-.376h-.992a1.254,1.254,0,0,0-.92.376,1.251,1.251,0,0,0-.376.92v5.489h-2.56v-6a2.428,2.428,0,0,1,.336-1.248,2.5,2.5,0,0,1,.912-.913,2.444,2.444,0,0,1,1.248-.335h3.712a2.473,2.473,0,0,1,1.264.335,2.5,2.5,0,0,1,.912.913,2.429,2.429,0,0,1,.337,1.248v6Z" fill="#fff"/>
        <path d="M-50.216-1381.608h-2.56v-11.025h2.56Z" fill="#fff"/>
        <path d="M-42.7-1381.608v-5.489a1.255,1.255,0,0,0-.376-.92,1.255,1.255,0,0,0-.92-.376h-.992a1.252,1.252,0,0,0-.92.376,1.251,1.251,0,0,0-.376.92v5.489h-2.56v-6a2.419,2.419,0,0,1,.336-1.248,2.5,2.5,0,0,1,.912-.913,2.444,2.444,0,0,1,1.248-.335h3.712a2.475,2.475,0,0,1,1.264.335,2.494,2.494,0,0,1,.911.913,2.42,2.42,0,0,1,.337,1.248v6Z" fill="#fff"/>
        <path d="M-35.705-1388.393a.79.79,0,0,0-.591.248.831.831,0,0,0-.241.6.81.81,0,0,0,.241.584.79.79,0,0,0,.591.248h2.752a2.482,2.482,0,0,1,1.288.344,2.564,2.564,0,0,1,.928.928,2.482,2.482,0,0,1,.344,1.288,2.45,2.45,0,0,1-.344,1.271,2.574,2.574,0,0,1-.928.929,2.492,2.492,0,0,1-1.288.344h-5.823v-1.712H-33.8a.817.817,0,0,0,.6-.248.8.8,0,0,0,.248-.584.814.814,0,0,0-.248-.6.814.814,0,0,0-.6-.248h-2.752a2.5,2.5,0,0,1-1.28-.345,2.546,2.546,0,0,1-.936-.927,2.469,2.469,0,0,1-.344-1.272,2.492,2.492,0,0,1,.344-1.288,2.558,2.558,0,0,1,.936-.929,2.519,2.519,0,0,1,1.28-.343h5.761v1.711Z" fill="#fff"/>
        <path d="M-26.216-1384.3a.941.941,0,0,0,.288.689.938.938,0,0,0,.688.288h1.168v1.712H-26.1a2.6,2.6,0,0,1-1.288-.336,2.779,2.779,0,0,1-.976-.905,2.553,2.553,0,0,1-.424-1.255v-4.289h-1.072v-1.711h1.072v-2.5h2.576v2.5h2.144v1.711h-2.144Z" fill="#fff"/>
        <path d="M-17.5-1388.393h-1.952a1.236,1.236,0,0,0-.9.376,1.251,1.251,0,0,0-.376.92v5.489h-2.576v-6a2.428,2.428,0,0,1,.336-1.248,2.5,2.5,0,0,1,.912-.913,2.444,2.444,0,0,1,1.248-.335H-17.5Z" fill="#fff"/>
        <path d="M-14.217-1390.1v5.488a1.251,1.251,0,0,0,.376.92,1.25,1.25,0,0,0,.92.376h1.008a1.232,1.232,0,0,0,.9-.376,1.251,1.251,0,0,0,.376-.92v-5.488h2.576v6a2.434,2.434,0,0,1-.336,1.248,2.5,2.5,0,0,1-.912.912,2.472,2.472,0,0,1-1.264.336h-3.712a2.444,2.444,0,0,1-1.248-.336,2.5,2.5,0,0,1-.912-.912,2.434,2.434,0,0,1-.336-1.248v-6Z" fill="#fff"/>
        <path d="M1.911-1381.608H-4.3a2.472,2.472,0,0,1-1.264-.336,2.5,2.5,0,0,1-.912-.912,2.466,2.466,0,0,1-.336-1.264v-3.473a2.459,2.459,0,0,1,.336-1.263,2.5,2.5,0,0,1,.912-.913A2.473,2.473,0,0,1-4.3-1390.1H1.911v1.711H-2.953a1.262,1.262,0,0,0-.912.376,1.24,1.24,0,0,0-.384.92v2.481a1.24,1.24,0,0,0,.384.92,1.257,1.257,0,0,0,.912.376H1.911Z" fill="#fff"/>
        <path d="M6.327-1384.3a.941.941,0,0,0,.288.689.938.938,0,0,0,.688.288H8.471v1.712H6.438a2.6,2.6,0,0,1-1.287-.336,2.77,2.77,0,0,1-.976-.905,2.565,2.565,0,0,1-.425-1.255v-4.289H2.679v-1.711H3.75v-2.5H6.327v2.5H8.471v1.711H6.327Z" fill="#fff"/>
        <path d="M9.463-1392.6h2.56v2.5H9.463Zm0,3.136h2.56v7.857H9.463Z" fill="#fff"/>
        <path d="M20.967-1389.769a2.494,2.494,0,0,1,.911.913,2.42,2.42,0,0,1,.337,1.248v3.5a2.426,2.426,0,0,1-.337,1.248,2.491,2.491,0,0,1-.911.912,2.475,2.475,0,0,1-1.264.336H15.991a2.434,2.434,0,0,1-1.257-.336,2.523,2.523,0,0,1-.9-.912,2.425,2.425,0,0,1-.336-1.248v-3.5a2.419,2.419,0,0,1,.336-1.248,2.526,2.526,0,0,1,.9-.913,2.434,2.434,0,0,1,1.257-.335H19.7A2.475,2.475,0,0,1,20.967-1389.769Zm-1.328,2.672a1.255,1.255,0,0,0-.376-.92,1.255,1.255,0,0,0-.92-.376h-.992a1.252,1.252,0,0,0-.92.376,1.251,1.251,0,0,0-.376.92v2.481a1.251,1.251,0,0,0,.376.92,1.248,1.248,0,0,0,.92.376h.992a1.251,1.251,0,0,0,.92-.376,1.255,1.255,0,0,0,.376-.92Z" fill="#fff"/>
        <path d="M29.606-1381.608v-5.489a1.251,1.251,0,0,0-.376-.92,1.253,1.253,0,0,0-.919-.376h-.993a1.255,1.255,0,0,0-.92.376,1.251,1.251,0,0,0-.376.92v5.489h-2.56v-6a2.428,2.428,0,0,1,.336-1.248,2.5,2.5,0,0,1,.912-.913,2.444,2.444,0,0,1,1.248-.335H29.67a2.479,2.479,0,0,1,1.265.335,2.5,2.5,0,0,1,.911.913,2.429,2.429,0,0,1,.337,1.248v6Z" fill="#fff"/>
      </g>
    </g>
    <g style="isolation: isolate">
      <g style="isolation: isolate">
        <path d="M166.271-1321.609a3.229,3.229,0,0,1,1.168,1.168,3.135,3.135,0,0,1,.432,1.616,3.141,3.141,0,0,1-.432,1.617,3.227,3.227,0,0,1-1.168,1.167,3.1,3.1,0,0,1-1.6.432h-6.912v-1.727h6.048a1.463,1.463,0,0,0,1.064-.433,1.421,1.421,0,0,0,.44-1.056,1.421,1.421,0,0,0-.44-1.056,1.467,1.467,0,0,0-1.064-.432h-3.344a3.07,3.07,0,0,1-1.584-.424,3.16,3.16,0,0,1-1.144-1.152,3.074,3.074,0,0,1-.424-1.576,3.061,3.061,0,0,1,.424-1.584,3.183,3.183,0,0,1,1.144-1.144,3.071,3.071,0,0,1,1.584-.424h6.768v1.712h-5.92a1.39,1.39,0,0,0-1.016.424,1.385,1.385,0,0,0-.424,1.016,1.357,1.357,0,0,0,.424,1.008,1.4,1.4,0,0,0,1.016.416h3.36A3.106,3.106,0,0,1,166.271-1321.609Z" fill="#fff"/>
        <path d="M176.079-1324.1a1.624,1.624,0,0,1,1.192.488,1.623,1.623,0,0,1,.488,1.192v1.872a1.631,1.631,0,0,1-.488,1.184,1.612,1.612,0,0,1-1.192.5H171.6v.576a.939.939,0,0,0,.288.688.938.938,0,0,0,.688.288h4.992v1.712h-5.84a2.631,2.631,0,0,1-1.352-.36,2.665,2.665,0,0,1-.976-.976,2.629,2.629,0,0,1-.36-1.352v-3.12a2.632,2.632,0,0,1,.36-1.352,2.679,2.679,0,0,1,.976-.976,2.631,2.631,0,0,1,1.352-.36Zm-1.1,3.32a.647.647,0,0,0,.2-.472v-.464a.649.649,0,0,0-.2-.472.647.647,0,0,0-.472-.2h-1.936a.938.938,0,0,0-.688.288.94.94,0,0,0-.288.688v.833h2.912A.648.648,0,0,0,174.983-1320.785Z" fill="#fff"/>
        <path d="M182.175-1318.3a.939.939,0,0,0,.288.688.938.938,0,0,0,.688.288h1.168v1.712h-2.032a2.593,2.593,0,0,1-1.288-.336,2.767,2.767,0,0,1-.976-.9,2.554,2.554,0,0,1-.424-1.256v-4.288h-1.072v-1.712H179.6v-2.5h2.576v2.5h2.144v1.712h-2.144Z" fill="#fff"/>
        <path d="M188.254-1318.3a.942.942,0,0,0,.288.688.94.94,0,0,0,.688.288H190.4v1.712h-2.032a2.592,2.592,0,0,1-1.287-.336,2.759,2.759,0,0,1-.976-.9,2.555,2.555,0,0,1-.425-1.256v-4.288h-1.072v-1.712h1.072v-2.5h2.576v2.5H190.4v1.712h-2.144Z" fill="#fff"/>
        <path d="M193.966-1315.609h-2.575V-1326.6h2.575Z" fill="#fff"/>
        <path d="M202.479-1324.1a1.622,1.622,0,0,1,1.191.488,1.623,1.623,0,0,1,.488,1.192v1.872a1.631,1.631,0,0,1-.488,1.184,1.61,1.61,0,0,1-1.191.5H198v.576a.939.939,0,0,0,.288.688.941.941,0,0,0,.689.288h4.991v1.712h-5.84a2.634,2.634,0,0,1-1.352-.36,2.665,2.665,0,0,1-.976-.976,2.639,2.639,0,0,1-.36-1.352v-3.12a2.641,2.641,0,0,1,.36-1.352,2.679,2.679,0,0,1,.976-.976,2.634,2.634,0,0,1,1.352-.36Zm-1.1,3.32a.643.643,0,0,0,.2-.472v-.464a.645.645,0,0,0-.2-.472.645.645,0,0,0-.472-.2h-1.935a.941.941,0,0,0-.689.288.94.94,0,0,0-.288.688v.833h2.912A.646.646,0,0,0,201.382-1320.785Z" fill="#fff"/>
        <path d="M217.694-1315.609h-2.56v-11.024h2.56Z" fill="#fff"/>
        <path d="M225.214-1315.609v-5.488a1.255,1.255,0,0,0-.376-.92,1.255,1.255,0,0,0-.92-.376h-.992a1.251,1.251,0,0,0-.92.376,1.252,1.252,0,0,0-.376.92v5.488h-2.561v-6a2.444,2.444,0,0,1,.336-1.248,2.517,2.517,0,0,1,.912-.912,2.434,2.434,0,0,1,1.248-.336h3.712a2.469,2.469,0,0,1,1.265.336,2.5,2.5,0,0,1,.911.912,2.426,2.426,0,0,1,.337,1.248v6Z" fill="#fff"/>
        <path d="M232.205-1322.393a.793.793,0,0,0-.592.248.833.833,0,0,0-.24.6.815.815,0,0,0,.24.584.794.794,0,0,0,.592.248h2.752a2.493,2.493,0,0,1,1.288.343,2.58,2.58,0,0,1,.928.928,2.5,2.5,0,0,1,.345,1.288,2.464,2.464,0,0,1-.345,1.272,2.58,2.58,0,0,1-.928.928,2.485,2.485,0,0,1-1.288.344h-5.823v-1.712h4.975a.818.818,0,0,0,.6-.248.8.8,0,0,0,.248-.584.813.813,0,0,0-.248-.6.814.814,0,0,0-.6-.248h-2.752a2.508,2.508,0,0,1-1.28-.345,2.546,2.546,0,0,1-.935-.928,2.456,2.456,0,0,1-.345-1.271,2.487,2.487,0,0,1,.345-1.289,2.553,2.553,0,0,1,.935-.928,2.507,2.507,0,0,1,1.28-.344h5.76v1.712Z" fill="#fff"/>
        <path d="M241.693-1318.3a.942.942,0,0,0,.288.688.942.942,0,0,0,.689.288h1.168v1.712h-2.032a2.593,2.593,0,0,1-1.288-.336,2.759,2.759,0,0,1-.976-.9,2.555,2.555,0,0,1-.425-1.256v-4.288h-1.071v-1.712h1.071v-2.5h2.576v2.5h2.145v1.712h-2.145Z" fill="#fff"/>
        <path d="M250.413-1322.393h-1.952a1.232,1.232,0,0,0-.9.376,1.252,1.252,0,0,0-.376.92v5.488H244.6v-6a2.434,2.434,0,0,1,.336-1.248,2.5,2.5,0,0,1,.913-.912,2.429,2.429,0,0,1,1.248-.336h3.311Z" fill="#fff"/>
        <path d="M253.693-1324.1v5.488a1.25,1.25,0,0,0,.376.92,1.248,1.248,0,0,0,.92.376H256a1.232,1.232,0,0,0,.9-.376,1.254,1.254,0,0,0,.376-.92v-5.488h2.577v6a2.434,2.434,0,0,1-.337,1.248,2.486,2.486,0,0,1-.912.912,2.463,2.463,0,0,1-1.264.336h-3.712a2.434,2.434,0,0,1-1.248-.336,2.486,2.486,0,0,1-.912-.912,2.434,2.434,0,0,1-.336-1.248v-6Z" fill="#fff"/>
        <path d="M269.821-1315.609h-6.208a2.46,2.46,0,0,1-1.264-.336,2.486,2.486,0,0,1-.912-.912,2.465,2.465,0,0,1-.336-1.264v-3.472a2.466,2.466,0,0,1,.336-1.264,2.5,2.5,0,0,1,.912-.912,2.46,2.46,0,0,1,1.264-.336h6.208v1.712h-4.864a1.26,1.26,0,0,0-.912.376,1.24,1.24,0,0,0-.384.92v2.48a1.238,1.238,0,0,0,.384.92,1.256,1.256,0,0,0,.912.376h4.864Z" fill="#fff"/>
        <path d="M274.236-1318.3a.942.942,0,0,0,.288.688.942.942,0,0,0,.689.288h1.168v1.712h-2.032a2.593,2.593,0,0,1-1.288-.336,2.759,2.759,0,0,1-.976-.9,2.555,2.555,0,0,1-.425-1.256v-4.288h-1.071v-1.712h1.071v-2.5h2.576v2.5h2.145v1.712h-2.145Z" fill="#fff"/>
        <path d="M277.373-1326.6h2.56v2.5h-2.56Zm0,3.136h2.56v7.856h-2.56Z" fill="#fff"/>
        <path d="M288.877-1323.769a2.5,2.5,0,0,1,.911.912,2.425,2.425,0,0,1,.337,1.248v3.5a2.425,2.425,0,0,1-.337,1.248,2.483,2.483,0,0,1-.911.912,2.469,2.469,0,0,1-1.265.336H283.9a2.415,2.415,0,0,1-1.255-.336,2.513,2.513,0,0,1-.9-.912,2.443,2.443,0,0,1-.336-1.248v-3.5a2.444,2.444,0,0,1,.336-1.248,2.529,2.529,0,0,1,.9-.912,2.415,2.415,0,0,1,1.255-.336h3.712A2.469,2.469,0,0,1,288.877-1323.769Zm-1.328,2.672a1.255,1.255,0,0,0-.376-.92,1.256,1.256,0,0,0-.92-.376h-.992a1.251,1.251,0,0,0-.92.376,1.251,1.251,0,0,0-.376.92v2.48a1.25,1.25,0,0,0,.376.92,1.247,1.247,0,0,0,.92.376h.992a1.252,1.252,0,0,0,.92-.376,1.254,1.254,0,0,0,.376-.92Z" fill="#fff"/>
        <path d="M297.517-1315.609v-5.488a1.255,1.255,0,0,0-.376-.92,1.255,1.255,0,0,0-.92-.376h-.992a1.251,1.251,0,0,0-.92.376,1.252,1.252,0,0,0-.376.92v5.488h-2.561v-6a2.434,2.434,0,0,1,.336-1.248,2.51,2.51,0,0,1,.912-.912,2.434,2.434,0,0,1,1.248-.336h3.712a2.469,2.469,0,0,1,1.265.336,2.5,2.5,0,0,1,.911.912,2.435,2.435,0,0,1,.337,1.248v6Z" fill="#fff"/>
      </g>
    </g>
    <g style="isolation: isolate">
      <g style="isolation: isolate">
        <path d="M-263.926-1122.593a2.343,2.343,0,0,0-.84.841,2.217,2.217,0,0,0-.312,1.151v2.96a2.266,2.266,0,0,0,.312,1.16,2.33,2.33,0,0,0,.84.848,2.224,2.224,0,0,0,1.152.312h3.12v-4.464h2.56v6.176h-6.544a3.92,3.92,0,0,1-2.016-.544,3.984,3.984,0,0,1-1.464-1.472,3.957,3.957,0,0,1-.536-2.016v-2.96a3.912,3.912,0,0,1,.536-2.008,4.015,4.015,0,0,1,1.464-1.464,3.919,3.919,0,0,1,2.016-.544h6.544v1.712h-5.68A2.224,2.224,0,0,0-263.926-1122.593Z" fill="#fff"/>
        <path d="M-246.2-1122.1v8.5h-2.56v-.448a6.473,6.473,0,0,1-2.368.448h-2.608a2.026,2.026,0,0,1-1.04-.28,2.075,2.075,0,0,1-.76-.76,2.023,2.023,0,0,1-.28-1.04v-4.336a2.026,2.026,0,0,1,.28-1.04,2.075,2.075,0,0,1,.76-.76,2.035,2.035,0,0,1,1.04-.28h2.592a6.6,6.6,0,0,1,2.384.448v-.448Zm-2.56,6.336v-4.176a6.515,6.515,0,0,0-2.384-.448h-.816a1.254,1.254,0,0,0-.92.376,1.252,1.252,0,0,0-.376.92v2.48a1.25,1.25,0,0,0,.376.92,1.25,1.25,0,0,0,.92.376h.816A6.515,6.515,0,0,0-248.758-1115.769Z" fill="#fff"/>
        <path d="M-232.471-1121.769a2.5,2.5,0,0,1,.912.912,2.425,2.425,0,0,1,.336,1.248v6H-233.8v-5.488a1.251,1.251,0,0,0-.376-.92,1.234,1.234,0,0,0-.9-.376h-.384a1.236,1.236,0,0,0-.9.376,1.252,1.252,0,0,0-.376.92v5.488h-2.576v-5.488a1.251,1.251,0,0,0-.376-.92,1.234,1.234,0,0,0-.9-.376h-.368a1.254,1.254,0,0,0-.92.376,1.251,1.251,0,0,0-.376.92v5.488h-2.56v-6a2.434,2.434,0,0,1,.336-1.248,2.51,2.51,0,0,1,.912-.912,2.434,2.434,0,0,1,1.248-.336h2.4a3.224,3.224,0,0,1,1.9.624,3.157,3.157,0,0,1,1.888-.624h2.416A2.431,2.431,0,0,1-232.471-1121.769Z" fill="#fff"/>
        <path d="M-222.807-1122.1a1.621,1.621,0,0,1,1.192.488,1.623,1.623,0,0,1,.489,1.192v1.872a1.631,1.631,0,0,1-.489,1.184,1.609,1.609,0,0,1-1.192.5h-4.48v.576a.939.939,0,0,0,.288.688.938.938,0,0,0,.688.288h4.992v1.712h-5.84a2.634,2.634,0,0,1-1.352-.36,2.672,2.672,0,0,1-.976-.976,2.629,2.629,0,0,1-.36-1.352v-3.12a2.632,2.632,0,0,1,.36-1.352,2.687,2.687,0,0,1,.976-.976,2.634,2.634,0,0,1,1.352-.36Zm-1.1,3.32a.647.647,0,0,0,.2-.472v-.464a.649.649,0,0,0-.2-.472.645.645,0,0,0-.472-.2h-1.936a.938.938,0,0,0-.688.288.94.94,0,0,0-.288.688v.833h2.912A.646.646,0,0,0-223.9-1118.785Z" fill="#fff"/>
        <path d="M-201.4-1119.609a3.229,3.229,0,0,1,1.168,1.168,3.135,3.135,0,0,1,.432,1.616,3.141,3.141,0,0,1-.432,1.617,3.227,3.227,0,0,1-1.168,1.167,3.1,3.1,0,0,1-1.6.432h-6.912v-1.727h6.048a1.463,1.463,0,0,0,1.064-.433,1.421,1.421,0,0,0,.44-1.056,1.421,1.421,0,0,0-.44-1.056,1.467,1.467,0,0,0-1.064-.432h-3.344a3.07,3.07,0,0,1-1.584-.424,3.16,3.16,0,0,1-1.144-1.152,3.074,3.074,0,0,1-.424-1.576,3.061,3.061,0,0,1,.424-1.584,3.183,3.183,0,0,1,1.144-1.144,3.071,3.071,0,0,1,1.584-.424h6.768v1.712h-5.92a1.39,1.39,0,0,0-1.016.424,1.385,1.385,0,0,0-.424,1.016,1.357,1.357,0,0,0,.424,1.008,1.4,1.4,0,0,0,1.016.416H-203A3.106,3.106,0,0,1-201.4-1119.609Z" fill="#fff"/>
        <path d="M-195.463-1116.3a.939.939,0,0,0,.288.688.938.938,0,0,0,.688.288h1.168v1.712h-2.033a2.592,2.592,0,0,1-1.287-.336,2.759,2.759,0,0,1-.976-.9,2.565,2.565,0,0,1-.425-1.256v-4.288h-1.071v-1.712h1.071v-2.5h2.577v2.5h2.144v1.712h-2.144Z" fill="#fff"/>
        <path d="M-182.935-1122.1v8.5h-2.56v-.448a6.477,6.477,0,0,1-2.368.448h-2.608a2.023,2.023,0,0,1-1.04-.28,2.075,2.075,0,0,1-.76-.76,2.023,2.023,0,0,1-.28-1.04v-4.336a2.026,2.026,0,0,1,.28-1.04,2.075,2.075,0,0,1,.76-.76,2.033,2.033,0,0,1,1.04-.28h2.592a6.6,6.6,0,0,1,2.384.448v-.448Zm-2.56,6.336v-4.176a6.515,6.515,0,0,0-2.384-.448h-.816a1.252,1.252,0,0,0-.92.376,1.252,1.252,0,0,0-.376.92v2.48a1.25,1.25,0,0,0,.376.92,1.248,1.248,0,0,0,.92.376h.816A6.515,6.515,0,0,0-185.495-1115.769Z" fill="#fff"/>
        <path d="M-178.52-1116.3a.939.939,0,0,0,.289.688.937.937,0,0,0,.688.288h1.168v1.712h-2.033a2.592,2.592,0,0,1-1.287-.336,2.759,2.759,0,0,1-.976-.9,2.565,2.565,0,0,1-.425-1.256v-4.288h-1.071v-1.712h1.071v-2.5h2.576v2.5h2.145v1.712h-2.145Z" fill="#fff"/>
        <path d="M-168.568-1122.1a1.624,1.624,0,0,1,1.192.488,1.623,1.623,0,0,1,.488,1.192v1.872a1.63,1.63,0,0,1-.488,1.184,1.612,1.612,0,0,1-1.192.5h-4.48v.576a.939.939,0,0,0,.288.688.938.938,0,0,0,.688.288h4.992v1.712h-5.84a2.631,2.631,0,0,1-1.352-.36,2.665,2.665,0,0,1-.976-.976,2.629,2.629,0,0,1-.36-1.352v-3.12a2.632,2.632,0,0,1,.36-1.352,2.679,2.679,0,0,1,.976-.976,2.631,2.631,0,0,1,1.352-.36Zm-1.1,3.32a.647.647,0,0,0,.2-.472v-.464a.649.649,0,0,0-.2-.472.647.647,0,0,0-.472-.2h-1.936a.938.938,0,0,0-.688.288.94.94,0,0,0-.288.688v.833h2.912A.648.648,0,0,0-169.664-1118.785Z" fill="#fff"/>
      </g>
    </g>
    <g>
      <path d="M-225-1559.363l2.025,9.467,6.975,6.533-9-2.933-9,2.933,6.975-6.533Z" fill="#bd3454"/>
    </g>
    <g>
      <path d="M-225-1722.609l-2.025-9.467-6.975-6.533,9,2.933,9-2.933-6.975,6.533Z" fill="#bd3454"/>
    </g>
    <g>
      <path d="M-242.972-1561.408l.011,9.68,5.463,7.84-8.192-4.74-9.412,1,8.18-4.938Z" fill="#bd3454"/>
    </g>
    <g>
      <path d="M-209.028-1721.088l-.011-9.68-5.463-7.84,8.192,4.741,9.412-1-8.18,4.939Z" fill="#bd3454"/>
    </g>
    <g>
      <path d="M-208.031-1561.148l3.95,8.838,8.18,4.938-9.412-1-8.192,4.74,5.463-7.84Z" fill="#bd3454"/>
    </g>
    <g>
      <path d="M-241.969-1720.824l-3.95-8.837-8.18-4.939,9.412,1,8.192-4.741-5.463,7.84Z" fill="#bd3454"/>
    </g>
    <g>
      <path d="M-165.374-1584.784l8.3,4.976,9.533-.643-8.282,4.579-3.994,8.579-.019-9.554Z" fill="#bd3454"/>
    </g>
    <g>
      <path d="M-179.127-1573.043l7.093,6.591,9.462,1.347-9.055,2.764-5.687,7.568,1.963-9.354Z" fill="#bd3454"/>
    </g>
    <g>
      <path d="M-155.1-1598.414l9.158,3.14,9.192-2.614-7.149,6.2-2.121,9.225-2.008-9.343Z" fill="#bd3454"/>
    </g>
    <g>
      <path d="M-283.624-1584.788l-5.543,7.938-.021,9.556-3.993-8.582-8.283-4.582,9.535.646Z" fill="#bd3454"/>
    </g>
    <g>
      <path d="M-269.874-1573.035l-3.776,8.915,1.963,9.355-5.687-7.569-9.055-2.763,9.462-1.347Z" fill="#bd3454"/>
    </g>
    <g>
      <path d="M-293.893-1598.415l-7.072,6.611-2.007,9.344-2.121-9.225-7.15-6.2,9.193,2.614Z" fill="#bd3454"/>
    </g>
    <g>
      <path d="M-283.624-1696.429l-8.3-4.976-9.535.646,8.283-4.582,3.993-8.583.021,9.557Z" fill="#bd3454"/>
    </g>
    <g>
      <path d="M-269.871-1708.174l-7.093-6.591-9.462-1.347,9.055-2.764,5.687-7.568-1.963,9.355Z" fill="#bd3454"/>
    </g>
    <g>
      <path d="M-293.892-1682.8l-9.158-3.14-9.192,2.614,7.149-6.2,2.121-9.226,2.008,9.344Z" fill="#bd3454"/>
    </g>
    <g>
      <path d="M-165.374-1696.431l5.543-7.938.021-9.556,3.993,8.582,8.283,4.582-9.535-.646Z" fill="#bd3454"/>
    </g>
    <g>
      <path d="M-179.124-1708.183l3.776-8.916-1.963-9.354,5.687,7.568,9.055,2.764-9.462,1.347Z" fill="#bd3454"/>
    </g>
    <g>
      <path d="M-155.1-1682.8l7.072-6.612,2.007-9.343,2.121,9.225,7.15,6.2-9.193-2.614Z" fill="#bd3454"/>
    </g>
    <g>
      <path d="M-143.3-1639.778l9.467-2.025,6.533-6.975-2.933,9,2.933,9-6.533-6.975Z" fill="#bd3454"/>
    </g>
    <g>
      <path d="M-144.821-1623.806l9.68-.011,7.84-5.463-4.74,8.192,1,9.412-4.938-8.18Z" fill="#bd3454"/>
    </g>
    <g>
      <path d="M-145.084-1656.747l8.838-3.949,4.938-8.181-1,9.412,4.74,8.192-7.84-5.462Z" fill="#bd3454"/>
    </g>
    <g>
      <path d="M-306.07-1643.109l-9.466,2.025-6.534,6.975,2.934-9-2.934-9,6.534,6.975Z" fill="#bd3454"/>
    </g>
    <g>
      <path d="M-304.548-1627.14l-8.837,3.95-4.939,8.18,1-9.412-4.741-8.192,7.841,5.463Z" fill="#bd3454"/>
    </g>
    <g>
      <path d="M-304.289-1660.081l-9.68.012-7.84,5.462,4.741-8.191-1-9.413,4.938,8.181Z" fill="#bd3454"/>
    </g>
    <g>
      <g>
        <path d="M-224.5-1728.609h0a87.5,87.5,0,0,1,87.5,87.5h0a87.5,87.5,0,0,1-87.5,87.5h0a87.5,87.5,0,0,1-87.5-87.5h0A87.5,87.5,0,0,1-224.5-1728.609Z" fill="none"/>
      </g>
      <g>
        <path d="M-224.5-1553.609a87.6,87.6,0,0,1-87.5-87.5,87.6,87.6,0,0,1,87.5-87.5,87.6,87.6,0,0,1,87.5,87.5A87.6,87.6,0,0,1-224.5-1553.609Zm0-174a86.6,86.6,0,0,0-86.5,86.5,86.6,86.6,0,0,0,86.5,86.5,86.6,86.6,0,0,0,86.5-86.5A86.6,86.6,0,0,0-224.5-1727.609Z" fill="#bd3454"/>
      </g>
    </g>
    <g>
      <g>
        <rect width="170" height="250" rx="10" transform="translate(65 -1629.609)" fill="none"/>
      </g>
      <g>
        <path d="M225-1379.609H75a10.011,10.011,0,0,1-10-10v-230a10.011,10.011,0,0,1,10-10H225a10.011,10.011,0,0,1,10,10v230A10.011,10.011,0,0,1,225-1379.609Zm-150-249a9.011,9.011,0,0,0-9,9v230a9.01,9.01,0,0,0,9,9H225a9.01,9.01,0,0,0,9-9v-230a9.01,9.01,0,0,0-9-9Z" fill="#bd3454"/>
      </g>
    </g>
    <g>
      <g>
        <rect width="170" height="250" rx="10" transform="translate(-309 -1434.609)" fill="none"/>
      </g>
      <g>
        <path d="M-149-1184.609H-299a10.011,10.011,0,0,1-10-10v-230a10.011,10.011,0,0,1,10-10h150a10.011,10.011,0,0,1,10,10v230A10.011,10.011,0,0,1-149-1184.609Zm-150-249a9.011,9.011,0,0,0-9,9v230a9.01,9.01,0,0,0,9,9h150a9.01,9.01,0,0,0,9-9v-230a9.011,9.011,0,0,0-9-9Z" fill="#bd3454"/>
      </g>
    </g>
    <g>
      <g>
        <path d="M-679-1726.609h0a155,155,0,0,1,155,155v307a155,155,0,0,1-155,155h0a155,155,0,0,1-155-155v-307A155,155,0,0,1-679-1726.609Z" fill="none"/>
      </g>
      <g>
        <path d="M-679-1109.609c-85.467,0-155-69.533-155-155v-307c0-85.467,69.533-155,155-155s155,69.533,155,155v307C-524-1179.142-593.533-1109.609-679-1109.609Zm0-614c-83.813,0-152,68.187-152,152v307c0,83.813,68.187,152,152,152s152-68.187,152-152v-307C-527-1655.422-595.187-1723.609-679-1723.609Z" fill="#bd3454"/>
      </g>
    </g>
    <g>
      <path d="M93.288-1617.677a21.429,21.429,0,0,1-3.552,4.832,69.5,69.5,0,0,1-6.394,5.671s-3.535,2.566-3.473,5.546.652,5.692,4.534,6.852a7.556,7.556,0,0,0,6.763-1.357,6.234,6.234,0,0,1-.96,2.628,13.622,13.622,0,0,1-2.449,2.582h11.1a16.327,16.327,0,0,1-2.366-2.582,8.661,8.661,0,0,1-1.2-2.628s4.5,2.706,7.865.88,3.846-3.394,3.846-6.374-3.846-5.546-3.846-5.546a77.651,77.651,0,0,1-6.194-5.671A26.33,26.33,0,0,1,93.288-1617.677Z" fill="#bd3454"/>
    </g>
    <g>
      <path d="M212.288-1391.355a21.428,21.428,0,0,0-3.552-4.832,69.642,69.642,0,0,0-6.394-5.671s-3.535-2.566-3.473-5.546.652-5.692,4.534-6.852a7.556,7.556,0,0,1,6.763,1.357,6.234,6.234,0,0,0-.96-2.628,13.622,13.622,0,0,0-2.449-2.582h11.1a16.322,16.322,0,0,0-2.366,2.582,8.671,8.671,0,0,0-1.2,2.628s4.5-2.706,7.865-.88,3.846,3.394,3.846,6.374-3.846,5.546-3.846,5.546a77.652,77.652,0,0,0-6.194,5.671A26.364,26.364,0,0,0,212.288-1391.355Z" fill="#bd3454"/>
    </g>
    <g>
      <path d="M-282.048-1415.414s.9-6.881,7.208-6.947,6.7,6.947,6.7,6.947,1.277,4.842-3.948,11.251-9.962,8.554-9.962,8.554-4.473-1.913-9.816-8.554-3.979-11.251-3.979-11.251.738-6.9,6.874-6.947S-282.048-1415.414-282.048-1415.414Z" fill="#bd3454"/>
    </g>
    <g>
      <path d="M-162.571-1201.556s.9,6.88,7.208,6.946,6.7-6.946,6.7-6.946,1.276-4.843-3.948-11.251-9.962-8.555-9.962-8.555-4.474,1.913-9.817,8.555-3.978,11.251-3.978,11.251.737,6.9,6.874,6.946S-162.571-1201.556-162.571-1201.556Z" fill="#bd3454"/>
    </g>
    <g>
      <g>
        <path d="M-479-1517.609h0a6,6,0,0,1,6,6h0a6,6,0,0,1-6,6h0a6,6,0,0,1-6-6h0A6,6,0,0,1-479-1517.609Z" fill="#2a2c36"/>
      </g>
      <g>
        <path d="M-479-1505.609a6.006,6.006,0,0,1-6-6,6.007,6.007,0,0,1,6-6,6.007,6.007,0,0,1,6,6A6.006,6.006,0,0,1-479-1505.609Zm0-10a4,4,0,0,0-4,4,4,4,0,0,0,4,4,4,4,0,0,0,4-4A4,4,0,0,0-479-1515.609Z" fill="#bd3454"/>
      </g>
    </g>
    <g>
      <g>
        <path d="M-479-1503.609h0a6,6,0,0,1,6,6h0a6,6,0,0,1-6,6h0a6,6,0,0,1-6-6h0A6,6,0,0,1-479-1503.609Z" fill="#2a2c36"/>
      </g>
      <g>
        <path d="M-479-1491.609a6.006,6.006,0,0,1-6-6,6.007,6.007,0,0,1,6-6,6.007,6.007,0,0,1,6,6A6.006,6.006,0,0,1-479-1491.609Zm0-10a4,4,0,0,0-4,4,4,4,0,0,0,4,4,4,4,0,0,0,4-4A4,4,0,0,0-479-1501.609Z" fill="#bd3454"/>
      </g>
    </g>
    <g>
      <g>
        <path d="M-107-1653.609h0a6,6,0,0,1,6,6h0a6,6,0,0,1-6,6h0a6,6,0,0,1-6-6h0A6,6,0,0,1-107-1653.609Z" fill="#2a2c36"/>
      </g>
      <g>
        <path d="M-107-1641.609a6.006,6.006,0,0,1-6-6,6.007,6.007,0,0,1,6-6,6.007,6.007,0,0,1,6,6A6.006,6.006,0,0,1-107-1641.609Zm0-10a4,4,0,0,0-4,4,4,4,0,0,0,4,4,4,4,0,0,0,4-4A4,4,0,0,0-107-1651.609Z" fill="#bd3454"/>
      </g>
    </g>
    <g>
      <g>
        <path d="M-107-1639.609h0a6,6,0,0,1,6,6h0a6,6,0,0,1-6,6h0a6,6,0,0,1-6-6h0A6,6,0,0,1-107-1639.609Z" fill="#2a2c36"/>
      </g>
      <g>
        <path d="M-107-1627.609a6.006,6.006,0,0,1-6-6,6.007,6.007,0,0,1,6-6,6.007,6.007,0,0,1,6,6A6.006,6.006,0,0,1-107-1627.609Zm0-10a4,4,0,0,0-4,4,4,4,0,0,0,4,4,4,4,0,0,0,4-4A4,4,0,0,0-107-1637.609Z" fill="#bd3454"/>
      </g>
    </g>
    <g>
      <g>
        <path d="M-116-1648.609h0a8,8,0,0,1,8,8h0a8,8,0,0,1-8,8h0a8,8,0,0,1-8-8h0A8,8,0,0,1-116-1648.609Z" fill="#2a2c36"/>
      </g>
      <g>
        <path d="M-116-1632.609a8.009,8.009,0,0,1-8-8,8.009,8.009,0,0,1,8-8,8.009,8.009,0,0,1,8,8A8.009,8.009,0,0,1-116-1632.609Zm0-14a6.007,6.007,0,0,0-6,6,6.006,6.006,0,0,0,6,6,6.006,6.006,0,0,0,6-6A6.007,6.007,0,0,0-116-1646.609Z" fill="#bd3454"/>
      </g>
    </g>
    <g>
      <g>
        <path d="M-488-1512.609h0a8,8,0,0,1,8,8h0a8,8,0,0,1-8,8h0a8,8,0,0,1-8-8h0A8,8,0,0,1-488-1512.609Z" fill="#2a2c36"/>
      </g>
      <g>
        <path d="M-488-1496.609a8.009,8.009,0,0,1-8-8,8.009,8.009,0,0,1,8-8,8.009,8.009,0,0,1,8,8A8.009,8.009,0,0,1-488-1496.609Zm0-14a6.007,6.007,0,0,0-6,6,6.006,6.006,0,0,0,6,6,6.006,6.006,0,0,0,6-6A6.007,6.007,0,0,0-488-1510.609Z" fill="#bd3454"/>
      </g>
    </g>
    <g>
      <g>
        <rect width="24.095" height="30.804" rx="5.018" transform="translate(-796.031 -1326.338) rotate(30)" fill="#2a2c36"/>
        <path d="M-792.413-1288.447a5.987,5.987,0,0,1-3-.809l-12.176-7.03a6.025,6.025,0,0,1-2.2-8.22l10.385-17.986a5.976,5.976,0,0,1,3.654-2.8,5.977,5.977,0,0,1,4.566.6l12.176,7.03a6.025,6.025,0,0,1,2.2,8.221l-10.384,17.985a5.979,5.979,0,0,1-3.654,2.8A6.054,6.054,0,0,1-792.413-1288.447Zm-1.775-35.056a4.027,4.027,0,0,0-1.047.139,3.992,3.992,0,0,0-2.439,1.872l-10.384,17.986a4.022,4.022,0,0,0,1.47,5.488l12.176,7.03a4,4,0,0,0,3.049.4,3.993,3.993,0,0,0,2.44-1.873l10.384-17.985a4.023,4.023,0,0,0-1.471-5.489l-12.176-7.029A3.99,3.99,0,0,0-794.188-1323.5Z" fill="#bd3454"/>
      </g>
      <g>
        <rect width="23.766" height="30.804" rx="5.018" transform="translate(-817.065 -1329.768)" fill="#2a2c36"/>
        <path d="M-798.316-1297.965h-13.731a6.025,6.025,0,0,1-6.018-6.017v-20.768a6.026,6.026,0,0,1,6.018-6.019h13.731a6.025,6.025,0,0,1,6.017,6.019v20.768A6.025,6.025,0,0,1-798.316-1297.965Zm-13.731-30.8a4.024,4.024,0,0,0-4.018,4.019v20.768a4.022,4.022,0,0,0,4.018,4.017h13.731a4.022,4.022,0,0,0,4.017-4.017v-20.768a4.023,4.023,0,0,0-4.017-4.019Z" fill="#bd3454"/>
      </g>
      <g>
        <path d="M-805.244-1321.225a10.133,10.133,0,0,1-1.52,2.277,30.772,30.772,0,0,1-2.735,2.673,3.978,3.978,0,0,0-1.485,2.614c.027,1.4.279,2.682,1.939,3.229a3,3,0,0,0,2.893-.639,3.134,3.134,0,0,1-.411,1.238,6.191,6.191,0,0,1-1.047,1.217h4.747a7.438,7.438,0,0,1-1.012-1.217,4.315,4.315,0,0,1-.513-1.238s1.925,1.275,3.364.414a2.847,2.847,0,0,0,1.645-3c0-1.4-1.645-2.613-1.645-2.613a34.62,34.62,0,0,1-2.649-2.673A12.319,12.319,0,0,1-805.244-1321.225Z" fill="#bd3454"/>
      </g>
      <g>
        <path d="M-783.319-1308.723h0l-2.811,1-.046.017-2.422,1.011.237-2.614,0-.049.107-2.98,2.811-1,.046-.017,2.423-1.012-.238,2.615,0,.049Z" fill="#bd3454"/>
      </g>
    </g>
    <g>
      <g>
        <rect width="24.095" height="30.804" rx="5.018" transform="translate(-796.031 -1518.338) rotate(30)" fill="#2a2c36"/>
        <path d="M-792.413-1480.447a5.987,5.987,0,0,1-3-.809l-12.176-7.03a6.025,6.025,0,0,1-2.2-8.22l10.385-17.986a5.976,5.976,0,0,1,3.654-2.8,5.977,5.977,0,0,1,4.566.6l12.176,7.03a6.025,6.025,0,0,1,2.2,8.221l-10.384,17.985a5.979,5.979,0,0,1-3.654,2.8A6.054,6.054,0,0,1-792.413-1480.447Zm-1.775-35.056a4.027,4.027,0,0,0-1.047.139,3.992,3.992,0,0,0-2.439,1.872l-10.384,17.986a4.022,4.022,0,0,0,1.47,5.488l12.176,7.03a4,4,0,0,0,3.049.4,3.993,3.993,0,0,0,2.44-1.873l10.384-17.985a4.023,4.023,0,0,0-1.471-5.489l-12.176-7.029A3.99,3.99,0,0,0-794.188-1515.5Z" fill="#bd3454"/>
      </g>
      <g>
        <rect width="23.766" height="30.804" rx="5.018" transform="translate(-817.065 -1521.768)" fill="#2a2c36"/>
        <path d="M-798.316-1489.965h-13.731a6.025,6.025,0,0,1-6.018-6.017v-20.768a6.026,6.026,0,0,1,6.018-6.019h13.731a6.025,6.025,0,0,1,6.017,6.019v20.768A6.025,6.025,0,0,1-798.316-1489.965Zm-13.731-30.8a4.024,4.024,0,0,0-4.018,4.019v20.768a4.022,4.022,0,0,0,4.018,4.017h13.731a4.022,4.022,0,0,0,4.017-4.017v-20.768a4.023,4.023,0,0,0-4.017-4.019Z" fill="#bd3454"/>
      </g>
      <g>
        <path d="M-805.244-1513.225a10.133,10.133,0,0,1-1.52,2.277,30.772,30.772,0,0,1-2.735,2.673,3.978,3.978,0,0,0-1.485,2.614c.027,1.4.279,2.682,1.939,3.229a3,3,0,0,0,2.893-.639,3.134,3.134,0,0,1-.411,1.238,6.191,6.191,0,0,1-1.047,1.217h4.747a7.438,7.438,0,0,1-1.012-1.217,4.315,4.315,0,0,1-.513-1.238s1.925,1.275,3.364.414a2.847,2.847,0,0,0,1.645-3c0-1.4-1.645-2.613-1.645-2.613a34.62,34.62,0,0,1-2.649-2.673A12.319,12.319,0,0,1-805.244-1513.225Z" fill="#bd3454"/>
      </g>
      <g>
        <path d="M-783.319-1500.723h0l-2.811,1-.046.017-2.422,1.011.237-2.614,0-.049.107-2.98,2.811-1,.046-.017,2.423-1.012-.238,2.615,0,.049Z" fill="#bd3454"/>
      </g>
    </g>
    <g>
      <g>
        <rect width="24.095" height="30.804" rx="5.018" transform="translate(-562.152 -1326.338) rotate(30)" fill="#2a2c36"/>
        <path d="M-558.533-1288.447a5.987,5.987,0,0,1-3-.809l-12.176-7.03a6.024,6.024,0,0,1-2.2-8.22l10.384-17.986a5.981,5.981,0,0,1,3.654-2.8,5.979,5.979,0,0,1,4.567.6l12.176,7.03a6.025,6.025,0,0,1,2.2,8.221l-10.384,17.985a5.981,5.981,0,0,1-3.654,2.8A6.053,6.053,0,0,1-558.533-1288.447Zm-1.776-35.056a4.025,4.025,0,0,0-1.046.139,3.99,3.99,0,0,0-2.439,1.872l-10.384,17.986a4.022,4.022,0,0,0,1.47,5.488l12.176,7.03a3.994,3.994,0,0,0,3.049.4,3.992,3.992,0,0,0,2.44-1.873l10.383-17.985a4.022,4.022,0,0,0-1.47-5.489l-12.176-7.029A3.99,3.99,0,0,0-560.309-1323.5Z" fill="#bd3454"/>
      </g>
      <g>
        <rect width="23.766" height="30.804" rx="5.018" transform="translate(-583.185 -1329.768)" fill="#2a2c36"/>
        <path d="M-564.437-1297.965h-13.73a6.025,6.025,0,0,1-6.018-6.017v-20.768a6.026,6.026,0,0,1,6.018-6.019h13.73a6.026,6.026,0,0,1,6.018,6.019v20.768A6.025,6.025,0,0,1-564.437-1297.965Zm-13.73-30.8a4.024,4.024,0,0,0-4.018,4.019v20.768a4.022,4.022,0,0,0,4.018,4.017h13.73a4.022,4.022,0,0,0,4.018-4.017v-20.768a4.023,4.023,0,0,0-4.018-4.019Z" fill="#bd3454"/>
      </g>
      <g>
        <path d="M-571.365-1321.225a10.1,10.1,0,0,1-1.519,2.277,30.905,30.905,0,0,1-2.735,2.673,3.978,3.978,0,0,0-1.485,2.614c.027,1.4.278,2.682,1.939,3.229a3,3,0,0,0,2.893-.639,3.134,3.134,0,0,1-.411,1.238,6.191,6.191,0,0,1-1.047,1.217h4.747a7.438,7.438,0,0,1-1.012-1.217,4.285,4.285,0,0,1-.513-1.238s1.924,1.275,3.364.414a2.847,2.847,0,0,0,1.645-3c0-1.4-1.645-2.613-1.645-2.613a34.821,34.821,0,0,1-2.65-2.673A12.418,12.418,0,0,1-571.365-1321.225Z" fill="#bd3454"/>
      </g>
      <g>
        <path d="M-549.44-1308.723h0l-2.81,1-.046.017-2.423,1.011.238-2.614,0-.049.107-2.98,2.811-1,.046-.017,2.422-1.012-.237,2.615,0,.049Z" fill="#bd3454"/>
      </g>
    </g>
    <g>
      <g>
        <rect width="24.095" height="30.804" rx="5.018" transform="translate(-679.999 -1167.338) rotate(30)" fill="#2a2c36"/>
        <path d="M-676.38-1129.447a5.984,5.984,0,0,1-3-.809l-12.176-7.03a6.024,6.024,0,0,1-2.2-8.22l10.384-17.986a5.981,5.981,0,0,1,3.654-2.8,5.978,5.978,0,0,1,4.567.6l12.175,7.03a5.98,5.98,0,0,1,2.805,3.654,5.983,5.983,0,0,1-.6,4.567l-10.385,17.985a5.976,5.976,0,0,1-3.654,2.8A6.04,6.04,0,0,1-676.38-1129.447Zm-2-2.541a3.994,3.994,0,0,0,3.049.4,3.991,3.991,0,0,0,2.439-1.873l10.384-17.985a4,4,0,0,0,.4-3.049,3.992,3.992,0,0,0-1.873-2.44l-12.175-7.029a3.993,3.993,0,0,0-3.049-.4,3.994,3.994,0,0,0-2.44,1.872l-10.384,17.986a4.022,4.022,0,0,0,1.471,5.488Z" fill="#bd3454"/>
      </g>
      <g>
        <rect width="23.766" height="30.804" rx="5.018" transform="translate(-701.032 -1170.768)" fill="#2a2c36"/>
        <path d="M-682.284-1138.965h-13.731a6.024,6.024,0,0,1-6.017-6.017v-20.768a6.025,6.025,0,0,1,6.017-6.019h13.731a6.026,6.026,0,0,1,6.018,6.019v20.768A6.025,6.025,0,0,1-682.284-1138.965Zm-13.731-30.8a4.023,4.023,0,0,0-4.017,4.019v20.768a4.022,4.022,0,0,0,4.017,4.017h13.731a4.022,4.022,0,0,0,4.018-4.017v-20.768a4.024,4.024,0,0,0-4.018-4.019Z" fill="#bd3454"/>
      </g>
      <g>
        <path d="M-689.212-1162.225a10.13,10.13,0,0,1-1.519,2.277,30.9,30.9,0,0,1-2.735,2.673,3.982,3.982,0,0,0-1.486,2.614c.027,1.4.279,2.682,1.94,3.229a3,3,0,0,0,2.892-.639,3.131,3.131,0,0,1-.41,1.238,6.228,6.228,0,0,1-1.048,1.217h4.748a7.388,7.388,0,0,1-1.012-1.217,4.288,4.288,0,0,1-.514-1.238s1.925,1.275,3.364.414a2.846,2.846,0,0,0,1.645-3c0-1.4-1.645-2.613-1.645-2.613a34.808,34.808,0,0,1-2.649-2.673A12.319,12.319,0,0,1-689.212-1162.225Z" fill="#bd3454"/>
      </g>
      <g>
        <path d="M-667.287-1149.723h0l-2.811,1-.046.017-2.422,1.011.237-2.614a.412.412,0,0,0,0-.049l.108-2.98,2.811-1,.045-.017,2.423-1.012-.237,2.615a.4.4,0,0,0,0,.049Z" fill="#bd3454"/>
      </g>
    </g>
    <g>
      <g>
        <rect width="24.095" height="30.804" rx="5.018" transform="translate(-677.999 -1696.338) rotate(30)" fill="#2a2c36"/>
        <path d="M-674.38-1658.447a5.984,5.984,0,0,1-3-.809l-12.176-7.03a6.024,6.024,0,0,1-2.2-8.22l10.384-17.986a5.981,5.981,0,0,1,3.654-2.8,5.978,5.978,0,0,1,4.567.6l12.175,7.03a5.98,5.98,0,0,1,2.805,3.654,5.983,5.983,0,0,1-.6,4.567l-10.385,17.985a5.976,5.976,0,0,1-3.654,2.8A6.04,6.04,0,0,1-674.38-1658.447Zm-2-2.541a4,4,0,0,0,3.049.4,3.991,3.991,0,0,0,2.439-1.873l10.384-17.985a4,4,0,0,0,.4-3.049,3.992,3.992,0,0,0-1.873-2.44l-12.175-7.029a3.989,3.989,0,0,0-3.049-.4,3.994,3.994,0,0,0-2.44,1.872l-10.384,17.986a4.022,4.022,0,0,0,1.471,5.488Z" fill="#bd3454"/>
      </g>
      <g>
        <rect width="23.766" height="30.804" rx="5.018" transform="translate(-699.032 -1699.768)" fill="#2a2c36"/>
        <path d="M-680.284-1667.965h-13.731a6.024,6.024,0,0,1-6.017-6.017v-20.768a6.025,6.025,0,0,1,6.017-6.019h13.731a6.026,6.026,0,0,1,6.018,6.019v20.768A6.025,6.025,0,0,1-680.284-1667.965Zm-13.731-30.8a4.023,4.023,0,0,0-4.017,4.019v20.768a4.022,4.022,0,0,0,4.017,4.017h13.731a4.022,4.022,0,0,0,4.018-4.017v-20.768a4.024,4.024,0,0,0-4.018-4.019Z" fill="#bd3454"/>
      </g>
      <g>
        <path d="M-687.212-1691.225a10.13,10.13,0,0,1-1.519,2.277,30.9,30.9,0,0,1-2.735,2.673,3.982,3.982,0,0,0-1.486,2.614c.027,1.4.279,2.682,1.94,3.229a3,3,0,0,0,2.892-.639,3.131,3.131,0,0,1-.41,1.238,6.228,6.228,0,0,1-1.048,1.217h4.748a7.388,7.388,0,0,1-1.012-1.217,4.288,4.288,0,0,1-.514-1.238s1.925,1.275,3.364.414a2.846,2.846,0,0,0,1.645-3c0-1.4-1.645-2.613-1.645-2.613a34.808,34.808,0,0,1-2.649-2.673A12.319,12.319,0,0,1-687.212-1691.225Z" fill="#bd3454"/>
      </g>
      <g>
        <path d="M-665.287-1678.723h0l-2.811,1-.046.017-2.422,1.011.237-2.614a.412.412,0,0,0,0-.049l.108-2.98,2.811-1,.046-.017,2.422-1.012-.237,2.615a.4.4,0,0,0,0,.049Z" fill="#bd3454"/>
      </g>
    </g>
    <g>
      <g>
        <rect width="24.095" height="30.804" rx="5.018" transform="translate(-562.152 -1518.338) rotate(30)" fill="#2a2c36"/>
        <path d="M-558.533-1480.447a5.987,5.987,0,0,1-3-.809l-12.176-7.03a6.024,6.024,0,0,1-2.2-8.22l10.384-17.986a5.981,5.981,0,0,1,3.654-2.8,5.979,5.979,0,0,1,4.567.6l12.176,7.03a6.025,6.025,0,0,1,2.2,8.221l-10.384,17.985a5.981,5.981,0,0,1-3.654,2.8A6.053,6.053,0,0,1-558.533-1480.447Zm-1.776-35.056a4.025,4.025,0,0,0-1.046.139,3.99,3.99,0,0,0-2.439,1.872l-10.384,17.986a4.022,4.022,0,0,0,1.47,5.488l12.176,7.03a3.994,3.994,0,0,0,3.049.4,3.992,3.992,0,0,0,2.44-1.873l10.383-17.985a4.022,4.022,0,0,0-1.47-5.489l-12.176-7.029A3.99,3.99,0,0,0-560.309-1515.5Z" fill="#bd3454"/>
      </g>
      <g>
        <rect width="23.766" height="30.804" rx="5.018" transform="translate(-583.185 -1521.768)" fill="#2a2c36"/>
        <path d="M-564.437-1489.965h-13.73a6.025,6.025,0,0,1-6.018-6.017v-20.768a6.026,6.026,0,0,1,6.018-6.019h13.73a6.026,6.026,0,0,1,6.018,6.019v20.768A6.025,6.025,0,0,1-564.437-1489.965Zm-13.73-30.8a4.024,4.024,0,0,0-4.018,4.019v20.768a4.022,4.022,0,0,0,4.018,4.017h13.73a4.022,4.022,0,0,0,4.018-4.017v-20.768a4.023,4.023,0,0,0-4.018-4.019Z" fill="#bd3454"/>
      </g>
      <g>
        <path d="M-571.365-1513.225a10.1,10.1,0,0,1-1.519,2.277,30.905,30.905,0,0,1-2.735,2.673,3.978,3.978,0,0,0-1.485,2.614c.027,1.4.278,2.682,1.939,3.229a3,3,0,0,0,2.893-.639,3.134,3.134,0,0,1-.411,1.238,6.191,6.191,0,0,1-1.047,1.217h4.747a7.438,7.438,0,0,1-1.012-1.217,4.285,4.285,0,0,1-.513-1.238s1.924,1.275,3.364.414a2.847,2.847,0,0,0,1.645-3c0-1.4-1.645-2.613-1.645-2.613a34.821,34.821,0,0,1-2.65-2.673A12.418,12.418,0,0,1-571.365-1513.225Z" fill="#bd3454"/>
      </g>
      <g>
        <path d="M-549.44-1500.723h0l-2.81,1-.046.017-2.423,1.011.238-2.614,0-.049.107-2.98,2.811-1,.046-.017,2.422-1.012-.237,2.615,0,.049Z" fill="#bd3454"/>
      </g>
    </g>
    <g>
      <g>
        <path d="M-689.335-1488.827a16.181,16.181,0,0,1-6.435-1.26,6.631,6.631,0,0,1-1.632-1.083,1.394,1.394,0,0,1-.008-2.236,6.4,6.4,0,0,1,2.883-1.555,18.686,18.686,0,0,1,11.543.244,7.319,7.319,0,0,1,2.106,1.218,1.441,1.441,0,0,1,.012,2.453,7.785,7.785,0,0,1-3.331,1.612A19.235,19.235,0,0,1-689.335-1488.827Z" fill="#bd3454"/>
      </g>
      <g>
        <path d="M-679.735-1512.542a15.9,15.9,0,0,1-6.88-1.421,5.681,5.681,0,0,1-1.187-.8,1.441,1.441,0,0,1,.011-2.451,7.812,7.812,0,0,1,2.356-1.309,18.216,18.216,0,0,1,12.288.236,6.421,6.421,0,0,1,1.875,1.188,1.37,1.37,0,0,1,.009,2.227,6.83,6.83,0,0,1-2.931,1.577A19.043,19.043,0,0,1-679.735-1512.542Z" fill="#bd3454"/>
      </g>
      <g>
        <path d="M-668.926-1503.127a16.329,16.329,0,0,1,6.37,1.111,7.553,7.553,0,0,1,1.814,1.094,1.423,1.423,0,0,1-.013,2.473,7.917,7.917,0,0,1-2.412,1.313,17.89,17.89,0,0,1-12.622-.445,5.336,5.336,0,0,1-1.618-1.18,1.2,1.2,0,0,1,.006-1.854,7.125,7.125,0,0,1,1.863-1.293A15.762,15.762,0,0,1-668.926-1503.127Z" fill="#bd3454"/>
      </g>
      <g>
        <path d="M-688.393-1509.9a15.056,15.056,0,0,0,8.807,2.261,14.971,14.971,0,0,0,8.794-2.264c.237,1.62.095,2.113-1.065,2.921a10.552,10.552,0,0,1-4.542,1.59,19.3,19.3,0,0,1-8.3-.428,13.707,13.707,0,0,1-2.169-.875A2.563,2.563,0,0,1-688.393-1509.9Z" fill="#bd3454"/>
      </g>
      <g>
        <path d="M-677.73-1493.574a15.278,15.278,0,0,0,8.79,2.247,15.3,15.3,0,0,0,8.795-2.237,2.321,2.321,0,0,1-.914,2.808,9.8,9.8,0,0,1-4.1,1.574,19.229,19.229,0,0,1-9.585-.544,10.892,10.892,0,0,1-1.318-.572A2.6,2.6,0,0,1-677.73-1493.574Z" fill="#bd3454"/>
      </g>
      <g>
        <path d="M-670.745-1513.629c.155,1.928-.207,2.568-1.85,3.393a13.356,13.356,0,0,1-4.873,1.278,18.454,18.454,0,0,1-8.256-.9,11.49,11.49,0,0,1-1.206-.565,2.547,2.547,0,0,1-1.459-3.157,15.28,15.28,0,0,0,8.8,2.243A15.158,15.158,0,0,0-670.745-1513.629Z" fill="#bd3454"/>
      </g>
      <g>
        <path d="M-697.889-1489.872c4.106,3.051,13.654,2.976,17.589.013a2.268,2.268,0,0,1-.684,2.618,8.642,8.642,0,0,1-3.882,1.663,19.189,19.189,0,0,1-9.849-.394,8.64,8.64,0,0,1-2.059-.979C-697.949-1487.717-698.095-1488.182-697.889-1489.872Z" fill="#bd3454"/>
      </g>
      <g>
        <path d="M-660.13-1497.28c.208,1.67.084,2.084-1.031,2.886a9.337,9.337,0,0,1-3.8,1.47,19.1,19.1,0,0,1-9.9-.546,10.483,10.483,0,0,1-1.265-.561,2.607,2.607,0,0,1-1.613-3.248,15.182,15.182,0,0,0,8.811,2.252A15.153,15.153,0,0,0-660.13-1497.28Z" fill="#bd3454"/>
      </g>
      <g>
        <path d="M-660.121-1489.883c.2,1.7.058,2.153-1.158,2.974a10.191,10.191,0,0,1-4.241,1.5,19.307,19.307,0,0,1-9.118-.576,9.33,9.33,0,0,1-1.741-.794c-1.33-.772-1.633-1.492-1.371-3.1a15.171,15.171,0,0,0,8.788,2.27A15.257,15.257,0,0,0-660.121-1489.883Z" fill="#bd3454"/>
      </g>
      <g>
        <path d="M-660.111-1486.2c.238,1.743-.127,2.468-1.617,3.273a12.474,12.474,0,0,1-4.424,1.31,19.041,19.041,0,0,1-8.287-.611,9.664,9.664,0,0,1-2.035-.915c-1.27-.765-1.546-1.5-1.269-3.05a15.008,15.008,0,0,0,8.792,2.274A15.05,15.05,0,0,0-660.111-1486.2Z" fill="#bd3454"/>
      </g>
      <g>
        <path d="M-680.238-1486.213c.183,2.033-.367,2.85-2.411,3.663a18.02,18.02,0,0,1-8.077,1.052,13.846,13.846,0,0,1-5.444-1.371,5.855,5.855,0,0,1-.684-.413,2.365,2.365,0,0,1-1.02-2.9,15.012,15.012,0,0,0,8.793,2.261A15.033,15.033,0,0,0-680.238-1486.213Z" fill="#bd3454"/>
      </g>
      <g>
        <path d="M-688.388-1506.183a15.279,15.279,0,0,0,8.8,2.243,15.206,15.206,0,0,0,8.842-2.286v1.885c-.959.165-1.9.283-2.811.492a9.37,9.37,0,0,0-4.614,2.2.783.783,0,0,1-.478.182,17.22,17.22,0,0,1-7.627-1.22,5.615,5.615,0,0,1-1.067-.6C-688.427-1504.081-688.623-1504.488-688.388-1506.183Z" fill="#bd3454"/>
      </g>
      <g>
        <path d="M-688.415-1502.508c2.85,1.93,6.046,2.264,9.353,2.305v2.482c-1-.054-1.967-.071-2.93-.168a12.435,12.435,0,0,1-4.885-1.4C-688.307-1500.086-688.64-1500.778-688.415-1502.508Z" fill="#bd3454"/>
      </g>
      <g>
        <path d="M-688.424-1498.709c.87.412,1.705.884,2.594,1.213a17.841,17.841,0,0,0,6.238.976c.435,0,.591.11.575.564-.034.935-.01,1.871-.01,2.908-1.3-2.325-3.511-2.961-5.765-3.463-1.173-.261-2.385-.345-3.632-.516Z" fill="#bd3454"/>
      </g>
    </g>
  </g>
</svg>
