<svg xmlns="http://www.w3.org/2000/svg" width="1055.593" height="425.417" viewBox="0 0 1055.593 425.417">
  <g transform="translate(428.689)">
    <g transform="translate(0 0)">
      <rect width="199.151" height="69.189" rx="10" fill="#fff"/>
    </g>
    <g>
      <path d="M3063.8-1990.111H2883.35a9.36,9.36,0,0,1-9.35-9.35v-50.489a9.36,9.36,0,0,1,9.35-9.35H3063.8a9.361,9.361,0,0,1,9.35,9.35v50.489A9.361,9.361,0,0,1,3063.8-1990.111ZM2883.35-2056.5a6.553,6.553,0,0,0-6.545,6.545v50.489a6.553,6.553,0,0,0,6.545,6.545H3063.8a6.553,6.553,0,0,0,6.545-6.545v-50.489a6.553,6.553,0,0,0-6.545-6.545Z" transform="translate(-2874 2059.3)" fill="#bb2548"/>
    </g>
  </g>
  <g transform="translate(428.689 356.228)">
    <g transform="translate(0 0)">
      <rect width="199.151" height="69.189" rx="10" fill="#fff"/>
    </g>
    <g>
      <path d="M3063.8-1609.111H2883.35a9.36,9.36,0,0,1-9.35-9.35v-50.489a9.36,9.36,0,0,1,9.35-9.35H3063.8a9.361,9.361,0,0,1,9.35,9.35v50.489A9.361,9.361,0,0,1,3063.8-1609.111Zm-180.451-66.384a6.553,6.553,0,0,0-6.545,6.545v50.489a6.553,6.553,0,0,0,6.545,6.545H3063.8a6.553,6.553,0,0,0,6.545-6.545v-50.489a6.553,6.553,0,0,0-6.545-6.545Z" transform="translate(-2874 1678.3)" fill="#bb2548"/>
    </g>
  </g>
  <g transform="translate(593.713 215.981)">
    <g transform="translate(0 0)">
      <rect width="169" height="69" rx="10" transform="translate(-0.417 0.016)" fill="#fff"/>
    </g>
    <g>
      <path d="M3209.447-1759.111h-149.6a9.361,9.361,0,0,1-9.35-9.35v-50.489a9.361,9.361,0,0,1,9.35-9.35h149.6a9.361,9.361,0,0,1,9.35,9.35v50.489A9.36,9.36,0,0,1,3209.447-1759.111Zm-149.6-66.384a6.553,6.553,0,0,0-6.545,6.545v50.489a6.553,6.553,0,0,0,6.545,6.545h149.6a6.553,6.553,0,0,0,6.545-6.545v-50.489a6.553,6.553,0,0,0-6.545-6.545Z" transform="translate(-3050.5 1828.3)" fill="#bb2548"/>
    </g>
  </g>
  <g transform="translate(867.662 215.981)">
    <g transform="translate(0 0)">
      <rect width="169" height="69" rx="10" transform="translate(-0.366 0.016)" fill="#fff"/>
    </g>
    <g>
      <path d="M3502.447-1759.111h-149.6a9.36,9.36,0,0,1-9.35-9.35v-50.489a9.36,9.36,0,0,1,9.35-9.35h149.6a9.361,9.361,0,0,1,9.35,9.35v50.489A9.36,9.36,0,0,1,3502.447-1759.111Zm-149.6-66.384a6.553,6.553,0,0,0-6.545,6.545v50.489a6.552,6.552,0,0,0,6.545,6.545h149.6a6.553,6.553,0,0,0,6.545-6.545v-50.489a6.553,6.553,0,0,0-6.545-6.545Z" transform="translate(-3343.5 1828.3)" fill="#bb2548"/>
    </g>
  </g>
  <g transform="translate(294.519 215.981)">
    <g transform="translate(0 0)">
      <rect width="169" height="69" rx="10" transform="translate(-0.223 0.016)" fill="#fff"/>
    </g>
    <g>
      <path d="M2889.447-1759.111h-149.6a9.36,9.36,0,0,1-9.35-9.35v-50.489a9.361,9.361,0,0,1,9.35-9.35h149.6a9.361,9.361,0,0,1,9.35,9.35v50.489A9.36,9.36,0,0,1,2889.447-1759.111Zm-149.6-66.384a6.553,6.553,0,0,0-6.545,6.545v50.489a6.553,6.553,0,0,0,6.545,6.545h149.6a6.553,6.553,0,0,0,6.545-6.545v-50.489a6.553,6.553,0,0,0-6.545-6.545Z" transform="translate(-2730.5 1828.3)" fill="#bb2548"/>
    </g>
  </g>
  <g transform="translate(20.57 215.981)">
    <g transform="translate(0 0)">
      <rect width="169" height="69" rx="10" transform="translate(-0.273 0.016)" fill="#fff"/>
    </g>
    <g>
      <path d="M2596.447-1759.111h-149.6a9.361,9.361,0,0,1-9.35-9.35v-50.489a9.361,9.361,0,0,1,9.35-9.35h149.6a9.361,9.361,0,0,1,9.35,9.35v50.489A9.36,9.36,0,0,1,2596.447-1759.111Zm-149.6-66.384a6.553,6.553,0,0,0-6.545,6.545v50.489a6.553,6.553,0,0,0,6.545,6.545h149.6a6.553,6.553,0,0,0,6.545-6.545v-50.489a6.553,6.553,0,0,0-6.545-6.545Z" transform="translate(-2437.5 1828.3)" fill="#bb2548"/>
    </g>
  </g>
  <g transform="translate(573.143 105.653)">
    <g transform="translate(0 0)">
      <rect width="208" height="69" rx="10" transform="translate(0.153 0.343)" fill="#06579d"/>
    </g>
    <g>
      <path d="M3227.651-1877.111h-189.8a9.361,9.361,0,0,1-9.35-9.35v-50.489a9.361,9.361,0,0,1,9.35-9.35h189.8a9.36,9.36,0,0,1,9.35,9.35v50.489A9.36,9.36,0,0,1,3227.651-1877.111Zm-189.8-66.384a6.553,6.553,0,0,0-6.545,6.545v50.489a6.553,6.553,0,0,0,6.545,6.545h189.8a6.553,6.553,0,0,0,6.545-6.545v-50.489a6.553,6.553,0,0,0-6.545-6.545Z" transform="translate(-3028.5 1946.3)"/>
    </g>
  </g>
  <g transform="translate(847.092 105.653)">
    <g transform="translate(0 0)">
      <rect width="208" height="69" rx="10" transform="translate(0.204 0.343)" fill="#25a539"/>
    </g>
    <g>
      <path d="M3520.651-1877.111h-189.8a9.36,9.36,0,0,1-9.35-9.35v-50.489a9.36,9.36,0,0,1,9.35-9.35h189.8a9.36,9.36,0,0,1,9.35,9.35v50.489A9.36,9.36,0,0,1,3520.651-1877.111Zm-189.8-66.384a6.553,6.553,0,0,0-6.545,6.545v50.489a6.553,6.553,0,0,0,6.545,6.545h189.8a6.552,6.552,0,0,0,6.545-6.545v-50.489a6.553,6.553,0,0,0-6.545-6.545Z" transform="translate(-3321.5 1946.3)"/>
    </g>
  </g>
  <g transform="translate(273.949 105.653)">
    <g transform="translate(0 0)">
      <rect width="208" height="69" rx="10" transform="translate(0.347 0.343)" fill="#25a539"/>
    </g>
    <g>
      <path d="M2907.651-1877.111h-189.8a9.36,9.36,0,0,1-9.35-9.35v-50.489a9.36,9.36,0,0,1,9.35-9.35h189.8a9.36,9.36,0,0,1,9.35,9.35v50.489A9.36,9.36,0,0,1,2907.651-1877.111Zm-189.8-66.384a6.553,6.553,0,0,0-6.545,6.545v50.489a6.553,6.553,0,0,0,6.545,6.545h189.8a6.552,6.552,0,0,0,6.545-6.545v-50.489a6.553,6.553,0,0,0-6.545-6.545Z" transform="translate(-2708.5 1946.3)"/>
    </g>
  </g>
  <g transform="translate(0 105.653)">
    <g transform="translate(0 0)">
      <rect width="208" height="69" rx="10" transform="translate(0.296 0.343)" fill="#ff7f00"/>
    </g>
    <g>
      <path d="M2614.651-1877.111h-189.8a9.361,9.361,0,0,1-9.35-9.35v-50.489a9.361,9.361,0,0,1,9.35-9.35h189.8a9.36,9.36,0,0,1,9.35,9.35v50.489A9.36,9.36,0,0,1,2614.651-1877.111Zm-189.8-66.384a6.553,6.553,0,0,0-6.545,6.545v50.489a6.552,6.552,0,0,0,6.545,6.545h189.8a6.553,6.553,0,0,0,6.545-6.545v-50.489a6.553,6.553,0,0,0-6.545-6.545Z" transform="translate(-2415.5 1946.3)"/>
    </g>
  </g>
  <g transform="translate(376.797 35.062)">
    <rect width="2.805" height="71.526"/>
  </g>
  <g transform="translate(102.848 34.595)">
    <rect width="2.805" height="71.526"/>
  </g>
  <g transform="translate(950.408 34.595)">
    <rect width="2.805" height="71.994"/>
  </g>
  <g transform="translate(675.991 34.595)">
    <rect width="2.805" height="71.526"/>
  </g>
  <g transform="translate(377.265 286.092)">
    <rect width="2.805" height="105.185"/>
  </g>
  <g transform="translate(103.315 287.039)">
    <rect width="2.805" height="103.783"/>
  </g>
  <g transform="translate(949.473 287.507)">
    <rect width="2.805" height="104.718"/>
  </g>
  <g transform="translate(676.458 287.039)">
    <rect width="2.805" height="103.783"/>
  </g>
  <g transform="translate(104.248 32.257)">
    <rect width="2.805" height="322.569" transform="translate(0 2.805) rotate(-89.917)"/>
  </g>
  <g transform="translate(103.315 388.952)">
    <rect width="325.373" height="2.805"/>
  </g>
  <g transform="translate(629.24 32.725)">
    <rect width="2.805" height="322.569" transform="translate(0 2.805) rotate(-89.917)"/>
  </g>
  <g transform="translate(629.24 388.952)">
    <rect width="2.805" height="322.569" transform="translate(0 2.805) rotate(-89.917)"/>
  </g>
  <g transform="translate(273.949 105.653)">
    <g transform="translate(0 0)">
      <rect width="208" height="213" rx="10" transform="translate(0.347 0.343)" fill="none"/>
    </g>
    <g>
      <path d="M2907.651-1733.124h-189.8a9.36,9.36,0,0,1-9.35-9.35V-1936.95a9.36,9.36,0,0,1,9.35-9.35h189.8a9.36,9.36,0,0,1,9.35,9.35v194.476A9.36,9.36,0,0,1,2907.651-1733.124Zm-189.8-210.371a6.553,6.553,0,0,0-6.545,6.545v194.476a6.553,6.553,0,0,0,6.545,6.545h189.8a6.552,6.552,0,0,0,6.545-6.545V-1936.95a6.553,6.553,0,0,0-6.545-6.545Z" transform="translate(-2708.5 1946.3)"/>
    </g>
  </g>
  <g transform="translate(0 105.653)">
    <g transform="translate(0 0)">
      <rect width="208" height="213" rx="10" transform="translate(0.296 0.343)" fill="none"/>
    </g>
    <g>
      <path d="M2614.651-1733.124h-189.8a9.361,9.361,0,0,1-9.35-9.35V-1936.95a9.361,9.361,0,0,1,9.35-9.35h189.8a9.36,9.36,0,0,1,9.35,9.35v194.476A9.36,9.36,0,0,1,2614.651-1733.124Zm-189.8-210.371a6.553,6.553,0,0,0-6.545,6.545v194.476a6.552,6.552,0,0,0,6.545,6.545h189.8a6.553,6.553,0,0,0,6.545-6.545V-1936.95a6.553,6.553,0,0,0-6.545-6.545Z" transform="translate(-2415.5 1946.3)"/>
    </g>
  </g>
  <g transform="translate(573.143 105.653)">
    <g transform="translate(0 0)">
      <rect width="208" height="213" rx="10" transform="translate(0.153 0.343)" fill="none"/>
    </g>
    <g>
      <path d="M3227.651-1733.124h-189.8a9.361,9.361,0,0,1-9.35-9.35V-1936.95a9.361,9.361,0,0,1,9.35-9.35h189.8a9.36,9.36,0,0,1,9.35,9.35v194.476A9.36,9.36,0,0,1,3227.651-1733.124Zm-189.8-210.371a6.553,6.553,0,0,0-6.545,6.545v194.476a6.553,6.553,0,0,0,6.545,6.545h189.8a6.553,6.553,0,0,0,6.545-6.545V-1936.95a6.553,6.553,0,0,0-6.545-6.545Z" transform="translate(-3028.5 1946.3)"/>
    </g>
  </g>
  <g transform="translate(847.092 105.653)">
    <g transform="translate(0 0)">
      <rect width="208" height="213" rx="10" transform="translate(0.204 0.343)" fill="none"/>
    </g>
    <g>
      <path d="M3520.651-1733.124h-189.8a9.36,9.36,0,0,1-9.35-9.35V-1936.95a9.36,9.36,0,0,1,9.35-9.35h189.8a9.36,9.36,0,0,1,9.35,9.35v194.476A9.36,9.36,0,0,1,3520.651-1733.124Zm-189.8-210.371a6.553,6.553,0,0,0-6.545,6.545v194.476a6.553,6.553,0,0,0,6.545,6.545h189.8a6.552,6.552,0,0,0,6.545-6.545V-1936.95a6.553,6.553,0,0,0-6.545-6.545Z" transform="translate(-3321.5 1946.3)"/>
    </g>
  </g>
  <g transform="translate(103.315 174.842)">
    <rect width="2.805" height="39.269"/>
  </g>
  <g transform="translate(442.098 26.636)" style="isolation: isolate">
    <g style="isolation: isolate">
      <path d="M2893.571-2027.973a3.283,3.283,0,0,0-1.178,1.177,3.109,3.109,0,0,0-.438,1.616v4.151a3.174,3.174,0,0,0,.438,1.628,3.253,3.253,0,0,0,1.178,1.188,3.109,3.109,0,0,0,1.616.438h4.375v-6.26h3.59v8.661h-9.179a5.482,5.482,0,0,1-2.826-.763,5.6,5.6,0,0,1-2.053-2.064,5.545,5.545,0,0,1-.752-2.827v-4.151a5.485,5.485,0,0,1,.752-2.816,5.63,5.63,0,0,1,2.053-2.053,5.489,5.489,0,0,1,2.826-.763h9.179v2.4h-7.966A3.111,3.111,0,0,0,2893.571-2027.973Z" transform="translate(-2888.342 2030.812)"/>
      <path d="M2919.587-2027.044v11.915H2916v-.628a9.071,9.071,0,0,1-3.322.628h-3.657a2.833,2.833,0,0,1-1.458-.393,2.919,2.919,0,0,1-1.067-1.065,2.845,2.845,0,0,1-.392-1.459v-6.081a2.839,2.839,0,0,1,.392-1.458,2.911,2.911,0,0,1,1.067-1.067,2.852,2.852,0,0,1,1.458-.393h3.634a9.29,9.29,0,0,1,3.345.628v-.628Zm-3.589,8.886v-5.857a9.154,9.154,0,0,0-3.345-.628h-1.143a1.757,1.757,0,0,0-1.29.527,1.753,1.753,0,0,0-.529,1.29v3.478a1.751,1.751,0,0,0,.529,1.29,1.753,1.753,0,0,0,1.29.527h1.143A9.154,9.154,0,0,0,2916-2018.158Z" transform="translate(-2889.497 2030.567)"/>
      <path d="M2939.912-2026.573a3.5,3.5,0,0,1,1.279,1.279,3.415,3.415,0,0,1,.471,1.75v8.415h-3.613v-7.7a1.756,1.756,0,0,0-.526-1.29,1.735,1.735,0,0,0-1.269-.527h-.539a1.734,1.734,0,0,0-1.268.527,1.756,1.756,0,0,0-.527,1.29v7.7h-3.612v-7.7a1.757,1.757,0,0,0-.528-1.29,1.732,1.732,0,0,0-1.267-.527H2928a1.756,1.756,0,0,0-1.29.527,1.753,1.753,0,0,0-.527,1.29v7.7h-3.59v-8.415a3.415,3.415,0,0,1,.471-1.75,3.494,3.494,0,0,1,1.278-1.279,3.419,3.419,0,0,1,1.751-.471h3.366a4.525,4.525,0,0,1,2.669.876,4.429,4.429,0,0,1,2.648-.876h3.389A3.41,3.41,0,0,1,2939.912-2026.573Z" transform="translate(-2890.569 2030.567)"/>
      <path d="M2954.927-2027.044a2.273,2.273,0,0,1,1.671.684,2.274,2.274,0,0,1,.686,1.673v2.625a2.285,2.285,0,0,1-.686,1.661,2.254,2.254,0,0,1-1.671.695h-6.283v.808a1.32,1.32,0,0,0,.4.965,1.32,1.32,0,0,0,.966.4h7v2.4h-8.191a3.68,3.68,0,0,1-1.9-.5,3.747,3.747,0,0,1-1.369-1.369,3.68,3.68,0,0,1-.5-1.9v-4.376a3.683,3.683,0,0,1,.5-1.9,3.754,3.754,0,0,1,1.369-1.369,3.688,3.688,0,0,1,1.9-.5Zm-1.537,4.657a.912.912,0,0,0,.281-.662v-.652a.91.91,0,0,0-.281-.662.9.9,0,0,0-.662-.28h-2.715a1.32,1.32,0,0,0-.966.4,1.321,1.321,0,0,0-.4.965v1.167h4.084A.9.9,0,0,0,2953.389-2022.387Z" transform="translate(-2892.029 2030.567)"/>
      <path d="M2987.89-2027.044v11.915h-3.59v-.628a9.068,9.068,0,0,1-3.321.628h-3.658a2.829,2.829,0,0,1-1.457-.393,2.915,2.915,0,0,1-1.067-1.065,2.848,2.848,0,0,1-.393-1.459v-6.081a2.842,2.842,0,0,1,.393-1.458,2.906,2.906,0,0,1,1.067-1.067,2.848,2.848,0,0,1,1.457-.393h3.635a9.285,9.285,0,0,1,3.344.628v-.628Zm-3.59,8.886v-5.857a9.146,9.146,0,0,0-3.344-.628h-1.145a1.756,1.756,0,0,0-1.289.527,1.753,1.753,0,0,0-.528,1.29v3.478a1.752,1.752,0,0,0,.528,1.29,1.752,1.752,0,0,0,1.289.527h1.145A9.146,9.146,0,0,0,2984.3-2018.158Z" transform="translate(-2893.938 2030.567)"/>
      <path d="M3002.93-2015.129h-8.706a3.456,3.456,0,0,1-1.774-.471,3.5,3.5,0,0,1-1.279-1.279,3.454,3.454,0,0,1-.471-1.772v-4.869a3.456,3.456,0,0,1,.471-1.774,3.5,3.5,0,0,1,1.279-1.279,3.456,3.456,0,0,1,1.774-.471h8.706v2.4h-6.822a1.77,1.77,0,0,0-1.279.527,1.738,1.738,0,0,0-.538,1.29v3.478a1.736,1.736,0,0,0,.538,1.29,1.766,1.766,0,0,0,1.279.527h6.822Z" transform="translate(-2894.997 2030.567)"/>
      <path d="M3017.882-2015.129h-8.707a3.462,3.462,0,0,1-1.774-.471,3.494,3.494,0,0,1-1.278-1.279,3.456,3.456,0,0,1-.471-1.772v-4.869a3.458,3.458,0,0,1,.471-1.774,3.494,3.494,0,0,1,1.278-1.279,3.462,3.462,0,0,1,1.774-.471h8.707v2.4h-6.822a1.768,1.768,0,0,0-1.279.527,1.738,1.738,0,0,0-.539,1.29v3.478a1.736,1.736,0,0,0,.539,1.29,1.764,1.764,0,0,0,1.279.527h6.822Z" transform="translate(-2895.969 2030.567)"/>
      <path d="M3031.083-2026.573a3.5,3.5,0,0,1,1.279,1.279,3.411,3.411,0,0,1,.471,1.75v4.914a3.411,3.411,0,0,1-.471,1.75,3.5,3.5,0,0,1-1.279,1.279,3.457,3.457,0,0,1-1.773.471H3024.1a3.4,3.4,0,0,1-1.762-.471,3.534,3.534,0,0,1-1.268-1.279,3.414,3.414,0,0,1-.47-1.75v-4.914a3.414,3.414,0,0,1,.47-1.75,3.534,3.534,0,0,1,1.268-1.279,3.4,3.4,0,0,1,1.762-.471h5.206A3.457,3.457,0,0,1,3031.083-2026.573Zm-1.863,3.747a1.759,1.759,0,0,0-.526-1.29,1.761,1.761,0,0,0-1.291-.527h-1.39a1.758,1.758,0,0,0-1.29.527,1.754,1.754,0,0,0-.528,1.29v3.478a1.752,1.752,0,0,0,.528,1.29,1.754,1.754,0,0,0,1.29.527h1.39a1.757,1.757,0,0,0,1.291-.527,1.757,1.757,0,0,0,.526-1.29Z" transform="translate(-2896.942 2030.567)"/>
      <path d="M3039.145-2027.044v7.7a1.754,1.754,0,0,0,.527,1.29,1.755,1.755,0,0,0,1.291.527h1.414a1.728,1.728,0,0,0,1.267-.527,1.754,1.754,0,0,0,.527-1.29v-7.7h3.613v8.415a3.413,3.413,0,0,1-.471,1.75,3.493,3.493,0,0,1-1.278,1.279,3.458,3.458,0,0,1-1.773.471h-5.206a3.408,3.408,0,0,1-1.749-.471,3.5,3.5,0,0,1-1.28-1.279,3.413,3.413,0,0,1-.471-1.75v-8.415Z" transform="translate(-2897.914 2030.567)"/>
      <path d="M3059.124-2015.129v-7.7a1.755,1.755,0,0,0-.528-1.29,1.758,1.758,0,0,0-1.29-.527h-1.391a1.761,1.761,0,0,0-1.292.527,1.759,1.759,0,0,0-.526,1.29v7.7h-3.59v-8.415a3.415,3.415,0,0,1,.471-1.75,3.5,3.5,0,0,1,1.279-1.279,3.412,3.412,0,0,1,1.75-.471h5.206a3.459,3.459,0,0,1,1.773.471,3.5,3.5,0,0,1,1.279,1.279,3.411,3.411,0,0,1,.471,1.75v8.415Z" transform="translate(-2898.886 2030.567)"/>
      <path d="M3069.855-2019.142a1.312,1.312,0,0,0,.4.965,1.314,1.314,0,0,0,.964.4h1.638v2.4h-2.849a3.642,3.642,0,0,1-1.807-.471,3.916,3.916,0,0,1-1.369-1.268,3.587,3.587,0,0,1-.594-1.761v-6.014h-1.5v-2.4h1.5v-3.5h3.613v3.5h3.006v2.4h-3.006Z" transform="translate(-2899.812 2030.81)"/>
    </g>
  </g>
  <g transform="translate(464.862 382.841)" style="isolation: isolate">
    <g style="isolation: isolate">
      <path d="M2917.917-1646.973a3.285,3.285,0,0,0-1.178,1.177,3.12,3.12,0,0,0-.437,1.616v4.151a3.186,3.186,0,0,0,.438,1.628,3.255,3.255,0,0,0,1.178,1.188,3.11,3.11,0,0,0,1.616.438h4.375v-6.26h3.591v8.661h-9.178a5.486,5.486,0,0,1-2.827-.763,5.6,5.6,0,0,1-2.053-2.064,5.558,5.558,0,0,1-.752-2.828v-4.151a5.5,5.5,0,0,1,.752-2.816,5.631,5.631,0,0,1,2.053-2.053,5.493,5.493,0,0,1,2.827-.763h9.178v2.4h-7.965A3.112,3.112,0,0,0,2917.917-1646.973Z" transform="translate(-2912.689 1649.834)"/>
      <path d="M2943.935-1646.044v11.915h-3.59v-.628a9.071,9.071,0,0,1-3.322.628h-3.657a2.83,2.83,0,0,1-1.458-.393,2.911,2.911,0,0,1-1.066-1.065,2.837,2.837,0,0,1-.393-1.459v-6.081a2.831,2.831,0,0,1,.393-1.458,2.9,2.9,0,0,1,1.066-1.067,2.849,2.849,0,0,1,1.458-.393H2937a9.288,9.288,0,0,1,3.344.628v-.628Zm-3.59,8.886v-5.857a9.152,9.152,0,0,0-3.344-.628h-1.146a1.756,1.756,0,0,0-1.289.527,1.757,1.757,0,0,0-.527,1.29v3.478a1.756,1.756,0,0,0,.527,1.29,1.753,1.753,0,0,0,1.289.527H2937A9.152,9.152,0,0,0,2940.345-1637.158Z" transform="translate(-2913.844 1649.589)"/>
      <path d="M2964.26-1645.573a3.5,3.5,0,0,1,1.278,1.279,3.415,3.415,0,0,1,.471,1.75v8.415H2962.4v-7.7a1.757,1.757,0,0,0-.528-1.29,1.731,1.731,0,0,0-1.267-.527h-.539a1.73,1.73,0,0,0-1.268.527,1.753,1.753,0,0,0-.528,1.29v7.7h-3.614v-7.7a1.759,1.759,0,0,0-.526-1.29,1.734,1.734,0,0,0-1.269-.527h-.515a1.757,1.757,0,0,0-1.29.527,1.757,1.757,0,0,0-.528,1.29v7.7h-3.589v-8.415a3.414,3.414,0,0,1,.47-1.75,3.491,3.491,0,0,1,1.28-1.279,3.413,3.413,0,0,1,1.75-.471h3.366a4.528,4.528,0,0,1,2.67.876,4.424,4.424,0,0,1,2.648-.876h3.388A3.416,3.416,0,0,1,2964.26-1645.573Z" transform="translate(-2914.916 1649.589)"/>
      <path d="M2979.273-1646.044a2.274,2.274,0,0,1,1.672.684,2.276,2.276,0,0,1,.684,1.673v2.625a2.287,2.287,0,0,1-.684,1.661,2.255,2.255,0,0,1-1.672.695h-6.283v.808a1.317,1.317,0,0,0,.4.965,1.317,1.317,0,0,0,.965.4h7v2.4h-8.189a3.68,3.68,0,0,1-1.9-.5,3.758,3.758,0,0,1-1.37-1.369,3.7,3.7,0,0,1-.5-1.9v-4.376a3.7,3.7,0,0,1,.5-1.9,3.765,3.765,0,0,1,1.37-1.369,3.688,3.688,0,0,1,1.9-.5Zm-1.537,4.657a.907.907,0,0,0,.28-.662v-.652a.906.906,0,0,0-.28-.662.907.907,0,0,0-.663-.28h-2.714a1.316,1.316,0,0,0-.965.4,1.318,1.318,0,0,0-.4.965v1.167h4.083A.906.906,0,0,0,2977.736-1641.387Z" transform="translate(-2916.376 1649.589)"/>
      <path d="M3010.019-1649.812h3.591v15.438h-3.591l-7.629-10.5v10.5H2998.8v-15.438h3.591l7.629,10.5Z" transform="translate(-2918.288 1649.834)"/>
      <path d="M3021.645-1647.03a2.887,2.887,0,0,0-1.055,1.043,2.789,2.789,0,0,0-.393,1.447v2.446h11.22v2.4H3020.2v5.318h-3.59v-10.165a5.165,5.165,0,0,1,.707-2.648,5.245,5.245,0,0,1,1.919-1.919,5.162,5.162,0,0,1,2.648-.707h9.537v2.4h-8.346A2.816,2.816,0,0,0,3021.645-1647.03Z" transform="translate(-2919.446 1649.834)"/>
      <path d="M3048-1649.836v2.423h-5.61v13.037h-3.613v-13.037h-5.61v-2.423Z" transform="translate(-2920.522 1649.836)"/>
    </g>
  </g>
  <g transform="translate(642.756 234.304)" style="isolation: isolate">
    <g transform="translate(3.177)" style="isolation: isolate">
      <path d="M3117.475-1808.7v1.817h-4.207v9.778h-2.709v-9.778h-4.207v-1.817Z" transform="translate(-3106.352 1808.702)"/>
      <path d="M3127.008-1805.5a2.611,2.611,0,0,1,.959.958,2.563,2.563,0,0,1,.353,1.313v3.687a2.56,2.56,0,0,1-.353,1.312,2.615,2.615,0,0,1-.959.959,2.593,2.593,0,0,1-1.329.353h-3.9a2.547,2.547,0,0,1-1.321-.353,2.636,2.636,0,0,1-.951-.959,2.558,2.558,0,0,1-.354-1.312v-3.687a2.561,2.561,0,0,1,.354-1.313,2.632,2.632,0,0,1,.951-.958,2.547,2.547,0,0,1,1.321-.354h3.9A2.593,2.593,0,0,1,3127.008-1805.5Zm-1.4,2.81a1.316,1.316,0,0,0-.4-.968,1.318,1.318,0,0,0-.968-.4H3123.2a1.315,1.315,0,0,0-.968.4,1.316,1.316,0,0,0-.4.968v2.609a1.319,1.319,0,0,0,.4.969,1.318,1.318,0,0,0,.968.395h1.043a1.321,1.321,0,0,0,.968-.395,1.319,1.319,0,0,0,.4-.969Z" transform="translate(-3107.184 1808.517)"/>
      <path d="M3130.363-1808.666h2.693v11.562h-2.693Zm5.941,7.1,3.7,4.459h-3.265l-3.686-4.459,2.928-4.477h3.248Z" transform="translate(-3107.913 1808.7)"/>
      <path d="M3151.147-1808.179a3.749,3.749,0,0,1,1.371,1.363,3.643,3.643,0,0,1,.5,1.885,3.685,3.685,0,0,1-.5,1.893,3.722,3.722,0,0,1-1.371,1.372,3.688,3.688,0,0,1-1.893.505h-4.948v4.056h-2.694v-11.579h7.642A3.7,3.7,0,0,1,3151.147-1808.179Zm-1.405,4.645a1.9,1.9,0,0,0,.572-1.4,1.882,1.882,0,0,0-.572-1.38,1.883,1.883,0,0,0-1.38-.572h-4.056v3.922h4.056A1.883,1.883,0,0,0,3149.742-1803.534Z" transform="translate(-3108.645 1808.701)"/>
      <path d="M3162.972-1805.5a2.617,2.617,0,0,1,.958.958,2.552,2.552,0,0,1,.354,1.313v3.687a2.549,2.549,0,0,1-.354,1.312,2.621,2.621,0,0,1-.958.959,2.6,2.6,0,0,1-1.33.353h-3.906a2.544,2.544,0,0,1-1.32-.353,2.631,2.631,0,0,1-.952-.959,2.562,2.562,0,0,1-.353-1.312v-3.687a2.565,2.565,0,0,1,.353-1.313,2.628,2.628,0,0,1,.952-.958,2.544,2.544,0,0,1,1.32-.354h3.906A2.6,2.6,0,0,1,3162.972-1805.5Zm-1.4,2.81a1.319,1.319,0,0,0-.394-.968,1.318,1.318,0,0,0-.969-.4h-1.043a1.316,1.316,0,0,0-.968.4,1.32,1.32,0,0,0-.4.968v2.609a1.323,1.323,0,0,0,.4.969,1.319,1.319,0,0,0,.968.395h1.043a1.321,1.321,0,0,0,.969-.395,1.321,1.321,0,0,0,.394-.969Z" transform="translate(-3109.522 1808.517)"/>
      <path d="M3166.326-1808.666h2.693v11.562h-2.693Zm5.942,7.1,3.7,4.459H3172.7l-3.686-4.459,2.928-4.477h3.249Z" transform="translate(-3110.251 1808.7)"/>
    </g>
    <g transform="translate(0 19.651)" style="isolation: isolate">
      <path d="M3112.488-1787.179a3.761,3.761,0,0,1,1.372,1.363,3.645,3.645,0,0,1,.5,1.885,3.687,3.687,0,0,1-.5,1.893,3.732,3.732,0,0,1-1.372,1.372,3.686,3.686,0,0,1-1.893.5h-4.948v4.056h-2.693v-11.579h7.64A3.7,3.7,0,0,1,3112.488-1787.179Zm-1.405,4.645a1.9,1.9,0,0,0,.572-1.4,1.882,1.882,0,0,0-.572-1.38,1.881,1.881,0,0,0-1.38-.572h-4.056v3.922h4.056A1.88,1.88,0,0,0,3111.083-1782.534Z" transform="translate(-3102.954 1787.684)"/>
      <path d="M3122.563-1783.057h-2.053a1.3,1.3,0,0,0-.951.4,1.315,1.315,0,0,0-.395.968v5.773h-2.71v-6.311a2.56,2.56,0,0,1,.354-1.313,2.61,2.61,0,0,1,.959-.958,2.563,2.563,0,0,1,1.313-.354h3.483Z" transform="translate(-3103.832 1787.5)"/>
      <path d="M3131.657-1784.5a2.6,2.6,0,0,1,.958.958,2.554,2.554,0,0,1,.354,1.313v3.687a2.551,2.551,0,0,1-.354,1.312,2.606,2.606,0,0,1-.958.959,2.6,2.6,0,0,1-1.33.353h-3.906a2.545,2.545,0,0,1-1.32-.353,2.637,2.637,0,0,1-.951-.959,2.559,2.559,0,0,1-.353-1.312v-3.687a2.562,2.562,0,0,1,.353-1.313,2.633,2.633,0,0,1,.951-.958,2.545,2.545,0,0,1,1.32-.354h3.906A2.6,2.6,0,0,1,3131.657-1784.5Zm-1.4,2.81a1.319,1.319,0,0,0-.4-.968,1.316,1.316,0,0,0-.968-.4h-1.043a1.316,1.316,0,0,0-.968.4,1.316,1.316,0,0,0-.4.968v2.609a1.318,1.318,0,0,0,.4.969,1.318,1.318,0,0,0,.968.395h1.043a1.319,1.319,0,0,0,.968-.395,1.321,1.321,0,0,0,.4-.969Z" transform="translate(-3104.309 1787.5)"/>
      <path d="M3138.309-1778.931a.989.989,0,0,0,.3.724.991.991,0,0,0,.725.3h1.229v1.8h-2.138a2.73,2.73,0,0,1-1.355-.353,2.937,2.937,0,0,1-1.026-.95,2.7,2.7,0,0,1-.446-1.321v-4.511h-1.128v-1.8h1.128v-2.626h2.709v2.626h2.255v1.8h-2.255Z" transform="translate(-3105.003 1787.683)"/>
      <path d="M3149.711-1784.5a2.62,2.62,0,0,1,.958.958,2.556,2.556,0,0,1,.354,1.313v3.687a2.553,2.553,0,0,1-.354,1.312,2.623,2.623,0,0,1-.958.959,2.594,2.594,0,0,1-1.33.353h-3.905a2.547,2.547,0,0,1-1.32-.353,2.631,2.631,0,0,1-.952-.959,2.566,2.566,0,0,1-.353-1.312v-3.687a2.569,2.569,0,0,1,.353-1.313,2.627,2.627,0,0,1,.952-.958,2.547,2.547,0,0,1,1.32-.354h3.905A2.594,2.594,0,0,1,3149.711-1784.5Zm-1.4,2.81a1.318,1.318,0,0,0-.4-.968,1.316,1.316,0,0,0-.968-.4h-1.044a1.318,1.318,0,0,0-.968.4,1.32,1.32,0,0,0-.4.968v2.609a1.322,1.322,0,0,0,.4.969,1.32,1.32,0,0,0,.968.395h1.044a1.318,1.318,0,0,0,.968-.395,1.32,1.32,0,0,0,.4-.969Z" transform="translate(-3105.483 1787.5)"/>
      <path d="M3162.237-1775.921h-6.53a2.592,2.592,0,0,1-1.33-.353,2.614,2.614,0,0,1-.959-.959,2.587,2.587,0,0,1-.354-1.329v-3.652a2.591,2.591,0,0,1,.354-1.329,2.61,2.61,0,0,1,.959-.958,2.592,2.592,0,0,1,1.33-.354h6.53v1.8h-5.116a1.325,1.325,0,0,0-.959.4,1.3,1.3,0,0,0-.4.968v2.609a1.305,1.305,0,0,0,.4.969,1.328,1.328,0,0,0,.959.395h5.116Z" transform="translate(-3106.212 1787.5)"/>
      <path d="M3172.138-1784.5a2.613,2.613,0,0,1,.959.958,2.563,2.563,0,0,1,.354,1.313v3.687a2.56,2.56,0,0,1-.354,1.312,2.616,2.616,0,0,1-.959.959,2.594,2.594,0,0,1-1.33.353h-3.9a2.547,2.547,0,0,1-1.321-.353,2.637,2.637,0,0,1-.951-.959,2.559,2.559,0,0,1-.353-1.312v-3.687a2.562,2.562,0,0,1,.353-1.313,2.633,2.633,0,0,1,.951-.958,2.547,2.547,0,0,1,1.321-.354h3.9A2.594,2.594,0,0,1,3172.138-1784.5Zm-1.4,2.81a1.315,1.315,0,0,0-.394-.968,1.319,1.319,0,0,0-.969-.4h-1.043a1.315,1.315,0,0,0-.968.4,1.316,1.316,0,0,0-.4.968v2.609a1.318,1.318,0,0,0,.4.969,1.317,1.317,0,0,0,.968.395h1.043a1.321,1.321,0,0,0,.969-.395,1.317,1.317,0,0,0,.394-.969Z" transform="translate(-3106.941 1787.5)"/>
      <path d="M3178.455-1776.1h-2.709v-11.562h2.709Z" transform="translate(-3107.687 1787.683)"/>
    </g>
  </g>
  <g transform="translate(916.706 234.304)" style="isolation: isolate">
    <g transform="translate(3.177)" style="isolation: isolate">
      <path d="M3410.476-1808.7v1.817h-4.208v9.778h-2.708v-9.778h-4.208v-1.817Z" transform="translate(-3399.352 1808.702)"/>
      <path d="M3420.008-1805.5a2.611,2.611,0,0,1,.959.958,2.563,2.563,0,0,1,.353,1.313v3.687a2.56,2.56,0,0,1-.353,1.312,2.615,2.615,0,0,1-.959.959,2.593,2.593,0,0,1-1.329.353h-3.9a2.546,2.546,0,0,1-1.321-.353,2.634,2.634,0,0,1-.951-.959,2.56,2.56,0,0,1-.354-1.312v-3.687a2.563,2.563,0,0,1,.354-1.313,2.631,2.631,0,0,1,.951-.958,2.546,2.546,0,0,1,1.321-.354h3.9A2.593,2.593,0,0,1,3420.008-1805.5Zm-1.4,2.81a1.316,1.316,0,0,0-.4-.968,1.318,1.318,0,0,0-.968-.4h-1.043a1.316,1.316,0,0,0-.968.4,1.317,1.317,0,0,0-.4.968v2.609a1.319,1.319,0,0,0,.4.969,1.318,1.318,0,0,0,.968.395h1.043a1.32,1.32,0,0,0,.968-.395,1.319,1.319,0,0,0,.4-.969Z" transform="translate(-3400.184 1808.517)"/>
      <path d="M3423.363-1808.666h2.693v11.562h-2.693Zm5.941,7.1,3.7,4.459h-3.265l-3.686-4.459,2.928-4.477h3.248Z" transform="translate(-3400.913 1808.7)"/>
      <path d="M3444.147-1808.179a3.75,3.75,0,0,1,1.37,1.363,3.643,3.643,0,0,1,.505,1.885,3.685,3.685,0,0,1-.505,1.893,3.723,3.723,0,0,1-1.37,1.372,3.689,3.689,0,0,1-1.894.505h-4.948v4.056h-2.693v-11.579h7.641A3.7,3.7,0,0,1,3444.147-1808.179Zm-1.406,4.645a1.9,1.9,0,0,0,.572-1.4,1.882,1.882,0,0,0-.572-1.38,1.882,1.882,0,0,0-1.38-.572h-4.056v3.922h4.056A1.882,1.882,0,0,0,3442.741-1803.534Z" transform="translate(-3401.645 1808.701)"/>
      <path d="M3455.972-1805.5a2.616,2.616,0,0,1,.958.958,2.554,2.554,0,0,1,.354,1.313v3.687a2.551,2.551,0,0,1-.354,1.312,2.619,2.619,0,0,1-.958.959,2.6,2.6,0,0,1-1.33.353h-3.905a2.543,2.543,0,0,1-1.32-.353,2.63,2.63,0,0,1-.952-.959,2.56,2.56,0,0,1-.354-1.312v-3.687a2.563,2.563,0,0,1,.354-1.313,2.626,2.626,0,0,1,.952-.958,2.543,2.543,0,0,1,1.32-.354h3.905A2.6,2.6,0,0,1,3455.972-1805.5Zm-1.4,2.81a1.319,1.319,0,0,0-.395-.968,1.318,1.318,0,0,0-.969-.4h-1.043a1.316,1.316,0,0,0-.968.4,1.32,1.32,0,0,0-.4.968v2.609a1.323,1.323,0,0,0,.4.969,1.319,1.319,0,0,0,.968.395h1.043a1.321,1.321,0,0,0,.969-.395,1.322,1.322,0,0,0,.395-.969Z" transform="translate(-3402.522 1808.517)"/>
      <path d="M3459.326-1808.666h2.693v11.562h-2.693Zm5.942,7.1,3.7,4.459H3465.7l-3.686-4.459,2.928-4.477h3.249Z" transform="translate(-3403.251 1808.7)"/>
    </g>
    <g transform="translate(0 19.651)" style="isolation: isolate">
      <path d="M3405.488-1787.179a3.76,3.76,0,0,1,1.372,1.363,3.643,3.643,0,0,1,.5,1.885,3.685,3.685,0,0,1-.5,1.893,3.73,3.73,0,0,1-1.372,1.372,3.686,3.686,0,0,1-1.893.5h-4.948v4.056h-2.693v-11.579h7.641A3.7,3.7,0,0,1,3405.488-1787.179Zm-1.405,4.645a1.9,1.9,0,0,0,.572-1.4,1.883,1.883,0,0,0-.572-1.38,1.881,1.881,0,0,0-1.38-.572h-4.056v3.922h4.056A1.881,1.881,0,0,0,3404.083-1782.534Z" transform="translate(-3395.954 1787.684)"/>
      <path d="M3415.563-1783.057h-2.053a1.3,1.3,0,0,0-.951.4,1.315,1.315,0,0,0-.394.968v5.773h-2.71v-6.311a2.562,2.562,0,0,1,.353-1.313,2.613,2.613,0,0,1,.959-.958,2.561,2.561,0,0,1,1.313-.354h3.484Z" transform="translate(-3396.832 1787.5)"/>
      <path d="M3424.657-1784.5a2.6,2.6,0,0,1,.958.958,2.554,2.554,0,0,1,.354,1.313v3.687a2.551,2.551,0,0,1-.354,1.312,2.606,2.606,0,0,1-.958.959,2.593,2.593,0,0,1-1.33.353h-3.906a2.546,2.546,0,0,1-1.32-.353,2.637,2.637,0,0,1-.951-.959,2.559,2.559,0,0,1-.353-1.312v-3.687a2.562,2.562,0,0,1,.353-1.313,2.633,2.633,0,0,1,.951-.958,2.546,2.546,0,0,1,1.32-.354h3.906A2.593,2.593,0,0,1,3424.657-1784.5Zm-1.4,2.81a1.32,1.32,0,0,0-.4-.968,1.317,1.317,0,0,0-.968-.4h-1.043a1.316,1.316,0,0,0-.968.4,1.316,1.316,0,0,0-.4.968v2.609a1.318,1.318,0,0,0,.4.969,1.319,1.319,0,0,0,.968.395h1.043a1.32,1.32,0,0,0,.968-.395,1.322,1.322,0,0,0,.4-.969Z" transform="translate(-3397.309 1787.5)"/>
      <path d="M3431.309-1778.931a.989.989,0,0,0,.3.724.992.992,0,0,0,.725.3h1.229v1.8h-2.137a2.728,2.728,0,0,1-1.355-.353,2.935,2.935,0,0,1-1.027-.95,2.7,2.7,0,0,1-.446-1.321v-4.511h-1.128v-1.8h1.128v-2.626h2.709v2.626h2.255v1.8h-2.255Z" transform="translate(-3398.003 1787.683)"/>
      <path d="M3442.711-1784.5a2.617,2.617,0,0,1,.958.958,2.554,2.554,0,0,1,.354,1.313v3.687a2.551,2.551,0,0,1-.354,1.312,2.621,2.621,0,0,1-.958.959,2.6,2.6,0,0,1-1.33.353h-3.906a2.546,2.546,0,0,1-1.32-.353,2.632,2.632,0,0,1-.952-.959,2.568,2.568,0,0,1-.352-1.312v-3.687a2.571,2.571,0,0,1,.352-1.313,2.628,2.628,0,0,1,.952-.958,2.546,2.546,0,0,1,1.32-.354h3.906A2.6,2.6,0,0,1,3442.711-1784.5Zm-1.4,2.81a1.32,1.32,0,0,0-.4-.968,1.317,1.317,0,0,0-.968-.4h-1.044a1.318,1.318,0,0,0-.968.4,1.32,1.32,0,0,0-.4.968v2.609a1.322,1.322,0,0,0,.4.969,1.32,1.32,0,0,0,.968.395h1.044a1.319,1.319,0,0,0,.968-.395,1.322,1.322,0,0,0,.4-.969Z" transform="translate(-3398.483 1787.5)"/>
      <path d="M3455.237-1775.921h-6.53a2.591,2.591,0,0,1-1.33-.353,2.616,2.616,0,0,1-.959-.959,2.587,2.587,0,0,1-.354-1.329v-3.652a2.591,2.591,0,0,1,.354-1.329,2.613,2.613,0,0,1,.959-.958,2.591,2.591,0,0,1,1.33-.354h6.53v1.8h-5.116a1.325,1.325,0,0,0-.959.4,1.3,1.3,0,0,0-.4.968v2.609a1.3,1.3,0,0,0,.4.969,1.327,1.327,0,0,0,.959.395h5.116Z" transform="translate(-3399.212 1787.5)"/>
      <path d="M3465.138-1784.5a2.613,2.613,0,0,1,.959.958,2.563,2.563,0,0,1,.354,1.313v3.687a2.56,2.56,0,0,1-.354,1.312,2.616,2.616,0,0,1-.959.959,2.594,2.594,0,0,1-1.33.353h-3.9a2.546,2.546,0,0,1-1.321-.353,2.635,2.635,0,0,1-.951-.959,2.562,2.562,0,0,1-.353-1.312v-3.687a2.565,2.565,0,0,1,.353-1.313,2.632,2.632,0,0,1,.951-.958,2.546,2.546,0,0,1,1.321-.354h3.9A2.594,2.594,0,0,1,3465.138-1784.5Zm-1.4,2.81a1.315,1.315,0,0,0-.395-.968,1.319,1.319,0,0,0-.969-.4h-1.042a1.315,1.315,0,0,0-.968.4,1.316,1.316,0,0,0-.4.968v2.609a1.318,1.318,0,0,0,.4.969,1.317,1.317,0,0,0,.968.395h1.042a1.321,1.321,0,0,0,.969-.395,1.318,1.318,0,0,0,.395-.969Z" transform="translate(-3399.941 1787.5)"/>
      <path d="M3471.455-1776.1h-2.71v-11.562h2.71Z" transform="translate(-3400.687 1787.683)"/>
    </g>
  </g>
  <g transform="translate(343.562 234.304)" style="isolation: isolate">
    <g transform="translate(3.177)" style="isolation: isolate">
      <path d="M2797.476-1808.7v1.817h-4.208v9.778h-2.708v-9.778h-4.208v-1.817Z" transform="translate(-2786.352 1808.702)"/>
      <path d="M2807.008-1805.5a2.611,2.611,0,0,1,.959.958,2.563,2.563,0,0,1,.354,1.313v3.687a2.56,2.56,0,0,1-.354,1.312,2.615,2.615,0,0,1-.959.959,2.593,2.593,0,0,1-1.329.353h-3.9a2.546,2.546,0,0,1-1.321-.353,2.634,2.634,0,0,1-.951-.959,2.56,2.56,0,0,1-.354-1.312v-3.687a2.563,2.563,0,0,1,.354-1.313,2.631,2.631,0,0,1,.951-.958,2.546,2.546,0,0,1,1.321-.354h3.9A2.593,2.593,0,0,1,2807.008-1805.5Zm-1.4,2.81a1.316,1.316,0,0,0-.4-.968,1.318,1.318,0,0,0-.968-.4h-1.043a1.315,1.315,0,0,0-.968.4,1.316,1.316,0,0,0-.4.968v2.609a1.319,1.319,0,0,0,.4.969,1.317,1.317,0,0,0,.968.395h1.043a1.32,1.32,0,0,0,.968-.395,1.319,1.319,0,0,0,.4-.969Z" transform="translate(-2787.184 1808.517)"/>
      <path d="M2810.363-1808.666h2.693v11.562h-2.693Zm5.941,7.1,3.7,4.459h-3.265l-3.686-4.459,2.928-4.477h3.248Z" transform="translate(-2787.913 1808.7)"/>
      <path d="M2831.147-1808.179a3.75,3.75,0,0,1,1.37,1.363,3.643,3.643,0,0,1,.505,1.885,3.685,3.685,0,0,1-.505,1.893,3.723,3.723,0,0,1-1.37,1.372,3.689,3.689,0,0,1-1.894.505h-4.948v4.056h-2.694v-11.579h7.641A3.7,3.7,0,0,1,2831.147-1808.179Zm-1.406,4.645a1.9,1.9,0,0,0,.572-1.4,1.882,1.882,0,0,0-.572-1.38,1.882,1.882,0,0,0-1.38-.572h-4.056v3.922h4.056A1.882,1.882,0,0,0,2829.741-1803.534Z" transform="translate(-2788.645 1808.701)"/>
      <path d="M2842.973-1805.5a2.617,2.617,0,0,1,.958.958,2.554,2.554,0,0,1,.354,1.313v3.687a2.551,2.551,0,0,1-.354,1.312,2.621,2.621,0,0,1-.958.959,2.6,2.6,0,0,1-1.33.353h-3.905a2.543,2.543,0,0,1-1.32-.353,2.63,2.63,0,0,1-.952-.959,2.56,2.56,0,0,1-.354-1.312v-3.687a2.563,2.563,0,0,1,.354-1.313,2.626,2.626,0,0,1,.952-.958,2.543,2.543,0,0,1,1.32-.354h3.905A2.6,2.6,0,0,1,2842.973-1805.5Zm-1.4,2.81a1.319,1.319,0,0,0-.395-.968,1.318,1.318,0,0,0-.969-.4h-1.043a1.316,1.316,0,0,0-.968.4,1.32,1.32,0,0,0-.4.968v2.609a1.323,1.323,0,0,0,.4.969,1.319,1.319,0,0,0,.968.395h1.043a1.321,1.321,0,0,0,.969-.395,1.322,1.322,0,0,0,.395-.969Z" transform="translate(-2789.522 1808.517)"/>
      <path d="M2846.326-1808.666h2.693v11.562h-2.693Zm5.942,7.1,3.7,4.459H2852.7l-3.686-4.459,2.928-4.477h3.249Z" transform="translate(-2790.251 1808.7)"/>
    </g>
    <g transform="translate(0 19.651)" style="isolation: isolate">
      <path d="M2792.488-1787.179a3.761,3.761,0,0,1,1.372,1.363,3.643,3.643,0,0,1,.5,1.885,3.685,3.685,0,0,1-.5,1.893,3.731,3.731,0,0,1-1.372,1.372,3.687,3.687,0,0,1-1.893.5h-4.948v4.056h-2.693v-11.579h7.641A3.7,3.7,0,0,1,2792.488-1787.179Zm-1.405,4.645a1.9,1.9,0,0,0,.572-1.4,1.883,1.883,0,0,0-.572-1.38,1.881,1.881,0,0,0-1.38-.572h-4.056v3.922h4.056A1.881,1.881,0,0,0,2791.083-1782.534Z" transform="translate(-2782.954 1787.684)"/>
      <path d="M2802.563-1783.057h-2.053a1.3,1.3,0,0,0-.951.4,1.316,1.316,0,0,0-.394.968v5.773h-2.71v-6.311a2.562,2.562,0,0,1,.353-1.313,2.613,2.613,0,0,1,.959-.958,2.561,2.561,0,0,1,1.313-.354h3.484Z" transform="translate(-2783.832 1787.5)"/>
      <path d="M2811.657-1784.5a2.6,2.6,0,0,1,.958.958,2.554,2.554,0,0,1,.354,1.313v3.687a2.551,2.551,0,0,1-.354,1.312,2.606,2.606,0,0,1-.958.959,2.593,2.593,0,0,1-1.33.353h-3.906a2.546,2.546,0,0,1-1.32-.353,2.637,2.637,0,0,1-.951-.959,2.559,2.559,0,0,1-.353-1.312v-3.687a2.562,2.562,0,0,1,.353-1.313,2.633,2.633,0,0,1,.951-.958,2.546,2.546,0,0,1,1.32-.354h3.906A2.593,2.593,0,0,1,2811.657-1784.5Zm-1.4,2.81a1.32,1.32,0,0,0-.4-.968,1.317,1.317,0,0,0-.968-.4h-1.043a1.316,1.316,0,0,0-.968.4,1.316,1.316,0,0,0-.4.968v2.609a1.318,1.318,0,0,0,.4.969,1.319,1.319,0,0,0,.968.395h1.043a1.319,1.319,0,0,0,.968-.395,1.322,1.322,0,0,0,.4-.969Z" transform="translate(-2784.309 1787.5)"/>
      <path d="M2818.309-1778.931a.99.99,0,0,0,.3.724.992.992,0,0,0,.725.3h1.229v1.8h-2.137a2.728,2.728,0,0,1-1.355-.353,2.937,2.937,0,0,1-1.027-.95,2.7,2.7,0,0,1-.446-1.321v-4.511h-1.128v-1.8h1.128v-2.626h2.709v2.626h2.255v1.8h-2.255Z" transform="translate(-2785.003 1787.683)"/>
      <path d="M2829.711-1784.5a2.617,2.617,0,0,1,.958.958,2.554,2.554,0,0,1,.354,1.313v3.687a2.551,2.551,0,0,1-.354,1.312,2.621,2.621,0,0,1-.958.959,2.594,2.594,0,0,1-1.33.353h-3.906a2.546,2.546,0,0,1-1.32-.353,2.632,2.632,0,0,1-.952-.959,2.568,2.568,0,0,1-.352-1.312v-3.687a2.571,2.571,0,0,1,.352-1.313,2.628,2.628,0,0,1,.952-.958,2.546,2.546,0,0,1,1.32-.354h3.906A2.594,2.594,0,0,1,2829.711-1784.5Zm-1.4,2.81a1.32,1.32,0,0,0-.4-.968,1.317,1.317,0,0,0-.968-.4h-1.044a1.318,1.318,0,0,0-.968.4,1.32,1.32,0,0,0-.4.968v2.609a1.322,1.322,0,0,0,.4.969,1.32,1.32,0,0,0,.968.395h1.044a1.319,1.319,0,0,0,.968-.395,1.322,1.322,0,0,0,.4-.969Z" transform="translate(-2785.483 1787.5)"/>
      <path d="M2842.237-1775.921h-6.53a2.591,2.591,0,0,1-1.33-.353,2.616,2.616,0,0,1-.959-.959,2.587,2.587,0,0,1-.354-1.329v-3.652a2.591,2.591,0,0,1,.354-1.329,2.613,2.613,0,0,1,.959-.958,2.591,2.591,0,0,1,1.33-.354h6.53v1.8h-5.116a1.325,1.325,0,0,0-.959.4,1.3,1.3,0,0,0-.4.968v2.609a1.3,1.3,0,0,0,.4.969,1.327,1.327,0,0,0,.959.395h5.116Z" transform="translate(-2786.212 1787.5)"/>
      <path d="M2852.138-1784.5a2.613,2.613,0,0,1,.959.958,2.563,2.563,0,0,1,.354,1.313v3.687a2.56,2.56,0,0,1-.354,1.312,2.616,2.616,0,0,1-.959.959,2.593,2.593,0,0,1-1.33.353h-3.9a2.546,2.546,0,0,1-1.321-.353,2.635,2.635,0,0,1-.951-.959,2.562,2.562,0,0,1-.353-1.312v-3.687a2.565,2.565,0,0,1,.353-1.313,2.632,2.632,0,0,1,.951-.958,2.546,2.546,0,0,1,1.321-.354h3.9A2.593,2.593,0,0,1,2852.138-1784.5Zm-1.4,2.81a1.315,1.315,0,0,0-.395-.968,1.319,1.319,0,0,0-.969-.4h-1.042a1.315,1.315,0,0,0-.968.4,1.317,1.317,0,0,0-.4.968v2.609a1.319,1.319,0,0,0,.4.969,1.317,1.317,0,0,0,.968.395h1.042a1.321,1.321,0,0,0,.969-.395,1.318,1.318,0,0,0,.395-.969Z" transform="translate(-2786.941 1787.5)"/>
      <path d="M2858.455-1776.1h-2.71v-11.562h2.71Z" transform="translate(-2787.687 1787.683)"/>
    </g>
  </g>
  <g transform="translate(69.613 234.304)" style="isolation: isolate">
    <g transform="translate(3.177)" style="isolation: isolate">
      <path d="M2504.476-1808.7v1.817h-4.208v9.778h-2.709v-9.778h-4.207v-1.817Z" transform="translate(-2493.352 1808.702)"/>
      <path d="M2514.008-1805.5a2.611,2.611,0,0,1,.959.958,2.563,2.563,0,0,1,.353,1.313v3.687a2.56,2.56,0,0,1-.353,1.312,2.615,2.615,0,0,1-.959.959,2.593,2.593,0,0,1-1.329.353h-3.9a2.547,2.547,0,0,1-1.321-.353,2.636,2.636,0,0,1-.951-.959,2.558,2.558,0,0,1-.354-1.312v-3.687a2.561,2.561,0,0,1,.354-1.313,2.632,2.632,0,0,1,.951-.958,2.547,2.547,0,0,1,1.321-.354h3.9A2.593,2.593,0,0,1,2514.008-1805.5Zm-1.4,2.81a1.316,1.316,0,0,0-.4-.968,1.318,1.318,0,0,0-.968-.4h-1.043a1.315,1.315,0,0,0-.968.4,1.316,1.316,0,0,0-.4.968v2.609a1.319,1.319,0,0,0,.4.969,1.318,1.318,0,0,0,.968.395h1.043a1.321,1.321,0,0,0,.968-.395,1.319,1.319,0,0,0,.4-.969Z" transform="translate(-2494.184 1808.517)"/>
      <path d="M2517.363-1808.666h2.693v11.562h-2.693Zm5.941,7.1,3.7,4.459h-3.265l-3.686-4.459,2.928-4.477h3.248Z" transform="translate(-2494.913 1808.7)"/>
      <path d="M2538.147-1808.179a3.75,3.75,0,0,1,1.371,1.363,3.645,3.645,0,0,1,.5,1.885,3.687,3.687,0,0,1-.5,1.893,3.723,3.723,0,0,1-1.371,1.372,3.69,3.69,0,0,1-1.894.505h-4.948v4.056h-2.694v-11.579h7.642A3.7,3.7,0,0,1,2538.147-1808.179Zm-1.405,4.645a1.9,1.9,0,0,0,.572-1.4,1.883,1.883,0,0,0-.572-1.38,1.882,1.882,0,0,0-1.38-.572h-4.056v3.922h4.056A1.882,1.882,0,0,0,2536.742-1803.534Z" transform="translate(-2495.644 1808.701)"/>
      <path d="M2549.972-1805.5a2.617,2.617,0,0,1,.958.958,2.552,2.552,0,0,1,.354,1.313v3.687a2.549,2.549,0,0,1-.354,1.312,2.621,2.621,0,0,1-.958.959,2.6,2.6,0,0,1-1.33.353h-3.906a2.544,2.544,0,0,1-1.32-.353,2.629,2.629,0,0,1-.952-.959,2.56,2.56,0,0,1-.354-1.312v-3.687a2.563,2.563,0,0,1,.354-1.313,2.626,2.626,0,0,1,.952-.958,2.544,2.544,0,0,1,1.32-.354h3.906A2.6,2.6,0,0,1,2549.972-1805.5Zm-1.4,2.81a1.319,1.319,0,0,0-.394-.968,1.318,1.318,0,0,0-.969-.4h-1.043a1.316,1.316,0,0,0-.968.4,1.319,1.319,0,0,0-.4.968v2.609a1.322,1.322,0,0,0,.4.969,1.319,1.319,0,0,0,.968.395h1.043a1.321,1.321,0,0,0,.969-.395,1.321,1.321,0,0,0,.394-.969Z" transform="translate(-2496.522 1808.517)"/>
      <path d="M2553.326-1808.666h2.693v11.562h-2.693Zm5.942,7.1,3.7,4.459H2559.7l-3.686-4.459,2.928-4.477h3.249Z" transform="translate(-2497.251 1808.7)"/>
    </g>
    <g transform="translate(0 19.651)" style="isolation: isolate">
      <path d="M2499.488-1787.179a3.761,3.761,0,0,1,1.372,1.363,3.645,3.645,0,0,1,.5,1.885,3.687,3.687,0,0,1-.5,1.893,3.732,3.732,0,0,1-1.372,1.372,3.686,3.686,0,0,1-1.893.5h-4.948v4.056h-2.693v-11.579h7.641A3.7,3.7,0,0,1,2499.488-1787.179Zm-1.405,4.645a1.9,1.9,0,0,0,.572-1.4,1.883,1.883,0,0,0-.572-1.38,1.881,1.881,0,0,0-1.38-.572h-4.056v3.922h4.056A1.881,1.881,0,0,0,2498.083-1782.534Z" transform="translate(-2489.954 1787.684)"/>
      <path d="M2509.563-1783.057h-2.053a1.3,1.3,0,0,0-.951.4,1.315,1.315,0,0,0-.394.968v5.773h-2.71v-6.311a2.562,2.562,0,0,1,.353-1.313,2.613,2.613,0,0,1,.959-.958,2.561,2.561,0,0,1,1.313-.354h3.484Z" transform="translate(-2490.832 1787.5)"/>
      <path d="M2518.657-1784.5a2.6,2.6,0,0,1,.958.958,2.554,2.554,0,0,1,.354,1.313v3.687a2.551,2.551,0,0,1-.354,1.312,2.606,2.606,0,0,1-.958.959,2.6,2.6,0,0,1-1.33.353h-3.906a2.545,2.545,0,0,1-1.32-.353,2.637,2.637,0,0,1-.951-.959,2.559,2.559,0,0,1-.353-1.312v-3.687a2.562,2.562,0,0,1,.353-1.313,2.633,2.633,0,0,1,.951-.958,2.545,2.545,0,0,1,1.32-.354h3.906A2.6,2.6,0,0,1,2518.657-1784.5Zm-1.4,2.81a1.32,1.32,0,0,0-.4-.968,1.317,1.317,0,0,0-.968-.4h-1.043a1.316,1.316,0,0,0-.968.4,1.316,1.316,0,0,0-.4.968v2.609a1.318,1.318,0,0,0,.4.969,1.318,1.318,0,0,0,.968.395h1.043a1.32,1.32,0,0,0,.968-.395,1.322,1.322,0,0,0,.4-.969Z" transform="translate(-2491.309 1787.5)"/>
      <path d="M2525.309-1778.931a.989.989,0,0,0,.3.724.992.992,0,0,0,.725.3h1.229v1.8h-2.137a2.73,2.73,0,0,1-1.355-.353,2.937,2.937,0,0,1-1.026-.95,2.7,2.7,0,0,1-.446-1.321v-4.511h-1.128v-1.8h1.128v-2.626h2.709v2.626h2.255v1.8h-2.255Z" transform="translate(-2492.003 1787.683)"/>
      <path d="M2536.711-1784.5a2.617,2.617,0,0,1,.958.958,2.554,2.554,0,0,1,.354,1.313v3.687a2.551,2.551,0,0,1-.354,1.312,2.621,2.621,0,0,1-.958.959,2.6,2.6,0,0,1-1.33.353h-3.906a2.546,2.546,0,0,1-1.32-.353,2.632,2.632,0,0,1-.952-.959,2.568,2.568,0,0,1-.352-1.312v-3.687a2.571,2.571,0,0,1,.352-1.313,2.628,2.628,0,0,1,.952-.958,2.546,2.546,0,0,1,1.32-.354h3.906A2.6,2.6,0,0,1,2536.711-1784.5Zm-1.4,2.81a1.319,1.319,0,0,0-.4-.968,1.316,1.316,0,0,0-.968-.4h-1.044a1.318,1.318,0,0,0-.968.4,1.32,1.32,0,0,0-.4.968v2.609a1.322,1.322,0,0,0,.4.969,1.32,1.32,0,0,0,.968.395h1.044a1.318,1.318,0,0,0,.968-.395,1.321,1.321,0,0,0,.4-.969Z" transform="translate(-2492.483 1787.5)"/>
      <path d="M2549.237-1775.921h-6.53a2.592,2.592,0,0,1-1.33-.353,2.616,2.616,0,0,1-.959-.959,2.587,2.587,0,0,1-.354-1.329v-3.652a2.591,2.591,0,0,1,.354-1.329,2.612,2.612,0,0,1,.959-.958,2.592,2.592,0,0,1,1.33-.354h6.53v1.8h-5.116a1.325,1.325,0,0,0-.959.4,1.3,1.3,0,0,0-.4.968v2.609a1.305,1.305,0,0,0,.4.969,1.328,1.328,0,0,0,.959.395h5.116Z" transform="translate(-2493.212 1787.5)"/>
      <path d="M2559.138-1784.5a2.613,2.613,0,0,1,.959.958,2.563,2.563,0,0,1,.354,1.313v3.687a2.56,2.56,0,0,1-.354,1.312,2.616,2.616,0,0,1-.959.959,2.594,2.594,0,0,1-1.33.353h-3.9a2.547,2.547,0,0,1-1.321-.353,2.637,2.637,0,0,1-.951-.959,2.559,2.559,0,0,1-.353-1.312v-3.687a2.562,2.562,0,0,1,.353-1.313,2.633,2.633,0,0,1,.951-.958,2.547,2.547,0,0,1,1.321-.354h3.9A2.594,2.594,0,0,1,2559.138-1784.5Zm-1.4,2.81a1.315,1.315,0,0,0-.394-.968,1.319,1.319,0,0,0-.969-.4h-1.042a1.315,1.315,0,0,0-.968.4,1.316,1.316,0,0,0-.4.968v2.609a1.318,1.318,0,0,0,.4.969,1.317,1.317,0,0,0,.968.395h1.042a1.321,1.321,0,0,0,.969-.395,1.317,1.317,0,0,0,.394-.969Z" transform="translate(-2493.941 1787.5)"/>
      <path d="M2565.455-1776.1h-2.709v-11.562h2.709Z" transform="translate(-2494.687 1787.683)"/>
    </g>
  </g>
  <g transform="translate(64.886 134.261)" style="isolation: isolate">
    <g style="isolation: isolate">
      <path d="M2493.33-1915.7h2.693l-4.208,11.6h-2.709l-4.208-11.6h2.71l2.86,7.859Z" transform="translate(-2484.898 1915.702)" fill="#fff"/>
      <path d="M2507.738-1912.857v8.936h-2.691v-.471a6.829,6.829,0,0,1-2.492.471h-2.743a2.122,2.122,0,0,1-1.094-.294,2.166,2.166,0,0,1-.8-.8,2.134,2.134,0,0,1-.294-1.094v-4.561a2.134,2.134,0,0,1,.294-1.094,2.18,2.18,0,0,1,.8-.8,2.13,2.13,0,0,1,1.094-.294h2.726a6.98,6.98,0,0,1,2.509.47v-.47Zm-2.691,6.665v-4.393a6.872,6.872,0,0,0-2.509-.471h-.858a1.316,1.316,0,0,0-.968.4,1.317,1.317,0,0,0-.4.968v2.609a1.319,1.319,0,0,0,.4.969,1.319,1.319,0,0,0,.968.395h.858A6.891,6.891,0,0,0,2505.047-1906.192Z" transform="translate(-2485.725 1915.517)" fill="#fff"/>
      <path d="M2512.808-1904.1h-2.71v-11.562h2.71Z" transform="translate(-2486.536 1915.7)" fill="#fff"/>
      <path d="M2514.9-1915.666h2.692v2.626H2514.9Zm0,3.3h2.692v8.263H2514.9Z" transform="translate(-2486.849 1915.7)" fill="#fff"/>
      <path d="M2529.555-1915.684v11.579h-2.694v-.471a6.813,6.813,0,0,1-2.491.471h-2.759a2.084,2.084,0,0,1-1.086-.294,2.2,2.2,0,0,1-.791-.8,2.141,2.141,0,0,1-.295-1.094v-4.561a2.141,2.141,0,0,1,.295-1.094,2.215,2.215,0,0,1,.791-.8,2.091,2.091,0,0,1,1.086-.294h2.742a6.874,6.874,0,0,1,2.507.47v-3.114Zm-2.694,9.308v-4.393a6.855,6.855,0,0,0-2.507-.471h-.858a1.315,1.315,0,0,0-.968.4,1.32,1.32,0,0,0-.4.968v2.609a1.322,1.322,0,0,0,.4.969,1.317,1.317,0,0,0,.968.395h.858A6.874,6.874,0,0,0,2526.861-1906.376Z" transform="translate(-2487.144 1915.701)" fill="#fff"/>
      <path d="M2541.775-1912.857v8.936h-2.691v-.471a6.83,6.83,0,0,1-2.491.471h-2.745a2.121,2.121,0,0,1-1.094-.294,2.162,2.162,0,0,1-.8-.8,2.125,2.125,0,0,1-.3-1.094v-4.561a2.126,2.126,0,0,1,.3-1.094,2.177,2.177,0,0,1,.8-.8,2.129,2.129,0,0,1,1.094-.294h2.727a6.983,6.983,0,0,1,2.509.47v-.47Zm-2.691,6.665v-4.393a6.873,6.873,0,0,0-2.509-.471h-.858a1.315,1.315,0,0,0-.967.4,1.315,1.315,0,0,0-.4.968v2.609a1.317,1.317,0,0,0,.4.969,1.318,1.318,0,0,0,.967.395h.858A6.892,6.892,0,0,0,2539.084-1906.192Z" transform="translate(-2487.939 1915.517)" fill="#fff"/>
      <path d="M2547.18-1906.931a.986.986,0,0,0,.3.724.985.985,0,0,0,.724.3h1.229v1.8H2547.3a2.734,2.734,0,0,1-1.355-.353,2.958,2.958,0,0,1-1.027-.95,2.7,2.7,0,0,1-.445-1.321v-4.511h-1.128v-1.8h1.128v-2.626h2.709v2.626h2.255v1.8h-2.255Z" transform="translate(-2488.698 1915.7)" fill="#fff"/>
      <path d="M2558.582-1912.5a2.61,2.61,0,0,1,.958.958,2.564,2.564,0,0,1,.354,1.313v3.687a2.561,2.561,0,0,1-.354,1.312,2.613,2.613,0,0,1-.958.959,2.594,2.594,0,0,1-1.329.353h-3.906a2.55,2.55,0,0,1-1.321-.353,2.633,2.633,0,0,1-.95-.959,2.56,2.56,0,0,1-.354-1.312v-3.687a2.563,2.563,0,0,1,.354-1.313,2.629,2.629,0,0,1,.95-.958,2.55,2.55,0,0,1,1.321-.353h3.906A2.594,2.594,0,0,1,2558.582-1912.5Zm-1.4,2.81a1.317,1.317,0,0,0-.4-.968,1.314,1.314,0,0,0-.968-.4h-1.042a1.317,1.317,0,0,0-.969.4,1.318,1.318,0,0,0-.395.968v2.609a1.32,1.32,0,0,0,.395.969,1.32,1.32,0,0,0,.969.395h1.042a1.317,1.317,0,0,0,.968-.395,1.319,1.319,0,0,0,.4-.969Z" transform="translate(-2489.178 1915.517)" fill="#fff"/>
      <path d="M2568.046-1911.057h-2.054a1.294,1.294,0,0,0-.95.4,1.313,1.313,0,0,0-.4.968v5.772h-2.709v-6.311a2.572,2.572,0,0,1,.353-1.313,2.612,2.612,0,0,1,.959-.958,2.561,2.561,0,0,1,1.313-.353h3.485Z" transform="translate(-2489.907 1915.517)" fill="#fff"/>
    </g>
  </g>
  <g transform="translate(354.215 134.278)" style="isolation: isolate">
    <g style="isolation: isolate">
      <path d="M2805.457-1904.105h-7.675a3.323,3.323,0,0,1-1.725-.463,3.459,3.459,0,0,1-1.245-1.254,3.339,3.339,0,0,1-.463-1.717v-4.729a3.291,3.291,0,0,1,.463-1.707,3.479,3.479,0,0,1,1.245-1.245,3.316,3.316,0,0,1,1.725-.464h7.675v1.8h-6.767a1.572,1.572,0,0,0-1.144.463,1.551,1.551,0,0,0-.471,1.153v4.729a1.557,1.557,0,0,0,.471,1.144,1.557,1.557,0,0,0,1.144.471h6.767Z" transform="translate(-2794.348 1915.684)" fill="#fff"/>
      <path d="M2810.63-1904.1h-2.71v-11.562h2.71Z" transform="translate(-2795.23 1915.683)" fill="#fff"/>
      <path d="M2812.726-1915.666h2.692v2.626h-2.692Zm0,3.3h2.692v8.263h-2.692Z" transform="translate(-2795.543 1915.683)" fill="#fff"/>
      <path d="M2824.667-1912.857a1.7,1.7,0,0,1,1.253.512,1.7,1.7,0,0,1,.514,1.254v1.97a1.709,1.709,0,0,1-.514,1.244,1.687,1.687,0,0,1-1.253.522h-4.712v.606a.989.989,0,0,0,.3.724.989.989,0,0,0,.725.3h5.25v1.8h-6.143a2.766,2.766,0,0,1-1.421-.379,2.825,2.825,0,0,1-1.027-1.027,2.765,2.765,0,0,1-.378-1.422v-3.282a2.762,2.762,0,0,1,.378-1.421,2.828,2.828,0,0,1,1.027-1.028,2.764,2.764,0,0,1,1.421-.378Zm-1.153,3.491a.675.675,0,0,0,.21-.5v-.489a.678.678,0,0,0-.21-.5.684.684,0,0,0-.5-.21h-2.036a.987.987,0,0,0-.725.3.988.988,0,0,0-.3.723v.876h3.063A.681.681,0,0,0,2823.514-1909.366Z" transform="translate(-2795.838 1915.5)" fill="#fff"/>
      <path d="M2834.938-1903.921v-5.772a1.319,1.319,0,0,0-.394-.968,1.319,1.319,0,0,0-.968-.4h-1.044a1.318,1.318,0,0,0-.968.4,1.316,1.316,0,0,0-.4.968v5.772h-2.692v-6.311a2.563,2.563,0,0,1,.353-1.313,2.6,2.6,0,0,1,.958-.958,2.565,2.565,0,0,1,1.313-.353h3.9a2.593,2.593,0,0,1,1.33.353,2.614,2.614,0,0,1,.959.958,2.554,2.554,0,0,1,.353,1.313v6.311Z" transform="translate(-2796.567 1915.5)" fill="#fff"/>
      <path d="M2842.986-1906.931a.99.99,0,0,0,.3.724.992.992,0,0,0,.725.3h1.229v1.8H2843.1a2.73,2.73,0,0,1-1.355-.353,2.93,2.93,0,0,1-1.027-.95,2.7,2.7,0,0,1-.446-1.321v-4.511h-1.128v-1.8h1.128v-2.626h2.709v2.626h2.255v1.8h-2.255Z" transform="translate(-2797.261 1915.683)" fill="#fff"/>
    </g>
  </g>
  <g transform="translate(632.223 134.261)" style="isolation: isolate">
    <g style="isolation: isolate">
      <path d="M3102.813-1915.7v1.818H3098.6v9.778H3095.9v-9.778h-4.208v-1.818Z" transform="translate(-3091.688 1915.702)" fill="#fff"/>
      <path d="M3110.6-1911.057h-2.053a1.3,1.3,0,0,0-.951.4,1.313,1.313,0,0,0-.4.968v5.772h-2.709v-6.311a2.563,2.563,0,0,1,.353-1.313,2.614,2.614,0,0,1,.959-.958,2.562,2.562,0,0,1,1.313-.353h3.484Z" transform="translate(-3092.52 1915.517)" fill="#fff"/>
      <path d="M3121.944-1912.857v8.936h-2.692v-.471a6.822,6.822,0,0,1-2.491.471h-2.743a2.12,2.12,0,0,1-1.094-.294,2.163,2.163,0,0,1-.8-.8,2.134,2.134,0,0,1-.294-1.094v-4.561a2.134,2.134,0,0,1,.294-1.094,2.178,2.178,0,0,1,.8-.8,2.128,2.128,0,0,1,1.094-.294h2.726a6.971,6.971,0,0,1,2.508.47v-.47Zm-2.692,6.665v-4.393a6.864,6.864,0,0,0-2.508-.471h-.858a1.315,1.315,0,0,0-.968.4,1.316,1.316,0,0,0-.4.968v2.609a1.318,1.318,0,0,0,.4.969,1.317,1.317,0,0,0,.968.395h.858A6.883,6.883,0,0,0,3119.252-1906.192Z" transform="translate(-3092.998 1915.517)" fill="#fff"/>
      <path d="M3130.514-1903.921v-5.772a1.316,1.316,0,0,0-.4-.968,1.316,1.316,0,0,0-.968-.4h-1.042a1.317,1.317,0,0,0-.969.4,1.316,1.316,0,0,0-.395.968v5.772h-2.693v-6.311a2.563,2.563,0,0,1,.353-1.313,2.61,2.61,0,0,1,.958-.958,2.564,2.564,0,0,1,1.313-.353h3.9a2.594,2.594,0,0,1,1.33.353,2.607,2.607,0,0,1,.959.958,2.561,2.561,0,0,1,.354,1.313v6.311Z" transform="translate(-3093.792 1915.517)" fill="#fff"/>
      <path d="M3138.58-1911.057a.83.83,0,0,0-.623.262.871.871,0,0,0-.251.63.852.852,0,0,0,.251.614.832.832,0,0,0,.623.261h2.895a2.617,2.617,0,0,1,1.355.362,2.71,2.71,0,0,1,.976.977,2.618,2.618,0,0,1,.363,1.354,2.6,2.6,0,0,1-.363,1.339,2.7,2.7,0,0,1-.976.975,2.616,2.616,0,0,1-1.355.362h-6.126v-1.8h5.235a.855.855,0,0,0,.63-.261.839.839,0,0,0,.261-.614.861.861,0,0,0-.261-.631.863.863,0,0,0-.63-.261h-2.9a2.618,2.618,0,0,1-1.345-.362,2.687,2.687,0,0,1-.985-.976,2.585,2.585,0,0,1-.362-1.338,2.62,2.62,0,0,1,.362-1.355,2.7,2.7,0,0,1,.985-.976,2.627,2.627,0,0,1,1.345-.361h6.059v1.8Z" transform="translate(-3094.504 1915.517)" fill="#fff"/>
      <path d="M3156.054-1912.857v8.936h-2.693v-.471a6.817,6.817,0,0,1-2.491.471h-2.743a2.122,2.122,0,0,1-1.094-.294,2.173,2.173,0,0,1-.8-.8,2.134,2.134,0,0,1-.294-1.094v-4.561a2.134,2.134,0,0,1,.294-1.094,2.187,2.187,0,0,1,.8-.8,2.13,2.13,0,0,1,1.094-.294h2.726a6.971,6.971,0,0,1,2.508.47v-.47Zm-2.693,6.665v-4.393a6.86,6.86,0,0,0-2.508-.471H3150a1.315,1.315,0,0,0-.968.4,1.317,1.317,0,0,0-.4.968v2.609a1.319,1.319,0,0,0,.4.969,1.318,1.318,0,0,0,.968.395h.858A6.879,6.879,0,0,0,3153.361-1906.192Z" transform="translate(-3095.215 1915.517)" fill="#fff"/>
      <path d="M3167.333-1903.921H3160.8a2.6,2.6,0,0,1-1.33-.353,2.622,2.622,0,0,1-.958-.959,2.592,2.592,0,0,1-.354-1.33v-3.652a2.6,2.6,0,0,1,.354-1.33,2.618,2.618,0,0,1,.958-.958,2.6,2.6,0,0,1,1.33-.353h6.531v1.8h-5.116a1.325,1.325,0,0,0-.959.4,1.3,1.3,0,0,0-.4.968v2.609a1.305,1.305,0,0,0,.4.969,1.328,1.328,0,0,0,.959.395h5.116Z" transform="translate(-3096.01 1915.517)" fill="#fff"/>
      <path d="M3172.671-1906.931a.988.988,0,0,0,.3.724.986.986,0,0,0,.723.3h1.23v1.8h-2.138a2.732,2.732,0,0,1-1.355-.353,2.944,2.944,0,0,1-1.026-.95,2.683,2.683,0,0,1-.446-1.321v-4.511h-1.128v-1.8h1.128v-2.626h2.709v2.626h2.256v1.8h-2.256Z" transform="translate(-3096.704 1915.7)" fill="#fff"/>
      <path d="M3184.074-1912.5a2.6,2.6,0,0,1,.959.958,2.563,2.563,0,0,1,.354,1.313v3.687a2.56,2.56,0,0,1-.354,1.312,2.6,2.6,0,0,1-.959.959,2.593,2.593,0,0,1-1.33.353h-3.9a2.55,2.55,0,0,1-1.321-.353,2.643,2.643,0,0,1-.95-.959,2.56,2.56,0,0,1-.353-1.312v-3.687a2.563,2.563,0,0,1,.353-1.313,2.639,2.639,0,0,1,.95-.958,2.551,2.551,0,0,1,1.321-.353h3.9A2.594,2.594,0,0,1,3184.074-1912.5Zm-1.4,2.81a1.315,1.315,0,0,0-.4-.968,1.316,1.316,0,0,0-.968-.4h-1.042a1.315,1.315,0,0,0-.968.4,1.313,1.313,0,0,0-.4.968v2.609a1.316,1.316,0,0,0,.4.969,1.317,1.317,0,0,0,.968.395h1.042a1.319,1.319,0,0,0,.968-.395,1.317,1.317,0,0,0,.4-.969Z" transform="translate(-3097.184 1915.517)" fill="#fff"/>
      <path d="M3193.537-1911.057h-2.052a1.3,1.3,0,0,0-.952.4,1.316,1.316,0,0,0-.4.968v5.772h-2.709v-6.311a2.566,2.566,0,0,1,.354-1.313,2.613,2.613,0,0,1,.958-.958,2.564,2.564,0,0,1,1.313-.353h3.483Z" transform="translate(-3097.913 1915.517)" fill="#fff"/>
    </g>
  </g>
  <g transform="translate(927.622 134.278)" style="isolation: isolate">
    <g style="isolation: isolate">
      <path d="M3418.738-1904.105h-7.674a3.329,3.329,0,0,1-1.726-.463,3.451,3.451,0,0,1-1.245-1.254,3.339,3.339,0,0,1-.463-1.717v-4.729a3.291,3.291,0,0,1,.463-1.707,3.472,3.472,0,0,1,1.245-1.245,3.322,3.322,0,0,1,1.726-.464h7.674v1.8h-6.767a1.568,1.568,0,0,0-1.143.463,1.549,1.549,0,0,0-.472,1.153v4.729a1.556,1.556,0,0,0,.472,1.144,1.554,1.554,0,0,0,1.143.471h6.767Z" transform="translate(-3407.63 1915.684)" fill="#fff"/>
      <path d="M3423.912-1904.1h-2.71v-11.562h2.71Z" transform="translate(-3408.512 1915.683)" fill="#fff"/>
      <path d="M3426.008-1915.666h2.693v2.626h-2.693Zm0,3.3h2.693v8.263h-2.693Z" transform="translate(-3408.825 1915.683)" fill="#fff"/>
      <path d="M3437.949-1912.857a1.706,1.706,0,0,1,1.254.512,1.708,1.708,0,0,1,.513,1.254v1.97a1.712,1.712,0,0,1-.513,1.244,1.69,1.69,0,0,1-1.254.522h-4.712v.606a.982.982,0,0,0,.3.724.987.987,0,0,0,.723.3h5.252v1.8h-6.143a2.769,2.769,0,0,1-1.422-.379,2.807,2.807,0,0,1-1.027-1.027,2.766,2.766,0,0,1-.379-1.422v-3.282a2.763,2.763,0,0,1,.379-1.421,2.81,2.81,0,0,1,1.027-1.028,2.767,2.767,0,0,1,1.422-.378Zm-1.154,3.491a.672.672,0,0,0,.21-.5v-.489a.676.676,0,0,0-.21-.5.682.682,0,0,0-.5-.21h-2.036a.985.985,0,0,0-.723.3.981.981,0,0,0-.3.723v.876h3.062A.679.679,0,0,0,3436.8-1909.366Z" transform="translate(-3409.12 1915.5)" fill="#fff"/>
      <path d="M3448.22-1903.921v-5.772a1.317,1.317,0,0,0-.4-.968,1.315,1.315,0,0,0-.968-.4h-1.042a1.314,1.314,0,0,0-.968.4,1.316,1.316,0,0,0-.4.968v5.772h-2.693v-6.311a2.563,2.563,0,0,1,.353-1.313,2.605,2.605,0,0,1,.959-.958,2.56,2.56,0,0,1,1.312-.353h3.906a2.6,2.6,0,0,1,1.33.353,2.6,2.6,0,0,1,.958.958,2.564,2.564,0,0,1,.354,1.313v6.311Z" transform="translate(-3409.849 1915.5)" fill="#fff"/>
      <path d="M3456.268-1906.931a.986.986,0,0,0,.3.724.988.988,0,0,0,.724.3h1.229v1.8h-2.137a2.73,2.73,0,0,1-1.355-.353,2.936,2.936,0,0,1-1.027-.95,2.7,2.7,0,0,1-.446-1.321v-4.511h-1.127v-1.8h1.127v-2.626h2.709v2.626h2.255v1.8h-2.255Z" transform="translate(-3410.543 1915.683)" fill="#fff"/>
    </g>
  </g>
  <g transform="translate(216.201 224.971)" style="isolation: isolate">
    <g style="isolation: isolate">
      <path d="M2650.514-1816.6a2.165,2.165,0,0,0-.79.783,2.1,2.1,0,0,0-.295,1.085v.926h8.415v1.8h-8.415v.926a2.1,2.1,0,0,0,.295,1.086,2.159,2.159,0,0,0,.79.782,2.109,2.109,0,0,0,1.069.286h6.261v1.818h-7.153a3.81,3.81,0,0,1-1.985-.538,3.979,3.979,0,0,1-1.439-1.447,3.863,3.863,0,0,1-.532-1.986v-3.652a3.865,3.865,0,0,1,.532-1.986,3.92,3.92,0,0,1,1.439-1.439,3.865,3.865,0,0,1,1.985-.53h7.153v1.8h-6.261A2.119,2.119,0,0,0,2650.514-1816.6Z" transform="translate(-2646.736 1818.684)"/>
      <path d="M2666.412-1815.857h2.71l-3.517,8.936h-2.71l-3.45-8.936h2.709l2.1,5.453Z" transform="translate(-2647.563 1818.5)"/>
      <path d="M2677.992-1815.857a1.706,1.706,0,0,1,1.254.512,1.7,1.7,0,0,1,.512,1.254v1.97a1.709,1.709,0,0,1-.512,1.244,1.689,1.689,0,0,1-1.254.522h-4.712v.606a.982.982,0,0,0,.3.724.987.987,0,0,0,.723.3h5.252v1.8h-6.143a2.769,2.769,0,0,1-1.422-.379,2.808,2.808,0,0,1-1.027-1.027,2.766,2.766,0,0,1-.379-1.422v-3.282a2.763,2.763,0,0,1,.379-1.421,2.81,2.81,0,0,1,1.027-1.027,2.766,2.766,0,0,1,1.422-.378Zm-1.154,3.491a.671.671,0,0,0,.21-.5v-.489a.675.675,0,0,0-.21-.5.681.681,0,0,0-.5-.21h-2.036a.985.985,0,0,0-.723.3.981.981,0,0,0-.3.723v.876h3.062A.678.678,0,0,0,2676.838-1812.366Z" transform="translate(-2648.287 1818.5)"/>
      <path d="M2688.263-1806.922v-5.772a1.317,1.317,0,0,0-.4-.968,1.315,1.315,0,0,0-.968-.4h-1.042a1.313,1.313,0,0,0-.968.4,1.317,1.317,0,0,0-.4.968v5.772H2681.8v-6.311a2.563,2.563,0,0,1,.354-1.313,2.605,2.605,0,0,1,.959-.958,2.558,2.558,0,0,1,1.312-.353h3.905a2.6,2.6,0,0,1,1.33.353,2.612,2.612,0,0,1,.958.958,2.567,2.567,0,0,1,.354,1.313v6.311Z" transform="translate(-2649.016 1818.5)"/>
      <path d="M2696.311-1809.931a.985.985,0,0,0,.3.724.986.986,0,0,0,.724.3h1.229v1.8h-2.137a2.731,2.731,0,0,1-1.355-.353,2.93,2.93,0,0,1-1.026-.95,2.7,2.7,0,0,1-.446-1.321v-4.511h-1.126v-1.8h1.126v-2.626h2.709v2.626h2.255v1.8h-2.255Z" transform="translate(-2649.71 1818.683)"/>
    </g>
  </g>
  <g transform="translate(190.736 249.173)">
    <rect width="101.913" height="2.805"/>
  </g>
  <g transform="translate(504.175 224.971)" style="isolation: isolate">
    <g style="isolation: isolate">
      <path d="M2958.514-1816.6a2.165,2.165,0,0,0-.79.783,2.1,2.1,0,0,0-.294,1.085v.926h8.415v1.8h-8.415v.926a2.1,2.1,0,0,0,.294,1.086,2.159,2.159,0,0,0,.79.782,2.109,2.109,0,0,0,1.069.286h6.261v1.818h-7.153a3.81,3.81,0,0,1-1.985-.538,3.977,3.977,0,0,1-1.439-1.447,3.863,3.863,0,0,1-.532-1.986v-3.652a3.865,3.865,0,0,1,.532-1.986,3.918,3.918,0,0,1,1.439-1.439,3.865,3.865,0,0,1,1.985-.53h7.153v1.8h-6.261A2.119,2.119,0,0,0,2958.514-1816.6Z" transform="translate(-2954.736 1818.684)"/>
      <path d="M2974.411-1815.857h2.71l-3.517,8.936H2970.9l-3.45-8.936h2.709l2.1,5.453Z" transform="translate(-2955.563 1818.5)"/>
      <path d="M2985.992-1815.857a1.706,1.706,0,0,1,1.254.512,1.706,1.706,0,0,1,.512,1.254v1.97a1.71,1.71,0,0,1-.512,1.244,1.689,1.689,0,0,1-1.254.522h-4.712v.606a.982.982,0,0,0,.3.724.987.987,0,0,0,.723.3h5.252v1.8h-6.143a2.769,2.769,0,0,1-1.422-.379,2.807,2.807,0,0,1-1.027-1.027,2.766,2.766,0,0,1-.379-1.422v-3.282a2.763,2.763,0,0,1,.379-1.421,2.809,2.809,0,0,1,1.027-1.027,2.766,2.766,0,0,1,1.422-.378Zm-1.154,3.491a.672.672,0,0,0,.21-.5v-.489a.676.676,0,0,0-.21-.5.681.681,0,0,0-.5-.21h-2.036a.985.985,0,0,0-.723.3.981.981,0,0,0-.3.723v.876h3.062A.679.679,0,0,0,2984.838-1812.366Z" transform="translate(-2956.287 1818.5)"/>
      <path d="M2996.263-1806.922v-5.772a1.317,1.317,0,0,0-.4-.968,1.315,1.315,0,0,0-.968-.4h-1.043a1.313,1.313,0,0,0-.968.4,1.316,1.316,0,0,0-.4.968v5.772H2989.8v-6.311a2.563,2.563,0,0,1,.353-1.313,2.606,2.606,0,0,1,.959-.958,2.557,2.557,0,0,1,1.312-.353h3.906a2.6,2.6,0,0,1,1.33.353,2.612,2.612,0,0,1,.958.958,2.564,2.564,0,0,1,.354,1.313v6.311Z" transform="translate(-2957.016 1818.5)"/>
      <path d="M3004.311-1809.931a.986.986,0,0,0,.3.724.987.987,0,0,0,.724.3h1.229v1.8h-2.137a2.73,2.73,0,0,1-1.355-.353,2.937,2.937,0,0,1-1.027-.95,2.7,2.7,0,0,1-.446-1.321v-4.511h-1.126v-1.8h1.126v-2.626h2.709v2.626h2.255v1.8h-2.255Z" transform="translate(-2957.71 1818.683)"/>
    </g>
  </g>
  <g transform="translate(463.75 249.173)">
    <rect width="127.157" height="2.805"/>
  </g>
  <g transform="translate(95.919 205.057)">
    <path d="M2526.851-1828.952l-8.762-9.781,1.393-1.247,7.374,8.232,7.438-8.235,1.388,1.254Z" transform="translate(-2518.089 1839.983)"/>
  </g>
  <g transform="translate(377.265 174.842)">
    <rect width="2.805" height="39.269"/>
  </g>
  <g transform="translate(369.868 205.057)">
    <path d="M2819.851-1828.952l-8.762-9.781,1.393-1.247,7.374,8.232,7.438-8.235,1.388,1.254Z" transform="translate(-2811.089 1839.983)"/>
  </g>
  <g transform="translate(676.458 174.842)">
    <rect width="2.805" height="39.269"/>
  </g>
  <g transform="translate(669.062 205.057)">
    <path d="M3139.851-1828.952l-8.762-9.781,1.393-1.247,7.374,8.232,7.438-8.235,1.388,1.254Z" transform="translate(-3131.089 1839.983)"/>
  </g>
  <g transform="translate(950.408 175.197)">
    <rect width="2.805" height="39.269"/>
  </g>
  <g transform="translate(943.011 205.412)">
    <path d="M3432.851-1828.572l-8.762-9.781,1.393-1.247,7.374,8.232,7.438-8.235,1.388,1.254Z" transform="translate(-3424.089 1839.603)"/>
  </g>
  <g transform="translate(789.344 224.971)" style="isolation: isolate">
    <g style="isolation: isolate">
      <path d="M3263.514-1816.6a2.164,2.164,0,0,0-.79.783,2.1,2.1,0,0,0-.295,1.085v.926h8.415v1.8h-8.415v.926a2.1,2.1,0,0,0,.295,1.086,2.158,2.158,0,0,0,.79.782,2.11,2.11,0,0,0,1.07.286h6.261v1.818h-7.153a3.81,3.81,0,0,1-1.985-.538,3.979,3.979,0,0,1-1.439-1.447,3.863,3.863,0,0,1-.532-1.986v-3.652a3.865,3.865,0,0,1,.532-1.986,3.92,3.92,0,0,1,1.439-1.439,3.865,3.865,0,0,1,1.985-.53h7.153v1.8h-6.261A2.12,2.12,0,0,0,3263.514-1816.6Z" transform="translate(-3259.736 1818.684)"/>
      <path d="M3279.412-1815.857h2.71l-3.517,8.936h-2.71l-3.45-8.936h2.709l2.1,5.453Z" transform="translate(-3260.563 1818.5)"/>
      <path d="M3290.992-1815.857a1.706,1.706,0,0,1,1.254.512,1.7,1.7,0,0,1,.512,1.254v1.97a1.709,1.709,0,0,1-.512,1.244,1.689,1.689,0,0,1-1.254.522h-4.712v.606a.982.982,0,0,0,.3.724.987.987,0,0,0,.723.3h5.252v1.8h-6.143a2.769,2.769,0,0,1-1.422-.379,2.808,2.808,0,0,1-1.027-1.027,2.766,2.766,0,0,1-.379-1.422v-3.282a2.763,2.763,0,0,1,.379-1.421,2.81,2.81,0,0,1,1.027-1.027,2.766,2.766,0,0,1,1.422-.378Zm-1.154,3.491a.671.671,0,0,0,.21-.5v-.489a.675.675,0,0,0-.21-.5.681.681,0,0,0-.5-.21h-2.036a.985.985,0,0,0-.723.3.981.981,0,0,0-.3.723v.876h3.062A.678.678,0,0,0,3289.838-1812.366Z" transform="translate(-3261.287 1818.5)"/>
      <path d="M3301.263-1806.922v-5.772a1.317,1.317,0,0,0-.4-.968,1.315,1.315,0,0,0-.968-.4h-1.042a1.313,1.313,0,0,0-.968.4,1.317,1.317,0,0,0-.4.968v5.772H3294.8v-6.311a2.563,2.563,0,0,1,.354-1.313,2.605,2.605,0,0,1,.959-.958,2.558,2.558,0,0,1,1.312-.353h3.905a2.6,2.6,0,0,1,1.33.353,2.612,2.612,0,0,1,.958.958,2.567,2.567,0,0,1,.354,1.313v6.311Z" transform="translate(-3262.016 1818.5)"/>
      <path d="M3309.311-1809.931a.986.986,0,0,0,.3.724.987.987,0,0,0,.724.3h1.229v1.8h-2.137a2.731,2.731,0,0,1-1.355-.353,2.934,2.934,0,0,1-1.026-.95,2.7,2.7,0,0,1-.446-1.321v-4.511h-1.127v-1.8h1.127v-2.626h2.709v2.626h2.255v1.8h-2.255Z" transform="translate(-3262.71 1818.683)"/>
    </g>
  </g>
  <g transform="translate(627.844 25.562)">
    <path d="M3096.783-2014.368,3087-2023.2l9.781-8.761,1.247,1.392-8.232,7.375,8.235,7.438Z" transform="translate(-3087.005 2031.96)"/>
  </g>
  <g transform="translate(418.245 25.562)">
    <path d="M2864.083-2014.368l-1.253-1.388,8.235-7.437-8.232-7.375,1.247-1.392,9.781,8.762Z" transform="translate(-2862.83 2031.96)"/>
  </g>
  <g transform="translate(582.801 241.775)">
    <path d="M3040.083-1783.119l-1.253-1.388,8.235-7.437-8.232-7.375,1.247-1.392,9.781,8.762Z" transform="translate(-3038.83 1800.711)"/>
  </g>
  <g transform="translate(462.352 241.776)">
    <path d="M2919.783-1783.118l-9.778-8.831,9.781-8.761,1.247,1.392-8.232,7.374,8.235,7.438Z" transform="translate(-2910.005 1800.71)"/>
  </g>
  <g transform="translate(283.608 241.776)">
    <path d="M2720.083-1783.118l-1.253-1.388,8.235-7.437-8.232-7.375,1.247-1.392,9.781,8.762Z" transform="translate(-2718.83 1800.71)"/>
  </g>
  <g transform="translate(188.403 241.776)">
    <path d="M2626.783-1783.118l-9.778-8.831,9.781-8.761,1.247,1.392-8.232,7.374,8.235,7.438Z" transform="translate(-2617.005 1800.71)"/>
  </g>
  <g transform="translate(763.879 249.173)">
    <rect width="101.913" height="2.805"/>
  </g>
  <g transform="translate(856.751 241.776)">
    <path d="M3333.083-1783.118l-1.253-1.388,8.235-7.437-8.232-7.375,1.247-1.392,9.781,8.762Z" transform="translate(-3331.83 1800.71)"/>
  </g>
  <g transform="translate(761.546 241.776)">
    <path d="M3239.783-1783.118l-9.778-8.831,9.781-8.761,1.247,1.392-8.232,7.374,8.235,7.438Z" transform="translate(-3230.005 1800.71)"/>
  </g>
  <g transform="translate(95.919 284.695)">
    <path d="M2534.294-1743.776l-7.438-8.235-7.374,8.232-1.393-1.247,8.762-9.781,8.831,9.777Z" transform="translate(-2518.089 1754.807)"/>
  </g>
  <g transform="translate(369.868 284.695)">
    <path d="M2827.294-1743.776l-7.438-8.235-7.374,8.232-1.393-1.247,8.762-9.781,8.831,9.777Z" transform="translate(-2811.089 1754.807)"/>
  </g>
  <g transform="translate(669.062 284.695)">
    <path d="M3147.294-1743.776l-7.438-8.235-7.374,8.232-1.393-1.247,8.762-9.781,8.831,9.777Z" transform="translate(-3131.089 1754.807)"/>
  </g>
  <g transform="translate(942.076 284.695)">
    <path d="M3439.294-1743.776l-7.438-8.235-7.374,8.232-1.393-1.247,8.762-9.781,8.831,9.777Z" transform="translate(-3423.089 1754.807)"/>
  </g>
</svg>
