<svg xmlns="http://www.w3.org/2000/svg" width="971.445" height="462.243" viewBox="0 0 971.445 462.243">
  <g transform="translate(386.147 0)">
    <g transform="translate(0 0)">
      <rect width="199" height="210" rx="10" transform="translate(0.075 0.242)" fill="#fff"/>
    </g>
    <g>
      <path d="M4532.54-192.325H4352.088a9.361,9.361,0,0,1-9.35-9.35V-393.346a9.361,9.361,0,0,1,9.35-9.35H4532.54a9.36,9.36,0,0,1,9.35,9.35v191.671A9.36,9.36,0,0,1,4532.54-192.325ZM4352.088-399.891a6.552,6.552,0,0,0-6.544,6.545v191.671a6.552,6.552,0,0,0,6.544,6.545H4532.54a6.552,6.552,0,0,0,6.545-6.545V-393.346a6.552,6.552,0,0,0-6.545-6.545Z" transform="translate(-4342.739 402.696)" fill="#bd3454"/>
    </g>
  </g>
  <g transform="translate(386.147 307.609)">
    <g transform="translate(0 0)">
      <rect width="199" height="155" rx="10" transform="translate(0.075 -0.366)" fill="#fff"/>
    </g>
    <g>
      <path d="M4532.54,80.576H4352.088a9.361,9.361,0,0,1-9.35-9.35V-64.346a9.361,9.361,0,0,1,9.35-9.35H4532.54a9.36,9.36,0,0,1,9.35,9.35V71.226A9.36,9.36,0,0,1,4532.54,80.576ZM4352.088-70.891a6.552,6.552,0,0,0-6.544,6.545V71.226a6.552,6.552,0,0,0,6.544,6.545H4532.54a6.552,6.552,0,0,0,6.545-6.545V-64.346a6.552,6.552,0,0,0-6.545-6.545Z" transform="translate(-4342.739 73.696)" fill="#bd3454"/>
    </g>
  </g>
  <g transform="translate(418.798 358.717)" style="isolation: isolate">
    <g transform="translate(0 0)" style="isolation: isolate">
      <path d="M4382.889-16.2a3.309,3.309,0,0,0-1.179,1.178,3.129,3.129,0,0,0-.437,1.616V-9.25a3.189,3.189,0,0,0,.437,1.627,3.274,3.274,0,0,0,1.179,1.189A3.118,3.118,0,0,0,4384.5-6h4.376v-6.261h3.591V-3.6h-9.178a5.489,5.489,0,0,1-2.829-.763,5.586,5.586,0,0,1-2.052-2.064,5.558,5.558,0,0,1-.752-2.827V-13.4a5.5,5.5,0,0,1,.752-2.816,5.619,5.619,0,0,1,2.052-2.053,5.5,5.5,0,0,1,2.829-.763h9.178v2.4H4384.5A3.118,3.118,0,0,0,4382.889-16.2Z" transform="translate(-4377.66 19.034)"/>
      <path d="M4408.907-15.266V-3.351h-3.591v-.628a9.084,9.084,0,0,1-3.321.628h-3.657a2.846,2.846,0,0,1-1.459-.393,2.915,2.915,0,0,1-1.066-1.066,2.855,2.855,0,0,1-.393-1.459v-6.081a2.855,2.855,0,0,1,.393-1.459,2.915,2.915,0,0,1,1.066-1.066,2.855,2.855,0,0,1,1.459-.393h3.634a9.261,9.261,0,0,1,3.343.628v-.628Zm-3.591,8.886v-5.857a9.142,9.142,0,0,0-3.343-.628h-1.144a1.758,1.758,0,0,0-1.291.527,1.757,1.757,0,0,0-.528,1.29v3.478a1.755,1.755,0,0,0,.528,1.29,1.755,1.755,0,0,0,1.291.527h1.144A9.142,9.142,0,0,0,4405.316-6.38Z" transform="translate(-4378.815 18.789)"/>
      <path d="M4429.231-14.795a3.5,3.5,0,0,1,1.28,1.279,3.415,3.415,0,0,1,.471,1.75v8.415h-3.614v-7.7a1.759,1.759,0,0,0-.526-1.29,1.734,1.734,0,0,0-1.269-.527h-.538a1.734,1.734,0,0,0-1.268.527,1.76,1.76,0,0,0-.527,1.29v7.7h-3.613v-7.7a1.753,1.753,0,0,0-.527-1.29,1.73,1.73,0,0,0-1.268-.527h-.516a1.755,1.755,0,0,0-1.29.527,1.753,1.753,0,0,0-.528,1.29v7.7h-3.59v-8.415a3.411,3.411,0,0,1,.471-1.75,3.5,3.5,0,0,1,1.278-1.279,3.417,3.417,0,0,1,1.75-.471h3.366a4.522,4.522,0,0,1,2.67.875,4.43,4.43,0,0,1,2.648-.875h3.389A3.417,3.417,0,0,1,4429.231-14.795Z" transform="translate(-4379.887 18.789)"/>
      <path d="M4444.245-15.266a2.278,2.278,0,0,1,1.672.684,2.28,2.28,0,0,1,.684,1.672v2.625a2.289,2.289,0,0,1-.684,1.661,2.26,2.26,0,0,1-1.672.7h-6.284v.808a1.313,1.313,0,0,0,.405.965,1.315,1.315,0,0,0,.964.4h7v2.4h-8.191a3.693,3.693,0,0,1-1.9-.5,3.753,3.753,0,0,1-1.368-1.369,3.688,3.688,0,0,1-.505-1.9V-11.5a3.69,3.69,0,0,1,.505-1.9,3.76,3.76,0,0,1,1.368-1.369,3.693,3.693,0,0,1,1.9-.5Zm-1.538,4.656a.906.906,0,0,0,.281-.662v-.651a.908.908,0,0,0-.281-.662.9.9,0,0,0-.661-.28h-2.715a1.314,1.314,0,0,0-.964.4,1.315,1.315,0,0,0-.405.965v1.167h4.085A.9.9,0,0,0,4442.707-10.61Z" transform="translate(-4381.348 18.789)"/>
      <path d="M4467.673-3.594h-3.614V-19.01h3.614Z" transform="translate(-4383.278 19.032)"/>
      <path d="M4480.611-14.795a3.493,3.493,0,0,1,1.278,1.279,3.415,3.415,0,0,1,.471,1.75v4.914a3.415,3.415,0,0,1-.471,1.75,3.493,3.493,0,0,1-1.278,1.279,3.457,3.457,0,0,1-1.773.471h-5.206a3.4,3.4,0,0,1-1.761-.471A3.532,3.532,0,0,1,4470.6-5.1a3.411,3.411,0,0,1-.471-1.75v-4.914a3.411,3.411,0,0,1,.471-1.75,3.532,3.532,0,0,1,1.268-1.279,3.4,3.4,0,0,1,1.761-.471h5.206A3.457,3.457,0,0,1,4480.611-14.795Zm-1.862,3.747a1.757,1.757,0,0,0-.528-1.29,1.76,1.76,0,0,0-1.291-.527h-1.39a1.759,1.759,0,0,0-1.291.527,1.756,1.756,0,0,0-.527,1.29v3.478a1.755,1.755,0,0,0,.527,1.29,1.756,1.756,0,0,0,1.291.527h1.39a1.756,1.756,0,0,0,1.291-.527,1.755,1.755,0,0,0,.528-1.29Z" transform="translate(-4383.672 18.789)"/>
      <path d="M4498.591-15.266V-3.6a3.684,3.684,0,0,1-.5,1.9,3.843,3.843,0,0,1-1.369,1.38,3.642,3.642,0,0,1-1.9.516H4485.6V-2.229h8.011a1.342,1.342,0,0,0,.987-.4,1.318,1.318,0,0,0,.4-.965V-5.46a12.324,12.324,0,0,1-4.242.853H4488A2.836,2.836,0,0,1,4486.542-5a2.892,2.892,0,0,1-1.066-1.077,2.906,2.906,0,0,1-.393-1.47v-4.8a2.845,2.845,0,0,1,.393-1.459,2.917,2.917,0,0,1,1.066-1.066,2.854,2.854,0,0,1,1.458-.393h2.737a12.993,12.993,0,0,1,4.264.83v-.83Zm-6.956,8.235A15.592,15.592,0,0,0,4495-8.018v-3.837a16.908,16.908,0,0,0-3.366-1.01h-1.144a1.769,1.769,0,0,0-1.279.527,1.739,1.739,0,0,0-.539,1.29v2.2a1.737,1.737,0,0,0,.539,1.29,1.765,1.765,0,0,0,1.279.527Z" transform="translate(-4384.645 18.789)"/>
      <path d="M4501.738-19.01h3.591v3.5h-3.591Zm0,4.4h3.591V-3.594h-3.591Z" transform="translate(-4385.728 19.032)"/>
      <path d="M4520.017-3.351h-8.707a3.459,3.459,0,0,1-1.774-.471,3.5,3.5,0,0,1-1.278-1.279,3.457,3.457,0,0,1-.471-1.773v-4.869a3.457,3.457,0,0,1,.471-1.773,3.5,3.5,0,0,1,1.278-1.279,3.459,3.459,0,0,1,1.774-.471h8.707v2.4h-6.823a1.767,1.767,0,0,0-1.278.527,1.735,1.735,0,0,0-.539,1.29v3.478a1.733,1.733,0,0,0,.539,1.29,1.764,1.764,0,0,0,1.278.527h6.823Z" transform="translate(-4386.121 18.789)"/>
    </g>
  </g>
  <g transform="translate(772.294 0)">
    <g transform="translate(0 0)">
      <rect width="199" height="210" rx="10" transform="translate(-0.072 0.242)" fill="#fff"/>
    </g>
    <g>
      <path d="M4945.54-192.325H4765.089a9.361,9.361,0,0,1-9.35-9.35V-393.346a9.361,9.361,0,0,1,9.35-9.35H4945.54a9.36,9.36,0,0,1,9.35,9.35v191.671A9.36,9.36,0,0,1,4945.54-192.325ZM4765.089-399.891a6.553,6.553,0,0,0-6.545,6.545v191.671a6.553,6.553,0,0,0,6.545,6.545H4945.54a6.552,6.552,0,0,0,6.545-6.545V-393.346a6.552,6.552,0,0,0-6.545-6.545Z" transform="translate(-4755.739 402.696)" fill="#bd3454"/>
    </g>
  </g>
  <g transform="translate(841.33 97.227)" style="isolation: isolate">
    <g style="isolation: isolate">
      <path d="M4842.142-291.684a4.534,4.534,0,0,1,1.638,1.638,4.4,4.4,0,0,1,.606,2.266,4.4,4.4,0,0,1-.606,2.266,4.526,4.526,0,0,1-1.638,1.638,4.357,4.357,0,0,1-2.245.606H4830.2v-2.423h8.482a2.049,2.049,0,0,0,1.492-.606,2,2,0,0,0,.617-1.481,2,2,0,0,0-.617-1.481,2.052,2.052,0,0,0-1.492-.6H4834a4.286,4.286,0,0,1-2.221-.6,4.429,4.429,0,0,1-1.6-1.616,4.306,4.306,0,0,1-.594-2.21,4.292,4.292,0,0,1,.594-2.221,4.463,4.463,0,0,1,1.6-1.6,4.294,4.294,0,0,1,2.221-.595h9.491v2.4h-8.3a1.944,1.944,0,0,0-1.425.6,1.938,1.938,0,0,0-.594,1.424,1.9,1.9,0,0,0,.594,1.414,1.959,1.959,0,0,0,1.425.583h4.711A4.367,4.367,0,0,1,4842.142-291.684Z" transform="translate(-4829.576 298.708)"/>
      <path d="M4851.564-287.038a1.314,1.314,0,0,0,.4.965,1.315,1.315,0,0,0,.964.4h1.638v2.4h-2.849a3.642,3.642,0,0,1-1.807-.471,3.917,3.917,0,0,1-1.369-1.268,3.587,3.587,0,0,1-.594-1.762v-6.014h-1.5v-2.4h1.5v-3.5h3.613v3.5h3.006v2.4h-3.006Z" transform="translate(-4830.673 298.706)"/>
      <path d="M4869.773-294.94v11.915h-3.59v-.628a9.065,9.065,0,0,1-3.321.628h-3.656a2.836,2.836,0,0,1-1.459-.393,2.913,2.913,0,0,1-1.067-1.065,2.858,2.858,0,0,1-.393-1.46v-6.081a2.852,2.852,0,0,1,.393-1.458,2.9,2.9,0,0,1,1.067-1.067,2.854,2.854,0,0,1,1.459-.393h3.634a9.282,9.282,0,0,1,3.344.628v-.628Zm-3.59,8.886v-5.857a9.145,9.145,0,0,0-3.344-.628H4861.7a1.759,1.759,0,0,0-1.291.527,1.756,1.756,0,0,0-.527,1.29v3.478a1.755,1.755,0,0,0,.527,1.29,1.756,1.756,0,0,0,1.291.527h1.144A9.145,9.145,0,0,0,4866.183-286.054Z" transform="translate(-4831.313 298.463)"/>
      <path d="M4876.979-287.038a1.313,1.313,0,0,0,.4.965,1.312,1.312,0,0,0,.964.4h1.638v2.4h-2.85a3.642,3.642,0,0,1-1.807-.471,3.9,3.9,0,0,1-1.368-1.268,3.592,3.592,0,0,1-.594-1.762v-6.014h-1.5v-2.4h1.5v-3.5h3.613v3.5h3.006v2.4h-3.006Z" transform="translate(-4832.326 298.706)"/>
      <path d="M4891.577-294.94a2.274,2.274,0,0,1,1.671.684,2.275,2.275,0,0,1,.685,1.673v2.625a2.286,2.286,0,0,1-.685,1.661,2.255,2.255,0,0,1-1.671.695h-6.283v.808a1.316,1.316,0,0,0,.4.965,1.316,1.316,0,0,0,.965.4h7v2.4h-8.191a3.674,3.674,0,0,1-1.9-.5,3.746,3.746,0,0,1-1.37-1.369,3.7,3.7,0,0,1-.5-1.9v-4.376a3.7,3.7,0,0,1,.5-1.9,3.76,3.76,0,0,1,1.37-1.369,3.683,3.683,0,0,1,1.9-.5Zm-1.537,4.657a.913.913,0,0,0,.279-.662v-.652a.911.911,0,0,0-.279-.662.908.908,0,0,0-.663-.281h-2.714a1.316,1.316,0,0,0-.965.4,1.317,1.317,0,0,0-.4.965V-290h4.083A.908.908,0,0,0,4890.04-290.283Z" transform="translate(-4832.965 298.463)"/>
    </g>
  </g>
  <g transform="translate(772.294 307.609)">
    <g transform="translate(0 0)">
      <rect width="199" height="155" rx="10" transform="translate(-0.072 -0.366)" fill="#fff"/>
    </g>
    <g>
      <path d="M4945.54,80.576H4765.089a9.361,9.361,0,0,1-9.35-9.35V-64.346a9.361,9.361,0,0,1,9.35-9.35H4945.54a9.36,9.36,0,0,1,9.35,9.35V71.226A9.36,9.36,0,0,1,4945.54,80.576ZM4765.089-70.891a6.553,6.553,0,0,0-6.545,6.545V71.226a6.553,6.553,0,0,0,6.545,6.545H4945.54a6.552,6.552,0,0,0,6.545-6.545V-64.346a6.552,6.552,0,0,0-6.545-6.545Z" transform="translate(-4755.739 73.696)" fill="#bd3454"/>
    </g>
  </g>
  <g transform="translate(814.223 376.764)" style="isolation: isolate">
    <g transform="translate(0 0)" style="isolation: isolate">
      <path d="M4813.891.268h3.614V15.729h-3.614V5.676l-2.984,4.533h-3.567L4804.2,5.564V15.729h-3.613V.268h3.613l4.915,7.248Z" transform="translate(-4800.584 -0.268)"/>
      <path d="M4830.593,4.06a2.339,2.339,0,0,1,2.357,2.357V9.042a2.283,2.283,0,0,1-.686,1.661,2.255,2.255,0,0,1-1.672.695h-6.282v.808a1.377,1.377,0,0,0,1.368,1.369h7v2.4h-8.191a3.674,3.674,0,0,1-1.9-.5,3.74,3.74,0,0,1-1.37-1.369,3.691,3.691,0,0,1-.5-1.9V7.83a3.693,3.693,0,0,1,.5-1.9,3.754,3.754,0,0,1,1.37-1.369,3.683,3.683,0,0,1,1.9-.5Zm-1.536,4.657a.913.913,0,0,0,.279-.662V7.4a.956.956,0,0,0-.942-.942h-2.715a1.377,1.377,0,0,0-1.368,1.369V9h4.083A.908.908,0,0,0,4829.058,8.717Z" transform="translate(-4801.893 -0.515)"/>
      <path d="M4840.092,6.461a1.11,1.11,0,0,0-.831.348,1.17,1.17,0,0,0-.336.841,1.14,1.14,0,0,0,.336.819,1.107,1.107,0,0,0,.831.348h3.859a3.5,3.5,0,0,1,1.807.483,3.617,3.617,0,0,1,1.3,1.3,3.5,3.5,0,0,1,.483,1.806,3.451,3.451,0,0,1-.483,1.784,3.637,3.637,0,0,1-1.3,1.3,3.505,3.505,0,0,1-1.807.482h-8.168v-2.4h6.978a1.145,1.145,0,0,0,.843-.348,1.119,1.119,0,0,0,.348-.819,1.187,1.187,0,0,0-1.19-1.189H4838.9a3.521,3.521,0,0,1-1.795-.482,3.6,3.6,0,0,1-1.312-1.3,3.441,3.441,0,0,1-.482-1.784,3.485,3.485,0,0,1,.482-1.806,3.577,3.577,0,0,1,1.313-1.3,3.5,3.5,0,0,1,1.795-.483h8.078v2.4Z" transform="translate(-4802.842 -0.515)"/>
      <path d="M4854.323,6.461a1.109,1.109,0,0,0-.83.348,1.162,1.162,0,0,0-.336.841,1.133,1.133,0,0,0,.336.819,1.105,1.105,0,0,0,.83.348h3.859a3.5,3.5,0,0,1,1.807.483,3.6,3.6,0,0,1,1.3,1.3,3.5,3.5,0,0,1,.483,1.806,3.451,3.451,0,0,1-.483,1.784,3.615,3.615,0,0,1-1.3,1.3,3.507,3.507,0,0,1-1.807.482h-8.167v-2.4h6.979a1.145,1.145,0,0,0,.841-.348,1.118,1.118,0,0,0,.347-.819,1.186,1.186,0,0,0-1.188-1.189h-3.86a3.521,3.521,0,0,1-1.8-.482,3.6,3.6,0,0,1-1.312-1.3,3.442,3.442,0,0,1-.482-1.784,3.485,3.485,0,0,1,.482-1.806,3.577,3.577,0,0,1,1.313-1.3,3.5,3.5,0,0,1,1.8-.483h8.077v2.4Z" transform="translate(-4803.768 -0.515)"/>
      <path d="M4877.622,4.06V15.975h-3.59v-.628a9.073,9.073,0,0,1-3.321.628h-3.657a2.837,2.837,0,0,1-1.459-.393,2.914,2.914,0,0,1-1.066-1.065,2.849,2.849,0,0,1-.393-1.46V6.977a2.842,2.842,0,0,1,.393-1.458,2.905,2.905,0,0,1,1.066-1.067,2.855,2.855,0,0,1,1.459-.393h3.634a9.29,9.29,0,0,1,3.344.628V4.06Zm-3.59,8.886V7.089a9.151,9.151,0,0,0-3.344-.628h-1.144a1.8,1.8,0,0,0-1.818,1.818v3.478a1.8,1.8,0,0,0,1.818,1.818h1.144A9.151,9.151,0,0,0,4874.031,12.946Z" transform="translate(-4804.716 -0.515)"/>
      <path d="M4893.939,4.06V15.729a3.7,3.7,0,0,1-.5,1.9,3.856,3.856,0,0,1-1.37,1.38,3.628,3.628,0,0,1-1.9.516h-9.225V17.1h8.012a1.343,1.343,0,0,0,.987-.4,1.314,1.314,0,0,0,.4-.964V13.866a12.328,12.328,0,0,1-4.241.853h-2.76a2.843,2.843,0,0,1-1.458-.392,2.963,2.963,0,0,1-1.458-2.548v-4.8a2.823,2.823,0,0,1,.393-1.458,2.906,2.906,0,0,1,1.065-1.067,2.853,2.853,0,0,1,1.458-.393h2.738a13,13,0,0,1,4.264.83V4.06Zm-6.956,8.236a15.605,15.605,0,0,0,3.366-.988V7.471a16.9,16.9,0,0,0-3.366-1.01h-1.145a1.765,1.765,0,0,0-1.278.527,1.734,1.734,0,0,0-.54,1.29v2.2a1.732,1.732,0,0,0,.54,1.29,1.762,1.762,0,0,0,1.278.528Z" transform="translate(-4805.776 -0.515)"/>
      <path d="M4906.625,4.06a2.335,2.335,0,0,1,2.356,2.357V9.042a2.291,2.291,0,0,1-.683,1.661,2.259,2.259,0,0,1-1.673.695h-6.283v.808a1.379,1.379,0,0,0,1.369,1.369h7v2.4h-8.19a3.682,3.682,0,0,1-1.9-.5,3.739,3.739,0,0,1-1.369-1.369,3.7,3.7,0,0,1-.5-1.9V7.83a3.7,3.7,0,0,1,.5-1.9,3.754,3.754,0,0,1,1.369-1.369,3.691,3.691,0,0,1,1.9-.5Zm-1.537,4.657a.908.908,0,0,0,.28-.662V7.4a.958.958,0,0,0-.942-.942h-2.715a1.379,1.379,0,0,0-1.369,1.369V9h4.084A.907.907,0,0,0,4905.087,8.717Z" transform="translate(-4806.837 -0.515)"/>
      <path d="M4916.123,6.461a1.113,1.113,0,0,0-.831.348,1.168,1.168,0,0,0-.336.841,1.138,1.138,0,0,0,.336.819,1.11,1.11,0,0,0,.831.348h3.859a3.5,3.5,0,0,1,1.807.483,3.592,3.592,0,0,1,1.3,1.3,3.5,3.5,0,0,1,.482,1.806,3.451,3.451,0,0,1-.482,1.784,3.611,3.611,0,0,1-1.3,1.3,3.5,3.5,0,0,1-1.807.482h-8.167v-2.4h6.979a1.144,1.144,0,0,0,.841-.348,1.118,1.118,0,0,0,.347-.819,1.186,1.186,0,0,0-1.188-1.189h-3.859a3.516,3.516,0,0,1-1.8-.482,3.6,3.6,0,0,1-1.314-1.3,3.455,3.455,0,0,1-.481-1.784,3.5,3.5,0,0,1,.481-1.806,3.585,3.585,0,0,1,1.314-1.3,3.5,3.5,0,0,1,1.8-.483h8.077v2.4Z" transform="translate(-4807.786 -0.515)"/>
    </g>
  </g>
  <g transform="translate(0 0)">
    <g transform="translate(0 0)">
      <rect width="199" height="210" rx="10" transform="translate(0.222 0.242)" fill="#fff"/>
    </g>
    <g>
      <path d="M4119.54-192.325H3939.089a9.361,9.361,0,0,1-9.35-9.35V-393.346a9.361,9.361,0,0,1,9.35-9.35H4119.54a9.36,9.36,0,0,1,9.35,9.35v191.671A9.36,9.36,0,0,1,4119.54-192.325ZM3939.089-399.891a6.552,6.552,0,0,0-6.545,6.545v191.671a6.552,6.552,0,0,0,6.545,6.545H4119.54a6.551,6.551,0,0,0,6.544-6.545V-393.346a6.551,6.551,0,0,0-6.544-6.545Z" transform="translate(-3929.739 402.696)" fill="#bd3454"/>
    </g>
  </g>
  <g transform="translate(67.364 97.227)" style="isolation: isolate">
    <g style="isolation: isolate">
      <path d="M4006.826-295.925a2.877,2.877,0,0,0-1.055,1.043,2.788,2.788,0,0,0-.393,1.447v1.234h11.22v2.4h-11.22v1.234a2.784,2.784,0,0,0,.393,1.447,2.849,2.849,0,0,0,1.055,1.043,2.79,2.79,0,0,0,1.424.382h8.348v2.423h-9.537a5.1,5.1,0,0,1-2.648-.717,5.336,5.336,0,0,1-1.919-1.931,5.153,5.153,0,0,1-.708-2.648v-4.869a5.158,5.158,0,0,1,.708-2.648,5.239,5.239,0,0,1,1.919-1.919,5.157,5.157,0,0,1,2.648-.707h9.537v2.4h-8.348A2.809,2.809,0,0,0,4006.826-295.925Z" transform="translate(-4001.787 298.708)"/>
      <path d="M4028.021-294.94h3.613l-4.69,11.915h-3.613l-4.6-11.915h3.613l2.8,7.27Z" transform="translate(-4002.889 298.463)"/>
      <path d="M4043.46-294.94a2.278,2.278,0,0,1,1.673.684,2.279,2.279,0,0,1,.683,1.673v2.625a2.29,2.29,0,0,1-.683,1.661,2.259,2.259,0,0,1-1.673.695h-6.283v.808a1.318,1.318,0,0,0,.4.965,1.318,1.318,0,0,0,.966.4h7v2.4h-8.19a3.681,3.681,0,0,1-1.9-.5,3.747,3.747,0,0,1-1.369-1.369,3.7,3.7,0,0,1-.5-1.9v-4.376a3.7,3.7,0,0,1,.5-1.9,3.762,3.762,0,0,1,1.369-1.369,3.69,3.69,0,0,1,1.9-.5Zm-1.537,4.657a.908.908,0,0,0,.281-.662v-.652a.907.907,0,0,0-.281-.662.9.9,0,0,0-.662-.281h-2.714a1.318,1.318,0,0,0-.966.4,1.319,1.319,0,0,0-.4.965V-290h4.084A.9.9,0,0,0,4041.923-290.283Z" transform="translate(-4003.855 298.463)"/>
      <path d="M4057.156-283.025v-7.7a1.757,1.757,0,0,0-.528-1.29,1.758,1.758,0,0,0-1.289-.527h-1.391a1.76,1.76,0,0,0-1.291.527,1.756,1.756,0,0,0-.526,1.29v7.7h-3.59v-8.415a3.413,3.413,0,0,1,.471-1.75,3.5,3.5,0,0,1,1.279-1.279,3.41,3.41,0,0,1,1.75-.471h5.206a3.458,3.458,0,0,1,1.773.471,3.506,3.506,0,0,1,1.279,1.279,3.415,3.415,0,0,1,.471,1.75v8.415Z" transform="translate(-4004.827 298.463)"/>
      <path d="M4067.886-287.038a1.319,1.319,0,0,0,.4.965,1.317,1.317,0,0,0,.964.4h1.638v2.4h-2.85a3.635,3.635,0,0,1-1.806-.471,3.9,3.9,0,0,1-1.369-1.268,3.588,3.588,0,0,1-.595-1.762v-6.014h-1.5v-2.4h1.5v-3.5h3.612v3.5h3.007v2.4h-3.007Z" transform="translate(-4005.752 298.706)"/>
    </g>
  </g>
  <g transform="translate(0 307.609)">
    <g transform="translate(0 0)">
      <rect width="199" height="155" rx="10" transform="translate(0.222 -0.366)" fill="#fff"/>
    </g>
    <g>
      <path d="M4119.54,80.576H3939.089a9.361,9.361,0,0,1-9.35-9.35V-64.346a9.361,9.361,0,0,1,9.35-9.35H4119.54a9.36,9.36,0,0,1,9.35,9.35V71.226A9.36,9.36,0,0,1,4119.54,80.576ZM3939.089-70.891a6.552,6.552,0,0,0-6.545,6.545V71.226a6.552,6.552,0,0,0,6.545,6.545H4119.54a6.551,6.551,0,0,0,6.544-6.545V-64.346a6.551,6.551,0,0,0-6.544-6.545Z" transform="translate(-3929.739 73.696)" fill="#bd3454"/>
    </g>
  </g>
  <g transform="translate(386.147 0)">
    <g>
      <path d="M4352.088-402.7H4532.54a9.349,9.349,0,0,1,9.35,9.35v61.709H4342.739v-61.709A9.35,9.35,0,0,1,4352.088-402.7Z" transform="translate(-4342.739 402.696)" fill="#bd3454"/>
    </g>
    <g>
      <path d="M4532.54-331.637H4352.088a9.361,9.361,0,0,1-9.35-9.35v-52.359a9.361,9.361,0,0,1,9.35-9.35H4532.54a9.36,9.36,0,0,1,9.35,9.35v52.359A9.36,9.36,0,0,1,4532.54-331.637Zm-180.452-68.254a6.552,6.552,0,0,0-6.544,6.545v52.359a6.552,6.552,0,0,0,6.544,6.545H4532.54a6.552,6.552,0,0,0,6.545-6.545v-52.359a6.552,6.552,0,0,0-6.545-6.545Z" transform="translate(-4342.739 402.696)" fill="#bd3454"/>
    </g>
  </g>
  <g transform="translate(422.321 26.613)" style="isolation: isolate">
    <g style="isolation: isolate">
      <path d="M4386.658-371.368a3.277,3.277,0,0,0-1.179,1.177,3.12,3.12,0,0,0-.437,1.616v4.151a3.185,3.185,0,0,0,.437,1.628,3.25,3.25,0,0,0,1.179,1.188,3.108,3.108,0,0,0,1.615.438h4.375v-6.26h3.591v8.661h-9.179a5.48,5.48,0,0,1-2.827-.763,5.6,5.6,0,0,1-2.054-2.064,5.557,5.557,0,0,1-.751-2.827v-4.151a5.5,5.5,0,0,1,.751-2.816,5.634,5.634,0,0,1,2.054-2.053,5.489,5.489,0,0,1,2.827-.763h9.179v2.4h-7.967A3.109,3.109,0,0,0,4386.658-371.368Z" transform="translate(-4381.428 374.23)" fill="#fff"/>
      <path d="M4412.673-370.44v11.915h-3.59v-.628a9.062,9.062,0,0,1-3.32.628h-3.656a2.842,2.842,0,0,1-1.46-.393,2.931,2.931,0,0,1-1.066-1.065,2.857,2.857,0,0,1-.392-1.46v-6.081a2.851,2.851,0,0,1,.392-1.458,2.922,2.922,0,0,1,1.066-1.067,2.86,2.86,0,0,1,1.46-.393h3.633a9.279,9.279,0,0,1,3.344.628v-.628Zm-3.59,8.886v-5.857a9.139,9.139,0,0,0-3.344-.628H4404.6a1.76,1.76,0,0,0-1.291.527,1.757,1.757,0,0,0-.528,1.29v3.478a1.756,1.756,0,0,0,.528,1.29,1.756,1.756,0,0,0,1.291.527h1.143A9.139,9.139,0,0,0,4409.083-361.554Z" transform="translate(-4382.583 373.985)" fill="#fff"/>
      <path d="M4433-369.969a3.5,3.5,0,0,1,1.28,1.279,3.41,3.41,0,0,1,.471,1.75v8.415h-3.613v-7.7a1.76,1.76,0,0,0-.527-1.29,1.734,1.734,0,0,0-1.268-.527h-.539a1.736,1.736,0,0,0-1.269.527,1.759,1.759,0,0,0-.526,1.29v7.7H4423.4v-7.7a1.753,1.753,0,0,0-.528-1.29,1.729,1.729,0,0,0-1.267-.527h-.516a1.756,1.756,0,0,0-1.29.527,1.753,1.753,0,0,0-.527,1.29v7.7h-3.591v-8.415a3.416,3.416,0,0,1,.472-1.75,3.494,3.494,0,0,1,1.279-1.279,3.414,3.414,0,0,1,1.75-.471h3.366a4.528,4.528,0,0,1,2.67.876,4.428,4.428,0,0,1,2.648-.876h3.388A3.409,3.409,0,0,1,4433-369.969Z" transform="translate(-4383.655 373.985)" fill="#fff"/>
      <path d="M4448.013-370.44a2.275,2.275,0,0,1,1.671.684,2.276,2.276,0,0,1,.685,1.673v2.624a2.286,2.286,0,0,1-.685,1.661,2.256,2.256,0,0,1-1.671.695h-6.284v.808a1.316,1.316,0,0,0,.4.965,1.317,1.317,0,0,0,.965.4h7v2.4h-8.191a3.683,3.683,0,0,1-1.9-.5,3.733,3.733,0,0,1-1.368-1.369,3.679,3.679,0,0,1-.506-1.9v-4.376a3.681,3.681,0,0,1,.506-1.9,3.747,3.747,0,0,1,1.368-1.369,3.692,3.692,0,0,1,1.9-.5Zm-1.537,4.657a.91.91,0,0,0,.28-.662v-.652a.908.908,0,0,0-.28-.662.906.906,0,0,0-.661-.281H4443.1a1.317,1.317,0,0,0-.965.4,1.318,1.318,0,0,0-.4.965v1.167h4.085A.9.9,0,0,0,4446.476-365.783Z" transform="translate(-4385.116 373.985)" fill="#fff"/>
      <path d="M4478.759-374.208h3.59v15.438h-3.59l-7.629-10.5v10.5h-3.59v-15.438h3.59l7.629,10.5Z" transform="translate(-4387.027 374.23)" fill="#fff"/>
      <path d="M4490.383-371.426a2.907,2.907,0,0,0-1.055,1.043,2.792,2.792,0,0,0-.392,1.447v2.446h11.22v2.4h-11.22v5.318h-3.591v-10.165a5.156,5.156,0,0,1,.708-2.648,5.243,5.243,0,0,1,1.917-1.919,5.165,5.165,0,0,1,2.648-.707h9.538v2.4h-8.349A2.819,2.819,0,0,0,4490.383-371.426Z" transform="translate(-4388.185 374.23)" fill="#fff"/>
      <path d="M4516.738-374.232v2.423h-5.61v13.037h-3.613v-13.037h-5.61v-2.423Z" transform="translate(-4389.262 374.232)" fill="#fff"/>
    </g>
  </g>
  <g transform="translate(406.438 95.477)" style="isolation: isolate">
    <g transform="translate(0.034)" style="isolation: isolate">
      <path d="M4375.366-294.892a3.657,3.657,0,0,1-1.414,1.363l1.937,4.527h-2.694l-1.749-4.056h-4.259V-289h-2.709V-300.58h7.641a3.692,3.692,0,0,1,1.893.5,3.762,3.762,0,0,1,1.372,1.363,3.646,3.646,0,0,1,.506,1.885A3.706,3.706,0,0,1,4375.366-294.892Zm-8.179.035h4.039a1.91,1.91,0,0,0,1.389-.573,1.886,1.886,0,0,0,.58-1.4,1.868,1.868,0,0,0-.58-1.38,1.909,1.909,0,0,0-1.389-.572h-4.039Z" transform="translate(-4364.477 300.58)"/>
      <path d="M4387.929-297.753v8.936h-2.692v-.471a6.819,6.819,0,0,1-2.491.471H4380a2.125,2.125,0,0,1-1.094-.294,2.162,2.162,0,0,1-.8-.8,2.126,2.126,0,0,1-.3-1.094v-4.561a2.122,2.122,0,0,1,.3-1.093,2.171,2.171,0,0,1,.8-.8,2.133,2.133,0,0,1,1.094-.294h2.727a6.979,6.979,0,0,1,2.508.47v-.47Zm-2.692,6.665v-4.393a6.864,6.864,0,0,0-2.508-.471h-.858a1.315,1.315,0,0,0-.967.4,1.317,1.317,0,0,0-.4.968v2.609a1.319,1.319,0,0,0,.4.969,1.317,1.317,0,0,0,.967.395h.858A6.882,6.882,0,0,0,4385.237-291.088Z" transform="translate(-4365.344 300.396)"/>
      <path d="M4396.5-288.817v-5.773a1.314,1.314,0,0,0-.4-.968,1.313,1.313,0,0,0-.967-.4h-1.043a1.316,1.316,0,0,0-.968.4,1.321,1.321,0,0,0-.4.968v5.773h-2.693v-6.311a2.561,2.561,0,0,1,.354-1.313,2.611,2.611,0,0,1,.959-.958,2.561,2.561,0,0,1,1.313-.353h3.9a2.591,2.591,0,0,1,1.33.353,2.616,2.616,0,0,1,.959.958,2.562,2.562,0,0,1,.354,1.313v6.311Z" transform="translate(-4366.139 300.396)"/>
      <path d="M4411.364-300.58V-289h-2.691v-.471a6.819,6.819,0,0,1-2.491.471h-2.761a2.077,2.077,0,0,1-1.084-.294,2.183,2.183,0,0,1-.791-.8,2.125,2.125,0,0,1-.294-1.094v-4.561a2.121,2.121,0,0,1,.294-1.093,2.193,2.193,0,0,1,.791-.8,2.085,2.085,0,0,1,1.084-.294h2.744a6.882,6.882,0,0,1,2.508.47v-3.113Zm-2.691,9.308v-4.393a6.863,6.863,0,0,0-2.508-.471h-.858a1.315,1.315,0,0,0-.967.4,1.313,1.313,0,0,0-.4.968v2.609a1.315,1.315,0,0,0,.4.969,1.317,1.317,0,0,0,.967.395h.858A6.882,6.882,0,0,0,4408.673-291.272Z" transform="translate(-4366.868 300.58)"/>
      <path d="M4421.333-297.4a2.613,2.613,0,0,1,.958.958,2.566,2.566,0,0,1,.354,1.313v3.687a2.563,2.563,0,0,1-.354,1.312,2.615,2.615,0,0,1-.958.959,2.592,2.592,0,0,1-1.33.353H4416.1a2.547,2.547,0,0,1-1.321-.353,2.626,2.626,0,0,1-.95-.959,2.562,2.562,0,0,1-.354-1.312v-3.687a2.565,2.565,0,0,1,.354-1.313,2.624,2.624,0,0,1,.95-.958,2.547,2.547,0,0,1,1.321-.353H4420A2.592,2.592,0,0,1,4421.333-297.4Zm-1.4,2.81a1.315,1.315,0,0,0-.4-.968,1.313,1.313,0,0,0-.968-.4h-1.042a1.316,1.316,0,0,0-.969.4,1.319,1.319,0,0,0-.395.968v2.609a1.321,1.321,0,0,0,.395.969,1.319,1.319,0,0,0,.969.395h1.042a1.316,1.316,0,0,0,.968-.395,1.317,1.317,0,0,0,.4-.969Z" transform="translate(-4367.663 300.396)"/>
      <path d="M4437.823-297.4a2.613,2.613,0,0,1,.958.958,2.566,2.566,0,0,1,.354,1.313v6.311h-2.71v-5.773a1.317,1.317,0,0,0-.395-.968,1.3,1.3,0,0,0-.951-.4h-.4a1.293,1.293,0,0,0-.95.4,1.317,1.317,0,0,0-.4.968v5.773h-2.709v-5.773a1.321,1.321,0,0,0-.395-.968,1.3,1.3,0,0,0-.952-.4h-.387a1.317,1.317,0,0,0-.968.4,1.321,1.321,0,0,0-.395.968v5.773h-2.693v-6.311a2.562,2.562,0,0,1,.354-1.313,2.615,2.615,0,0,1,.958-.958,2.564,2.564,0,0,1,1.314-.353h2.523a3.4,3.4,0,0,1,2,.655,3.322,3.322,0,0,1,1.986-.655h2.541A2.563,2.563,0,0,1,4437.823-297.4Z" transform="translate(-4368.401 300.396)"/>
      <path d="M4462.61-297.753V-289a2.761,2.761,0,0,1-.379,1.422,2.886,2.886,0,0,1-1.026,1.035,2.723,2.723,0,0,1-1.422.387h-6.916v-1.817h6.007a1,1,0,0,0,.739-.3.983.983,0,0,0,.3-.724v-1.4a9.244,9.244,0,0,1-3.182.639h-2.069a2.13,2.13,0,0,1-1.094-.294,2.176,2.176,0,0,1-.8-.807,2.184,2.184,0,0,1-.293-1.1v-3.6a2.13,2.13,0,0,1,.293-1.093,2.186,2.186,0,0,1,.8-.8,2.13,2.13,0,0,1,1.094-.294h2.053a9.705,9.705,0,0,1,3.2.623v-.623Zm-5.217,6.176a11.681,11.681,0,0,0,2.524-.74V-295.2a12.684,12.684,0,0,0-2.524-.757h-.858a1.325,1.325,0,0,0-.959.4,1.3,1.3,0,0,0-.4.968v1.649a1.3,1.3,0,0,0,.4.968,1.325,1.325,0,0,0,.959.4Z" transform="translate(-4370.199 300.396)"/>
      <path d="M4472.123-297.753a1.706,1.706,0,0,1,1.253.512,1.7,1.7,0,0,1,.512,1.254v1.97a1.708,1.708,0,0,1-.512,1.244,1.689,1.689,0,0,1-1.253.522h-4.712v.606a.983.983,0,0,0,.3.724.988.988,0,0,0,.723.3h5.252v1.8h-6.143a2.767,2.767,0,0,1-1.422-.379,2.806,2.806,0,0,1-1.026-1.027,2.766,2.766,0,0,1-.379-1.422v-3.282a2.762,2.762,0,0,1,.379-1.421,2.808,2.808,0,0,1,1.026-1.028,2.766,2.766,0,0,1,1.422-.378Zm-1.154,3.491a.67.67,0,0,0,.21-.5v-.489a.674.674,0,0,0-.21-.5.68.68,0,0,0-.5-.21h-2.037a.985.985,0,0,0-.723.3.981.981,0,0,0-.3.723v.876h3.062A.677.677,0,0,0,4470.969-294.262Z" transform="translate(-4370.995 300.396)"/>
      <path d="M4482.4-288.817v-5.773a1.316,1.316,0,0,0-.4-.968,1.313,1.313,0,0,0-.968-.4h-1.042a1.316,1.316,0,0,0-.969.4,1.319,1.319,0,0,0-.395.968v5.773h-2.693v-6.311a2.561,2.561,0,0,1,.354-1.313,2.6,2.6,0,0,1,.959-.958,2.559,2.559,0,0,1,1.312-.353h3.905a2.592,2.592,0,0,1,1.33.353,2.608,2.608,0,0,1,.958.958,2.557,2.557,0,0,1,.355,1.313v6.311Z" transform="translate(-4371.724 300.396)"/>
      <path d="M4494.549-297.753a1.706,1.706,0,0,1,1.254.512,1.711,1.711,0,0,1,.514,1.254v1.97a1.716,1.716,0,0,1-.514,1.244,1.69,1.69,0,0,1-1.254.522h-4.711v.606a.984.984,0,0,0,.3.724.983.983,0,0,0,.723.3h5.25v1.8h-6.142a2.766,2.766,0,0,1-1.422-.379,2.818,2.818,0,0,1-1.027-1.027,2.756,2.756,0,0,1-.378-1.422v-3.282a2.752,2.752,0,0,1,.378-1.421,2.821,2.821,0,0,1,1.027-1.028,2.765,2.765,0,0,1,1.422-.378Zm-1.152,3.491a.676.676,0,0,0,.21-.5v-.489a.679.679,0,0,0-.21-.5.683.683,0,0,0-.5-.21h-2.036a.981.981,0,0,0-.723.3.982.982,0,0,0-.3.723v.876h3.063A.681.681,0,0,0,4493.4-294.262Z" transform="translate(-4372.453 300.396)"/>
      <path d="M4504.468-295.953h-2.054a1.293,1.293,0,0,0-.95.4,1.311,1.311,0,0,0-.4.968v5.773h-2.709v-6.311a2.56,2.56,0,0,1,.353-1.313,2.607,2.607,0,0,1,.96-.958,2.554,2.554,0,0,1,1.312-.353h3.485Z" transform="translate(-4373.182 300.396)"/>
      <path d="M4515.817-297.753v8.936h-2.692v-.471a6.821,6.821,0,0,1-2.491.471h-2.744a2.119,2.119,0,0,1-1.094-.294,2.172,2.172,0,0,1-.8-.8,2.134,2.134,0,0,1-.294-1.094v-4.561a2.131,2.131,0,0,1,.294-1.093,2.181,2.181,0,0,1,.8-.8,2.127,2.127,0,0,1,1.094-.294h2.727a6.975,6.975,0,0,1,2.508.47v-.47Zm-2.692,6.665v-4.393a6.867,6.867,0,0,0-2.508-.471h-.858a1.316,1.316,0,0,0-.968.4,1.318,1.318,0,0,0-.4.968v2.609a1.321,1.321,0,0,0,.4.969,1.318,1.318,0,0,0,.968.395h.858A6.886,6.886,0,0,0,4513.125-291.088Z" transform="translate(-4373.66 300.396)"/>
      <path d="M4521.221-291.827a.985.985,0,0,0,.3.724.984.984,0,0,0,.723.3h1.229v1.8h-2.138a2.729,2.729,0,0,1-1.354-.353,2.947,2.947,0,0,1-1.027-.95,2.7,2.7,0,0,1-.446-1.321v-4.511h-1.127v-1.8h1.127v-2.626h2.709v2.626h2.255v1.8h-2.255Z" transform="translate(-4374.419 300.579)"/>
      <path d="M4532.623-297.4a2.606,2.606,0,0,1,.958.958,2.552,2.552,0,0,1,.354,1.313v3.687a2.549,2.549,0,0,1-.354,1.312,2.608,2.608,0,0,1-.958.959,2.589,2.589,0,0,1-1.329.353h-3.9a2.547,2.547,0,0,1-1.321-.353,2.626,2.626,0,0,1-.95-.959,2.562,2.562,0,0,1-.354-1.312v-3.687a2.566,2.566,0,0,1,.354-1.313,2.624,2.624,0,0,1,.95-.958,2.547,2.547,0,0,1,1.321-.353h3.9A2.589,2.589,0,0,1,4532.623-297.4Zm-1.4,2.81a1.316,1.316,0,0,0-.4-.968,1.317,1.317,0,0,0-.968-.4h-1.043a1.319,1.319,0,0,0-.969.4,1.32,1.32,0,0,0-.394.968v2.609a1.322,1.322,0,0,0,.394.969,1.321,1.321,0,0,0,.969.395h1.043a1.319,1.319,0,0,0,.968-.395,1.318,1.318,0,0,0,.4-.969Z" transform="translate(-4374.899 300.396)"/>
      <path d="M4542.087-295.953h-2.053a1.3,1.3,0,0,0-.951.4,1.318,1.318,0,0,0-.4.968v5.773h-2.709v-6.311a2.573,2.573,0,0,1,.352-1.313,2.611,2.611,0,0,1,.96-.958,2.556,2.556,0,0,1,1.312-.353h3.484Z" transform="translate(-4375.628 300.396)"/>
    </g>
    <g transform="translate(0.034 39.252)" style="isolation: isolate">
      <path d="M4375.584-247h-7.674a3.32,3.32,0,0,1-1.724-.463,3.452,3.452,0,0,1-1.245-1.254,3.34,3.34,0,0,1-.464-1.717v-4.729a3.293,3.293,0,0,1,.464-1.707,3.473,3.473,0,0,1,1.245-1.245,3.312,3.312,0,0,1,1.724-.464h7.674v1.8h-6.766a1.572,1.572,0,0,0-1.145.463,1.552,1.552,0,0,0-.471,1.153v4.729a1.558,1.558,0,0,0,.471,1.144,1.557,1.557,0,0,0,1.145.471h6.766Z" transform="translate(-4364.477 258.597)"/>
      <path d="M4380.759-247h-2.71v-11.562h2.71Z" transform="translate(-4365.359 258.596)"/>
      <path d="M4390.462-255.4a2.612,2.612,0,0,1,.959.958,2.565,2.565,0,0,1,.354,1.313v3.687a2.562,2.562,0,0,1-.354,1.312,2.614,2.614,0,0,1-.959.959,2.594,2.594,0,0,1-1.33.353h-3.905a2.547,2.547,0,0,1-1.32-.353,2.634,2.634,0,0,1-.952-.959,2.565,2.565,0,0,1-.352-1.312v-3.687a2.568,2.568,0,0,1,.352-1.313,2.632,2.632,0,0,1,.952-.958,2.547,2.547,0,0,1,1.32-.353h3.905A2.594,2.594,0,0,1,4390.462-255.4Zm-1.4,2.81a1.32,1.32,0,0,0-.4-.968,1.316,1.316,0,0,0-.967-.4h-1.044a1.318,1.318,0,0,0-.968.4,1.319,1.319,0,0,0-.4.968v2.609a1.321,1.321,0,0,0,.4.969,1.321,1.321,0,0,0,.968.395h1.044a1.319,1.319,0,0,0,.967-.395,1.322,1.322,0,0,0,.4-.969Z" transform="translate(-4365.656 258.413)"/>
      <path d="M4402.989-246.817h-6.53a2.586,2.586,0,0,1-1.329-.353,2.616,2.616,0,0,1-.96-.959,2.592,2.592,0,0,1-.354-1.33v-3.652a2.6,2.6,0,0,1,.354-1.33,2.613,2.613,0,0,1,.96-.958,2.586,2.586,0,0,1,1.329-.353h6.53v1.8h-5.117a1.321,1.321,0,0,0-.958.4,1.3,1.3,0,0,0-.4.968v2.609a1.3,1.3,0,0,0,.4.969,1.324,1.324,0,0,0,.958.395h5.117Z" transform="translate(-4366.385 258.413)"/>
      <path d="M4405.03-258.562h2.692V-247h-2.692Zm5.941,7.1,3.7,4.459h-3.266l-3.687-4.459,2.93-4.477h3.248Z" transform="translate(-4367.113 258.596)"/>
      <path d="M4429.935-247h-2.692l5.233-11.579h2.71Z" transform="translate(-4368.558 258.597)"/>
      <path d="M4458.761-258.6v1.818h-4.208V-247h-2.708v-9.778h-4.208V-258.6Z" transform="translate(-4369.884 258.598)"/>
      <path d="M4460.686-258.562h2.693v2.626h-2.693Zm0,3.3h2.693V-247h-2.693Z" transform="translate(-4370.732 258.596)"/>
      <path d="M4478.359-255.4a2.619,2.619,0,0,1,.958.958,2.562,2.562,0,0,1,.354,1.313v6.311h-2.709v-5.773a1.316,1.316,0,0,0-.4-.968,1.3,1.3,0,0,0-.951-.4h-.4a1.3,1.3,0,0,0-.951.4,1.317,1.317,0,0,0-.4.968v5.773h-2.708v-5.773a1.319,1.319,0,0,0-.4-.968,1.3,1.3,0,0,0-.951-.4h-.387a1.316,1.316,0,0,0-.968.4,1.319,1.319,0,0,0-.395.968v5.773h-2.694v-6.311a2.562,2.562,0,0,1,.354-1.313,2.611,2.611,0,0,1,.959-.958,2.558,2.558,0,0,1,1.313-.353h2.524a3.4,3.4,0,0,1,2,.655,3.315,3.315,0,0,1,1.986-.655h2.54A2.566,2.566,0,0,1,4478.359-255.4Z" transform="translate(-4371.037 258.413)"/>
      <path d="M4489.618-255.753a1.711,1.711,0,0,1,1.255.512,1.712,1.712,0,0,1,.512,1.254v1.97a1.716,1.716,0,0,1-.512,1.244,1.694,1.694,0,0,1-1.255.522h-4.711v.606a.986.986,0,0,0,.3.724.988.988,0,0,0,.724.3h5.251v1.8h-6.143a2.765,2.765,0,0,1-1.421-.379,2.816,2.816,0,0,1-1.027-1.027,2.766,2.766,0,0,1-.379-1.422v-3.282a2.762,2.762,0,0,1,.379-1.421,2.818,2.818,0,0,1,1.027-1.028,2.764,2.764,0,0,1,1.421-.378Zm-1.153,3.491a.673.673,0,0,0,.211-.5v-.489a.676.676,0,0,0-.211-.5.681.681,0,0,0-.5-.21h-2.037a.986.986,0,0,0-.724.3.984.984,0,0,0-.3.723v.876h3.062A.679.679,0,0,0,4488.465-252.262Z" transform="translate(-4372.132 258.413)"/>
      <path d="M4499.536-253.953h-2.052a1.3,1.3,0,0,0-.952.4,1.316,1.316,0,0,0-.4.968v5.773h-2.709v-6.311a2.564,2.564,0,0,1,.353-1.313,2.61,2.61,0,0,1,.96-.958,2.556,2.556,0,0,1,1.312-.353h3.484Z" transform="translate(-4372.861 258.413)"/>
      <path d="M4504.085-253.953a.828.828,0,0,0-.623.262.868.868,0,0,0-.253.63.851.851,0,0,0,.253.614.83.83,0,0,0,.623.261h2.9a2.622,2.622,0,0,1,1.354.362,2.715,2.715,0,0,1,.976.977,2.612,2.612,0,0,1,.362,1.354,2.591,2.591,0,0,1-.362,1.339,2.71,2.71,0,0,1-.976.975,2.622,2.622,0,0,1-1.354.362h-6.126v-1.8h5.234a.857.857,0,0,0,.631-.261.84.84,0,0,0,.261-.614.862.862,0,0,0-.261-.631.864.864,0,0,0-.631-.261h-2.9a2.625,2.625,0,0,1-1.346-.362,2.679,2.679,0,0,1-.984-.976,2.587,2.587,0,0,1-.362-1.338,2.623,2.623,0,0,1,.362-1.355,2.693,2.693,0,0,1,.984-.976,2.634,2.634,0,0,1,1.346-.361h6.059v1.8Z" transform="translate(-4373.321 258.413)"/>
    </g>
    <g transform="translate(0 78.555)" style="isolation: isolate">
      <path d="M4371.846-213.753a1.705,1.705,0,0,1,1.254.512,1.71,1.71,0,0,1,.514,1.254v1.97a1.714,1.714,0,0,1-.514,1.244,1.689,1.689,0,0,1-1.254.522h-4.712v.606a.989.989,0,0,0,.3.724.987.987,0,0,0,.724.3h5.25v1.8h-6.143a2.769,2.769,0,0,1-1.422-.379,2.817,2.817,0,0,1-1.026-1.027,2.765,2.765,0,0,1-.379-1.422v-3.282a2.762,2.762,0,0,1,.379-1.421,2.819,2.819,0,0,1,1.026-1.028,2.768,2.768,0,0,1,1.422-.378Zm-1.152,3.491a.68.68,0,0,0,.21-.5v-.489a.683.683,0,0,0-.21-.5.685.685,0,0,0-.5-.21h-2.037a.984.984,0,0,0-.724.3.987.987,0,0,0-.3.723v.876h3.064A.682.682,0,0,0,4370.694-210.262Z" transform="translate(-4364.441 216.379)"/>
      <path d="M4378.952-207.827a.987.987,0,0,0,.3.724.99.99,0,0,0,.723.3h1.229v1.8h-2.136a2.729,2.729,0,0,1-1.355-.353,2.919,2.919,0,0,1-1.026-.95,2.691,2.691,0,0,1-.447-1.321v-4.511h-1.127v-1.8h1.127v-2.626h2.71v2.626h2.255v1.8h-2.255Z" transform="translate(-4365.135 216.562)"/>
      <path d="M4391.667-204.817h-6.531a2.6,2.6,0,0,1-1.329-.353,2.616,2.616,0,0,1-.958-.959,2.591,2.591,0,0,1-.354-1.33v-3.652a2.6,2.6,0,0,1,.354-1.33,2.613,2.613,0,0,1,.958-.958,2.6,2.6,0,0,1,1.329-.353h6.531v1.8h-5.116a1.326,1.326,0,0,0-.959.4,1.307,1.307,0,0,0-.4.968v2.609a1.309,1.309,0,0,0,.4.969,1.329,1.329,0,0,0,.959.395h5.116Z" transform="translate(-4365.615 216.379)"/>
    </g>
  </g>
  <g transform="translate(451.278 397.15)" style="isolation: isolate">
    <path d="M4419.535,38.3h-3.59a3.549,3.549,0,0,1-3.074-1.75,3.458,3.458,0,0,1-.471-1.774V25.619a3.485,3.485,0,0,1,1.762-3.051,3.516,3.516,0,0,1,1.784-.471h3.59v2.379h-1.683a1.731,1.731,0,0,0-1.29.539,1.789,1.789,0,0,0-.528,1.3v7.764a1.717,1.717,0,0,0,.528,1.279,1.773,1.773,0,0,0,1.29.516h1.683Z" transform="translate(-4412.399 -22.074)"/>
    <path d="M4427.733,24.879a2.885,2.885,0,0,0-1.055,1.043,2.784,2.784,0,0,0-.393,1.447v2.447h11.22v2.4h-11.22v5.318h-3.591V27.369a5.163,5.163,0,0,1,.708-2.648,5.235,5.235,0,0,1,1.918-1.918,5.164,5.164,0,0,1,2.648-.707h9.537v2.4h-8.348A2.815,2.815,0,0,0,4427.733,24.879Z" transform="translate(-4413.068 -22.074)"/>
    <path d="M4452.372,29.12a4.537,4.537,0,0,1,1.638,1.638,4.541,4.541,0,0,1,0,4.533,4.53,4.53,0,0,1-1.638,1.638,4.339,4.339,0,0,1-2.243.606h-9.694V35.112h8.482a2.047,2.047,0,0,0,1.492-.607,2.083,2.083,0,0,0,0-2.962,2.052,2.052,0,0,0-1.492-.6h-4.689a4.293,4.293,0,0,1-2.222-.6,4.43,4.43,0,0,1-1.6-1.616,4.429,4.429,0,0,1,0-4.432,4.471,4.471,0,0,1,1.6-1.6,4.309,4.309,0,0,1,2.222-.594h9.492v2.4h-8.3a2.035,2.035,0,0,0-2.021,2.02,1.9,1.9,0,0,0,.6,1.414,1.958,1.958,0,0,0,1.425.583h4.712A4.357,4.357,0,0,1,4452.372,29.12Z" transform="translate(-4414.181 -22.074)"/>
    <path d="M4470.874,22.072h3.612V37.533h-3.612V27.48l-2.985,4.533h-3.567l-3.143-4.645V37.533h-3.613V22.072h3.613l4.915,7.248Z" transform="translate(-4415.335 -22.072)"/>
    <path d="M4480.129,35.874a1.777,1.777,0,0,0,1.291-.516,1.721,1.721,0,0,0,.526-1.279V26.315a1.793,1.793,0,0,0-.526-1.3,1.735,1.735,0,0,0-1.291-.539h-1.683V22.1h3.591a3.517,3.517,0,0,1,1.784.471,3.487,3.487,0,0,1,1.761,3.051v9.155a3.484,3.484,0,0,1-1.761,3.052,3.509,3.509,0,0,1-1.784.472h-3.591V35.874Z" transform="translate(-4416.693 -22.074)"/>
  </g>
  <g transform="translate(69.035 377.254)" style="isolation: isolate">
    <g transform="translate(0 0)" style="isolation: isolate">
      <path d="M4016.142,7.816a4.542,4.542,0,0,1,1.638,1.638,4.548,4.548,0,0,1,0,4.533,4.535,4.535,0,0,1-1.638,1.638,4.362,4.362,0,0,1-2.245.606H4004.2V13.807h8.482a2.047,2.047,0,0,0,1.492-.606,2.086,2.086,0,0,0,0-2.962,2.05,2.05,0,0,0-1.492-.6H4008a4.285,4.285,0,0,1-2.221-.6,4.425,4.425,0,0,1-1.6-1.616,4.3,4.3,0,0,1-.6-2.21,4.291,4.291,0,0,1,.6-2.222,4.459,4.459,0,0,1,1.6-1.6A4.293,4.293,0,0,1,4008,.792h9.491v2.4h-8.3a2.033,2.033,0,0,0-2.02,2.02,1.9,1.9,0,0,0,.6,1.414,1.957,1.957,0,0,0,1.424.583h4.712A4.371,4.371,0,0,1,4016.142,7.816Z" transform="translate(-4003.575 -0.792)"/>
      <path d="M4025.563,12.462a1.381,1.381,0,0,0,1.369,1.369h1.638v2.4h-2.85a3.637,3.637,0,0,1-1.806-.471,3.912,3.912,0,0,1-1.369-1.268,3.587,3.587,0,0,1-.594-1.762V6.718h-1.5v-2.4h1.5V.816h3.612v3.5h3.007v2.4h-3.007Z" transform="translate(-4004.672 -0.794)"/>
      <path d="M4043.773,4.56V16.475h-3.59v-.628a9.067,9.067,0,0,1-3.321.628H4033.2a2.83,2.83,0,0,1-1.458-.393,2.913,2.913,0,0,1-1.067-1.065,2.846,2.846,0,0,1-.393-1.46V7.477a2.84,2.84,0,0,1,.393-1.458,2.9,2.9,0,0,1,1.067-1.067,2.848,2.848,0,0,1,1.458-.393h3.635a9.287,9.287,0,0,1,3.344.628V4.56Zm-3.59,8.886V7.589a9.145,9.145,0,0,0-3.344-.628h-1.144a1.8,1.8,0,0,0-1.818,1.818v3.478a1.8,1.8,0,0,0,1.818,1.818h1.144A9.145,9.145,0,0,0,4040.183,13.446Z" transform="translate(-4005.312 -1.037)"/>
      <path d="M4050.979,12.462a1.379,1.379,0,0,0,1.369,1.369h1.638v2.4h-2.85a3.641,3.641,0,0,1-1.807-.471,3.914,3.914,0,0,1-1.369-1.268,3.587,3.587,0,0,1-.594-1.762V6.718h-1.5v-2.4h1.5V.816h3.613v3.5h3.007v2.4h-3.007Z" transform="translate(-4006.324 -0.794)"/>
      <path d="M4065.576,4.56a2.336,2.336,0,0,1,2.355,2.357V9.542a2.289,2.289,0,0,1-.684,1.661,2.256,2.256,0,0,1-1.672.695h-6.284v.808a1.381,1.381,0,0,0,1.37,1.369h7v2.4h-8.19a3.681,3.681,0,0,1-1.9-.5,3.755,3.755,0,0,1-1.369-1.369,3.7,3.7,0,0,1-.5-1.9V8.33a3.7,3.7,0,0,1,.5-1.9,3.769,3.769,0,0,1,1.369-1.369,3.69,3.69,0,0,1,1.9-.5Zm-1.538,4.657a.908.908,0,0,0,.281-.662V7.9a.958.958,0,0,0-.943-.942h-2.714a1.381,1.381,0,0,0-1.37,1.369V9.5h4.084A.9.9,0,0,0,4064.038,9.217Z" transform="translate(-4006.964 -1.037)"/>
    </g>
  </g>
  <g transform="translate(484.788 210.371)">
    <rect width="2.805" height="95.368"/>
  </g>
  <g transform="translate(477.391 296.928)">
    <path d="M4449.09-74.087l-8.762-9.782,1.394-1.247,7.374,8.232,7.438-8.235,1.388,1.254Z" transform="translate(-4440.328 85.119)"/>
  </g>
  <g transform="translate(201.021 383.81)">
    <rect width="185.126" height="2.805" transform="translate(0 0)"/>
  </g>
  <g transform="translate(291.247 104.718)">
    <rect width="2.805" height="280.494"/>
  </g>
  <g transform="translate(201.027 104.209)">
    <rect width="93.013" height="2.805"/>
  </g>
  <g transform="translate(585.298 383.81)">
    <rect width="185.126" height="2.805" transform="translate(0 0)"/>
  </g>
  <g transform="translate(677.394 104.718)">
    <rect width="2.805" height="280.494"/>
  </g>
  <g transform="translate(677.405 103.825)">
    <rect width="92.881" height="2.805"/>
  </g>
  <g transform="translate(198.86 96.811)">
    <path d="M4152.206-281.56l-9.778-8.831,9.781-8.761,1.247,1.392-8.232,7.374,8.235,7.438Z" transform="translate(-4142.428 299.152)"/>
  </g>
  <g transform="translate(761.554 96.386)">
    <path d="M4745.5-282.015l-1.252-1.388,8.235-7.438-8.232-7.374,1.248-1.392,9.781,8.761Z" transform="translate(-4744.252 299.607)"/>
  </g>
  <g transform="translate(761.554 376.413)">
    <path d="M4745.5,17.485l-1.252-1.388,8.235-7.438-8.232-7.374L4745.5-.107l9.781,8.761Z" transform="translate(-4744.252 0.107)"/>
  </g>
  <g transform="translate(198.86 376.413)">
    <path d="M4152.206,17.486l-9.778-8.831,9.781-8.761,1.247,1.392-8.232,7.374,8.235,7.438Z" transform="translate(-4142.428 0.106)"/>
  </g>
  <g transform="translate(316.815 355.852)" style="isolation: isolate">
    <g transform="translate(0 0)" style="isolation: isolate">
      <path d="M4271.277-10.5h-2.691V-22.1h2.691Z" transform="translate(-4268.586 22.098)"/>
      <path d="M4279.476-10.317V-16.09a1.318,1.318,0,0,0-.4-.968,1.315,1.315,0,0,0-.968-.4h-1.042a1.318,1.318,0,0,0-.969.4,1.318,1.318,0,0,0-.4.968v5.773h-2.692v-6.311a2.56,2.56,0,0,1,.353-1.313,2.6,2.6,0,0,1,.959-.958,2.561,2.561,0,0,1,1.312-.353h3.906a2.594,2.594,0,0,1,1.33.353,2.6,2.6,0,0,1,.959.958,2.561,2.561,0,0,1,.354,1.313v6.311Z" transform="translate(-4268.874 21.913)"/>
      <path d="M4293.248-18.941a2.191,2.191,0,0,1,.8.8,2.139,2.139,0,0,1,.294,1.094V-12.5a2.139,2.139,0,0,1-.294,1.094,2.179,2.179,0,0,1-.8.8,2.121,2.121,0,0,1-1.094.295h-2.709a5.681,5.681,0,0,1-2.508-.606v3.248h-2.709V-19.236h2.709v.589a5.934,5.934,0,0,1,2.491-.589h2.727A2.131,2.131,0,0,1,4293.248-18.941Zm-1.6,2.852a1.328,1.328,0,0,0-.4-.959,1.283,1.283,0,0,0-.951-.4h-.858a5.97,5.97,0,0,0-2.508.589v4.158a5.679,5.679,0,0,0,2.508.588h.858a1.3,1.3,0,0,0,.951-.395,1.322,1.322,0,0,0,.4-.969Z" transform="translate(-4269.603 21.912)"/>
      <path d="M4299.141-19.253v5.772a1.321,1.321,0,0,0,.4.969,1.319,1.319,0,0,0,.968.395h1.059a1.3,1.3,0,0,0,.952-.395,1.321,1.321,0,0,0,.395-.969v-5.772h2.71v6.311a2.562,2.562,0,0,1-.354,1.312,2.609,2.609,0,0,1-.96.959,2.592,2.592,0,0,1-1.329.353h-3.906a2.556,2.556,0,0,1-1.312-.353,2.609,2.609,0,0,1-.96-.959,2.556,2.556,0,0,1-.353-1.312v-6.311Z" transform="translate(-4270.397 21.913)"/>
      <path d="M4310.96-13.327a.982.982,0,0,0,.3.724.986.986,0,0,0,.723.3h1.229v1.8h-2.137a2.733,2.733,0,0,1-1.356-.353,2.93,2.93,0,0,1-1.025-.95,2.686,2.686,0,0,1-.447-1.321v-4.511h-1.127v-1.8h1.127v-2.626h2.71v2.626h2.255v1.8h-2.255Z" transform="translate(-4271.092 22.096)"/>
    </g>
  </g>
  <g transform="translate(601.883 355.869)" style="isolation: isolate">
    <g transform="translate(0 0)" style="isolation: isolate">
      <path d="M4573.831-20.767a2.624,2.624,0,0,1,.959-.959,2.561,2.561,0,0,1,1.313-.353h5.84a2.591,2.591,0,0,1,1.33.353,2.625,2.625,0,0,1,.959.959,2.562,2.562,0,0,1,.353,1.313v6.311a2.605,2.605,0,0,1-.353,1.321,2.6,2.6,0,0,1-.959.968,2.591,2.591,0,0,1-1.33.353h-5.84a2.516,2.516,0,0,1-1.313-.362,2.683,2.683,0,0,1-.959-.968,2.565,2.565,0,0,1-.354-1.313v-6.311A2.568,2.568,0,0,1,4573.831-20.767Zm7.649,8.053a1.3,1.3,0,0,0,.4-.951v-5.251a1.316,1.316,0,0,0-.4-.968,1.3,1.3,0,0,0-.95-.4h-3a1.324,1.324,0,0,0-.968.4,1.318,1.318,0,0,0-.4.968v5.251a1.3,1.3,0,0,0,.4.951,1.32,1.32,0,0,0,.968.4h3A1.3,1.3,0,0,0,4581.479-12.714Z" transform="translate(-4573.477 22.08)"/>
      <path d="M4589.491-19.253v5.772a1.316,1.316,0,0,0,.395.969,1.317,1.317,0,0,0,.967.395h1.062a1.3,1.3,0,0,0,.95-.395,1.318,1.318,0,0,0,.4-.969v-5.772h2.709v6.311a2.562,2.562,0,0,1-.353,1.312,2.618,2.618,0,0,1-.959.959,2.591,2.591,0,0,1-1.33.353h-3.9a2.561,2.561,0,0,1-1.312-.353,2.621,2.621,0,0,1-.959-.959,2.562,2.562,0,0,1-.354-1.312v-6.311Z" transform="translate(-4574.343 21.896)"/>
      <path d="M4601.308-13.327a.989.989,0,0,0,.3.724.991.991,0,0,0,.724.3h1.229v1.8h-2.136a2.727,2.727,0,0,1-1.355-.353,2.939,2.939,0,0,1-1.027-.95,2.694,2.694,0,0,1-.446-1.321v-4.511h-1.127v-1.8h1.127v-2.626h2.709v2.626h2.255v1.8h-2.255Z" transform="translate(-4575.037 22.079)"/>
      <path d="M4613.871-18.941a2.186,2.186,0,0,1,.8.8,2.143,2.143,0,0,1,.293,1.094V-12.5a2.143,2.143,0,0,1-.293,1.094,2.174,2.174,0,0,1-.8.8,2.121,2.121,0,0,1-1.094.295h-2.709a5.685,5.685,0,0,1-2.508-.606v3.248h-2.709V-19.236h2.709v.589a5.935,5.935,0,0,1,2.491-.589h2.727A2.131,2.131,0,0,1,4613.871-18.941Zm-1.6,2.852a1.327,1.327,0,0,0-.4-.959,1.282,1.282,0,0,0-.95-.4h-.858a5.97,5.97,0,0,0-2.508.589v4.158a5.682,5.682,0,0,0,2.508.588h.858a1.3,1.3,0,0,0,.95-.395,1.321,1.321,0,0,0,.4-.969Z" transform="translate(-4575.517 21.895)"/>
      <path d="M4619.765-19.253v5.772a1.324,1.324,0,0,0,.4.969,1.318,1.318,0,0,0,.968.395h1.06a1.3,1.3,0,0,0,.951-.395,1.318,1.318,0,0,0,.4-.969v-5.772h2.71v6.311a2.558,2.558,0,0,1-.354,1.312,2.618,2.618,0,0,1-.958.959,2.6,2.6,0,0,1-1.33.353H4619.7a2.555,2.555,0,0,1-1.312-.353,2.609,2.609,0,0,1-.96-.959,2.558,2.558,0,0,1-.354-1.312v-6.311Z" transform="translate(-4576.312 21.896)"/>
      <path d="M4631.583-13.327a.987.987,0,0,0,.3.724.989.989,0,0,0,.723.3h1.23v1.8H4631.7a2.732,2.732,0,0,1-1.356-.353,2.926,2.926,0,0,1-1.025-.95,2.676,2.676,0,0,1-.447-1.321v-4.511h-1.127v-1.8h1.127v-2.626h2.709v2.626h2.255v1.8h-2.255Z" transform="translate(-4577.005 22.079)"/>
    </g>
  </g>
  <g transform="translate(505.546 241.801)" style="isolation: isolate">
    <g transform="translate(0.034)" style="isolation: isolate">
      <path d="M4480.011-143.575a3.76,3.76,0,0,1,1.372,1.363,3.646,3.646,0,0,1,.506,1.885,3.685,3.685,0,0,1-.506,1.893,3.733,3.733,0,0,1-1.372,1.372,3.683,3.683,0,0,1-1.893.5h-4.948v4.056h-2.692V-144.08h7.641A3.692,3.692,0,0,1,4480.011-143.575Zm-1.4,4.645a1.9,1.9,0,0,0,.571-1.4,1.884,1.884,0,0,0-.571-1.38,1.882,1.882,0,0,0-1.381-.572h-4.056v3.922h4.056A1.883,1.883,0,0,0,4478.606-138.93Z" transform="translate(-4470.477 144.08)"/>
      <path d="M4490.087-139.453h-2.055a1.294,1.294,0,0,0-.95.4,1.313,1.313,0,0,0-.4.968v5.773h-2.708v-6.311a2.569,2.569,0,0,1,.353-1.313,2.614,2.614,0,0,1,.959-.958,2.561,2.561,0,0,1,1.313-.353h3.485Z" transform="translate(-4471.355 143.896)"/>
      <path d="M4499.181-140.9a2.611,2.611,0,0,1,.959.958,2.556,2.556,0,0,1,.354,1.313v3.687a2.552,2.552,0,0,1-.354,1.312,2.613,2.613,0,0,1-.959.959,2.6,2.6,0,0,1-1.33.353h-3.9a2.544,2.544,0,0,1-1.32-.353,2.629,2.629,0,0,1-.951-.959,2.553,2.553,0,0,1-.354-1.312v-3.687a2.556,2.556,0,0,1,.354-1.313,2.627,2.627,0,0,1,.951-.958,2.544,2.544,0,0,1,1.32-.353h3.9A2.6,2.6,0,0,1,4499.181-140.9Zm-1.4,2.81a1.32,1.32,0,0,0-.394-.968,1.32,1.32,0,0,0-.969-.4h-1.043a1.317,1.317,0,0,0-.968.4,1.316,1.316,0,0,0-.4.968v2.609a1.318,1.318,0,0,0,.4.969,1.319,1.319,0,0,0,.968.395h1.043a1.323,1.323,0,0,0,.969-.395,1.322,1.322,0,0,0,.394-.969Z" transform="translate(-4471.833 143.896)"/>
      <path d="M4508.891-141.253h2.709l-3.516,8.936h-2.711l-3.45-8.936h2.709l2.1,5.453Z" transform="translate(-4472.521 143.896)"/>
      <path d="M4513.316-144.062h2.694v2.626h-2.694Zm0,3.3h2.694v8.263h-2.694Z" transform="translate(-4473.262 144.079)"/>
      <path d="M4527.967-144.08V-132.5h-2.692v-.471a6.825,6.825,0,0,1-2.491.471h-2.761a2.075,2.075,0,0,1-1.084-.295,2.179,2.179,0,0,1-.791-.8,2.125,2.125,0,0,1-.294-1.094v-4.561a2.121,2.121,0,0,1,.294-1.093,2.189,2.189,0,0,1,.791-.8,2.082,2.082,0,0,1,1.084-.294h2.743a6.888,6.888,0,0,1,2.509.47v-3.113Zm-2.692,9.308v-4.393a6.87,6.87,0,0,0-2.509-.471h-.858a1.32,1.32,0,0,0-.968.4,1.318,1.318,0,0,0-.4.968v2.609a1.32,1.32,0,0,0,.4.969,1.323,1.323,0,0,0,.968.395h.858A6.888,6.888,0,0,0,4525.275-134.772Z" transform="translate(-4473.558 144.08)"/>
      <path d="M4537.479-141.253a1.707,1.707,0,0,1,1.254.512,1.707,1.707,0,0,1,.514,1.254v1.97a1.712,1.712,0,0,1-.514,1.244,1.69,1.69,0,0,1-1.254.522h-4.712v.606a.994.994,0,0,0,.3.724.993.993,0,0,0,.726.3h5.25v1.8H4532.9a2.766,2.766,0,0,1-1.422-.379,2.815,2.815,0,0,1-1.027-1.027,2.765,2.765,0,0,1-.378-1.422v-3.282a2.762,2.762,0,0,1,.378-1.421,2.817,2.817,0,0,1,1.027-1.028,2.765,2.765,0,0,1,1.422-.378Zm-1.152,3.491a.678.678,0,0,0,.209-.5v-.489a.682.682,0,0,0-.209-.5.687.687,0,0,0-.5-.21h-2.035a.99.99,0,0,0-.726.3.992.992,0,0,0-.3.723v.876h3.063A.684.684,0,0,0,4536.327-137.762Z" transform="translate(-4474.352 143.896)"/>
      <path d="M4551.4-144.08V-132.5h-2.69v-.471a6.826,6.826,0,0,1-2.491.471h-2.762a2.075,2.075,0,0,1-1.084-.295,2.19,2.19,0,0,1-.791-.8,2.125,2.125,0,0,1-.295-1.094v-4.561a2.122,2.122,0,0,1,.295-1.093,2.2,2.2,0,0,1,.791-.8,2.083,2.083,0,0,1,1.084-.294h2.744a6.89,6.89,0,0,1,2.509.47v-3.113Zm-2.69,9.308v-4.393a6.872,6.872,0,0,0-2.509-.471h-.858a1.316,1.316,0,0,0-.968.4,1.316,1.316,0,0,0-.4.968v2.609a1.318,1.318,0,0,0,.4.969,1.319,1.319,0,0,0,.968.395h.858A6.89,6.89,0,0,0,4548.711-134.772Z" transform="translate(-4475.081 144.08)"/>
    </g>
    <g transform="translate(0 19.651)" style="isolation: isolate">
      <path d="M4479.463-120.142a2.181,2.181,0,0,1,.8.8,2.132,2.132,0,0,1,.3,1.093v4.561a2.135,2.135,0,0,1-.3,1.094,2.172,2.172,0,0,1-.8.8,2.128,2.128,0,0,1-1.095.295h-2.744a6.821,6.821,0,0,1-2.49-.471v.471h-2.693v-11.562h2.693v3.1a7.062,7.062,0,0,1,2.509-.47h2.726A2.137,2.137,0,0,1,4479.463-120.142Zm-1.6,2.869a1.319,1.319,0,0,0-.395-.968,1.319,1.319,0,0,0-.968-.4h-.857a6.864,6.864,0,0,0-2.509.471v4.393a6.883,6.883,0,0,0,2.509.47h.857a1.322,1.322,0,0,0,.968-.395,1.321,1.321,0,0,0,.395-.969Z" transform="translate(-4470.44 123.062)"/>
      <path d="M4492.087-120.253v8.75a2.766,2.766,0,0,1-.379,1.422,2.884,2.884,0,0,1-1.025,1.035,2.728,2.728,0,0,1-1.423.387h-6.043v-1.8h5.151a.974.974,0,0,0,.724-.311,1.021,1.021,0,0,0,.3-.732v-1.128a6.721,6.721,0,0,1-2.206.37H4485.1a2.133,2.133,0,0,1-1.094-.295,2.169,2.169,0,0,1-.8-.807,2.185,2.185,0,0,1-.294-1.1v-5.788h2.693v4.812a1.3,1.3,0,0,0,.4.968,1.327,1.327,0,0,0,.959.4h.185a6.87,6.87,0,0,0,2.239-.369v-5.806Z" transform="translate(-4471.252 122.879)"/>
      <path d="M4508.142-111.5h-2.708v-11.562h2.708Z" transform="translate(-4472.716 123.062)"/>
      <path d="M4510.238-123.062h2.694v2.626h-2.694Zm0,3.3h2.694v8.263h-2.694Z" transform="translate(-4473.028 123.062)"/>
      <path d="M4523.794-120.142a2.183,2.183,0,0,1,.8.8,2.131,2.131,0,0,1,.294,1.093v4.561a2.134,2.134,0,0,1-.294,1.094,2.173,2.173,0,0,1-.8.8,2.121,2.121,0,0,1-1.094.295h-2.743a6.816,6.816,0,0,1-2.491-.471v.471h-2.693v-11.562h2.693v3.1a7.056,7.056,0,0,1,2.507-.47h2.727A2.129,2.129,0,0,1,4523.794-120.142Zm-1.6,2.869a1.317,1.317,0,0,0-.4-.968,1.314,1.314,0,0,0-.968-.4h-.858a6.86,6.86,0,0,0-2.507.471v4.393a6.879,6.879,0,0,0,2.507.47h.858a1.317,1.317,0,0,0,.968-.395,1.319,1.319,0,0,0,.4-.969Z" transform="translate(-4473.323 123.062)"/>
      <path d="M4533.1-118.453h-2.052a1.3,1.3,0,0,0-.952.4,1.318,1.318,0,0,0-.394.968v5.773H4527v-6.311a2.565,2.565,0,0,1,.353-1.313,2.612,2.612,0,0,1,.959-.958,2.56,2.56,0,0,1,1.313-.353h3.482Z" transform="translate(-4474.118 122.879)"/>
      <path d="M4544.455-120.253v8.936h-2.694v-.471a6.812,6.812,0,0,1-2.491.471h-2.742a2.123,2.123,0,0,1-1.094-.295,2.185,2.185,0,0,1-.8-.8,2.143,2.143,0,0,1-.293-1.094v-4.561a2.139,2.139,0,0,1,.293-1.093,2.2,2.2,0,0,1,.8-.8,2.131,2.131,0,0,1,1.094-.294h2.727a6.965,6.965,0,0,1,2.506.47v-.47Zm-2.694,6.665v-4.393a6.849,6.849,0,0,0-2.506-.471h-.858a1.313,1.313,0,0,0-.968.4,1.314,1.314,0,0,0-.4.968v2.609a1.316,1.316,0,0,0,.4.969,1.316,1.316,0,0,0,.968.395h.858A6.868,6.868,0,0,0,4541.761-113.588Z" transform="translate(-4474.596 122.879)"/>
      <path d="M4552.671-118.453h-2.053a1.3,1.3,0,0,0-.951.4,1.318,1.318,0,0,0-.4.968v5.773h-2.708v-6.311a2.568,2.568,0,0,1,.352-1.313,2.61,2.61,0,0,1,.96-.958,2.56,2.56,0,0,1,1.312-.353h3.485Z" transform="translate(-4475.39 122.879)"/>
      <path d="M4563.33-120.253v8.75a2.77,2.77,0,0,1-.378,1.422,2.891,2.891,0,0,1-1.026,1.035,2.725,2.725,0,0,1-1.423.387h-6.042v-1.8h5.151a.977.977,0,0,0,.724-.311,1.021,1.021,0,0,0,.3-.732v-1.128a6.722,6.722,0,0,1-2.206.37h-2.086a2.133,2.133,0,0,1-1.094-.295,2.168,2.168,0,0,1-.8-.807,2.185,2.185,0,0,1-.294-1.1v-5.788h2.691v4.812a1.3,1.3,0,0,0,.405.968,1.323,1.323,0,0,0,.959.4h.184a6.871,6.871,0,0,0,2.239-.369v-5.806Z" transform="translate(-4475.884 122.879)"/>
    </g>
  </g>
</svg>
