<svg xmlns="http://www.w3.org/2000/svg" width="1094.878" height="618.022" viewBox="0 0 1094.878 618.022">
  <g transform="translate(287.054 200.086)">
    <g>
      <rect width="199.151" height="154.272" rx="10" fill="#fff"/>
    </g>
    <g transform="translate(0)">
      <path d="M4426.056,1045.772H4245.6a9.361,9.361,0,0,1-9.35-9.35V900.85a9.361,9.361,0,0,1,9.35-9.35h180.451a9.36,9.36,0,0,1,9.35,9.35v135.572A9.361,9.361,0,0,1,4426.056,1045.772ZM4245.6,894.3a6.553,6.553,0,0,0-6.545,6.545v135.572a6.553,6.553,0,0,0,6.545,6.545h180.451a6.553,6.553,0,0,0,6.545-6.545V900.85a6.553,6.553,0,0,0-6.545-6.545Z" transform="translate(-4236.255 -891.5)" fill="#bd3454"/>
    </g>
  </g>
  <g transform="translate(328.984 269.241)" style="isolation: isolate">
    <g style="isolation: isolate">
      <path d="M4294.407,965.464h3.611v15.461h-3.611V970.872l-2.984,4.533h-3.568l-3.143-4.645v10.165H4281.1V965.464h3.611l4.916,7.248Z" transform="translate(-4281.1 -965.464)"/>
      <path d="M4311.108,969.256a2.335,2.335,0,0,1,2.356,2.356v2.625a2.289,2.289,0,0,1-.683,1.661,2.258,2.258,0,0,1-1.673.7h-6.283v.808a1.38,1.38,0,0,0,1.369,1.369h7v2.4h-8.189a3.693,3.693,0,0,1-1.9-.5,3.754,3.754,0,0,1-1.369-1.369,3.7,3.7,0,0,1-.5-1.9v-4.376a3.7,3.7,0,0,1,.5-1.9,3.761,3.761,0,0,1,1.369-1.369,3.692,3.692,0,0,1,1.9-.5Zm-1.537,4.656a.9.9,0,0,0,.281-.662V972.6a.959.959,0,0,0-.943-.942h-2.715a1.38,1.38,0,0,0-1.369,1.369v1.167h4.083A.9.9,0,0,0,4309.571,973.912Z" transform="translate(-4282.409 -965.711)"/>
      <path d="M4320.606,971.657a1.11,1.11,0,0,0-.83.348,1.167,1.167,0,0,0-.336.841,1.139,1.139,0,0,0,.336.819,1.106,1.106,0,0,0,.83.348h3.859a3.505,3.505,0,0,1,1.807.482,3.617,3.617,0,0,1,1.3,1.3,3.505,3.505,0,0,1,.481,1.806,3.464,3.464,0,0,1-.481,1.784,3.616,3.616,0,0,1-1.3,1.3,3.5,3.5,0,0,1-1.807.482H4316.3v-2.4h6.979a1.144,1.144,0,0,0,.841-.348,1.118,1.118,0,0,0,.347-.819,1.186,1.186,0,0,0-1.188-1.189h-3.859a3.513,3.513,0,0,1-1.8-.482,3.591,3.591,0,0,1-1.313-1.3,3.446,3.446,0,0,1-.482-1.784,3.49,3.49,0,0,1,.482-1.806,3.592,3.592,0,0,1,1.313-1.3,3.512,3.512,0,0,1,1.8-.482h8.078v2.4Z" transform="translate(-4283.358 -965.711)"/>
      <path d="M4334.838,971.657a1.108,1.108,0,0,0-.83.348,1.165,1.165,0,0,0-.337.841,1.137,1.137,0,0,0,.337.819,1.1,1.1,0,0,0,.83.348h3.86a3.5,3.5,0,0,1,1.805.482,3.62,3.62,0,0,1,1.3,1.3,3.5,3.5,0,0,1,.482,1.806,3.455,3.455,0,0,1-.482,1.784,3.619,3.619,0,0,1-1.3,1.3,3.489,3.489,0,0,1-1.805.482h-8.168v-2.4h6.979a1.142,1.142,0,0,0,.841-.348,1.119,1.119,0,0,0,.348-.819,1.188,1.188,0,0,0-1.189-1.189h-3.86a3.509,3.509,0,0,1-1.794-.482,3.6,3.6,0,0,1-1.313-1.3,3.45,3.45,0,0,1-.481-1.784,3.494,3.494,0,0,1,.481-1.806,3.6,3.6,0,0,1,1.313-1.3,3.509,3.509,0,0,1,1.794-.482h8.079v2.4Z" transform="translate(-4284.283 -965.711)"/>
      <path d="M4358.136,969.256v11.915h-3.59v-.628a9.088,9.088,0,0,1-3.321.628h-3.657a2.84,2.84,0,0,1-1.458-.393,2.913,2.913,0,0,1-1.067-1.066,2.845,2.845,0,0,1-.393-1.459v-6.081a2.845,2.845,0,0,1,.393-1.459,2.912,2.912,0,0,1,1.067-1.066,2.839,2.839,0,0,1,1.458-.393h3.635a9.265,9.265,0,0,1,3.343.628v-.628Zm-3.59,8.886v-5.857a9.142,9.142,0,0,0-3.343-.628h-1.144a1.8,1.8,0,0,0-1.818,1.818v3.478a1.8,1.8,0,0,0,1.818,1.818h1.144A9.142,9.142,0,0,0,4354.546,978.142Z" transform="translate(-4285.232 -965.711)"/>
      <path d="M4374.456,969.256v11.669a3.685,3.685,0,0,1-.506,1.9,3.847,3.847,0,0,1-1.368,1.38,3.647,3.647,0,0,1-1.9.516h-9.222v-2.423h8.011a1.344,1.344,0,0,0,.987-.4,1.317,1.317,0,0,0,.4-.965v-1.862a12.33,12.33,0,0,1-4.242.853h-2.76a2.836,2.836,0,0,1-1.459-.393,2.961,2.961,0,0,1-1.458-2.547v-4.8a2.841,2.841,0,0,1,.393-1.459,2.912,2.912,0,0,1,1.065-1.066,2.845,2.845,0,0,1,1.459-.393h2.738a13,13,0,0,1,4.264.83v-.83Zm-6.957,8.235a15.6,15.6,0,0,0,3.367-.987v-3.837a16.891,16.891,0,0,0-3.367-1.01h-1.145a1.771,1.771,0,0,0-1.279.527,1.742,1.742,0,0,0-.538,1.29v2.2a1.74,1.74,0,0,0,.538,1.29,1.767,1.767,0,0,0,1.279.527Z" transform="translate(-4286.292 -965.711)"/>
      <path d="M4387.139,969.256a2.338,2.338,0,0,1,2.356,2.356v2.625a2.285,2.285,0,0,1-.685,1.661,2.256,2.256,0,0,1-1.671.7h-6.284v.808a1.382,1.382,0,0,0,1.37,1.369h7v2.4h-8.191a3.694,3.694,0,0,1-1.9-.5,3.741,3.741,0,0,1-1.368-1.369,3.678,3.678,0,0,1-.506-1.9v-4.376a3.681,3.681,0,0,1,.506-1.9,3.747,3.747,0,0,1,1.368-1.369,3.693,3.693,0,0,1,1.9-.5Zm-1.537,4.656a.905.905,0,0,0,.28-.662V972.6a.958.958,0,0,0-.941-.942h-2.717a1.382,1.382,0,0,0-1.37,1.369v1.167h4.086A.9.9,0,0,0,4385.6,973.912Z" transform="translate(-4287.353 -965.711)"/>
      <path d="M4396.638,971.657a1.108,1.108,0,0,0-.831.348,1.165,1.165,0,0,0-.336.841,1.137,1.137,0,0,0,.336.819,1.105,1.105,0,0,0,.831.348h3.859a3.5,3.5,0,0,1,1.805.482,3.623,3.623,0,0,1,1.3,1.3,3.492,3.492,0,0,1,.482,1.806,3.451,3.451,0,0,1-.482,1.784,3.623,3.623,0,0,1-1.3,1.3,3.49,3.49,0,0,1-1.805.482h-8.169v-2.4h6.98a1.142,1.142,0,0,0,.841-.348,1.119,1.119,0,0,0,.348-.819,1.187,1.187,0,0,0-1.189-1.189h-3.861a3.515,3.515,0,0,1-1.795-.482,3.6,3.6,0,0,1-1.312-1.3,3.451,3.451,0,0,1-.482-1.784,3.5,3.5,0,0,1,.482-1.806,3.605,3.605,0,0,1,1.313-1.3,3.515,3.515,0,0,1,1.795-.482h8.08v2.4Z" transform="translate(-4288.301 -965.711)"/>
    </g>
  </g>
  <g transform="translate(666.657 200.086)">
    <g>
      <path d="M4719.391,891.5h0a77.136,77.136,0,0,1,77.136,77.136h0a77.136,77.136,0,0,1-77.136,77.136h0a77.136,77.136,0,0,1-77.136-77.136h0A77.136,77.136,0,0,1,4719.391,891.5Z" transform="translate(-4642.255 -891.5)" fill="#fff"/>
    </g>
    <g>
      <path d="M4719.391,1045.772a77.136,77.136,0,1,1,77.136-77.136A77.224,77.224,0,0,1,4719.391,1045.772Zm0-151.467a74.331,74.331,0,1,0,74.331,74.331A74.415,74.415,0,0,0,4719.391,894.3Z" transform="translate(-4642.255 -891.5)" fill="#bd3454"/>
    </g>
  </g>
  <g transform="translate(701.517 269.263)" style="isolation: isolate">
    <g style="isolation: isolate">
      <path d="M4692.1,972.512a4.524,4.524,0,0,1,1.637,1.638,4.535,4.535,0,0,1,0,4.533,4.516,4.516,0,0,1-1.637,1.638,4.354,4.354,0,0,1-2.244.606h-9.694V978.5h8.482a2.051,2.051,0,0,0,1.492-.606,2.086,2.086,0,0,0,0-2.962,2.051,2.051,0,0,0-1.492-.606h-4.689a4.3,4.3,0,0,1-2.222-.595,4.434,4.434,0,0,1-1.6-1.616,4.422,4.422,0,0,1,0-4.432,4.467,4.467,0,0,1,1.6-1.6,4.3,4.3,0,0,1,2.222-.595h9.491v2.4h-8.3a2.032,2.032,0,0,0-2.02,2.02,1.9,1.9,0,0,0,.6,1.414,1.955,1.955,0,0,0,1.424.583h4.712A4.354,4.354,0,0,1,4692.1,972.512Z" transform="translate(-4679.539 -965.488)"/>
      <path d="M4697.467,965.512h3.59v3.5h-3.59Zm0,4.4h3.59v11.018h-3.59Z" transform="translate(-4680.705 -965.49)"/>
      <path d="M4717.023,969.256v11.669a3.689,3.689,0,0,1-.5,1.9,3.846,3.846,0,0,1-1.369,1.38,3.642,3.642,0,0,1-1.9.516h-9.224v-2.423h8.012a1.34,1.34,0,0,0,.986-.4,1.313,1.313,0,0,0,.405-.965v-1.862a12.326,12.326,0,0,1-4.242.853h-2.759a2.839,2.839,0,0,1-1.459-.393,2.959,2.959,0,0,1-1.458-2.547v-4.8a2.836,2.836,0,0,1,.393-1.459,2.919,2.919,0,0,1,1.065-1.066,2.847,2.847,0,0,1,1.459-.393h2.738a13,13,0,0,1,4.264.83v-.83Zm-6.957,8.235a15.578,15.578,0,0,0,3.367-.987v-3.837a16.9,16.9,0,0,0-3.367-1.01h-1.144a1.767,1.767,0,0,0-1.279.527,1.737,1.737,0,0,0-.54,1.29v2.2a1.736,1.736,0,0,0,.54,1.29,1.764,1.764,0,0,0,1.279.527Z" transform="translate(-4681.098 -965.733)"/>
      <path d="M4728.452,981.171v-7.7a1.8,1.8,0,0,0-1.817-1.818h-1.391a1.8,1.8,0,0,0-1.818,1.818v7.7h-3.59v-8.415a3.416,3.416,0,0,1,.471-1.75,3.5,3.5,0,0,1,1.279-1.279,3.41,3.41,0,0,1,1.75-.471h5.2a3.46,3.46,0,0,1,1.774.471,3.506,3.506,0,0,1,1.279,1.279,3.415,3.415,0,0,1,.471,1.75v8.415Z" transform="translate(-4682.159 -965.733)"/>
      <path d="M4748.272,969.256v11.915h-3.59v-.628a9.088,9.088,0,0,1-3.321.628H4737.7a2.843,2.843,0,0,1-1.458-.393,2.912,2.912,0,0,1-1.066-1.066,2.845,2.845,0,0,1-.393-1.459v-6.081a2.845,2.845,0,0,1,.393-1.459,2.911,2.911,0,0,1,1.066-1.066,2.842,2.842,0,0,1,1.458-.393h3.635a9.268,9.268,0,0,1,3.344.628v-.628Zm-3.59,8.886v-5.857a9.148,9.148,0,0,0-3.344-.628h-1.145a1.8,1.8,0,0,0-1.817,1.818v3.478a1.8,1.8,0,0,0,1.817,1.818h1.145A9.148,9.148,0,0,0,4744.682,978.142Z" transform="translate(-4683.131 -965.733)"/>
      <path d="M4755.031,980.928h-3.613V965.512h3.613Z" transform="translate(-4684.212 -965.49)"/>
      <path d="M4761.91,971.657a1.111,1.111,0,0,0-.83.348,1.165,1.165,0,0,0-.337.841,1.137,1.137,0,0,0,.337.819,1.108,1.108,0,0,0,.83.348h3.86a3.509,3.509,0,0,1,1.807.482,3.613,3.613,0,0,1,1.3,1.3,3.492,3.492,0,0,1,.482,1.806,3.451,3.451,0,0,1-.482,1.784,3.612,3.612,0,0,1-1.3,1.3,3.5,3.5,0,0,1-1.807.482H4757.6v-2.4h6.978a1.144,1.144,0,0,0,.841-.348,1.119,1.119,0,0,0,.348-.819,1.188,1.188,0,0,0-1.189-1.189h-3.859a3.511,3.511,0,0,1-1.8-.482,3.589,3.589,0,0,1-1.313-1.3,3.45,3.45,0,0,1-.481-1.784,3.494,3.494,0,0,1,.481-1.806,3.589,3.589,0,0,1,1.313-1.3,3.511,3.511,0,0,1,1.8-.482h8.077v2.4Z" transform="translate(-4684.584 -965.733)"/>
    </g>
  </g>
  <g transform="translate(95.384 463.75)">
    <g>
      <rect width="199.151" height="154.272" rx="10" fill="#fff"/>
    </g>
    <g transform="translate(0)">
      <path d="M4221.056,1327.772H4040.6a9.36,9.36,0,0,1-9.35-9.35V1182.85a9.36,9.36,0,0,1,9.35-9.35h180.451a9.36,9.36,0,0,1,9.35,9.35v135.572A9.36,9.36,0,0,1,4221.056,1327.772ZM4040.6,1176.3a6.553,6.553,0,0,0-6.545,6.545v135.572a6.553,6.553,0,0,0,6.545,6.545h180.451a6.553,6.553,0,0,0,6.545-6.545V1182.85a6.553,6.553,0,0,0-6.545-6.545Z" transform="translate(-4031.255 -1173.5)" fill="#bd3454"/>
    </g>
  </g>
  <g transform="translate(154.445 532.928)" style="isolation: isolate">
    <g style="isolation: isolate">
      <path d="M4107.136,1248.161a5.019,5.019,0,0,1,1.828,1.818,4.868,4.868,0,0,1,.673,2.513,4.927,4.927,0,0,1-.673,2.524,4.992,4.992,0,0,1-1.828,1.829,4.934,4.934,0,0,1-2.526.673h-6.595v5.408h-3.592v-15.438h10.186A4.933,4.933,0,0,1,4107.136,1248.161Zm-1.873,6.193a2.538,2.538,0,0,0,.762-1.863,2.6,2.6,0,0,0-2.6-2.6h-5.406v5.228h5.406A2.514,2.514,0,0,0,4105.263,1254.355Z" transform="translate(-4094.423 -1247.488)"/>
      <path d="M4120.568,1253.657h-2.737a1.733,1.733,0,0,0-1.268.527,1.757,1.757,0,0,0-.527,1.29v7.7h-3.613v-8.415a3.415,3.415,0,0,1,.471-1.75,3.5,3.5,0,0,1,1.279-1.279,3.411,3.411,0,0,1,1.75-.471h4.645Z" transform="translate(-4095.594 -1247.733)"/>
      <path d="M4122.551,1247.512h3.591v3.5h-3.591Zm0,4.4h3.591v11.018h-3.591Z" transform="translate(-4096.252 -1247.49)"/>
      <path d="M4137.073,1251.256h3.612l-4.69,11.915h-3.611l-4.6-11.915h3.612l2.8,7.27Z" transform="translate(-4096.592 -1247.733)"/>
      <path d="M4156.125,1251.256v11.915h-3.59v-.628a9.093,9.093,0,0,1-3.322.628h-3.658a2.84,2.84,0,0,1-1.458-.393,2.909,2.909,0,0,1-1.065-1.066,2.821,2.821,0,0,1-.393-1.458v-6.081a2.822,2.822,0,0,1,.393-1.458,2.911,2.911,0,0,1,1.065-1.066,2.841,2.841,0,0,1,1.458-.393h3.635a9.273,9.273,0,0,1,3.344.628v-.628Zm-3.59,8.886v-5.857a9.154,9.154,0,0,0-3.344-.628h-1.145a1.8,1.8,0,0,0-1.817,1.818v3.478a1.8,1.8,0,0,0,1.817,1.818h1.145A9.156,9.156,0,0,0,4152.535,1260.142Z" transform="translate(-4097.558 -1247.733)"/>
      <path d="M4163.33,1259.158a1.38,1.38,0,0,0,1.369,1.369h1.638v2.4h-2.85a3.635,3.635,0,0,1-1.807-.471,3.9,3.9,0,0,1-1.369-1.268,3.591,3.591,0,0,1-.595-1.761v-6.014h-1.5v-2.4h1.5v-3.5h3.613v3.5h3.007v2.4h-3.007Z" transform="translate(-4098.571 -1247.49)"/>
      <path d="M4177.926,1251.256a2.337,2.337,0,0,1,2.357,2.356v2.625a2.283,2.283,0,0,1-.684,1.661,2.258,2.258,0,0,1-1.673.7h-6.282v.808a1.379,1.379,0,0,0,1.368,1.369h7v2.4h-8.191a3.69,3.69,0,0,1-1.9-.5,3.734,3.734,0,0,1-1.369-1.369,3.687,3.687,0,0,1-.5-1.9v-4.376a3.689,3.689,0,0,1,.5-1.9,3.742,3.742,0,0,1,1.369-1.369,3.689,3.689,0,0,1,1.9-.505Zm-1.536,4.656a.907.907,0,0,0,.28-.662v-.651a.958.958,0,0,0-.942-.943h-2.716a1.379,1.379,0,0,0-1.368,1.369v1.167h4.084A.9.9,0,0,0,4176.391,1255.912Z" transform="translate(-4099.21 -1247.733)"/>
    </g>
  </g>
  <g transform="translate(486.205 463.75)">
    <g>
      <rect width="199.151" height="154.272" rx="10" fill="#fff"/>
    </g>
    <g transform="translate(0)">
      <path d="M4639.056,1327.772H4458.6a9.36,9.36,0,0,1-9.35-9.35V1182.85a9.36,9.36,0,0,1,9.35-9.35h180.451a9.361,9.361,0,0,1,9.35,9.35v135.572A9.361,9.361,0,0,1,4639.056,1327.772ZM4458.6,1176.3a6.553,6.553,0,0,0-6.545,6.545v135.572a6.553,6.553,0,0,0,6.545,6.545h180.451a6.553,6.553,0,0,0,6.545-6.545V1182.85a6.553,6.553,0,0,0-6.545-6.545Z" transform="translate(-4449.255 -1173.5)" fill="#bd3454"/>
    </g>
  </g>
  <g transform="translate(550.686 517.501)" style="isolation: isolate">
    <path d="M4530.931,1231.661a5.013,5.013,0,0,1,1.829,1.818,4.859,4.859,0,0,1,.674,2.513,4.919,4.919,0,0,1-.674,2.525,4.985,4.985,0,0,1-1.829,1.829,4.923,4.923,0,0,1-2.524.673h-6.6v5.408h-3.591v-15.438h10.188A4.924,4.924,0,0,1,4530.931,1231.661Zm-1.873,6.193a2.538,2.538,0,0,0,.762-1.863,2.6,2.6,0,0,0-2.6-2.6h-5.408v5.228h5.408A2.51,2.51,0,0,0,4529.059,1237.854Z" transform="translate(-4518.219 -1230.988)"/>
    <path d="M4539.81,1234.756v7.7a1.8,1.8,0,0,0,1.818,1.818h1.414a1.727,1.727,0,0,0,1.267-.527,1.756,1.756,0,0,0,.528-1.29v-7.7h3.612v8.415a3.416,3.416,0,0,1-.471,1.75,3.5,3.5,0,0,1-1.278,1.279,3.458,3.458,0,0,1-1.774.471h-5.206a3.409,3.409,0,0,1-1.75-.471,3.5,3.5,0,0,1-1.28-1.279,3.416,3.416,0,0,1-.471-1.75v-8.415Z" transform="translate(-4519.39 -1231.233)"/>
    <path d="M4563.2,1234.905a2.912,2.912,0,0,1,1.066,1.066,2.845,2.845,0,0,1,.393,1.458v6.081a2.846,2.846,0,0,1-.393,1.458,2.91,2.91,0,0,1-1.066,1.066,2.842,2.842,0,0,1-1.458.393h-3.658a9.086,9.086,0,0,1-3.32-.628v.628h-3.591v-15.416h3.591v4.129a9.383,9.383,0,0,1,3.343-.628h3.636A2.841,2.841,0,0,1,4563.2,1234.905Zm-2.132,3.826a1.8,1.8,0,0,0-1.817-1.818H4558.1a9.143,9.143,0,0,0-3.343.628v5.857a9.143,9.143,0,0,0,3.343.628h1.145a1.8,1.8,0,0,0,1.817-1.818Z" transform="translate(-4520.362 -1230.99)"/>
    <path d="M4571.416,1246.428H4567.8v-15.416h3.612Z" transform="translate(-4521.443 -1230.99)"/>
    <path d="M4574.211,1231.012h3.59v3.5h-3.59Zm0,4.4h3.59v11.018h-3.59Z" transform="translate(-4521.86 -1230.99)"/>
    <path d="M4592.488,1246.671h-8.707a3.449,3.449,0,0,1-1.772-.471,3.5,3.5,0,0,1-1.28-1.279,3.453,3.453,0,0,1-.472-1.773v-4.869a3.452,3.452,0,0,1,.472-1.773,3.5,3.5,0,0,1,1.28-1.279,3.449,3.449,0,0,1,1.772-.471h8.707v2.4h-6.821a1.773,1.773,0,0,0-1.28.527,1.738,1.738,0,0,0-.538,1.29v3.478a1.737,1.737,0,0,0,.538,1.29,1.769,1.769,0,0,0,1.28.527h6.821Z" transform="translate(-4522.253 -1231.233)"/>
  </g>
  <g transform="translate(535.113 549.412)" style="isolation: isolate">
    <path d="M4508.7,1281.32h-3.59a3.547,3.547,0,0,1-3.074-1.75,3.457,3.457,0,0,1-.471-1.773v-9.156a3.485,3.485,0,0,1,1.761-3.052,3.517,3.517,0,0,1,1.784-.471h3.59v2.379h-1.682a1.732,1.732,0,0,0-1.291.539,1.789,1.789,0,0,0-.528,1.3v7.764a1.714,1.714,0,0,0,.528,1.279,1.772,1.772,0,0,0,1.291.515h1.682Z" transform="translate(-4501.563 -1265.119)"/>
    <path d="M4524.257,1272.143a4.521,4.521,0,0,1,1.638,1.638,4.543,4.543,0,0,1,0,4.532,4.508,4.508,0,0,1-1.638,1.638,4.345,4.345,0,0,1-2.245.607h-9.693v-2.424h8.483a2.052,2.052,0,0,0,1.491-.606,2.085,2.085,0,0,0,0-2.962,2.051,2.051,0,0,0-1.491-.606h-4.691a4.293,4.293,0,0,1-2.222-.6,4.421,4.421,0,0,1-1.6-1.615,4.426,4.426,0,0,1,0-4.432,4.456,4.456,0,0,1,1.6-1.6,4.3,4.3,0,0,1,2.222-.595h9.491v2.4h-8.3a2.031,2.031,0,0,0-2.02,2.02,1.9,1.9,0,0,0,.6,1.413,1.958,1.958,0,0,0,1.425.583h4.711A4.352,4.352,0,0,1,4524.257,1272.143Z" transform="translate(-4502.222 -1265.119)"/>
    <path d="M4540.054,1269.035a2.909,2.909,0,0,1,1.065,1.066,2.841,2.841,0,0,1,.393,1.458v9h-3.59v-7.7a1.8,1.8,0,0,0-1.817-1.817h-.539a7.38,7.38,0,0,0-2.671.561v8.953h-3.612v-15.438h3.612v4.084a7.381,7.381,0,0,1,2.671-.561h3.03A2.846,2.846,0,0,1,4540.054,1269.035Z" transform="translate(-4503.365 -1265.119)"/>
    <path d="M4557.72,1268.887V1280.8h-3.59v-.628a9.081,9.081,0,0,1-3.32.628h-3.658a2.846,2.846,0,0,1-1.459-.393,2.918,2.918,0,0,1-1.067-1.066,2.854,2.854,0,0,1-.393-1.458V1271.8a2.856,2.856,0,0,1,.393-1.459,2.919,2.919,0,0,1,1.067-1.066,2.844,2.844,0,0,1,1.459-.393h3.634a9.265,9.265,0,0,1,3.343.628v-.628Zm-3.59,8.886v-5.857a9.137,9.137,0,0,0-3.343-.628h-1.143a1.8,1.8,0,0,0-1.819,1.817v3.479a1.8,1.8,0,0,0,1.819,1.818h1.143A9.137,9.137,0,0,0,4554.13,1277.773Z" transform="translate(-4504.337 -1265.364)"/>
    <path d="M4568.676,1271.288h-2.738a1.732,1.732,0,0,0-1.268.527,1.753,1.753,0,0,0-.526,1.289v7.7h-3.614v-8.415a3.416,3.416,0,0,1,.472-1.75,3.5,3.5,0,0,1,1.279-1.279,3.419,3.419,0,0,1,1.75-.471h4.645Z" transform="translate(-4505.397 -1265.364)"/>
    <path d="M4580.2,1268.887a2.337,2.337,0,0,1,2.355,2.356v2.625a2.284,2.284,0,0,1-.685,1.661,2.254,2.254,0,0,1-1.671.695h-6.284v.809a1.379,1.379,0,0,0,1.37,1.369h7v2.4h-8.19a3.687,3.687,0,0,1-1.9-.5,3.772,3.772,0,0,1-1.369-1.369,3.692,3.692,0,0,1-.5-1.9v-4.376a3.694,3.694,0,0,1,.5-1.9,3.767,3.767,0,0,1,1.369-1.369,3.68,3.68,0,0,1,1.9-.5Zm-1.538,4.656a.906.906,0,0,0,.281-.662v-.651a.959.959,0,0,0-.943-.942h-2.714a1.379,1.379,0,0,0-1.37,1.369v1.167H4578A.9.9,0,0,0,4578.658,1273.543Z" transform="translate(-4506.034 -1265.364)"/>
    <path d="M4598.759,1265.119v15.438h-3.59v-.628a9.081,9.081,0,0,1-3.32.628h-3.68a2.786,2.786,0,0,1-1.448-.393,2.954,2.954,0,0,1-1.055-1.066,2.856,2.856,0,0,1-.393-1.459v-6.081a2.855,2.855,0,0,1,.393-1.458,2.952,2.952,0,0,1,1.055-1.066,2.786,2.786,0,0,1,1.448-.393h3.656a9.138,9.138,0,0,1,3.344.628v-4.151Zm-3.59,12.409v-5.857a9.138,9.138,0,0,0-3.344-.628h-1.142a1.8,1.8,0,0,0-1.82,1.817v3.479a1.8,1.8,0,0,0,1.82,1.817h1.142A9.137,9.137,0,0,0,4595.169,1277.528Z" transform="translate(-4507.006 -1265.119)"/>
    <path d="M4604,1278.9a1.774,1.774,0,0,0,1.291-.515,1.717,1.717,0,0,0,.527-1.279v-7.764a1.793,1.793,0,0,0-.527-1.3,1.734,1.734,0,0,0-1.291-.539h-1.683v-2.379h3.59a3.522,3.522,0,0,1,1.785.471,3.487,3.487,0,0,1,1.76,3.052v9.156a3.484,3.484,0,0,1-1.76,3.051,3.513,3.513,0,0,1-1.785.472h-3.59V1278.9Z" transform="translate(-4508.114 -1265.119)"/>
  </g>
  <g transform="translate(95.384 0)">
    <g>
      <rect width="199.151" height="90.693" rx="10" fill="#fff"/>
    </g>
    <g transform="translate(0)">
      <path d="M4221.056,768.193H4040.6a9.36,9.36,0,0,1-9.35-9.35V686.85a9.36,9.36,0,0,1,9.35-9.35h180.451a9.36,9.36,0,0,1,9.35,9.35v71.994A9.36,9.36,0,0,1,4221.056,768.193ZM4040.6,680.3a6.553,6.553,0,0,0-6.545,6.545v71.994a6.553,6.553,0,0,0,6.545,6.545h180.451a6.553,6.553,0,0,0,6.545-6.545V686.85a6.553,6.553,0,0,0-6.545-6.545Z" transform="translate(-4031.255 -677.5)" fill="#bd3454"/>
    </g>
  </g>
  <g transform="translate(131.557 37.366)" style="isolation: isolate">
    <g style="isolation: isolate">
      <path d="M4075.171,720.327a3.307,3.307,0,0,0-1.178,1.178,3.12,3.12,0,0,0-.437,1.616v4.151a3.179,3.179,0,0,0,.437,1.627,3.273,3.273,0,0,0,1.178,1.189,3.122,3.122,0,0,0,1.617.438h4.375v-6.261h3.59v8.662h-9.178a5.483,5.483,0,0,1-2.827-.763,5.653,5.653,0,0,1-2.805-4.892V723.12a5.484,5.484,0,0,1,.753-2.816,5.626,5.626,0,0,1,2.052-2.053,5.492,5.492,0,0,1,2.827-.763h9.178v2.4h-7.965A3.122,3.122,0,0,0,4075.171,720.327Z" transform="translate(-4069.943 -717.466)"/>
      <path d="M4101.189,721.256v11.915h-3.59v-.628a9.094,9.094,0,0,1-3.323.628h-3.656a2.84,2.84,0,0,1-1.458-.393,2.9,2.9,0,0,1-1.067-1.066,2.843,2.843,0,0,1-.393-1.459v-6.081a2.843,2.843,0,0,1,.393-1.459,2.9,2.9,0,0,1,1.067-1.066,2.838,2.838,0,0,1,1.458-.393h3.635a9.268,9.268,0,0,1,3.344.628v-.628Zm-3.59,8.886v-5.857a9.151,9.151,0,0,0-3.344-.628h-1.144a1.8,1.8,0,0,0-1.818,1.818v3.478a1.8,1.8,0,0,0,1.818,1.818h1.144A9.152,9.152,0,0,0,4097.6,730.142Z" transform="translate(-4071.098 -717.711)"/>
      <path d="M4121.515,721.727a3.5,3.5,0,0,1,1.279,1.279,3.415,3.415,0,0,1,.471,1.75v8.415h-3.613v-7.7a1.756,1.756,0,0,0-.527-1.29,1.732,1.732,0,0,0-1.268-.527h-.54a1.732,1.732,0,0,0-1.267.527,1.756,1.756,0,0,0-.527,1.29v7.7h-3.613v-7.7a1.756,1.756,0,0,0-.527-1.29,1.732,1.732,0,0,0-1.268-.527h-.516a1.8,1.8,0,0,0-1.818,1.818v7.7h-3.59v-8.415a3.415,3.415,0,0,1,.471-1.75,3.488,3.488,0,0,1,1.279-1.279,3.417,3.417,0,0,1,1.751-.471h3.365a4.525,4.525,0,0,1,2.67.875,4.426,4.426,0,0,1,2.648-.875h3.389A3.411,3.411,0,0,1,4121.515,721.727Z" transform="translate(-4072.17 -717.711)"/>
      <path d="M4136.528,721.256a2.336,2.336,0,0,1,2.355,2.356v2.625a2.284,2.284,0,0,1-.684,1.661,2.255,2.255,0,0,1-1.671.7h-6.284v.808a1.378,1.378,0,0,0,1.369,1.369h7v2.4h-8.19a3.687,3.687,0,0,1-1.9-.5,3.762,3.762,0,0,1-1.369-1.369,3.692,3.692,0,0,1-.5-1.9v-4.376a3.694,3.694,0,0,1,.5-1.9,3.769,3.769,0,0,1,1.369-1.369,3.686,3.686,0,0,1,1.9-.5Zm-1.538,4.656a.906.906,0,0,0,.281-.662V724.6a.959.959,0,0,0-.943-.943h-2.714a1.378,1.378,0,0,0-1.369,1.369v1.167h4.083A.9.9,0,0,0,4134.99,725.912Z" transform="translate(-4073.63 -717.711)"/>
      <path d="M4167.274,717.488h3.591v15.438h-3.591l-7.629-10.5v10.5h-3.591V717.488h3.591l7.629,10.5Z" transform="translate(-4075.542 -717.466)"/>
      <path d="M4178.9,720.271a2.868,2.868,0,0,0-1.055,1.043,2.791,2.791,0,0,0-.393,1.447v2.446h11.22v2.4h-11.22v5.318h-3.59V722.761a5.157,5.157,0,0,1,.707-2.648,5.247,5.247,0,0,1,1.919-1.919,5.16,5.16,0,0,1,2.648-.707h9.536v2.4h-8.348A2.8,2.8,0,0,0,4178.9,720.271Z" transform="translate(-4076.7 -717.466)"/>
      <path d="M4205.254,717.464v2.423h-5.61v13.037h-3.612V719.887h-5.61v-2.423Z" transform="translate(-4077.777 -717.464)"/>
    </g>
  </g>
  <g transform="translate(486.205 0)">
    <g>
      <rect width="199.151" height="90.693" rx="10" fill="#fff"/>
    </g>
    <g transform="translate(0)">
      <path d="M4639.056,768.193H4458.6a9.36,9.36,0,0,1-9.35-9.35V686.85a9.36,9.36,0,0,1,9.35-9.35h180.451a9.36,9.36,0,0,1,9.35,9.35v71.994A9.36,9.36,0,0,1,4639.056,768.193ZM4458.6,680.3a6.553,6.553,0,0,0-6.545,6.545v71.994a6.553,6.553,0,0,0,6.545,6.545h180.451a6.553,6.553,0,0,0,6.545-6.545V686.85a6.553,6.553,0,0,0-6.545-6.545Z" transform="translate(-4449.255 -677.5)" fill="#bd3454"/>
    </g>
  </g>
  <g transform="translate(499.614 37.388)" style="isolation: isolate">
    <g style="isolation: isolate">
      <path d="M4468.824,720.327a3.3,3.3,0,0,0-1.178,1.178,3.12,3.12,0,0,0-.437,1.616v4.151a3.18,3.18,0,0,0,.437,1.627,3.264,3.264,0,0,0,1.178,1.189,3.124,3.124,0,0,0,1.616.438h4.376v-6.261h3.591v8.662h-9.179a5.482,5.482,0,0,1-2.828-.763,5.646,5.646,0,0,1-2.8-4.892V723.12a5.492,5.492,0,0,1,.751-2.816,5.632,5.632,0,0,1,2.053-2.053,5.491,5.491,0,0,1,2.828-.763h9.179v2.4h-7.967A3.124,3.124,0,0,0,4468.824,720.327Z" transform="translate(-4463.596 -717.488)"/>
      <path d="M4494.841,721.256v11.915h-3.59v-.628a9.079,9.079,0,0,1-3.32.628h-3.657a2.846,2.846,0,0,1-1.459-.393,2.928,2.928,0,0,1-1.067-1.066,2.855,2.855,0,0,1-.393-1.459v-6.081a2.855,2.855,0,0,1,.393-1.459,2.927,2.927,0,0,1,1.067-1.066,2.845,2.845,0,0,1,1.459-.393h3.633a9.262,9.262,0,0,1,3.344.628v-.628Zm-3.59,8.886v-5.857a9.139,9.139,0,0,0-3.344-.628h-1.142a1.8,1.8,0,0,0-1.82,1.818v3.478a1.8,1.8,0,0,0,1.82,1.818h1.142A9.14,9.14,0,0,0,4491.251,730.142Z" transform="translate(-4464.751 -717.733)"/>
      <path d="M4515.167,721.727a3.5,3.5,0,0,1,1.28,1.279,3.415,3.415,0,0,1,.471,1.75v8.415h-3.613v-7.7a1.76,1.76,0,0,0-.527-1.29,1.734,1.734,0,0,0-1.268-.527h-.539a1.733,1.733,0,0,0-1.269.527,1.759,1.759,0,0,0-.526,1.29v7.7h-3.613v-7.7a1.753,1.753,0,0,0-.528-1.29,1.729,1.729,0,0,0-1.267-.527h-.517a1.8,1.8,0,0,0-1.817,1.818v7.7h-3.59v-8.415a3.415,3.415,0,0,1,.471-1.75,3.5,3.5,0,0,1,1.279-1.279,3.416,3.416,0,0,1,1.75-.471h3.366a4.527,4.527,0,0,1,2.67.875,4.427,4.427,0,0,1,2.648-.875h3.389A3.408,3.408,0,0,1,4515.167,721.727Z" transform="translate(-4465.823 -717.733)"/>
      <path d="M4530.181,721.256a2.338,2.338,0,0,1,2.356,2.356v2.625a2.285,2.285,0,0,1-.685,1.661,2.256,2.256,0,0,1-1.671.7H4523.9v.808a1.381,1.381,0,0,0,1.37,1.369h7v2.4h-8.192a3.692,3.692,0,0,1-1.9-.5,3.744,3.744,0,0,1-1.368-1.369,3.679,3.679,0,0,1-.506-1.9v-4.376a3.681,3.681,0,0,1,.506-1.9,3.75,3.75,0,0,1,1.368-1.369,3.691,3.691,0,0,1,1.9-.5Zm-1.537,4.656a.907.907,0,0,0,.28-.662V724.6a.958.958,0,0,0-.941-.943h-2.716a1.381,1.381,0,0,0-1.37,1.369v1.167h4.086A.9.9,0,0,0,4528.644,725.912Z" transform="translate(-4467.284 -717.733)"/>
      <path d="M4563.144,721.256v11.915h-3.59v-.628a9.088,9.088,0,0,1-3.321.628h-3.657a2.845,2.845,0,0,1-1.458-.393,2.906,2.906,0,0,1-1.067-1.066,2.85,2.85,0,0,1-.393-1.459v-6.081a2.85,2.85,0,0,1,.393-1.459,2.9,2.9,0,0,1,1.067-1.066,2.844,2.844,0,0,1,1.458-.393h3.635a9.264,9.264,0,0,1,3.344.628v-.628Zm-3.59,8.886v-5.857a9.147,9.147,0,0,0-3.344-.628h-1.144a1.8,1.8,0,0,0-1.818,1.818v3.478a1.8,1.8,0,0,0,1.818,1.818h1.144A9.148,9.148,0,0,0,4559.554,730.142Z" transform="translate(-4469.192 -717.733)"/>
      <path d="M4578.185,733.171h-8.707a3.506,3.506,0,0,1-3.523-3.523v-4.869a3.452,3.452,0,0,1,.471-1.773,3.5,3.5,0,0,1,3.052-1.75h8.707v2.4h-6.823a1.767,1.767,0,0,0-1.278.527,1.733,1.733,0,0,0-.539,1.29v3.478a1.732,1.732,0,0,0,.539,1.29,1.763,1.763,0,0,0,1.278.527h6.823Z" transform="translate(-4470.251 -717.733)"/>
      <path d="M4593.135,733.171h-8.707a3.455,3.455,0,0,1-1.772-.471,3.494,3.494,0,0,1-1.279-1.279,3.457,3.457,0,0,1-.472-1.773v-4.869a3.457,3.457,0,0,1,.472-1.773,3.494,3.494,0,0,1,1.279-1.279,3.455,3.455,0,0,1,1.772-.471h8.707v2.4h-6.821a1.771,1.771,0,0,0-1.279.527,1.738,1.738,0,0,0-.538,1.29v3.478a1.737,1.737,0,0,0,.538,1.29,1.767,1.767,0,0,0,1.279.527h6.821Z" transform="translate(-4471.224 -717.733)"/>
      <path d="M4606.337,721.727a3.486,3.486,0,0,1,1.279,1.279,3.411,3.411,0,0,1,.471,1.75v4.914a3.41,3.41,0,0,1-.471,1.75,3.505,3.505,0,0,1-3.052,1.75h-5.206a3.4,3.4,0,0,1-1.762-.471,3.526,3.526,0,0,1-1.269-1.279,3.415,3.415,0,0,1-.471-1.75v-4.914a3.415,3.415,0,0,1,.471-1.75,3.526,3.526,0,0,1,1.269-1.279,3.4,3.4,0,0,1,1.762-.471h5.206A3.459,3.459,0,0,1,4606.337,721.727Zm-1.862,3.747a1.8,1.8,0,0,0-1.818-1.818h-1.39a1.8,1.8,0,0,0-1.82,1.818v3.478a1.8,1.8,0,0,0,1.82,1.818h1.39a1.8,1.8,0,0,0,1.818-1.818Z" transform="translate(-4472.196 -717.733)"/>
      <path d="M4614.4,721.256v7.7a1.8,1.8,0,0,0,1.819,1.818h1.413a1.727,1.727,0,0,0,1.268-.527,1.751,1.751,0,0,0,.527-1.29v-7.7h3.614v8.415a3.41,3.41,0,0,1-.471,1.75,3.5,3.5,0,0,1-1.279,1.279,3.461,3.461,0,0,1-1.773.471h-5.205a3.409,3.409,0,0,1-1.75-.471,3.49,3.49,0,0,1-1.28-1.279,3.424,3.424,0,0,1-.47-1.75v-8.415Z" transform="translate(-4473.168 -717.733)"/>
      <path d="M4634.378,733.171v-7.7a1.8,1.8,0,0,0-1.817-1.818h-1.392a1.8,1.8,0,0,0-1.816,1.818v7.7h-3.59v-8.415a3.415,3.415,0,0,1,.471-1.75,3.491,3.491,0,0,1,1.278-1.279,3.415,3.415,0,0,1,1.751-.471h5.206a3.458,3.458,0,0,1,1.773.471,3.506,3.506,0,0,1,1.279,1.279,3.411,3.411,0,0,1,.471,1.75v8.415Z" transform="translate(-4474.14 -717.733)"/>
      <path d="M4645.109,729.158a1.378,1.378,0,0,0,1.369,1.369h1.638v2.4h-2.85a3.637,3.637,0,0,1-1.806-.471,3.926,3.926,0,0,1-1.37-1.268,3.578,3.578,0,0,1-.592-1.762v-6.014h-1.505v-2.4h1.505v-3.5h3.611v3.5h3.007v2.4h-3.007Z" transform="translate(-4475.065 -717.49)"/>
    </g>
  </g>
  <g transform="translate(0 269.263)" style="isolation: isolate">
    <g style="isolation: isolate">
      <path d="M3934.277,968.27a2.877,2.877,0,0,0-1.056,1.043,2.8,2.8,0,0,0-.393,1.447V972h11.22v2.4h-11.22v1.234a2.8,2.8,0,0,0,.393,1.447,2.87,2.87,0,0,0,1.056,1.043,2.8,2.8,0,0,0,1.424.382h8.348v2.423h-9.536a5.094,5.094,0,0,1-2.648-.718,5.335,5.335,0,0,1-1.92-1.93,5.162,5.162,0,0,1-.707-2.648v-4.869a5.162,5.162,0,0,1,.707-2.648,5.247,5.247,0,0,1,1.92-1.919,5.156,5.156,0,0,1,2.648-.707h9.536v2.4H3935.7A2.8,2.8,0,0,0,3934.277,968.27Z" transform="translate(-3929.238 -965.488)"/>
      <path d="M3955.472,969.256h3.613l-4.689,11.915h-3.613l-4.6-11.915h3.612l2.805,7.27Z" transform="translate(-3930.34 -965.733)"/>
      <path d="M3970.911,969.256a2.336,2.336,0,0,1,2.356,2.356v2.625a2.287,2.287,0,0,1-.684,1.661,2.259,2.259,0,0,1-1.673.7h-6.283v.808A1.381,1.381,0,0,0,3966,978.77h7v2.4h-8.19a3.691,3.691,0,0,1-1.9-.5,3.755,3.755,0,0,1-1.369-1.369,3.7,3.7,0,0,1-.5-1.9v-4.376a3.7,3.7,0,0,1,.5-1.9,3.762,3.762,0,0,1,1.369-1.369,3.69,3.69,0,0,1,1.9-.5Zm-1.537,4.656a.906.906,0,0,0,.28-.662V972.6a.958.958,0,0,0-.942-.942H3966a1.381,1.381,0,0,0-1.369,1.369v1.167h4.084A.9.9,0,0,0,3969.375,973.912Z" transform="translate(-3931.306 -965.733)"/>
      <path d="M3984.606,981.171v-7.7a1.8,1.8,0,0,0-1.817-1.818H3981.4a1.8,1.8,0,0,0-1.817,1.818v7.7h-3.59v-8.415a3.413,3.413,0,0,1,.471-1.75,3.493,3.493,0,0,1,1.278-1.279,3.419,3.419,0,0,1,1.751-.471h5.206a3.453,3.453,0,0,1,1.772.471,3.5,3.5,0,0,1,1.28,1.279,3.413,3.413,0,0,1,.471,1.75v8.415Z" transform="translate(-3932.278 -965.733)"/>
      <path d="M3995.337,977.158a1.379,1.379,0,0,0,1.369,1.369h1.638v2.4h-2.85a3.636,3.636,0,0,1-1.806-.471,3.919,3.919,0,0,1-1.37-1.268,3.587,3.587,0,0,1-.594-1.762v-6.014h-1.5v-2.4h1.5v-3.5h3.612v3.5h3.007v2.4h-3.007Z" transform="translate(-3933.203 -965.49)"/>
    </g>
  </g>
  <g transform="translate(149.819 243.061)" style="isolation: isolate">
    <g style="isolation: isolate">
      <path d="M4093.064,952.925h-3.589V937.464h3.589Z" transform="translate(-4089.475 -937.464)"/>
      <path d="M4104,953.171v-7.7a1.8,1.8,0,0,0-1.818-1.818h-1.391a1.8,1.8,0,0,0-1.818,1.818v7.7h-3.59v-8.415a3.413,3.413,0,0,1,.471-1.75,3.5,3.5,0,0,1,1.279-1.279,3.415,3.415,0,0,1,1.75-.471h5.206a3.458,3.458,0,0,1,1.773.471,3.5,3.5,0,0,1,1.279,1.279,3.411,3.411,0,0,1,.471,1.75v8.415Z" transform="translate(-4089.859 -937.711)"/>
      <path d="M4122.357,941.673a2.909,2.909,0,0,1,1.066,1.066,2.845,2.845,0,0,1,.393,1.459v6.059a2.845,2.845,0,0,1-.393,1.459,2.91,2.91,0,0,1-1.066,1.066,2.844,2.844,0,0,1-1.458.393h-3.613a7.578,7.578,0,0,1-3.344-.808V956.7h-3.613V941.28h3.613v.785a7.93,7.93,0,0,1,3.321-.785h3.636A2.844,2.844,0,0,1,4122.357,941.673Zm-2.131,3.8a1.769,1.769,0,0,0-.526-1.279,1.713,1.713,0,0,0-1.269-.539h-1.144a7.961,7.961,0,0,0-3.344.785v5.543a7.565,7.565,0,0,0,3.344.785h1.144a1.731,1.731,0,0,0,1.269-.527,1.758,1.758,0,0,0,.526-1.29Z" transform="translate(-4090.831 -937.712)"/>
      <path d="M4130.216,941.256v7.7a1.8,1.8,0,0,0,1.818,1.818h1.414a1.727,1.727,0,0,0,1.267-.527,1.756,1.756,0,0,0,.528-1.29v-7.7h3.613v8.415a3.411,3.411,0,0,1-.471,1.75,3.5,3.5,0,0,1-1.279,1.279,3.459,3.459,0,0,1-1.773.471h-5.206a3.407,3.407,0,0,1-1.75-.471,3.5,3.5,0,0,1-1.279-1.279,3.416,3.416,0,0,1-.471-1.75v-8.415Z" transform="translate(-4091.891 -937.711)"/>
      <path d="M4145.973,949.158a1.382,1.382,0,0,0,1.369,1.369h1.638v2.4h-2.85a3.642,3.642,0,0,1-1.807-.471,3.91,3.91,0,0,1-1.368-1.268,3.591,3.591,0,0,1-.595-1.762v-6.014h-1.5v-2.4h1.5v-3.5h3.612v3.5h3.007v2.4h-3.007Z" transform="translate(-4092.816 -937.467)"/>
    </g>
  </g>
  <g transform="translate(336.705 412.76)" style="isolation: isolate">
    <g style="isolation: isolate">
      <path d="M4302.665,1118.964h3.614v15.461h-3.614v-10.053l-2.984,4.533h-3.568l-3.141-4.645v10.165h-3.614v-15.461h3.614l4.914,7.248Z" transform="translate(-4289.358 -1118.964)"/>
      <path d="M4322.98,1122.756v11.915h-3.59v-.628a9.09,9.09,0,0,1-3.322.628h-3.657a2.838,2.838,0,0,1-1.457-.393,2.9,2.9,0,0,1-1.067-1.066,2.84,2.84,0,0,1-.393-1.458v-6.081a2.841,2.841,0,0,1,.393-1.458,2.9,2.9,0,0,1,1.067-1.066,2.838,2.838,0,0,1,1.457-.393h3.636a9.269,9.269,0,0,1,3.344.628v-.628Zm-3.59,8.886v-5.857a9.149,9.149,0,0,0-3.344-.628H4314.9a1.8,1.8,0,0,0-1.817,1.818v3.478a1.8,1.8,0,0,0,1.817,1.818h1.145A9.152,9.152,0,0,0,4319.39,1131.642Z" transform="translate(-4290.667 -1119.211)"/>
      <path d="M4326.126,1119.012h3.59v3.5h-3.59Zm0,4.4h3.59v11.018h-3.59Z" transform="translate(-4291.749 -1118.967)"/>
      <path d="M4340.791,1134.671v-7.7a1.8,1.8,0,0,0-1.819-1.818h-1.39a1.8,1.8,0,0,0-1.818,1.818v7.7h-3.59v-8.415a3.406,3.406,0,0,1,.472-1.75,3.493,3.493,0,0,1,1.279-1.279,3.411,3.411,0,0,1,1.75-.471h5.206a3.453,3.453,0,0,1,1.772.471,3.491,3.491,0,0,1,1.279,1.279,3.415,3.415,0,0,1,.471,1.75v8.415Z" transform="translate(-4292.142 -1119.211)"/>
      <path d="M4351.521,1130.658a1.382,1.382,0,0,0,1.37,1.369h1.639v2.4h-2.851a3.638,3.638,0,0,1-1.807-.471,3.916,3.916,0,0,1-1.369-1.268,3.584,3.584,0,0,1-.593-1.761v-6.014h-1.5v-2.4h1.5v-3.5h3.611v3.5h3.008v2.4h-3.008Z" transform="translate(-4293.067 -1118.967)"/>
      <path d="M4369.731,1122.756v11.915h-3.59v-.628a9.087,9.087,0,0,1-3.321.628h-3.657a2.845,2.845,0,0,1-1.459-.393,2.912,2.912,0,0,1-1.066-1.066,2.84,2.84,0,0,1-.393-1.458v-6.081a2.841,2.841,0,0,1,.393-1.458,2.913,2.913,0,0,1,1.066-1.066,2.845,2.845,0,0,1,1.459-.393h3.635a9.267,9.267,0,0,1,3.344.628v-.628Zm-3.59,8.886v-5.857a9.147,9.147,0,0,0-3.344-.628h-1.145a1.8,1.8,0,0,0-1.817,1.818v3.478a1.8,1.8,0,0,0,1.817,1.818h1.145A9.15,9.15,0,0,0,4366.141,1131.642Z" transform="translate(-4293.707 -1119.211)"/>
      <path d="M4372.877,1119.012h3.59v3.5h-3.59Zm0,4.4h3.59v11.018h-3.59Z" transform="translate(-4294.788 -1118.967)"/>
      <path d="M4387.542,1134.671v-7.7a1.8,1.8,0,0,0-1.818-1.818h-1.391a1.8,1.8,0,0,0-1.818,1.818v7.7h-3.59v-8.415a3.411,3.411,0,0,1,.472-1.75,3.493,3.493,0,0,1,1.279-1.279,3.411,3.411,0,0,1,1.75-.471h5.205a3.456,3.456,0,0,1,1.773.471,3.5,3.5,0,0,1,1.279,1.279,3.415,3.415,0,0,1,.471,1.75v8.415Z" transform="translate(-4295.182 -1119.211)"/>
    </g>
  </g>
  <g transform="translate(535.362 243.084)" style="isolation: isolate">
    <g style="isolation: isolate">
      <path d="M4502.3,939.238a3.5,3.5,0,0,1,1.28-1.279,3.411,3.411,0,0,1,1.75-.471h7.786a3.459,3.459,0,0,1,1.774.471,3.5,3.5,0,0,1,1.278,1.279,3.416,3.416,0,0,1,.472,1.75V949.4a3.506,3.506,0,0,1-3.524,3.523h-7.786a3.35,3.35,0,0,1-1.75-.482,3.592,3.592,0,0,1-1.28-1.29,3.411,3.411,0,0,1-.471-1.75v-8.415A3.411,3.411,0,0,1,4502.3,939.238Zm10.2,10.737a1.726,1.726,0,0,0,.528-1.268v-7a1.752,1.752,0,0,0-.528-1.29,1.727,1.727,0,0,0-1.267-.527h-3.994a1.8,1.8,0,0,0-1.818,1.818v7a1.728,1.728,0,0,0,.526,1.268,1.756,1.756,0,0,0,1.292.527h3.994A1.727,1.727,0,0,0,4512.5,949.976Z" transform="translate(-4501.83 -937.488)"/>
      <path d="M4523.18,941.256v7.7A1.8,1.8,0,0,0,4525,950.77h1.414a1.729,1.729,0,0,0,1.267-.527,1.755,1.755,0,0,0,.528-1.29v-7.7h3.612v8.415a3.416,3.416,0,0,1-.471,1.75,3.5,3.5,0,0,1-3.052,1.75h-5.206a3.41,3.41,0,0,1-1.75-.471,3.5,3.5,0,0,1-1.279-1.279,3.407,3.407,0,0,1-.472-1.75v-8.415Z" transform="translate(-4502.985 -937.733)"/>
      <path d="M4538.938,949.158a1.381,1.381,0,0,0,1.369,1.369h1.638v2.4h-2.85a3.642,3.642,0,0,1-1.808-.471,3.906,3.906,0,0,1-1.368-1.268,3.586,3.586,0,0,1-.594-1.762v-6.014h-1.5v-2.4h1.5v-3.5h3.612v3.5h3.007v2.4h-3.007Z" transform="translate(-4503.91 -937.49)"/>
      <path d="M4555.689,941.673a2.919,2.919,0,0,1,1.067,1.066,2.86,2.86,0,0,1,.393,1.459v6.059a2.86,2.86,0,0,1-.393,1.459,2.92,2.92,0,0,1-1.067,1.066,2.846,2.846,0,0,1-1.458.393h-3.612a7.58,7.58,0,0,1-3.345-.808V956.7h-3.612V941.28h3.612v.785a7.929,7.929,0,0,1,3.322-.785h3.635A2.846,2.846,0,0,1,4555.689,941.673Zm-2.131,3.8a1.77,1.77,0,0,0-.527-1.279,1.711,1.711,0,0,0-1.268-.539h-1.145a7.961,7.961,0,0,0-3.345.785v5.543a7.567,7.567,0,0,0,3.345.785h1.145a1.729,1.729,0,0,0,1.268-.527,1.759,1.759,0,0,0,.527-1.29Z" transform="translate(-4504.55 -937.735)"/>
      <path d="M4563.547,941.256v7.7a1.8,1.8,0,0,0,1.819,1.818h1.413a1.725,1.725,0,0,0,1.267-.527,1.756,1.756,0,0,0,.528-1.29v-7.7h3.612v8.415a3.42,3.42,0,0,1-.471,1.75,3.5,3.5,0,0,1-1.278,1.279,3.46,3.46,0,0,1-1.773.471h-5.206a3.409,3.409,0,0,1-1.75-.471,3.505,3.505,0,0,1-1.28-1.279,3.42,3.42,0,0,1-.471-1.75v-8.415Z" transform="translate(-4505.609 -937.733)"/>
      <path d="M4579.306,949.158a1.381,1.381,0,0,0,1.369,1.369h1.638v2.4h-2.85a3.644,3.644,0,0,1-1.807-.471,3.9,3.9,0,0,1-1.367-1.268,3.6,3.6,0,0,1-.6-1.762v-6.014h-1.5v-2.4h1.5v-3.5h3.613v3.5h3.007v2.4h-3.007Z" transform="translate(-4506.535 -937.49)"/>
    </g>
  </g>
  <g transform="translate(73.412 276.131)">
    <rect width="212.412" height="2.805"/>
  </g>
  <g transform="translate(276.782 268.734)">
    <path d="M4226.521,982.515l-1.253-1.388,8.235-7.438-8.232-7.374,1.247-1.393,9.781,8.762Z" transform="translate(-4225.268 -964.922)"/>
  </g>
  <g transform="translate(486.842 275.802)">
    <rect width="177.475" height="2.805" transform="translate(0 0.347) rotate(-0.112)"/>
  </g>
  <g transform="translate(656.089 268.422)">
    <path d="M4632.2,982.181l-1.252-1.388,8.235-7.438-8.232-7.374,1.248-1.393,9.781,8.762Z" transform="translate(-4630.952 -964.588)"/>
  </g>
  <g transform="translate(338.598 121.046)" style="isolation: isolate">
    <g style="isolation: isolate">
      <path d="M4294.974,822.425h-3.591V806.964h3.591Z" transform="translate(-4291.383 -806.964)"/>
      <path d="M4305.9,822.671v-7.7a1.8,1.8,0,0,0-1.816-1.818h-1.393a1.8,1.8,0,0,0-1.817,1.818v7.7h-3.59v-8.415a3.415,3.415,0,0,1,.471-1.75,3.491,3.491,0,0,1,1.279-1.279,3.409,3.409,0,0,1,1.75-.471h5.206a3.459,3.459,0,0,1,1.773.471,3.5,3.5,0,0,1,1.278,1.279,3.406,3.406,0,0,1,.472,1.75v8.415Z" transform="translate(-4291.767 -807.211)"/>
      <path d="M4312.574,807.012h3.59v3.5h-3.59Zm0,4.4h3.59v11.018h-3.59Z" transform="translate(-4292.761 -806.967)"/>
      <path d="M4323.018,818.658a1.381,1.381,0,0,0,1.369,1.369h1.638v2.4h-2.85a3.645,3.645,0,0,1-1.808-.471,3.9,3.9,0,0,1-1.368-1.268,3.6,3.6,0,0,1-.595-1.762v-6.014h-1.5v-2.4h1.5v-3.5h3.613v3.5h3.007v2.4h-3.007Z" transform="translate(-4293.107 -806.967)"/>
      <path d="M4328.078,807.012h3.59v3.5h-3.59Zm0,4.4h3.59v11.018h-3.59Z" transform="translate(-4293.769 -806.967)"/>
      <path d="M4347.611,810.756v11.915h-3.59v-.628a9.084,9.084,0,0,1-3.321.628h-3.657a2.845,2.845,0,0,1-1.458-.393,2.913,2.913,0,0,1-1.067-1.066,2.855,2.855,0,0,1-.393-1.459v-6.081a2.855,2.855,0,0,1,.393-1.459,2.912,2.912,0,0,1,1.067-1.066,2.845,2.845,0,0,1,1.458-.393h3.634a9.262,9.262,0,0,1,3.344.628v-.628Zm-3.59,8.886v-5.857a9.144,9.144,0,0,0-3.344-.628h-1.143a1.8,1.8,0,0,0-1.819,1.818v3.478a1.8,1.8,0,0,0,1.819,1.818h1.143A9.143,9.143,0,0,0,4344.021,819.642Z" transform="translate(-4294.162 -807.211)"/>
      <path d="M4354.37,822.428h-3.613V807.012h3.613Z" transform="translate(-4295.243 -806.967)"/>
      <path d="M4357.165,807.012h3.59v3.5h-3.59Zm0,4.4h3.59v11.018h-3.59Z" transform="translate(-4295.66 -806.967)"/>
      <path d="M4375.106,810.756v2.4l-5.924,7.113h5.924v2.4h-12.229v-2.4h2l5.924-7.113h-7.921v-2.4Z" transform="translate(-4296.031 -807.211)"/>
      <path d="M4387.366,810.756a2.337,2.337,0,0,1,2.355,2.356v2.625a2.286,2.286,0,0,1-.685,1.661,2.255,2.255,0,0,1-1.671.7h-6.284v.808a1.38,1.38,0,0,0,1.37,1.369h7v2.4h-8.191a3.686,3.686,0,0,1-1.9-.5A3.757,3.757,0,0,1,4378,820.8a3.687,3.687,0,0,1-.5-1.9v-4.376a3.69,3.69,0,0,1,.5-1.9,3.764,3.764,0,0,1,1.369-1.369,3.685,3.685,0,0,1,1.9-.5Zm-1.538,4.656a.907.907,0,0,0,.28-.662V814.1a.958.958,0,0,0-.941-.942h-2.715a1.38,1.38,0,0,0-1.37,1.369v1.167h4.085A.9.9,0,0,0,4385.828,815.412Z" transform="translate(-4296.981 -807.211)"/>
    </g>
  </g>
  <g transform="translate(193.601 143.987)">
    <rect width="393.57" height="2.805"/>
  </g>
  <g transform="translate(377.831 189.517)">
    <path d="M4342.105,891.228l-8.762-9.781,1.394-1.247,7.374,8.232,7.442-8.236,1.388,1.255Z" transform="translate(-4333.344 -880.196)"/>
  </g>
  <g transform="translate(193.564 90.691)">
    <rect width="55.631" height="2.805" transform="translate(0 55.631) rotate(-89.925)"/>
  </g>
  <g transform="translate(584.379 90.693)">
    <rect width="2.805" height="55.631"/>
  </g>
  <g transform="translate(385.228 146.324)">
    <rect width="2.805" height="51.891"/>
  </g>
  <g transform="translate(193.697 402.962)">
    <rect width="394.834" height="2.805"/>
  </g>
  <g transform="translate(578.371 452.247)">
    <path d="M4556.591,1172.228l-8.762-9.781,1.394-1.247,7.374,8.232,7.441-8.236,1.388,1.255Z" transform="translate(-4547.829 -1161.196)"/>
  </g>
  <g transform="translate(385.221 354.355)">
    <rect width="50.957" height="2.805" transform="translate(0 50.956) rotate(-89.888)"/>
  </g>
  <g transform="translate(585.768 404.372)">
    <rect width="2.805" height="55.631"/>
  </g>
  <g transform="translate(193.579 404.357)">
    <rect width="2.805" height="57.501"/>
  </g>
  <g transform="translate(186.159 452.226)">
    <path d="M4137.1,1172.205l-8.762-9.782,1.394-1.247,7.374,8.233,7.442-8.236,1.388,1.253Z" transform="translate(-4128.343 -1161.174)"/>
  </g>
  <g transform="translate(882.686 143.805)">
    <rect width="2.805" height="261.908"/>
  </g>
  <g transform="translate(821.864 275.819)">
    <rect width="62.176" height="2.805"/>
  </g>
  <g transform="translate(884.036 143.831)">
    <rect width="2.805" height="58.904" transform="translate(0 2.805) rotate(-89.848)"/>
  </g>
  <g transform="translate(934.64 136.589)">
    <path d="M4930.126,841.181l-1.252-1.388,8.235-7.438-8.232-7.374,1.248-1.393,9.781,8.762Z" transform="translate(-4928.874 -823.588)"/>
  </g>
  <g transform="translate(945.281 374.927)">
    <g>
      <rect width="148.662" height="57.034" rx="10" fill="#fff"/>
    </g>
    <g transform="translate(0)">
      <path d="M5079.567,1135.534H4949.6a9.361,9.361,0,0,1-9.35-9.35V1087.85a9.361,9.361,0,0,1,9.35-9.35h129.962a9.361,9.361,0,0,1,9.35,9.35v38.334A9.361,9.361,0,0,1,5079.567,1135.534ZM4949.6,1081.3a6.553,6.553,0,0,0-6.544,6.545v38.334a6.553,6.553,0,0,0,6.544,6.545h129.962a6.553,6.553,0,0,0,6.545-6.545V1087.85a6.553,6.553,0,0,0-6.545-6.545Z" transform="translate(-4940.255 -1078.5)" fill="#bd3454"/>
    </g>
  </g>
  <g transform="translate(945.281 116.873)">
    <g>
      <rect width="149.597" height="57.034" rx="10" fill="#fff"/>
    </g>
    <g transform="translate(0)">
      <path d="M5080.5,859.534H4949.6a9.361,9.361,0,0,1-9.35-9.35V811.85a9.361,9.361,0,0,1,9.35-9.35h130.9a9.36,9.36,0,0,1,9.35,9.35v38.334A9.36,9.36,0,0,1,5080.5,859.534ZM4949.6,805.3a6.553,6.553,0,0,0-6.544,6.545v38.334a6.553,6.553,0,0,0,6.544,6.545h130.9a6.553,6.553,0,0,0,6.545-6.545V811.85a6.553,6.553,0,0,0-6.545-6.545Z" transform="translate(-4940.255 -802.5)" fill="#bd3454"/>
    </g>
  </g>
  <g transform="translate(945.281 202.891)">
    <g>
      <rect width="148.662" height="57.034" rx="10" fill="#fff"/>
    </g>
    <g transform="translate(0)">
      <path d="M5079.567,951.534H4949.6a9.361,9.361,0,0,1-9.35-9.35V903.85a9.361,9.361,0,0,1,9.35-9.35h129.962a9.361,9.361,0,0,1,9.35,9.35v38.334A9.361,9.361,0,0,1,5079.567,951.534ZM4949.6,897.3a6.553,6.553,0,0,0-6.544,6.545v38.334a6.553,6.553,0,0,0,6.544,6.545h129.962a6.553,6.553,0,0,0,6.545-6.545V903.85a6.553,6.553,0,0,0-6.545-6.545Z" transform="translate(-4940.255 -894.5)" fill="#bd3454"/>
    </g>
  </g>
  <g transform="translate(945.281 288.909)">
    <g>
      <rect width="148.662" height="57.034" rx="10" fill="#fff"/>
    </g>
    <g transform="translate(0)">
      <path d="M5079.567,1043.534H4949.6a9.361,9.361,0,0,1-9.35-9.35V995.85a9.361,9.361,0,0,1,9.35-9.35h129.962a9.36,9.36,0,0,1,9.35,9.35v38.334A9.361,9.361,0,0,1,5079.567,1043.534ZM4949.6,989.3a6.553,6.553,0,0,0-6.544,6.545v38.334a6.553,6.553,0,0,0,6.544,6.545h129.962a6.553,6.553,0,0,0,6.545-6.545V995.85a6.553,6.553,0,0,0-6.545-6.545Z" transform="translate(-4940.255 -986.5)" fill="#bd3454"/>
    </g>
  </g>
  <g transform="translate(995.453 138.018)" style="isolation: isolate">
    <g style="isolation: isolate">
      <path d="M4997.694,827.2a2.158,2.158,0,0,0-.791.783,2.089,2.089,0,0,0-.293,1.086V830h8.415v1.8h-8.415v.926a2.086,2.086,0,0,0,.293,1.086,2.152,2.152,0,0,0,.791.783,2.1,2.1,0,0,0,1.069.286h6.262v1.818h-7.154a3.817,3.817,0,0,1-1.986-.539,4,4,0,0,1-1.439-1.447,3.868,3.868,0,0,1-.53-1.986v-3.652a3.87,3.87,0,0,1,.53-1.986,3.934,3.934,0,0,1,1.439-1.439,3.872,3.872,0,0,1,1.986-.53h7.154v1.8h-6.262A2.112,2.112,0,0,0,4997.694,827.2Z" transform="translate(-4993.916 -825.116)"/>
      <path d="M5013.592,827.942h2.71l-3.518,8.937h-2.71l-3.45-8.937h2.709l2.1,5.453Z" transform="translate(-4994.742 -825.3)"/>
      <path d="M5025.171,827.942a1.753,1.753,0,0,1,1.767,1.767v1.969a1.714,1.714,0,0,1-.513,1.245,1.69,1.69,0,0,1-1.254.522h-4.712v.606a1.035,1.035,0,0,0,1.027,1.027h5.25v1.8h-6.142a2.761,2.761,0,0,1-1.421-.379,2.812,2.812,0,0,1-1.027-1.027,2.758,2.758,0,0,1-.378-1.422v-3.282a2.758,2.758,0,0,1,.378-1.422,2.812,2.812,0,0,1,1.027-1.027,2.761,2.761,0,0,1,1.421-.379Zm-1.153,3.492a.674.674,0,0,0,.21-.5v-.488a.719.719,0,0,0-.707-.707h-2.036a1.035,1.035,0,0,0-1.027,1.027v.875h3.063A.679.679,0,0,0,5024.018,831.434Z" transform="translate(-4995.467 -825.3)"/>
      <path d="M5035.442,836.879v-5.773a1.351,1.351,0,0,0-1.363-1.363h-1.043a1.352,1.352,0,0,0-1.364,1.363v5.773h-2.692v-6.311a2.562,2.562,0,0,1,.353-1.313,2.622,2.622,0,0,1,.961-.959,2.556,2.556,0,0,1,1.312-.353h3.905a2.628,2.628,0,0,1,2.289,1.313,2.563,2.563,0,0,1,.354,1.313v6.311Z" transform="translate(-4996.195 -825.3)"/>
      <path d="M5043.491,833.869a1.033,1.033,0,0,0,1.026,1.027h1.229v1.8h-2.138a2.731,2.731,0,0,1-1.354-.353,2.933,2.933,0,0,1-1.027-.951,2.707,2.707,0,0,1-.446-1.321v-4.51h-1.128v-1.8h1.128v-2.625h2.71v2.625h2.255v1.8h-2.255Z" transform="translate(-4996.89 -825.117)"/>
    </g>
  </g>
  <g transform="translate(996.707 224.971)" style="isolation: isolate">
    <g style="isolation: isolate">
      <path d="M5004.682,923.384a3.382,3.382,0,0,1,1.228,1.229,3.4,3.4,0,0,1,0,3.4,3.382,3.382,0,0,1-1.228,1.229,3.263,3.263,0,0,1-1.683.454h-7.269v-1.818h6.359a1.539,1.539,0,0,0,1.12-.454,1.564,1.564,0,0,0,0-2.222,1.539,1.539,0,0,0-1.12-.454h-3.516a3.221,3.221,0,0,1-1.667-.446,3.312,3.312,0,0,1-1.2-1.212,3.318,3.318,0,0,1,0-3.324,3.332,3.332,0,0,1,1.2-1.2,3.22,3.22,0,0,1,1.667-.446h7.119v1.8h-6.227a1.522,1.522,0,0,0-1.515,1.515,1.43,1.43,0,0,0,.446,1.06,1.473,1.473,0,0,0,1.069.438H5003A3.264,3.264,0,0,1,5004.682,923.384Z" transform="translate(-4995.257 -918.116)"/>
      <path d="M5011.749,926.869a1.032,1.032,0,0,0,1.025,1.027H5014v1.8h-2.138a2.737,2.737,0,0,1-1.356-.353,2.932,2.932,0,0,1-1.025-.951,2.688,2.688,0,0,1-.446-1.321v-4.51h-1.127v-1.8h1.127v-2.625h2.71v2.625H5014v1.8h-2.255Z" transform="translate(-4996.08 -918.117)"/>
      <path d="M5025.406,920.942v8.937h-2.693v-.471a6.814,6.814,0,0,1-2.492.471h-2.742a2.121,2.121,0,0,1-1.094-.295,2.193,2.193,0,0,1-.8-.8,2.143,2.143,0,0,1-.293-1.094V923.13a2.143,2.143,0,0,1,.293-1.094,2.2,2.2,0,0,1,.8-.8,2.13,2.13,0,0,1,1.094-.295h2.726a6.946,6.946,0,0,1,2.508.471v-.471Zm-2.693,6.665v-4.393a6.86,6.86,0,0,0-2.508-.471h-.858a1.351,1.351,0,0,0-1.363,1.363v2.609a1.351,1.351,0,0,0,1.363,1.363h.858A6.86,6.86,0,0,0,5022.713,927.607Z" transform="translate(-4996.56 -918.3)"/>
      <path d="M5030.809,926.869a1.034,1.034,0,0,0,1.026,1.027h1.229v1.8h-2.136a2.728,2.728,0,0,1-1.355-.353,2.931,2.931,0,0,1-1.026-.951,2.678,2.678,0,0,1-.446-1.321v-4.51h-1.127v-1.8h1.127v-2.625h2.708v2.625h2.255v1.8h-2.255Z" transform="translate(-4997.319 -918.117)"/>
      <path d="M5041.757,920.942a1.753,1.753,0,0,1,1.767,1.767v1.969a1.714,1.714,0,0,1-.514,1.245,1.686,1.686,0,0,1-1.253.522h-4.712v.606a1.036,1.036,0,0,0,1.026,1.027h5.251v1.8h-6.142a2.768,2.768,0,0,1-1.423-.379,2.809,2.809,0,0,1-1.026-1.027,2.758,2.758,0,0,1-.378-1.422v-3.282a2.758,2.758,0,0,1,.378-1.422,2.808,2.808,0,0,1,1.026-1.027,2.768,2.768,0,0,1,1.423-.379Zm-1.153,3.492a.678.678,0,0,0,.21-.5v-.488a.719.719,0,0,0-.708-.707h-2.036a1.036,1.036,0,0,0-1.026,1.027v.875h3.063A.678.678,0,0,0,5040.6,924.434Z" transform="translate(-4997.799 -918.3)"/>
    </g>
  </g>
  <g transform="translate(962.804 310.973)" style="isolation: isolate">
    <g style="isolation: isolate">
      <path d="M4970.121,1010.1v1.818h-4.207v9.778H4963.2v-9.778H4959V1010.1Z" transform="translate(-4958.996 -1010.098)"/>
      <path d="M4977.9,1014.743h-2.052a1.3,1.3,0,0,0-.952.4,1.317,1.317,0,0,0-.4.968v5.773h-2.708v-6.311a2.562,2.562,0,0,1,.353-1.313,2.622,2.622,0,0,1,.959-.959,2.563,2.563,0,0,1,1.313-.353h3.484Z" transform="translate(-4959.828 -1010.283)"/>
      <path d="M4989.253,1012.942v8.937h-2.693v-.471a6.816,6.816,0,0,1-2.491.471h-2.742a2.121,2.121,0,0,1-1.094-.295,2.181,2.181,0,0,1-.8-.8,2.133,2.133,0,0,1-.293-1.094v-4.561a2.133,2.133,0,0,1,.293-1.094,2.189,2.189,0,0,1,.8-.8,2.131,2.131,0,0,1,1.094-.294h2.726a6.95,6.95,0,0,1,2.507.471v-.471Zm-2.693,6.665v-4.393a6.86,6.86,0,0,0-2.507-.471h-.858a1.351,1.351,0,0,0-1.364,1.363v2.609a1.351,1.351,0,0,0,1.364,1.363h.858A6.86,6.86,0,0,0,4986.56,1019.607Z" transform="translate(-4960.306 -1010.283)"/>
      <path d="M4997.822,1021.879v-5.773a1.349,1.349,0,0,0-1.363-1.363h-1.044a1.349,1.349,0,0,0-1.362,1.363v5.773h-2.694v-6.311a2.559,2.559,0,0,1,.354-1.313,2.625,2.625,0,0,1,.959-.959,2.557,2.557,0,0,1,1.313-.353h3.9a2.6,2.6,0,0,1,1.33.353,2.629,2.629,0,0,1,.958.959,2.554,2.554,0,0,1,.354,1.313v6.311Z" transform="translate(-4961.1 -1010.283)"/>
      <path d="M5005.889,1014.743a.828.828,0,0,0-.623.261.872.872,0,0,0-.253.631.851.851,0,0,0,.253.614.828.828,0,0,0,.623.261h2.894a2.624,2.624,0,0,1,1.356.362,2.712,2.712,0,0,1,.976.976,2.629,2.629,0,0,1,.361,1.355,2.6,2.6,0,0,1-.361,1.338,2.711,2.711,0,0,1-.976.976,2.624,2.624,0,0,1-1.356.362h-6.125v-1.8h5.233a.862.862,0,0,0,.632-.261.84.84,0,0,0,.26-.614.889.889,0,0,0-.892-.892H5005a2.624,2.624,0,0,1-1.346-.362,2.7,2.7,0,0,1-.986-.976,2.6,2.6,0,0,1-.36-1.338,2.631,2.631,0,0,1,.36-1.355,2.7,2.7,0,0,1,.986-.976,2.633,2.633,0,0,1,1.346-.362h6.059v1.8Z" transform="translate(-4961.812 -1010.283)"/>
      <path d="M5023.362,1012.942v8.937h-2.692v-.471a6.819,6.819,0,0,1-2.492.471h-2.742a2.118,2.118,0,0,1-1.094-.295,2.172,2.172,0,0,1-.8-.8,2.134,2.134,0,0,1-.294-1.094v-4.561a2.134,2.134,0,0,1,.294-1.094,2.18,2.18,0,0,1,.8-.8,2.128,2.128,0,0,1,1.094-.294h2.726a6.955,6.955,0,0,1,2.508.471v-.471Zm-2.692,6.665v-4.393a6.863,6.863,0,0,0-2.508-.471h-.858a1.352,1.352,0,0,0-1.364,1.363v2.609a1.352,1.352,0,0,0,1.364,1.363h.858A6.863,6.863,0,0,0,5020.67,1019.607Z" transform="translate(-4962.523 -1010.283)"/>
      <path d="M5034.641,1021.879h-6.53a2.59,2.59,0,0,1-1.33-.353,2.618,2.618,0,0,1-.958-.959,2.59,2.59,0,0,1-.354-1.33v-3.652a2.59,2.59,0,0,1,.354-1.33,2.618,2.618,0,0,1,.958-.959,2.59,2.59,0,0,1,1.33-.353h6.53v1.8h-5.116a1.324,1.324,0,0,0-.959.4,1.3,1.3,0,0,0-.4.968v2.609a1.3,1.3,0,0,0,.4.968,1.324,1.324,0,0,0,.959.4h5.116Z" transform="translate(-4963.318 -1010.283)"/>
      <path d="M5039.98,1018.869a1.032,1.032,0,0,0,1.027,1.027h1.229v1.8H5040.1a2.73,2.73,0,0,1-1.355-.353,2.926,2.926,0,0,1-1.026-.951,2.673,2.673,0,0,1-.445-1.321v-4.51h-1.128v-1.8h1.128v-2.625h2.708v2.625h2.255v1.8h-2.255Z" transform="translate(-4964.012 -1010.1)"/>
      <path d="M5043.775,1010.134h2.692v2.625h-2.692Zm0,3.3h2.692v8.263h-2.692Z" transform="translate(-4964.508 -1010.1)"/>
      <path d="M5056.17,1013.3a2.623,2.623,0,0,1,.958.959,2.559,2.559,0,0,1,.354,1.313v3.686a2.559,2.559,0,0,1-.354,1.313,2.623,2.623,0,0,1-.958.959,2.591,2.591,0,0,1-1.33.353h-3.9a2.548,2.548,0,0,1-1.321-.353,2.641,2.641,0,0,1-.951-.959,2.572,2.572,0,0,1-.353-1.313v-3.686a2.571,2.571,0,0,1,.353-1.313,2.64,2.64,0,0,1,.951-.959,2.548,2.548,0,0,1,1.321-.353h3.9A2.591,2.591,0,0,1,5056.17,1013.3Zm-1.4,2.811a1.353,1.353,0,0,0-1.364-1.363h-1.043a1.351,1.351,0,0,0-1.363,1.363v2.609a1.351,1.351,0,0,0,1.363,1.363h1.043a1.353,1.353,0,0,0,1.364-1.363Z" transform="translate(-4964.803 -1010.283)"/>
      <path d="M5065.987,1021.879v-5.773a1.349,1.349,0,0,0-1.362-1.363h-1.044a1.351,1.351,0,0,0-1.363,1.363v5.773h-2.693v-6.311a2.558,2.558,0,0,1,.354-1.313,2.622,2.622,0,0,1,.959-.959,2.559,2.559,0,0,1,1.313-.353h3.9a2.6,2.6,0,0,1,1.33.353,2.624,2.624,0,0,1,.959.959,2.549,2.549,0,0,1,.354,1.313v6.311Z" transform="translate(-4965.532 -1010.283)"/>
      <path d="M5074.054,1014.743a.829.829,0,0,0-.623.261.872.872,0,0,0-.253.631.851.851,0,0,0,.253.614.829.829,0,0,0,.623.261h2.894a2.628,2.628,0,0,1,1.356.362,2.717,2.717,0,0,1,.975.976,2.63,2.63,0,0,1,.362,1.355,2.6,2.6,0,0,1-.362,1.338,2.716,2.716,0,0,1-.975.976,2.628,2.628,0,0,1-1.356.362h-6.125v-1.8h5.233a.858.858,0,0,0,.631-.261.841.841,0,0,0,.261-.614.89.89,0,0,0-.892-.892h-2.895a2.624,2.624,0,0,1-1.346-.362,2.691,2.691,0,0,1-.985-.976,2.6,2.6,0,0,1-.36-1.338,2.636,2.636,0,0,1,.36-1.355,2.7,2.7,0,0,1,.985-.976,2.633,2.633,0,0,1,1.346-.362h6.059v1.8Z" transform="translate(-4966.244 -1010.283)"/>
    </g>
  </g>
  <g transform="translate(976.378 396.991)" style="isolation: isolate">
    <g style="isolation: isolate">
      <path d="M4983.494,1102.1h2.708v11.6h-2.708v-7.54l-2.239,3.4h-2.675l-2.357-3.484v7.624h-2.709v-11.6h2.709l3.686,5.436Z" transform="translate(-4973.514 -1102.098)"/>
      <path d="M4996.021,1104.942a1.754,1.754,0,0,1,1.768,1.767v1.969a1.713,1.713,0,0,1-.514,1.245,1.688,1.688,0,0,1-1.253.522h-4.712v.606a1.032,1.032,0,0,0,1.028,1.027h5.25v1.8h-6.143a2.767,2.767,0,0,1-1.422-.379,2.813,2.813,0,0,1-1.026-1.027,2.763,2.763,0,0,1-.379-1.422v-3.282a2.763,2.763,0,0,1,.379-1.422,2.813,2.813,0,0,1,1.026-1.026,2.768,2.768,0,0,1,1.422-.379Zm-1.152,3.492a.68.68,0,0,0,.209-.5v-.488a.716.716,0,0,0-.707-.707h-2.035a1.032,1.032,0,0,0-1.028,1.026v.875h3.063A.683.683,0,0,0,4994.869,1108.434Z" transform="translate(-4974.496 -1102.283)"/>
      <path d="M5003.144,1106.743a.832.832,0,0,0-.623.261.875.875,0,0,0-.252.631.854.854,0,0,0,.252.614.831.831,0,0,0,.623.261h2.894a2.618,2.618,0,0,1,1.355.362,2.718,2.718,0,0,1,.976.976,2.626,2.626,0,0,1,.363,1.355,2.6,2.6,0,0,1-.363,1.338,2.719,2.719,0,0,1-.976.976,2.621,2.621,0,0,1-1.355.362h-6.125v-1.8h5.234a.859.859,0,0,0,.63-.261.837.837,0,0,0,.261-.614.891.891,0,0,0-.891-.892h-2.9a2.623,2.623,0,0,1-1.346-.362,2.7,2.7,0,0,1-.985-.976,2.6,2.6,0,0,1-.361-1.338,2.632,2.632,0,0,1,.361-1.355,2.709,2.709,0,0,1,.985-.976,2.632,2.632,0,0,1,1.346-.362h6.059v1.8Z" transform="translate(-4975.208 -1102.283)"/>
      <path d="M5013.816,1106.743a.834.834,0,0,0-.623.261.881.881,0,0,0-.251.631.859.859,0,0,0,.251.614.834.834,0,0,0,.623.261h2.9a2.616,2.616,0,0,1,1.354.362,2.715,2.715,0,0,1,.976.976,2.617,2.617,0,0,1,.363,1.355,2.586,2.586,0,0,1-.363,1.338,2.717,2.717,0,0,1-.976.976,2.618,2.618,0,0,1-1.354.362h-6.126v-1.8h5.235a.857.857,0,0,0,.63-.261.839.839,0,0,0,.261-.614.891.891,0,0,0-.891-.892h-2.9a2.626,2.626,0,0,1-1.346-.362,2.7,2.7,0,0,1-.984-.976,2.589,2.589,0,0,1-.362-1.338,2.623,2.623,0,0,1,.362-1.355,2.708,2.708,0,0,1,.984-.976,2.636,2.636,0,0,1,1.346-.362h6.059v1.8Z" transform="translate(-4975.901 -1102.283)"/>
      <path d="M5031.291,1104.942v8.937H5028.6v-.471a6.818,6.818,0,0,1-2.491.471h-2.743a2.124,2.124,0,0,1-1.094-.295,2.176,2.176,0,0,1-.8-.8,2.13,2.13,0,0,1-.295-1.094v-4.561a2.13,2.13,0,0,1,.295-1.094,2.182,2.182,0,0,1,.8-.8,2.133,2.133,0,0,1,1.094-.294h2.727a6.948,6.948,0,0,1,2.507.471v-.471Zm-2.693,6.664v-4.393a6.863,6.863,0,0,0-2.507-.471h-.858a1.349,1.349,0,0,0-1.362,1.363v2.609a1.349,1.349,0,0,0,1.362,1.363h.858A6.861,6.861,0,0,0,5028.6,1111.606Z" transform="translate(-4976.613 -1102.283)"/>
      <path d="M5043.529,1104.942v8.751a2.759,2.759,0,0,1-.379,1.422,2.875,2.875,0,0,1-1.026,1.035,2.717,2.717,0,0,1-1.421.387h-6.916v-1.818h6.007a1,1,0,0,0,.74-.3.985.985,0,0,0,.3-.724v-1.4a9.243,9.243,0,0,1-3.182.64h-2.069a2.133,2.133,0,0,1-1.094-.295,2.218,2.218,0,0,1-1.094-1.91v-3.6a2.134,2.134,0,0,1,.294-1.094,2.186,2.186,0,0,1,.8-.8,2.134,2.134,0,0,1,1.094-.294h2.053a9.728,9.728,0,0,1,3.2.623v-.623Zm-5.217,6.176a11.66,11.66,0,0,0,2.525-.74V1107.5a12.689,12.689,0,0,0-2.525-.757h-.858a1.325,1.325,0,0,0-.959.4,1.3,1.3,0,0,0-.4.968v1.649a1.3,1.3,0,0,0,.4.968,1.325,1.325,0,0,0,.959.4Z" transform="translate(-4977.408 -1102.283)"/>
      <path d="M5053.044,1104.942a1.755,1.755,0,0,1,1.766,1.767v1.969a1.708,1.708,0,0,1-.515,1.245,1.684,1.684,0,0,1-1.251.522h-4.713v.606a1.034,1.034,0,0,0,1.027,1.027h5.25v1.8h-6.143a2.765,2.765,0,0,1-1.422-.379,2.818,2.818,0,0,1-1.027-1.027,2.767,2.767,0,0,1-.377-1.422v-3.282a2.767,2.767,0,0,1,.377-1.422,2.818,2.818,0,0,1,1.027-1.026,2.767,2.767,0,0,1,1.422-.379Zm-1.154,3.492a.678.678,0,0,0,.21-.5v-.488a.718.718,0,0,0-.707-.707h-2.036a1.034,1.034,0,0,0-1.027,1.026v.875h3.063A.68.68,0,0,0,5051.891,1108.434Z" transform="translate(-4978.204 -1102.283)"/>
      <path d="M5060.167,1106.743a.831.831,0,0,0-.623.261.872.872,0,0,0-.253.631.851.851,0,0,0,.253.614.831.831,0,0,0,.623.261h2.9a2.622,2.622,0,0,1,1.354.362,2.713,2.713,0,0,1,.975.976,2.617,2.617,0,0,1,.363,1.355,2.586,2.586,0,0,1-.363,1.338,2.714,2.714,0,0,1-.975.976,2.625,2.625,0,0,1-1.354.362h-6.127v-1.8h5.235a.858.858,0,0,0,.63-.261.84.84,0,0,0,.262-.614.893.893,0,0,0-.892-.892h-2.9a2.624,2.624,0,0,1-1.347-.362,2.69,2.69,0,0,1-.983-.976,2.589,2.589,0,0,1-.362-1.338,2.623,2.623,0,0,1,.362-1.355,2.7,2.7,0,0,1,.983-.976,2.634,2.634,0,0,1,1.347-.362h6.059v1.8Z" transform="translate(-4978.915 -1102.283)"/>
    </g>
  </g>
  <g transform="translate(882.777 402.915)">
    <rect width="2.805" height="61.565" transform="translate(0 2.805) rotate(-89.804)"/>
  </g>
  <g transform="translate(934.713 395.573)">
    <path d="M4930.205,1118.174l-1.253-1.388,8.235-7.438-8.232-7.374,1.247-1.393,9.781,8.762Z" transform="translate(-4928.952 -1100.581)"/>
  </g>
  <g transform="translate(882.777 317.683)">
    <rect width="2.805" height="61.565" transform="translate(0 2.805) rotate(-89.804)"/>
  </g>
  <g transform="translate(934.713 310.341)">
    <path d="M4930.205,1027.015l-1.253-1.388,8.235-7.438-8.232-7.374,1.247-1.393,9.781,8.762Z" transform="translate(-4928.952 -1009.422)"/>
  </g>
  <g transform="translate(882.704 229.95)">
    <rect width="2.805" height="61.564" transform="translate(0 2.805) rotate(-89.804)"/>
  </g>
  <g transform="translate(934.64 222.608)">
    <path d="M4930.126,933.181l-1.252-1.388,8.235-7.438-8.232-7.374,1.248-1.393,9.781,8.762Z" transform="translate(-4928.874 -915.588)"/>
  </g>
</svg>
