<svg xmlns="http://www.w3.org/2000/svg" width="1094.195" height="499.418" viewBox="0 0 1094.195 499.418">
  <g transform="translate(-4219.832 -1740.473)">
    <g transform="translate(4645.065 1740.473)">
      <g transform="translate(0)">
        <rect width="206.556" height="71.761" rx="10" fill="#fff"/>
      </g>
      <g transform="translate(0 0)">
        <path d="M4855.19,1812.234H4668.03a9.709,9.709,0,0,1-9.7-9.7v-52.366a9.708,9.708,0,0,1,9.7-9.7H4855.19a9.708,9.708,0,0,1,9.7,9.7v52.366A9.709,9.709,0,0,1,4855.19,1812.234Zm-187.161-68.852a6.8,6.8,0,0,0-6.788,6.788v52.366a6.8,6.8,0,0,0,6.788,6.788H4855.19a6.8,6.8,0,0,0,6.788-6.788v-52.366a6.8,6.8,0,0,0-6.788-6.788Z" transform="translate(-4658.333 -1740.473)" fill="#bd3454"/>
      </g>
    </g>
    <g transform="translate(4645.065 2039.154)">
      <g transform="translate(0)">
        <rect width="206.556" height="71.761" rx="10" fill="#fff"/>
      </g>
      <g transform="translate(0)">
        <path d="M4855.19,2120.234H4668.03a9.709,9.709,0,0,1-9.7-9.7V2058.17a9.708,9.708,0,0,1,9.7-9.7H4855.19a9.708,9.708,0,0,1,9.7,9.7v52.366A9.709,9.709,0,0,1,4855.19,2120.234Zm-187.161-68.852a6.8,6.8,0,0,0-6.788,6.788v52.366a6.8,6.8,0,0,0,6.788,6.788H4855.19a6.8,6.8,0,0,0,6.788-6.788V2058.17a6.8,6.8,0,0,0-6.788-6.788Z" transform="translate(-4658.333 -2048.473)" fill="#bd3454"/>
      </g>
    </g>
    <g transform="translate(4219.832 2168.13)">
      <g>
        <rect width="206.556" height="71.761" rx="10" fill="#fff"/>
      </g>
      <g>
        <path d="M4416.69,2253.234H4229.529a9.709,9.709,0,0,1-9.7-9.7V2191.17a9.708,9.708,0,0,1,9.7-9.7H4416.69a9.708,9.708,0,0,1,9.7,9.7v52.366A9.709,9.709,0,0,1,4416.69,2253.234Zm-187.161-68.852a6.8,6.8,0,0,0-6.788,6.788v52.366a6.8,6.8,0,0,0,6.788,6.788H4416.69a6.8,6.8,0,0,0,6.788-6.788V2191.17a6.8,6.8,0,0,0-6.788-6.788Z" transform="translate(-4219.832 -2181.473)" fill="#bd3454"/>
      </g>
    </g>
    <g transform="translate(4428.327 2202.572)">
      <rect width="321.439" height="2.909"/>
    </g>
    <g transform="translate(4321.19 1775.448)">
      <rect width="390.441" height="2.909" transform="translate(0 390.44) rotate(-89.925)"/>
    </g>
    <g transform="translate(4714.142 1768.099)" style="isolation: isolate">
      <g transform="translate(0)" style="isolation: isolate">
        <path d="M4739.362,1768.961a5.455,5.455,0,0,1,2.792.745,5.537,5.537,0,0,1,2.77,4.817v4.887a5.546,5.546,0,0,1-5.562,5.563h-9.8v-16.012Zm.292,13.092a2.978,2.978,0,0,0,1.116-1.117,3.017,3.017,0,0,0,.407-1.525v-4.887a3.056,3.056,0,0,0-.407-1.547,2.981,2.981,0,0,0-1.116-1.118,3.029,3.029,0,0,0-1.525-.407h-4.841v11.01h4.841A3.021,3.021,0,0,0,4739.654,1782.053Z" transform="translate(-4729.564 -1768.961)"/>
        <path d="M4760.542,1784.974l-5.12-12.15-4.1,9.659h4.585l1.165,2.491h-10.52l6.795-16.012h4.12l6.8,16.012Z" transform="translate(-4730.078 -1768.961)"/>
        <path d="M4779.156,1769.659a5.194,5.194,0,0,1,1.9,1.885,5.037,5.037,0,0,1,.7,2.607,5.1,5.1,0,0,1-.7,2.618,5.175,5.175,0,0,1-1.9,1.9,5.117,5.117,0,0,1-2.619.7H4769.7v5.609h-3.724v-16.012h10.565A5.1,5.1,0,0,1,4779.156,1769.659Zm-1.943,6.424a2.633,2.633,0,0,0,.791-1.932,2.7,2.7,0,0,0-2.7-2.7H4769.7v5.424h5.609A2.605,2.605,0,0,0,4777.213,1776.083Z" transform="translate(-4730.666 -1768.961)"/>
        <path d="M4797.2,1769.659a5.2,5.2,0,0,1,1.9,1.885,5.049,5.049,0,0,1,.7,2.607,5.11,5.11,0,0,1-.7,2.618,5.182,5.182,0,0,1-1.9,1.9,5.119,5.119,0,0,1-2.618.7h-6.843v5.609h-3.724v-16.012h10.567A5.1,5.1,0,0,1,4797.2,1769.659Zm-1.944,6.424a2.629,2.629,0,0,0,.793-1.932,2.706,2.706,0,0,0-2.7-2.7h-5.609v5.424h5.609A2.6,2.6,0,0,0,4795.26,1776.083Z" transform="translate(-4731.212 -1768.961)"/>
      </g>
    </g>
    <g transform="translate(4272.952 2200.729)" style="isolation: isolate">
      <g style="isolation: isolate">
        <path d="M4286.1,2222.124a3.466,3.466,0,0,1-.13,3.238,3.556,3.556,0,0,1-1.267,1.265,3.335,3.335,0,0,1-1.737.472h-8.361v-12.009h8.048a3.353,3.353,0,0,1,1.737.47,3.58,3.58,0,0,1,1.266,1.266,3.427,3.427,0,0,1,.217,3.029,3.664,3.664,0,0,1-.706,1.1A3.355,3.355,0,0,1,4286.1,2222.124Zm-8.7-1.956h4.328a1.52,1.52,0,0,0,1.127-.47,1.625,1.625,0,0,0,0-2.269,1.521,1.521,0,0,0-1.127-.471H4277.4Zm5.768,2.331a1.533,1.533,0,0,0-1.126-.463H4277.4v3.176h4.642a1.591,1.591,0,0,0,1.126-2.713Z" transform="translate(-4274.609 -2215.089)"/>
        <path d="M4291.315,2227.1h-2.809v-11.992h2.809Z" transform="translate(-4275.03 -2215.09)"/>
        <path d="M4301.211,2218.281a2.725,2.725,0,0,1,1,.994,2.653,2.653,0,0,1,.367,1.362v3.823a2.643,2.643,0,0,1-.367,1.361,2.717,2.717,0,0,1-1,1,2.69,2.69,0,0,1-1.379.366h-4.05a2.637,2.637,0,0,1-1.369-.366,2.726,2.726,0,0,1-.987-1,2.652,2.652,0,0,1-.367-1.361v-3.823a2.663,2.663,0,0,1,.367-1.362,2.734,2.734,0,0,1,.987-.994,2.637,2.637,0,0,1,1.369-.366h4.05A2.69,2.69,0,0,1,4301.211,2218.281Zm-1.449,2.915a1.4,1.4,0,0,0-1.413-1.414h-1.083a1.4,1.4,0,0,0-1.414,1.414v2.706a1.4,1.4,0,0,0,1.414,1.414h1.083a1.4,1.4,0,0,0,1.413-1.414Z" transform="translate(-4275.167 -2215.175)"/>
        <path d="M4313.788,2227.184h-6.774a2.678,2.678,0,0,1-1.377-.366,2.726,2.726,0,0,1-1.363-2.374v-3.789a2.729,2.729,0,0,1,2.74-2.74h6.774v1.868h-5.308a1.371,1.371,0,0,0-.994.41,1.348,1.348,0,0,0-.42,1v2.706a1.348,1.348,0,0,0,.42,1,1.374,1.374,0,0,0,.994.41h5.308Z" transform="translate(-4275.507 -2215.175)"/>
        <path d="M4315.487,2215.107h2.793V2227.1h-2.793Zm6.162,7.366,3.84,4.626H4322.1l-3.821-4.626,3.037-4.643h3.369Z" transform="translate(-4275.846 -2215.09)"/>
        <path d="M4338.258,2227.1H4330.3a3.451,3.451,0,0,1-1.79-.48,3.606,3.606,0,0,1-1.292-1.3,3.464,3.464,0,0,1-.48-1.781v-4.906a3.413,3.413,0,0,1,.48-1.771,3.626,3.626,0,0,1,1.292-1.292,3.451,3.451,0,0,1,1.79-.48h7.961v1.867h-7.018a1.632,1.632,0,0,0-1.188.48,1.608,1.608,0,0,0-.489,1.195v4.906a1.667,1.667,0,0,0,1.677,1.675h7.018Z" transform="translate(-4276.187 -2215.089)"/>
        <path d="M4348.435,2218.135a2.255,2.255,0,0,1,.829.829,2.2,2.2,0,0,1,.307,1.135v7h-2.794v-5.987a1.4,1.4,0,0,0-1.414-1.414h-.417a5.735,5.735,0,0,0-2.077.436v6.965h-2.812v-12.009h2.812v3.176a5.747,5.747,0,0,1,2.077-.435h2.355A2.214,2.214,0,0,1,4348.435,2218.135Z" transform="translate(-4276.589 -2215.089)"/>
        <path d="M4361.761,2217.915v9.269h-2.792v-.489a7.081,7.081,0,0,1-2.583.489h-2.847a2.2,2.2,0,0,1-1.134-.306,2.244,2.244,0,0,1-.828-.828,2.2,2.2,0,0,1-.307-1.135v-4.73a2.2,2.2,0,0,1,.307-1.135,2.256,2.256,0,0,1,.828-.829,2.213,2.213,0,0,1,1.134-.305h2.828a7.225,7.225,0,0,1,2.6.489v-.489Zm-2.792,6.912v-4.556a7.122,7.122,0,0,0-2.6-.489h-.89a1.4,1.4,0,0,0-1.414,1.414v2.706a1.4,1.4,0,0,0,1.414,1.414h.89A7.122,7.122,0,0,0,4358.969,2224.827Z" transform="translate(-4276.928 -2215.175)"/>
        <path d="M4363.745,2215.107h2.792v2.723h-2.792Zm0,3.421h2.792v8.57h-2.792Z" transform="translate(-4277.306 -2215.09)"/>
        <path d="M4374.982,2227.184V2221.2a1.4,1.4,0,0,0-1.414-1.414h-1.082a1.4,1.4,0,0,0-1.413,1.414v5.987h-2.794v-6.546a2.659,2.659,0,0,1,.368-1.362,2.723,2.723,0,0,1,.994-.994,2.658,2.658,0,0,1,1.362-.366h4.05a2.686,2.686,0,0,1,1.378.366,2.72,2.72,0,0,1,.995.994,2.654,2.654,0,0,1,.368,1.362v6.546Z" transform="translate(-4277.443 -2215.175)"/>
      </g>
    </g>
    <g transform="translate(4501.944 2182.304)" style="isolation: isolate">
      <g transform="translate(0)" style="isolation: isolate">
        <path d="M4520.521,2201.552a3.509,3.509,0,0,1,1.274,1.275,3.527,3.527,0,0,1,0,3.526,3.505,3.505,0,0,1-1.274,1.273,3.375,3.375,0,0,1-1.745.472h-7.541v-1.886h6.6a1.6,1.6,0,0,0,1.161-.47,1.625,1.625,0,0,0,0-2.3,1.6,1.6,0,0,0-1.161-.471h-3.648a3.342,3.342,0,0,1-1.728-.462,3.446,3.446,0,0,1-1.249-1.258,3.442,3.442,0,0,1,0-3.447,3.47,3.47,0,0,1,1.249-1.248,3.34,3.34,0,0,1,1.728-.462h7.382v1.867h-6.458a1.577,1.577,0,0,0-1.57,1.571,1.483,1.483,0,0,0,.462,1.1,1.529,1.529,0,0,0,1.108.453h3.667A3.387,3.387,0,0,1,4520.521,2201.552Z" transform="translate(-4510.747 -2196.089)"/>
        <path d="M4531.621,2198.915a1.819,1.819,0,0,1,1.833,1.833v2.042a1.77,1.77,0,0,1-.533,1.291,1.748,1.748,0,0,1-1.3.542h-4.888v.627a1.074,1.074,0,0,0,1.066,1.066h5.446v1.867h-6.372a2.875,2.875,0,0,1-1.476-.393,2.91,2.91,0,0,1-1.063-1.065,2.873,2.873,0,0,1-.393-1.476v-3.4a2.872,2.872,0,0,1,.393-1.475,2.921,2.921,0,0,1,1.063-1.066,2.884,2.884,0,0,1,1.476-.392Zm-1.2,3.622a.707.707,0,0,0,.217-.515v-.506a.743.743,0,0,0-.732-.733H4527.8a1.073,1.073,0,0,0-1.066,1.065v.908h3.178A.706.706,0,0,0,4530.426,2202.537Z" transform="translate(-4511.146 -2196.175)"/>
        <path d="M4538.6,2205.166a1.073,1.073,0,0,0,1.063,1.066h1.275v1.867h-2.216a2.837,2.837,0,0,1-1.407-.366,3.039,3.039,0,0,1-1.064-.986,2.8,2.8,0,0,1-.463-1.37V2200.7h-1.168v-1.868h1.168v-2.723h2.812v2.723h2.339v1.868H4538.6Z" transform="translate(-4511.469 -2196.09)"/>
        <path d="M4545.434,2205.166a1.075,1.075,0,0,0,1.064,1.066h1.275v1.867h-2.218a2.83,2.83,0,0,1-1.405-.366,3.033,3.033,0,0,1-1.063-.986,2.781,2.781,0,0,1-.464-1.37V2200.7h-1.168v-1.868h1.168v-2.723h2.811v2.723h2.34v1.868h-2.34Z" transform="translate(-4511.675 -2196.09)"/>
        <path d="M4551.9,2208.1h-2.81v-11.992h2.81Z" transform="translate(-4511.906 -2196.09)"/>
        <path d="M4561.32,2198.915a1.82,1.82,0,0,1,1.833,1.833v2.042a1.771,1.771,0,0,1-.534,1.291,1.747,1.747,0,0,1-1.3.542h-4.889v.627a1.075,1.075,0,0,0,1.066,1.066h5.446v1.867h-6.371a2.873,2.873,0,0,1-1.476-.393,2.915,2.915,0,0,1-1.064-1.065,2.868,2.868,0,0,1-.393-1.476v-3.4a2.867,2.867,0,0,1,.393-1.475,2.926,2.926,0,0,1,1.064-1.066,2.882,2.882,0,0,1,1.476-.392Zm-1.2,3.622a.708.708,0,0,0,.218-.515v-.506a.745.745,0,0,0-.733-.733H4557.5a1.075,1.075,0,0,0-1.066,1.065v.908h3.178A.7.7,0,0,0,4560.125,2202.537Z" transform="translate(-4512.044 -2196.175)"/>
        <path d="M4586.162,2198.915v9.077a2.875,2.875,0,0,1-.394,1.475,2.98,2.98,0,0,1-1.065,1.073,2.814,2.814,0,0,1-1.474.4h-7.174v-1.885h6.232a1.042,1.042,0,0,0,.767-.314,1.025,1.025,0,0,0,.314-.751v-1.449a9.58,9.58,0,0,1-3.3.664h-2.146a2.219,2.219,0,0,1-1.135-.306,2.3,2.3,0,0,1-1.135-1.981v-3.736a2.207,2.207,0,0,1,.306-1.135,2.267,2.267,0,0,1,.829-.829,2.209,2.209,0,0,1,1.135-.305h2.128a10.083,10.083,0,0,1,3.316.646v-.646Zm-5.411,6.406a12.117,12.117,0,0,0,2.617-.768v-2.985a13.091,13.091,0,0,0-2.617-.785h-.89a1.374,1.374,0,0,0-1,.41,1.352,1.352,0,0,0-.42,1v1.71a1.351,1.351,0,0,0,.42,1,1.375,1.375,0,0,0,1,.41Z" transform="translate(-4512.71 -2196.175)"/>
        <path d="M4598.384,2198.915v9.269h-2.792v-.489a7.074,7.074,0,0,1-2.583.489h-2.847a2.2,2.2,0,0,1-1.134-.306,2.246,2.246,0,0,1-.828-.828,2.2,2.2,0,0,1-.307-1.135v-4.731a2.2,2.2,0,0,1,.307-1.135,2.257,2.257,0,0,1,.828-.829,2.212,2.212,0,0,1,1.134-.305h2.828a7.221,7.221,0,0,1,2.6.489v-.489Zm-2.792,6.912v-4.556a7.126,7.126,0,0,0-2.6-.489h-.89a1.4,1.4,0,0,0-1.414,1.414v2.706a1.4,1.4,0,0,0,1.414,1.414h.89A7.127,7.127,0,0,0,4595.592,2205.827Z" transform="translate(-4513.08 -2196.175)"/>
        <path d="M4613.734,2199.282a2.717,2.717,0,0,1,1,.994,2.661,2.661,0,0,1,.365,1.362v6.546h-2.809V2202.2a1.37,1.37,0,0,0-.411-1,1.344,1.344,0,0,0-.986-.41h-.419a1.346,1.346,0,0,0-.987.41,1.369,1.369,0,0,0-.409,1v5.987h-2.811V2202.2a1.366,1.366,0,0,0-.41-1,1.343,1.343,0,0,0-.985-.41h-.4a1.4,1.4,0,0,0-1.415,1.414v5.987h-2.792v-6.546a2.652,2.652,0,0,1,.366-1.362,2.711,2.711,0,0,1,.995-.994,2.654,2.654,0,0,1,1.36-.367h2.62a3.524,3.524,0,0,1,2.077.68,3.445,3.445,0,0,1,2.06-.68h2.635A2.653,2.653,0,0,1,4613.734,2199.282Z" transform="translate(-4513.455 -2196.175)"/>
        <path d="M4624.787,2198.915a1.819,1.819,0,0,1,1.833,1.833v2.042a1.77,1.77,0,0,1-.533,1.291,1.748,1.748,0,0,1-1.3.542H4619.9v.627a1.074,1.074,0,0,0,1.066,1.066h5.446v1.867h-6.372a2.875,2.875,0,0,1-1.476-.393,2.906,2.906,0,0,1-1.063-1.065,2.873,2.873,0,0,1-.393-1.476v-3.4a2.872,2.872,0,0,1,.393-1.475,2.917,2.917,0,0,1,1.063-1.066,2.884,2.884,0,0,1,1.476-.392Zm-1.2,3.622a.707.707,0,0,0,.217-.515v-.506a.743.743,0,0,0-.732-.733h-2.112a1.073,1.073,0,0,0-1.066,1.065v.908h3.178A.706.706,0,0,0,4623.592,2202.537Z" transform="translate(-4513.964 -2196.175)"/>
        <path d="M4645.456,2200.783h-2.128a1.346,1.346,0,0,0-.987.41,1.367,1.367,0,0,0-.41,1v5.987h-2.81v-6.546a2.657,2.657,0,0,1,.366-1.362,2.718,2.718,0,0,1,.995-.994,2.658,2.658,0,0,1,1.362-.367h3.613Z" transform="translate(-4514.63 -2196.175)"/>
        <path d="M4654.145,2198.915a1.819,1.819,0,0,1,1.832,1.833v2.042a1.766,1.766,0,0,1-.533,1.291,1.747,1.747,0,0,1-1.3.542h-4.888v.627a1.073,1.073,0,0,0,1.064,1.066h5.446v1.867H4649.4a2.873,2.873,0,0,1-1.475-.393,2.92,2.92,0,0,1-1.064-1.065,2.872,2.872,0,0,1-.392-1.476v-3.4a2.871,2.871,0,0,1,.392-1.475,2.931,2.931,0,0,1,1.064-1.066,2.882,2.882,0,0,1,1.475-.392Zm-1.2,3.622a.706.706,0,0,0,.218-.515v-.506a.745.745,0,0,0-.733-.733h-2.112a1.072,1.072,0,0,0-1.064,1.065v.908h3.177A.7.7,0,0,0,4652.949,2202.537Z" transform="translate(-4514.853 -2196.175)"/>
        <path d="M4661.126,2200.783a.862.862,0,0,0-.646.271.906.906,0,0,0-.262.655.881.881,0,0,0,.262.636.86.86,0,0,0,.646.272h3a2.716,2.716,0,0,1,1.405.374,2.841,2.841,0,0,1,1.012,1.013,2.72,2.72,0,0,1,.376,1.4,2.688,2.688,0,0,1-.376,1.388,2.831,2.831,0,0,1-1.012,1.012,2.717,2.717,0,0,1-1.405.375h-6.354v-1.867h5.429a.888.888,0,0,0,.653-.271.871.871,0,0,0,.271-.638.927.927,0,0,0-.924-.925h-3a2.727,2.727,0,0,1-1.4-.374,2.792,2.792,0,0,1-1.021-1.012,2.687,2.687,0,0,1-.375-1.388,2.72,2.72,0,0,1,.375-1.405,2.794,2.794,0,0,1,1.021-1.012,2.728,2.728,0,0,1,1.4-.375h6.283v1.868Z" transform="translate(-4515.184 -2196.175)"/>
        <path d="M4671.145,2198.915v5.987a1.4,1.4,0,0,0,1.413,1.414h1.1a1.35,1.35,0,0,0,.986-.41,1.365,1.365,0,0,0,.411-1v-5.987h2.81v6.546a2.64,2.64,0,0,1-.368,1.361,2.724,2.724,0,0,1-.994,1,2.688,2.688,0,0,1-1.379.366h-4.049a2.652,2.652,0,0,1-1.362-.366,2.722,2.722,0,0,1-1-1,2.654,2.654,0,0,1-.367-1.361v-6.546Z" transform="translate(-4515.515 -2196.175)"/>
        <path d="M4682.628,2208.1h-2.811v-11.992h2.811Z" transform="translate(-4515.861 -2196.09)"/>
        <path d="M4687.811,2205.166a1.075,1.075,0,0,0,1.065,1.066h1.275v1.867h-2.218a2.833,2.833,0,0,1-1.406-.366,3.049,3.049,0,0,1-1.064-.986,2.8,2.8,0,0,1-.462-1.37V2200.7h-1.168v-1.868H4685v-2.723h2.81v2.723h2.34v1.868h-2.34Z" transform="translate(-4515.983 -2196.09)"/>
      </g>
    </g>
    <g transform="translate(4313.499 2156.5)">
      <path d="M4325.508,2180.922l-9.087-10.145,1.445-1.294,7.648,8.539,7.714-8.542,1.439,1.3Z" transform="translate(-4316.421 -2169.48)"/>
    </g>
    <g transform="translate(5107.148 1903.39)">
      <g>
        <rect width="206.556" height="71.761" rx="10" fill="#fff"/>
      </g>
      <g transform="translate(0 0)">
        <path d="M5331.69,1980.234H5144.529a9.709,9.709,0,0,1-9.7-9.7v-52.366a9.708,9.708,0,0,1,9.7-9.7H5331.69a9.708,9.708,0,0,1,9.7,9.7v52.366A9.709,9.709,0,0,1,5331.69,1980.234Zm-187.161-68.852a6.8,6.8,0,0,0-6.788,6.788v52.366a6.8,6.8,0,0,0,6.788,6.788H5331.69a6.8,6.8,0,0,0,6.789-6.788v-52.366a6.8,6.8,0,0,0-6.789-6.788Z" transform="translate(-5134.832 -1908.473)" fill="#bd3454"/>
      </g>
    </g>
    <g transform="translate(4392.446 1905.329)">
      <g>
        <rect width="206.556" height="71.761" rx="10" fill="#fff"/>
      </g>
      <g transform="translate(0 0)">
        <path d="M4594.69,1982.234H4407.53a9.709,9.709,0,0,1-9.7-9.7v-52.366a9.708,9.708,0,0,1,9.7-9.7H4594.69a9.708,9.708,0,0,1,9.7,9.7v52.366A9.709,9.709,0,0,1,4594.69,1982.234Zm-187.161-68.852a6.8,6.8,0,0,0-6.789,6.788v52.366a6.8,6.8,0,0,0,6.789,6.788H4594.69a6.8,6.8,0,0,0,6.788-6.788v-52.366a6.8,6.8,0,0,0-6.788-6.788Z" transform="translate(-4397.832 -1910.473)" fill="#bd3454"/>
      </g>
    </g>
    <g transform="translate(5107.472 1740.473)">
      <g transform="translate(0)">
        <rect width="206.556" height="71.761" rx="10" fill="#fff"/>
      </g>
      <g transform="translate(0 0)">
        <path d="M5332.024,1812.234H5144.864a9.709,9.709,0,0,1-9.7-9.7v-52.366a9.708,9.708,0,0,1,9.7-9.7h187.161a9.708,9.708,0,0,1,9.7,9.7v52.366A9.709,9.709,0,0,1,5332.024,1812.234Zm-187.161-68.852a6.8,6.8,0,0,0-6.789,6.788v52.366a6.8,6.8,0,0,0,6.789,6.788h187.161a6.8,6.8,0,0,0,6.788-6.788v-52.366a6.8,6.8,0,0,0-6.788-6.788Z" transform="translate(-5135.166 -1740.473)" fill="#bd3454"/>
      </g>
    </g>
    <g transform="translate(4685.565 2067.16)" style="isolation: isolate">
      <g transform="translate(0 0)" style="isolation: isolate">
        <path d="M4715.48,2077.353v2.513h-5.818v13.523h-3.747v-13.523H4700.1v-2.513Z" transform="translate(-4700.096 -2077.353)"/>
        <path d="M4725.609,2083.635h-2.84a1.8,1.8,0,0,0-1.315.546,1.823,1.823,0,0,0-.548,1.338v7.984h-3.746v-8.728a3.541,3.541,0,0,1,.488-1.815,3.614,3.614,0,0,1,1.327-1.327,3.534,3.534,0,0,1,1.815-.489h4.818Z" transform="translate(-4700.613 -2077.468)"/>
        <path d="M4740.938,2081.145V2093.5h-3.724v-.652a9.421,9.421,0,0,1-3.445.652h-3.793a2.95,2.95,0,0,1-1.512-.407,3.009,3.009,0,0,1-1.106-1.105,2.955,2.955,0,0,1-.407-1.513v-6.307a2.955,2.955,0,0,1,.407-1.513,3.01,3.01,0,0,1,1.106-1.106,2.95,2.95,0,0,1,1.512-.407h3.77a9.605,9.605,0,0,1,3.468.652v-.652Zm-3.724,9.216v-6.074a9.484,9.484,0,0,0-3.468-.652h-1.187a1.866,1.866,0,0,0-1.886,1.884v3.608a1.866,1.866,0,0,0,1.886,1.884h1.187A9.483,9.483,0,0,0,4737.215,2090.361Z" transform="translate(-4700.909 -2077.468)"/>
        <path d="M4752.184,2093.5v-7.984a1.866,1.866,0,0,0-1.885-1.884h-1.443a1.864,1.864,0,0,0-1.884,1.884v7.984h-3.724v-8.728a3.542,3.542,0,0,1,.489-1.815,3.614,3.614,0,0,1,1.326-1.327,3.539,3.539,0,0,1,1.816-.489h5.4a3.585,3.585,0,0,1,1.839.489,3.634,3.634,0,0,1,1.328,1.327,3.542,3.542,0,0,1,.489,1.815v8.728Z" transform="translate(-4701.402 -2077.468)"/>
        <path d="M4762.8,2083.635a1.156,1.156,0,0,0-.862.361,1.213,1.213,0,0,0-.348.872,1.185,1.185,0,0,0,.348.85,1.153,1.153,0,0,0,.862.362h4a3.63,3.63,0,0,1,1.875.5,3.753,3.753,0,0,1,1.348,1.35,3.619,3.619,0,0,1,.5,1.873,3.577,3.577,0,0,1-.5,1.851,3.761,3.761,0,0,1-1.348,1.35,3.633,3.633,0,0,1-1.875.5h-8.47v-2.491h7.236a1.187,1.187,0,0,0,.874-.361,1.16,1.16,0,0,0,.361-.849,1.232,1.232,0,0,0-1.234-1.233h-4a3.638,3.638,0,0,1-1.862-.5,3.725,3.725,0,0,1-1.362-1.35,3.582,3.582,0,0,1-.5-1.852,3.622,3.622,0,0,1,.5-1.872,3.726,3.726,0,0,1,1.362-1.35,3.641,3.641,0,0,1,1.862-.5h8.377v2.49Z" transform="translate(-4701.843 -2077.468)"/>
        <path d="M4786.418,2081.145V2093.5h-3.724v-.652a9.42,9.42,0,0,1-3.444.652h-3.794a2.953,2.953,0,0,1-1.513-.407,3.032,3.032,0,0,1-1.105-1.105,2.945,2.945,0,0,1-.406-1.513v-6.307a2.945,2.945,0,0,1,.406-1.513,3.033,3.033,0,0,1,1.105-1.106,2.953,2.953,0,0,1,1.513-.407h3.77a9.605,9.605,0,0,1,3.468.652v-.652Zm-3.724,9.216v-6.074a9.484,9.484,0,0,0-3.468-.652h-1.187a1.866,1.866,0,0,0-1.886,1.884v3.608a1.866,1.866,0,0,0,1.886,1.884h1.187A9.483,9.483,0,0,0,4782.694,2090.361Z" transform="translate(-4702.285 -2077.468)"/>
        <path d="M4801.411,2093.5h-9.03a3.581,3.581,0,0,1-1.839-.489,3.625,3.625,0,0,1-1.327-1.326,3.586,3.586,0,0,1-.489-1.839V2084.8a3.637,3.637,0,0,1,3.654-3.654h9.03v2.49h-7.074a1.836,1.836,0,0,0-1.328.546,1.8,1.8,0,0,0-.559,1.338v3.608a1.8,1.8,0,0,0,.559,1.338,1.832,1.832,0,0,0,1.328.546h7.074Z" transform="translate(-4702.778 -2077.468)"/>
        <path d="M4808.265,2089.48a1.428,1.428,0,0,0,1.419,1.419h1.7v2.491h-2.956a3.771,3.771,0,0,1-1.874-.489,4.046,4.046,0,0,1-1.419-1.316,3.714,3.714,0,0,1-.617-1.826v-6.238h-1.56v-2.49h1.56V2077.4h3.747v3.631h3.119v2.49h-3.119Z" transform="translate(-4703.208 -2077.354)"/>
        <path d="M4823.667,2081.634a3.624,3.624,0,0,1,1.327,1.327,3.542,3.542,0,0,1,.489,1.815v5.1a3.543,3.543,0,0,1-.489,1.815,3.633,3.633,0,0,1-1.327,1.326,3.585,3.585,0,0,1-1.84.489h-5.4a3.515,3.515,0,0,1-1.827-.489,3.655,3.655,0,0,1-1.315-1.326,3.543,3.543,0,0,1-.489-1.815v-5.1a3.542,3.542,0,0,1,.489-1.815,3.646,3.646,0,0,1,1.315-1.327,3.515,3.515,0,0,1,1.827-.489h5.4A3.585,3.585,0,0,1,4823.667,2081.634Zm-1.932,3.886a1.867,1.867,0,0,0-1.885-1.884h-1.443a1.865,1.865,0,0,0-1.885,1.884v3.608a1.865,1.865,0,0,0,1.885,1.884h1.443a1.867,1.867,0,0,0,1.885-1.884Z" transform="translate(-4703.506 -2077.468)"/>
        <path d="M4836.2,2083.635h-2.839a1.792,1.792,0,0,0-1.314.546,1.818,1.818,0,0,0-.548,1.338v7.984h-3.746v-8.728a3.542,3.542,0,0,1,.489-1.815,3.614,3.614,0,0,1,1.326-1.327,3.539,3.539,0,0,1,1.816-.489h4.816Z" transform="translate(-4703.958 -2077.468)"/>
      </g>
    </g>
    <g transform="translate(5138.895 1770.163)" style="isolation: isolate">
      <g style="isolation: isolate">
        <path d="M5174.919,1771.089a4.084,4.084,0,0,1,2.095.559,4.134,4.134,0,0,1,1.519,1.519,4.092,4.092,0,0,1,.559,2.095v3.666a4.159,4.159,0,0,1-4.172,4.172h-7.349v-12.009Zm.218,9.819a2.226,2.226,0,0,0,.836-.838,2.253,2.253,0,0,0,.308-1.143v-3.666a2.292,2.292,0,0,0-.308-1.162,2.231,2.231,0,0,0-.836-.837,2.265,2.265,0,0,0-1.145-.305h-3.629v8.255h3.629A2.264,2.264,0,0,0,5175.137,1780.908Z" transform="translate(-5167.57 -1771.089)"/>
        <path d="M5181.142,1771.107h2.792v2.723h-2.792Zm0,3.421h2.792v8.571h-2.792Z" transform="translate(-5167.98 -1771.089)"/>
        <path d="M5189.126,1775.783a.861.861,0,0,0-.646.271.9.9,0,0,0-.262.655.878.878,0,0,0,.262.636.858.858,0,0,0,.646.271h3a2.723,2.723,0,0,1,1.405.374,2.832,2.832,0,0,1,1.011,1.013,2.719,2.719,0,0,1,.376,1.4,2.689,2.689,0,0,1-.376,1.389,2.821,2.821,0,0,1-1.011,1.012,2.723,2.723,0,0,1-1.405.375h-6.354v-1.868h5.429a.891.891,0,0,0,.654-.271.875.875,0,0,0,.271-.638.927.927,0,0,0-.925-.925h-3a2.725,2.725,0,0,1-1.4-.374,2.786,2.786,0,0,1-1.021-1.012,2.687,2.687,0,0,1-.375-1.388,2.72,2.72,0,0,1,.375-1.405,2.785,2.785,0,0,1,1.021-1.012,2.724,2.724,0,0,1,1.4-.375h6.284v1.868Z" transform="translate(-5168.109 -1771.174)"/>
        <path d="M5205.865,1783.184h-6.772a2.683,2.683,0,0,1-1.379-.367,2.711,2.711,0,0,1-1-1,2.68,2.68,0,0,1-.367-1.378v-3.789a2.69,2.69,0,0,1,.367-1.379,2.721,2.721,0,0,1,1-.994,2.684,2.684,0,0,1,1.379-.367h6.772v1.868h-5.308a1.37,1.37,0,0,0-.994.41,1.348,1.348,0,0,0-.42,1v2.706a1.348,1.348,0,0,0,.42,1,1.373,1.373,0,0,0,.994.41h5.308Z" transform="translate(-5168.44 -1771.174)"/>
        <path d="M5215.717,1774.282a2.727,2.727,0,0,1,1,.994,2.653,2.653,0,0,1,.366,1.362v3.823a2.642,2.642,0,0,1-.366,1.361,2.726,2.726,0,0,1-2.375,1.362h-4.049a2.636,2.636,0,0,1-1.369-.367,2.729,2.729,0,0,1-.987-1,2.647,2.647,0,0,1-.367-1.361v-3.823a2.659,2.659,0,0,1,.367-1.362,2.739,2.739,0,0,1,.987-.994,2.637,2.637,0,0,1,1.369-.367h4.049A2.691,2.691,0,0,1,5215.717,1774.282Zm-1.45,2.915a1.4,1.4,0,0,0-1.413-1.414h-1.083a1.4,1.4,0,0,0-1.414,1.414v2.706a1.4,1.4,0,0,0,1.414,1.414h1.083a1.4,1.4,0,0,0,1.413-1.414Z" transform="translate(-5168.78 -1771.174)"/>
        <path d="M5225.394,1773.915h2.811l-3.647,9.269h-2.811l-3.579-9.269h2.81l2.182,5.656Z" transform="translate(-5169.101 -1771.174)"/>
        <path d="M5236.988,1773.915a1.818,1.818,0,0,1,1.834,1.833v2.042a1.778,1.778,0,0,1-.533,1.291,1.753,1.753,0,0,1-1.3.542H5232.1v.627a1.073,1.073,0,0,0,1.065,1.066h5.445v1.868h-6.37a2.866,2.866,0,0,1-1.475-.393,2.911,2.911,0,0,1-1.065-1.065,2.859,2.859,0,0,1-.394-1.476v-3.4a2.858,2.858,0,0,1,.394-1.475,2.921,2.921,0,0,1,1.065-1.066,2.876,2.876,0,0,1,1.475-.392Zm-1.195,3.622a.7.7,0,0,0,.218-.515v-.506a.746.746,0,0,0-.733-.733h-2.112a1.074,1.074,0,0,0-1.065,1.065v.908h3.177A.7.7,0,0,0,5235.793,1777.537Z" transform="translate(-5169.438 -1771.174)"/>
        <path d="M5246.858,1775.783h-2.13a1.342,1.342,0,0,0-.985.41,1.359,1.359,0,0,0-.412,1v5.987h-2.81v-6.546a2.659,2.659,0,0,1,.367-1.362,2.725,2.725,0,0,1,.995-.994,2.656,2.656,0,0,1,1.362-.367h3.613Z" transform="translate(-5169.777 -1771.174)"/>
        <path d="M5257.632,1773.915v9.077a2.875,2.875,0,0,1-.394,1.475,2.976,2.976,0,0,1-1.064,1.072,2.818,2.818,0,0,1-1.476.4h-6.267v-1.868h5.343a1.013,1.013,0,0,0,.75-.323,1.056,1.056,0,0,0,.315-.759v-1.171a6.972,6.972,0,0,1-2.288.385h-2.164a2.218,2.218,0,0,1-1.134-.305,2.3,2.3,0,0,1-1.135-1.981v-6h2.792v4.992a1.348,1.348,0,0,0,.42,1,1.372,1.372,0,0,0,.995.41h.191a7.1,7.1,0,0,0,2.323-.384v-6.022Z" transform="translate(-5170.007 -1771.174)"/>
        <path d="M5273.833,1775.783a.861.861,0,0,0-.646.271.9.9,0,0,0-.262.655.877.877,0,0,0,.262.636.859.859,0,0,0,.646.271h3a2.719,2.719,0,0,1,1.405.374,2.827,2.827,0,0,1,1.012,1.013,2.719,2.719,0,0,1,.375,1.4,2.688,2.688,0,0,1-.375,1.389,2.816,2.816,0,0,1-1.012,1.012,2.72,2.72,0,0,1-1.405.375h-6.354v-1.868h5.428a.893.893,0,0,0,.655-.271.872.872,0,0,0,.271-.638.925.925,0,0,0-.925-.925h-3a2.726,2.726,0,0,1-1.4-.374,2.789,2.789,0,0,1-1.022-1.012,2.687,2.687,0,0,1-.375-1.388,2.72,2.72,0,0,1,.375-1.405,2.787,2.787,0,0,1,1.022-1.012,2.726,2.726,0,0,1,1.4-.375h6.284v1.868Z" transform="translate(-5170.672 -1771.174)"/>
        <path d="M5288.738,1773.915a1.818,1.818,0,0,1,1.833,1.833v2.042a1.772,1.772,0,0,1-.533,1.291,1.749,1.749,0,0,1-1.3.542h-4.888v.627a1.075,1.075,0,0,0,1.065,1.066h5.446v1.868h-6.37a2.872,2.872,0,0,1-1.476-.393,2.912,2.912,0,0,1-1.064-1.065,2.864,2.864,0,0,1-.394-1.476v-3.4a2.863,2.863,0,0,1,.394-1.475,2.922,2.922,0,0,1,1.064-1.066,2.881,2.881,0,0,1,1.476-.392Zm-1.2,3.622a.7.7,0,0,0,.218-.515v-.506a.746.746,0,0,0-.733-.733h-2.112a1.075,1.075,0,0,0-1.065,1.065v.908h3.177A.7.7,0,0,0,5287.542,1777.537Z" transform="translate(-5171.003 -1771.174)"/>
        <path d="M5298.608,1775.783h-2.13a1.345,1.345,0,0,0-.986.41,1.364,1.364,0,0,0-.409,1v5.987h-2.812v-6.546a2.663,2.663,0,0,1,.367-1.362,2.721,2.721,0,0,1,1-.994,2.653,2.653,0,0,1,1.361-.367h3.614Z" transform="translate(-5171.343 -1771.174)"/>
        <path d="M5306.23,1773.915h2.81l-3.647,9.269h-2.811l-3.579-9.269h2.81l2.182,5.656Z" transform="translate(-5171.546 -1771.174)"/>
        <path d="M5317.824,1773.915a1.818,1.818,0,0,1,1.834,1.833v2.042a1.778,1.778,0,0,1-.533,1.291,1.753,1.753,0,0,1-1.3.542h-4.887v.627a1.072,1.072,0,0,0,1.065,1.066h5.445v1.868h-6.37a2.868,2.868,0,0,1-1.475-.393,2.911,2.911,0,0,1-1.065-1.065,2.864,2.864,0,0,1-.394-1.476v-3.4a2.863,2.863,0,0,1,.394-1.475,2.921,2.921,0,0,1,1.065-1.066,2.878,2.878,0,0,1,1.475-.392Zm-1.194,3.622a.705.705,0,0,0,.217-.515v-.506a.744.744,0,0,0-.733-.733H5314a1.072,1.072,0,0,0-1.065,1.065v.908h3.177A.707.707,0,0,0,5316.63,1777.537Z" transform="translate(-5171.883 -1771.174)"/>
        <path d="M5327.694,1775.783h-2.129a1.343,1.343,0,0,0-.986.41,1.362,1.362,0,0,0-.411,1v5.987h-2.81v-6.546a2.658,2.658,0,0,1,.366-1.362,2.718,2.718,0,0,1,1-.994,2.65,2.65,0,0,1,1.36-.367h3.613Z" transform="translate(-5172.223 -1771.174)"/>
      </g>
    </g>
    <g transform="translate(4867.788 1756.586)" style="isolation: isolate">
      <g style="isolation: isolate">
        <path d="M4891.923,1759.252a2.256,2.256,0,0,0-.82.812,2.181,2.181,0,0,0-.3,1.126v1.9h8.728v1.869H4890.8v4.137H4888v-7.908a4.015,4.015,0,0,1,.551-2.06,4.084,4.084,0,0,1,1.493-1.492,4.012,4.012,0,0,1,2.059-.549h7.419v1.868h-6.494A2.191,2.191,0,0,0,4891.923,1759.252Z" transform="translate(-4888.004 -1757.089)"/>
        <path d="M4908.609,1759.915a1.818,1.818,0,0,1,1.833,1.833v2.042a1.769,1.769,0,0,1-.532,1.291,1.75,1.75,0,0,1-1.3.542h-4.888v.627a1.074,1.074,0,0,0,1.064,1.066h5.446v1.868h-6.37a2.872,2.872,0,0,1-1.476-.393,2.916,2.916,0,0,1-1.064-1.065,2.863,2.863,0,0,1-.393-1.476v-3.4a2.862,2.862,0,0,1,.393-1.475,2.926,2.926,0,0,1,1.064-1.066,2.881,2.881,0,0,1,1.476-.392Zm-1.2,3.622a.7.7,0,0,0,.218-.515v-.506a.745.745,0,0,0-.733-.733h-2.112a1.074,1.074,0,0,0-1.064,1.065v.908h3.177A.7.7,0,0,0,4907.413,1763.537Z" transform="translate(-4888.395 -1757.174)"/>
        <path d="M4915.582,1766.165a1.071,1.071,0,0,0,1.065,1.066h1.274v1.868H4915.7a2.829,2.829,0,0,1-1.405-.367,3.025,3.025,0,0,1-1.064-.986,2.794,2.794,0,0,1-.463-1.37V1761.7h-1.17v-1.868h1.17v-2.723h2.811v2.723h2.339v1.868h-2.339Z" transform="translate(-4888.718 -1757.089)"/>
        <path d="M4928.5,1769.184h-6.773a2.681,2.681,0,0,1-1.378-.367,2.714,2.714,0,0,1-1-1,2.683,2.683,0,0,1-.365-1.378v-3.789a2.693,2.693,0,0,1,.365-1.379,2.723,2.723,0,0,1,1-.994,2.682,2.682,0,0,1,1.378-.367h6.773v1.868h-5.307a1.373,1.373,0,0,0-.995.41,1.35,1.35,0,0,0-.42,1v2.706a1.35,1.35,0,0,0,.42,1,1.377,1.377,0,0,0,.995.41h5.307Z" transform="translate(-4888.941 -1757.174)"/>
        <path d="M4938.575,1760.135a2.274,2.274,0,0,1,.828.829,2.211,2.211,0,0,1,.306,1.135v7h-2.793v-5.987a1.4,1.4,0,0,0-1.413-1.414h-.419a5.732,5.732,0,0,0-2.077.437v6.965h-2.812v-12.009h2.812v3.176a5.75,5.75,0,0,1,2.077-.435h2.356A2.216,2.216,0,0,1,4938.575,1760.135Z" transform="translate(-4889.28 -1757.089)"/>
        <path d="M4962.717,1759.915v9.077a2.874,2.874,0,0,1-.393,1.475,2.988,2.988,0,0,1-1.064,1.072,2.82,2.82,0,0,1-1.476.4h-7.174v-1.885h6.231a1.048,1.048,0,0,0,.769-.314,1.032,1.032,0,0,0,.314-.75v-1.45a9.585,9.585,0,0,1-3.3.664h-2.148a2.222,2.222,0,0,1-1.135-.305,2.3,2.3,0,0,1-1.134-1.981v-3.736a2.211,2.211,0,0,1,.305-1.135,2.27,2.27,0,0,1,.829-.829,2.214,2.214,0,0,1,1.135-.305h2.13a10.1,10.1,0,0,1,3.317.646v-.646Zm-5.412,6.406a12.129,12.129,0,0,0,2.62-.768v-2.985a13.077,13.077,0,0,0-2.62-.786h-.89a1.372,1.372,0,0,0-.995.41,1.35,1.35,0,0,0-.418,1v1.711a1.35,1.35,0,0,0,.418,1,1.372,1.372,0,0,0,.995.41Z" transform="translate(-4889.946 -1757.174)"/>
        <path d="M4974.94,1759.915v9.269h-2.792v-.489a7.073,7.073,0,0,1-2.583.489h-2.845a2.2,2.2,0,0,1-1.135-.306,2.26,2.26,0,0,1-.829-.828,2.222,2.222,0,0,1-.305-1.135v-4.73a2.22,2.22,0,0,1,.305-1.135,2.27,2.27,0,0,1,.829-.829,2.211,2.211,0,0,1,1.135-.305h2.828a7.21,7.21,0,0,1,2.6.489v-.489Zm-2.792,6.912v-4.556a7.119,7.119,0,0,0-2.6-.489h-.89a1.4,1.4,0,0,0-1.414,1.414v2.706a1.4,1.4,0,0,0,1.414,1.414h.89A7.119,7.119,0,0,0,4972.147,1766.827Z" transform="translate(-4890.317 -1757.174)"/>
        <path d="M4990.291,1760.282a2.728,2.728,0,0,1,.994.994,2.664,2.664,0,0,1,.368,1.362v6.546h-2.811V1763.2a1.363,1.363,0,0,0-.41-1,1.345,1.345,0,0,0-.986-.41h-.418a1.342,1.342,0,0,0-.986.41,1.365,1.365,0,0,0-.412,1v5.987h-2.809V1763.2a1.369,1.369,0,0,0-.41-1,1.347,1.347,0,0,0-.987-.41h-.4a1.4,1.4,0,0,0-1.413,1.414v5.987h-2.794v-6.546a2.659,2.659,0,0,1,.368-1.362,2.723,2.723,0,0,1,1-.994,2.653,2.653,0,0,1,1.361-.367h2.617a3.527,3.527,0,0,1,2.078.68,3.447,3.447,0,0,1,2.06-.68h2.635A2.658,2.658,0,0,1,4990.291,1760.282Z" transform="translate(-4890.691 -1757.174)"/>
        <path d="M5001.343,1759.915a1.818,1.818,0,0,1,1.833,1.833v2.042a1.776,1.776,0,0,1-.533,1.291,1.755,1.755,0,0,1-1.3.542h-4.887v.627a1.072,1.072,0,0,0,1.064,1.066h5.446v1.868h-6.371a2.867,2.867,0,0,1-1.474-.393,2.928,2.928,0,0,1-1.066-1.065,2.873,2.873,0,0,1-.393-1.476v-3.4a2.872,2.872,0,0,1,.393-1.475,2.938,2.938,0,0,1,1.066-1.066,2.877,2.877,0,0,1,1.474-.392Zm-1.2,3.622a.7.7,0,0,0,.218-.515v-.506a.746.746,0,0,0-.733-.733h-2.112a1.072,1.072,0,0,0-1.064,1.065v.908h3.176A.7.7,0,0,0,5000.147,1763.537Z" transform="translate(-4891.201 -1757.174)"/>
        <path d="M5026.167,1759.915v9.269h-2.793v-.489a7.067,7.067,0,0,1-2.583.489h-2.847a2.2,2.2,0,0,1-1.133-.306,2.252,2.252,0,0,1-.829-.828,2.209,2.209,0,0,1-.306-1.135v-4.73a2.207,2.207,0,0,1,.306-1.135,2.263,2.263,0,0,1,.829-.829,2.211,2.211,0,0,1,1.133-.305h2.828a7.2,7.2,0,0,1,2.6.489v-.489Zm-2.793,6.912v-4.556a7.117,7.117,0,0,0-2.6-.489h-.889a1.4,1.4,0,0,0-1.414,1.414v2.706a1.4,1.4,0,0,0,1.414,1.414h.889A7.117,7.117,0,0,0,5023.374,1766.827Z" transform="translate(-4891.867 -1757.174)"/>
        <path d="M5037.411,1769.184h-6.773a2.727,2.727,0,0,1-2.74-2.74v-3.789a2.689,2.689,0,0,1,.366-1.379,2.721,2.721,0,0,1,1-.994,2.685,2.685,0,0,1,1.378-.367h6.773v1.868H5032.1a1.373,1.373,0,0,0-.995.41,1.352,1.352,0,0,0-.42,1v2.706a1.352,1.352,0,0,0,.42,1,1.377,1.377,0,0,0,.995.41h5.307Z" transform="translate(-4892.236 -1757.174)"/>
        <path d="M5048.625,1769.184h-6.773a2.687,2.687,0,0,1-1.379-.367,2.717,2.717,0,0,1-.994-1,2.676,2.676,0,0,1-.368-1.378v-3.789a2.686,2.686,0,0,1,.368-1.379,2.727,2.727,0,0,1,.994-.994,2.688,2.688,0,0,1,1.379-.367h6.773v1.868h-5.307a1.372,1.372,0,0,0-.994.41,1.352,1.352,0,0,0-.418,1v2.706a1.352,1.352,0,0,0,.418,1,1.376,1.376,0,0,0,.994.41h5.307Z" transform="translate(-4892.576 -1757.174)"/>
        <path d="M5058.477,1760.282a2.718,2.718,0,0,1,1,.994,2.663,2.663,0,0,1,.367,1.362v3.823a2.652,2.652,0,0,1-.367,1.361,2.729,2.729,0,0,1-2.375,1.362h-4.05a2.632,2.632,0,0,1-1.369-.367,2.733,2.733,0,0,1-.987-1,2.651,2.651,0,0,1-.366-1.361v-3.823a2.662,2.662,0,0,1,.366-1.362,2.743,2.743,0,0,1,.987-.994,2.633,2.633,0,0,1,1.369-.367h4.05A2.685,2.685,0,0,1,5058.477,1760.282Zm-1.449,2.915a1.4,1.4,0,0,0-1.414-1.414h-1.081a1.4,1.4,0,0,0-1.415,1.414v2.706a1.4,1.4,0,0,0,1.415,1.414h1.081a1.4,1.4,0,0,0,1.414-1.414Z" transform="translate(-4892.915 -1757.174)"/>
        <path d="M5064.332,1759.915v5.987a1.4,1.4,0,0,0,1.414,1.414h1.1a1.345,1.345,0,0,0,.985-.41,1.365,1.365,0,0,0,.412-1v-5.987h2.811v6.546a2.652,2.652,0,0,1-.367,1.361,2.713,2.713,0,0,1-1,1,2.686,2.686,0,0,1-1.379.367h-4.05a2.656,2.656,0,0,1-1.362-.367,2.716,2.716,0,0,1-.995-1,2.652,2.652,0,0,1-.367-1.361v-6.546Z" transform="translate(-4893.254 -1757.174)"/>
        <path d="M5079.456,1769.184V1763.2a1.4,1.4,0,0,0-1.414-1.414h-1.083a1.4,1.4,0,0,0-1.414,1.414v5.987h-2.792v-6.546a2.663,2.663,0,0,1,.366-1.362,2.724,2.724,0,0,1,.994-.994,2.659,2.659,0,0,1,1.362-.367h4.049a2.692,2.692,0,0,1,1.38.367,2.723,2.723,0,0,1,.994.994,2.659,2.659,0,0,1,.367,1.362v6.546Z" transform="translate(-4893.594 -1757.174)"/>
        <path d="M5087.406,1766.165a1.073,1.073,0,0,0,1.066,1.066h1.273v1.868h-2.217a2.822,2.822,0,0,1-1.4-.367,3.042,3.042,0,0,1-1.066-.986,2.8,2.8,0,0,1-.462-1.37V1761.7h-1.169v-1.868h1.169v-2.723h2.81v2.723h2.339v1.868h-2.339Z" transform="translate(-4893.917 -1757.089)"/>
        <path d="M5094.254,1761.783a.864.864,0,0,0-.646.271.908.908,0,0,0-.262.655.883.883,0,0,0,.262.636.862.862,0,0,0,.646.271h3a2.717,2.717,0,0,1,1.4.374,2.837,2.837,0,0,1,1.013,1.013,2.719,2.719,0,0,1,.375,1.4,2.688,2.688,0,0,1-.375,1.389,2.826,2.826,0,0,1-1.013,1.012,2.718,2.718,0,0,1-1.4.375H5090.9v-1.868h5.43a.892.892,0,0,0,.654-.271.875.875,0,0,0,.271-.638.926.926,0,0,0-.925-.925h-3a2.732,2.732,0,0,1-1.4-.374,2.789,2.789,0,0,1-1.02-1.012,2.678,2.678,0,0,1-.376-1.388,2.711,2.711,0,0,1,.376-1.405,2.788,2.788,0,0,1,1.02-1.012,2.731,2.731,0,0,1,1.4-.375h6.284v1.868Z" transform="translate(-4894.132 -1757.174)"/>
      </g>
    </g>
    <g transform="translate(4949.202 1919.485)" style="isolation: isolate">
      <g transform="translate(0)" style="isolation: isolate">
        <path d="M4980.7,1925.07h2.792l-4.364,12.028h-2.81l-4.364-12.028h2.81l2.968,8.153Z" transform="translate(-4971.958 -1925.07)"/>
        <path d="M4995.175,1927.915v9.269h-2.792v-.489a7.077,7.077,0,0,1-2.583.489h-2.846a2.207,2.207,0,0,1-1.135-.307,2.265,2.265,0,0,1-.828-.828,2.214,2.214,0,0,1-.306-1.135v-4.73a2.211,2.211,0,0,1,.306-1.135,2.274,2.274,0,0,1,.828-.829,2.216,2.216,0,0,1,1.135-.305h2.828a7.213,7.213,0,0,1,2.6.489v-.489Zm-2.792,6.912v-4.556a7.127,7.127,0,0,0-2.6-.489h-.89a1.4,1.4,0,0,0-1.413,1.414v2.706a1.4,1.4,0,0,0,1.413,1.414h.89A7.122,7.122,0,0,0,4992.382,1934.827Z" transform="translate(-4972.343 -1925.156)"/>
        <path d="M4999.969,1937.1h-2.81v-11.992h2.81Z" transform="translate(-4972.721 -1925.071)"/>
        <path d="M5001.964,1925.107h2.793v2.723h-2.793Zm0,3.421h2.793v8.571h-2.793Z" transform="translate(-4972.866 -1925.071)"/>
        <path d="M5016.99,1925.089V1937.1H5014.2v-.489a7.067,7.067,0,0,1-2.583.489h-2.863a2.156,2.156,0,0,1-1.125-.307,2.279,2.279,0,0,1-.821-.828,2.212,2.212,0,0,1-.3-1.135v-4.73a2.209,2.209,0,0,1,.3-1.135,2.288,2.288,0,0,1,.821-.829,2.166,2.166,0,0,1,1.125-.305h2.846a7.108,7.108,0,0,1,2.6.489v-3.229Zm-2.793,9.653v-4.556a7.111,7.111,0,0,0-2.6-.489h-.89a1.4,1.4,0,0,0-1.415,1.414v2.706a1.4,1.4,0,0,0,1.415,1.414h.89A7.106,7.106,0,0,0,5014.2,1934.742Z" transform="translate(-4973.003 -1925.071)"/>
        <path d="M5029.212,1927.915v9.269h-2.792v-.489a7.079,7.079,0,0,1-2.583.489h-2.846a2.207,2.207,0,0,1-1.135-.307,2.258,2.258,0,0,1-.828-.828,2.213,2.213,0,0,1-.305-1.135v-4.73a2.21,2.21,0,0,1,.305-1.135,2.267,2.267,0,0,1,.828-.829,2.216,2.216,0,0,1,1.135-.305h2.828a7.211,7.211,0,0,1,2.6.489v-.489Zm-2.792,6.912v-4.556a7.127,7.127,0,0,0-2.6-.489h-.89a1.4,1.4,0,0,0-1.413,1.414v2.706a1.4,1.4,0,0,0,1.413,1.414h.89A7.122,7.122,0,0,0,5026.419,1934.827Z" transform="translate(-4973.374 -1925.156)"/>
        <path d="M5034.382,1934.165a1.072,1.072,0,0,0,1.064,1.066h1.275v1.868H5034.5a2.834,2.834,0,0,1-1.406-.367,3.034,3.034,0,0,1-1.064-.986,2.794,2.794,0,0,1-.462-1.37V1929.7h-1.17v-1.868h1.17v-2.723h2.81v2.723h2.339v1.868h-2.339Z" transform="translate(-4973.726 -1925.071)"/>
        <path d="M5045.464,1927.915a1.819,1.819,0,0,1,1.833,1.833v2.042a1.77,1.77,0,0,1-.533,1.291,1.75,1.75,0,0,1-1.3.542h-4.889v.627a1.072,1.072,0,0,0,1.066,1.066h5.446v1.868h-6.372a2.873,2.873,0,0,1-1.475-.393,2.925,2.925,0,0,1-1.065-1.065,2.881,2.881,0,0,1-.392-1.476v-3.4a2.881,2.881,0,0,1,.392-1.475,2.935,2.935,0,0,1,1.065-1.066,2.882,2.882,0,0,1,1.475-.392Zm-1.2,3.622a.707.707,0,0,0,.217-.515v-.506a.743.743,0,0,0-.733-.733h-2.111a1.073,1.073,0,0,0-1.066,1.065v.908h3.177A.709.709,0,0,0,5044.268,1931.537Z" transform="translate(-4973.95 -1925.156)"/>
      </g>
    </g>
    <g transform="translate(4759.619 1977.688)" style="isolation: isolate">
      <g style="isolation: isolate">
        <path d="M4787.98,1997.1h-7.959a3.452,3.452,0,0,1-1.79-.48,3.586,3.586,0,0,1-1.292-1.3,3.468,3.468,0,0,1-.48-1.78v-4.906a3.419,3.419,0,0,1,.48-1.771,3.608,3.608,0,0,1,1.292-1.292,3.452,3.452,0,0,1,1.79-.48h7.959v1.868h-7.018a1.627,1.627,0,0,0-1.185.48,1.6,1.6,0,0,0-.49,1.195v4.906a1.669,1.669,0,0,0,1.675,1.675h7.018Z" transform="translate(-4776.46 -1985.089)"/>
        <path d="M4797.931,1988.282a2.716,2.716,0,0,1,1,.994,2.649,2.649,0,0,1,.367,1.362v3.823a2.638,2.638,0,0,1-.367,1.361,2.728,2.728,0,0,1-2.374,1.362h-4.05a2.636,2.636,0,0,1-1.37-.367,2.736,2.736,0,0,1-.987-1,2.648,2.648,0,0,1-.367-1.361v-3.823a2.659,2.659,0,0,1,.367-1.362,2.745,2.745,0,0,1,.987-.994,2.637,2.637,0,0,1,1.37-.367h4.05A2.685,2.685,0,0,1,4797.931,1988.282Zm-1.449,2.915a1.4,1.4,0,0,0-1.413-1.414h-1.082a1.4,1.4,0,0,0-1.414,1.414v2.706a1.4,1.4,0,0,0,1.414,1.414h1.082a1.4,1.4,0,0,0,1.413-1.414Z" transform="translate(-4776.863 -1985.174)"/>
        <path d="M4814.613,1988.282a2.725,2.725,0,0,1,.995.994,2.659,2.659,0,0,1,.367,1.362v6.546h-2.81V1991.2a1.37,1.37,0,0,0-.409-1,1.348,1.348,0,0,0-.987-.41h-.418a1.343,1.343,0,0,0-.987.41,1.369,1.369,0,0,0-.41,1v5.987h-2.81V1991.2a1.366,1.366,0,0,0-.411-1,1.343,1.343,0,0,0-.986-.41h-.4a1.4,1.4,0,0,0-1.414,1.414v5.987h-2.792v-6.546a2.667,2.667,0,0,1,.366-1.362,2.721,2.721,0,0,1,.995-.994,2.655,2.655,0,0,1,1.361-.367h2.619a3.526,3.526,0,0,1,2.077.68,3.449,3.449,0,0,1,2.061-.68h2.635A2.656,2.656,0,0,1,4814.613,1988.282Z" transform="translate(-4777.207 -1985.174)"/>
        <path d="M4831.6,1988.282a2.723,2.723,0,0,1,1,.994,2.654,2.654,0,0,1,.367,1.362v6.546h-2.812V1991.2a1.368,1.368,0,0,0-.409-1,1.347,1.347,0,0,0-.986-.41h-.418a1.346,1.346,0,0,0-.987.41,1.366,1.366,0,0,0-.409,1v5.987h-2.811V1991.2a1.362,1.362,0,0,0-.411-1,1.343,1.343,0,0,0-.985-.41h-.4a1.4,1.4,0,0,0-1.414,1.414v5.987h-2.793v-6.546a2.659,2.659,0,0,1,.367-1.362,2.72,2.72,0,0,1,.994-.994,2.656,2.656,0,0,1,1.361-.367h2.62a3.524,3.524,0,0,1,2.076.68,3.455,3.455,0,0,1,2.061-.68h2.635A2.651,2.651,0,0,1,4831.6,1988.282Z" transform="translate(-4777.721 -1985.174)"/>
        <path d="M4835.229,1985.107h2.792v2.723h-2.792Zm0,3.421h2.792v8.571h-2.792Z" transform="translate(-4778.239 -1985.089)"/>
        <path d="M4843.205,1994.165a1.071,1.071,0,0,0,1.064,1.066h1.274v1.868h-2.217a2.829,2.829,0,0,1-1.405-.367,3.021,3.021,0,0,1-1.064-.986,2.79,2.79,0,0,1-.463-1.37V1989.7h-1.17v-1.868h1.17v-2.723h2.811v2.723h2.339v1.868h-2.339Z" transform="translate(-4778.359 -1985.089)"/>
        <path d="M4867.9,1987.915v9.269H4865.1v-.489a7.076,7.076,0,0,1-2.583.489h-2.847a2.2,2.2,0,0,1-1.134-.306,2.257,2.257,0,0,1-.828-.828,2.21,2.21,0,0,1-.307-1.135v-4.73a2.208,2.208,0,0,1,.307-1.135,2.268,2.268,0,0,1,.828-.829,2.212,2.212,0,0,1,1.134-.305h2.828a7.217,7.217,0,0,1,2.6.489v-.489Zm-2.793,6.912v-4.556a7.124,7.124,0,0,0-2.6-.489h-.89a1.4,1.4,0,0,0-1.413,1.414v2.706a1.4,1.4,0,0,0,1.413,1.414h.89A7.124,7.124,0,0,0,4865.1,1994.827Z" transform="translate(-4778.909 -1985.174)"/>
        <path d="M4879.139,1997.184h-6.772a2.688,2.688,0,0,1-1.379-.367,2.716,2.716,0,0,1-.995-1,2.679,2.679,0,0,1-.366-1.378v-3.789a2.689,2.689,0,0,1,.366-1.379,2.725,2.725,0,0,1,.995-.994,2.689,2.689,0,0,1,1.379-.367h6.772v1.868h-5.306a1.374,1.374,0,0,0-1,.41,1.351,1.351,0,0,0-.419,1v2.706a1.351,1.351,0,0,0,.419,1,1.378,1.378,0,0,0,1,.41h5.306Z" transform="translate(-4779.279 -1985.174)"/>
        <path d="M4884.28,1994.165a1.073,1.073,0,0,0,1.065,1.066h1.274v1.868H4884.4a2.831,2.831,0,0,1-1.405-.367,3.039,3.039,0,0,1-1.065-.986,2.8,2.8,0,0,1-.462-1.37V1989.7H4880.3v-1.868h1.168v-2.723h2.81v2.723h2.339v1.868h-2.339Z" transform="translate(-4779.602 -1985.089)"/>
        <path d="M4887.931,1985.107h2.793v2.723h-2.793Zm0,3.421h2.793v8.571h-2.793Z" transform="translate(-4779.833 -1985.089)"/>
        <path d="M4900.619,1988.282a2.712,2.712,0,0,1,.994.994,2.645,2.645,0,0,1,.367,1.362v3.823a2.634,2.634,0,0,1-.367,1.361,2.723,2.723,0,0,1-2.373,1.362h-4.05a2.643,2.643,0,0,1-1.37-.367,2.732,2.732,0,0,1-.985-1,2.653,2.653,0,0,1-.367-1.361v-3.823a2.664,2.664,0,0,1,.367-1.362,2.741,2.741,0,0,1,.985-.994,2.644,2.644,0,0,1,1.37-.367h4.05A2.688,2.688,0,0,1,4900.619,1988.282Zm-1.449,2.915a1.4,1.4,0,0,0-1.413-1.414h-1.082a1.4,1.4,0,0,0-1.414,1.414v2.706a1.4,1.4,0,0,0,1.414,1.414h1.082a1.4,1.4,0,0,0,1.413-1.414Z" transform="translate(-4779.97 -1985.174)"/>
        <path d="M4910.385,1997.184V1991.2a1.4,1.4,0,0,0-1.416-1.414h-1.082a1.4,1.4,0,0,0-1.414,1.414v5.987h-2.793v-6.546a2.659,2.659,0,0,1,.367-1.362,2.716,2.716,0,0,1,1-.994,2.649,2.649,0,0,1,1.36-.367h4.051a2.692,2.692,0,0,1,1.379.367,2.731,2.731,0,0,1,.994.994,2.659,2.659,0,0,1,.368,1.362v6.546Z" transform="translate(-4780.309 -1985.174)"/>
      </g>
      <g transform="translate(7.27 20.365)" style="isolation: isolate">
        <path d="M4793.846,2006.613a3.9,3.9,0,0,1,1.423,1.414,3.791,3.791,0,0,1,.522,1.955,3.841,3.841,0,0,1-.522,1.964,3.9,3.9,0,0,1-1.423,1.422,3.837,3.837,0,0,1-1.964.524h-5.132v4.207h-2.792v-12.009h7.924A3.837,3.837,0,0,1,4793.846,2006.613Zm-1.458,4.818a1.971,1.971,0,0,0,.595-1.449,2.028,2.028,0,0,0-2.025-2.025h-4.207v4.067h4.207A1.948,1.948,0,0,0,4792.387,2011.431Z" transform="translate(-4783.958 -2006.089)"/>
        <path d="M4800.25,2008.915v5.987a1.4,1.4,0,0,0,1.414,1.414h1.1a1.346,1.346,0,0,0,.985-.41,1.365,1.365,0,0,0,.412-1v-5.987h2.81v6.546a2.661,2.661,0,0,1-.366,1.361,2.718,2.718,0,0,1-1,1,2.685,2.685,0,0,1-1.379.367h-4.05a2.654,2.654,0,0,1-1.361-.367,2.716,2.716,0,0,1-.995-1,2.647,2.647,0,0,1-.367-1.361v-6.546Z" transform="translate(-4784.366 -2006.174)"/>
        <path d="M4818.026,2009.135a2.273,2.273,0,0,1,.83.829,2.22,2.22,0,0,1,.3,1.135v4.73a2.222,2.222,0,0,1-.3,1.135,2.262,2.262,0,0,1-.83.828,2.2,2.2,0,0,1-1.134.306h-2.844a7.065,7.065,0,0,1-2.583-.489v.489h-2.794v-11.992h2.794v3.212a7.289,7.289,0,0,1,2.6-.489h2.828A2.208,2.208,0,0,1,4818.026,2009.135Zm-1.658,2.976a1.4,1.4,0,0,0-1.414-1.414h-.89a7.108,7.108,0,0,0-2.6.489v4.556a7.108,7.108,0,0,0,2.6.489h.89a1.4,1.4,0,0,0,1.414-1.414Z" transform="translate(-4784.705 -2006.089)"/>
        <path d="M4823.956,2018.1h-2.812v-11.992h2.812Z" transform="translate(-4785.082 -2006.089)"/>
        <path d="M4825.95,2006.107h2.793v2.723h-2.793Zm0,3.421h2.793v8.571h-2.793Z" transform="translate(-4785.228 -2006.089)"/>
        <path d="M4833.935,2010.783a.861.861,0,0,0-.646.271.9.9,0,0,0-.263.655.88.88,0,0,0,.263.636.859.859,0,0,0,.646.271h3a2.725,2.725,0,0,1,1.406.374,2.831,2.831,0,0,1,1.011,1.013,2.728,2.728,0,0,1,.375,1.4,2.7,2.7,0,0,1-.375,1.389,2.821,2.821,0,0,1-1.011,1.012,2.726,2.726,0,0,1-1.406.375h-6.354v-1.868h5.428a.892.892,0,0,0,.655-.271.874.874,0,0,0,.271-.638.925.925,0,0,0-.925-.925h-3a2.731,2.731,0,0,1-1.4-.374,2.792,2.792,0,0,1-1.021-1.012,2.7,2.7,0,0,1-.375-1.388,2.728,2.728,0,0,1,.375-1.405,2.791,2.791,0,0,1,1.021-1.012,2.73,2.73,0,0,1,1.4-.375h6.284v1.868Z" transform="translate(-4785.356 -2006.174)"/>
        <path d="M4849.539,2009.135a2.257,2.257,0,0,1,.828.829,2.2,2.2,0,0,1,.308,1.135v7h-2.794v-5.987a1.4,1.4,0,0,0-1.414-1.414h-.418a5.739,5.739,0,0,0-2.078.437v6.965h-2.81v-12.009h2.81v3.176a5.756,5.756,0,0,1,2.078-.435h2.356A2.216,2.216,0,0,1,4849.539,2009.135Z" transform="translate(-4785.688 -2006.089)"/>
        <path d="M4866.621,2010.783a.865.865,0,0,0-.646.271.906.906,0,0,0-.262.655.881.881,0,0,0,.262.636.862.862,0,0,0,.646.271h3a2.719,2.719,0,0,1,1.406.374,2.822,2.822,0,0,1,1.012,1.013,2.718,2.718,0,0,1,.375,1.4,2.688,2.688,0,0,1-.375,1.389,2.812,2.812,0,0,1-1.012,1.012,2.72,2.72,0,0,1-1.406.375h-6.354v-1.868h5.429a.9.9,0,0,0,.656-.271.876.876,0,0,0,.269-.638.923.923,0,0,0-.925-.925h-3a2.726,2.726,0,0,1-1.4-.374,2.787,2.787,0,0,1-1.022-1.012,2.687,2.687,0,0,1-.375-1.388,2.72,2.72,0,0,1,.375-1.405,2.786,2.786,0,0,1,1.022-1.012,2.724,2.724,0,0,1,1.4-.375h6.285v1.868Z" transform="translate(-4786.346 -2006.174)"/>
        <path d="M4877.287,2015.165a1.071,1.071,0,0,0,1.064,1.066h1.274v1.868h-2.217a2.829,2.829,0,0,1-1.405-.367,3.034,3.034,0,0,1-1.064-.986,2.778,2.778,0,0,1-.462-1.37V2010.7h-1.171v-1.868h1.171v-2.723h2.81v2.723h2.339v1.868h-2.339Z" transform="translate(-4786.66 -2006.089)"/>
        <path d="M4891.178,2008.915v9.269h-2.793v-.489a7.068,7.068,0,0,1-2.583.489h-2.846a2.2,2.2,0,0,1-1.135-.306,2.263,2.263,0,0,1-.829-.828,2.217,2.217,0,0,1-.3-1.135v-4.73a2.215,2.215,0,0,1,.3-1.135,2.274,2.274,0,0,1,.829-.829,2.213,2.213,0,0,1,1.135-.305h2.828a7.213,7.213,0,0,1,2.6.489v-.489Zm-2.793,6.912v-4.556a7.113,7.113,0,0,0-2.6-.489h-.891a1.4,1.4,0,0,0-1.415,1.414v2.706a1.4,1.4,0,0,0,1.415,1.414h.891A7.113,7.113,0,0,0,4888.385,2015.827Z" transform="translate(-4786.884 -2006.174)"/>
        <path d="M4896.349,2015.165a1.072,1.072,0,0,0,1.063,1.066h1.275v1.868h-2.217a2.829,2.829,0,0,1-1.405-.367,3.036,3.036,0,0,1-1.064-.986,2.785,2.785,0,0,1-.463-1.37V2010.7h-1.168v-1.868h1.168v-2.723h2.812v2.723h2.338v1.868h-2.338Z" transform="translate(-4787.237 -2006.089)"/>
        <path d="M4907.429,2008.915a1.817,1.817,0,0,1,1.833,1.833v2.042a1.777,1.777,0,0,1-.532,1.291,1.756,1.756,0,0,1-1.3.542h-4.887v.627a1.072,1.072,0,0,0,1.064,1.066h5.446v1.868h-6.371a2.868,2.868,0,0,1-1.474-.393,2.923,2.923,0,0,1-1.065-1.065,2.868,2.868,0,0,1-.393-1.476v-3.4a2.867,2.867,0,0,1,.393-1.475,2.933,2.933,0,0,1,1.065-1.066,2.878,2.878,0,0,1,1.474-.392Zm-1.2,3.622a.7.7,0,0,0,.218-.515v-.506a.746.746,0,0,0-.733-.733h-2.112a1.072,1.072,0,0,0-1.064,1.065v.908h3.176A.7.7,0,0,0,4906.233,2012.537Z" transform="translate(-4787.461 -2006.174)"/>
      </g>
    </g>
    <g transform="translate(5142.873 1932.932)" style="isolation: isolate">
      <g style="isolation: isolate">
        <path d="M5175.4,1954.973h-3.724v-16.036h3.724Z" transform="translate(-5171.672 -1938.937)"/>
        <path d="M5190.809,1939.659a5.214,5.214,0,0,1,1.9,1.885,5.048,5.048,0,0,1,.7,2.607,5.11,5.11,0,0,1-.7,2.618,5.193,5.193,0,0,1-1.9,1.9,5.123,5.123,0,0,1-2.62.7h-6.842v5.609h-3.725v-16.012h10.566A5.1,5.1,0,0,1,5190.809,1939.659Zm-1.944,6.424a2.629,2.629,0,0,0,.791-1.932,2.7,2.7,0,0,0-2.7-2.7h-5.609v5.424h5.609A2.6,2.6,0,0,0,5188.865,1946.083Z" transform="translate(-5171.852 -1938.938)"/>
        <path d="M5200.9,1941.847a2.994,2.994,0,0,0-1.095,1.082,2.893,2.893,0,0,0-.406,1.5v2.537h11.637v2.489H5199.4v5.517h-3.724V1944.43a5.349,5.349,0,0,1,.733-2.746,5.427,5.427,0,0,1,1.99-1.99,5.354,5.354,0,0,1,2.747-.733h9.892v2.489h-8.658A2.909,2.909,0,0,0,5200.9,1941.847Z" transform="translate(-5172.398 -1938.938)"/>
        <path d="M5225.816,1946.246a4.679,4.679,0,0,1,1.7,1.7,4.712,4.712,0,0,1,0,4.7,4.671,4.671,0,0,1-1.7,1.7,4.5,4.5,0,0,1-2.326.629h-10.056v-2.514h8.8a2.128,2.128,0,0,0,1.548-.628,2.164,2.164,0,0,0,0-3.072,2.129,2.129,0,0,0-1.548-.628h-4.863a4.443,4.443,0,0,1-2.3-.618,4.6,4.6,0,0,1-1.665-1.675,4.588,4.588,0,0,1,0-4.6,4.633,4.633,0,0,1,1.665-1.664,4.45,4.45,0,0,1,2.3-.617h9.845v2.489H5218.6a2.108,2.108,0,0,0-2.095,2.1,1.979,1.979,0,0,0,.617,1.465,2.031,2.031,0,0,0,1.478.605h4.889A4.514,4.514,0,0,1,5225.816,1946.246Z" transform="translate(-5172.916 -1938.938)"/>
        <path d="M5256.226,1947.457q.9.023,1.433.022t1.375-.022a9.161,9.161,0,0,1-1.285,4.761q.716.8,1.393,1.49t1.222,1.295q-1.206-.022-1.875-.022h-1.8l-1.294-1.353q-.433.33-.745.534a6.823,6.823,0,0,1-.762.421,6.393,6.393,0,0,1-.949.364,7.56,7.56,0,0,1-1.057.227,8.5,8.5,0,0,1-1.205.08,7.9,7.9,0,0,1-3.017-.551,4.246,4.246,0,0,1-2.045-1.648,4.439,4.439,0,0,1-.359-4.1,4.656,4.656,0,0,1,1.148-1.562,12.207,12.207,0,0,1,2.5-1.665,8.274,8.274,0,0,1-.841-1.592,3.8,3.8,0,0,1-.25-1.307,3.282,3.282,0,0,1,.348-1.459,3.5,3.5,0,0,1,1.016-1.233,4.042,4.042,0,0,1,1.495-.733,7.107,7.107,0,0,1,1.756-.21,13.489,13.489,0,0,1,3.295.467l.057,2.534a6.945,6.945,0,0,0-1.3-.505,4.307,4.307,0,0,0-1.04-.131,3.084,3.084,0,0,0-1.21.233,1.808,1.808,0,0,0-.841.682,1.717,1.717,0,0,0-.29.949,2.388,2.388,0,0,0,.074.574,3.513,3.513,0,0,0,.278.71,9.626,9.626,0,0,0,.831,1.318,21.347,21.347,0,0,0,1.375,1.693q.17.205,1.227,1.285.477.489.91.966a5.165,5.165,0,0,0,.227-.654,6.024,6.024,0,0,0,.125-.755Q5256.2,1948.071,5256.226,1947.457Zm-2.375,4.318-1.488-1.6q-.638-.682-1.069-1.176t-1.011-1.2a13.285,13.285,0,0,0-1.165.792,3.239,3.239,0,0,0-.636.66,2.338,2.338,0,0,0-.353.694,2.484,2.484,0,0,0-.1.679,2.11,2.11,0,0,0,.38,1.223,2.381,2.381,0,0,0,1.069.843,3.929,3.929,0,0,0,1.552.291,4.273,4.273,0,0,0,.92-.1,3.652,3.652,0,0,0,.79-.265,2.928,2.928,0,0,0,.58-.355A6.868,6.868,0,0,0,5253.851,1951.775Z" transform="translate(-5173.889 -1938.945)"/>
        <path d="M5289.844,1954.974l-5.12-12.15-4.1,9.659h4.585l1.165,2.491h-10.521l6.8-16.012h4.12l6.8,16.012Z" transform="translate(-5174.825 -1938.938)"/>
        <path d="M5310.331,1946.827a5.072,5.072,0,0,1-1.956,1.886l2.676,6.261h-3.724l-2.42-5.609h-5.887v5.609h-3.749v-16.012h10.567a5.1,5.1,0,0,1,2.619.7,5.208,5.208,0,0,1,1.9,1.885,5.039,5.039,0,0,1,.7,2.607A5.13,5.13,0,0,1,5310.331,1946.827Zm-11.311.047h5.584a2.638,2.638,0,0,0,1.92-.791,2.608,2.608,0,0,0,.8-1.932,2.581,2.581,0,0,0-.8-1.908,2.639,2.639,0,0,0-1.92-.792h-5.584Z" transform="translate(-5175.412 -1938.938)"/>
      </g>
    </g>
    <g transform="translate(4930.4 2055.268)" style="isolation: isolate">
      <g transform="translate(0 0)" style="isolation: isolate">
        <path d="M4955.382,2065.089v8.728a1.346,1.346,0,0,0,.408.986,1.366,1.366,0,0,0,1,.409h3.088a1.362,1.362,0,0,0,1-.409,1.342,1.342,0,0,0,.411-.986v-8.728h2.812v9.269a2.611,2.611,0,0,1-.376,1.362,2.868,2.868,0,0,1-1,1,2.607,2.607,0,0,1-1.361.375h-6.057a2.739,2.739,0,0,1-2.741-2.74v-9.269Z" transform="translate(-4952.57 -2065.089)"/>
        <path d="M4975.264,2068.239a2.258,2.258,0,0,1,.829.829,2.213,2.213,0,0,1,.306,1.135v4.713a2.213,2.213,0,0,1-.306,1.135,2.256,2.256,0,0,1-.829.828,2.2,2.2,0,0,1-1.133.306h-2.812a5.876,5.876,0,0,1-2.6-.629v3.37h-2.811v-11.992h2.811v.611a6.149,6.149,0,0,1,2.584-.611h2.828A2.211,2.211,0,0,1,4975.264,2068.239Zm-1.658,2.959a1.371,1.371,0,0,0-.411-1,1.325,1.325,0,0,0-.986-.419h-.891a6.186,6.186,0,0,0-2.6.611v4.312a5.88,5.88,0,0,0,2.6.611h.891a1.346,1.346,0,0,0,.986-.41,1.363,1.363,0,0,0,.411-1Z" transform="translate(-4952.973 -2065.175)"/>
        <path d="M4988.62,2065.089V2077.1h-2.792v-.489a7.073,7.073,0,0,1-2.583.489h-2.863a2.152,2.152,0,0,1-1.125-.306,2.263,2.263,0,0,1-.821-.828,2.2,2.2,0,0,1-.305-1.135V2070.1a2.2,2.2,0,0,1,.305-1.135,2.275,2.275,0,0,1,.821-.829,2.16,2.16,0,0,1,1.125-.305h2.846a7.118,7.118,0,0,1,2.6.489v-3.229Zm-2.792,9.653v-4.556a7.123,7.123,0,0,0-2.6-.489h-.891a1.4,1.4,0,0,0-1.414,1.414v2.706a1.4,1.4,0,0,0,1.414,1.414h.891A7.123,7.123,0,0,0,4985.828,2074.742Z" transform="translate(-4953.343 -2065.089)"/>
        <path d="M5000.843,2067.915v9.269h-2.793v-.489a7.067,7.067,0,0,1-2.583.489h-2.845a2.205,2.205,0,0,1-1.135-.306,2.27,2.27,0,0,1-.829-.828,2.222,2.222,0,0,1-.305-1.135v-4.731a2.22,2.22,0,0,1,.305-1.135,2.282,2.282,0,0,1,.829-.829,2.214,2.214,0,0,1,1.135-.305h2.828a7.207,7.207,0,0,1,2.6.489v-.489Zm-2.793,6.912v-4.556a7.118,7.118,0,0,0-2.6-.489h-.89a1.4,1.4,0,0,0-1.414,1.414v2.706a1.4,1.4,0,0,0,1.414,1.414h.89A7.118,7.118,0,0,0,4998.049,2074.827Z" transform="translate(-4953.713 -2065.175)"/>
        <path d="M5006.013,2074.166a1.072,1.072,0,0,0,1.063,1.066h1.275v1.868h-2.215a2.836,2.836,0,0,1-1.407-.366,3.031,3.031,0,0,1-1.064-.986,2.785,2.785,0,0,1-.463-1.37V2069.7h-1.169v-1.868h1.169v-2.723h2.811v2.723h2.339v1.868h-2.339Z" transform="translate(-4954.067 -2065.09)"/>
        <path d="M5017.094,2067.915a1.819,1.819,0,0,1,1.833,1.833v2.042a1.774,1.774,0,0,1-.533,1.291,1.753,1.753,0,0,1-1.3.542h-4.888v.627a1.073,1.073,0,0,0,1.064,1.066h5.447v1.868h-6.371a2.874,2.874,0,0,1-1.475-.393,2.919,2.919,0,0,1-1.065-1.065,2.872,2.872,0,0,1-.393-1.476v-3.4a2.871,2.871,0,0,1,.393-1.475,2.929,2.929,0,0,1,1.065-1.066,2.878,2.878,0,0,1,1.475-.392Zm-1.2,3.622a.7.7,0,0,0,.218-.515v-.506a.745.745,0,0,0-.733-.733h-2.112a1.073,1.073,0,0,0-1.064,1.064v.908h3.176A.7.7,0,0,0,5015.9,2071.537Z" transform="translate(-4954.29 -2065.175)"/>
        <path d="M5041.936,2067.915v9.077a2.875,2.875,0,0,1-.394,1.475,2.974,2.974,0,0,1-1.064,1.073,2.819,2.819,0,0,1-1.476.4h-7.173v-1.885h6.231a1.043,1.043,0,0,0,.768-.314,1.027,1.027,0,0,0,.315-.751v-1.449a9.587,9.587,0,0,1-3.3.664H5033.7a2.257,2.257,0,0,1-1.962-1.144,2.249,2.249,0,0,1-.306-1.143v-3.736a2.2,2.2,0,0,1,.306-1.135,2.249,2.249,0,0,1,.829-.829,2.209,2.209,0,0,1,1.133-.305h2.13a10.088,10.088,0,0,1,3.316.646v-.646Zm-5.412,6.406a12.135,12.135,0,0,0,2.619-.768v-2.985a13.081,13.081,0,0,0-2.619-.785h-.89a1.376,1.376,0,0,0-1,.41,1.356,1.356,0,0,0-.418,1v1.71a1.356,1.356,0,0,0,.418,1,1.377,1.377,0,0,0,1,.41Z" transform="translate(-4954.956 -2065.175)"/>
        <path d="M5054.157,2067.915v9.269h-2.793v-.489a7.069,7.069,0,0,1-2.583.489h-2.845a2.205,2.205,0,0,1-1.135-.306,2.259,2.259,0,0,1-.829-.828,2.213,2.213,0,0,1-.305-1.135v-4.731a2.211,2.211,0,0,1,.305-1.135,2.271,2.271,0,0,1,.829-.829,2.214,2.214,0,0,1,1.135-.305h2.828a7.205,7.205,0,0,1,2.6.489v-.489Zm-2.793,6.912v-4.556a7.116,7.116,0,0,0-2.6-.489h-.89a1.4,1.4,0,0,0-1.413,1.414v2.706a1.4,1.4,0,0,0,1.413,1.414h.89A7.116,7.116,0,0,0,5051.364,2074.827Z" transform="translate(-4955.326 -2065.175)"/>
        <path d="M5069.508,2068.281a2.733,2.733,0,0,1,.995.994,2.664,2.664,0,0,1,.367,1.362v6.546h-2.812V2071.2a1.368,1.368,0,0,0-.408-1,1.35,1.35,0,0,0-.987-.41h-.419a1.344,1.344,0,0,0-.986.41,1.371,1.371,0,0,0-.41,1v5.987h-2.81V2071.2a1.364,1.364,0,0,0-.411-1,1.342,1.342,0,0,0-.986-.41h-.4a1.4,1.4,0,0,0-1.414,1.414v5.987h-2.792v-6.546a2.663,2.663,0,0,1,.366-1.362,2.728,2.728,0,0,1,.994-.994,2.663,2.663,0,0,1,1.362-.366h2.618a3.525,3.525,0,0,1,2.077.68,3.453,3.453,0,0,1,2.061-.68h2.635A2.665,2.665,0,0,1,5069.508,2068.281Z" transform="translate(-4955.701 -2065.175)"/>
        <path d="M5080.561,2067.915a1.818,1.818,0,0,1,1.832,1.833v2.042a1.771,1.771,0,0,1-.532,1.291,1.75,1.75,0,0,1-1.3.542h-4.888v.627a1.073,1.073,0,0,0,1.064,1.066h5.446v1.868h-6.371a2.872,2.872,0,0,1-1.475-.393,2.911,2.911,0,0,1-1.064-1.065,2.859,2.859,0,0,1-.393-1.476v-3.4a2.858,2.858,0,0,1,.393-1.475,2.92,2.92,0,0,1,1.064-1.066,2.876,2.876,0,0,1,1.475-.392Zm-1.2,3.622a.7.7,0,0,0,.219-.515v-.506a.746.746,0,0,0-.733-.733h-2.112a1.073,1.073,0,0,0-1.064,1.064v.908h3.176A.7.7,0,0,0,5079.364,2071.537Z" transform="translate(-4956.21 -2065.175)"/>
        <path d="M5101.231,2069.783H5099.1a1.342,1.342,0,0,0-.985.41,1.359,1.359,0,0,0-.411,1v5.987h-2.81v-6.546a2.663,2.663,0,0,1,.366-1.362,2.727,2.727,0,0,1,1-.994,2.657,2.657,0,0,1,1.362-.366h3.614Z" transform="translate(-4956.876 -2065.175)"/>
        <path d="M5109.918,2067.915a1.818,1.818,0,0,1,1.833,1.833v2.042a1.775,1.775,0,0,1-.532,1.291,1.752,1.752,0,0,1-1.3.542h-4.888v.627a1.072,1.072,0,0,0,1.064,1.066h5.446v1.868h-6.37a2.872,2.872,0,0,1-1.476-.393,2.908,2.908,0,0,1-1.065-1.065,2.868,2.868,0,0,1-.393-1.476v-3.4a2.867,2.867,0,0,1,.393-1.475,2.918,2.918,0,0,1,1.065-1.066,2.876,2.876,0,0,1,1.476-.392Zm-1.2,3.622a.7.7,0,0,0,.217-.515v-.506a.743.743,0,0,0-.733-.733h-2.111a1.072,1.072,0,0,0-1.064,1.064v.908h3.176A.7.7,0,0,0,5108.722,2071.537Z" transform="translate(-4957.099 -2065.175)"/>
        <path d="M5122.966,2077.184h-6.774a2.691,2.691,0,0,1-1.379-.366,2.722,2.722,0,0,1-1-1,2.685,2.685,0,0,1-.366-1.378v-3.789a2.7,2.7,0,0,1,.366-1.379,2.731,2.731,0,0,1,1-.994,2.691,2.691,0,0,1,1.379-.366h6.774v1.868h-5.308a1.369,1.369,0,0,0-.994.41,1.345,1.345,0,0,0-.42,1v2.706a1.344,1.344,0,0,0,.42,1,1.373,1.373,0,0,0,.994.41h5.308Z" transform="translate(-4957.438 -2065.175)"/>
        <path d="M5132.815,2068.281a2.719,2.719,0,0,1,1,.994,2.658,2.658,0,0,1,.366,1.362v3.823a2.648,2.648,0,0,1-.366,1.361,2.729,2.729,0,0,1-2.375,1.362h-4.048a2.644,2.644,0,0,1-1.371-.366,2.735,2.735,0,0,1-.986-1,2.648,2.648,0,0,1-.367-1.361v-3.823a2.659,2.659,0,0,1,.367-1.362,2.743,2.743,0,0,1,.986-.994,2.644,2.644,0,0,1,1.371-.366h4.048A2.686,2.686,0,0,1,5132.815,2068.281Zm-1.448,2.915a1.4,1.4,0,0,0-1.413-1.414h-1.083a1.4,1.4,0,0,0-1.414,1.414v2.706a1.4,1.4,0,0,0,1.414,1.414h1.083a1.4,1.4,0,0,0,1.413-1.414Z" transform="translate(-4957.777 -2065.175)"/>
        <path d="M5142.215,2069.783h-2.13a1.345,1.345,0,0,0-.987.41,1.368,1.368,0,0,0-.409,1v5.987h-2.811v-6.546a2.659,2.659,0,0,1,.367-1.362,2.716,2.716,0,0,1,1-.994,2.652,2.652,0,0,1,1.36-.366h3.614Z" transform="translate(-4958.116 -2065.175)"/>
        <path d="M5153.713,2065.089V2077.1h-2.793v-.489a7.063,7.063,0,0,1-2.583.489h-2.862a2.154,2.154,0,0,1-1.126-.306,2.27,2.27,0,0,1-.821-.828,2.212,2.212,0,0,1-.3-1.135V2070.1a2.21,2.21,0,0,1,.3-1.135,2.282,2.282,0,0,1,.821-.829,2.162,2.162,0,0,1,1.126-.305h2.844a7.111,7.111,0,0,1,2.6.489v-3.229Zm-2.793,9.653v-4.556a7.116,7.116,0,0,0-2.6-.489h-.89a1.4,1.4,0,0,0-1.414,1.414v2.706a1.4,1.4,0,0,0,1.414,1.414h.89A7.116,7.116,0,0,0,5150.92,2074.742Z" transform="translate(-4958.338 -2065.089)"/>
        <path d="M5158.892,2069.783a.864.864,0,0,0-.646.271.907.907,0,0,0-.262.654.883.883,0,0,0,.262.636.861.861,0,0,0,.646.271h3a2.718,2.718,0,0,1,1.405.374,2.838,2.838,0,0,1,1.014,1.014,2.727,2.727,0,0,1,.374,1.4,2.7,2.7,0,0,1-.374,1.388,2.827,2.827,0,0,1-1.014,1.012,2.719,2.719,0,0,1-1.405.375h-6.354v-1.868h5.429a.891.891,0,0,0,.655-.271.873.873,0,0,0,.271-.638.925.925,0,0,0-.925-.925h-3a2.731,2.731,0,0,1-1.4-.374,2.793,2.793,0,0,1-1.021-1.012,2.684,2.684,0,0,1-.376-1.388,2.716,2.716,0,0,1,.376-1.405,2.793,2.793,0,0,1,1.021-1.012,2.732,2.732,0,0,1,1.4-.375h6.284v1.868Z" transform="translate(-4958.7 -2065.175)"/>
      </g>
    </g>
    <g transform="translate(4539.593 2058.177)" style="isolation: isolate">
      <g style="isolation: isolate">
        <path d="M4560.863,2073.989a3.8,3.8,0,0,1-1.466,1.414l2.006,4.7h-2.792l-1.816-4.207h-4.414v4.207h-2.812v-12.009h7.925a3.839,3.839,0,0,1,1.963.523,3.892,3.892,0,0,1,1.422,1.414,3.778,3.778,0,0,1,.523,1.955A3.845,3.845,0,0,1,4560.863,2073.989Zm-8.482.035h4.188a1.981,1.981,0,0,0,1.44-.594,1.957,1.957,0,0,0,.6-1.449,1.935,1.935,0,0,0-.6-1.431,1.981,1.981,0,0,0-1.44-.594h-4.188Z" transform="translate(-4549.57 -2068.089)"/>
        <path d="M4570.589,2070.915a1.82,1.82,0,0,1,1.834,1.833v2.042a1.775,1.775,0,0,1-.534,1.291,1.753,1.753,0,0,1-1.3.542H4565.7v.627a1.071,1.071,0,0,0,1.066,1.066h5.445v1.867h-6.372a2.871,2.871,0,0,1-1.474-.393,2.93,2.93,0,0,1-1.065-1.065,2.876,2.876,0,0,1-.392-1.476v-3.4a2.876,2.876,0,0,1,.392-1.475,2.941,2.941,0,0,1,1.065-1.066,2.88,2.88,0,0,1,1.474-.392Zm-1.195,3.622a.707.707,0,0,0,.217-.515v-.506a.742.742,0,0,0-.733-.733h-2.111a1.071,1.071,0,0,0-1.066,1.065v.908h3.177A.709.709,0,0,0,4569.394,2074.537Z" transform="translate(-4549.974 -2068.175)"/>
        <path d="M4583.478,2071.239a2.254,2.254,0,0,1,.83.829,2.212,2.212,0,0,1,.3,1.135v4.713a2.211,2.211,0,0,1-.3,1.135,2.251,2.251,0,0,1-.83.828,2.2,2.2,0,0,1-1.135.306h-2.809a5.887,5.887,0,0,1-2.6-.629v3.37h-2.809v-11.992h2.809v.611a6.16,6.16,0,0,1,2.583-.611h2.828A2.211,2.211,0,0,1,4583.478,2071.239Zm-1.657,2.959a1.373,1.373,0,0,0-.41-1,1.328,1.328,0,0,0-.986-.419h-.89a6.2,6.2,0,0,0-2.6.611v4.312a5.887,5.887,0,0,0,2.6.611h.89a1.35,1.35,0,0,0,.986-.41,1.365,1.365,0,0,0,.41-1Z" transform="translate(-4550.313 -2068.175)"/>
        <path d="M4594.5,2071.282a2.723,2.723,0,0,1,.994.994,2.663,2.663,0,0,1,.368,1.362v3.823a2.654,2.654,0,0,1-.368,1.361,2.719,2.719,0,0,1-.994,1,2.691,2.691,0,0,1-1.379.366h-4.051a2.645,2.645,0,0,1-1.37-.366,2.725,2.725,0,0,1-.985-1,2.653,2.653,0,0,1-.367-1.361v-3.823a2.662,2.662,0,0,1,.367-1.362,2.729,2.729,0,0,1,.985-.994,2.646,2.646,0,0,1,1.37-.367h4.051A2.691,2.691,0,0,1,4594.5,2071.282Zm-1.449,2.915a1.4,1.4,0,0,0-1.415-1.414h-1.082a1.4,1.4,0,0,0-1.414,1.414v2.706a1.4,1.4,0,0,0,1.414,1.414h1.082a1.4,1.4,0,0,0,1.415-1.414Z" transform="translate(-4550.683 -2068.175)"/>
        <path d="M4603.894,2072.783h-2.13a1.344,1.344,0,0,0-.985.41,1.366,1.366,0,0,0-.41,1v5.987h-2.811v-6.546a2.663,2.663,0,0,1,.367-1.362,2.72,2.72,0,0,1,1-.994,2.653,2.653,0,0,1,1.362-.367h3.613Z" transform="translate(-4551.022 -2068.175)"/>
        <path d="M4608.341,2077.166a1.074,1.074,0,0,0,1.064,1.066h1.275v1.867h-2.216a2.829,2.829,0,0,1-1.406-.366,3.026,3.026,0,0,1-1.064-.986,2.791,2.791,0,0,1-.464-1.37V2072.7h-1.169v-1.868h1.169v-2.723h2.811v2.723h2.339v1.868h-2.339Z" transform="translate(-4551.228 -2068.09)"/>
      </g>
    </g>
    <g transform="translate(4429.232 1930.692)" style="isolation: isolate">
      <g style="isolation: isolate">
        <path d="M4451.125,1952.64h-10.613a4.6,4.6,0,0,1-2.385-.64,4.787,4.787,0,0,1-1.722-1.734,4.6,4.6,0,0,1-.641-2.375v-6.539a4.538,4.538,0,0,1,.641-2.362,4.807,4.807,0,0,1,1.722-1.722,4.6,4.6,0,0,1,2.385-.64h10.613v2.489h-9.356a2.174,2.174,0,0,0-1.583.641,2.144,2.144,0,0,0-.652,1.594v6.539a2.225,2.225,0,0,0,2.234,2.235h9.356Z" transform="translate(-4435.765 -1936.627)"/>
        <path d="M4464.393,1940.884a3.627,3.627,0,0,1,1.328,1.327,3.542,3.542,0,0,1,.489,1.815v5.1a3.542,3.542,0,0,1-.489,1.815,3.636,3.636,0,0,1-1.328,1.327,3.584,3.584,0,0,1-1.838.489h-5.4a3.523,3.523,0,0,1-1.827-.489,3.65,3.65,0,0,1-1.315-1.327,3.542,3.542,0,0,1-.489-1.815v-5.1a3.542,3.542,0,0,1,.489-1.815,3.642,3.642,0,0,1,1.315-1.327,3.521,3.521,0,0,1,1.827-.489h5.4A3.582,3.582,0,0,1,4464.393,1940.884Zm-1.932,3.886a1.865,1.865,0,0,0-1.884-1.884h-1.444a1.866,1.866,0,0,0-1.884,1.884v3.608a1.866,1.866,0,0,0,1.884,1.884h1.444a1.865,1.865,0,0,0,1.884-1.884Z" transform="translate(-4436.302 -1936.741)"/>
        <path d="M4486.635,1940.884a3.617,3.617,0,0,1,1.327,1.327,3.542,3.542,0,0,1,.489,1.815v8.728H4484.7v-7.984a1.826,1.826,0,0,0-.548-1.338,1.794,1.794,0,0,0-1.314-.546h-.559a1.8,1.8,0,0,0-1.316.546,1.82,1.82,0,0,0-.546,1.338v7.984h-3.749v-7.984a1.821,1.821,0,0,0-.547-1.338,1.792,1.792,0,0,0-1.315-.546h-.534a1.866,1.866,0,0,0-1.887,1.884v7.984h-3.724v-8.728a3.542,3.542,0,0,1,.489-1.815,3.62,3.62,0,0,1,1.328-1.327,3.537,3.537,0,0,1,1.814-.489h3.492a4.7,4.7,0,0,1,2.77.908,4.585,4.585,0,0,1,2.746-.908h3.514A3.535,3.535,0,0,1,4486.635,1940.884Z" transform="translate(-4436.761 -1936.741)"/>
        <path d="M4509.291,1940.884a3.619,3.619,0,0,1,1.329,1.327,3.546,3.546,0,0,1,.488,1.815v8.728h-3.747v-7.984a1.825,1.825,0,0,0-.546-1.338,1.8,1.8,0,0,0-1.315-.546h-.559a1.8,1.8,0,0,0-1.315.546,1.825,1.825,0,0,0-.547,1.338v7.984h-3.747v-7.984a1.82,1.82,0,0,0-.548-1.338,1.793,1.793,0,0,0-1.314-.546h-.536a1.866,1.866,0,0,0-1.885,1.884v7.984h-3.724v-8.728a3.542,3.542,0,0,1,.489-1.815,3.62,3.62,0,0,1,1.326-1.327,3.542,3.542,0,0,1,1.815-.489h3.491a4.694,4.694,0,0,1,2.77.908,4.6,4.6,0,0,1,2.747-.908h3.514A3.535,3.535,0,0,1,4509.291,1940.884Z" transform="translate(-4437.446 -1936.741)"/>
        <path d="M4517.512,1940.4v7.983a1.864,1.864,0,0,0,1.885,1.884h1.466a1.789,1.789,0,0,0,1.314-.546,1.817,1.817,0,0,0,.548-1.338V1940.4h3.748v8.728a3.537,3.537,0,0,1-.489,1.815,3.636,3.636,0,0,1-1.326,1.327,3.59,3.59,0,0,1-1.84.489h-5.4a3.539,3.539,0,0,1-1.815-.489,3.626,3.626,0,0,1-1.327-1.327,3.542,3.542,0,0,1-.489-1.815V1940.4Z" transform="translate(-4438.126 -1936.741)"/>
        <path d="M4537.677,1952.754v-7.984a1.866,1.866,0,0,0-1.885-1.884h-1.444a1.864,1.864,0,0,0-1.884,1.884v7.984h-3.724v-8.728a3.538,3.538,0,0,1,.489-1.815,3.61,3.61,0,0,1,1.325-1.327,3.539,3.539,0,0,1,1.816-.489h5.4a3.577,3.577,0,0,1,1.837.489,3.625,3.625,0,0,1,1.328,1.327,3.537,3.537,0,0,1,.488,1.815v8.728Z" transform="translate(-4438.578 -1936.741)"/>
        <path d="M4544.027,1936.651h3.724v3.631h-3.724Zm0,4.562h3.724v11.427h-3.724Z" transform="translate(-4439.041 -1936.628)"/>
        <path d="M4554.662,1948.73a1.43,1.43,0,0,0,1.42,1.419h1.7v2.491h-2.956a3.778,3.778,0,0,1-1.875-.489,4.042,4.042,0,0,1-1.419-1.316,3.733,3.733,0,0,1-.617-1.826v-6.237h-1.56v-2.49h1.56v-3.631h3.747v3.631h3.119v2.49h-3.119Z" transform="translate(-4439.202 -1936.628)"/>
        <path d="M4572.215,1940.4v12.1a3.818,3.818,0,0,1-.524,1.966,3.97,3.97,0,0,1-1.418,1.432,3.779,3.779,0,0,1-1.968.535h-8.354v-2.491h7.121a1.347,1.347,0,0,0,1-.43,1.406,1.406,0,0,0,.419-1.012v-1.559a9.315,9.315,0,0,1-3.049.512h-2.887a2.944,2.944,0,0,1-1.512-.407,3.07,3.07,0,0,1-1.513-2.642V1940.4h3.724v6.656a1.8,1.8,0,0,0,.558,1.338,1.83,1.83,0,0,0,1.326.547h.256a9.489,9.489,0,0,0,3.1-.512v-8.03Z" transform="translate(-4439.51 -1936.741)"/>
      </g>
    </g>
    <g transform="translate(4331.741 1753.677)" style="isolation: isolate">
      <g transform="translate(0)" style="isolation: isolate">
        <path d="M4346.728,1761.124a3.382,3.382,0,0,1,.34,1.5,3.344,3.344,0,0,1-.471,1.737,3.557,3.557,0,0,1-1.266,1.265,3.33,3.33,0,0,1-1.737.472h-8.361v-12.009h8.047a3.346,3.346,0,0,1,1.737.47,3.556,3.556,0,0,1,1.266,1.267,3.431,3.431,0,0,1,.218,3.028,3.638,3.638,0,0,1-.707,1.1A3.347,3.347,0,0,1,4346.728,1761.124Zm-8.7-1.956h4.33a1.515,1.515,0,0,0,1.125-.47,1.619,1.619,0,0,0,0-2.269,1.516,1.516,0,0,0-1.125-.471h-4.33Zm5.769,2.331a1.531,1.531,0,0,0-1.126-.463h-4.643v3.176h4.643a1.591,1.591,0,0,0,1.126-2.713Z" transform="translate(-4335.233 -1754.089)"/>
        <path d="M4351.67,1756.915v5.987a1.4,1.4,0,0,0,1.413,1.414h1.1a1.349,1.349,0,0,0,.986-.41,1.367,1.367,0,0,0,.41-1v-5.987h2.811v6.546a2.639,2.639,0,0,1-.368,1.36,2.721,2.721,0,0,1-2.373,1.363H4351.6a2.656,2.656,0,0,1-1.362-.367,2.718,2.718,0,0,1-.994-1,2.652,2.652,0,0,1-.367-1.36v-6.546Z" transform="translate(-4335.646 -1754.174)"/>
        <path d="M4369.856,1756.915v9.077a2.883,2.883,0,0,1-.392,1.475,2.991,2.991,0,0,1-1.065,1.073,2.818,2.818,0,0,1-1.475.4h-6.267v-1.868H4366a1.017,1.017,0,0,0,.75-.323,1.055,1.055,0,0,0,.314-.759v-1.171a6.961,6.961,0,0,1-2.287.385h-2.165a2.217,2.217,0,0,1-1.133-.305,2.3,2.3,0,0,1-1.135-1.981v-6h2.792v4.992a1.353,1.353,0,0,0,.418,1,1.374,1.374,0,0,0,1,.41h.192a7.094,7.094,0,0,0,2.322-.384v-6.022Z" transform="translate(-4335.993 -1754.174)"/>
        <path d="M4372.06,1754.107h2.794v2.723h-2.794Zm0,3.421h2.794v8.571h-2.794Z" transform="translate(-4336.347 -1754.089)"/>
        <path d="M4383.3,1766.184V1760.2a1.4,1.4,0,0,0-1.414-1.414H4380.8a1.4,1.4,0,0,0-1.415,1.414v5.987H4376.6v-6.546a2.667,2.667,0,0,1,.365-1.363,2.718,2.718,0,0,1,1-.994,2.652,2.652,0,0,1,1.36-.366h4.051a2.691,2.691,0,0,1,1.379.366,2.728,2.728,0,0,1,1,.994,2.664,2.664,0,0,1,.367,1.363v6.546Z" transform="translate(-4336.484 -1754.174)"/>
        <path d="M4407.2,1760.461q.673.017,1.073.017c.268,0,.611-.006,1.032-.017a6.863,6.863,0,0,1-.963,3.572q.538.6,1.045,1.117c.336.344.643.668.916.971q-.9-.016-1.406-.016h-1.347l-.972-1.014c-.215.165-.4.3-.558.4a5,5,0,0,1-.57.315,4.758,4.758,0,0,1-.712.273,5.476,5.476,0,0,1-.793.171,6.394,6.394,0,0,1-.9.06,5.939,5.939,0,0,1-2.262-.413,3.175,3.175,0,0,1-1.534-1.236,3.245,3.245,0,0,1-.525-1.785,3.289,3.289,0,0,1,.255-1.287,3.509,3.509,0,0,1,.861-1.172,9.217,9.217,0,0,1,1.875-1.249,6.149,6.149,0,0,1-.631-1.193,2.843,2.843,0,0,1-.187-.98,2.473,2.473,0,0,1,.26-1.1,2.63,2.63,0,0,1,.763-.924,3.016,3.016,0,0,1,1.12-.549,5.29,5.29,0,0,1,1.317-.158,10.128,10.128,0,0,1,2.472.349l.042,1.9a5.343,5.343,0,0,0-.976-.38,3.307,3.307,0,0,0-.78-.1,2.284,2.284,0,0,0-.907.176,1.336,1.336,0,0,0-.63.511,1.275,1.275,0,0,0-.218.711,1.809,1.809,0,0,0,.056.431,2.683,2.683,0,0,0,.208.531,7.321,7.321,0,0,0,.623.989q.494.673,1.031,1.27.127.153.921.963.358.367.682.724a3.885,3.885,0,0,0,.171-.49,4.578,4.578,0,0,0,.093-.567C4407.167,1761.044,4407.186,1760.768,4407.2,1760.461Zm-1.782,3.239-1.117-1.2q-.478-.512-.8-.882t-.758-.9a10.277,10.277,0,0,0-.873.594,2.387,2.387,0,0,0-.477.5,1.732,1.732,0,0,0-.266.521,1.859,1.859,0,0,0-.072.509,1.581,1.581,0,0,0,.286.918,1.778,1.778,0,0,0,.8.631,2.952,2.952,0,0,0,1.163.218,3.212,3.212,0,0,0,.69-.073,2.694,2.694,0,0,0,.592-.2,2.2,2.2,0,0,0,.436-.268A4.835,4.835,0,0,0,4405.416,1763.7Z" transform="translate(-4337.154 -1754.094)"/>
        <path d="M4432.01,1766.184h-6.772a2.689,2.689,0,0,1-1.379-.367,2.716,2.716,0,0,1-.995-1,2.678,2.678,0,0,1-.366-1.378v-3.789a2.69,2.69,0,0,1,.366-1.379,2.726,2.726,0,0,1,.995-.994,2.69,2.69,0,0,1,1.379-.366h6.772v1.868H4426.7a1.376,1.376,0,0,0-1,.41,1.35,1.35,0,0,0-.419,1v2.706a1.351,1.351,0,0,0,.419,1,1.379,1.379,0,0,0,1,.41h5.306Z" transform="translate(-4337.873 -1754.174)"/>
        <path d="M4436.773,1766.1h-2.81v-11.992h2.81Z" transform="translate(-4338.221 -1754.089)"/>
        <path d="M4449.008,1756.915v9.269h-2.793v-.489a7.066,7.066,0,0,1-2.583.489h-2.846a2.2,2.2,0,0,1-1.134-.307,2.256,2.256,0,0,1-.829-.828,2.213,2.213,0,0,1-.306-1.135v-4.73a2.211,2.211,0,0,1,.306-1.135,2.266,2.266,0,0,1,.829-.829,2.21,2.21,0,0,1,1.134-.305h2.828a7.213,7.213,0,0,1,2.6.489v-.489Zm-2.793,6.912v-4.556a7.117,7.117,0,0,0-2.6-.489h-.89a1.4,1.4,0,0,0-1.415,1.414v2.706a1.4,1.4,0,0,0,1.415,1.414h.89A7.114,7.114,0,0,0,4446.215,1763.827Z" transform="translate(-4338.358 -1754.174)"/>
        <path d="M4450.99,1754.107h2.794v2.723h-2.794Zm0,3.421h2.794v8.571h-2.794Z" transform="translate(-4338.735 -1754.089)"/>
        <path d="M4469.146,1757.281a2.727,2.727,0,0,1,1,.994,2.659,2.659,0,0,1,.367,1.363v6.546H4467.7V1760.2a1.366,1.366,0,0,0-.409-1,1.345,1.345,0,0,0-.986-.41h-.418a1.347,1.347,0,0,0-.987.41,1.366,1.366,0,0,0-.409,1v5.987h-2.811V1760.2a1.362,1.362,0,0,0-.411-1,1.343,1.343,0,0,0-.985-.41h-.4a1.4,1.4,0,0,0-1.414,1.414v5.987h-2.793v-6.546a2.664,2.664,0,0,1,.367-1.363,2.721,2.721,0,0,1,.994-.994,2.66,2.66,0,0,1,1.361-.366h2.62a3.523,3.523,0,0,1,2.076.68,3.455,3.455,0,0,1,2.061-.68h2.635A2.653,2.653,0,0,1,4469.146,1757.281Z" transform="translate(-4338.877 -1754.174)"/>
        <path d="M4491.906,1760.461q.673.017,1.073.017c.268,0,.611-.006,1.032-.017a6.871,6.871,0,0,1-.962,3.572q.536.6,1.043,1.117t.917.971q-.9-.016-1.407-.016h-1.347l-.971-1.014c-.215.165-.4.3-.558.4a5.045,5.045,0,0,1-.572.315,4.666,4.666,0,0,1-.711.273,5.476,5.476,0,0,1-.793.171,6.387,6.387,0,0,1-.9.06,5.952,5.952,0,0,1-2.264-.413,3.193,3.193,0,0,1-1.534-1.236,3.334,3.334,0,0,1-.269-3.072,3.509,3.509,0,0,1,.861-1.172,9.237,9.237,0,0,1,1.875-1.249,6.128,6.128,0,0,1-.631-1.193,2.843,2.843,0,0,1-.187-.98,2.5,2.5,0,0,1,.259-1.1,2.654,2.654,0,0,1,.764-.924,3.006,3.006,0,0,1,1.121-.549,5.27,5.27,0,0,1,1.316-.158,10.128,10.128,0,0,1,2.472.349l.042,1.9a5.282,5.282,0,0,0-.977-.38,3.287,3.287,0,0,0-.779-.1,2.3,2.3,0,0,0-.908.176,1.352,1.352,0,0,0-.63.511,1.286,1.286,0,0,0-.218.711,1.718,1.718,0,0,0,.057.431,2.534,2.534,0,0,0,.208.531,7.263,7.263,0,0,0,.623.989q.494.673,1.031,1.27.127.153.921.963.358.367.682.724a3.979,3.979,0,0,0,.171-.49,4.773,4.773,0,0,0,.093-.567Q4491.89,1760.921,4491.906,1760.461Zm-1.781,3.239-1.117-1.2q-.478-.512-.8-.882t-.758-.9q-.588.368-.875.594a2.506,2.506,0,0,0-.477.5,1.723,1.723,0,0,0-.264.521,1.788,1.788,0,0,0-.073.509,1.587,1.587,0,0,0,.285.918,1.8,1.8,0,0,0,.8.631,2.964,2.964,0,0,0,1.164.218,3.22,3.22,0,0,0,.691-.073,2.743,2.743,0,0,0,.592-.2,2.169,2.169,0,0,0,.434-.268A4.6,4.6,0,0,0,4490.125,1763.7Z" transform="translate(-4339.717 -1754.094)"/>
        <path d="M4510,1756.915v5.987a1.4,1.4,0,0,0,1.414,1.414h1.1a1.345,1.345,0,0,0,.985-.41,1.365,1.365,0,0,0,.412-1v-5.987h2.81v6.546a2.651,2.651,0,0,1-.366,1.36,2.719,2.719,0,0,1-1,1,2.686,2.686,0,0,1-1.379.367h-4.049a2.655,2.655,0,0,1-1.362-.367,2.712,2.712,0,0,1-.995-1,2.647,2.647,0,0,1-.367-1.36v-6.546Z" transform="translate(-4340.436 -1754.174)"/>
        <path d="M4527.774,1757.239a2.266,2.266,0,0,1,.83.829,2.217,2.217,0,0,1,.3,1.135v4.713a2.217,2.217,0,0,1-.3,1.135,2.264,2.264,0,0,1-.83.828,2.2,2.2,0,0,1-1.135.307h-2.81a5.883,5.883,0,0,1-2.6-.629v3.37h-2.811v-11.992h2.811v.611a6.158,6.158,0,0,1,2.583-.611h2.828A2.211,2.211,0,0,1,4527.774,1757.239Zm-1.659,2.959a1.373,1.373,0,0,0-.409-.995,1.33,1.33,0,0,0-.986-.419h-.89a6.194,6.194,0,0,0-2.6.611v4.312a5.884,5.884,0,0,0,2.6.611h.89a1.351,1.351,0,0,0,.986-.41,1.366,1.366,0,0,0,.409-1Z" transform="translate(-4340.775 -1754.175)"/>
        <path d="M4541.13,1754.089V1766.1h-2.792v-.489a7.063,7.063,0,0,1-2.583.489h-2.862a2.154,2.154,0,0,1-1.127-.307,2.268,2.268,0,0,1-.82-.828,2.2,2.2,0,0,1-.306-1.135v-4.73a2.2,2.2,0,0,1,.306-1.135,2.278,2.278,0,0,1,.82-.829,2.163,2.163,0,0,1,1.127-.305h2.844a7.113,7.113,0,0,1,2.6.489v-3.229Zm-2.792,9.653v-4.556a7.114,7.114,0,0,0-2.6-.489h-.89a1.4,1.4,0,0,0-1.415,1.414v2.706a1.4,1.4,0,0,0,1.415,1.414h.89A7.111,7.111,0,0,0,4538.338,1763.742Z" transform="translate(-4341.145 -1754.089)"/>
        <path d="M4553.353,1756.915v9.269h-2.794v-.489a7.069,7.069,0,0,1-2.583.489h-2.845a2.209,2.209,0,0,1-1.135-.307,2.278,2.278,0,0,1-.829-.828,2.222,2.222,0,0,1-.305-1.135v-4.73a2.22,2.22,0,0,1,.305-1.135,2.288,2.288,0,0,1,.829-.829,2.218,2.218,0,0,1,1.135-.305h2.828a7.2,7.2,0,0,1,2.6.489v-.489Zm-2.794,6.912v-4.556a7.115,7.115,0,0,0-2.6-.489h-.89a1.4,1.4,0,0,0-1.413,1.414v2.706a1.4,1.4,0,0,0,1.413,1.414h.89A7.112,7.112,0,0,0,4550.559,1763.827Z" transform="translate(-4341.515 -1754.174)"/>
        <path d="M4558.522,1763.165a1.075,1.075,0,0,0,1.066,1.066h1.272v1.868h-2.216a2.827,2.827,0,0,1-1.4-.367,3.037,3.037,0,0,1-1.065-.986,2.774,2.774,0,0,1-.462-1.37V1758.7h-1.17v-1.868h1.17v-2.723h2.809v2.723h2.339v1.868h-2.339Z" transform="translate(-4341.868 -1754.089)"/>
        <path d="M4569.6,1756.915a1.818,1.818,0,0,1,1.831,1.833v2.042a1.768,1.768,0,0,1-.532,1.291,1.749,1.749,0,0,1-1.3.542h-4.889v.627a1.072,1.072,0,0,0,1.063,1.066h5.447v1.868h-6.372a2.873,2.873,0,0,1-1.475-.393,2.926,2.926,0,0,1-1.064-1.065,2.867,2.867,0,0,1-.392-1.476v-3.4a2.867,2.867,0,0,1,.392-1.475,2.937,2.937,0,0,1,1.064-1.066,2.883,2.883,0,0,1,1.475-.392Zm-1.2,3.622a.7.7,0,0,0,.22-.515v-.506a.749.749,0,0,0-.733-.733h-2.114a1.072,1.072,0,0,0-1.063,1.065v.908h3.178A.7.7,0,0,0,4568.407,1760.537Z" transform="translate(-4342.092 -1754.174)"/>
        <path d="M4593.292,1757.239a2.247,2.247,0,0,1,.829.829,2.2,2.2,0,0,1,.305,1.135v4.713a2.2,2.2,0,0,1-.305,1.135,2.245,2.245,0,0,1-.829.828,2.2,2.2,0,0,1-1.135.307h-2.809a5.892,5.892,0,0,1-2.6-.629v3.37h-2.809v-11.992h2.809v.611a6.158,6.158,0,0,1,2.583-.611h2.828A2.214,2.214,0,0,1,4593.292,1757.239Zm-1.657,2.959a1.371,1.371,0,0,0-.411-.995,1.326,1.326,0,0,0-.985-.419h-.89a6.193,6.193,0,0,0-2.6.611v4.312a5.886,5.886,0,0,0,2.6.611h.89a1.347,1.347,0,0,0,.985-.41,1.364,1.364,0,0,0,.411-1Z" transform="translate(-4342.758 -1754.175)"/>
        <path d="M4602.5,1758.783h-2.13a1.342,1.342,0,0,0-.985.41,1.362,1.362,0,0,0-.411,1v5.987h-2.811v-6.546a2.66,2.66,0,0,1,.368-1.363,2.727,2.727,0,0,1,.994-.994,2.661,2.661,0,0,1,1.362-.366h3.613Z" transform="translate(-4343.127 -1754.174)"/>
        <path d="M4611.654,1757.281a2.725,2.725,0,0,1,.994.994,2.665,2.665,0,0,1,.367,1.363v3.823a2.652,2.652,0,0,1-.367,1.36,2.723,2.723,0,0,1-2.374,1.363h-4.049a2.645,2.645,0,0,1-1.371-.367,2.737,2.737,0,0,1-.984-1,2.648,2.648,0,0,1-.368-1.36v-3.823a2.66,2.66,0,0,1,.368-1.363,2.748,2.748,0,0,1,.984-.994,2.646,2.646,0,0,1,1.371-.366h4.049A2.69,2.69,0,0,1,4611.654,1757.281Zm-1.449,2.915a1.4,1.4,0,0,0-1.413-1.414h-1.083a1.4,1.4,0,0,0-1.413,1.414v2.706a1.4,1.4,0,0,0,1.413,1.414h1.083a1.4,1.4,0,0,0,1.413-1.414Z" transform="translate(-4343.35 -1754.174)"/>
        <path d="M4619.232,1756.193a.724.724,0,0,0-.218.532v.1h1.8v1.868h-1.8v7.4h-2.793v-7.4h-1.4v-1.868h1.4v-.1a2.583,2.583,0,0,1,.35-1.319,2.617,2.617,0,0,1,.95-.959,2.539,2.539,0,0,1,1.319-.358h1.972v1.884h-1.047A.726.726,0,0,0,4619.232,1756.193Z" transform="translate(-4343.693 -1754.089)"/>
        <path d="M4622.781,1754.107h2.792v2.723h-2.792Zm0,3.421h2.792v8.571h-2.792Z" transform="translate(-4343.934 -1754.089)"/>
        <path d="M4630.377,1766.1h-2.809v-11.992h2.809Z" transform="translate(-4344.078 -1754.089)"/>
        <path d="M4639.8,1756.915a1.818,1.818,0,0,1,1.831,1.833v2.042a1.768,1.768,0,0,1-.532,1.291,1.75,1.75,0,0,1-1.3.542h-4.889v.627a1.073,1.073,0,0,0,1.063,1.066h5.448v1.868h-6.372a2.87,2.87,0,0,1-1.475-.393,2.927,2.927,0,0,1-1.065-1.065,2.881,2.881,0,0,1-.392-1.476v-3.4a2.881,2.881,0,0,1,.392-1.475,2.938,2.938,0,0,1,1.065-1.066,2.88,2.88,0,0,1,1.475-.392Zm-1.2,3.622a.706.706,0,0,0,.22-.515v-.506a.748.748,0,0,0-.733-.733h-2.114a1.073,1.073,0,0,0-1.063,1.065v.908h3.178A.7.7,0,0,0,4638.606,1760.537Z" transform="translate(-4344.215 -1754.174)"/>
      </g>
    </g>
    <g transform="translate(4746.888 1813.204)">
      <rect width="2.909" height="225.95" transform="translate(0)"/>
    </g>
    <g transform="translate(4323.11 1775.384)">
      <rect width="321.955" height="2.909"/>
    </g>
    <g transform="translate(4746.888 2110.915)">
      <rect width="2.909" height="93.095" transform="translate(0)"/>
    </g>
    <g transform="translate(4851.621 1775.384)">
      <rect width="253.103" height="2.909" transform="translate(0)"/>
    </g>
    <g transform="translate(4494.294 2078.645)">
      <path d="M4653.627,2092.189l-3.369,0,0-2.909,3.369,0Zm-7.248,0-3.879,0,0-2.909,3.879,0Zm-7.758,0-3.879,0,0-2.909,3.879,0Zm-7.758,0-3.879,0,0-2.909,3.879,0Zm-7.758,0-3.879,0,0-2.909,3.879,0Zm-7.758,0-3.879,0v-2.909l3.879,0Zm-7.758,0-3.879,0,0-2.909,3.879,0Zm-7.758,0-3.879,0,0-2.909,3.879,0Zm-7.758,0-3.879,0,0-2.909,3.879,0Zm-7.758,0-3.879,0,0-2.909,3.879,0Zm-7.758,0-3.879,0,0-2.909,3.879,0Zm-7.758,0-3.879,0,0-2.909,3.879,0Zm-7.758,0-3.879,0v-2.909l3.879,0Zm-7.758,0-3.879,0,0-2.909,3.879,0Zm-7.758,0-3.879,0,0-2.909,3.879,0Zm-7.758,0-3.879,0,0-2.909,3.879,0Zm-7.758,0-3.879,0,0-2.909,3.879,0Zm-7.758,0-3.879,0,0-2.909,3.879,0Zm-7.758,0-3.879,0,0-2.909,3.879,0Zm-7.758,0-3.879,0V2089.2l3.879,0Z" transform="translate(-4502.857 -2089.196)"/>
    </g>
    <g transform="translate(4494.27 1978.545)">
      <path d="M4505.741,2087.611h-2.909v-3.879h2.909Zm0-7.758h-2.909v-3.879h2.909Zm0-7.758h-2.909v-3.879h2.909Zm0-7.758h-2.909v-3.879h2.909Zm0-7.758h-2.909V2052.7h2.909Zm0-7.758h-2.909v-3.879h2.909Zm0-7.758h-2.909v-3.879h2.909Zm0-7.758h-2.909v-3.879h2.909Zm0-7.758h-2.909v-3.879h2.909Zm0-7.758h-2.909v-3.879h2.909Zm0-7.758h-2.909v-3.879h2.909Zm0-7.758h-2.909v-3.879h2.909Zm0-7.758h-2.909v-3.879h2.909Zm0-7.758h-2.909v-.784h2.909Z" transform="translate(-4502.832 -1985.973)"/>
    </g>
    <g transform="translate(4851.621 2073.983)">
      <rect width="358.805" height="2.909" transform="translate(0 0)"/>
    </g>
    <g transform="translate(5209.295 1976.605)">
      <rect width="2.909" height="100.184" transform="translate(0)"/>
    </g>
    <g transform="translate(4613.294 1917.564)" style="isolation: isolate">
      <g style="isolation: isolate">
        <path d="M4636.863,1928.989a3.8,3.8,0,0,1-1.466,1.414l2.006,4.7h-2.792l-1.816-4.207h-4.414v4.207h-2.812v-12.009h7.925a3.838,3.838,0,0,1,1.964.524,3.893,3.893,0,0,1,1.422,1.414,3.777,3.777,0,0,1,.523,1.955A3.845,3.845,0,0,1,4636.863,1928.989Zm-8.482.035h4.188a1.981,1.981,0,0,0,1.44-.593,1.957,1.957,0,0,0,.6-1.449,1.936,1.936,0,0,0-.6-1.431,1.981,1.981,0,0,0-1.44-.593h-4.188Z" transform="translate(-4625.57 -1923.089)"/>
        <path d="M4646.589,1925.915a1.82,1.82,0,0,1,1.833,1.833v2.042a1.773,1.773,0,0,1-.534,1.291,1.752,1.752,0,0,1-1.3.542H4641.7v.627a1.071,1.071,0,0,0,1.066,1.066h5.445v1.868h-6.372a2.87,2.87,0,0,1-1.474-.393,2.932,2.932,0,0,1-1.066-1.065,2.881,2.881,0,0,1-.392-1.476v-3.4a2.88,2.88,0,0,1,.392-1.475,2.942,2.942,0,0,1,1.066-1.066,2.88,2.88,0,0,1,1.474-.392Zm-1.195,3.622a.707.707,0,0,0,.217-.515v-.506a.743.743,0,0,0-.733-.733h-2.111a1.071,1.071,0,0,0-1.066,1.065v.908h3.177A.711.711,0,0,0,4645.394,1929.537Z" transform="translate(-4625.973 -1923.174)"/>
        <path d="M4659.478,1926.239a2.256,2.256,0,0,1,.83.829,2.212,2.212,0,0,1,.3,1.135v4.713a2.212,2.212,0,0,1-.3,1.135,2.255,2.255,0,0,1-.83.828,2.2,2.2,0,0,1-1.135.306h-2.809a5.889,5.889,0,0,1-2.6-.629v3.37h-2.81v-11.992h2.81v.611a6.155,6.155,0,0,1,2.583-.611h2.828A2.21,2.21,0,0,1,4659.478,1926.239Zm-1.657,2.959a1.374,1.374,0,0,0-.41-.995,1.33,1.33,0,0,0-.986-.419h-.89a6.194,6.194,0,0,0-2.6.611v4.312a5.883,5.883,0,0,0,2.6.611h.89a1.351,1.351,0,0,0,.986-.41,1.367,1.367,0,0,0,.41-1Z" transform="translate(-4626.313 -1923.175)"/>
        <path d="M4670.5,1926.282a2.728,2.728,0,0,1,.994.994,2.664,2.664,0,0,1,.367,1.362v3.823a2.652,2.652,0,0,1-.367,1.361,2.718,2.718,0,0,1-.994,1,2.688,2.688,0,0,1-1.379.367h-4.051a2.643,2.643,0,0,1-1.37-.367,2.723,2.723,0,0,1-.985-1,2.647,2.647,0,0,1-.367-1.361v-3.823a2.659,2.659,0,0,1,.367-1.362,2.733,2.733,0,0,1,.985-.994,2.644,2.644,0,0,1,1.37-.367h4.051A2.69,2.69,0,0,1,4670.5,1926.282Zm-1.449,2.915a1.4,1.4,0,0,0-1.415-1.414h-1.082a1.4,1.4,0,0,0-1.414,1.414v2.706a1.4,1.4,0,0,0,1.414,1.414h1.082a1.4,1.4,0,0,0,1.415-1.414Z" transform="translate(-4626.683 -1923.174)"/>
        <path d="M4679.893,1927.783h-2.13a1.344,1.344,0,0,0-.985.41,1.365,1.365,0,0,0-.41,1v5.987h-2.812v-6.546a2.664,2.664,0,0,1,.368-1.362,2.722,2.722,0,0,1,.995-.994,2.655,2.655,0,0,1,1.362-.367h3.613Z" transform="translate(-4627.021 -1923.174)"/>
        <path d="M4684.341,1932.165a1.073,1.073,0,0,0,1.064,1.066h1.275v1.868h-2.216a2.831,2.831,0,0,1-1.406-.367,3.028,3.028,0,0,1-1.064-.986,2.8,2.8,0,0,1-.463-1.37V1927.7h-1.169v-1.868h1.169v-2.723h2.81v2.723h2.339v1.868h-2.339Z" transform="translate(-4627.228 -1923.089)"/>
      </g>
    </g>
    <g transform="translate(4601.423 1939.066)">
      <path d="M4613.335,1948.376l-.006-2.909.97,0,.006,2.909Zm4.85-.012-.007-2.909,3.879-.01.007,2.909Zm7.758-.018-.007-2.909,3.879-.01.007,2.909Zm7.757-.019-.006-2.909,3.879-.009.006,2.909Zm7.759-.018-.008-2.909,3.879-.009.007,2.909Zm7.758-.018-.007-2.909,3.879-.01.007,2.909Zm7.757-.019-.006-2.909,3.879-.008.006,2.909Zm7.759-.017-.008-2.909,3.879-.01.008,2.909Zm7.758-.019-.007-2.909,3.879-.009.007,2.909Zm7.757-.019-.005-2.909,3.879-.009.006,2.909Zm7.759-.018-.008-2.909,3.879-.01.008,2.909Zm7.758-.018-.008-2.909,3.883-.007v2.909Z" transform="translate(-4613.329 -1945.262)"/>
    </g>
    <g transform="translate(4684.824 1812.234)">
      <path d="M4702.241,1942.479h-2.909V1938.6h2.909Zm0-7.758h-2.909v-3.879h2.909Zm0-7.758h-2.909v-3.879h2.909Zm0-7.758h-2.909v-3.879h2.909Zm0-7.758h-2.909v-3.879h2.909Zm0-7.758h-2.909v-3.879h2.909Zm0-7.758h-2.909v-3.879h2.909Zm0-7.758h-2.909v-3.879h2.909Zm0-7.758h-2.909v-3.879h2.909Zm0-7.758h-2.909v-3.879h2.909Zm0-7.758h-2.909v-3.879h2.909Zm0-7.758h-2.909v-3.879h2.909Zm0-7.758h-2.909V1845.5h2.909Zm0-7.758h-2.909v-3.879h2.909Zm0-7.758h-2.909v-3.879h2.909Zm0-7.758h-2.909v-3.879h2.909Zm0-7.758h-2.909v-3.879h2.909Z" transform="translate(-4699.332 -1814.473)"/>
    </g>
    <g transform="translate(4808.952 1811.264)">
      <rect width="2.909" height="128.976"/>
    </g>
    <g transform="translate(4808.975 1937.805)">
      <rect width="297.203" height="2.909"/>
    </g>
    <g transform="translate(4739.216 2028.23)">
      <path d="M4764.509,2048.649l-9.087-10.145,1.445-1.294,7.648,8.538,7.714-8.541,1.439,1.3Z" transform="translate(-4755.421 -2037.208)"/>
    </g>
    <g transform="translate(4739.216 1811.754)">
      <path d="M4772.229,1825.419l-7.714-8.541-7.648,8.538-1.445-1.294,9.087-10.144,9.16,10.142Z" transform="translate(-4755.421 -1813.978)"/>
    </g>
    <g transform="translate(5096.187 1767.712)">
      <path d="M5124.829,1786.809l-1.3-1.44,8.542-7.714-8.539-7.648,1.293-1.445,10.145,9.088Z" transform="translate(-5123.529 -1768.562)"/>
    </g>
    <g transform="translate(5097.157 1930.144)">
      <path d="M5125.829,1954.309l-1.3-1.439,8.542-7.714-8.539-7.648,1.294-1.445,10.144,9.088Z" transform="translate(-5124.529 -1936.062)"/>
    </g>
    <g transform="translate(4426.264 2194.883)">
      <path d="M4442.845,2227.312l-10.141-9.163,10.144-9.088,1.294,1.445-8.539,7.648,8.542,7.718Z" transform="translate(-4432.705 -2209.061)"/>
    </g>
    <g transform="translate(5201.623 1974.671)">
      <path d="M5249.063,1993.419l-7.714-8.541-7.648,8.538-1.445-1.294,9.088-10.144,9.159,10.142Z" transform="translate(-5232.255 -1981.978)"/>
    </g>
    <g transform="translate(4599.492 1931.413)">
      <path d="M4621.479,1955.621l-10.142-9.162,10.145-9.089,1.293,1.445-8.539,7.649,8.542,7.717Z" transform="translate(-4611.337 -1937.37)"/>
    </g>
    <g transform="translate(4486.598 1977.095)">
      <path d="M4511.729,1995.919l-7.714-8.541-7.648,8.538-1.445-1.294,9.088-10.145,9.159,10.142Z" transform="translate(-4494.921 -1984.478)"/>
    </g>
  </g>
</svg>
